<?xml version="1.0" standalone="no"?><!DOCTYPE svg PUBLIC "-//W3C//DTD SVG 1.1//EN" "http://www.w3.org/Graphics/SVG/1.1/DTD/svg11.dtd"><svg t="1615440840770" class="icon" viewBox="0 0 1024 1024" version="1.1" xmlns="http://www.w3.org/2000/svg" p-id="61122" xmlns:xlink="http://www.w3.org/1999/xlink" width="200" height="200"><defs><style type="text/css"></style></defs><path d="M948.7 573.6c41.6 0 75.3-33.7 75.3-75.3v-423C1024 33.7 990.3 0 948.7 0H752.2c-41.6 0-75.3 33.7-75.3 75.3v73.2H573.6V75.3c0-41.6-33.7-75.3-75.3-75.3h-423C33.7 0 0 33.7 0 75.3v196.5c0 41.6 33.7 75.3 75.3 75.3h73.2v103.3H75.3C33.7 450.4 0 484.1 0 525.7v423c0 41.6 33.7 75.3 75.3 75.3h196.5c41.6 0 75.3-33.7 75.3-75.3v-73.2h103.3v73.2c0 41.6 33.7 75.3 75.3 75.3h423c41.6 0 75.3-33.7 75.3-75.3V752.2c0-41.6-33.7-75.3-75.3-75.3h-73.2V573.6h73.2zM726.9 75.3c0-14 11.4-25.3 25.3-25.3h196.5c14 0 25.3 11.4 25.3 25.3v423c0 14-11.4 25.3-25.3 25.3H752.2c-14 0-25.3-11.4-25.3-25.3v-423zM50 271.8V75.3C50 61.4 61.4 50 75.3 50h423c14 0 25.3 11.4 25.3 25.3v196.5c0 14-11.4 25.3-25.3 25.3h-423c-13.9 0-25.3-11.4-25.3-25.3z m247.1 676.9c0 14-11.4 25.3-25.3 25.3H75.3c-14 0-25.3-11.4-25.3-25.3v-423c0-14 11.4-25.3 25.3-25.3h196.5c14 0 25.3 11.4 25.3 25.3v423zM974 752.2v196.5c0 14-11.4 25.3-25.3 25.3h-423c-14 0-25.3-11.4-25.3-25.3V752.2c0-14 11.4-25.3 25.3-25.3h423c13.9 0 25.3 11.4 25.3 25.3z m-148.5-75.3H525.7c-41.6 0-75.3 33.7-75.3 75.3v73.2H347.1V525.7c0-41.6-33.7-75.3-75.3-75.3h-73.2V347.1h299.7c41.6 0 75.3-33.7 75.3-75.3v-73.2h103.3v299.7c0 41.6 33.7 75.3 75.3 75.3h73.2v103.3z" p-id="61123" fill="#333333"></path></svg>