<?xml version="1.0" standalone="no"?><!DOCTYPE svg PUBLIC "-//W3C//DTD SVG 1.1//EN" "http://www.w3.org/Graphics/SVG/1.1/DTD/svg11.dtd"><svg t="1615441608134" class="icon" viewBox="0 0 1024 1024" version="1.1" xmlns="http://www.w3.org/2000/svg" p-id="82139" xmlns:xlink="http://www.w3.org/1999/xlink" width="200" height="200"><defs><style type="text/css"></style></defs><path d="M952.734 586.791l-0.054-0.009c0 0.028-0.008 0.057-0.013 0.086a30.015 30.015 0 1 1-59.167-10.117c0.1-0.586 0.221-1.162 0.353-1.734A389.324 389.324 0 0 0 899 511.98c0-213.736-173.266-387-387-387s-387 173.268-387 387 173.266 387.005 387 387.005v0.031a30 30 0 0 1 0 60c-0.279 0-0.549-0.034-0.826-0.042C264.684 958.527 65 758.58 65 511.985c0-246.872 200.129-447 447-447s447 200.128 447 447a449.817 449.817 0 0 1-6.266 74.806zM692 512.016a29.843 29.843 0 0 1-6.508 18.624l-148.04 256.413a30 30 0 1 1-51.961-30l124.152-215.037H363.106a29.591 29.591 0 0 1-3.456-0.119 29.976 29.976 0 0 1-20.75-49.021l147.591-255.63a30 30 0 1 1 51.961 30l-123.998 214.77H662a30 30 0 0 1 30 30z m8.781 294.906a30 30 0 0 1 30 30v91.813a30 30 0 0 1-60 0v-91.813a30 30 0 0 1 30-30z m114-130a30 30 0 0 1 30 30v221.813a30 30 0 0 1-60 0V706.922a30 30 0 0 1 30-30z m114 48a30 30 0 0 1 30 30v173.813a30 30 0 0 1-60 0V754.922a30 30 0 0 1 30-30z" fill="#ffffff" p-id="82140"></path></svg>