<?xml version="1.0" standalone="no"?><!DOCTYPE svg PUBLIC "-//W3C//DTD SVG 1.1//EN" "http://www.w3.org/Graphics/SVG/1.1/DTD/svg11.dtd"><svg t="1615441254071" class="icon" viewBox="0 0 1024 1024" version="1.1" xmlns="http://www.w3.org/2000/svg" p-id="75013" xmlns:xlink="http://www.w3.org/1999/xlink" width="200" height="200"><defs><style type="text/css"></style></defs><path d="M228 450.67l104.55-62.11 106.07 59.48 1.52 121.61-104.56 62.11-106.07-59.49-1.51-121.6z" fill="#333333" p-id="75014"></path><path d="M644.34 342.11L329.78 165.7 19.71 349.89l4.49 360.63 314.58 176.41 310.05-184.22zM337.85 814l-124.22-69.71 122.72-50.57 123.94 47.49z m-2.72-218.66l-74.23-41.73-1.07-85.1L333 425.05l74.24 41.64 1.05 85.1z m194.42 104.71L379.37 642.5l92.6-55L470 429.4l-137.89-77.32-136 80.75 2 158.07 93.93 52.69-148.7 61.27L87 673.23l-3.61-287.66 247.28-146.9L581.58 379.4l3.57 287.6zM799.28 402.64l-71.23-40L727 281l70.2-41.73 71.26 39.94 1 81.68zM759.41 344l39.4 22.13 38.85-23.08-0.57-45.2-39.4-22.1-38.85 23.09z" p-id="75015" fill="#333333"></path><path d="M795.47 96.91L608.26 208.12l29 48.73 159.07-94.51 147.1 82.5 2.1 168.67-36.81 21.87-109.47-34.57-126.48 43.46 0.43 34.33 162 66.3 167.31-99.39-2.92-234.08zM806 494.16l-77.1-28.55 70.92-23.32 70.17 23.28zM855.28 615.31l1.83 147.03-202.7 2.52-97.44 57.89 357.51-4.46-2.94-236.4-56.26 33.42z" p-id="75016" fill="#333333"></path></svg>