<?xml version="1.0" standalone="no"?><!DOCTYPE svg PUBLIC "-//W3C//DTD SVG 1.1//EN" "http://www.w3.org/Graphics/SVG/1.1/DTD/svg11.dtd"><svg t="1615441005149" class="icon" viewBox="0 0 1024 1024" version="1.1" xmlns="http://www.w3.org/2000/svg" p-id="65223" xmlns:xlink="http://www.w3.org/1999/xlink" width="200" height="200"><defs><style type="text/css"></style></defs><path d="M192 640a128 128 0 0 1 128 128v64a128 128 0 1 1-256 0v-64a128 128 0 0 1 128-128z m320 0a128 128 0 0 1 128 128v64a128 128 0 1 1-256 0v-64a128 128 0 0 1 128-128z m320 0a128 128 0 0 1 128 128v64a128 128 0 1 1-256 0v-64a128 128 0 0 1 128-128zM192 704a64 64 0 0 0-63.552 56.512L128 768v64a64 64 0 0 0 127.552 7.488L256 832v-64a64 64 0 0 0-64-64z m320 0a64 64 0 0 0-63.552 56.512L448 768v64a64 64 0 0 0 127.552 7.488L576 832v-64a64 64 0 0 0-64-64z m320 0a64 64 0 0 0-63.552 56.512L768 768v64a64 64 0 0 0 127.552 7.488L896 832v-64a64 64 0 0 0-64-64zM512 352a32 32 0 0 1 31.488 26.24L544 384v32H768a96 96 0 0 1 95.552 86.784L864 512v64a32 32 0 0 1-63.488 5.76L800 576V512a32 32 0 0 0-26.24-31.488L768 480H544V576a32 32 0 0 1-63.488 5.76L480 576V480H256a32 32 0 0 0-31.488 26.24L224 512v64a32 32 0 0 1-63.488 5.76L160 576V512a96 96 0 0 1 86.784-95.552L256 416h224V384a32 32 0 0 1 32-32zM640 64a128 128 0 1 1 0 256H384a128 128 0 1 1 0-256h256z m0 64H384a64 64 0 0 0-7.488 127.552L384 256h256a64 64 0 0 0 7.488-127.552L640 128z" fill="#333333" p-id="65224"></path></svg>