<svg xmlns="http://www.w3.org/2000/svg" xmlns:xlink="http://www.w3.org/1999/xlink" viewBox="0 0 86.6 89.23"><defs><style>.cls-1{fill:url(#未命名的渐变_10);}.cls-2{fill:url(#未命名的渐变_10-2);}.cls-3{fill:url(#未命名的渐变_10-3);}.cls-4{fill:url(#未命名的渐变_10-4);}.cls-5{fill:url(#未命名的渐变_10-5);}</style><linearGradient id="未命名的渐变_10" y1="61.15" x2="43.04" y2="61.15" gradientUnits="userSpaceOnUse"><stop offset="0" stop-color="#9fffd8"/><stop offset="1" stop-color="#0c9"/></linearGradient><linearGradient id="未命名的渐变_10-2" x1="21.52" y1="20.99" x2="63.51" y2="20.99" xlink:href="#未命名的渐变_10"/><linearGradient id="未命名的渐变_10-3" x1="53.01" y1="73.48" x2="84.5" y2="73.48" xlink:href="#未命名的渐变_10"/><linearGradient id="未命名的渐变_10-4" x1="66.13" y1="46.71" x2="83.45" y2="46.71" xlink:href="#未命名的渐变_10"/><linearGradient id="未命名的渐变_10-5" x1="70.33" y1="47.76" x2="86.6" y2="47.76" xlink:href="#未命名的渐变_10"/></defs><title>账号管理</title><g id="图层_2" data-name="图层 2"><g id="图层_1-2" data-name="图层 1"><path class="cls-1" d="M42,85.55H0L.52,82.4A70.72,70.72,0,0,1,14.17,52.49C22,45.14,31.49,39.36,41.46,36.74L43,42A55.41,55.41,0,0,0,18.37,56.16,64.38,64.38,0,0,0,6.82,80.3H42.51v5.25Z"/><path class="cls-2" d="M42.51,42a21,21,0,1,1,21-21A21.06,21.06,0,0,1,42.51,42Zm0-36.74A15.46,15.46,0,0,0,26.77,21,15.46,15.46,0,0,0,42.51,36.74,15.46,15.46,0,0,0,58.26,21,15.46,15.46,0,0,0,42.51,5.25Z"/><path class="cls-3" d="M68.76,89.23A15.75,15.75,0,1,1,84.5,73.48,15.47,15.47,0,0,1,68.76,89.23Zm0-26.25a10.5,10.5,0,1,0,10.49,10.5A10.53,10.53,0,0,0,68.76,63Z"/><path class="cls-4" d="M71.38,60.88H66.13V32.54H83.45v5.25H71.38Z"/><path class="cls-5" d="M70.33,45.14H86.6v5.25H70.33Z"/></g></g></svg>