<svg xmlns="http://www.w3.org/2000/svg" xmlns:xlink="http://www.w3.org/1999/xlink" viewBox="0 0 95.68 82.01"><defs><style>.cls-1{fill:url(#未命名的渐变_10);}</style><linearGradient id="未命名的渐变_10" y1="41" x2="95.68" y2="41" gradientUnits="userSpaceOnUse"><stop offset="0" stop-color="#9fffd8"/><stop offset="1" stop-color="#0c9"/></linearGradient></defs><title>技术支持</title><g id="图层_2" data-name="图层 2"><g id="图层_1-2" data-name="图层 1"><path class="cls-1" d="M71.07,75.18a.68.68,0,0,1,.69.68v5.47a.69.69,0,0,1-.69.68H24.6a.69.69,0,0,1-.68-.68h0V75.86a.68.68,0,0,1,.68-.68ZM86.11,0c5.28,0,9.57,4.59,9.57,10.25V58.09c0,5.66-4.29,10.25-9.57,10.25H9.57C4.28,68.34,0,63.75,0,58.09V10.25C0,4.59,4.28,0,9.57,0Zm0,6.83H9.57a3.31,3.31,0,0,0-3.19,3.42V58.09a3.31,3.31,0,0,0,3.19,3.42H86.11a3.31,3.31,0,0,0,3.19-3.42V10.25a3.31,3.31,0,0,0-3.19-3.42Zm-27,10.26L75.42,33.37,59.13,49.66l-4.07-4.07L67.27,33.37,55.06,21.16l4.07-4.07Zm-22.34,0,4.07,4.07L28.65,33.37,40.86,45.59l-4.07,4.07L20.5,33.37,36.79,17.09Z"/></g></g></svg>