<svg xmlns="http://www.w3.org/2000/svg" xmlns:xlink="http://www.w3.org/1999/xlink" viewBox="0 0 102.27 100.05"><defs><style>.cls-1{fill:url(#未命名的渐变_10);}.cls-2{fill:url(#未命名的渐变_10-2);}.cls-3{fill:url(#未命名的渐变_10-3);}.cls-4{fill:url(#未命名的渐变_10-4);}.cls-5{fill:url(#未命名的渐变_10-5);}.cls-6{fill:url(#未命名的渐变_10-6);}.cls-7{fill:url(#未命名的渐变_10-7);}.cls-8{fill:url(#未命名的渐变_10-8);}</style><linearGradient id="未命名的渐变_10" x1="48.89" y1="0.06" x2="97.17" y2="0.06" gradientUnits="userSpaceOnUse"><stop offset="0" stop-color="#9fffd8"/><stop offset="1" stop-color="#0c9"/></linearGradient><linearGradient id="未命名的渐变_10-2" x1="43.9" y1="50.01" x2="102.19" y2="50.01" xlink:href="#未命名的渐变_10"/><linearGradient id="未命名的渐变_10-3" x1="0" y1="58.1" x2="90.12" y2="58.1" xlink:href="#未命名的渐变_10"/><linearGradient id="未命名的渐变_10-4" x1="24.66" y1="48.83" x2="45.72" y2="48.83" xlink:href="#未命名的渐变_10"/><linearGradient id="未命名的渐变_10-5" x1="21.43" y1="57.04" x2="90.12" y2="57.04" xlink:href="#未命名的渐变_10"/><linearGradient id="未命名的渐变_10-6" x1="20.52" y1="65.21" x2="90.12" y2="65.21" xlink:href="#未命名的渐变_10"/><linearGradient id="未命名的渐变_10-7" x1="102.15" y1="49.97" x2="102.27" y2="49.97" xlink:href="#未命名的渐变_10"/><linearGradient id="未命名的渐变_10-8" x1="58.52" y1="99.99" x2="96.7" y2="99.99" xlink:href="#未命名的渐变_10"/></defs><title>授权样式</title><g id="图层_2" data-name="图层 2"><g id="图层_1-2" data-name="图层 1"><path class="cls-1" d="M49,0H97l.14.05a13.4,13.4,0,0,1-2.1.06H51A12.29,12.29,0,0,1,48.89,0Z"/><path class="cls-2" d="M45.89,1.42a6.22,6.22,0,0,1,3-1.38A12.29,12.29,0,0,0,51,.11H95.07a13.4,13.4,0,0,0,2.1-.06l.76.18a5.72,5.72,0,0,1,3.89,3.54,8.52,8.52,0,0,1,.37,1.68c-.06.62,0,1.24,0,1.86V88.74c0,1.92-.05,3.83,0,5.75a8.76,8.76,0,0,1-.36,1.69,5.78,5.78,0,0,1-3.78,3.54c-.44.13-.9.17-1.35.26-1.3-.09-2.61,0-3.91,0H58.52c0-1.52,0-3,0-4.56q19,0,37.92,0a1.15,1.15,0,0,0,1.15-1.25q0-43.58,0-87.15a8.12,8.12,0,0,0-.06-1.56,1.15,1.15,0,0,0-1.2-.81H49.73a1.18,1.18,0,0,0-1.26,1.22q0,11.92,0,23.87H43.91c0-7.65,0-15.3,0-23a9.49,9.49,0,0,1,.15-2.26A5.65,5.65,0,0,1,45.89,1.42Z"/><path class="cls-3" d="M58.23,16.4a11.42,11.42,0,0,1,1.44,0H87.2a2.86,2.86,0,1,1,0,5.71H58.87A3,3,0,0,1,57,21.5a2.85,2.85,0,0,1,1.22-5.1ZM3.82,33.69a8,8,0,0,1,2.62-.25H65.26a5.41,5.41,0,0,1,4.92,3.33,6.06,6.06,0,0,1,.41,2.63V81.55A5.39,5.39,0,0,1,65.27,87c-7,0-14,0-21,0,0,2.51,0,5,0,7.52,2,0,4,0,6,0a2.66,2.66,0,0,1,2.25,1.36,2.69,2.69,0,0,1,.06,2.51,2.62,2.62,0,0,1-2.31,1.47H20.37a2.67,2.67,0,0,1,0-5.33c2,0,4,0,6,0,0-2.51,0-5,0-7.54h-21a5.42,5.42,0,0,1-4.7-2.77A6.59,6.59,0,0,1,0,81.81c.1-1.72,0-3.45.05-5.17V41.34c0-.92,0-1.85,0-2.77A9.65,9.65,0,0,1,.37,37a5.4,5.4,0,0,1,3.45-3.29m1.29,4.38a.86.86,0,0,0-.5.87V80.52a10.27,10.27,0,0,0,0,1.24.84.84,0,0,0,.89.62q11,0,21.93,0c12.52.05,25,0,37.58,0a.87.87,0,0,0,1-.87V38.94A.86.86,0,0,0,65,38H6.33a5,5,0,0,0-1.22.06M31.69,87c0,2.52,0,5,0,7.56,2.44,0,4.88,0,7.32,0,0-2.52,0-5,0-7.56Q35.35,87,31.69,87ZM79.93,38.33a4.65,4.65,0,0,1,.75,0h5.94a4.76,4.76,0,0,1,1.46.12A2.85,2.85,0,0,1,87.19,44H80.45a2.88,2.88,0,0,1-2.24-1.09,2.86,2.86,0,0,1,1.72-4.57Z"/><path class="cls-4" d="M32.28,45.25a14.81,14.81,0,0,1,13.44,3.89c-1.06,1.08-2.14,2.15-3.21,3.22a10.7,10.7,0,0,0-4.66-2.56,10.35,10.35,0,0,0-7.09.78,10.59,10.59,0,0,0-2.88,2.14c-1.09-1.06-2.18-2.13-3.22-3.23A15,15,0,0,1,32.28,45.25Z"/><path class="cls-5" d="M49.5,47.4a2.29,2.29,0,0,1,3.86.93,2.31,2.31,0,0,1-.62,2.3L37.2,66.16a4.31,4.31,0,0,1-1.25,1,2.29,2.29,0,0,1-2.32-.27c-.32-.26-.59-.56-.88-.84L22.13,55.47a2.3,2.3,0,0,1,.64-3.74,2.3,2.3,0,0,1,2.53.45c3.24,3.23,6.47,6.48,9.72,9.7ZM79.93,53a8.28,8.28,0,0,1,1.32-.05h5.37a4.76,4.76,0,0,1,1.46.12,2.85,2.85,0,0,1-.89,5.59H80.57a2.85,2.85,0,0,1-2.82-3.76A2.84,2.84,0,0,1,79.93,53Z"/><path class="cls-6" d="M46.05,59.37c1.21-1.18,2.38-2.41,3.6-3.57a14.84,14.84,0,1,1-28.74.59,8.66,8.66,0,0,1,1,1l3,3a.91.91,0,0,1,.24.65,10.3,10.3,0,0,0,8.16,8.87,10.26,10.26,0,0,0,10.74-4.59,10.18,10.18,0,0,0,1.57-5.19c0-.32.23-.51.42-.7Zm33.88,8.2a5.32,5.32,0,0,1,1,0c2.13,0,4.27,0,6.4,0A2.84,2.84,0,0,1,89.78,69a2.85,2.85,0,0,1-2,4.17,10.1,10.1,0,0,1-1.35,0H80.8A3.36,3.36,0,0,1,79.39,73a2.85,2.85,0,0,1,.54-5.45Z"/><path class="cls-7" d="M102.19,5.45l.08.13V94.35l-.08.14c-.09-1.92,0-3.83,0-5.75V7.31C102.15,6.69,102.13,6.07,102.19,5.45Z"/><path class="cls-8" d="M58.52,99.93H92.79c1.3,0,2.61,0,3.91,0l-.13.07h-38Z"/></g></g></svg>