<svg xmlns="http://www.w3.org/2000/svg" xmlns:xlink="http://www.w3.org/1999/xlink" viewBox="0 0 97.65 104.59"><defs><style>.cls-1{fill:url(#未命名的渐变_10);}.cls-2{fill:url(#未命名的渐变_10-2);}</style><linearGradient id="未命名的渐变_10" x1="0.77" y1="57.24" x2="96.61" y2="57.24" gradientUnits="userSpaceOnUse"><stop offset="0" stop-color="#9fffd8"/><stop offset="1" stop-color="#0c9"/></linearGradient><linearGradient id="未命名的渐变_10-2" x1="0" y1="46.72" x2="97.65" y2="46.72" xlink:href="#未命名的渐变_10"/></defs><title>互动多样</title><g id="图层_2" data-name="图层 2"><g id="图层_1-2" data-name="图层 1"><path class="cls-1" d="M90.77,75.85a3.12,3.12,0,0,1-1-.17,2.72,2.72,0,0,1-1.53-3.55,42.45,42.45,0,0,0-15.79-50.6,2.71,2.71,0,0,1,3.06-4.48A48,48,0,0,1,93.34,74.21a2.86,2.86,0,0,1-2.57,1.64ZM3.5,59.4A2.7,2.7,0,0,1,.77,56.67,47.91,47.91,0,0,1,36.28,10.38c.61-.16,1.21-.33,1.81-.43a2.74,2.74,0,1,1,1.2,5.35c-.55.11-1.09.27-1.58.38a42.46,42.46,0,0,0-31.48,41A2.74,2.74,0,0,1,3.5,59.4Zm45.13,45.19A47.91,47.91,0,0,1,15.9,91.7a2.74,2.74,0,0,1,3.77-4,42.29,42.29,0,0,0,29,11.42,41.73,41.73,0,0,0,16.89-3.5,2.74,2.74,0,0,1,2.19,5A47.54,47.54,0,0,1,48.63,104.59Z"/><path class="cls-2" d="M48.36,89.56l-2-1.91L23,64.21l-1.26-1.37A17.89,17.89,0,0,1,47,37.54l1.31,1.31,1.31-1.31A17.91,17.91,0,1,1,75,62.84l-1.31,1.31-1.91,2L48.36,89.56Zm0-7.76L66,64.21l1.91-2L71.15,59a12.44,12.44,0,0,0-17.6-17.59l-5.19,5.19-5.19-5.19A12.44,12.44,0,0,0,25.57,59l5.25,5.25L48.31,81.8ZM86.18,93.44A11.48,11.48,0,1,1,97.65,82,11.47,11.47,0,0,1,86.18,93.44Zm0-17.48a6,6,0,1,0,2.73.65A5.85,5.85,0,0,0,86.18,76ZM48.63,23A11.48,11.48,0,0,1,37.21,12.73a10.45,10.45,0,0,1-.05-1.25A11.48,11.48,0,1,1,48.63,23Zm0-17.49a6,6,0,0,0-6,6,2.42,2.42,0,0,0,.06.65,6,6,0,1,0,6-6.67Zm-37.15,88a11.53,11.53,0,1,1,7.26-2.62,11.25,11.25,0,0,1-7.26,2.62Zm0-17.48A6,6,0,1,0,15.3,86.61,5.9,5.9,0,0,0,17.49,82,6,6,0,0,0,11.48,76Z"/></g></g></svg>