<svg xmlns="http://www.w3.org/2000/svg" xmlns:xlink="http://www.w3.org/1999/xlink" viewBox="0 0 91.81 91.41"><defs><style>.cls-1{fill:url(#未命名的渐变_10);}</style><linearGradient id="未命名的渐变_10" y1="45.7" x2="91.81" y2="45.7" gradientUnits="userSpaceOnUse"><stop offset="0" stop-color="#9fffd8"/><stop offset="1" stop-color="#0c9"/></linearGradient></defs><title>深度定制</title><g id="图层_2" data-name="图层 2"><g id="图层_1-2" data-name="图层 1"><path class="cls-1" d="M9.22,33.25H82.59a9.18,9.18,0,0,0,9-9.3V16.64C91.69,10.48,89,5.81,84.8,3.3S75.41,0,69.85,0H56.6A2.47,2.47,0,0,0,56.6,5H69.85c5.1,0,9.52.78,12.36,2.56s4.41,4.23,4.48,9.14V24a4.25,4.25,0,0,1-4.09,4.35H9.23A4.24,4.24,0,0,1,5.13,24V16.65c.08-4.91,1.69-7.34,4.49-9.14S16.88,4.94,22,5H35.3A2.47,2.47,0,1,0,35.3,0H22C16.4,0,11.16.77,7,3.3S.11,10.48.19,16.64V24A9.18,9.18,0,0,0,9.22,33.25ZM55,75.94a8.69,8.69,0,0,0-5-1.35H41.68a8.75,8.75,0,0,0-5,1.35,5.91,5.91,0,0,0-2.54,5,2.47,2.47,0,0,0,4.94,0c.05-.72.13-.7.4-1a4,4,0,0,1,2.15-.47H50a4,4,0,0,1,2.15.47c.28.26.36.24.4,1a2.47,2.47,0,0,0,4.94,0A5.9,5.9,0,0,0,55,75.94Zm-10.62-71h3a2.47,2.47,0,1,0,0-4.94h-3a2.47,2.47,0,1,0,0,4.94ZM34.18,23a2.47,2.47,0,0,0,4.94,0c.05-.72.13-.7.4-1a3.93,3.93,0,0,1,2.15-.47H50a3.9,3.9,0,0,1,2.15.47c.28.26.36.24.4,1a2.47,2.47,0,1,0,4.94,0A5.92,5.92,0,0,0,55,18a8.69,8.69,0,0,0-5-1.35H41.66a8.75,8.75,0,0,0-5,1.35A6,6,0,0,0,34.18,23ZM82.34,37.18H9.47A9.47,9.47,0,0,0,0,46.64v6.44a9.47,9.47,0,0,0,9.47,9.46H82.34a9.47,9.47,0,0,0,9.47-9.46V46.64A9.47,9.47,0,0,0,82.34,37.18Zm4.53,15.9a4.52,4.52,0,0,1-4.53,4.52H9.47a4.52,4.52,0,0,1-4.53-4.52V46.64a4.52,4.52,0,0,1,4.53-4.52H82.34a4.52,4.52,0,0,1,4.53,4.52ZM82.34,66H9.47A9.47,9.47,0,0,0,0,75.5v6.44a9.47,9.47,0,0,0,9.47,9.47H82.34a9.47,9.47,0,0,0,9.47-9.47V75.5A9.46,9.46,0,0,0,82.34,66Zm4.53,15.9a4.53,4.53,0,0,1-4.53,4.53H9.47a4.53,4.53,0,0,1-4.53-4.53V75.49A4.53,4.53,0,0,1,9.47,71H82.34a4.53,4.53,0,0,1,4.53,4.53ZM55,47.44a8.69,8.69,0,0,0-5-1.35H41.68a8.75,8.75,0,0,0-5,1.35,5.9,5.9,0,0,0-2.54,5,2.47,2.47,0,0,0,4.94,0c.05-.72.13-.7.4-1A3.93,3.93,0,0,1,41.67,51H50a3.9,3.9,0,0,1,2.15.47c.28.26.36.24.4,1a2.47,2.47,0,1,0,4.94,0A5.88,5.88,0,0,0,55,47.44Z"/></g></g></svg>