<svg xmlns="http://www.w3.org/2000/svg" xmlns:xlink="http://www.w3.org/1999/xlink" viewBox="0 0 93.85 94.72"><defs><style>.cls-1{fill:url(#未命名的渐变_10);}.cls-2{fill:url(#未命名的渐变_10-2);}</style><linearGradient id="未命名的渐变_10" y1="48.51" x2="93.85" y2="48.51" gradientUnits="userSpaceOnUse"><stop offset="0" stop-color="#9fffd8"/><stop offset="1" stop-color="#0c9"/></linearGradient><linearGradient id="未命名的渐变_10-2" x1="1.67" y1="36.72" x2="92.18" y2="36.72" xlink:href="#未命名的渐变_10"/></defs><title>活动预约</title><g id="图层_2" data-name="图层 2"><g id="图层_1-2" data-name="图层 1"><path class="cls-1" d="M53.67,7.22H40.17a2.46,2.46,0,0,1,0-4.92h13.5a2.46,2.46,0,1,1,0,4.92Zm21.75,87.5h-57A18.42,18.42,0,0,1,0,76.3H0V20.72A18.42,18.42,0,0,1,18.42,2.3h6.19a2.46,2.46,0,1,1,0,4.92H18.42a13.51,13.51,0,0,0-13.5,13.5V76.3a13.5,13.5,0,0,0,13.5,13.49h57A13.49,13.49,0,0,0,88.92,76.3v-10a2.46,2.46,0,1,1,4.92,0v10A18.42,18.42,0,0,1,75.42,94.72ZM91.3,46.44a2.38,2.38,0,0,1-2.38-2.38V20.88a13.5,13.5,0,0,0-13.5-13.5H67.8a2.46,2.46,0,1,1,0-4.92h7.62A18.42,18.42,0,0,1,93.84,20.88h0v23a2.38,2.38,0,0,1-2.21,2.54,1.82,1.82,0,0,1-.33,0Z"/><path class="cls-2" d="M89.71,32.31H4.13a2.46,2.46,0,0,1,0-4.92H89.71a2.46,2.46,0,1,1,0,4.92Zm-57-17.62a2.38,2.38,0,0,1-2.38-2.38V2.46a2.46,2.46,0,1,1,4.92,0v9.69A2.38,2.38,0,0,1,33,14.69Zm28.42,0a2.39,2.39,0,0,1-2.38-2.38V2.46a2.46,2.46,0,1,1,4.92,0v9.69a2.38,2.38,0,0,1-2.21,2.54ZM41.76,73.44a2.55,2.55,0,0,1-1.75-.8L24.45,57.08A2.47,2.47,0,0,1,28,53.59L41.76,67.4,65.9,43.27a2.47,2.47,0,1,1,3.49,3.49L43.51,72.64A2.4,2.4,0,0,1,41.76,73.44Z"/></g></g></svg>