<svg xmlns="http://www.w3.org/2000/svg" viewBox="0 0 137.61 152.86"><defs><style>.cls-1{fill:#333;}</style></defs><title>零风险</title><g id="图层_2" data-name="图层 2"><g id="图层_1-2" data-name="图层 1"><path class="cls-1" d="M65.48.49A11.41,11.41,0,0,1,71.31.28l.82.21,57.34,17.38a11.46,11.46,0,0,1,8.12,10.26l0,.71V91.48c0,28.24-22.4,48.32-65.44,60.45l-3.36.93-1.51-.42C23.67,140.54.65,120.69,0,92.69V28.84A11.46,11.46,0,0,1,7.46,18.1l.68-.23Zm3.33,11L11.47,28.84V91.48c0,21.3,17.29,37.48,53.46,48.36l1.77.52,2.11.6,2.11-.6c36.17-10.53,54.06-26.19,55.17-46.81l0-1,0-1V28.84Zm8.11,32.64L87.64,71.76H99.39V83.23H79.79l-3.74-9.64L61.84,104.67,49,83.54H38.23V72.07H55.49l4.93,8.13,16.5-36.09Z"/></g></g></svg>