<svg xmlns="http://www.w3.org/2000/svg" viewBox="0 0 150.84 150.54"><defs><style>.cls-1{fill:#333;}</style></defs><title>高质量</title><g id="图层_2" data-name="图层 2"><g id="图层_1-2" data-name="图层 1"><path class="cls-1" d="M73.43,150.54,54.78,145C22.63,135.46,0,105.29,0,72V16.37L68.27.89a15.36,15.36,0,0,1,10.32,0l72.25,15.48V71.15a76.46,76.46,0,0,1-56,73.44ZM11.91,25.9V72a64.66,64.66,0,0,0,46,61.52l15.48,4.37,18.26-5.16a64.08,64.08,0,0,0,47.24-61.53V25.9L75.42,12a5.46,5.46,0,0,0-3.57,0h-.8Z"/><path class="cls-1" d="M113.13,52.89v6.75H85.34c-.39,2.78-.39,5.16-.79,7.15h22.62V95.37H99.24V73.53H66.69V95H59.14V66.79H77c.39-2,.39-4.37.79-7.15H54V64c0,13.49-1.19,32.94-9.13,46a37.93,37.93,0,0,0-6.74-4c7.54-12.3,8.33-29.77,8.33-42.07V41c19.45-.79,42.87-2.77,56-5.95l6,6.35c-6.36,1.19-13.5,2.38-21.44,3.18-.4,2.38-.4,5.16-.79,7.94h27Zm-25.8,31c0,8.34-3.18,19.85-29.38,27.39a34.61,34.61,0,0,0-5.16-5.95c25-6.35,26.6-15.08,26.6-21.44V77.11h7.94Zm-9.13-31c0-2.38.39-4.76.39-7.14-8.33.79-16.67,1.19-25,1.59v5.55ZM89.31,95a163,163,0,0,1,23.42,10.72l-5.56,5.16c-5.55-3.18-15.48-8.34-23.41-11.12Z"/></g></g></svg>