<svg xmlns="http://www.w3.org/2000/svg" viewBox="0 0 150.86 150.86"><defs><style>.cls-1{fill:#333;}</style></defs><title>高效率</title><g id="图层_2" data-name="图层 2"><g id="图层_1-2" data-name="图层 1"><path class="cls-1" d="M45.84,106.66c9.74,9.9,10.87,20.54.07,31.51C39.22,145,28.4,149,13.49,150.79a9.48,9.48,0,0,1-2.32,0,10.13,10.13,0,0,1-8.81-10.61l.05-.69.21-1.76c1.83-14.21,5.79-24.61,12.21-31.14,10.8-11,21.27-9.82,31,.08Zm-8.44,8.58c-5.4-5.5-8.4-5.83-14.09,0-3.68,3.74-6.46,10.25-8.12,19.55l-.27,1.57-.3,2.07.49-.07c9.79-1.44,16.79-4.05,21.06-7.6l.69-.6.57-.56c5.7-5.78,5.38-8.82,0-14.31Zm101-111.49a14.15,14.15,0,0,1,8.72,8.81c6.57,19.18,4.48,38.62-6.1,57.88A107.68,107.68,0,0,1,124.27,93l-1.88,1.92-1.78,1.75,0,.54c-1.24,11.54-10,26.8-26.12,46.53L93,145.43l-2.58,3.08a6,6,0,0,1-10-1.59l-.2-.55-9-28.78-.81-.57a142,142,0,0,1-14.45-11.78l-2.25-2.14-2.19-2.18A144.68,144.68,0,0,1,34.06,79.4l-.5-.78L4.19,69.13a6.14,6.14,0,0,1-2.84-9.66l.35-.39.38-.36c24.15-21.1,42-31.56,54.74-30.69l.82.07.47.06,1.08-1.09a107.5,107.5,0,0,1,18.2-14.68l2.12-1.32,1.94-1.14c17.7-10,35.66-12.5,53.61-7.25l1.68.52,1.65.55Zm-2.72,12.42a1.91,1.91,0,0,0-.73-.76l-.3-.14-1.51-.5c-15.21-4.86-30.36-3-45.81,5.78A96.7,96.7,0,0,0,64.43,39a5.89,5.89,0,0,1-5.83,1.7l-1-.32c-6.2-1.82-18.93,4.2-37.1,18.67l-2.29,1.84,21,6.79a5.84,5.84,0,0,1,2.49,1.57l.39.45.35.49A133.1,133.1,0,0,0,59.93,92.34a131.13,131.13,0,0,0,19.65,16.39,6.12,6.12,0,0,1,2.18,2.67l.2.55,6.33,20.17,1.21-1.55c12.35-15.88,18.72-27.85,19.21-35.26l0-.67v-.59a6.1,6.1,0,0,1,1.94-4.65,99.47,99.47,0,0,0,19.87-24.91c8.68-15.8,10.56-31.16,5.77-46.46l-.51-1.52-.14-.34ZM110.55,40.31A23,23,0,1,1,78,40.24,23,23,0,0,1,110.55,40.31Zm-8.88,8.87a10.47,10.47,0,0,0-14.81,0h0a10.46,10.46,0,0,0,0,14.81h0a10.48,10.48,0,0,0,14.82,0h0a10.48,10.48,0,0,0,0-14.82Z"/></g></g></svg>