<svg xmlns="http://www.w3.org/2000/svg" xmlns:xlink="http://www.w3.org/1999/xlink" viewBox="0 0 199.65 188.77"><defs><style>.cls-1{fill:url(#未命名的渐变_13);}.cls-2{fill:url(#未命名的渐变_13-2);}.cls-3{fill:url(#未命名的渐变_13-3);}</style><linearGradient id="未命名的渐变_13" x1="19.58" y1="40.74" x2="199.63" y2="40.74" gradientUnits="userSpaceOnUse"><stop offset="0.01" stop-color="#d4ffed"/><stop offset="1" stop-color="#0c9"/></linearGradient><linearGradient id="未命名的渐变_13-2" x1="0" y1="124.49" x2="180.07" y2="124.49" xlink:href="#未命名的渐变_13"/><linearGradient id="未命名的渐变_13-3" x1="142.11" y1="114.51" x2="199.65" y2="114.51" xlink:href="#未命名的渐变_13"/></defs><title>多屏功能</title><g id="图层_2" data-name="图层 2"><g id="图层_1-2" data-name="图层 1"><path class="cls-1" d="M176,12.5a11.2,11.2,0,0,1,11.11,11.11V57.87A11.2,11.2,0,0,1,176,69H123.85a11.22,11.22,0,0,1-11.12-11.09V23.61A11.22,11.22,0,0,1,123.85,12.5H176M176,0H123.85a23.68,23.68,0,0,0-23.62,23.61V57.87a23.68,23.68,0,0,0,23.62,23.61H176a23.68,23.68,0,0,0,23.61-23.61V23.61A23.65,23.65,0,0,0,176,0ZM19.75,74.61c-.49-7.11-.57-25.45,9-42.48A55.92,55.92,0,0,1,47.73,12c9-5.72,20-9.08,32.7-10l.88,12.46C31,18.07,31.6,64.49,32.23,73.77Z"/><path class="cls-2" d="M28.91,88.3,0,60.21H57.54Zm46.87,31.47a11.2,11.2,0,0,1,11.11,11.11v34.26a11.2,11.2,0,0,1-11.11,11.11H23.61A11.2,11.2,0,0,1,12.5,165.14V130.9a11.2,11.2,0,0,1,11.11-11.11H75.78m0-12.52H23.61A23.7,23.7,0,0,0,0,130.9v34.26a23.69,23.69,0,0,0,23.61,23.61H75.78a23.68,23.68,0,0,0,23.61-23.61V130.9a23.69,23.69,0,0,0-23.61-23.63Zm104.12,6.91c.49,7.11.57,25.45-9,42.48a55.86,55.86,0,0,1-19,20.1c-9,5.72-20,9.08-32.69,10l-.88-12.46c50.29-3.54,49.71-50,49.08-59.26Z"/><path class="cls-3" d="M170.74,100.47l28.91,28.08H142.11Z"/></g></g></svg>