<svg xmlns="http://www.w3.org/2000/svg" xmlns:xlink="http://www.w3.org/1999/xlink" viewBox="0 0 170.45 206.51"><defs><style>.cls-1{fill:url(#未命名的渐变_13);}</style><linearGradient id="未命名的渐变_13" y1="103.25" x2="170.45" y2="103.25" gradientUnits="userSpaceOnUse"><stop offset="0.01" stop-color="#d4ffed"/><stop offset="1" stop-color="#0c9"/></linearGradient></defs><title>鉴权观看</title><g id="图层_2" data-name="图层 2"><g id="图层_1-2" data-name="图层 1"><path class="cls-1" d="M85.22,0,5,25.47a7.24,7.24,0,0,0-5,6.92L.41,132.52l.09,1.14c.16.7,3.44,17.45,19.84,33.59C33,179.68,63.88,195.93,77.07,202.87c2.08,1.09,3.63,1.89,4.51,2.39l1.51.82a3.54,3.54,0,0,0,3.29,0l2.2-1.11c7.71-3.79,46.94-23.39,61.52-37.75,16.42-16.15,19.7-32.9,19.84-33.6l.51-101.26a7.23,7.23,0,0,0-5-6.93Zm71.69,131.79c-.61,2.46-4.15,14.6-16.11,26.38-11.55,11.4-42.87,27.68-54.25,33.41a3.52,3.52,0,0,1-3.25,0h0c-11.6-6.1-42.41-22.28-53.65-33.37-12-11.8-15.5-23.92-16.12-26.38l-.36-93a3.2,3.2,0,0,1,2.22-3.07l67.68-21.5a7.11,7.11,0,0,1,4.33,0l67.68,21.5a3.19,3.19,0,0,1,2.24,3.07l-.38,93ZM86.43,48.29a29.61,29.61,0,0,1,20.91,8.58,28.87,28.87,0,0,1,.31,40.82l-.43.43a29.47,29.47,0,0,1-13.57,7.49l-.07,12.26,12.24,0a7.33,7.33,0,0,1,7.38,7.26v0a7.28,7.28,0,0,1-2.19,5.16,7.47,7.47,0,0,1-5.24,2.13l-12.23,0-.06,20.37A7.23,7.23,0,0,1,91.3,158a7.44,7.44,0,0,1-5.24,2.13,7.32,7.32,0,0,1-7.38-7.26v0l.18-47.22a29.44,29.44,0,0,1-13.52-7.54A28.87,28.87,0,0,1,65,57.22c.14-.15.28-.29.43-.43a29.63,29.63,0,0,1,21-8.5Zm17.8,28.91a16.84,16.84,0,0,0-5.07-12.14,17.62,17.62,0,0,0-24.64,0A16.79,16.79,0,0,0,69.39,77.1a17,17,0,0,0,5.07,12.16,17.31,17.31,0,0,0,12.28,5c9.36,0,17.46-7.94,17.48-17.11Z"/></g></g></svg>