<svg xmlns="http://www.w3.org/2000/svg" xmlns:xlink="http://www.w3.org/1999/xlink" viewBox="0 0 202.71 202.71"><defs><style>.cls-1{fill:url(#未命名的渐变_13);}.cls-2{fill:url(#未命名的渐变_13-2);}</style><linearGradient id="未命名的渐变_13" x1="76.63" y1="99.38" x2="135.69" y2="99.38" gradientUnits="userSpaceOnUse"><stop offset="0.01" stop-color="#d4ffed"/><stop offset="1" stop-color="#0c9"/></linearGradient><linearGradient id="未命名的渐变_13-2" x1="0" y1="101.35" x2="202.71" y2="101.35" xlink:href="#未命名的渐变_13"/></defs><title>云剪辑</title><g id="图层_2" data-name="图层 2"><g id="图层_1-2" data-name="图层 1"><path class="cls-1" d="M131.46,90.88l-.26-.19L93.38,67a10.66,10.66,0,0,0-16.75,8.74V123a10.65,10.65,0,0,0,16.75,8.74l37.55-23.53.27-.17.26-.2a10.66,10.66,0,0,0,0-17Zm-40,24.59V83.29l25.68,16.09Z"/><path class="cls-2" d="M195.29,165.93H180.76v-121a23,23,0,0,0-23-23h-121V7.42A7.42,7.42,0,1,0,22,7.42V22H7.42a7.42,7.42,0,1,0,0,14.83H22v121a23,23,0,0,0,23,23h121v14.53a7.42,7.42,0,1,0,14.83,0V180.76h14.53a7.42,7.42,0,1,0,0-14.83Zm-150.36,0a8.16,8.16,0,0,1-8.15-8.15v-121h121a8.16,8.16,0,0,1,8.15,8.15v121Z"/></g></g></svg>