<svg xmlns="http://www.w3.org/2000/svg" xmlns:xlink="http://www.w3.org/1999/xlink" viewBox="0 0 197.09 197.17"><defs><style>.cls-1{fill:url(#未命名的渐变_13);}.cls-2{fill:url(#未命名的渐变_13-2);}</style><linearGradient id="未命名的渐变_13" y1="98.58" x2="197.09" y2="98.58" gradientUnits="userSpaceOnUse"><stop offset="0.01" stop-color="#d4ffed"/><stop offset="1" stop-color="#0c9"/></linearGradient><linearGradient id="未命名的渐变_13-2" x1="54.22" y1="96.11" x2="142.93" y2="96.11" xlink:href="#未命名的渐变_13"/></defs><title>互动功能</title><g id="图层_2" data-name="图层 2"><g id="图层_1-2" data-name="图层 1"><path class="cls-1" d="M98.58,14.79a83.79,83.79,0,1,1-41.9,156.39,20.49,20.49,0,0,0-10.35-2.62,45.48,45.48,0,0,0-11.53,1.88,27.24,27.24,0,0,0-3.26-21.59A82.88,82.88,0,0,1,14.79,98.58,83.78,83.78,0,0,1,98.58,14.79h0M98.58,0A98.57,98.57,0,0,0,19.72,157.72c4,5.37-4.93,25.14,0,29.57a5.22,5.22,0,0,0,3.54,1c6.21,0,17-4.93,23.07-4.93a5.94,5.94,0,0,1,3,.59A98.57,98.57,0,1,0,98.58,0Z"/><path class="cls-2" d="M120.76,73.93H76.4a7.39,7.39,0,1,1,0-14.78h44.36a7.39,7.39,0,0,1,0,14.78Zm14.78,29.57H61.61a7.39,7.39,0,0,1,0-14.78h73.93a7.39,7.39,0,1,1,0,14.78ZM110.9,133.08H86.25a7.4,7.4,0,0,1,0-14.79H110.9a7.4,7.4,0,0,1,0,14.79Z"/></g></g></svg>