<svg xmlns="http://www.w3.org/2000/svg" xmlns:xlink="http://www.w3.org/1999/xlink" viewBox="0 0 76.68 66.27"><defs><style>.cls-1{fill:url(#未命名的渐变_10);}.cls-2{fill:url(#未命名的渐变_10-2);}</style><linearGradient id="未命名的渐变_10" x1="16.09" y1="42.54" x2="60.58" y2="42.54" gradientUnits="userSpaceOnUse"><stop offset="0" stop-color="#9fffd8"/><stop offset="1" stop-color="#0c9"/></linearGradient><linearGradient id="未命名的渐变_10-2" x1="0" y1="33.14" x2="76.68" y2="33.14" xlink:href="#未命名的渐变_10"/></defs><title>AI机器人</title><g id="图层_2" data-name="图层 2"><g id="图层_1-2" data-name="图层 1"><path class="cls-1" d="M53.11,35H23.57a7.49,7.49,0,0,0-7.48,7.48v.06a7.49,7.49,0,0,0,7.48,7.48H53.11a7.48,7.48,0,0,0,7.47-7.48v-.06A7.49,7.49,0,0,0,53.11,35Zm3.21,7.55a3.22,3.22,0,0,1-3.21,3.22H23.57a3.22,3.22,0,0,1-3.22-3.22v-.06a3.22,3.22,0,0,1,3.22-3.22H53.11a3.22,3.22,0,0,1,3.21,3.22Z"/><path class="cls-2" d="M71,42.12H70V34.84a2.16,2.16,0,0,0-.27-1.05,31.8,31.8,0,0,0-7.42-8.28,36.6,36.6,0,0,0-5.82-3.8L62.62,9a4.46,4.46,0,0,0,4.26-4.46h0a4.47,4.47,0,1,0-8.94,0h0a4.47,4.47,0,0,0,.85,2.61L52.6,19.93l-.05,0a39.43,39.43,0,0,0-14.21-2.54,39.35,39.35,0,0,0-14.21,2.54l-.06,0L17.88,7.11a4.48,4.48,0,0,0,.85-2.62h0a4.47,4.47,0,1,0-8.93,0h0A4.46,4.46,0,0,0,14.05,9l6.16,12.77a35.78,35.78,0,0,0-5.81,3.79A31.57,31.57,0,0,0,7,33.79a2.2,2.2,0,0,0-.28,1.05v7.28h-1A5.71,5.71,0,0,0,0,47.83V51.4a5.73,5.73,0,0,0,5.71,5.72h1v7a2.13,2.13,0,0,0,2.13,2.13h59A2.13,2.13,0,0,0,70,64.14v-7h1a5.72,5.72,0,0,0,5.71-5.72V47.83A5.72,5.72,0,0,0,71,42.12ZM5.71,52.86A1.47,1.47,0,0,1,4.26,51.4V47.83a1.47,1.47,0,0,1,1.45-1.45h1v6.48ZM65.7,62H11V35.44a28.85,28.85,0,0,1,6.11-6.61,33,33,0,0,1,21.27-7.19,33,33,0,0,1,21.12,7.08,29.29,29.29,0,0,1,6.24,6.72ZM72.42,51.4A1.48,1.48,0,0,1,71,52.86H70V46.38h1a1.48,1.48,0,0,1,1.45,1.45Z"/></g></g></svg>