<svg xmlns="http://www.w3.org/2000/svg" xmlns:xlink="http://www.w3.org/1999/xlink" viewBox="0 0 70.26 70.25"><defs><style>.cls-1{fill:url(#未命名的渐变_10);}</style><linearGradient id="未命名的渐变_10" y1="35.13" x2="70.26" y2="35.13" gradientUnits="userSpaceOnUse"><stop offset="0" stop-color="#9fffd8"/><stop offset="1" stop-color="#0c9"/></linearGradient></defs><title>集成服务</title><g id="图层_2" data-name="图层 2"><g id="图层_1-2" data-name="图层 1"><path class="cls-1" d="M48.22,55.64c-1.22,1.21-1.14,1.22-2.08,2.15a1.88,1.88,0,0,0,2.66,2.67c1.07-1.07,1-1.06,2.08-2.16a1.88,1.88,0,0,0-2.66-2.66Zm22-20.52a9.3,9.3,0,0,0-2.72-6.57L41.7,2.72a9.29,9.29,0,0,0-13.14,0L2.72,28.55a9.29,9.29,0,0,0,0,13.14L28.57,67.53a9.18,9.18,0,0,0,6.57,2.72,9.3,9.3,0,0,0,6.57-2.72l1.95-2A1.88,1.88,0,0,0,41,62.92l-2,2a5.7,5.7,0,0,1-2,1.28c0-.05,0-.1,0-.15V56.92a6.24,6.24,0,0,0,2.59-1.57L55.37,39.64A6.41,6.41,0,0,0,57,37h9.21A5.26,5.26,0,0,1,64.88,39h0s-6,6-11.13,11.17a1.88,1.88,0,0,0,2.66,2.66c5.17-5.17,11.14-11.18,11.14-11.19h0a9.25,9.25,0,0,0,2.73-6.57ZM5.38,31.22,31.23,5.38a5.27,5.27,0,0,1,2.09-1.31,1.24,1.24,0,0,0,0,.33v8.66a1.94,1.94,0,0,0,0,.24,6.34,6.34,0,0,0-2.68,1.6L14.9,30.61a6.39,6.39,0,0,0-1.57,2.59H4.42l-.31,0A5.48,5.48,0,0,1,5.38,31.22ZM31.23,64.87,5.38,39a5.51,5.51,0,0,1-1.31-2.09,1.27,1.27,0,0,0,.34,0H13.3a6.38,6.38,0,0,0,1.6,2.66L30.62,55.35A6.44,6.44,0,0,0,33.28,57v9a1,1,0,0,0,0,.17,5.57,5.57,0,0,1-2.06-1.3ZM52.69,37,37,52.69a2.62,2.62,0,0,1-1.85.76,2.59,2.59,0,0,1-1.85-.76L17.56,37a2.59,2.59,0,0,1-.76-1.85,2.62,2.62,0,0,1,.76-1.85L33.28,17.56a2.61,2.61,0,0,1,3.7,0L52.69,33.27a2.63,2.63,0,0,1,.77,1.85A2.6,2.6,0,0,1,52.69,37Zm4.24-3.77a6.29,6.29,0,0,0-1.57-2.59L39.64,14.9A6.3,6.3,0,0,0,37,13.32c0-.09,0-.17,0-.26V4.4c0-.1,0-.2,0-.3a5.38,5.38,0,0,1,2,1.28L64.87,31.22a5.57,5.57,0,0,1,1.28,2Z"/></g></g></svg>