<svg xmlns="http://www.w3.org/2000/svg" xmlns:xlink="http://www.w3.org/1999/xlink" viewBox="0 0 60.5 60.61"><defs><style>.cls-1{fill:url(#未命名的渐变_10);}.cls-2{fill:url(#未命名的渐变_10-2);}.cls-3{fill:url(#未命名的渐变_10-3);}.cls-4{fill:url(#未命名的渐变_10-4);}.cls-5{fill:url(#未命名的渐变_10-5);}.cls-6{fill:url(#未命名的渐变_10-6);}</style><linearGradient id="未命名的渐变_10" x1="12.43" y1="16.27" x2="42.67" y2="16.27" gradientUnits="userSpaceOnUse"><stop offset="0" stop-color="#9fffd8"/><stop offset="1" stop-color="#0c9"/></linearGradient><linearGradient id="未命名的渐变_10-2" x1="12.43" y1="43.38" x2="22.17" y2="43.38" xlink:href="#未命名的渐变_10"/><linearGradient id="未命名的渐变_10-3" x1="28.28" y1="44.49" x2="60.5" y2="44.49" xlink:href="#未命名的渐变_10"/><linearGradient id="未命名的渐变_10-4" x1="12.43" y1="29.83" x2="26.96" y2="29.83" xlink:href="#未命名的渐变_10"/><linearGradient id="未命名的渐变_10-5" x1="41.22" y1="41.79" x2="52.29" y2="41.79" xlink:href="#未命名的渐变_10"/><linearGradient id="未命名的渐变_10-6" x1="0" y1="30.31" x2="54.78" y2="30.31" xlink:href="#未命名的渐变_10"/></defs><title>开播预约</title><g id="图层_2" data-name="图层 2"><g id="图层_1-2" data-name="图层 1"><path class="cls-1" d="M14.67,14a2.24,2.24,0,1,0,0,4.48H40.43a2.24,2.24,0,1,0,0-4.48Z"/><path class="cls-2" d="M19.93,45.62a2.24,2.24,0,1,0,0-4.47H14.67a2.24,2.24,0,1,0,0,4.47Z"/><path class="cls-3" d="M44.39,28.38A16.11,16.11,0,1,0,60.5,44.49,16.11,16.11,0,0,0,44.39,28.38Zm8.22,24.34A11.62,11.62,0,1,1,56,44.49,11.55,11.55,0,0,1,52.61,52.72Z"/><path class="cls-4" d="M24.72,27.59h-10a2.24,2.24,0,1,0,0,4.47h10a2.24,2.24,0,1,0,0-4.47Z"/><path class="cls-5" d="M50.05,43.13H46a.34.34,0,0,1-.34-.34V38.2a2.24,2.24,0,1,0-4.47,0v7.31a2.1,2.1,0,0,0,2.1,2.11h6.73a2.24,2.24,0,1,0,0-4.48Z"/><path class="cls-6" d="M4.48,4.48H50.3V20.8h4.48V3.65A3.64,3.64,0,0,0,51.13,0H3.65A3.64,3.64,0,0,0,0,3.65V57a3.64,3.64,0,0,0,3.65,3.65H24.59V56.13H4.48Z"/></g></g></svg>