<svg xmlns="http://www.w3.org/2000/svg" xmlns:xlink="http://www.w3.org/1999/xlink" viewBox="0 0 68.32 68.32"><defs><style>.cls-1{fill:url(#未命名的渐变_10);}.cls-2{fill:url(#未命名的渐变_10-2);}.cls-3{fill:url(#未命名的渐变_10-3);}.cls-4{fill:url(#未命名的渐变_10-4);}</style><linearGradient id="未命名的渐变_10" x1="3.9" y1="44.84" x2="20.98" y2="44.84" gradientUnits="userSpaceOnUse"><stop offset="0" stop-color="#9fffd8"/><stop offset="1" stop-color="#0c9"/></linearGradient><linearGradient id="未命名的渐变_10-2" x1="24.37" y1="38.43" x2="41.45" y2="38.43" xlink:href="#未命名的渐变_10"/><linearGradient id="未命名的渐变_10-3" x1="44.84" y1="29.89" x2="61.92" y2="29.89" xlink:href="#未命名的渐变_10"/><linearGradient id="未命名的渐变_10-4" x1="0" y1="66.19" x2="68.32" y2="66.19" xlink:href="#未命名的渐变_10"/></defs><title>营销优化</title><g id="图层_2" data-name="图层 2"><g id="图层_1-2" data-name="图层 1"><path class="cls-1" d="M10.31,59.78h4.27a6.41,6.41,0,0,0,6.4-6.4V36.3a6.41,6.41,0,0,0-6.4-6.41H10.31A6.42,6.42,0,0,0,3.9,36.3V53.38A6.41,6.41,0,0,0,10.31,59.78ZM8.17,36.3a2.14,2.14,0,0,1,2.14-2.14h4.27a2.14,2.14,0,0,1,2.13,2.14V53.38a2.14,2.14,0,0,1-2.13,2.13H10.31a2.14,2.14,0,0,1-2.14-2.13Z"/><path class="cls-2" d="M30.78,59.78h4.27a6.41,6.41,0,0,0,6.4-6.4V23.49a6.41,6.41,0,0,0-6.4-6.41H30.78a6.41,6.41,0,0,0-6.41,6.41V53.38A6.41,6.41,0,0,0,30.78,59.78ZM28.64,23.49a2.14,2.14,0,0,1,2.14-2.14h4.27a2.14,2.14,0,0,1,2.13,2.14V53.38a2.14,2.14,0,0,1-2.13,2.13H30.78a2.14,2.14,0,0,1-2.14-2.13Z"/><path class="cls-3" d="M51.24,59.78h4.27a6.41,6.41,0,0,0,6.41-6.4v-47A6.42,6.42,0,0,0,55.51,0H51.24a6.41,6.41,0,0,0-6.4,6.41v47A6.41,6.41,0,0,0,51.24,59.78ZM49.11,6.41a2.14,2.14,0,0,1,2.13-2.14h4.27a2.14,2.14,0,0,1,2.14,2.14v47a2.14,2.14,0,0,1-2.14,2.13H51.24a2.14,2.14,0,0,1-2.13-2.13Z"/><path class="cls-4" d="M66.19,64.05h-64a2.14,2.14,0,1,0,0,4.27H66.19a2.14,2.14,0,0,0,0-4.27Z"/></g></g></svg>