<svg xmlns="http://www.w3.org/2000/svg" xmlns:xlink="http://www.w3.org/1999/xlink" viewBox="0 0 67.13 67.56"><defs><style>.cls-1{fill:url(#未命名的渐变_10);}</style><linearGradient id="未命名的渐变_10" y1="33.78" x2="67.13" y2="33.78" gradientUnits="userSpaceOnUse"><stop offset="0" stop-color="#9fffd8"/><stop offset="1" stop-color="#0c9"/></linearGradient></defs><title>功能互动</title><g id="图层_2" data-name="图层 2"><g id="图层_1-2" data-name="图层 1"><path class="cls-1" d="M41.48,0H25.9a4.24,4.24,0,0,0-4.23,4.23V19.81A4.24,4.24,0,0,0,25.9,24H41.48a4.23,4.23,0,0,0,4.23-4.23V4.23A4.23,4.23,0,0,0,41.48,0ZM25.9,19.81V4.23H41.48V19.81ZM41.48,43.52H25.9a4.24,4.24,0,0,0-4.23,4.23V63.33a4.24,4.24,0,0,0,4.23,4.23H41.48a4.23,4.23,0,0,0,4.23-4.23V47.75a4.23,4.23,0,0,0-4.23-4.23ZM25.9,63.33V47.75H41.48V63.33ZM14.74,39.74a2.11,2.11,0,0,0-2.12,2.11v6.51A14.66,14.66,0,0,1,5.13,30.13,15.6,15.6,0,0,1,15.3,20.59a2.11,2.11,0,1,0-1.2-4.05A19.82,19.82,0,0,0,1.16,28.69,18.89,18.89,0,0,0,10.3,51.93H2.12a2.12,2.12,0,0,0,0,4.24H16.85V41.85a2.1,2.1,0,0,0-2.11-2.11ZM57.23,20.68H65a2.12,2.12,0,0,0,0-4.23H50.28V30.76a2.12,2.12,0,1,0,4.23,0V24A14.66,14.66,0,0,1,62,42.27a15.58,15.58,0,0,1-10.17,9.54A2.12,2.12,0,0,0,53,55.87,19.81,19.81,0,0,0,66,43.72a18.88,18.88,0,0,0-8.74-23Z"/></g></g></svg>