<svg xmlns="http://www.w3.org/2000/svg" xmlns:xlink="http://www.w3.org/1999/xlink" viewBox="0 0 60.26 70.01"><defs><style>.cls-1{fill:url(#未命名的渐变_10);}.cls-2{fill:url(#未命名的渐变_10-2);}</style><linearGradient id="未命名的渐变_10" y1="35.01" x2="60.26" y2="35.01" gradientUnits="userSpaceOnUse"><stop offset="0" stop-color="#9fffd8"/><stop offset="1" stop-color="#0c9"/></linearGradient><linearGradient id="未命名的渐变_10-2" x1="13.09" y1="31.47" x2="47.17" y2="31.47" xlink:href="#未命名的渐变_10"/></defs><title>系统安全稳定</title><g id="图层_2" data-name="图层 2"><g id="图层_1-2" data-name="图层 1"><path class="cls-1" d="M59.53,7.77A2.23,2.23,0,0,0,58.36,6C50.67,2,41.68,0,31.65,0c-.52,0-1,0-1.52,0h0c-.51,0-1,0-1.52,0-10,0-19,2-26.71,6A2.2,2.2,0,0,0,.73,7.78C.63,8.89-1.81,35.07,2.84,49.05c.09.39,3.61,13.18,27.29,21h0c23.67-7.78,27.19-20.57,27.28-21C62.07,35.07,59.63,8.89,59.53,7.77ZM53.21,47.82c0,.11-3.19,10.55-23.08,17.54h0c-19.9-7-23-17.42-23.08-17.54C3.18,36.2,4.57,14.68,5,9.39a53.57,53.57,0,0,1,23.62-5c.52,0,1,0,1.52.06h0c.51,0,1-.06,1.52-.06a53.53,53.53,0,0,1,23.61,5C55.68,14.68,57.08,36.19,53.21,47.82Z"/><path class="cls-2" d="M43.43,20,24.94,38.44l-8.11-8.15a2.19,2.19,0,1,0-3.1,3.09l9.35,9.4a2,2,0,0,0,1,.53,2.11,2.11,0,0,0,1,.3A2.19,2.19,0,0,0,26.62,43L46.53,23.08a2.19,2.19,0,1,0-3.1-3.1Z"/></g></g></svg>