<svg xmlns="http://www.w3.org/2000/svg" xmlns:xlink="http://www.w3.org/1999/xlink" viewBox="0 0 62.71 58.23"><defs><style>.cls-1{fill:url(#未命名的渐变_10);}.cls-2{fill:url(#未命名的渐变_10-2);}</style><linearGradient id="未命名的渐变_10" y1="29.12" x2="62.71" y2="29.12" gradientUnits="userSpaceOnUse"><stop offset="0" stop-color="#9fffd8"/><stop offset="1" stop-color="#0c9"/></linearGradient><linearGradient id="未命名的渐变_10-2" x1="13.44" y1="34.71" x2="62.6" y2="34.71" xlink:href="#未命名的渐变_10"/></defs><title>开发支持</title><g id="图层_2" data-name="图层 2"><g id="图层_1-2" data-name="图层 1"><path class="cls-1" d="M58.23,49.7a2.24,2.24,0,0,1,4.48,0v5.17a3.35,3.35,0,0,1-3.36,3.36h-56A3.35,3.35,0,0,1,0,54.87H0V3.36A3.35,3.35,0,0,1,3.36,0h56a3.35,3.35,0,0,1,3.36,3.36V15H4.48V53.75H58.23Zm0-39.19v-6H4.48v6Z"/><path class="cls-2" d="M40.45,21.63a2.24,2.24,0,1,1,4.21,1.53h0l-9,24.64a2.24,2.24,0,0,1-4.21-1.53Zm9.4,4.5a2.24,2.24,0,1,1,3.33-3h0L62,33a2.26,2.26,0,0,1,0,3l-8.85,9.84a2.24,2.24,0,1,1-3.33-3l7.5-8.34-7.5-8.35Zm-23.66,0a2.24,2.24,0,1,0-3.33-3L14,33a2.26,2.26,0,0,0,0,3l8.85,9.84a2.24,2.24,0,0,0,3.39-2.94l-.06-.06-7.5-8.34Z"/></g></g></svg>