<svg xmlns="http://www.w3.org/2000/svg" viewBox="0 0 330.13 330.13"><defs><style>.cls-1{fill:#0c9;}</style></defs><title>云部署</title><g id="图层_2" data-name="图层 2"><g id="图层_1-2" data-name="图层 1"><path class="cls-1" d="M165.23,48.58A116.13,116.13,0,1,0,281.35,164.71,116.13,116.13,0,0,0,165.23,48.58ZM165,276.52A111.68,111.68,0,1,1,276.71,164.84,111.68,111.68,0,0,1,165,276.52Z"/><path class="cls-1" d="M165.06,0A165.07,165.07,0,1,0,330.13,165.06,165.06,165.06,0,0,0,165.06,0Zm-.27,324A158.74,158.74,0,1,1,323.53,165.25,158.74,158.74,0,0,1,164.79,324Z"/><path class="cls-1" d="M213.37,192.19l-2.29-5.32a25,25,0,0,0,14.57-23,24.43,24.43,0,0,0-23.81-25,22.83,22.83,0,0,0-3.3.27,2.86,2.86,0,0,1-3.1-1.86A30.16,30.16,0,0,0,167.22,117,29.4,29.4,0,0,0,146,126.12a2.86,2.86,0,0,1-3.84.25,15.17,15.17,0,0,0-9.52-3.36,16.31,16.31,0,0,0-15.87,16.7,17.29,17.29,0,0,0,1.25,6.51,2.92,2.92,0,0,1-.07,2.37,2.87,2.87,0,0,1-1.8,1.52,19.63,19.63,0,0,0-13.81,19,20,20,0,0,0,7.24,15.56l-3.63,4.51a26,26,0,0,1,5.79-43.63,23,23,0,0,1-.73-5.84,22.08,22.08,0,0,1,21.62-22.5,20.76,20.76,0,0,1,11,3.16,35,35,0,0,1,23.6-9.19A35.73,35.73,0,0,1,200,133.11c.62-.05,1.24-.07,1.86-.07a30.23,30.23,0,0,1,29.57,30.79,30.82,30.82,0,0,1-18,28.36Zm-76.24,22.38a14.35,14.35,0,0,1-14.28-14.41V189.37h5.76v10.8a8.52,8.52,0,1,0,17,0V156.28a14.28,14.28,0,1,1,28.56,0v24.27h-5.76V156.27a8.52,8.52,0,1,0-17,0v43.9a14.35,14.35,0,0,1-14.28,14.41Zm-10-21.67a11.54,11.54,0,0,1-11.82-11.21V164.58a2.88,2.88,0,0,1,2.87-2.9H136a2.88,2.88,0,0,1,2.87,2.9V181.7a11.54,11.54,0,0,1-11.81,11.22ZM121,167.49V181.7a6.11,6.11,0,0,0,12.14,0V167.49Zm14.37,10.44H118.12v-5.81h17.26Zm-1.23-14h-5.76V158.7h-2.63v5.24H120V155.8a2.88,2.88,0,0,1,2.86-2.9h8.39a2.88,2.88,0,0,1,2.87,2.9v8.14Zm67.53,56.19-4.06-4.1,8.75-8.83-8.75-8.83,4.06-4.11,10.78,10.89a2.93,2.93,0,0,1,0,4.11Zm-27.94,0L163,209.26a2.93,2.93,0,0,1,0-4.11l10.78-10.88,4.08,4.1-8.75,8.83,8.75,8.82ZM185.31,218l-5.21-2.45,9-19.51,5.22,2.45Zm-6.77-28.4h-5.75v-5.81h5.75v5.8Zm8.63,0h-5.75v-5.81h5.75v5.8Zm8.63,0h-5.75v-5.81h5.75v5.8Zm8.63,0h-5.74v-5.81h5.74v5.8Z"/></g></g></svg>