<svg xmlns="http://www.w3.org/2000/svg" viewBox="0 0 182.13 179.76"><defs><style>.cls-1{fill:#b2f0e0;}.cls-2{fill:#0c9;}</style></defs><title>产品支持</title><g id="图层_2" data-name="图层 2"><g id="图层_1-2" data-name="图层 1"><path class="cls-1" d="M48,97.68a7.1,7.1,0,0,0-7.08,7.08v67.92a7.08,7.08,0,1,0,14.15,0V104.76A7.09,7.09,0,0,0,48,97.68ZM180.3,108.77l-51.07,3.35a2.25,2.25,0,0,1-2.25-2.27,2.33,2.33,0,0,1,2-2.53l49.27-3.21a33.17,33.17,0,0,0-32.72-17.47L112.39,90a212.37,212.37,0,0,0,14.27-27.45,20.93,20.93,0,0,0,2-9.06,17.16,17.16,0,0,0-1.42-6.79c-3.06-6.44-11.94-9.3-19-8.78-1,.08-11.15,1-15.56,8.49C89.53,51.83,91.44,57,91.56,62c.2,7.91-4,19-23.13,33.06A9.79,9.79,0,0,0,62.7,104v65.7a9.78,9.78,0,0,0,9.78,9.78h73.36a33.21,33.21,0,0,0,32.21-25.12l-46.5,3.05a2.25,2.25,0,0,1-2.24-2.27,2.31,2.31,0,0,1,2-2.53l47.58-3.11,2-17.08-50.43,3.3a2.25,2.25,0,0,1-2.24-2.27,2.31,2.31,0,0,1,2-2.53l51.24-3.35.47-4.07a33,33,0,0,0-1.6-14.72Z"/><path class="cls-2" d="M7.08,59.78A7.09,7.09,0,0,0,0,66.85v67.93a7.08,7.08,0,0,0,14.15,0V66.85A7.09,7.09,0,0,0,7.08,59.78ZM139.39,70.87,88.32,74.21A2.24,2.24,0,0,1,86.08,72a2.31,2.31,0,0,1,2-2.53l49.27-3.22a33.19,33.19,0,0,0-32.73-17.46l-33.13,3.4A213.24,213.24,0,0,0,85.76,24.68a20.83,20.83,0,0,0,2-9,17.17,17.17,0,0,0-1.42-6.8C83.25,2.39,74.38-.46,67.36.06c-1,.08-11.16,1-15.57,8.49-3.16,5.38-1.25,10.58-1.13,15.57.2,7.91-4,19-23.13,33.05a9.79,9.79,0,0,0-5.74,8.91v65.7a9.79,9.79,0,0,0,9.79,9.79h73.36a33.19,33.19,0,0,0,32.2-25.12l-46.49,3a2.25,2.25,0,0,1-2.24-2.27,2.31,2.31,0,0,1,2-2.53L138,111.59l2-17.09L89.54,97.8a2.23,2.23,0,0,1-2.24-2.26,2.3,2.3,0,0,1,2-2.53l51.24-3.36.47-4.06a32.85,32.85,0,0,0-1.61-14.72Z"/></g></g></svg>