<svg xmlns="http://www.w3.org/2000/svg" viewBox="0 0 198.71 228.48"><defs><style>.cls-1{fill:#b2f0e0;}.cls-2{fill:#0c9;}</style></defs><title>丰厚返利</title><g id="图层_2" data-name="图层 2"><g id="图层_1-2" data-name="图层 1"><path class="cls-1" d="M127.35,150.77h-3.22c-34.66,0-63.62-21.58-70.71-50.39v95.34c0,18.1,16.29,32.76,36.39,32.76h72c20.09,0,36.38-14.66,36.38-32.76V99.88C191.31,129,162.22,150.77,127.35,150.77Z"/><ellipse class="cls-1" cx="127.52" cy="90.39" rx="19.29" ry="17.37"/><path class="cls-1" d="M53.94,58.67v19.2c0,36,32.4,65.17,72.38,65.17h0c40,0,72.39-29.18,72.39-65.17V58.67c0-14.35-12.93-26-28.87-26h-87C66.86,32.68,53.94,44.32,53.94,58.67Zm75.74,61.71C109.59,121.53,93,106.61,94.29,88.53c1-14.92,14.5-27,31.06-28,20.09-1.14,36.66,13.77,35.39,31.86C159.69,107.34,146.25,119.44,129.68,120.38Z"/><path class="cls-2" d="M73.94,118.1H70.71C36.05,118.1,7.09,96.51,0,67.7v95.35c0,18.09,16.29,32.76,36.39,32.76h72c20.09,0,36.38-14.67,36.38-32.76V67.21C137.89,96.27,108.8,118.1,73.94,118.1Z"/><ellipse class="cls-2" cx="74.1" cy="57.71" rx="19.29" ry="17.37"/><path class="cls-2" d="M.52,26v19.2c0,36,32.4,65.17,72.38,65.17h0c40,0,72.39-29.18,72.39-65.17V26c0-14.35-12.93-26-28.87-26h-87C13.44,0,.52,11.64.52,26ZM76.26,87.71C56.17,88.85,39.61,73.94,40.87,55.85c1.05-14.92,14.5-27,31.06-28,20.1-1.14,36.66,13.77,35.39,31.86C106.27,74.66,92.83,86.76,76.26,87.71Z"/></g></g></svg>