<svg xmlns="http://www.w3.org/2000/svg" viewBox="0 0 246.15 209.27"><defs><style>.cls-1{fill:#fff;}</style></defs><title>共同价值观</title><g id="图层_2" data-name="图层 2"><g id="图层_1-2" data-name="图层 1"><path class="cls-1" d="M228.34,90.84a6,6,0,0,1-8.44,0L155.31,26.25a6,6,0,0,1,0-8.44L171.39,1.73a6,6,0,0,1,8.44,0l64.59,64.59a6,6,0,0,1,0,8.44L228.34,90.84Z"/><path class="cls-1" d="M200.93,136.1,142.19,77.5,126.63,83l-4.42,12.72a21.11,21.11,0,0,1-26.87,13,21.08,21.08,0,0,1-13-26.88l6.75-19.44L41.37,110.07a5,5,0,0,0,0,7L46,121.68l8.7-8.7a14.87,14.87,0,0,1,25.39,10.46,14.85,14.85,0,0,1,14.83,14.8A14.82,14.82,0,0,1,109.69,153a14.85,14.85,0,0,1,10.45,25.38l-8.7,8.7,19.23,19.26a9.89,9.89,0,0,0,14-14L129.3,177a3.37,3.37,0,1,1,4.78-4.76l15.36,15.36a9.9,9.9,0,0,0,14-14l-15.37-15.36a3.39,3.39,0,0,1,4.79-4.79l15.41,15.39a9.89,9.89,0,0,0,14-14l-15.39-15.36a3.39,3.39,0,1,1,4.79-4.79L187,150.12a9.87,9.87,0,1,0,13.89-14Z"/><path class="cls-1" d="M98.05,31.85a6,6,0,0,1,0,8.44l-70.5,70.53a6,6,0,0,1-8.44,0L1.73,93.44a6,6,0,0,1,0-8.44L72.26,14.47a6,6,0,0,1,8.44,0Z"/><path class="cls-1" d="M197.26,78.53l-38.1-38.1c-4.69-4.69-11.25-5.6-17.65-2.67L106.42,53.85a13.67,13.67,0,0,0-8.37,8.38L90.31,84.57a13.67,13.67,0,0,0,25.84,9l5.58-16.1,22.74-8.08L186.08,111l11.15-11.15A15,15,0,0,0,197.26,78.53ZM70.7,118a7.83,7.83,0,0,0-11.06,0L47.43,130.19a7.81,7.81,0,0,0,11,11.06L70.67,129a7.77,7.77,0,0,0,0-11Zm14.83,14.81a7.81,7.81,0,0,0-11.06,0L62.26,145a7.81,7.81,0,0,0,11,11.06L85.5,143.84A7.83,7.83,0,0,0,85.53,132.79Zm18.56,29.61L91.87,174.64a7.81,7.81,0,0,0,11,11.05l12.21-12.21a7.82,7.82,0,0,0-11-11.08Zm-3.78-14.81a7.79,7.79,0,0,0-11,0L77.07,159.83a7.81,7.81,0,1,0,11.05,11l12.22-12.21a7.86,7.86,0,0,0,0-11.06Z"/></g></g></svg>