<svg xmlns="http://www.w3.org/2000/svg" viewBox="0 0 207.35 216.11"><defs><style>.cls-1{fill:#b2f0e0;}.cls-2{fill:#0c9;}</style></defs><title>技术支持</title><g id="图层_2" data-name="图层 2"><g id="图层_1-2" data-name="图层 1"><path class="cls-1" d="M125,31.1a14,14,0,1,1,8.74,26.52c0,1,0,2,0,2.94,20.75,0,41.5,0,62.25,0a11.54,11.54,0,0,1,8.42,3.82,11.77,11.77,0,0,1,3,7.17v84a11.78,11.78,0,0,1-3,7.18,11.56,11.56,0,0,1-8.58,3.79h-26v12.39H187.6c2,0,4.12-.16,6.07.53a11.58,11.58,0,0,1,7.84,10.5c.05,4.84,0,9.68,0,14.53a11.8,11.8,0,0,1-4.34,9.19,11.29,11.29,0,0,1-6.21,2.43H68.81a11.17,11.17,0,0,1-7.46-3.47,11.83,11.83,0,0,1-3.21-8.14q0-7,0-13.95a11.84,11.84,0,0,1,3.51-8.44,11,11,0,0,1,7.63-3.17H89.9V166.54H64.07a11.67,11.67,0,0,1-10.42-6.2,13.52,13.52,0,0,1-1.39-5V71.89a12.24,12.24,0,0,1,2.94-7.36,11.58,11.58,0,0,1,8.68-4H126v-3a14,14,0,0,1-1-26.48M94.72,92.27a21.49,21.49,0,1,0,14.07,4.16,21.4,21.4,0,0,0-14.07-4.16m67.38,0a21.5,21.5,0,1,0,17.41,7.22,21.42,21.42,0,0,0-17.41-7.22M107.73,187a3.87,3.87,0,0,0-2.65,3.57q0,4.92,0,9.86a3.87,3.87,0,1,0,7.74-.18v-9.51a3.89,3.89,0,0,0-1.69-3.25,3.84,3.84,0,0,0-3.4-.49m20.9,0a3.88,3.88,0,0,0-2.64,3.57c0,3.29,0,6.57,0,9.86a3.87,3.87,0,0,0,7.45,1.41,5.22,5.22,0,0,0,.29-2.18c0-3,0-5.94,0-8.91a3.87,3.87,0,0,0-5.1-3.75m20.14,0a3.9,3.9,0,0,0-2.64,3.56q0,4.94,0,9.87a3.86,3.86,0,0,0,6.16,3,3.91,3.91,0,0,0,1.58-3.22v-9.49a3.89,3.89,0,0,0-5.1-3.76Z"/><path class="cls-2" d="M72.69.91A14,14,0,0,1,88.63,5.33a14,14,0,0,1-.37,17.72,14.15,14.15,0,0,1-6.83,4.38c0,1,0,1.95,0,2.93,20.74.05,41.49,0,62.24,0a11.61,11.61,0,0,1,8.42,3.82,11.83,11.83,0,0,1,3,7.17v84a11.78,11.78,0,0,1-3,7.18,11.63,11.63,0,0,1-8.58,3.79h-26v12.39h17.83c2,0,4.12-.16,6.07.53a11.56,11.56,0,0,1,7.84,10.49c.06,4.85,0,9.69,0,14.53a11.8,11.8,0,0,1-4.34,9.19,11.27,11.27,0,0,1-6.2,2.44H16.55a11.14,11.14,0,0,1-7.45-3.48,11.83,11.83,0,0,1-3.22-8.14q0-7,0-13.94a11.84,11.84,0,0,1,3.51-8.44A11,11,0,0,1,17,148.74H37.64c0-4.13,0-8.26,0-12.39H11.81a11.68,11.68,0,0,1-10.42-6.21A13.52,13.52,0,0,1,0,125.2V41.7a12.21,12.21,0,0,1,2.94-7.36,11.59,11.59,0,0,1,8.68-4H73.69c0-1,0-2,0-3a14,14,0,0,1-1-26.47M42.46,62.08a21.47,21.47,0,1,0,14.07,4.15,21.41,21.41,0,0,0-14.07-4.15m67.38,0A21.43,21.43,0,0,0,90.31,78.37a21.48,21.48,0,1,0,41.89.84,21.47,21.47,0,0,0-22.36-17.13M55.47,156.8a3.88,3.88,0,0,0-2.65,3.57c0,3.28,0,6.57,0,9.85a3.87,3.87,0,1,0,7.74-.17v-9.51a3.88,3.88,0,0,0-5.09-3.74m20.9,0a3.9,3.9,0,0,0-2.64,3.57c0,3.28,0,6.57,0,9.85a3.87,3.87,0,0,0,7.45,1.41,5.17,5.17,0,0,0,.29-2.18c0-3,0-5.93,0-8.9a3.87,3.87,0,0,0-5.1-3.75m20.14,0a3.88,3.88,0,0,0-2.64,3.55q0,5,0,9.88a3.87,3.87,0,0,0,6.17,3,3.93,3.93,0,0,0,1.57-3.23v-9.49a3.88,3.88,0,0,0-5.1-3.75Z"/></g></g></svg>