<svg xmlns="http://www.w3.org/2000/svg" viewBox="0 0 199.72 223.92"><defs><style>.cls-1{fill:#b2f0e0;}.cls-2{fill:#0c9;}</style></defs><title>体系培训</title><g id="图层_2" data-name="图层 2"><g id="图层_1-2" data-name="图层 1"><path class="cls-1" d="M188.94,71.48V213H75.73a16.33,16.33,0,0,1,0-32.66H178.15V49.71H70.34A21.73,21.73,0,0,0,48.77,71.48V202.15a21.74,21.74,0,0,0,21.57,21.77H199.72V71.48ZM81.11,191.26h97v10.89h-97V191.26Z"/><path class="cls-2" d="M140.16,21.78V163.32H27a16.33,16.33,0,0,1,0-32.66H129.38V0H21.56A21.73,21.73,0,0,0,0,21.78V152.44a21.73,21.73,0,0,0,21.56,21.77H150.94V21.78ZM32.34,141.55h97v10.89h-97V141.55Z"/></g></g></svg>