<svg xmlns="http://www.w3.org/2000/svg" viewBox="0 0 189.53 190.59"><defs><style>.cls-1{fill:#b2f0e0;}.cls-2{fill:#0c9;}</style></defs><title>市场支持</title><g id="图层_2" data-name="图层 2"><g id="图层_1-2" data-name="图层 1"><path class="cls-1" d="M168.94,131.89h-45.3v14.65h45.3Zm0-29.4h-45.3v14.76h45.3Zm0-34.21H70.15V82.92h98.79ZM70.15,146.54h37v-44h-37Zm102.19,44.05c-1.7-5.7-6.3-9.73-11.6-9.73s-9.9,4-11.6,9.73h-18c-1.7-5.7-6.2-9.73-11.6-9.73s-9.9,4-11.6,9.73h-18c-1.7-5.7-6.19-9.73-11.59-9.73s-9.9,4-11.6,9.73H49.55V43.79c0-5.37,3.7-9.73,8.2-9.73H181.34c4.5,0,8.19,4.36,8.19,9.73v146.8Z"/><path class="cls-2" d="M119.39,97.83H74.09v14.65h45.3Zm0-29.41H74.09V83.18h45.3Zm0-34.21H20.6V48.86h98.79ZM20.6,112.48h37V68.42h-37Zm102.19,44.05c-1.7-5.71-6.3-9.73-11.6-9.73s-9.9,4-11.6,9.73h-18c-1.7-5.71-6.2-9.73-11.6-9.73s-9.9,4-11.6,9.73h-18c-1.7-5.71-6.2-9.73-11.6-9.73s-9.9,4-11.6,9.73H0V9.73C0,4.36,3.7,0,8.2,0H131.79c4.5,0,8.2,4.36,8.2,9.73v146.8Z"/></g></g></svg>