<svg xmlns="http://www.w3.org/2000/svg" viewBox="0 0 178.84 178.84"><defs><style>.cls-1{fill:#0c9;}.cls-2{fill:#666;}</style></defs><title>签订协议</title><g id="图层_2" data-name="图层 2"><g id="图层_1-2" data-name="图层 1"><path class="cls-1" d="M89.42,0a89.42,89.42,0,1,0,89.42,89.42A89.41,89.41,0,0,0,89.42,0Zm.06,174.71A85.42,85.42,0,1,1,174.9,89.29,85.42,85.42,0,0,1,89.48,174.71Z"/><path class="cls-2" d="M76.68,73.58a2,2,0,0,1-1.81-2.17A2.09,2.09,0,0,1,77,69.23h8a2.18,2.18,0,0,1,0,4.35Zm0,24a2.18,2.18,0,1,1,0-4.35h20a2.18,2.18,0,0,1,0,4.35Zm30.11-14.15a2.09,2.09,0,0,1-2.17,2.18H76.68a2.18,2.18,0,0,1,0-4.36H105a2.3,2.3,0,0,1,1.81,2.18Z"/><path class="cls-2" d="M119.13,85.92V74.31l-21.41-21H70.88a8.14,8.14,0,0,0-8.35,8v56.23a8.22,8.22,0,0,0,8.35,8.35H105a20.94,20.94,0,0,1-4-4H70.88a4,4,0,0,1-4-4V61.25a3.74,3.74,0,0,1,4-4h24.3V77.58H115.5v8a15.13,15.13,0,0,1,3.63.36ZM98.81,73.58V60.89l12.7,12.33Zm30.48,14.88L115.14,103a2.81,2.81,0,0,0-.73,1.45l-1.08,4a1.33,1.33,0,0,0,.36,1.09,1.31,1.31,0,0,0,1.09.37l4.35-1.09c.36,0,.73-.37,1.09-.73l14.15-14.51a2.84,2.84,0,0,0,0-4l-.73-.73a3.15,3.15,0,0,0-2.17-1.09,1.62,1.62,0,0,0-2.18.73Z"/><path class="cls-2" d="M83.21,118.94c-.36,0-.72,0-.72-.37a2.08,2.08,0,0,1-.73-2.54c8-14.15,10.89-13.42,12-13.42s2.18.73,2.54,2.9c.37,1.82.37,3.63.73,5.44V112l1.45-1.45c2.54-2.9,4.35-4.72,6.53-4.35s2.18,2.54,2.54,2.9a8,8,0,0,1,.36,2.9l1.09-.36a1.62,1.62,0,0,1,2.18,1.09,1.75,1.75,0,0,1-.73,2.18c-2.9,1.45-4.35,1.81-5.8,1.08a3.46,3.46,0,0,1-.73-3.26,3,3,0,0,0,0-2.54,18.3,18.3,0,0,0-2.54,2.9L98.81,115c-.72.72-2.54,2.53-4.35,1.81s-1.81-2.54-2.18-5.44V107a58.91,58.91,0,0,0-7.62,10.89c-.36.72-.72,1.09-1.45,1.09Z"/></g></g></svg>