<svg xmlns="http://www.w3.org/2000/svg" viewBox="0 0 178.84 178.84"><defs><style>.cls-1{fill:#0c9;}.cls-2{fill:#666;}</style></defs><title>合作洽谈</title><g id="图层_2" data-name="图层 2"><g id="图层_1-2" data-name="图层 1"><path class="cls-1" d="M89.42,0a89.42,89.42,0,1,0,89.42,89.42A89.41,89.41,0,0,0,89.42,0Zm.06,174.71A85.42,85.42,0,1,1,174.9,89.29,85.42,85.42,0,0,1,89.48,174.71Z"/><path class="cls-2" d="M60.78,97.92l-3.46-3.45A21.76,21.76,0,1,1,88,63.62l1.54,1.27-2.83,3.42L85,66.83a17.33,17.33,0,0,0-24.51,24.5l3.46,3.46Zm33.11,30.24a6.9,6.9,0,0,1-4.9-2L92.13,123a2.5,2.5,0,0,0,3.54,0l21-21a2.5,2.5,0,0,0,0-3.53L100.72,82.59c-4.56,5.32-9.48,8-14.6,7.93C78.35,90.43,73.21,84,73,83.73l-1.21-1.55L91.12,62.85A21.76,21.76,0,0,1,121.9,93.62L120,95.56a6.94,6.94,0,0,1-.19,9.61l-21,21a6.84,6.84,0,0,1-4.9,2Zm6.79-50.32A3.78,3.78,0,0,1,103.36,79l13.47,13.47,1.93-1.94A17.32,17.32,0,1,0,94.3,66l0,0L77.84,82.39c1.65,1.5,4.67,3.67,8.37,3.7h.08c3.84,0,7.7-2.31,11.45-6.86a3.82,3.82,0,0,1,2.76-1.38ZM84.82,128.52a6.87,6.87,0,0,1-4.91-2L61,107.62a6.93,6.93,0,0,1,0-9.81h0l7-7a6.93,6.93,0,0,1,9.81,0l18.88,18.88a6.92,6.92,0,0,1,0,9.8l-7,7A6.84,6.84,0,0,1,84.82,128.52ZM73,93.19a2.52,2.52,0,0,0-1.76.73l-7,7a2.51,2.51,0,0,0,0,3.54h0l18.88,18.88a2.5,2.5,0,0,0,3.53,0l7-7a2.52,2.52,0,0,0,0-3.54L74.72,93.92A2.53,2.53,0,0,0,73,93.19Z"/></g></g></svg>