<svg xmlns="http://www.w3.org/2000/svg" viewBox="0 0 178.84 178.84"><defs><style>.cls-1{fill:#0c9;}.cls-2{fill:#666;}</style></defs><title>正式运营</title><g id="图层_2" data-name="图层 2"><g id="图层_1-2" data-name="图层 1"><path class="cls-1" d="M89.42,0a89.42,89.42,0,1,0,89.42,89.42A89.41,89.41,0,0,0,89.42,0Zm.06,174.71A85.42,85.42,0,1,1,174.9,89.29,85.42,85.42,0,0,1,89.48,174.71Z"/><path class="cls-2" d="M90.73,103.92a13,13,0,1,1,13-13A13,13,0,0,1,90.73,103.92Zm0-21.16a8.18,8.18,0,1,0,8.18,8.18A8.18,8.18,0,0,0,90.73,82.76ZM69.12,124.55a12,12,0,1,1,12-12A12,12,0,0,1,69.12,124.55Zm0-19.2a7.2,7.2,0,1,0,7.21,7.2A7.21,7.21,0,0,0,69.12,105.35Zm43.22,19.2a12,12,0,1,1,12-12A12,12,0,0,1,112.34,124.55Zm0-19.2a7.2,7.2,0,1,0,7.2,7.2A7.21,7.21,0,0,0,112.34,105.35Zm-39.29-26a11,11,0,1,1,11-11A11,11,0,0,1,73.05,79.39Zm0-17.26a6.23,6.23,0,1,0,6.22,6.23A6.23,6.23,0,0,0,73.05,62.13Zm36.8,14.78a9.76,9.76,0,1,1,9.75-9.75A9.76,9.76,0,0,1,109.85,76.91Zm0-14.7a4.95,4.95,0,1,0,5,4.95A5,5,0,0,0,109.85,62.21Z"/><path class="cls-2" d="M84.65,84.59a2.39,2.39,0,0,1-1.74-.75L76.41,77a2.4,2.4,0,0,1,3.49-3.3l6.5,6.88a2.4,2.4,0,0,1-1.75,4Zm12.82.5a2.44,2.44,0,0,1-1.47-.5,2.4,2.4,0,0,1-.43-3.37l7.67-9.89a2.41,2.41,0,0,1,3.8,3l-7.67,9.88A2.4,2.4,0,0,1,97.47,85.09ZM74.86,107.25a2.4,2.4,0,0,1-1.69-4.1l7.43-7.41A2.4,2.4,0,0,1,84,99.14l-7.43,7.41a2.38,2.38,0,0,1-1.7.7Zm30.28,1.35a2.42,2.42,0,0,1-1.73-.73l-7.17-7.43a2.4,2.4,0,1,1,3.45-3.34l7.18,7.43a2.4,2.4,0,0,1-1.73,4.07Z"/></g></g></svg>