<svg xmlns="http://www.w3.org/2000/svg" viewBox="0 0 178.84 178.84"><defs><style>.cls-1{fill:#666;}.cls-2{fill:#0c9;}</style></defs><title>提交申请</title><g id="图层_2" data-name="图层 2"><g id="图层_1-2" data-name="图层 1"><path class="cls-1" d="M80.57,124.66H68a7,7,0,0,1-7-7V61.76a7,7,0,0,1,7-7h45.33a7,7,0,0,1,7,7v16.3a2.7,2.7,0,0,1-5.4,0V61.76a1.61,1.61,0,0,0-1.58-1.59H68a1.61,1.61,0,0,0-1.59,1.59v55.92A1.61,1.61,0,0,0,68,119.26H80.57a2.7,2.7,0,1,1,0,5.4Z"/><path class="cls-1" d="M102.34,73.86H74.82a2.7,2.7,0,1,1,0-5.4h27.52a2.7,2.7,0,0,1,0,5.4ZM98.62,87.08H74.84a2.7,2.7,0,0,1,0-5.4H98.62a2.7,2.7,0,0,1,0,5.4Zm-7.76,13.49H74.92a2.7,2.7,0,1,1,0-5.39H90.86a2.7,2.7,0,1,1,0,5.39Zm-2.46,23.7-.27-12.37A4.22,4.22,0,0,1,89.22,108l22.2-24.91a3.66,3.66,0,0,1,2.39-1.22,3.51,3.51,0,0,1,2.7.88l9.15,8.15a3.61,3.61,0,0,1,.25,5.09l-5.57,6.32a2.7,2.7,0,0,1-4-3.58l4.42-5L114.28,88,93.5,111.28c0,.12,0,.25,0,.39l.14,6.56,5.74-.66.28-.29,0,0,11.39-12.52a2.7,2.7,0,1,1,4,3.63L103.7,120.88a10.74,10.74,0,0,1-1.17,1.13,3.6,3.6,0,0,1-2.74.95Zm-.18-12.13h0Z"/><path class="cls-1" d="M117.89,103.18a2.69,2.69,0,0,1-1.94-.82l-8.34-8.6A2.7,2.7,0,1,1,111.49,90l8.34,8.6a2.7,2.7,0,0,1-1.94,4.58Z"/><path class="cls-2" d="M89.42,0a89.42,89.42,0,1,0,89.42,89.42A89.41,89.41,0,0,0,89.42,0Zm.06,174.71A85.42,85.42,0,1,1,174.9,89.29,85.42,85.42,0,0,1,89.48,174.71Z"/></g></g></svg>