<svg xmlns="http://www.w3.org/2000/svg" viewBox="0 0 178.84 178.84"><defs><style>.cls-1{fill:#0c9;}.cls-2{fill:#666;}</style></defs><title>业务培训</title><g id="图层_2" data-name="图层 2"><g id="图层_1-2" data-name="图层 1"><path class="cls-1" d="M89.42,0a89.42,89.42,0,1,0,89.42,89.42A89.41,89.41,0,0,0,89.42,0Zm.06,174.71A85.42,85.42,0,1,1,174.9,89.29,85.42,85.42,0,0,1,89.48,174.71Z"/><path class="cls-2" d="M95.5,121.19a2.41,2.41,0,0,1,2.55-2.58l16.51-.17a1.3,1.3,0,0,0,1.26-1.27L115.23,60A1.33,1.33,0,0,0,114,58.69l-45.74.47a1.32,1.32,0,0,0-1.28,1.29l.15,15.26a2.55,2.55,0,1,1-5.09.05L61.84,60.5a6.53,6.53,0,0,1,6.32-6.43q3.44-.06,45.74-.48a6.53,6.53,0,0,1,6.42,6.31l.58,57.22a6.49,6.49,0,0,1-6.28,6.4l-16.34.16A2.52,2.52,0,0,1,95.5,121.19ZM74.56,89.7a12.91,12.91,0,0,1,.2,18.87,14.45,14.45,0,0,1-19.69.28l-.08-.08a12.9,12.9,0,0,1-.16-18.89,14.41,14.41,0,0,1,9.81-4,14.16,14.16,0,0,1,9.92,3.81Zm-9.85,2.54a7.62,7.62,0,1,0,7.7,7.56,7.7,7.7,0,0,0-7.7-7.56ZM47.59,130.56a2.82,2.82,0,0,1-2.86-2.78l-.1-9.9a2.73,2.73,0,0,1,.94-2.12,24.82,24.82,0,0,1,8.88-5.9,40.86,40.86,0,0,1,9.85-2.34,2.81,2.81,0,0,1,.7,5.58,38.25,38.25,0,0,0-8.51,2,19.56,19.56,0,0,0-6.18,3.9l.09,8.75a2.82,2.82,0,0,1-2.8,2.84Zm35.1-.36a2.8,2.8,0,0,1-2.92-2.71.57.57,0,0,1,0-.13l-.09-8.72a19.18,19.18,0,0,0-6.25-3.76,37.33,37.33,0,0,0-8.48-1.78,2.81,2.81,0,0,1-2.58-3h0a2.81,2.81,0,0,1,3-2.56h.11a40.94,40.94,0,0,1,9.85,2.12,25,25,0,0,1,9,5.7,2.88,2.88,0,0,1,1,2.1l.1,9.86a2.81,2.81,0,0,1-2.72,2.9Zm23.79-55.55a3.06,3.06,0,0,1-2.88,3.21l-23.41.24a3.19,3.19,0,0,1-.06-6.36l23.4-.24A3.06,3.06,0,0,1,106.48,74.65Zm-1.13,14a3,3,0,0,1-2.78,3.2L93,92a3.2,3.2,0,0,1-.07-6.35l9.62-.1A3,3,0,0,1,105.35,88.65Zm-21,40A2.8,2.8,0,0,1,80.72,130l-.07,0a2.64,2.64,0,0,1-1.32-3.58v0l9.46-18.86a2.88,2.88,0,0,1,3.74-1.26,2.7,2.7,0,0,1,1.31,3.61l-9.48,18.86Z"/></g></g></svg>