<svg xmlns="http://www.w3.org/2000/svg" viewBox="0 0 178.84 178.84"><defs><style>.cls-1{fill:#0c9;}.cls-2{fill:#666;}</style></defs><title>资质审核</title><g id="图层_2" data-name="图层 2"><g id="图层_1-2" data-name="图层 1"><path class="cls-1" d="M89.42,0a89.42,89.42,0,1,0,89.42,89.42A89.41,89.41,0,0,0,89.42,0Zm.06,174.71A85.42,85.42,0,1,1,174.9,89.29,85.42,85.42,0,0,1,89.48,174.71Z"/><path class="cls-2" d="M71.39,73.16H96.62a2.52,2.52,0,0,1,0,5H71.39a2.52,2.52,0,1,1,0-5Zm0,10.09H86.53a2.53,2.53,0,0,1,0,5H71.39a2.53,2.53,0,0,1,0-5Zm0,10.09H81.48a2.53,2.53,0,1,1,0,5H71.39a2.53,2.53,0,0,1,0-5Zm42.89-17.66h-5V65.59a2.53,2.53,0,0,0-2.53-2.52H66.35a2.53,2.53,0,0,0-2.53,2.52v50.46a2.53,2.53,0,0,0,2.53,2.52H94.1v5.05H63.82a5.06,5.06,0,0,1-5-5.05V63.07a5.06,5.06,0,0,1,5-5h45.42a5.06,5.06,0,0,1,5,5ZM116.8,111h7.57a2.53,2.53,0,1,1,0,5H104.19a2.53,2.53,0,0,1,0-5h7.57v-5.29a12.62,12.62,0,1,1,5,0V111Zm-2.52-10.09a7.57,7.57,0,1,0-7.57-7.57A7.55,7.55,0,0,0,114.28,100.91Zm-12.61,17.66H126.9a2.53,2.53,0,0,1,0,5.05H101.67a2.53,2.53,0,1,1,0-5.05Z"/></g></g></svg>