<svg xmlns="http://www.w3.org/2000/svg" viewBox="0 0 232.86 196.47"><defs><style>.cls-1{fill:#fff;}</style></defs><title>专业团队</title><g id="图层_2" data-name="图层 2"><g id="图层_1-2" data-name="图层 1"><path class="cls-1" d="M117.12,88.92A33.48,33.48,0,1,0,83.64,55.44a33.48,33.48,0,0,0,33.48,33.48Zm21.26,6-21,24.69-21-24.56c-22,9.87-37.69,34.62-37.69,63.7a79.15,79.15,0,0,0,.93,11.7c12.43,15.65,33.69,26,57.89,26s45.46-10.34,57.88-26a82,82,0,0,0,.94-11.7C176.27,129.57,160.52,104.77,138.38,95Zm23.76-39.51c0,.65-.06,1.27-.11,1.92A31,31,0,1,0,148.31,23,44.93,44.93,0,0,1,162.14,55.44ZM54,62a30.66,30.66,0,0,0,18-5.9,4.27,4.27,0,0,0,0-.62A45.07,45.07,0,0,1,84.29,24.61,31,31,0,1,0,54,62Z"/><path class="cls-1" d="M197.82,67.58,178.35,90.4,160.08,69a45.27,45.27,0,0,1-11.2,18.35c23.86,13.41,39,40.72,39,71.45,0,.67,0,1.37-.1,2.1,18.48-2.26,34.36-11,44.21-23.44a74.32,74.32,0,0,0,.86-10.84C232.88,99.63,218.28,76.65,197.82,67.58Zm-112.13,20a44.94,44.94,0,0,1-12-20l0,0L54.24,90.35,34.85,67.63C14.48,76.8,0,99.7,0,126.58a74.32,74.32,0,0,0,.86,10.84c10.21,12.92,27,21.86,46.34,23.68,0-.78-.05-1.56-.05-2.34C47.15,128.24,62.09,101.06,85.69,87.54Z"/></g></g></svg>