<svg xmlns="http://www.w3.org/2000/svg" viewBox="0 0 194.22 204.02"><defs><style>.cls-1{fill:#b2f0e0;}.cls-2{fill:#0c9;}</style></defs><title>销售支持</title><g id="图层_2" data-name="图层 2"><g id="图层_1-2" data-name="图层 1"><path class="cls-1" d="M48.87,56.17H167A9.06,9.06,0,0,1,176,65.4V194.79A9.06,9.06,0,0,1,167,204H48.87a9.06,9.06,0,0,1-9.06-9.23V65.4A9.11,9.11,0,0,1,48.87,56.17ZM67,143.9v27.69a4.65,4.65,0,0,0,4.66,4.65,4.43,4.43,0,0,0,4.4-4.4v-28a4.47,4.47,0,0,0-4.49-4.49A4.62,4.62,0,0,0,67,143.9Zm36.34,9.39V171.5a4.74,4.74,0,0,0,4.74,4.74,4.29,4.29,0,0,0,4.32-4.32v-19a4.3,4.3,0,0,0-4.32-4.33A4.79,4.79,0,0,0,103.34,153.29Zm36.33-27.69v45.82a4.92,4.92,0,0,0,4.91,4.91,4.18,4.18,0,0,0,4.16-4.16v-47a4.3,4.3,0,0,0-4.33-4.33,4.8,4.8,0,0,0-4.74,4.74Zm-29.85-4.16L148.74,98a4.34,4.34,0,0,0,1.49-6,4.82,4.82,0,0,0-6.56-1.66l-32.6,19.7a2.14,2.14,0,0,1-2.66-.33L91,91.68a2.65,2.65,0,0,0-3.41-.34L65.75,106.06a4.84,4.84,0,0,0-1.33,6.74A4.41,4.41,0,0,0,70.49,114l16.13-11a2.29,2.29,0,0,1,2.91.33l17.13,17.8a2.63,2.63,0,0,0,3.16.24Zm79.83,64a4.61,4.61,0,0,1-4.57-4.57V56.17A9.08,9.08,0,0,0,176,46.94H62.26a4.29,4.29,0,0,1-4.32-4.32,4.86,4.86,0,0,1,4.9-4.91H176a18.3,18.3,0,0,1,18.21,18.46V181a4.48,4.48,0,0,1-4.57,4.49Z"/><path class="cls-2" d="M9.06,18.46H127.14a9.08,9.08,0,0,1,9.07,9.23V157.08a9.08,9.08,0,0,1-9.07,9.23H9.06A9.07,9.07,0,0,1,0,157.08V27.69A9.12,9.12,0,0,1,9.06,18.46Zm18.13,87.73v27.69a4.65,4.65,0,0,0,4.66,4.65,4.43,4.43,0,0,0,4.41-4.4v-28a4.48,4.48,0,0,0-4.49-4.49A4.62,4.62,0,0,0,27.19,106.19Zm36.34,9.39v18.21a4.74,4.74,0,0,0,4.74,4.74,4.29,4.29,0,0,0,4.32-4.32v-19a4.3,4.3,0,0,0-4.32-4.33A4.79,4.79,0,0,0,63.53,115.58ZM99.87,87.89v45.82a4.92,4.92,0,0,0,4.9,4.91,4.18,4.18,0,0,0,4.16-4.16v-47a4.3,4.3,0,0,0-4.32-4.33,4.79,4.79,0,0,0-4.74,4.74ZM70,83.73l38.91-23.44a4.35,4.35,0,0,0,1.5-6,4.84,4.84,0,0,0-6.57-1.66l-32.6,19.7A2.14,2.14,0,0,1,68.6,72L51.22,54a2.66,2.66,0,0,0-3.41-.34L25.94,68.35a4.85,4.85,0,0,0-1.33,6.74,4.41,4.41,0,0,0,6.07,1.24l16.14-11a2.29,2.29,0,0,1,2.91.33l17.13,17.8a2.64,2.64,0,0,0,3.16.25Zm79.82,64a4.61,4.61,0,0,1-4.57-4.57V18.46a9.07,9.07,0,0,0-9.06-9.23H22.45a4.29,4.29,0,0,1-4.32-4.32A4.86,4.86,0,0,1,23,0H136.21a18.32,18.32,0,0,1,18.21,18.46V143.27a4.48,4.48,0,0,1-4.58,4.49Z"/></g></g></svg>