<svg xmlns="http://www.w3.org/2000/svg" viewBox="0 0 165.11 216.59"><defs><style>.cls-1{fill:#b2f0e0;}.cls-2{fill:#0c9;}</style></defs><title>运营支持</title><g id="图层_2" data-name="图层 2"><g id="图层_1-2" data-name="图层 1"><path class="cls-1" d="M154.19,41.81H50.4A10.91,10.91,0,0,0,39.48,52.72v153A10.91,10.91,0,0,0,50.4,216.59H154.19a10.91,10.91,0,0,0,10.92-10.92V52.72A10.91,10.91,0,0,0,154.19,41.81ZM81.81,50h41a4.1,4.1,0,1,1,0,8.2h-41a4.1,4.1,0,0,1,0-8.2Zm20.49,158.4a10.92,10.92,0,1,1,10.91-10.92A10.91,10.91,0,0,1,102.3,208.41Zm49.68-30H52.61V66.4H152v112Z"/><path class="cls-2" d="M114.71,0H10.92A10.91,10.91,0,0,0,0,10.92v153a10.91,10.91,0,0,0,10.92,10.92H114.71a10.92,10.92,0,0,0,10.92-10.92v-153A10.91,10.91,0,0,0,114.71,0ZM42.32,8.2h41a4.11,4.11,0,0,1,0,8.21h-41a4.11,4.11,0,0,1,0-8.21ZM62.81,166.6a10.92,10.92,0,1,1,10.92-10.92A10.91,10.91,0,0,1,62.81,166.6Zm49.69-30H13.13v-112h99.39v112Z"/><path class="cls-2" d="M83.24,63.47l-18.44,30-21.38-12L18.13,127H107.5Z"/><path class="cls-2" d="M86.64,45.07a10.43,10.43,0,1,0,20.86,0h0a10.43,10.43,0,0,0-20.86,0Z"/></g></g></svg>