<svg xmlns="http://www.w3.org/2000/svg" viewBox="0 0 179.13 169"><defs><style>.cls-1{fill:#b2f0e0;}.cls-2{fill:#0c9;}</style></defs><title>链接资源</title><g id="图层_2" data-name="图层 2"><g id="图层_1-2" data-name="图层 1"><path class="cls-1" d="M151.17,46.24H50.23A10.93,10.93,0,0,0,39.32,57.15V158.09A10.92,10.92,0,0,0,50.23,169H151.17a10.92,10.92,0,0,0,10.91-10.91V57.15A10.91,10.91,0,0,0,151.17,46.24Zm-43.17,79-15.94,16a19.44,19.44,0,0,1-27.49-27.49l13.1-13.09a5.46,5.46,0,0,1,7.72,7.72L72.3,121.41a8.51,8.51,0,0,0,12,12l15.94-15.94a8.51,8.51,0,0,0,1-10.81,5.46,5.46,0,1,1,9-6.17,19.44,19.44,0,0,1-2.3,24.7Zm28.81-23.7-13.09,13.1a5.46,5.46,0,1,1-7.73-7.72l13.1-13.1a8.51,8.51,0,0,0-12-12l-15.94,16a8.51,8.51,0,0,0-1,10.81,5.45,5.45,0,0,1-1.42,7.58,5.38,5.38,0,0,1-3.07,1,5.47,5.47,0,0,1-4.5-2.37A19.44,19.44,0,0,1,93.4,90l15.95-15.94a19.42,19.42,0,1,1,27.46,27.46Z"/><path class="cls-1" d="M168.22,29.19H67.28A10.93,10.93,0,0,0,56.37,40.11v2.72h98.21a10.92,10.92,0,0,1,10.91,10.91V152h2.73A10.92,10.92,0,0,0,179.13,141V40.11A10.91,10.91,0,0,0,168.22,29.19Z"/><path class="cls-2" d="M111.85,17.05H10.91A10.92,10.92,0,0,0,0,28V128.89a10.93,10.93,0,0,0,10.91,10.92H111.85a10.93,10.93,0,0,0,10.91-10.92V28A10.92,10.92,0,0,0,111.85,17.05ZM68.68,96,52.73,112A19.43,19.43,0,0,1,25.25,84.5L38.34,71.4a5.47,5.47,0,0,1,7.73,7.73L33,92.22a8.51,8.51,0,0,0,12,12L61,88.32a8.51,8.51,0,0,0,1-10.81,5.46,5.46,0,1,1,9-6.17A19.46,19.46,0,0,1,68.68,96Zm28.81-23.7L84.4,85.44a5.47,5.47,0,0,1-7.73-7.73l13.1-13.09a8.51,8.51,0,0,0-12-12L61.79,68.52a8.51,8.51,0,0,0-1,10.81,5.45,5.45,0,0,1-1.41,7.59,5.37,5.37,0,0,1-3.07,1,5.45,5.45,0,0,1-4.5-2.37,19.41,19.41,0,0,1,2.3-24.68L70,44.87a19.43,19.43,0,0,1,33.16,13.75,19.26,19.26,0,0,1-5.69,13.72Z"/><path class="cls-2" d="M128.89,0H28A10.92,10.92,0,0,0,17.05,10.91v2.73h98.21a10.92,10.92,0,0,1,10.91,10.91v98.21h2.72a10.93,10.93,0,0,0,10.92-10.91V10.91A10.92,10.92,0,0,0,128.89,0Z"/></g></g></svg>