<svg xmlns="http://www.w3.org/2000/svg" viewBox="0 0 103.99 95.29"><defs><style>.cls-1{fill:#666;}</style></defs><title>云计算</title><g id="图层_2" data-name="图层 2"><g id="图层_1-2" data-name="图层 1"><path class="cls-1" d="M97.18,75.66h0v0Z"/><path class="cls-1" d="M69.33,78H34.67v8.66H17.33v8.65H86.66V86.64H69.33ZM0,0V69.33H104V0ZM95.33,60.68H8.67v-52H95.33v52Z"/><path class="cls-1" d="M66.19,27.64C64,22,57.67,17.89,50.53,17.89c-8.51,0-15.38,5.61-16.48,12.68-4.67,1.46-8.24,5.61-8.24,10.48,0,6.1,5.5,11,12.36,11H65.64C72.51,51.29,78,46.17,78,39.83S72.78,28.37,66.19,27.64ZM63.56,43.36H40.5c-3.23,0-5.77-1.92-5.77-4.36s2.54-4.35,5.77-4.35a3.85,3.85,0,0,1,1.38.17c0-.7-.23-1.22-.23-1.92,0-3.83,4.15-7,9.22-7s9.23,3.14,9.23,7v.35a8.92,8.92,0,0,1,2.31-.35c3.92,0,6.92,2.27,6.92,5.23,0,2.61-2.54,4.71-5.77,5.23Z"/></g></g></svg>