<svg xmlns="http://www.w3.org/2000/svg" viewBox="0 0 119.51 110.86"><defs><style>.cls-1{fill:#666;}</style></defs><title>云部署</title><g id="图层_2" data-name="图层 2"><g id="图层_1-2" data-name="图层 1"><path class="cls-1" d="M101.59,33.22c-.89-.15-1.18-.59-1.18-1.47C100-3,53.41-9.94,43,14.51c-1.18,1.18-1.76,2.06-3.68,1.77C27.34,14.36,16.88,18.49,15.4,32a3.08,3.08,0,0,1-2.06,2.21C3.32,38.52-1.1,50,.23,60.18c1.62,12.38,11.2,19.15,23.42,19.15h3a4.63,4.63,0,0,0,4.27-5c-.29-3.38-3.24-4.27-5.45-4.27-3.68,0,1.48.3-2.06-.15C15,69,10.25,64,9.22,58.71,7.74,51.49,13.49,45.3,19.53,41.32c1.77-1.18,4-2.94,4.12-6.63C24,26.74,29.55,22.32,40,26c3.83,1.33,8.39-1,9.57-3.68C60.63-.52,95,11.12,90.83,35.43c-1,5.89,7.66,6.92,4.28,6,9.28,2.65,17.08,6.48,14.73,18.27C108.07,67.4,99.08,69.9,91.13,69.9c-7.07,0,1.91-.14-1.62,0-1.77.15-4.57,1.18-4.42,5.45a4.42,4.42,0,0,0,4.12,3.84c8,0,1.62.14,9.14,0a21.92,21.92,0,0,0,20.92-18.71c1.91-17.24-7.81-25.2-17.68-27.26Z"/><path class="cls-1" d="M81,93.48v-42A11.61,11.61,0,0,0,68.88,39.41,11.68,11.68,0,0,0,56.8,51.49V88.76c0,2.95-2.21,5-5.6,5-2.8,0-5.89-1.62-5.89-5V51.19a8.92,8.92,0,0,0,5.75-8.25,9,9,0,1,0-12.38,8.25V88.61c0,6.49,5.3,11.2,12.67,11.2a11.1,11.1,0,0,0,8.4-3.24,10.77,10.77,0,0,0,3.09-8V51.49a5.93,5.93,0,0,1,6-5.89c2.8,0,5.6,1.76,5.6,5.89v42a9,9,0,0,0,3.09,17.38,8.93,8.93,0,0,0,9-9A9.3,9.3,0,0,0,81,93.48ZM77.57,106a4.28,4.28,0,1,1,4.28-4.27A4.28,4.28,0,0,1,77.57,106ZM42.07,47.07a4.28,4.28,0,1,1,4.27-4.27A4.37,4.37,0,0,1,42.07,47.07Z"/></g></g></svg>