<svg xmlns="http://www.w3.org/2000/svg" viewBox="0 0 106.31 95.74"><defs><style>.cls-1{fill:#666;}</style></defs><title>授权机制</title><g id="图层_2" data-name="图层 2"><g id="图层_1-2" data-name="图层 1"><path class="cls-1" d="M30.15,36a18.31,18.31,0,0,0,22.21-2.65L76.69,47.6l1.06.53h1.59a4.74,4.74,0,0,0,4.76-4.76,4.19,4.19,0,0,0-2.65-4.23l-6.34-3.7,3.17-5.82a1.85,1.85,0,0,0,.53-1.06V27.5a4.18,4.18,0,0,0-4.23-4.23c-1.59,0-2.65.53-3.17,1.59L67.7,31.21,57.65,25.39A21,21,0,0,0,55,8.46,16.42,16.42,0,0,0,40.2,0a18.72,18.72,0,0,0-18,13.75C19.57,22.74,22.74,31.21,30.15,36ZM39.67,9.52a9.52,9.52,0,0,1,0,19c-5.29,0-9.52-3.7-9.52-9S34.38,9.52,39.67,9.52ZM104.2,58.71c-5.29-7.4-10-10.05-15.34-8.46A33.71,33.71,0,0,0,83,53.42a6.56,6.56,0,0,1-1.59,1.06c-1,1.06-2.64,2.12-3.17,2.64-2.11,1.59-4.23,3.18-5.82,3.71a10.16,10.16,0,0,0-4.76-2.65c-2.11-.53-3.7-.53-7.93-.53H52.89a5.73,5.73,0,0,1-3.7-1c-1.59-1.06-7.4-3.71-8.46-4.24-4.76-3.17-8.47-4.23-15.34-4.23-9,0-17.46,3.7-24.33,11.64L0,60.83v28a6.67,6.67,0,0,0,6.88,6.88H66.64c16.93-1.06,30.15-12.17,38.62-32.27l1-2.11-2.11-2.65Zm-39.14,28H9V64c4.76-4.23,10-6.88,15.87-6.88,4.76,0,7.4.53,10.58,2.65,0,0,7.4,4.76,9.52,5.82,3.7,2.11,10.58,2.11,14.28,1.58,5.29-.53,5.82,0,6.35,1.06a4,4,0,0,1-.53,2.12C62.41,73,54.48,75.11,46,73c-7.41-1.58-12.17-4.23-14.28-6.87l-6.88,5.81.53.53q5.55,6.35,19,9.52c9,2.12,19,1.06,25.39-3.17a12.58,12.58,0,0,0,5.29-7.93,37.38,37.38,0,0,0,8.46-5.29c.53-.53,2.65-2.12,3.7-3.18l1.06-1c1.06-1.06,2.12-1.59,2.65-2.12h1c1.06.53,1.59,1.59,3.18,3.17C88.33,78.28,78.28,86.22,65.06,86.74Z"/></g></g></svg>