<svg xmlns="http://www.w3.org/2000/svg" viewBox="0 0 104.45 98.42"><defs><style>.cls-1{fill:#666;}</style></defs><title>分布式存储</title><g id="图层_2" data-name="图层 2"><g id="图层_1-2" data-name="图层 1"><path class="cls-1" d="M104.45,8.77A8.78,8.78,0,0,0,95.67,0H8.77A8.77,8.77,0,0,0,0,8.77V28.86a8.62,8.62,0,0,0,1.84,5.35A8.72,8.72,0,0,0,0,39.58V59.67a8.69,8.69,0,0,0,1.53,5A8.65,8.65,0,0,0,0,69.56V89.65a8.77,8.77,0,0,0,8.77,8.77h86.9a8.78,8.78,0,0,0,8.78-8.77V69.56a8.73,8.73,0,0,0-1.53-4.94,8.79,8.79,0,0,0,1.53-5V39.58a8.62,8.62,0,0,0-1.84-5.35,8.82,8.82,0,0,0,1.84-5.36Zm-96.8,0A1.13,1.13,0,0,1,8.77,7.65h86.9A1.14,1.14,0,0,1,96.8,8.77V28.86A1.14,1.14,0,0,1,95.67,30H8.77a1.13,1.13,0,0,1-1.12-1.12ZM96.8,59.67a1.14,1.14,0,0,1-1.13,1.12H8.77a1.13,1.13,0,0,1-1.12-1.12V39.58a1.13,1.13,0,0,1,1.12-1.12h86.9a1.14,1.14,0,0,1,1.13,1.12Zm0,30a1.15,1.15,0,0,1-1.13,1.13H8.77a1.14,1.14,0,0,1-1.12-1.13V69.56a1.13,1.13,0,0,1,1.12-1.12h86.9a1.14,1.14,0,0,1,1.13,1.12Z"/><path class="cls-1" d="M18.43,22.65H33A3.83,3.83,0,0,0,33,15H18.43a3.83,3.83,0,1,0,0,7.65ZM33,45.79H18.42a3.83,3.83,0,1,0,0,7.65H33a3.83,3.83,0,0,0,0-7.65Zm0,30H18.42a3.83,3.83,0,1,0,0,7.65H33a3.83,3.83,0,0,0,0-7.65Z"/></g></g></svg>