<svg xmlns="http://www.w3.org/2000/svg" viewBox="0 0 121.71 80.32"><defs><style>.cls-1{fill:#666;}</style></defs><title>云加密</title><g id="图层_2" data-name="图层 2"><g id="图层_1-2" data-name="图层 1"><path class="cls-1" d="M73.61,30V63.26l11.81,6,6-3.65-11.07-5.1V34.11l12.24-5.54L115,39.21V32.36L92.56,21.57,73.61,30Z"/><path class="cls-1" d="M84.25,44.6V37.17l8.31-3.64,29.15,13.7V70L102.47,80.32l-3.93-4.38,16.76-10.2V50.87L92.56,40.38Z"/><path class="cls-1" d="M69.24,42.71,62.82,46.5V69.82l22,10.5,25.8-15.6V52.48l-5.84-2.34v12l-20,11.51-15.6-8V42.71Z"/><path class="cls-1" d="M57.72,80.32H19.1a23.56,23.56,0,0,1,3.06-46.65A34.27,34.27,0,0,1,56.41,0C71.28,0,81.63,5.25,88.33,17.93l-7.58,3.35c-5-10.06-12.82-13.7-24.34-13.7A26.68,26.68,0,0,0,29.74,34.25a20.33,20.33,0,0,0,.14,2.92l.58,4.66-4.66-.58c-.58,0-1.31-.14-1.89-.14a16,16,0,0,0-.73,32.06H57.87v7.15Z"/><path class="cls-1" d="M57.72,80.32H19.1a23.56,23.56,0,0,1,3.06-46.65c7.58.58,8.16,8.16,8.16,8.16l-4.67-.58c-.58,0-1.31-.14-1.89-.14A16,16,0,0,0,23,73.17H57.72v7.15Z"/></g></g></svg>