<svg xmlns="http://www.w3.org/2000/svg" viewBox="0 0 110.66 92.81"><defs><style>.cls-1{fill:#666;}</style></defs><title>优化</title><g id="图层_2" data-name="图层 2"><g id="图层_1-2" data-name="图层 1"><path class="cls-1" d="M63.31,86H54.65V74.2H65.48a31.32,31.32,0,0,1-.82-7H13.53a6.12,6.12,0,0,1-6.22-6V13.33a6.12,6.12,0,0,1,6.22-6H92a6.12,6.12,0,0,1,6.22,6V34.71a33.66,33.66,0,0,1,7.31.76V13.08A13.2,13.2,0,0,0,92,0H13.53C6.22,0,0,5.79,0,13.08V60.87C0,68.16,6.22,74,13.53,74H46.81V85.77H38.15a3.53,3.53,0,1,0,0,7H63a3.57,3.57,0,0,0,3.79-3.52C66.83,87.28,65.48,86,63.31,86Z"/><path class="cls-1" d="M86.85,72.69c-8.39,0-15.42-6.54-15.42-14.34S78.46,44,86.85,44V37c-12.72,0-23,9.56-23,21.38s10.28,21.38,23,21.38,23-9.55,23-21.38h-7.58C102.27,66.4,95.51,72.69,86.85,72.69Z"/><path class="cls-1" d="M94.43,35.72H92V53.07h18.67V50.81c0-8.55-7.3-15.09-16.23-15.09Zm2.7,12.57V40.75a10.84,10.84,0,0,1,8.12,7.54ZM75.49,23.39,46,46.28,32.74,34.21a3.61,3.61,0,0,0-4.87,0,3,3,0,0,0,0,4.53L43.29,52.82a4.19,4.19,0,0,0,2.44,1,3.17,3.17,0,0,0,2.16-.76L79.82,28.42a3,3,0,0,0,.54-4.27A3.22,3.22,0,0,0,75.49,23.39Z"/></g></g></svg>