<svg xmlns="http://www.w3.org/2000/svg" viewBox="0 0 96.1 114.35"><defs><style>.cls-1{fill:#666;}</style></defs><title>安全加速</title><g id="图层_2" data-name="图层 2"><g id="图层_1-2" data-name="图层 1"><path class="cls-1" d="M48,9a2,2,0,0,1,.65.1L85.54,20.23a2.23,2.23,0,0,1,1.59,2.13V70a24.67,24.67,0,0,1-13.4,21.92L48,105.11,22.36,91.94A24.68,24.68,0,0,1,9,70V22.36a2.21,2.21,0,0,1,1.59-2.13L47.4,9.06A2,2,0,0,1,48,9m0-9A11.2,11.2,0,0,0,44.8.48L8,11.65A11.19,11.19,0,0,0,0,22.36V70A33.61,33.61,0,0,0,18.27,99.91L45,113.61a6.72,6.72,0,0,0,6.13,0L77.83,99.92A33.6,33.6,0,0,0,96.1,70V22.36a11.19,11.19,0,0,0-7.95-10.71L51.3.48A11.29,11.29,0,0,0,48,0Z"/><path class="cls-1" d="M43.85,78a4.47,4.47,0,0,1-3.16-1.31L26.91,62.92a4.48,4.48,0,1,1,6.34-6.34l10.6,10.6L69.58,41.46a4.48,4.48,0,1,1,6.34,6.34L47,76.69A4.49,4.49,0,0,1,43.85,78ZM89.4,37.86a4.6,4.6,0,0,1-1.3-.19L50.17,26.17a7.12,7.12,0,0,0-4.09,0L8.15,37.66a4.48,4.48,0,0,1-2.6-8.58L43.49,17.59a16.11,16.11,0,0,1,9.28,0L90.7,29.08a4.49,4.49,0,0,1-1.3,8.78Z"/></g></g></svg>