<svg xmlns="http://www.w3.org/2000/svg" viewBox="0 0 182.97 182.85"><defs><style>.cls-1{fill:#333;}.cls-2{fill:#0c9;}</style></defs><title>数据主动权</title><g id="图层_2" data-name="图层 2"><g id="图层_1-2" data-name="图层 1"><path class="cls-1" d="M158.72,79c1.38-14.18,1.38-28.13,1.38-40.25a4.59,4.59,0,0,0-4.58-4.58c-46.43,0-71.58-32.25-71.81-32.47a4.76,4.76,0,0,0-7.32,0c-.23.22-25.16,32.47-71.82,32.47A4.59,4.59,0,0,0,0,38.77C0,84.74,0,154,78.45,182.62a5.68,5.68,0,0,0,3.2,0,118,118,0,0,0,16.24-7.09A57.11,57.11,0,0,0,158.72,79ZM80.05,173.48C11.44,147.63,9.15,88.4,9.15,43.34a102.86,102.86,0,0,0,70.9-32A103.9,103.9,0,0,0,151,43.11c0,9.61-.23,19.9-.92,30.65A57.23,57.23,0,0,0,89.2,169.59C86.22,171,83.25,172.33,80.05,173.48Zm45.74.23a48,48,0,1,1,48-48A48,48,0,0,1,125.79,173.71Z"/><path class="cls-2" d="M151,120.87a4.59,4.59,0,0,0-4.58,4.58,20.58,20.58,0,1,1-41.16,0,4.58,4.58,0,1,0-9.15,0,29.73,29.73,0,0,0,59.46,0,4.59,4.59,0,0,0-4.57-4.58Z"/><path class="cls-2" d="M116.41,116.07l4.81-4.8v22.18a4.57,4.57,0,1,0,9.14,0V111.27l4.81,4.8a4.42,4.42,0,0,0,6.4,0,4.42,4.42,0,0,0,0-6.4L129,97.09l-.68-.69-.23-.23c-.23,0-.23-.23-.46-.23s-.23,0-.46-.23c-.23,0-.23,0-.45-.22a2.51,2.51,0,0,0-1.83,0c-.23,0-.23,0-.46.22-.23,0-.23,0-.46.23-.23,0-.23.23-.46.23a.23.23,0,0,0-.23.23l-.68.69L110,109.67a4.53,4.53,0,0,0,6.4,6.4Z"/></g></g></svg>