<svg xmlns="http://www.w3.org/2000/svg" viewBox="0 0 151.73 151.53"><defs><style>.cls-1{fill:#333;}.cls-2{fill:#0c9;}</style></defs><title>展示推广</title><g id="图层_2" data-name="图层 2"><g id="图层_1-2" data-name="图层 1"><path class="cls-1" d="M140.26,0H11.47A11.48,11.48,0,0,0,0,11.47v96.39a11.48,11.48,0,0,0,11.47,11.47H140.28a11.46,11.46,0,0,0,11.45-11.49V11.47A11.48,11.48,0,0,0,140.26,0Zm.63,107.84a.63.63,0,0,1-.63.63H11.47a.63.63,0,0,1-.63-.63V11.47a.63.63,0,0,1,.63-.63H140.26a.63.63,0,0,1,.63.63Zm-16.26,32.81-97.41,0a5.42,5.42,0,0,0,0,10.83l97.41-.05a5.42,5.42,0,0,0,0-10.83Z"/><path class="cls-2" d="M111,42,80.27,72.73,61.4,53.86a5.43,5.43,0,0,0-7.66,0L30.3,77.3A5.43,5.43,0,0,0,38,85l19.6-19.6L76.44,84.25a5.41,5.41,0,0,0,7.66,0l34.6-34.6A5.43,5.43,0,1,0,111,42Z"/></g></g></svg>