<svg xmlns="http://www.w3.org/2000/svg" viewBox="0 0 169.58 165.96"><defs><style>.cls-1{fill:#333;}.cls-2{fill:#0c9;}</style></defs><title>定制服务</title><g id="图层_2" data-name="图层 2"><g id="图层_1-2" data-name="图层 1"><path class="cls-1" d="M136.44,138.67a5.36,5.36,0,0,1-3.84-1.6L96.78,101.26a5.44,5.44,0,0,1,7.68-7.57l35.81,35.82a5.44,5.44,0,0,1-3.83,9.27Zm-83.57-84A5.44,5.44,0,0,1,49,53.08L29.21,33.68a5.43,5.43,0,1,1,7.22-8.12,4.78,4.78,0,0,1,.45.45l19.83,19.4a5.44,5.44,0,0,1-3.84,9.27Zm45.94,0A5.44,5.44,0,0,1,95,45.41L114.69,25.9a5.44,5.44,0,0,1,8.13,7.22c-.14.16-.3.31-.45.46l-19.72,19.5a5.44,5.44,0,0,1-3.84,1.6ZM33.15,120.34a5.44,5.44,0,0,1-3.84-9.27L49,91.56a5.44,5.44,0,0,1,8.13,7.22c-.14.16-.29.31-.45.46L37,118.74A5.44,5.44,0,0,1,33.15,120.34Z"/><path class="cls-1" d="M24.94,3.63A17.17,17.17,0,0,0,24.09,38h.32a17.16,17.16,0,0,0,.53-34.32Zm-.85,23.55a6.29,6.29,0,1,1,6.29-6.29A6.29,6.29,0,0,1,24.09,27.18Z"/><path class="cls-1" d="M131.11,0a17.16,17.16,0,1,0,17.16,17.27v-.11A17.16,17.16,0,0,0,131.11,0Zm.76,22.69a6.29,6.29,0,0,1-7.05-5.42,6.24,6.24,0,1,1,12.47,0A6.3,6.3,0,0,1,131.87,22.69Z"/><path class="cls-1" d="M21.32,105.74a21.32,21.32,0,1,0,21.32,21.32A21.31,21.31,0,0,0,21.32,105.74Zm0,32A10.66,10.66,0,1,1,32,127.06,10.65,10.65,0,0,1,21.32,137.71Z"/><path class="cls-1" d="M148.27,123.32a21.32,21.32,0,1,0,21.31,21.32A21.32,21.32,0,0,0,148.27,123.32Zm0,32a10.66,10.66,0,1,1,10.66-10.66A10.66,10.66,0,0,1,148.27,155.3Z"/><path class="cls-2" d="M75.79,35.92a36.56,36.56,0,0,0,0,73.12h.1a36.56,36.56,0,0,0-.1-73.12Zm0,62.36a25.69,25.69,0,1,1,25.68-25.91v.22A25.69,25.69,0,0,1,75.79,98.28Z"/></g></g></svg>