<svg xmlns="http://www.w3.org/2000/svg" viewBox="0 0 172.14 168.28"><defs><style>.cls-1{fill:#333;}.cls-2{fill:#0c9;}</style></defs><title>鉴权机制</title><g id="图层_2" data-name="图层 2"><g id="图层_1-2" data-name="图层 1"><path class="cls-1" d="M55.06,110.15l21.11-38.4-8.88-4.88-21.1,38.4Zm62.85,0L96.82,71.75l8.87-4.88,21.1,38.4Zm-52.09,25h41.3V125H65.82Z"/><path class="cls-1" d="M113.91,13.72h0L93.66,2A15.21,15.21,0,0,0,78.47,2L58.22,13.73a15.19,15.19,0,0,0-7.59,13.15V50.27a15.17,15.17,0,0,0,7.59,13.15l20.25,11.7a15.21,15.21,0,0,0,15.19,0l20.25-11.7a15.18,15.18,0,0,0,7.6-13.15V26.88A15.17,15.17,0,0,0,113.91,13.72Zm-2.53,36.54a5,5,0,0,1-2.53,4.38L88.6,66.34a5.08,5.08,0,0,1-5.06,0L63.29,54.65a5.08,5.08,0,0,1-2.54-4.39V26.88a5.08,5.08,0,0,1,2.54-4.39L83.54,10.8a5,5,0,0,1,5.06,0l20.25,11.69a5.06,5.06,0,0,1,2.53,4.38Z"/><path class="cls-2" d="M63.29,104.86,43,93.16a15.19,15.19,0,0,0-15.18,0L7.59,104.86A15.19,15.19,0,0,0,0,118V141.4a15.2,15.2,0,0,0,7.59,13.15l20.26,11.69a15.14,15.14,0,0,0,15.18,0l20.26-11.69a15.18,15.18,0,0,0,7.59-13.15V118A15.17,15.17,0,0,0,63.29,104.86ZM60.75,141.4a5.06,5.06,0,0,1-2.53,4.38L38,157.47a5.08,5.08,0,0,1-5.06,0L12.66,145.78a5.05,5.05,0,0,1-2.53-4.38V118a5,5,0,0,1,2.53-4.38l20.25-11.7a5.08,5.08,0,0,1,5.06,0l20.25,11.7A5,5,0,0,1,60.75,118Z"/><path class="cls-1" d="M164.54,104.85h0L144.29,93.17a15.16,15.16,0,0,0-15.19,0l-20.25,11.69A15.18,15.18,0,0,0,101.26,118V141.4a15.17,15.17,0,0,0,7.59,13.15l20.25,11.7a15.21,15.21,0,0,0,15.19,0l20.25-11.7a15.18,15.18,0,0,0,7.6-13.15V118A15.2,15.2,0,0,0,164.54,104.85ZM162,141.4a5.06,5.06,0,0,1-2.53,4.38l-20.25,11.69a5.08,5.08,0,0,1-5.06,0l-20.26-11.69a5.07,5.07,0,0,1-2.53-4.38V118a5.06,5.06,0,0,1,2.53-4.38l20.26-11.7a5.08,5.08,0,0,1,5.06,0l20.25,11.7A5,5,0,0,1,162,118Z"/></g></g></svg>