<svg xmlns="http://www.w3.org/2000/svg" viewBox="0 0 166.67 149.17"><defs><style>.cls-1{fill:#333;}.cls-2{fill:#0c9;}</style></defs><title>社交整合</title><g id="图层_2" data-name="图层 2"><g id="图层_1-2" data-name="图层 1"><path class="cls-1" d="M153.12,106.87H13.54A13.42,13.42,0,0,1,.21,93.54V19a19,19,0,0,1,19-19H147.29a19,19,0,0,1,19,19V93.54A13,13,0,0,1,153.12,106.87ZM19.17,9.58A9.25,9.25,0,0,0,10,18.75V93.33a3.52,3.52,0,0,0,3.54,3.55H153.13a3.52,3.52,0,0,0,3.54-3.55V19a9.25,9.25,0,0,0-9.17-9.17H19.17Z"/><path class="cls-2" d="M83.75,55.42A19.38,19.38,0,1,1,103.13,36,19.22,19.22,0,0,1,83.75,55.42Zm0-30.63A11.25,11.25,0,1,0,95,36,11.2,11.2,0,0,0,83.75,24.79Z"/><path class="cls-2" d="M113.33,82.71A3.74,3.74,0,0,1,109.58,79c0-13.13-13.75-22.92-26-22.92C71.46,56,57.29,66,57.29,79a3.75,3.75,0,0,1-7.5,0c0-17.5,17.92-30.63,34-30.63,17.92,0,33.54,14.17,33.54,30.63A4.06,4.06,0,0,1,113.33,82.71Zm49.38,25.41H4a4,4,0,0,1-4-4V88.75c0-.21.21-.42.62-.63H.83l9.38.63a.21.21,0,0,1,.21.21c0,.21.2.21.2.41l145.21,1c.21,0,.42,0,.42-.21.21-.21.42-.42.63-.42l9-1.25a.77.77,0,0,1,.84.83v15a3.92,3.92,0,0,1-4,3.75Z"/><path class="cls-1" d="M90.62,135H76V110a1.87,1.87,0,0,1,1.88-1.88H88.75A1.87,1.87,0,0,1,90.62,110Z"/><path class="cls-1" d="M132.5,149.17H34.17a7.09,7.09,0,1,1,0-14.17h98.12a7,7,0,0,1,7.09,7.08A6.86,6.86,0,0,1,132.5,149.17Z"/></g></g></svg>