<svg xmlns="http://www.w3.org/2000/svg" viewBox="0 0 199.95 182.97"><defs><style>.cls-1{fill:#0c9;}.cls-2{fill:#abff99;}</style></defs><title>明星见面会</title><g id="图层_2" data-name="图层 2"><g id="图层_1-2" data-name="图层 1"><path class="cls-1" d="M129.08,0C106.63,0,88.43,17.91,88.43,40s18.2,40,40.65,40,40.64-17.9,40.64-40S151.53,0,129.08,0Zm0,66.93c-15.22,0-27.59-12.08-27.59-26.94s12.37-26.94,27.59-26.94S156.67,25.14,156.67,40,144.3,66.93,129.08,66.93Z"/><path class="cls-2" d="M77.5,40a38.3,38.3,0,0,1,4.3-17.68A34.38,34.38,0,0,0,59.41,14.1c-18.59,0-33.65,14.41-33.65,32.21S40.82,78.52,59.41,78.52A34,34,0,0,0,86.76,65.05,38.49,38.49,0,0,1,77.5,40Z"/><path class="cls-2" d="M43.69,147.59V152c0-27,18.93-50.07,45.35-59a61.06,61.06,0,0,0-25.3-5.46H56.3C25.34,87.5,0,110.27,0,138.33v-3.55c0,14.69-1.18,26.7,15,26.7H43.82C43.59,157.25,43.69,152.55,43.69,147.59Z"/><path class="cls-1" d="M132.94,104.21a56.48,56.48,0,0,1,21,4,54.3,54.3,0,0,1,17.1,10.88,48.06,48.06,0,0,1,15.51,35.12h0c0,1.33.08,2.61.1,3.88.11,3.4.21,6.58.08,9.12a23.94,23.94,0,0,1-.28,2.55,15.45,15.45,0,0,1-2.28.13h-109a11.77,11.77,0,0,1-3.57-.41,14.18,14.18,0,0,1-.89-4.08,105.86,105.86,0,0,1-.32-11.17h0A48,48,0,0,1,86,119.14a53.27,53.27,0,0,1,17.1-10.88,56.2,56.2,0,0,1,21-4h8.79m0-13.08h-8.82c-36.68,0-66.7,28.27-66.7,63.07v-4.42C57.42,168,56,183,75.23,183h109c19.22,0,15.38-14.91,15.38-33.16v4.42c0-34.83-30-63.07-66.7-63.07Z"/></g></g></svg>