<svg xmlns="http://www.w3.org/2000/svg" viewBox="0 0 192.23 193.76"><defs><style>.cls-1{fill:#0c9;}.cls-2{fill:#abff99;}</style></defs><title>年会庆典</title><g id="图层_2" data-name="图层 2"><g id="图层_1-2" data-name="图层 1"><path class="cls-1" d="M96.26,78.18C64.93,125,68,193.43,86.67,193.75,106,194.23,83.79,115,96.26,78.18Z"/><path class="cls-1" d="M89.86,73.07c-45.39,14.86-78.32,62.18-65.69,72.25C37.11,155.71,62.37,91,89.86,73.07Z"/><path class="cls-2" d="M91.14,69.23C51.82,51.65-1.41,60.44,0,73.87,1.47,87.61,61.41,64,91.14,69.23Z"/><path class="cls-2" d="M96.26,64.91C78.36,31,36.31,4.81,30.08,13.76,23.69,23,78.36,44.13,96.26,64.91Z"/><path class="cls-2" d="M99.94,64.91C119,39.66,120.08,1,109.85,0,99.3-.94,108.41,44.61,99.94,64.91Z"/><path class="cls-2" d="M103.29,67.31c28.94.64,59-18.86,54.35-27C152.85,32,123,62.68,103.29,67.31Z"/><path class="cls-2" d="M106,73.87c32,23.81,83.92,32.13,86.16,21.9C194.41,85.22,132.39,86,106,73.87Z"/><path class="cls-1" d="M101.53,79.3c5.92,43.16,42.2,83.44,52.91,75C165.47,145.64,113,107.59,101.53,79.3Z"/><path class="cls-2" d="M177.46,118.46l3.2,6.56,7.19,1-5.11,5.11,1.12,7.2-6.4-3.36-6.39,3.36,1.28-7.2L167.07,126l7.2-1Z"/><path class="cls-1" d="M97.7,61.88l3.19,6.55,7.2,1.12-5.12,5,1.12,7.19L97.7,78.34,91.3,81.7l1.28-7.19-5.27-5,7.19-1.12ZM41.59,152.51l2.88,6.08,6.87,1-5,4.79,1.11,6.72-5.91-3.2-6.07,3.2,1.11-6.72-5-4.79,6.87-1ZM24,31.67h-6.4v-6.4a.8.8,0,0,0-1.6,0v6.4H9.62a.8.8,0,1,0,0,1.59H16v6.4a.8.8,0,0,0,1.6,0v-6.4H24a.8.8,0,1,0,0-1.59Z"/></g></g></svg>