<svg xmlns="http://www.w3.org/2000/svg" viewBox="0 0 188.1 188.1"><defs><style>.cls-1{fill:#0c9;}.cls-2{fill:#abff99;}</style></defs><title>活动沙龙</title><g id="图层_2" data-name="图层 2"><g id="图层_1-2" data-name="图层 1"><path class="cls-1" d="M169,150.91a94,94,0,1,0-21.44,20.51l-.09,0a6.77,6.77,0,1,0-9.36-9.7v0a80.73,80.73,0,1,1,20.44-19,6.77,6.77,0,1,0,9,10.09h0l.06-.06a6.86,6.86,0,0,0,1.38-1.78Z"/><path class="cls-1" d="M109.28,151.87H78.82V141h30.46Z"/><path class="cls-2" d="M118,114.78v0a21.55,21.55,0,0,0-8.7,17.41v4.43h-13V88.37a8.7,8.7,0,1,0-4.36,0v48.27H78.82v-4.43a22.55,22.55,0,0,0-8.21-17l-.65-.52a43.3,43.3,0,0,1-17.25-34.6c0-24,17.31-43.47,41.34-43.47s41.34,19.47,41.34,43.47A43.29,43.29,0,0,1,118,114.78Z"/></g></g></svg>