<svg xmlns="http://www.w3.org/2000/svg" viewBox="0 0 168.09 173.66"><defs><style>.cls-1{fill:#0c9;}.cls-2{fill:#abff99;}</style></defs><title>发布会直播</title><g id="图层_2" data-name="图层 2"><g id="图层_1-2" data-name="图层 1"><path class="cls-1" d="M13.09,13.16H145.82V96.42H159V10.2A10.2,10.2,0,0,0,148.79,0H10.2A10.2,10.2,0,0,0,0,10.2V163.33A10.2,10.2,0,0,0,10.13,173.6H76.38V160.43H13.09Z"/><path class="cls-2" d="M166.36,123.33,81.52,91.14a3.11,3.11,0,0,0-4,1.87,3.06,3.06,0,0,0-.07,1.89L100,171.43a3.12,3.12,0,0,0,3.87,2.1,3.19,3.19,0,0,0,.91-.44l17.65-12.44,8.17,7.23a3.1,3.1,0,0,0,4.39-.19,3.07,3.07,0,0,0,.82-1.91l1-17.07a3,3,0,0,0-.94-2.38l-39.93-39,47.81,34.36a3.12,3.12,0,0,0,3.55,0L167,128.46a3.12,3.12,0,0,0,.32-4.39,3.06,3.06,0,0,0-1-.74Z"/><rect class="cls-1" x="32.12" y="32.33" width="93.31" height="13.09"/><rect class="cls-1" x="32.12" y="65.1" width="44.48" height="13.09"/></g></g></svg>