<svg xmlns="http://www.w3.org/2000/svg" viewBox="0 0 170.24 162.93"><defs><style>.cls-1{fill:#0c9;}.cls-2{fill:#abff99;}</style></defs><title>语言学习</title><g id="图层_2" data-name="图层 2"><g id="图层_1-2" data-name="图层 1"><path class="cls-1" d="M36.28,56.66A38.5,38.5,0,0,0,46.08,72a40.09,40.09,0,0,0,8.67-15.38Z"/><path class="cls-1" d="M156.8,22.1H84.59L80.47,0h-67A13.43,13.43,0,0,0,0,13.42v114a13.43,13.43,0,0,0,13.42,13.41H74.55l-4.91,22.1h87.18a13.45,13.45,0,0,0,13.42-13.42v-114A13.45,13.45,0,0,0,156.8,22.1Zm-91,67.73A68.16,68.16,0,0,1,46.08,78.92,50.91,50.91,0,0,1,25.7,89.67L23,85.11C30.77,83,37.3,80,42.46,75.57a44.06,44.06,0,0,1-11.1-18.83H23.88V51.58H43.39a34.59,34.59,0,0,0-4.56-6.44L44,43.26a42.32,42.32,0,0,1,4.91,8.26H67.55v5.15H60.08a49.86,49.86,0,0,1-10.4,18.58A67.68,67.68,0,0,0,68.59,85.39Zm92.86,52.94h-.09a5.94,5.94,0,0,1-5.93,5.93H87.92l3-13.6,25.42-.43L95.59,64.4l-.08.38L95,62l.15.07L87.85,36.75l64.85-.54a5.94,5.94,0,0,1,5.93,5.93Z"/><polygon class="cls-2" points="114.49 85.63 128.19 85.63 128.19 82 114.49 82 114.49 74.74 129.08 74.74 129.08 71.1 110.22 71.1 110.22 97.22 129.65 97.22 129.65 93.59 114.49 93.59 114.49 85.63"/><path class="cls-2" d="M143.09,77.79a6.25,6.25,0,0,0-3.11.71,7.45,7.45,0,0,0-2.49,2V78.31h-4.14V97.23h4.14V85.83a5.1,5.1,0,0,1,1.53-3.5,3.89,3.89,0,0,1,2.67-1.09c2.87,0,4.27,1.54,4.27,4.65V97.17h4.14V85.5C150.23,80.34,147.8,77.79,143.09,77.79Z"/></g></g></svg>