<svg xmlns="http://www.w3.org/2000/svg" viewBox="0 0 158.09 198.12"><defs><style>.cls-1{fill:#0c9;}.cls-2{fill:#abff99;}</style></defs><title>展会直播</title><g id="图层_2" data-name="图层 2"><g id="图层_1-2" data-name="图层 1"><path class="cls-1" d="M21.14,134.08a9.82,9.82,0,0,1-9.81-9.82V81.75a9.82,9.82,0,0,1,9.81-9.81H63.79a9.82,9.82,0,0,1,9.81,9.81v8.78l4.25-2.21q2.58-1.33,5.27-2.43l1.81-.74v-3.4A21.16,21.16,0,0,0,63.79,60.61H21.14A21.17,21.17,0,0,0,0,81.75v42.51a21.3,21.3,0,0,0,16.11,20.52v51.58H27.44l-.06-62.28ZM42.47,50.92A25.46,25.46,0,1,0,17,25.46,25.49,25.49,0,0,0,42.47,50.92Zm0-39.59A14.13,14.13,0,1,1,28.34,25.46,14.14,14.14,0,0,1,42.47,11.33Z"/><path class="cls-2" d="M104.93,91.79A53.17,53.17,0,1,0,158.09,145,53.22,53.22,0,0,0,104.93,91.79ZM90.1,105.87A84,84,0,0,0,81,139.32H63.5A42.06,42.06,0,0,1,90.1,105.87ZM63.51,150.65H81.16A92.21,92.21,0,0,0,91,184.41,41.93,41.93,0,0,1,63.51,150.65Zm82.85-11.33H128.13a84.27,84.27,0,0,0-9.3-33.83A41.94,41.94,0,0,1,146.36,139.32ZM118,184.68a92.71,92.71,0,0,0,10-34h18.38A41.78,41.78,0,0,1,118,184.68Z"/></g></g></svg>