<svg xmlns="http://www.w3.org/2000/svg" xmlns:xlink="http://www.w3.org/1999/xlink" viewBox="0 0 124.06 124.06"><defs><style>.cls-1{fill:url(#未命名的渐变_16);}.cls-2{fill:url(#未命名的渐变_16-2);}</style><linearGradient id="未命名的渐变_16" y1="62.03" x2="124.06" y2="62.03" gradientUnits="userSpaceOnUse"><stop offset="0.01" stop-color="#c0ffe5"/><stop offset="1" stop-color="#0c9"/></linearGradient><linearGradient id="未命名的渐变_16-2" x1="99.25" y1="79.4" x2="107.52" y2="79.4" xlink:href="#未命名的渐变_16"/></defs><title>现场搭建</title><g id="图层_2" data-name="图层 2"><g id="图层_1-2" data-name="图层 1"><path class="cls-1" d="M115.79,33.08H74.44V8.27c0-5-3.31-8.27-8.27-8.27H8.27C3.31,0,0,3.31,0,8.27V115.79a7.52,7.52,0,0,0,2.48,5.79,7.5,7.5,0,0,0,5.79,2.48H115.79c5,0,8.27-3.3,8.27-8.27V41.35C124.06,36.39,120.76,33.08,115.79,33.08ZM8.27,41.35H33.08V62H8.27Zm0,28.95H33.08V88.5H8.27Zm57.9,45.49H8.27V97.6H33.08v18.19h8.27V97.6H66.17Zm0-27.29H41.35V70.3H66.17Zm0-26.47H41.35V41.35H66.17Zm0-28.95H41.35V8.27H33.08V33.08H8.27V8.27h57.9Zm49.62,82.71H74.44V97.6H91V89.33H74.44v-19H91V62H74.44V41.35h41.35Z"/><path class="cls-2" d="M99.25,62h8.27V70.3H99.25Zm0,26.47h8.27v8.27H99.25Z"/></g></g></svg>