<svg xmlns="http://www.w3.org/2000/svg" xmlns:xlink="http://www.w3.org/1999/xlink" viewBox="0 0 143.64 125.69"><defs><style>.cls-1{fill:url(#未命名的渐变_13);}.cls-2{fill:url(#未命名的渐变_13-2);}.cls-3{fill:url(#未命名的渐变_13-3);}.cls-4{fill:url(#未命名的渐变_13-4);}.cls-5{fill:url(#未命名的渐变_13-5);}.cls-6{fill:url(#未命名的渐变_13-6);}</style><linearGradient id="未命名的渐变_13" y1="53.87" x2="143.64" y2="53.87" gradientUnits="userSpaceOnUse"><stop offset="0.01" stop-color="#d4ffed"/><stop offset="1" stop-color="#0c9"/></linearGradient><linearGradient id="未命名的渐变_13-2" x1="27.13" y1="121.3" x2="116.91" y2="121.3" xlink:href="#未命名的渐变_13"/><linearGradient id="未命名的渐变_13-3" x1="93.17" y1="33.02" x2="123.89" y2="33.02" xlink:href="#未命名的渐变_13"/><linearGradient id="未命名的渐变_13-4" x1="99.55" y1="63.04" x2="119.1" y2="63.04" xlink:href="#未命名的渐变_13"/><linearGradient id="未命名的渐变_13-5" x1="21.15" y1="63.04" x2="82.59" y2="63.04" xlink:href="#未命名的渐变_13"/><linearGradient id="未命名的渐变_13-6" x1="21.55" y1="33.52" x2="82.99" y2="33.52" xlink:href="#未命名的渐变_13"/></defs><title>多维互动</title><g id="图层_2" data-name="图层 2"><g id="图层_1-2" data-name="图层 1"><path class="cls-1" d="M130.08,0H13.57A13.71,13.71,0,0,0,0,13.57v80.6a13.45,13.45,0,0,0,13.57,13.56H130.08a13.45,13.45,0,0,0,13.56-13.56V13.57A13.7,13.7,0,0,0,130.08,0ZM78.2,95.76,68.63,101c-2,1.2-3.59.4-3.59-1.6V88.58c0-2,1.59-2.79,3.59-1.6l9.57,5.19C80.2,93,80.2,94.56,78.2,95.76ZM130.47,99H91.37V97a19.55,19.55,0,0,0-39.1,0v2H13.57a4.42,4.42,0,0,1-4.39-4.39v-81a4.42,4.42,0,0,1,4.39-4.39H130.08a4.42,4.42,0,0,1,4.38,4.39v81h.4A4.42,4.42,0,0,1,130.47,99Z"/><rect class="cls-2" x="27.13" y="116.91" width="89.78" height="8.78"/><path class="cls-3" d="M119.7,22.74l-16,16-7.18-7.18a2,2,0,1,0-2.79,2.79l8.77,8.78a2.08,2.08,0,0,0,1.6.8,2.2,2.2,0,0,0,2-.8l17.15-17.15a2.43,2.43,0,0,0,0-3.2A3,3,0,0,0,119.7,22.74Z"/><path class="cls-4" d="M112.12,62.64l6-6a1.94,1.94,0,0,0,0-2.79,2.42,2.42,0,0,0-3.2,0l-6,6-6-6a1.92,1.92,0,0,0-2.79,0c-.8.79-.8,2,0,3.19l6,6-6,6c-.8.8-.8,2,0,3.19a2.41,2.41,0,0,0,3.19,0l6-6,6,6A2.26,2.26,0,0,0,118.5,69Z"/><rect class="cls-5" x="21.15" y="57.86" width="61.45" height="10.37" rx="2"/><rect class="cls-6" x="21.55" y="28.33" width="61.45" height="10.37" rx="2"/></g></g></svg>