<svg xmlns="http://www.w3.org/2000/svg" viewBox="0 0 152.75 152.75"><defs><style>.cls-1{fill:#0c9;}.cls-2{fill:#abff99;}</style></defs><title>产品促销</title><g id="图层_2" data-name="图层 2"><g id="图层_1-2" data-name="图层 1"><path class="cls-1" d="M0,8.39v136a8.39,8.39,0,0,0,8.39,8.39h136a8.39,8.39,0,0,0,8.39-8.39V8.39A8.39,8.39,0,0,0,144.36,0H8.39A8.39,8.39,0,0,0,0,8.39ZM138.06,141.84H14.69a4.21,4.21,0,0,1-4.2-4.2V14.27a4.21,4.21,0,0,1,4.2-4.2H138.06a4.21,4.21,0,0,1,4.2,4.2V137.64A4.21,4.21,0,0,1,138.06,141.84Z"/><path class="cls-2" d="M42.76,61.88A155.48,155.48,0,0,1,34.16,75a51.25,51.25,0,0,0-7.39-5.33q4.92-4.91,12.09-17.42A101.22,101.22,0,0,0,49.31,27.05a88.3,88.3,0,0,0,9.84,4.51q-3.69,3.27-9,18v54.91c0,6.57.12,12.15.42,16.81H41.94a156.07,156.07,0,0,0,.82-16.39ZM115.3,51.62c0,7.11.12,12.29.42,15.56H95.64V82.35h13.11c2.18,0,5.33-.12,9.42-.42v8.21c-4.09-.27-7.24-.42-9.42-.42H95.64v20.9a111.52,111.52,0,0,0,27,.81,37.69,37.69,0,0,0-2.87,9.43q-16.82.4-29.92-3.49a30.5,30.5,0,0,1-19.26-15.78,82.79,82.79,0,0,1-10.24,20.08A24.63,24.63,0,0,0,53,116,41.26,41.26,0,0,0,63.24,99.56q3.67-10.23,4.09-25.41a64.48,64.48,0,0,0,9,2.45,41,41,0,0,0-2.87,12.7,17,17,0,0,0,4.09,12.08,18.15,18.15,0,0,0,10.66,6.76V67.21H67.73c.27-3.28.42-8.61.42-16,0-7.64-.15-13.39-.42-17.21h47.94q-.37,7-.37,17.61Zm-8.21,8.2V40.56H76V59.82Z"/></g></g></svg>