<svg xmlns="http://www.w3.org/2000/svg" viewBox="0 0 161.8 161.81"><defs><style>.cls-1{fill:#abff99;}.cls-2{fill:#0c9;}</style></defs><title>直播带货</title><g id="图层_2" data-name="图层 2"><g id="图层_1-2" data-name="图层 1"><path class="cls-1" d="M125.28,112.8l-20.89,12.06a4.65,4.65,0,0,1-7-4V96.72a4.65,4.65,0,0,1,7-4l20.89,12.06A4.65,4.65,0,0,1,125.28,112.8Z"/><path class="cls-2" d="M156.55,38.3,142.73,11.69C139.31,5.14,130.85,0,123.46,0h-85C31.07,0,22.58,5.11,19.13,11.61L5.31,37.68A53.44,53.44,0,0,0,0,59.09v87.55a15.18,15.18,0,0,0,15.17,15.17H146.63a15.19,15.19,0,0,0,15.17-15.17V59.71a53.91,53.91,0,0,0-5.25-21.41ZM14.26,42.41,28.07,16.35c1.73-3.25,6.67-6.24,10.38-6.24h85c3.68,0,8.59,3,10.3,6.25L147.59,43a31.58,31.58,0,0,1,1.82,4.62H12.24A31.9,31.9,0,0,1,14.26,42.41ZM151.68,146.64a5.06,5.06,0,0,1-5.05,5.05H15.17a5.06,5.06,0,0,1-5.06-5.05V59.09c0-.41.08-.94.12-1.4H151.52c.06.68.16,1.43.16,2v86.93Z"/><path class="cls-2" d="M65.82,92.93H35.47a5.06,5.06,0,0,0,0,10.11H65.82a5.06,5.06,0,1,0,0-10.11Z"/><path class="cls-2" d="M50.48,114.5H35.31a5.06,5.06,0,1,0,0,10.11H50.48a5.06,5.06,0,0,0,0-10.11Z"/></g></g></svg>