<svg xmlns="http://www.w3.org/2000/svg" viewBox="0 0 159.67 155.32"><defs><style>.cls-1{fill:#0c9;}.cls-2{fill:#abff99;}</style></defs><title>导购</title><g id="图层_2" data-name="图层 2"><g id="图层_1-2" data-name="图层 1"><path class="cls-1" d="M134.5,155.32H25.18A25.17,25.17,0,0,1,.35,126L18,21A25.1,25.1,0,0,1,42.82,0h73.81a25.1,25.1,0,0,1,24.82,21l17.86,105a25.14,25.14,0,0,1-24.81,29.38ZM42.82,11.3A13.84,13.84,0,0,0,29.14,22.87l-17.64,105A13.87,13.87,0,0,0,25.18,144H134.5a13.86,13.86,0,0,0,13.67-16.19l-17.87-105a13.82,13.82,0,0,0-13.67-11.54H42.82Z"/><path class="cls-2" d="M79.86,76.54A33.91,33.91,0,0,1,46,42.67a5.66,5.66,0,0,1,11.31,0,22.56,22.56,0,1,0,45.11,0,5.66,5.66,0,0,1,11.31,0A33.9,33.9,0,0,1,79.86,76.54Z"/></g></g></svg>