<svg xmlns="http://www.w3.org/2000/svg" viewBox="0 0 147.03 156.06"><defs><style>.cls-1{fill:#0c9;}.cls-2{fill:#abff99;}</style></defs><title>海外达人</title><g id="图层_2" data-name="图层 2"><g id="图层_1-2" data-name="图层 1"><path class="cls-1" d="M97.22,80.13h0a43.78,43.78,0,1,0-47.4,0A73.87,73.87,0,0,0,0,149.93a6.09,6.09,0,0,0,6.05,6,6.09,6.09,0,0,0,6-6A61.58,61.58,0,0,1,65,88.91L51.59,132.12a6,6,0,0,0,1.53,6l16,16a6,6,0,0,0,8.55,0l16-16a6.08,6.08,0,0,0,1.53-6L81.74,88.91a61.67,61.67,0,0,1,53.2,61.1A6,6,0,1,0,147,150,73.9,73.9,0,0,0,97.22,80.13ZM73.52,75A31.44,31.44,0,1,1,105.2,43.53,31.53,31.53,0,0,1,73.52,75Z"/><ellipse class="cls-2" cx="55.45" cy="43.5" rx="9.29" ry="9.22"/><ellipse class="cls-2" cx="91.97" cy="43.5" rx="9.29" ry="9.22"/></g></g></svg>