<svg xmlns="http://www.w3.org/2000/svg" xmlns:xlink="http://www.w3.org/1999/xlink" viewBox="0 0 143.97 143.97"><defs><style>.cls-1{fill:url(#未命名的渐变_10);}.cls-2{fill:url(#未命名的渐变_10-2);}</style><linearGradient id="未命名的渐变_10" x1="55.45" y1="69.98" x2="97.04" y2="69.98" gradientUnits="userSpaceOnUse"><stop offset="0" stop-color="#9fffd8"/><stop offset="1" stop-color="#0c9"/></linearGradient><linearGradient id="未命名的渐变_10-2" x1="0" y1="71.98" x2="143.97" y2="71.98" xlink:href="#未命名的渐变_10"/></defs><title>云剪辑</title><g id="图层_2" data-name="图层 2"><g id="图层_1-2" data-name="图层 1"><path class="cls-1" d="M93.85,64,67.18,46.92a9.15,9.15,0,0,0-7.46,0c-3.2,1.07-4.27,3.2-4.27,6.4V86.38a7.21,7.21,0,0,0,4.27,6.4c1.07,0,2.13,1.07,3.2,1.07s3.2,0,4.26-1.07L93.85,75.72q3.2-1.6,3.19-6.4C97,68.25,96,66.12,93.85,64ZM66.12,81.05V58.65L84.25,70.38Z"/><path class="cls-2" d="M138.64,117.31H128V32a16.39,16.39,0,0,0-16-16H26.66V5.33A5,5,0,0,0,21.33,0,5,5,0,0,0,16,5.33V16H5.33A5,5,0,0,0,0,21.33a5,5,0,0,0,5.33,5.33H16V112a16.39,16.39,0,0,0,16,16h85.32v10.67a5.33,5.33,0,0,0,10.66,0V128h10.67a5.33,5.33,0,1,0,0-10.66Zm-105.58,0A5,5,0,0,1,27.73,112V26.66H113A5,5,0,0,1,118.37,32v85.32Z"/></g></g></svg>