<svg xmlns="http://www.w3.org/2000/svg" xmlns:xlink="http://www.w3.org/1999/xlink" viewBox="0 0 110.76 152.31"><defs><style>.cls-1{fill:url(#未命名的渐变_10);}.cls-2{fill:url(#未命名的渐变_10-2);}.cls-3{fill:url(#未命名的渐变_10-3);}.cls-4{fill:url(#未命名的渐变_10-4);}</style><linearGradient id="未命名的渐变_10" x1="20.17" y1="55.24" x2="90.55" y2="55.24" gradientUnits="userSpaceOnUse"><stop offset="0" stop-color="#9fffd8"/><stop offset="1" stop-color="#0c9"/></linearGradient><linearGradient id="未命名的渐变_10-2" x1="28.86" y1="62.84" x2="57.05" y2="62.84" xlink:href="#未命名的渐变_10"/><linearGradient id="未命名的渐变_10-3" x1="69.55" y1="43.48" x2="81.84" y2="43.48" xlink:href="#未命名的渐变_10"/><linearGradient id="未命名的渐变_10-4" x1="0" y1="109.92" x2="110.76" y2="109.92" xlink:href="#未命名的渐变_10"/></defs><title>视频连麦</title><g id="图层_2" data-name="图层 2"><g id="图层_1-2" data-name="图层 1"><path class="cls-1" d="M56.72,110.48H54A33.9,33.9,0,0,1,20.17,76.66V24.1A24.13,24.13,0,0,1,44.27,0H66.45a24.11,24.11,0,0,1,24.1,24.1V76.64a33.92,33.92,0,0,1-33.83,33.84ZM44.27,9.3A14.81,14.81,0,0,0,29.48,24.1V76.64A24.55,24.55,0,0,0,54,101.16h2.72A24.56,24.56,0,0,0,81.25,76.64V24.1A14.82,14.82,0,0,0,66.45,9.3Z"/><path class="cls-2" d="M36.11,70.65A2.06,2.06,0,0,1,38,72.91,19.07,19.07,0,0,0,48.49,91.66a2.08,2.08,0,1,1-1.84,3.74,23.39,23.39,0,0,1-12.8-22.84A2.06,2.06,0,0,1,36.11,70.65ZM51.23,95a2.08,2.08,0,0,1,2.4-1.69c.51.09,1,.16,1.54.21a2.06,2.06,0,1,1-.35,4.1,14,14,0,0,1-1.91-.28,2.08,2.08,0,0,1-1.72-2.22S51.21,95.06,51.23,95Zm-22.37-67h12.3v4.54H28.86Zm0,13.16h12.3v4.54H28.86Zm0,13.17h12.3v4.54H28.86Z"/><path class="cls-3" d="M69.55,28.05H81.84v4.54H69.55Zm0,13.16H81.84v4.54H69.55Zm0,13.17H81.84v4.54H69.55Z"/><path class="cls-4" d="M108.39,68.12a4.52,4.52,0,0,0-2.26-.58,4.7,4.7,0,0,0-4.68,4.29v2.82a46.08,46.08,0,0,1-92.15,0V71.6a4.67,4.67,0,0,0-4.66-4,4.88,4.88,0,0,0-2.26.57A4.74,4.74,0,0,0,0,71.45v3.2a55.25,55.25,0,0,0,16.26,39.12,55.26,55.26,0,0,0,33.23,16v17.93a4.66,4.66,0,0,0,9.32,0V129.93a55.65,55.65,0,0,0,47.58-33.77,54.78,54.78,0,0,0,4.37-21.51V71.32a4.72,4.72,0,0,0-2.37-3.2Z"/></g></g></svg>