<svg xmlns="http://www.w3.org/2000/svg" viewBox="0 0 156.39 145.25"><defs><style>.cls-1{fill:#abff99;}.cls-2{fill:#0c9;}</style></defs><title>门店引流</title><g id="图层_2" data-name="图层 2"><g id="图层_1-2" data-name="图层 1"><path class="cls-1" d="M110.86,51.17a8.13,8.13,0,0,0-7,12.37L95.07,78.28H94.6a8.45,8.45,0,0,0-2.43.36L67.51,54a8,8,0,0,0,.37-2.43,8.14,8.14,0,1,0-16.27,0,8.25,8.25,0,0,0,1.19,4.24l-2.69,4.3L50,60l-3.62,6c-1.57,2.49-2.83,4.45-2.88,4.45l.16.09-2.5,4.16a3.62,3.62,0,0,0-.47,0,8.33,8.33,0,0,0-2.42.37L32.17,69a8.37,8.37,0,0,0,.37-2.43,8.14,8.14,0,1,0-15.08,4.24L8.61,85.58H8.13a8.14,8.14,0,1,0,7,3.9l8.85-14.76a8.14,8.14,0,0,0,2.9-.35l6.08,6.08a7.94,7.94,0,0,0-.37,2.42A8.13,8.13,0,1,0,47.6,78.63l2.69-4.3.13.08L54.26,68c1.47-2.32,2.62-4.11,2.67-4.11l-.15-.08,2.5-4.17a8.06,8.06,0,0,0,2.89-.35L86.83,84a8.31,8.31,0,0,0-.36,2.43,8.13,8.13,0,1,0,15.06-4.24l8.85-14.74a3.85,3.85,0,0,0,.48,0,8.13,8.13,0,1,0,0-16.26Z"/><path class="cls-2" d="M128.43,108.67l26.14,26.23a6,6,0,1,1-8.46,8.58l-26.32-26.27a66.49,66.49,0,0,1-42.4,15.36A66.14,66.14,0,0,1,27,109.1c-6.34-7.42,3.29-14.36,10.53-6.38a54.12,54.12,0,0,0,78.13,1.9l.09-.09a54.93,54.93,0,0,0,11.77-17.6,54.52,54.52,0,0,0,.09-41.07l-.09-.26A53.72,53.72,0,0,0,116,28.3l-.3-.3A54.56,54.56,0,0,0,98.09,16.3a52.25,52.25,0,0,0-20.7-4.13A54.28,54.28,0,0,0,28,44.48a6,6,0,0,1-5.57,3.58h0a6.07,6.07,0,0,1-5.52-8.59A66.88,66.88,0,0,1,77.39,0a66.69,66.69,0,0,1,46.89,19.41l.34.31a67.42,67.42,0,0,1,14,21.18l.12.34a66,66,0,0,1-.12,50.3,67.1,67.1,0,0,1-10.22,17.13Z"/></g></g></svg>