<svg xmlns="http://www.w3.org/2000/svg" xmlns:xlink="http://www.w3.org/1999/xlink" viewBox="0 0 136.97 136.97"><defs><style>.cls-1{fill:url(#未命名的渐变_10);}.cls-2{fill:url(#未命名的渐变_10-2);}</style><linearGradient id="未命名的渐变_10" x1="57.55" y1="49.82" x2="89.13" y2="49.82" gradientUnits="userSpaceOnUse"><stop offset="0" stop-color="#9fffd8"/><stop offset="1" stop-color="#0c9"/></linearGradient><linearGradient id="未命名的渐变_10-2" x1="0" y1="68.48" x2="136.97" y2="68.48" xlink:href="#未命名的渐变_10"/></defs><title>品牌直播间</title><g id="图层_2" data-name="图层 2"><g id="图层_1-2" data-name="图层 1"><path class="cls-1" d="M86.7,45.26,66.46,32.31a6.92,6.92,0,0,0-5.67,0c-2.43.81-3.24,2.43-3.24,4.86V62.26a5.47,5.47,0,0,0,3.24,4.86c.81,0,1.62.81,2.43.81s2.43,0,3.24-.81l20.24-13q2.43-1.22,2.43-4.86C89.13,48.5,88.32,46.88,86.7,45.26Zm-21,13v-17l13.76,8.9Z"/><path class="cls-2" d="M72.9,11.1a7.86,7.86,0,0,0-8.83,0l-51,34.63a8.17,8.17,0,0,0-3.55,6.75v66.63a8.05,8.05,0,0,0,8,8.12h25V94.58A17.69,17.69,0,0,1,60,76.72H77A17.7,17.7,0,0,1,94.5,94.58v32.64h25a8,8,0,0,0,8-8.11V52.47a8.17,8.17,0,0,0-3.54-6.75l-51-34.63ZM58.77,3A17.23,17.23,0,0,1,78.2,3l51,34.62A18,18,0,0,1,137,52.49v66.62A17.69,17.69,0,0,1,119.45,137H89.71a4.83,4.83,0,0,1-4.78-4.87h0V94.58a8,8,0,0,0-8-8.11H60a8,8,0,0,0-8,8.11V132.1A4.82,4.82,0,0,1,47.25,137H17.53A17.69,17.69,0,0,1,0,119.11V52.48A18,18,0,0,1,7.81,37.62Z"/></g></g></svg>