<svg xmlns="http://www.w3.org/2000/svg" xmlns:xlink="http://www.w3.org/1999/xlink" viewBox="0 0 143.58 142.47"><defs><style>.cls-1{fill:url(#未命名的渐变_10);}.cls-2{fill:url(#未命名的渐变_10-2);}</style><linearGradient id="未命名的渐变_10" y1="62.21" x2="143.58" y2="62.21" gradientUnits="userSpaceOnUse"><stop offset="0" stop-color="#9fffd8"/><stop offset="1" stop-color="#0c9"/></linearGradient><linearGradient id="未命名的渐变_10-2" x1="17.95" y1="89.19" x2="123.23" y2="89.19" xlink:href="#未命名的渐变_10"/></defs><title>营销玩法</title><g id="图层_2" data-name="图层 2"><g id="图层_1-2" data-name="图层 1"><path class="cls-1" d="M134,59.05V100.5c0,8-5.93,14.35-13.09,14.35H22.66c-7.15,0-13.09-6.35-13.09-14.35V23.93c0-8,5.94-14.36,13.09-14.36h99.63a11.71,11.71,0,0,1,10.76,7.83A4.78,4.78,0,1,0,142,13.94,21.3,21.3,0,0,0,122.29,0H22.66C10.07,0,0,10.79,0,23.93V100.5c0,13.13,10.07,23.93,22.66,23.93h98.25c12.59,0,22.67-10.8,22.67-23.93V59.05a4.79,4.79,0,0,0-9.58,0Z"/><path class="cls-2" d="M49.8,89.83a4.79,4.79,0,0,0,9,.82L76.15,53.57,89,69.61a4.8,4.8,0,0,0,7.14.37l25.63-25.86a4.78,4.78,0,1,0-6.8-6.73l-21.86,22L78.8,41.6a4.83,4.83,0,0,0-4.3-1.76,4.76,4.76,0,0,0-3.77,2.73l-15,32.09L51,56.92a4.79,4.79,0,0,0-7.73-2.44L19.57,74.56a4.78,4.78,0,0,0,6.17,7.3l18-15.19ZM37.34,142.47H103.7a4.79,4.79,0,1,0,0-9.56H37.34a4.79,4.79,0,1,0,0,9.56Z"/></g></g></svg>