<svg xmlns="http://www.w3.org/2000/svg" viewBox="0 0 148.36 159.97"><defs><style>.cls-1{fill:#0c9;}.cls-2{fill:#abff99;}</style></defs><title>网红直播</title><g id="图层_2" data-name="图层 2"><g id="图层_1-2" data-name="图层 1"><path class="cls-1" d="M148.36,154.14a5.82,5.82,0,0,1-11.63,0,6.62,6.62,0,0,1,.11-1.17h-.11V120.54A11.6,11.6,0,0,0,125.14,109h-102a11.6,11.6,0,0,0-11.59,11.59V153h-.11a6.45,6.45,0,0,1,.11,1.17,5.8,5.8,0,1,1-11.59,0A6.62,6.62,0,0,1,.11,153H0V120.54A23.16,23.16,0,0,1,23.18,97.36h102a23.16,23.16,0,0,1,23.18,23.18V153h-.11A5,5,0,0,1,148.36,154.14Z"/><path class="cls-1" d="M74.16,0a44,44,0,1,0,44.06,44A44,44,0,0,0,74.16,0Zm0,76.48A32.45,32.45,0,1,1,106.61,44,32.44,32.44,0,0,1,74.16,76.48Z"/><circle class="cls-2" cx="95.04" cy="53.3" r="2.32"/><path class="cls-2" d="M95,46.36a2.32,2.32,0,0,0,4.64,0,2.6,2.6,0,0,0-.09-.47c0-.61.09-1.22.09-1.85a25.48,25.48,0,0,0-25.5-25.5c-.63,0-1.24,0-1.86.09a1.71,1.71,0,0,0-.46-.09,2.32,2.32,0,1,0,0,4.64v.13a22.24,22.24,0,0,1,2.32-.13A20.85,20.85,0,0,1,95,44c0,.78-.06,1.56-.13,2.32Z"/><path class="cls-2" d="M61.91,139,42.74,150.06a4.65,4.65,0,0,1-7-4V123.88a4.65,4.65,0,0,1,7-4l19.17,11.07A4.65,4.65,0,0,1,61.91,139Z"/></g></g></svg>