<svg xmlns="http://www.w3.org/2000/svg" viewBox="0 0 139.19 139.98"><defs><style>.cls-1{fill:#abff99;}.cls-2{fill:#0c9;}</style></defs><title>即时咨询</title><g id="图层_2" data-name="图层 2"><g id="图层_1-2" data-name="图层 1"><path class="cls-1" d="M60.18,90.41a34.89,34.89,0,0,1-5.33,11.9,41.36,41.36,0,0,1-9.52,9.58A40.46,40.46,0,0,0,50,114.57a9.3,9.3,0,0,0,3.33.91c2.83,0,5.81-2.13,8.93-6.35s4.71-7.89,4.71-11a5.15,5.15,0,0,0-1.4-3.39,28.57,28.57,0,0,0-5.43-4.34m26-42.58a13.33,13.33,0,0,0,3.2.52c2.07,0,4.07-1.92,6-5.81a26.27,26.27,0,0,0,2.88-11.85,7.68,7.68,0,0,0-1.81-5.43c-1.21-1.29-3.73-2.67-7.5-4.09a46.25,46.25,0,0,1-2,13.86A34.47,34.47,0,0,1,81,46.23c2.07.68,3.77,1.23,5.12,1.6"/><path class="cls-2" d="M133.74,42.67A69.83,69.83,0,0,0,96.84,5.49,69.07,69.07,0,0,0,38.91,7.32,68.35,68.35,0,0,0,5.2,43,67.89,67.89,0,0,0,0,69.05,65.06,65.06,0,0,0,3.57,90.94c.37,1.07.78,2.11,1.21,3.14a70.14,70.14,0,0,0,8.16,15.73,11,11,0,0,0,5.49,2.35,3.85,3.85,0,0,0,1.13.18l.31,0,.56,0c2.83.08,3.78-.74,4.05-1.1a62,62,0,0,1,2.09-85,60.85,60.85,0,0,1,76.54-8.17,64.44,64.44,0,0,1,8.17,7,62.07,62.07,0,0,1,13.45,67.69,60.91,60.91,0,0,1-13.45,20.19A61.38,61.38,0,0,1,91.2,126.49a60.37,60.37,0,0,1-23.49,4.77c-1.63,0-3.21,0-4.74-.13A60,60,0,0,1,46,126.67a29.12,29.12,0,0,1-7.15-3.81,11.85,11.85,0,0,1-3.5-9,9.51,9.51,0,0,1,.6-3.28,11.46,11.46,0,0,1,1.57-3.41,12.12,12.12,0,0,0,2.46,1.9,3.86,3.86,0,0,0,1.94.59c.9,0,2.28-.78,4.17-2.34a38.6,38.6,0,0,0,5.58-6,33,33,0,0,0,3.91-7.08,18.34,18.34,0,0,0,1.63-5c0-.44-.65-1.44-1.91-3a7.16,7.16,0,0,1-2-4.67,26.22,26.22,0,0,1,1.79-8.25A116.8,116.8,0,0,1,60.34,61a76.5,76.5,0,0,1,6.41-11.28,11.3,11.3,0,0,1,5-4.13,8.15,8.15,0,0,1,2-.39,8.63,8.63,0,0,0,6.68-3.89A37.71,37.71,0,0,0,84,32.5a34.21,34.21,0,0,0,1.53-9.11c0-2-.31-3.42-1-4.12s-1.93-1.08-4-1.08a41.45,41.45,0,0,0-8.1.69,12.83,12.83,0,0,0-5.07,2c-1.42,1-3.68,3.49-6.78,7.49s-6.29,8.49-9.52,13.57A149.94,149.94,0,0,0,36.56,71.7c-3.81,10.56-5.7,18.46-5.7,23.75a9.07,9.07,0,0,0,.68,3.26A30.82,30.82,0,0,0,34,103.25a23.09,23.09,0,0,0-3.49,5.89c-2.61,6.77-1.13,15,2.12,18.88a30.1,30.1,0,0,0,11.57,8.07c7.76,3.14,16.32,3.89,25.68,3.89a68.61,68.61,0,0,0,27-5.76,69.87,69.87,0,0,0,42.35-64.36,69.78,69.78,0,0,0-5.45-27.19"/></g></g></svg>