<svg xmlns="http://www.w3.org/2000/svg" viewBox="0 0 112.91 122.17"><defs><style>.cls-1{fill:#abff99;}.cls-2{fill:#0c9;}</style></defs><title>讲座</title><g id="图层_2" data-name="图层 2"><g id="图层_1-2" data-name="图层 1"><path class="cls-1" d="M70.67,3.05A29.24,29.24,0,0,1,108.3,45a18,18,0,0,1-5.25-.82C95.89,42,88.41,36.17,82.4,29s-10.46-15.71-11.5-23A20.78,20.78,0,0,1,70.67,3.05Z"/><path class="cls-2" d="M11.38,83.27c-.09,5.2,2.52,8.06,7.53,8.86L74,55.09A46.25,46.25,0,0,1,56.58,34Z"/><path class="cls-2" d="M13.18,95c-4.59,4.78-6,9.73-4.89,13.43a7.32,7.32,0,0,0,2.58,3.79,10,10,0,0,0,5.31,1.89c7.47.64,18.64-4.18,31.7-18.81S72.82,73.66,82.5,72A23.53,23.53,0,0,1,97.78,74a22.83,22.83,0,0,1,9.79,10.36c3.44,7,4.15,16.24,1.54,25.59l-7.67-2.15c2.09-7.45,1.6-14.63-1-20a14.84,14.84,0,0,0-6.36-6.81,15.68,15.68,0,0,0-10.19-1.26c-8.07,1.41-18.26,7.61-30,20.82-15,16.81-28.71,22.28-38.3,21.46A17.94,17.94,0,0,1,6,118.54a15.29,15.29,0,0,1-5.35-7.87c-1.83-6.24,0-14.12,6.78-21.15L13.18,95Z"/><path class="cls-2" d="M103.87,50.12C95,47.17,86,40.22,79.05,31.82c-6.37-7.65-11.27-16.62-13.25-25a29.27,29.27,0,0,0-6.21,22.63c3.2,9.63,11.51,19.59,20.77,23.85a29.26,29.26,0,0,0,23.51-3.2Z"/></g></g></svg>