<svg xmlns="http://www.w3.org/2000/svg" viewBox="0 0 141.9 135.89"><defs><style>.cls-1{fill:#abff99;}.cls-2{fill:#0c9;}</style></defs><title>在线喊单</title><g id="图层_2" data-name="图层 2"><g id="图层_1-2" data-name="图层 1"><path class="cls-1" d="M113.3,42.92a7.15,7.15,0,0,0-7.15,7.15h0V85.83a7.15,7.15,0,0,0,14.3,0V50.07a7.15,7.15,0,0,0-7.15-7.15Z"/><path class="cls-1" d="M134.75,28.62a7.15,7.15,0,0,0-7.15,7.15h0v64.36a7.15,7.15,0,1,0,14.3,0V35.77a7.15,7.15,0,0,0-7.15-7.15Z"/><path class="cls-2" d="M94.4,1.23a10.7,10.7,0,0,0-11.08.68L33.54,36H10.73A10.72,10.72,0,0,0,0,46.68V89.41a10.72,10.72,0,0,0,10.73,10.72H33.54L83.32,134a10.73,10.73,0,0,0,16.8-8.84V10.74A10.71,10.71,0,0,0,94.4,1.23ZM25.32,85.67H14.59A3.58,3.58,0,0,1,11,82.09V53.49a3.58,3.58,0,0,1,3.58-3.58H25.32Zm60.5,32.88L42.91,89.23V46.78L85.82,17.46Z"/></g></g></svg>