<svg xmlns="http://www.w3.org/2000/svg" viewBox="0 0 122.26 122.26"><defs><style>.cls-1{fill:#333;}</style></defs><title>高性能</title><g id="图层_2" data-name="图层 2"><g id="图层_1-2" data-name="图层 1"><path class="cls-1" d="M61.13,8.73a51.93,51.93,0,0,1,20.4,4.12,52.37,52.37,0,0,1,32,48.29,52.37,52.37,0,0,1-52.41,52.41A52.37,52.37,0,0,1,8.72,61.14,52.37,52.37,0,0,1,61.13,8.73m0-8.73a61.13,61.13,0,1,0,61.13,61.13A61.13,61.13,0,0,0,61.13,0Z"/><path class="cls-1" d="M25.93,46.26A38.21,38.21,0,0,1,88.15,34.11L92,30.25A43.67,43.67,0,0,0,17.47,61.13h5.45A37.78,37.78,0,0,1,25.93,46.26Zm41.38,21A8.73,8.73,0,0,1,55,55c3.41-3.41,30.87-18.52,30.87-18.52S70.72,63.89,67.31,67.3Z"/></g></g></svg>