<svg xmlns="http://www.w3.org/2000/svg" viewBox="0 0 121.72 121.72"><defs><style>.cls-1{fill:#333;}</style></defs><title>高效率</title><g id="图层_2" data-name="图层 2"><g id="图层_1-2" data-name="图层 1"><path class="cls-1" d="M37,86.06c7.85,8,8.76,16.57,0,25.42-5.39,5.48-14.13,8.77-26.15,10.18a7.88,7.88,0,0,1-1.88,0A8.18,8.18,0,0,1,1.9,113.1l0-.56.18-1.42C3.59,99.66,6.78,91.26,12,86c8.71-8.85,17.16-7.92,25,.06ZM30.18,93c-4.36-4.43-6.78-4.7-11.37,0-3,3-5.21,8.26-6.56,15.76L12,110l-.25,1.66.4-.05c7.9-1.17,13.55-3.27,17-6.13l.55-.49.46-.45c4.6-4.67,4.34-7.12,0-11.55ZM111.66,3a11.43,11.43,0,0,1,7,7.11c5.3,15.48,3.61,31.16-4.93,46.71A86.7,86.7,0,0,1,100.27,75l-1.52,1.55L97.31,78l0,.44C96.27,87.73,89.21,100,76.2,116l-1.13,1.38L73,119.82a4.79,4.79,0,0,1-8.11-1.28l-.16-.44L57.44,94.88l-.66-.46a115.45,115.45,0,0,1-11.66-9.51l-1.8-1.72-1.78-1.76A116.76,116.76,0,0,1,27.48,64.06l-.4-.62L3.38,55.78A5,5,0,0,1,1.09,48l.28-.31.3-.29c19.49-17,33.87-25.47,44.17-24.76l.66.05.39,0,.87-.88A87.18,87.18,0,0,1,62.44,10l1.71-1.05L65.72,8C80-.08,94.49-2.07,109,2.17l1.36.41,1.33.44Zm-2.2,10a1.62,1.62,0,0,0-.58-.61l-.25-.11-1.21-.41c-12.28-3.91-24.5-2.4-37,4.67A78.19,78.19,0,0,0,52,31.49a4.76,4.76,0,0,1-4.69,1.38l-.81-.26c-5-1.47-15.28,3.39-29.94,15.06l-1.85,1.48L31.6,54.63a4.73,4.73,0,0,1,2,1.27l.32.36.28.4A107.76,107.76,0,0,0,48.35,74.51,105.65,105.65,0,0,0,64.21,87.73,4.93,4.93,0,0,1,66,89.88l.16.45,5.1,16.27,1-1.25c10-12.81,15.11-22.47,15.51-28.44l0-.55v-.48a4.93,4.93,0,0,1,1.56-3.75,80.22,80.22,0,0,0,16-20.1c7-12.75,8.52-25.13,4.65-37.48l-.41-1.23-.12-.27ZM89.19,32.53a18.55,18.55,0,1,1-26.29-.06A18.58,18.58,0,0,1,89.19,32.53ZM82,39.68a8.46,8.46,0,0,0-12,0h0a8.45,8.45,0,0,0,0,12h0a8.45,8.45,0,0,0,12,0h0a8.45,8.45,0,0,0,0-12Z"/></g></g></svg>