<svg xmlns="http://www.w3.org/2000/svg" viewBox="0 0 120.06 133.36"><title>零风险</title><g id="图层_2" data-name="图层 2"><g id="图层_1-2" data-name="图层 1"><path d="M57.13.43A10,10,0,0,1,62.22.24l.71.19,50,15.16a10,10,0,0,1,7.09,9V79.82c0,24.63-19.54,42.15-57.09,52.74l-2.94.8L58.72,133C20.65,122.62.57,105.3,0,80.87V25.17a10,10,0,0,1,6.51-9.38l.59-.2ZM60,10,10,25.17V79.82C10,98.4,25.09,112.52,56.65,122l1.54.45L60,123l1.84-.53C93.44,113.27,109,99.61,110,81.62l0-.91V25.17Zm7.08,28.48,9.35,24.12H86.71v10H69.61L66.35,64.2,54,91.33,42.77,72.88H33.35v-10H48.41l4.3,7.1,14.4-31.49Z"/></g></g></svg>