<svg xmlns="http://www.w3.org/2000/svg" xmlns:xlink="http://www.w3.org/1999/xlink" viewBox="0 0 63.05 70"><defs><style>.cls-1{fill:url(#未命名的渐变_10);}.cls-2{fill:url(#未命名的渐变_10-2);}.cls-3{fill:url(#未命名的渐变_10-3);}</style><linearGradient id="未命名的渐变_10" x1="12.43" y1="25.28" x2="50.61" y2="25.28" gradientUnits="userSpaceOnUse"><stop offset="0" stop-color="#9fffd8"/><stop offset="1" stop-color="#0c9"/></linearGradient><linearGradient id="未命名的渐变_10-2" x1="0" y1="43.52" x2="63.05" y2="43.52" xlink:href="#未命名的渐变_10"/><linearGradient id="未命名的渐变_10-3" x1="7.24" y1="9.82" x2="55.75" y2="9.82" xlink:href="#未命名的渐变_10"/></defs><title>直播客服</title><g id="图层_2" data-name="图层 2"><g id="图层_1-2" data-name="图层 1"><path class="cls-1" d="M31.52,44.44A19.12,19.12,0,0,1,12.43,25.28,19.09,19.09,0,0,1,18,11.73,19.09,19.09,0,0,1,50.61,25.28,19.1,19.1,0,0,1,31.52,44.44Zm0-34.39A15.23,15.23,0,1,0,46.68,25.28,15.21,15.21,0,0,0,31.52,10.05Z"/><path class="cls-2" d="M63.05,70H0V68A31.67,31.67,0,0,1,14.67,41.28l1.27-.8,1.11,1a21.56,21.56,0,0,0,29,0l1.11-1,1.26.8A31.71,31.71,0,0,1,63.05,68v2ZM4,66.06H59A27.65,27.65,0,0,0,47.46,45.41a25.54,25.54,0,0,1-31.87,0A27.62,27.62,0,0,0,4,66.06Zm49.12-31.9h-2V17h2a8.56,8.56,0,0,1,0,17.12Zm2-12.74v8.35a4.63,4.63,0,0,0,0-8.35ZM11.89,34.16h-2A8.56,8.56,0,0,1,9.92,17h2ZM8,21.42a4.64,4.64,0,0,0,0,8.35Z"/><path class="cls-3" d="M11,19.63l-3.8-1a25.13,25.13,0,0,1,3.39-7.43A25.24,25.24,0,0,1,23.24,1.4a25,25,0,0,1,23.6,3.82,25.22,25.22,0,0,1,8.91,13.17L52,19.46A21.22,21.22,0,0,0,11,19.63Z"/></g></g></svg>