<svg xmlns="http://www.w3.org/2000/svg" xmlns:xlink="http://www.w3.org/1999/xlink" viewBox="0 0 68.48 68.92"><defs><style>.cls-1{fill:url(#未命名的渐变_10);}</style><linearGradient id="未命名的渐变_10" y1="34.46" x2="68.48" y2="34.46" gradientUnits="userSpaceOnUse"><stop offset="0" stop-color="#9fffd8"/><stop offset="1" stop-color="#0c9"/></linearGradient></defs><title>互动功能</title><g id="图层_2" data-name="图层 2"><g id="图层_1-2" data-name="图层 1"><path class="cls-1" d="M42.31,0H26.42a4.32,4.32,0,0,0-4.31,4.32V20.21a4.31,4.31,0,0,0,4.31,4.31H42.31a4.32,4.32,0,0,0,4.32-4.31V4.32A4.33,4.33,0,0,0,42.31,0ZM26.42,20.21V4.32H42.31V20.21ZM42.31,44.4H26.42a4.31,4.31,0,0,0-4.31,4.31V64.6a4.32,4.32,0,0,0,4.31,4.32H42.31a4.33,4.33,0,0,0,4.32-4.32V48.71a4.32,4.32,0,0,0-4.32-4.31ZM26.42,64.6V48.71H42.31V64.6ZM15,40.53a2.16,2.16,0,0,0-2.16,2.16v6.64a14.94,14.94,0,0,1-7.63-18.6A15.84,15.84,0,0,1,15.61,21a2.16,2.16,0,0,0-1.23-4.14A20.21,20.21,0,0,0,1.18,29.26,19.29,19.29,0,0,0,10.51,53H2.16a2.16,2.16,0,1,0,0,4.31h15V42.69A2.16,2.16,0,0,0,15,40.53ZM58.38,21.1h7.94a2.16,2.16,0,1,0,0-4.32h-15v14.6a2.16,2.16,0,1,0,4.31,0V24.53a14.93,14.93,0,0,1,7.64,18.59,15.87,15.87,0,0,1-10.37,9.73A2.16,2.16,0,0,0,54.1,57,20.26,20.26,0,0,0,67.3,44.6a19.28,19.28,0,0,0-8.92-23.5Z"/></g></g></svg>