<svg xmlns="http://www.w3.org/2000/svg" xmlns:xlink="http://www.w3.org/1999/xlink" viewBox="0 0 68.74 63.83"><defs><style>.cls-1{fill:url(#未命名的渐变_10);}.cls-2{fill:url(#未命名的渐变_10-2);}</style><linearGradient id="未命名的渐变_10" y1="31.91" x2="68.74" y2="31.91" gradientUnits="userSpaceOnUse"><stop offset="0" stop-color="#9fffd8"/><stop offset="1" stop-color="#0c9"/></linearGradient><linearGradient id="未命名的渐变_10-2" x1="23.11" y1="27.9" x2="45.38" y2="27.9" xlink:href="#未命名的渐变_10"/></defs><title>授权验证</title><g id="图层_2" data-name="图层 2"><g id="图层_1-2" data-name="图层 1"><path class="cls-1" d="M58.92,0H9.82A9.82,9.82,0,0,0,0,9.82V46.64a9.82,9.82,0,0,0,9.82,9.82h49.1a9.82,9.82,0,0,0,9.82-9.82V9.82A9.82,9.82,0,0,0,58.92,0Zm4.91,46.64a4.91,4.91,0,0,1-4.91,4.91H9.82a4.91,4.91,0,0,1-4.91-4.91V9.82A4.91,4.91,0,0,1,9.82,4.91h49.1a4.91,4.91,0,0,1,4.91,4.91V46.64ZM51.55,58.92H17.18a2.46,2.46,0,0,0,0,4.91H51.55a2.46,2.46,0,1,0,0-4.91Z"/><path class="cls-2" d="M44.66,24.43,34.24,34.84a2.41,2.41,0,0,1-1.73.72,2.45,2.45,0,0,1-1.74-.72L23.83,27.9a2.45,2.45,0,1,1,3.47-3.47l5.21,5.2L41.19,21a2.46,2.46,0,1,1,3.47,3.48Z"/></g></g></svg>