<svg xmlns="http://www.w3.org/2000/svg" xmlns:xlink="http://www.w3.org/1999/xlink" viewBox="0 0 66.77 63.06"><defs><style>.cls-1{fill:url(#未命名的渐变_10);}.cls-2{fill:url(#未命名的渐变_10-2);}</style><linearGradient id="未命名的渐变_10" y1="31.53" x2="66.77" y2="31.53" gradientUnits="userSpaceOnUse"><stop offset="0" stop-color="#9fffd8"/><stop offset="1" stop-color="#0c9"/></linearGradient><linearGradient id="未命名的渐变_10-2" x1="25.97" y1="37.1" x2="44.52" y2="37.1" xlink:href="#未命名的渐变_10"/></defs><title>形式多样</title><g id="图层_2" data-name="图层 2"><g id="图层_1-2" data-name="图层 1"><path class="cls-1" d="M61.21,11.13H42l4.23-8.44A1.87,1.87,0,0,0,45.35.2,1.85,1.85,0,0,0,42.86,1h0L37.8,11.13H29L23.92,1A1.86,1.86,0,0,0,20.6,2.69l4.22,8.44H5.56A5.56,5.56,0,0,0,0,16.69V57.5a5.56,5.56,0,0,0,5.56,5.56H61.21a5.56,5.56,0,0,0,5.56-5.56V16.69a5.56,5.56,0,0,0-5.56-5.56ZM63.06,57.5a1.85,1.85,0,0,1-1.85,1.85H5.56A1.85,1.85,0,0,1,3.71,57.5V16.69a1.85,1.85,0,0,1,1.85-1.85H61.21a1.85,1.85,0,0,1,1.85,1.85Z"/><path class="cls-2" d="M43.64,35.52,28.81,26.25A1.85,1.85,0,0,0,26,27.82V46.37a1.85,1.85,0,0,0,2.84,1.57l14.83-9.27a1.85,1.85,0,0,0,.59-2.56,2,2,0,0,0-.59-.59Zm-14,7.5V31.17l9.48,5.93Z"/></g></g></svg>