<svg xmlns="http://www.w3.org/2000/svg" xmlns:xlink="http://www.w3.org/1999/xlink" viewBox="0 0 67.07 65.64"><defs><style>.cls-1{fill:url(#未命名的渐变_10);}.cls-2{fill:url(#未命名的渐变_10-2);}</style><linearGradient id="未命名的渐变_10" x1="10.83" y1="32.2" x2="56.1" y2="32.2" gradientUnits="userSpaceOnUse"><stop offset="0" stop-color="#9fffd8"/><stop offset="1" stop-color="#0c9"/></linearGradient><linearGradient id="未命名的渐变_10-2" x1="0" y1="32.82" x2="67.07" y2="32.82" xlink:href="#未命名的渐变_10"/></defs><title>定制开发</title><g id="图层_2" data-name="图层 2"><g id="图层_1-2" data-name="图层 1"><path class="cls-1" d="M54,54.84a2.16,2.16,0,0,1-1.52-.63L38.28,40.05a2.15,2.15,0,0,1,3-3L55.48,51.22A2.16,2.16,0,0,1,54,54.89Zm-33-33.21A2.17,2.17,0,0,1,19.39,21l-7.84-7.67a2.15,2.15,0,1,1,2.86-3.21l.18.18L22.43,18a2.16,2.16,0,0,1-1.52,3.67Zm18.17,0a2.16,2.16,0,0,1-2.15-2.16A2.13,2.13,0,0,1,37.56,18l7.8-7.72a2.15,2.15,0,1,1,3.21,2.86,1.53,1.53,0,0,1-.18.18L40.6,21a2.19,2.19,0,0,1-1.52.64Zm-26,26a2.15,2.15,0,0,1-1.52-3.66l7.8-7.72a2.15,2.15,0,0,1,3.22,2.86l-.18.18L14.63,47A2.16,2.16,0,0,1,13.11,47.59Z"/><path class="cls-2" d="M9.53,15a6.89,6.89,0,1,1,.13,0Zm0-9.23A2.49,2.49,0,1,0,12,8.26h0A2.48,2.48,0,0,0,9.53,5.78Zm42.32,7.79a6.79,6.79,0,1,1,6.79-6.78v0A6.79,6.79,0,0,1,51.85,13.57Zm0-9.23a2.5,2.5,0,0,0-2.49,2.49h0a2.49,2.49,0,0,0,4.94,0A2.49,2.49,0,0,0,51.85,4.34ZM8.43,58.68a8.43,8.43,0,1,1,8.43-8.43A8.42,8.42,0,0,1,8.43,58.68ZM8.43,46a4.22,4.22,0,1,0,4.22,4.22A4.21,4.21,0,0,0,8.43,46ZM58.64,65.64a8.44,8.44,0,1,1,8.43-8.44A8.43,8.43,0,0,1,58.64,65.64Zm0-12.65a4.22,4.22,0,1,0,4.21,4.21A4.22,4.22,0,0,0,58.64,53ZM30,43.12a14.46,14.46,0,1,1,14.46-14.5A14.46,14.46,0,0,1,30,43.12Zm0-24.57A10.16,10.16,0,1,0,40.13,28.71v-.09A10.16,10.16,0,0,0,30,18.55Z"/></g></g></svg>