<svg xmlns="http://www.w3.org/2000/svg" xmlns:xlink="http://www.w3.org/1999/xlink" viewBox="0 0 70.26 60.85"><defs><style>.cls-1{fill:url(#未命名的渐变_10);}</style><linearGradient id="未命名的渐变_10" y1="30.42" x2="70.26" y2="30.42" gradientUnits="userSpaceOnUse"><stop offset="0" stop-color="#9fffd8"/><stop offset="1" stop-color="#0c9"/></linearGradient></defs><title>观看支持</title><g id="图层_2" data-name="图层 2"><g id="图层_1-2" data-name="图层 1"><path class="cls-1" d="M59,0H11.28A11.32,11.32,0,0,0,0,11.28V36.49A11.34,11.34,0,0,0,11.28,47.82H59A11.28,11.28,0,0,0,70.26,36.53V11.28A11.28,11.28,0,0,0,59,0ZM11.28,4.26H59a7,7,0,0,1,7,7V34.41H4.26V11.28A7,7,0,0,1,11.28,4.26ZM59,43.56H11.28a7,7,0,0,1-6.68-4.9h61A7,7,0,0,1,59,43.56ZM57.14,57.19H37v-5.5a1.83,1.83,0,1,0-3.66,0v5.5H13.11a1.83,1.83,0,0,0,0,3.66h44a1.83,1.83,0,1,0,0-3.66Z"/></g></g></svg>