<svg xmlns="http://www.w3.org/2000/svg" xmlns:xlink="http://www.w3.org/1999/xlink" viewBox="0 0 65.74 65.74"><defs><style>.cls-1{fill:url(#未命名的渐变_10);}.cls-2{fill:url(#未命名的渐变_10-2);}</style><linearGradient id="未命名的渐变_10" y1="32.87" x2="65.74" y2="32.87" gradientUnits="userSpaceOnUse"><stop offset="0" stop-color="#9fffd8"/><stop offset="1" stop-color="#0c9"/></linearGradient><linearGradient id="未命名的渐变_10-2" x1="5.06" y1="21.07" x2="48.88" y2="21.07" xlink:href="#未命名的渐变_10"/></defs><title>生成回放</title><g id="图层_2" data-name="图层 2"><g id="图层_1-2" data-name="图层 1"><path class="cls-1" d="M32.87,0A32.87,32.87,0,1,1,0,32.87a2.53,2.53,0,0,1,5.06,0,27.81,27.81,0,1,0,5.49-16.6,2.53,2.53,0,1,1-4.11-2.95l.06-.07A32.81,32.81,0,0,1,32.87,0Z"/><path class="cls-2" d="M7.59,0a2.52,2.52,0,0,1,2.5,2.16l0,.37v11h11a2.53,2.53,0,0,1,2.5,2.16l0,.37a2.54,2.54,0,0,1-2.15,2.51l-.38,0H7.59a2.51,2.51,0,0,1-2.5-2.15l0-.38V2.53A2.53,2.53,0,0,1,7.59,0ZM29.5,20.23A2.52,2.52,0,0,1,32,22.38l0,.38V37.08H46.36a2.53,2.53,0,0,1,2.5,2.16l0,.38a2.53,2.53,0,0,1-2.15,2.5l-.37,0H29.5A2.51,2.51,0,0,1,27,40l0-.37V22.76A2.53,2.53,0,0,1,29.5,20.23Z"/></g></g></svg>