<?xml version="1.0" standalone="no"?><!DOCTYPE svg PUBLIC "-//W3C//DTD SVG 1.1//EN" "http://www.w3.org/Graphics/SVG/1.1/DTD/svg11.dtd"><svg t="1615370902944" class="icon" viewBox="0 0 1024 1024" version="1.1" xmlns="http://www.w3.org/2000/svg" p-id="20131" xmlns:xlink="http://www.w3.org/1999/xlink" width="200" height="200"><defs><style type="text/css"></style></defs><path d="M936.5 155.8H513.9c-12.8 0-23.4 10.4-23.4 23.4v67c0 12.8 10.4 23.4 23.4 23.4 12.8 0 23.4-10.4 23.4-23.4v-43.6H913v253.3h-89c-6.3 0-12.5 2.6-16.8 7.1l-38.3 39.7 2.8-19.4c1-6.8-1.1-13.6-5.6-18.7-4.4-5.1-10.8-8-17.6-8l-20.1 0.2c-6.3 0-12.2 2.5-16.5 7-4.4 4.4-6.9 10.3-6.8 16.6 0.1 10.4 7 19.2 16.5 22.2l-9.3 65.1c-1 6.8 1.1 13.5 5.5 18.6 4.4 5.2 10.9 8.1 17.7 8.1 6.3 0 12.4-2.6 16.8-7.1l81.6-84.4h102.7c12.8 0 23.4-10.4 23.4-23.4V179.2c-0.2-12.8-10.6-23.4-23.5-23.4z" p-id="20132" fill="#666666"></path><path d="M618.6 601.5c48.8-31.6 81.2-86.6 81.2-149 0-97.8-79.6-177.4-177.4-177.4-20.4 0-39.9 3.5-58.2 9.8 5.2-8.2 4.9-19.2-1.6-27.2C428.7 216 378.5 192 324.8 192c-97.8 0-177.4 79.6-177.4 177.4 0 60.5 30.7 116.4 81.2 149-46 18.2-85.6 48.8-115.1 89-33.2 45.2-50.7 98.7-50.7 154.7 0 12.8 10.4 23.4 23.4 23.4 12.9 0 23.5-10.5 23.4-23.6 0-118.7 96.6-215.2 215.2-215.2 12.8 0 23.4-10.5 23.4-23.6 0-12.8-10.4-23.4-23.4-23.4-71.9 0-130.6-58.5-130.6-130.6 0-71.9 58.5-130.6 130.6-130.6 39.6 0 76.6 17.7 101.5 48.4 3.5 4.3 8.4 7.2 13.8 8.3-56.4 29.7-95 89-95 157.1 0 62.4 32.4 117.5 81.3 149.1-97 38.4-165.7 133.2-165.7 243.7 0 12.8 10.4 23.4 23.4 23.4 12.8 0 23.4-10.4 23.4-23.4 0-118.7 96.6-215.2 215.2-215.2s215.2 96.6 215.2 215.2c0 12.8 10.4 23.4 23.4 23.4 12.8 0 23.4-10.4 23.6-23.4-0.3-110.5-69.2-205.3-166.3-243.6z m-96.2-279.6c72 0 130.6 58.5 130.6 130.6 0 71.9-58.5 130.6-130.6 130.6-71.9 0-130.6-58.5-130.6-130.6 0-71.9 58.6-130.6 130.6-130.6zM746.9 408.3l62.8-62.8c6.9-6.9 6.9-18.1 0-25l-62.8-62.8c-11.1-11.1-30.1-3.2-30.1 12.5v125.7c0 15.6 19 23.5 30.1 12.4z" p-id="20133" fill="#666666"></path></svg>