<?xml version="1.0" standalone="no"?><!DOCTYPE svg PUBLIC "-//W3C//DTD SVG 1.1//EN" "http://www.w3.org/Graphics/SVG/1.1/DTD/svg11.dtd"><svg t="1615371024646" class="icon" viewBox="0 0 1024 1024" version="1.1" xmlns="http://www.w3.org/2000/svg" p-id="21192" xmlns:xlink="http://www.w3.org/1999/xlink" width="200" height="200"><defs><style type="text/css"></style></defs><path d="M773.737 304.656c3.288 9.381-1.651 19.652-11.033 22.94-9.382 3.288-19.653-1.651-22.94-11.033C705.285 218.193 612.158 151 506.252 151c-107.696 0-202.037 69.476-235.094 170.23-3.1 9.445-13.269 14.59-22.715 11.491-9.445-3.1-14.59-13.269-11.491-22.714C274.825 194.577 382.883 115 506.253 115c121.318 0 227.987 76.964 267.484 189.656z" fill="#666666" p-id="21193"></path><path d="M613.508 702.84c-9.941 0-18-8.058-18-18 0-9.94 8.059-18 18-18h114.446c93.36 0 169.046-75.712 169.046-169.112 0-83.353-60.685-153.926-142.066-166.974-9.815-1.573-16.497-10.806-14.923-20.622 1.573-9.816 10.806-16.497 20.622-14.924C859.41 311.044 933 396.626 933 497.728c0 113.279-91.8 205.113-205.046 205.113H613.508z" fill="#666666" p-id="21194"></path><path d="M305.934 484.338c-10.805 0-19.564 8.759-19.564 19.564 0 10.804 8.76 19.563 19.564 19.563H710.37c10.805 0 19.564-8.759 19.564-19.563 0-10.805-8.76-19.564-19.564-19.564H305.934z m0-36H710.37c30.687 0 55.564 24.876 55.564 55.564 0 30.687-24.877 55.563-55.564 55.563H305.934c-30.687 0-55.564-24.876-55.564-55.563 0-30.688 24.877-55.564 55.564-55.564z" fill="#666666" p-id="21195"></path><path d="M248.577 297.68c9.695-2.197 19.336 3.882 21.532 13.577 2.197 9.696-3.882 19.336-13.577 21.533C180.152 350.094 125 418.322 125 497.728c0 93.4 75.686 169.113 169.046 169.113h100.22c9.94 0 18 8.059 18 18 0 9.94-8.06 18-18 18h-100.22C180.8 702.84 89 611.007 89 497.728c0-96.312 66.88-179.047 159.577-200.048z" fill="#666666" p-id="21196"></path><path d="M489.551 559.465c0-9.94 8.059-18 18-18s18 8.06 18 18v174.277c0 9.94-8.059 18-18 18s-18-8.06-18-18V559.465z" fill="#666666" p-id="21197"></path><path d="M508.152 908c-52.155 0-94.433-42.293-94.433-94.46 0-52.167 42.278-94.46 94.433-94.46 52.155 0 94.432 42.293 94.432 94.46 0 52.167-42.277 94.46-94.432 94.46z m0-36c32.27 0 58.432-26.172 58.432-58.46s-26.163-58.46-58.432-58.46c-32.27 0-58.433 26.172-58.433 58.46S475.882 872 508.152 872zM814.83 882.355c-37.996 0-68.796-30.81-68.796-68.815 0-38.004 30.8-68.815 68.797-68.815s68.796 30.811 68.796 68.815-30.8 68.815-68.796 68.815z m0-36c18.112 0 32.797-14.69 32.797-32.815 0-18.124-14.685-32.815-32.796-32.815-18.112 0-32.797 14.69-32.797 32.815s14.685 32.815 32.797 32.815zM201.472 882.355c-37.996 0-68.796-30.81-68.796-68.815 0-38.004 30.8-68.815 68.796-68.815 37.997 0 68.797 30.811 68.797 68.815s-30.8 68.815-68.797 68.815z m0-36c18.112 0 32.797-14.69 32.797-32.815 0-18.124-14.685-32.815-32.797-32.815-18.111 0-32.796 14.69-32.796 32.815s14.685 32.815 32.796 32.815z" fill="#666666" p-id="21198"></path><path d="M254.168 833.44c-9.941 0-18-8.06-18-18 0-9.941 8.059-18 18-18h177.663c9.942 0 18 8.059 18 18 0 9.94-8.058 18-18 18H254.168zM586.483 833.44c-9.941 0-18-8.06-18-18 0-9.941 8.059-18 18-18h177.663c9.941 0 18 8.059 18 18 0 9.94-8.059 18-18 18H586.483z" fill="#666666" p-id="21199"></path></svg>