<?xml version="1.0" standalone="no"?><!DOCTYPE svg PUBLIC "-//W3C//DTD SVG 1.1//EN" "http://www.w3.org/Graphics/SVG/1.1/DTD/svg11.dtd"><svg t="1615370145053" class="icon" viewBox="0 0 1024 1024" version="1.1" xmlns="http://www.w3.org/2000/svg" p-id="11498" xmlns:xlink="http://www.w3.org/1999/xlink" width="200" height="200"><defs><style type="text/css"></style></defs><path d="M456.533333 697.6h313.6c14.933333 0 27.733333 4.266667 38.4 12.8l57.6 44.8c14.933333 6.4 29.866667-2.133333 29.866667-19.2V341.333333c0-36.266667-27.733333-64-64-64H456.533333c-36.266667 0-64 27.733333-64 64v292.266667c0 34.133333 29.866667 64 64 64z" fill="#FCCA1E" p-id="11499"></path><path d="M678.4 725.333333H313.6c-17.066667 0-34.133333 6.4-49.066667 17.066667l-98.133333 83.2c-17.066667 8.533333-38.4-4.266667-38.4-23.466667V281.6c0-46.933333 38.4-85.333333 85.333333-85.333333h465.066667c46.933333 0 85.333333 38.4 85.333333 85.333333V640c0 46.933333-38.4 85.333333-85.333333 85.333333z" fill="#2953FF" p-id="11500"></path><path d="M260.266667 460.8m-64 0a64 64 0 1 0 128 0 64 64 0 1 0-128 0Z" fill="#FF354A" p-id="11501"></path><path d="M445.866667 460.8m-64 0a64 64 0 1 0 128 0 64 64 0 1 0-128 0Z" fill="#93A8FF" p-id="11502"></path><path d="M631.466667 460.8m-64 0a64 64 0 1 0 128 0 64 64 0 1 0-128 0Z" fill="#FF354A" p-id="11503"></path></svg>