<?xml version="1.0" standalone="no"?><!DOCTYPE svg PUBLIC "-//W3C//DTD SVG 1.1//EN" "http://www.w3.org/Graphics/SVG/1.1/DTD/svg11.dtd"><svg t="1615370763390" class="icon" viewBox="0 0 1024 1024" version="1.1" xmlns="http://www.w3.org/2000/svg" p-id="18266" xmlns:xlink="http://www.w3.org/1999/xlink" width="200" height="200"><defs><style type="text/css"></style></defs><path d="M126.02 103.96c18.53-11.28 40.29-17.06 61.97-16.72 211 0.02 422 0.01 633 0.01 12.33 0.09 24.77-0.59 36.97 1.72 32.01 5.41 61.17 25.09 78.35 52.62 11.82 18.53 17.86 40.49 17.93 62.43 0.03 145.33 0 290.65 0.01 435.98-0.22 14.49 0.65 29.04-0.96 43.47-3.92 33.76-23.75 65.08-52.32 83.4-19.46 12.73-42.82 19.06-66.02 18.64-99.89-0.03-199.79 0.01-299.68-0.02-0.05 34.92 0 69.83-0.02 104.75 90.24 0.03 180.49 0 270.73 0.01 7.69-0.05 15.16 4.08 19.35 10.51 4.85 7.31 4.95 17.42 0.38 24.89-3.1 4.98-8.08 8.82-13.78 10.29-3.88 1.13-7.94 0.77-11.92 0.81-194.01-0.01-388.03 0-582.04 0-6.45-0.01-12.81-2.86-17.09-7.68-6.71-7.14-7.79-18.7-2.94-27.13 4.03-7.07 11.92-11.76 20.09-11.69 90.24-0.01 180.48 0.01 270.72-0.01-0.09-34.94 0.17-69.89-0.13-104.83-94.21 0.21-188.42 0.03-282.64 0.09-13.72-0.12-27.58 0.69-41.13-2-31.52-5.64-60.07-25.19-77.08-52.26-11.98-18.76-18.08-41.02-18.02-63.24V212.02c-0.17-12.1 0.42-24.31 3.39-36.09 7.12-29.76 26.65-56.25 52.88-71.97m48.55 30.78c-23.27 3.84-43.95 20.29-52.84 42.16-3.94 9.16-5.49 19.18-5.48 29.11 0.01 151.3 0 302.61 0 453.91-0.05 6.75-0.07 13.55 1.02 20.25 2.75 17.34 12.38 33.48 26.33 44.15 11.99 9.4 27.14 14.51 42.35 14.67 207.68 0.02 415.37 0 623.05 0.01 10.35-0.06 20.7 0.1 31.05-0.08 19.04-0.59 37.6-9.39 50.11-23.75 10.81-12.18 17.08-28.21 17.48-44.49 0.25-11.56 0.04-23.12 0.11-34.68V215.96c-0.03-5.97 0.16-11.96-0.35-17.92-1.43-18.83-11-36.86-25.73-48.66-11.96-9.74-27.22-15.34-42.64-15.62-217.68-0.02-435.35 0-653.03-0.02-3.83 0.02-7.65 0.39-11.43 1z" p-id="18267" fill="#666666"></path><path d="M488.56 204.8c42.78-4.24 86.78 3.25 125.39 22.3 32.89 15.94 61.86 39.85 83.85 69.03 20.87 27.52 35.46 59.78 42.29 93.64 8.48 41.58 5.4 85.48-8.99 125.42-12.6 35.2-33.92 67.2-61.44 92.5-25.18 23.21-55.53 40.82-88.25 50.95-43.14 13.49-90.21 14.01-133.66 1.55-32.64-9.29-63.13-25.95-88.68-48.27-26.31-22.9-47.41-51.78-61.1-83.87-20.39-47.26-24.22-101.36-11.08-151.1 14.67-56.57 51.78-106.82 101.33-137.74 30.19-19.02 64.82-30.93 100.34-34.41m14.69 45.55c-14.66 0.72-29.25 3.08-43.33 7.21-45.27 13-84.92 44.09-108.64 84.75-15.11 25.64-23.85 54.97-25.29 84.69-2.21 40.88 9.67 82.34 33.21 115.84 19.91 28.52 47.88 51.38 79.91 64.96 33.16 14.21 70.51 18.33 105.99 11.89 36.28-6.44 70.46-24.09 96.74-49.9 26.12-25.22 44.53-58.31 52.17-93.8 8.94-40.81 3.67-84.63-15.02-122.03-15.53-31.57-40.29-58.47-70.33-76.75-31.41-19.25-68.64-28.62-105.41-26.86z" p-id="18268" fill="#666666"></path><path d="M492.53 328.72c14.71-1.71 29.85 1.14 43.05 7.8 20.69 10.6 41.39 21.18 62.11 31.73 13.8 7.18 25.45 18.59 32.54 32.46 9.26 17.69 11.07 39.03 5.33 58.11-5.66 19.38-19.59 36.04-37.49 45.33-19.83 10.1-39.64 20.25-59.47 30.37-11.17 6.11-23.79 9.78-36.57 9.76-18.48 0.43-36.96-6.38-50.96-18.43-13.43-11.31-22.62-27.48-25.59-44.77-1.66-9.26-1.15-18.7-1.23-28.06 0.04-16.35-0.08-32.71 0.06-49.06 0.23-14.77 4.65-29.51 12.96-41.75 12.33-18.53 33.13-31.12 55.26-33.49m2.71 46.61c-9.66 2.01-18.3 8.79-22.07 17.98-2.15 4.91-2.47 10.35-2.43 15.64 0.02 18.69 0.01 37.38 0 56.07 0.03 4.71 0.41 9.55 2.29 13.93 3.29 8.14 10.33 14.61 18.67 17.33 7.39 2.55 15.76 1.86 22.69-1.72 20.56-10.48 41.09-20.99 61.65-31.47 4.69-2.39 8.73-6.05 11.62-10.45 7.45-11.44 5.8-27.85-3.88-37.5-4.05-4.29-9.63-6.45-14.71-9.21-18.13-9.2-36.22-18.5-54.35-27.72-5.92-3.11-12.91-4.29-19.48-2.88z" p-id="18269" fill="#666666"></path></svg>