<?xml version="1.0" standalone="no"?><!DOCTYPE svg PUBLIC "-//W3C//DTD SVG 1.1//EN" "http://www.w3.org/Graphics/SVG/1.1/DTD/svg11.dtd"><svg t="1615372751161" class="icon" viewBox="0 0 1024 1024" version="1.1" xmlns="http://www.w3.org/2000/svg" p-id="33842" xmlns:xlink="http://www.w3.org/1999/xlink" width="200" height="200"><defs><style type="text/css"></style></defs><path d="M1024.035584 209.152A161.024 161.024 0 0 0 865.827584 51.2H607.523584a60.16 60.16 0 0 0-40.96 23.808A69.12 69.12 0 0 1 512.035584 104.96a69.376 69.376 0 0 1-54.784-29.952A55.808 55.808 0 0 0 411.427584 51.2H151.843584A161.536 161.536 0 0 0 0.035584 215.808v558.336a160.512 160.512 0 0 0 157.952 157.952h223.744a51.2 51.2 0 0 1 25.6 11.52A153.6 153.6 0 0 0 512.035584 985.856a160.256 160.256 0 0 0 104.96-41.984 42.24 42.24 0 0 1 29.184-11.776h226.048A161.536 161.536 0 0 0 1024.035584 768V209.152zM512.035584 884.736a53.248 53.248 0 0 1-35.584-14.336l-12.8-10.24a142.592 142.592 0 0 0-85.76-28.928H158.243584A60.672 60.672 0 0 1 102.435584 768V215.808A60.672 60.672 0 0 1 158.243584 153.6h231.936l3.84 4.096a170.496 170.496 0 0 0 82.176 44.288v347.904a51.2 51.2 0 0 0 102.4 0v-358.4A165.632 165.632 0 0 0 633.891584 153.6h231.936a59.392 59.392 0 0 1 57.088 63.488V768a60.672 60.672 0 0 1-57.088 63.488h-219.648a142.336 142.336 0 0 0-97.024 37.888 60.16 60.16 0 0 1-37.12 15.36z" p-id="33843" fill="#00ac81"></path></svg>