<?xml version="1.0" standalone="no"?><!DOCTYPE svg PUBLIC "-//W3C//DTD SVG 1.1//EN" "http://www.w3.org/Graphics/SVG/1.1/DTD/svg11.dtd"><svg t="1615370843742" class="icon" viewBox="0 0 1024 1024" version="1.1" xmlns="http://www.w3.org/2000/svg" p-id="19251" xmlns:xlink="http://www.w3.org/1999/xlink" width="200" height="200"><defs><style type="text/css"></style></defs><path d="M318.4 686.4c-81.6 0-148.8-67.2-148.8-148.8s67.2-148.8 148.8-148.8 148.8 67.2 148.8 148.8-67.2 148.8-148.8 148.8z m0-249.6c-56 0-102.4 46.4-102.4 102.4 0 56 46.4 102.4 102.4 102.4s102.4-46.4 102.4-102.4c0-57.6-46.4-102.4-102.4-102.4z" fill="#666666" p-id="19252"></path><path d="M880 926.4H608c-12.8 0-24-11.2-24-24s11.2-24 24-24h272c9.6 0 17.6-8 17.6-17.6V161.6c0-9.6-8-17.6-17.6-17.6H334.4c-9.6 0-17.6 8-17.6 17.6V320c0 12.8-11.2 24-24 24s-24-11.2-24-24v-158.4c0-35.2 28.8-64 64-64H880c35.2 0 64 28.8 64 64V864c0 33.6-28.8 62.4-64 62.4z" fill="#666666" p-id="19253"></path><path d="M771.2 289.6h-320c-12.8 0-24-11.2-24-24s11.2-24 24-24h320c12.8 0 24 11.2 24 24s-11.2 24-24 24zM771.2 411.2H568c-12.8 0-24-11.2-24-24s11.2-24 24-24h203.2c12.8 0 24 11.2 24 24 0 14.4-11.2 24-24 24z" fill="#666666" p-id="19254"></path><path d="M104 883.2h-3.2c-12.8-1.6-22.4-12.8-20.8-25.6l11.2-86.4c6.4-44.8 25.6-64 65.6-64H480c40 0 59.2 19.2 65.6 62.4l1.6 9.6 116.8-246.4c4.8-11.2 19.2-16 32-11.2 11.2 4.8 16 19.2 11.2 32l-140.8 297.6s0 1.6-1.6 1.6l-11.2 19.2c-4.8 8-14.4 12.8-25.6 11.2-9.6-1.6-17.6-9.6-19.2-20.8l-11.2-86.4c-3.2-22.4-4.8-22.4-19.2-22.4H156.8c-14.4 0-16 0-19.2 22.4l-11.2 86.4c-1.6 12.8-11.2 20.8-22.4 20.8z" fill="#666666" p-id="19255"></path></svg>