<?xml version="1.0" standalone="no"?><!DOCTYPE svg PUBLIC "-//W3C//DTD SVG 1.1//EN" "http://www.w3.org/Graphics/SVG/1.1/DTD/svg11.dtd"><svg t="1615370424312" class="icon" viewBox="0 0 1026 1024" version="1.1" xmlns="http://www.w3.org/2000/svg" p-id="16774" xmlns:xlink="http://www.w3.org/1999/xlink" width="200.390625" height="200"><defs><style type="text/css"></style></defs><path d="M950.379 43.748H76.354C34.116 43.748 0 77.992 0 120.102v819.042c0 42.243 34.244 76.358 76.354 76.358h874.154c42.237 0 76.354-34.244 76.354-76.358V120.102c0-42.238-34.239-76.354-76.483-76.354z m0 0" fill="#63C2BF" p-id="16775"></path><path d="M849.66 894.903H177.079c-26.867 0-48.736-21.87-48.736-48.735V347.547c0-26.868 21.87-48.737 48.736-48.737h672.704c26.868 0 48.736 21.869 48.736 48.737v498.499c0 26.987-21.869 48.857-48.859 48.857z m0 0" fill="#FFFFFF" p-id="16776"></path><path d="M372.03 416.408H244.69a11.73 11.73 0 0 0-11.748 11.744v127.344a11.73 11.73 0 0 0 11.748 11.745h127.462c6.499 0 11.752-5.246 11.752-11.745V428.152c-0.128-6.498-5.375-11.744-11.874-11.744z m205.074 0h-127.47a11.73 11.73 0 0 0-11.747 11.744v127.344a11.73 11.73 0 0 0 11.747 11.745h127.47a11.73 11.73 0 0 0 11.745-11.745V428.152a11.728 11.728 0 0 0-11.745-11.744z m205.069 0H654.709c-6.498 0-11.624 5.246-11.624 11.617v127.471a11.73 11.73 0 0 0 11.747 11.745h127.47c6.498 0 11.618-5.246 11.618-11.623V428.152c-0.122-6.498-5.37-11.744-11.747-11.744zM372.03 648.219H244.562c-6.501 0-11.619 5.25-11.619 11.627v127.462a11.731 11.731 0 0 0 11.748 11.746h127.462c6.499 0 11.624-5.247 11.624-11.619V659.967a11.735 11.735 0 0 0-11.747-11.748z m205.074 0h-127.47a11.734 11.734 0 0 0-11.747 11.748v127.341a11.732 11.732 0 0 0 11.747 11.746h127.47a11.73 11.73 0 0 0 11.745-11.746V659.967a11.731 11.731 0 0 0-11.745-11.748z m0 0" fill="#EF7E3D" p-id="16777"></path><path d="M654.709 799.054h127.464a11.732 11.732 0 0 0 11.747-11.746V659.967a11.735 11.735 0 0 0-11.747-11.748H654.709a11.733 11.733 0 0 0-11.745 11.748v127.341a11.73 11.73 0 0 0 11.745 11.746z m0 0" fill="#8986BF" p-id="16778"></path></svg>