<?xml version="1.0" standalone="no"?><!DOCTYPE svg PUBLIC "-//W3C//DTD SVG 1.1//EN" "http://www.w3.org/Graphics/SVG/1.1/DTD/svg11.dtd"><svg t="1615373078669" class="icon" viewBox="0 0 1206 1024" version="1.1" xmlns="http://www.w3.org/2000/svg" p-id="39828" xmlns:xlink="http://www.w3.org/1999/xlink" width="235.546875" height="200"><defs><style type="text/css"></style></defs><path d="M1190.767947 529.467399L639.876094 16.677576a55.565461 55.565461 0 0 0-79.37923 0L17.542934 529.467399a53.977876 53.977876 0 0 0-13.494469 60.328215 54.771668 54.771668 0 0 0 51.596499 35.720653h116.687467v342.918272a55.565461 55.565461 0 0 0 55.565461 55.565461h281.002473a55.565461 55.565461 0 0 0 55.565461-55.565461v-143.676405h79.379229v143.676405a54.771668 54.771668 0 0 0 54.771669 55.565461h276.239719a55.565461 55.565461 0 0 0 55.565461-55.565461V625.516267h117.481259a54.771668 54.771668 0 0 0 51.5965-35.720653 53.977876 53.977876 0 0 0-8.731716-60.328215z m-269.88938 383.40168H754.975977V769.192673a55.565461 55.565461 0 0 0-55.565461-55.565461h-190.510151a54.771668 54.771668 0 0 0-54.771668 55.565461v143.676406H282.669561V569.950807a54.771668 54.771668 0 0 0-54.771669-55.565461h-32.545484l407.215448-381.814095 406.421656 381.814095h-33.339277a54.771668 54.771668 0 0 0-54.771668 55.565461z" p-id="39829" fill="#00ac81"></path></svg>