<?xml version="1.0" standalone="no"?><!DOCTYPE svg PUBLIC "-//W3C//DTD SVG 1.1//EN" "http://www.w3.org/Graphics/SVG/1.1/DTD/svg11.dtd"><svg t="1615519816073" class="icon" viewBox="0 0 1024 1024" version="1.1" xmlns="http://www.w3.org/2000/svg" p-id="2918" xmlns:xlink="http://www.w3.org/1999/xlink" width="32" height="32"><defs><style type="text/css"></style></defs><path d="M926.533109 140.298587A764.818844 764.818844 0 0 1 701.849644 92.79146 762.236935 762.236935 0 0 1 549.976014 11.834266a66.957509 66.957509 0 0 0-76.022878 0 757.70425 757.70425 0 0 1-151.816254 80.957194 762.638565 762.638565 0 0 1-224.683465 47.507127A52.556194 52.556194 0 0 0 47.766011 192.567902v293.247495a512.53764 512.53764 0 0 0 62.080569 244.879732 590.9703 590.9703 0 0 0 73.211467 108.32543c160.65212 182.856538 322.107501 184.979441 329.049968 184.979441s168.914229-2.868788 328.763089-184.979441A589.47853 589.47853 0 0 0 914.139946 730.637753a512.53764 512.53764 0 0 0 62.080569-244.822356V192.567902a52.498818 52.498818 0 0 0-49.687406-52.269315z m-4.991691 345.51681a458.03067 458.03067 0 0 1-55.367605 218.659011A533.594542 533.594542 0 0 1 799.847437 803.275462c-142.636133 162.430769-286.878786 166.389696-287.739422 166.389696s-144.873787-3.327794-288.026302-166.389696a535.258439 535.258439 0 0 1-66.326375-98.4568 458.489676 458.489676 0 0 1-55.367606-219.003265V194.690805A819.383189 819.383189 0 0 0 341.988894 143.454253 816.916032 816.916032 0 0 0 505.108172 56.702108a11.991533 11.991533 0 0 1 13.712806 0A816.916032 816.916032 0 0 0 681.940256 143.454253a819.383189 819.383189 0 0 0 239.601162 51.007049v291.354095z" fill="#00cc99" p-id="2919"></path><path d="M335.333306 484.438379a27.253485 27.253485 0 0 0-38.441757 3.040915 27.31086 27.31086 0 0 0 3.040915 38.499133l168.110969 143.439393a27.31086 27.31086 0 0 0 38.441757-2.983539l241.609314-283.550993a27.31086 27.31086 0 1 0-41.597424-35.400842l-223.765453 262.780968-147.398321-125.825035z" fill="#00cc99" p-id="2920"></path></svg>