<?xml version="1.0" standalone="no"?><!DOCTYPE svg PUBLIC "-//W3C//DTD SVG 1.1//EN" "http://www.w3.org/Graphics/SVG/1.1/DTD/svg11.dtd"><svg t="1615369805875" class="icon" viewBox="0 0 1064 1024" version="1.1" xmlns="http://www.w3.org/2000/svg" p-id="4393" xmlns:xlink="http://www.w3.org/1999/xlink" width="207.8125" height="200"><defs><style type="text/css"></style></defs><path d="M482.685604 562.495997l328.041707-189.602644 188.14603 108.335698V284.707488H339.876699v714.226605h243.315301l-100.506396-57.657654zM0 39.874881V958.937889a39.935512 39.935512 0 0 0 39.87482 39.935512h219.706009V0.000061H39.87482A39.87482 39.87482 0 0 0 0 39.874881z m998.934033 0A39.935512 39.935512 0 0 0 958.937828 0.000061H339.876699v203.926019h659.057334z m0 645.765727l-151.245131 87.154096v251.205296l43.334279-25.065907 107.910852-62.088189 65.972495-38.600283v-250.53768z" fill="#3CB58E" p-id="4394"></path><path d="M556.608786 898.245621l174.368885 100.506396 42.848741 25.065906v-251.023219l-217.217626-125.086763z m471.336151-314.750099l-29.010904-16.751066-188.14603-108.821236-217.278318 125.754378 217.217626 125.086764 188.14603-108.335698 29.010903-16.751066z" fill="#3CB58E" p-id="4395"></path></svg>