<svg xmlns="http://www.w3.org/2000/svg" xmlns:xlink="http://www.w3.org/1999/xlink" viewBox="0 0 118.8 132.31"><defs><style>.cls-1{fill:url(#未命名的渐变_10);}.cls-2{fill:#fff;}</style><linearGradient id="未命名的渐变_10" x1="23.57" y1="61.91" x2="118.8" y2="61.91" gradientUnits="userSpaceOnUse"><stop offset="0" stop-color="#afdbca"/><stop offset="1" stop-color="#fff" stop-opacity="0"/></linearGradient></defs><title>白色直播学院</title><g id="图层_2" data-name="图层 2"><g id="图层_1-2" data-name="图层 1"><path class="cls-1" d="M23.57,7.69V116.24s22.58-4.89,35.22,4.38c0,0,28.83-13.48,60,3.21V7S75.82-9.84,50.54,8.7C50.54,8.7,40.42,1.45,23.57,7.69Z"/><path class="cls-2" d="M102.58,18.75v25h4.65V17.57a2.56,2.56,0,0,0-.5-1.51c-.75-1-5.61-6-27.47-6s-26.72,5-27.47,6a2.56,2.56,0,0,0-.5,1.51v107.8c-3.78-1.6-10.7-3.2-23.32-3.2s-19.54,1.6-23.31,3.2V18.75c1.69-1.09,7.51-3.81,23.31-3.81,3.8,0,7.28.16,10.37.47a2.36,2.36,0,0,0,2.54-2.2,2.43,2.43,0,0,0-2.1-2.67A107.56,107.56,0,0,0,28,10.05c-21.86,0-26.72,5-27.47,6A2.56,2.56,0,0,0,0,17.57V129.69a2.55,2.55,0,0,0,1.75,2.55,2.08,2.08,0,0,0,2.49-1.11c.61-.54,5.26-4.07,23.75-4.07s23.13,3.53,23.74,4.07a2.09,2.09,0,0,0,2.49,1.11A2.54,2.54,0,0,0,56,129.69V18.75c1.69-1.07,7.49-3.81,23.3-3.81S100.88,17.66,102.58,18.75Z"/><path class="cls-2" d="M102.58,67.92v57.46c-3.78-1.6-10.72-3.2-23.32-3.2-3.38,0-6.54.12-9.39.35a2.42,2.42,0,0,0-2.16,2.62,2.38,2.38,0,0,0,2.51,2.24c2.73-.22,5.78-.33,9-.33,18.48,0,23.14,3.53,23.75,4.07a2,2,0,0,0,1.89,1.18,3.26,3.26,0,0,0,.6-.07,2.53,2.53,0,0,0,1.73-2.55V67.92Z"/><ellipse class="cls-2" cx="104.9" cy="43.63" rx="2.32" ry="2.31"/><ellipse class="cls-2" cx="104.9" cy="67.92" rx="2.32" ry="2.31"/><ellipse class="cls-2" cx="104.9" cy="56.01" rx="2.32" ry="2.31"/><rect class="cls-2" x="78.18" y="35.22" width="5.73" height="55.62" rx="2.87"/></g></g></svg>