<svg xmlns="http://www.w3.org/2000/svg" xmlns:xlink="http://www.w3.org/1999/xlink" viewBox="0 0 171.99 157.85"><defs><style>.cls-1{fill:url(#未命名的渐变_7);}.cls-2{fill:#10755b;}.cls-3{fill:#3cb58e;}</style><linearGradient id="未命名的渐变_7" x1="32.43" y1="65.87" x2="171.99" y2="65.87" gradientUnits="userSpaceOnUse"><stop offset="0" stop-color="#afdbca"/><stop offset="1" stop-color="#fff"/></linearGradient></defs><title>资源 40</title><g id="图层_2" data-name="图层 2"><g id="图层_1-2" data-name="图层 1"><rect class="cls-1" x="32.43" y="8.34" width="139.55" height="115.06"/><path class="cls-2" d="M98.25,114.71a2.85,2.85,0,1,0,2.85-2.85,2.86,2.86,0,0,0-2.85,2.85Z"/><path class="cls-2" d="M115.42,114.71a2.85,2.85,0,1,0,2.85-2.85,2.85,2.85,0,0,0-2.85,2.85Z"/><path class="cls-2" d="M132.58,114.71a2.86,2.86,0,1,0,2.86-2.85,2.86,2.86,0,0,0-2.86,2.85Z"/><path class="cls-3" d="M83.55,78.44a1.73,1.73,0,0,0,2.39,0l33.81-32a1.75,1.75,0,0,0-2.41-2.55L84.73,74.73,63.4,55.09a1.75,1.75,0,0,0-2.35,0L37.84,75.84a1.76,1.76,0,0,0,2.36,2.62l22-19.69L83.55,78.44Z"/><path class="cls-2" d="M149.63,87.58h-2V20.21h7.2a2.91,2.91,0,1,0,0-5.81h-73V2.91a2.91,2.91,0,1,0-5.81,0V14.4H2.91a2.91,2.91,0,1,0,0,5.81H9.56V124a2.9,2.9,0,0,0,2.91,2.9H55L30.46,152.69a2.89,2.89,0,0,0,.11,4.1,2.92,2.92,0,0,0,2,.81,2.84,2.84,0,0,0,2.1-.89l28.38-29.8H78.83V134a8.09,8.09,0,0,0,8.08,8.08h22L123.09,157a2.94,2.94,0,0,0,2.1.9,2.83,2.83,0,0,0,1.07-.21,2.9,2.9,0,0,0,1.83-2.69V142.09h21.54a8.09,8.09,0,0,0,8.08-8.08V95.66A8.1,8.1,0,0,0,149.63,87.58ZM80.75,94.65v27.87H13.59V19.35L144,19V89H88.69C81.14,89,80.75,94.65,80.75,94.65ZM151.92,134h0a2.27,2.27,0,0,1-2.27,2.27H125.19a2.92,2.92,0,0,0-2.91,2.91v8.5l-10-10.51a2.89,2.89,0,0,0-2.1-.9H86.91A2.27,2.27,0,0,1,84.64,134V95.66a2.27,2.27,0,0,1,2.27-2.27h62.74a2.27,2.27,0,0,1,2.27,2.27Z"/></g></g></svg>