<?xml version="1.0" standalone="no"?><!DOCTYPE svg PUBLIC "-//W3C//DTD SVG 1.1//EN" "http://www.w3.org/Graphics/SVG/1.1/DTD/svg11.dtd"><svg t="1615520175166" class="icon" viewBox="0 0 1054 1024" version="1.1" xmlns="http://www.w3.org/2000/svg" p-id="4458" xmlns:xlink="http://www.w3.org/1999/xlink" width="32.9375" height="32"><defs><style type="text/css"></style></defs><path d="M456.172318 599.435226L266.527053 487.779862a47.490467 47.490467 0 0 0-47.490466 0L25.275482 599.435226A49.020715 49.020715 0 0 0 0 640.540864v224.418839a48.862414 48.862414 0 0 0 25.275482 41.05287l191.755952 111.708132a49.86499 49.86499 0 0 0 48.440276 0l189.645264-111.708132c14.774812-8.389982 21.106874-24.220138 21.106874-41.05287v-224.418839a43.216325 43.216325 0 0 0-20.05153-41.105638z m575.162321 0l-191.703185-111.655364a49.49562 49.49562 0 0 0-48.440276 0L600.49057 599.435226a46.962795 46.962795 0 0 0-23.164794 41.105638v224.418839a49.12625 49.12625 0 0 0 23.164794 41.05287l191.755952 111.708132a49.86499 49.86499 0 0 0 48.440276 0l190.700608-111.708132a46.698959 46.698959 0 0 0 23.164794-41.05287v-224.418839a48.123673 48.123673 0 0 0-23.164794-41.105638z m-289.691848-481.447799L552.050294 6.332062a47.490467 47.490467 0 0 0-47.490467 0L311.854066 117.987427a48.809647 48.809647 0 0 0-25.275482 41.105637v224.366072a48.809647 48.809647 0 0 0 25.275482 41.105638l191.755952 111.655364a49.49562 49.49562 0 0 0 48.440276 0l189.645264-111.655364c14.722045-8.44275 21.106874-24.220138 21.106874-41.105638V160.148408a45.74915 45.74915 0 0 0-21.106874-42.160981z" fill="#00cc99" p-id="4459"></path></svg>