<?xml version="1.0" standalone="no"?><!DOCTYPE svg PUBLIC "-//W3C//DTD SVG 1.1//EN" "http://www.w3.org/Graphics/SVG/1.1/DTD/svg11.dtd"><svg t="1615520141909" class="icon" viewBox="0 0 1030 1024" version="1.1" xmlns="http://www.w3.org/2000/svg" p-id="3605" xmlns:xlink="http://www.w3.org/1999/xlink" width="32.1875" height="32"><defs><style type="text/css"></style></defs><path d="M440.555906 539.356814L33.650501 333.785142a61.102226 61.102226 0 0 1 0-109.174371L441.061928 18.975847A173.375985 173.375985 0 0 1 597.10664 18.975847L993.069307 217.083685a67.617267 67.617267 0 0 1 0 120.686385L597.359652 539.103803a173.375985 173.375985 0 0 1-156.803746 0z" fill="#00cc99" p-id="3606"></path><path d="M517.787602 788.446427a265.661853 265.661853 0 0 1-116.638204-26.945702L32.258939 580.154884a56.231759 56.231759 0 0 1 49.52696-101.204515l368.890458 181.472346a153.198335 153.198335 0 0 0 134.91827-0.379517l362.501923-180.713312a56.168506 56.168506 0 0 1 50.159488 100.571987l-362.375418 180.586807a264.776313 264.776313 0 0 1-118.093018 27.957747z" fill="#00cc99" p-id="3607"></path><path d="M517.787602 1023.999937a265.661853 265.661853 0 0 1-116.638204-26.88245L32.258939 815.961405a56.168506 56.168506 0 1 1 49.52696-101.204515l368.890458 181.34584a153.198335 153.198335 0 0 0 134.91827-0.379516l362.501923-180.713313a56.168506 56.168506 0 0 1 50.159488 100.571987l-362.375418 180.713313a264.71306 264.71306 0 0 1-118.093018 27.641483z" fill="#00cc99" p-id="3608"></path></svg>