<?xml version="1.0" standalone="no"?><!DOCTYPE svg PUBLIC "-//W3C//DTD SVG 1.1//EN" "http://www.w3.org/Graphics/SVG/1.1/DTD/svg11.dtd"><svg t="1615519809155" class="icon" viewBox="0 0 1025 1024" version="1.1" xmlns="http://www.w3.org/2000/svg" p-id="2744" xmlns:xlink="http://www.w3.org/1999/xlink" width="32.03125" height="32"><defs><style type="text/css"></style></defs><path d="M512.583513 810.434342a298.239838 298.239838 0 1 1 298.239838-298.239838 298.239838 298.239838 0 0 1-298.239838 298.239838z m0-538.841585A240.925921 240.925921 0 1 0 753.444599 512.194504a241.120425 241.120425 0 0 0-240.861086-240.731417zM287.217931 57.184247H28.592124a28.592124 28.592124 0 0 1 0-57.184247H287.217931a28.592124 28.592124 0 1 1 0 57.184247z" fill="#00cc99" p-id="2745"></path><path d="M28.592124 315.810054A28.592124 28.592124 0 0 1 0 287.217931V28.592124a28.592124 28.592124 0 0 1 57.184247 0V287.217931a28.656958 28.656958 0 0 1-28.592123 28.592123z m968.112447 0a28.656958 28.656958 0 0 1-28.592123-28.592123V28.592124a28.592124 28.592124 0 0 1 57.184247 0V287.217931a28.592124 28.592124 0 0 1-28.592124 28.592123z" fill="#00cc99" p-id="2746"></path><path d="M996.704571 57.184247h-258.496137a28.592124 28.592124 0 1 1 0-57.184247h258.496137a28.592124 28.592124 0 0 1 0 57.184247z m0 966.815753h-258.496137a28.592124 28.592124 0 1 1 0-57.184247h258.560972a28.592124 28.592124 0 0 1 0 57.184247z" fill="#00cc99" p-id="2747"></path><path d="M996.704571 1024a28.656958 28.656958 0 0 1-28.592123-28.592124v-258.625807a28.592124 28.592124 0 1 1 57.184247 0v258.625807a28.592124 28.592124 0 0 1-28.592124 28.592124z m-968.112447 0A28.592124 28.592124 0 0 1 0 995.407876v-258.625807a28.592124 28.592124 0 0 1 57.184247 0v258.625807a28.656958 28.656958 0 0 1-28.592123 28.592124z" fill="#00cc99" p-id="2748"></path><path d="M287.217931 1024H28.592124a28.592124 28.592124 0 0 1 0-57.184247H287.217931a28.592124 28.592124 0 0 1 0 57.184247z m226.467772-406.060023A105.875142 105.875142 0 1 1 619.496011 512.194504a106.069647 106.069647 0 0 1-105.810308 105.745473z m0-154.566038a48.690895 48.690895 0 1 0 48.626061 48.820565 48.820565 48.820565 0 0 0-48.626061-48.820565z" fill="#00cc99" p-id="2749"></path></svg>