<?xml version="1.0" standalone="no"?><!DOCTYPE svg PUBLIC "-//W3C//DTD SVG 1.1//EN" "http://www.w3.org/Graphics/SVG/1.1/DTD/svg11.dtd"><svg t="1615519769764" class="icon" viewBox="0 0 1024 1024" version="1.1" xmlns="http://www.w3.org/2000/svg" p-id="2102" xmlns:xlink="http://www.w3.org/1999/xlink" width="32" height="32"><defs><style type="text/css"></style></defs><path d="M707.975122 38.903022a511.511592 511.511592 0 1 0 277.121856 277.121856A25.59295 25.59295 0 0 0 938.022162 335.88547a460.441496 460.441496 0 1 1-249.444412-249.444412 25.59295 25.59295 0 0 0 19.628983-47.306426z m-255.987406 562.292174l-126.8067-126.748797a25.59295 25.59295 0 0 0-36.073321 0 25.708756 25.708756 0 0 0 0 36.131224l144.756506 144.756506a25.535048 25.535048 0 0 0 36.073322 0l253.381789-253.381789a25.535048 25.535048 0 0 0 0-36.131224 25.708756 25.708756 0 0 0-36.304932 0l-235.084567 235.37408z" fill="#00cc99" p-id="2103"></path></svg>