<svg xmlns="http://www.w3.org/2000/svg" xmlns:xlink="http://www.w3.org/1999/xlink" viewBox="0 0 153.59 163.9"><defs><style>.cls-1{fill:url(#未命名的渐变_4);}.cls-2{fill:#10755b;}.cls-3{fill:#3cb58e;}</style><linearGradient id="未命名的渐变_4" x1="20.55" y1="66.52" x2="153.59" y2="66.52" gradientUnits="userSpaceOnUse"><stop offset="0" stop-color="#afdbca"/><stop offset="1" stop-color="#fff" stop-opacity="0"/></linearGradient></defs><title>功能大全</title><g id="图层_2" data-name="图层 2"><g id="图层_1-2" data-name="图层 1"><circle class="cls-1" cx="87.07" cy="66.52" r="66.52"/><path class="cls-2" d="M82.05,56a31.62,31.62,0,0,1,9.3,4.8,1.69,1.69,0,0,0,1,.35,1.78,1.78,0,0,0,1.4-.7,1.74,1.74,0,0,0-.35-2.44,34.53,34.53,0,0,0-10.33-5.34A1.75,1.75,0,0,0,82.05,56Zm20.24,15.67a1.73,1.73,0,0,0-1,2.26A31.5,31.5,0,1,1,72.12,54.3a1.75,1.75,0,1,0,0-3.49,35,35,0,1,0,32.43,21.86A1.73,1.73,0,0,0,102.29,71.71Z"/><path class="cls-2" d="M141.57,109.68l-9.32-7.43a62.7,62.7,0,0,0-.05-33.11l9.28-7.41a7.1,7.1,0,0,0,1.73-9.13l-6.89-11.94a7.08,7.08,0,0,0-8.76-3.08L116.45,42c-.07-.09-.16-.16-.23-.25A62.07,62.07,0,0,0,96.41,28.34a64.62,64.62,0,0,0-8.64-2.93L86,13.67a7.07,7.07,0,0,0-7-6H65.15a7.05,7.05,0,0,0-7,6.05L56.34,25.44a60.66,60.66,0,0,0-8.46,2.88A62,62,0,0,0,28.06,41.68l-.37.37L16.62,37.71a7.08,7.08,0,0,0-8.76,3.07L1,52.73a7.07,7.07,0,0,0,1.72,9.12L12,69.28a62.7,62.7,0,0,0,.05,33.11l-9.28,7.4a7.09,7.09,0,0,0-1.73,9.12l6.9,12a7.07,7.07,0,0,0,6.14,3.58,6.85,6.85,0,0,0,2.61-.51l11.11-4.36c.07.09.16.16.23.24a62,62,0,0,0,19.82,13.37,65.44,65.44,0,0,0,8.63,2.93l1.78,11.74a7.08,7.08,0,0,0,7,6.05H79.1a7.11,7.11,0,0,0,7.05-6.05l1.78-11.78a61.1,61.1,0,0,0,8.46-2.88,62.22,62.22,0,0,0,19.82-13.36l.36-.36,11.08,4.34a7.25,7.25,0,0,0,2.62.5,7.06,7.06,0,0,0,6.14-3.57l6.89-12A7.06,7.06,0,0,0,141.57,109.68Zm-1.29,7.38L133.39,129a3.61,3.61,0,0,1-4.47,1.57l-9.78-3.84-1.78-.69h0a2.57,2.57,0,0,0-2.86.57l-.94,1a58.85,58.85,0,0,1-25.72,14.93c-.43.13-.85.23-1.29.35a2.61,2.61,0,0,0-1.93,2.2v0l-.28,1.86-1.57,10.42a3.61,3.61,0,0,1-3.6,3.09H65.36a3.61,3.61,0,0,1-3.6-3.09L60.19,147l-.3-1.9v0A2.58,2.58,0,0,0,58,142.91c-.45-.1-.91-.22-1.36-.34A58.63,58.63,0,0,1,30.9,127.7c-.31-.29-.61-.61-.9-.92a2.68,2.68,0,0,0-2.94-.59h0l-1.75.68-9.82,3.85A3.59,3.59,0,0,1,11,129.15l-6.9-12A3.62,3.62,0,0,1,5,112.54L13.2,106l1.5-1.2a.88.88,0,0,1,.17-.12,2.06,2.06,0,0,0,.84-2.27l-.47-1.67a58.57,58.57,0,0,1-1.92-15A59.2,59.2,0,0,1,15.2,71c.11-.43.23-.87.35-1.3a2.62,2.62,0,0,0-.94-2.78,0,0,0,0,1,0,0l-1.52-1.15L4.84,59.15A3.62,3.62,0,0,1,4,54.49l6.89-12A3.6,3.6,0,0,1,14,40.72a3.56,3.56,0,0,1,1.34.27l9.79,3.83,1.78.7h0A2.61,2.61,0,0,0,29.77,45c.31-.33.63-.65.94-1A58.93,58.93,0,0,1,56.42,29.05l1.29-.34a2.63,2.63,0,0,0,1.94-2.2v0l.28-1.87L61.5,14.21a3.61,3.61,0,0,1,3.59-3.09h13.8a3.61,3.61,0,0,1,3.6,3.09l1.57,10.38.29,1.9v0a2.57,2.57,0,0,0,1.89,2.14L87.6,29a58.67,58.67,0,0,1,25.74,14.86c.32.3.62.62.91.93a2.7,2.7,0,0,0,2.93.59h0l1.74-.68,9.83-3.85a3.59,3.59,0,0,1,4.46,1.57l6.89,11.95a3.6,3.6,0,0,1-.87,4.65l-8.2,6.56-1.45,1.19s0,0,0,0a2.55,2.55,0,0,0-.91,2.72c.12.43.24.89.36,1.34a59.14,59.14,0,0,1,0,29.74c-.1.44-.23.88-.35,1.31a2.64,2.64,0,0,0,.94,2.78h0l1.48,1.19,8.24,6.58a3.55,3.55,0,0,1,.87,4.6Z"/><path class="cls-2" d="M96.9,65.07a1.74,1.74,0,1,0,.44-3.46h0a1.74,1.74,0,1,0-.43,3.46Z"/><circle class="cls-3" cx="72.51" cy="84.66" r="10.3"/></g></g></svg>