<svg xmlns="http://www.w3.org/2000/svg" xmlns:xlink="http://www.w3.org/1999/xlink" viewBox="0 0 176.97 188.84"><defs><style>.cls-1{fill:url(#未命名的渐变_7);}.cls-2{fill:#10755b;}.cls-3{fill:#3cb58e;}</style><linearGradient id="未命名的渐变_7" x1="23.68" y1="76.65" x2="176.97" y2="76.65" gradientUnits="userSpaceOnUse"><stop offset="0" stop-color="#afdbca"/><stop offset="1" stop-color="#fff"/></linearGradient></defs><title>资源 43</title><g id="图层_2" data-name="图层 2"><g id="图层_1-2" data-name="图层 1"><circle class="cls-1" cx="100.33" cy="76.65" r="76.65"/><path class="cls-2" d="M94.54,64.57a36.35,36.35,0,0,1,10.71,5.53,1.93,1.93,0,0,0,1.21.4,2,2,0,0,0,1.2-3.62,40.09,40.09,0,0,0-11.9-6.15,2,2,0,0,0-1.22,3.84Zm23.31,18.05a2,2,0,0,0-1.1,2.61A36.29,36.29,0,1,1,83.1,62.56a2,2,0,1,0,0-4,40.29,40.29,0,1,0,37.36,25.18A2,2,0,0,0,117.85,82.62Z"/><path class="cls-2" d="M163.12,126.38l-10.74-8.57a72.08,72.08,0,0,0-.06-38.15L163,71.12a8.17,8.17,0,0,0,2-10.51l-7.93-13.77A8.17,8.17,0,0,0,147,43.3l-12.81,5c-.08-.1-.18-.18-.26-.28a71.6,71.6,0,0,0-22.83-15.4,74.69,74.69,0,0,0-10-3.37l-2-13.53a8.15,8.15,0,0,0-8.12-7H75.06a8.15,8.15,0,0,0-8.1,7l-2,13.57a70.84,70.84,0,0,0-9.75,3.31A71.6,71.6,0,0,0,32.33,48l-.42.42-12.77-5A8.15,8.15,0,0,0,9.05,47L1.11,60.75a8.15,8.15,0,0,0,2,10.51l10.74,8.57A72,72,0,0,0,13.9,118L3.2,126.5a8.16,8.16,0,0,0-2,10.51l7.93,13.77a8.18,8.18,0,0,0,7.08,4.12,7.8,7.8,0,0,0,3-.59l12.81-5c.08.1.18.18.26.28A71.6,71.6,0,0,0,55.14,165a74.69,74.69,0,0,0,10,3.37l2,13.53a8.14,8.14,0,0,0,8.1,7h15.9a8.17,8.17,0,0,0,8.12-7l2-13.57a70.84,70.84,0,0,0,9.75-3.31,71.6,71.6,0,0,0,22.83-15.4l.42-.42,12.77,5a8.1,8.1,0,0,0,10.09-3.53l7.94-13.77A8.13,8.13,0,0,0,163.12,126.38Zm-1.49,8.5-7.94,13.77a4.16,4.16,0,0,1-5.15,1.8L137.27,146l-2.05-.8h0a3,3,0,0,0-3.3.66q-.54.57-1.08,1.11a67.75,67.75,0,0,1-29.63,17.2l-1.49.4a3,3,0,0,0-2.23,2.54v0l-.32,2.15-1.81,12a4.15,4.15,0,0,1-4.14,3.55H75.3a4.15,4.15,0,0,1-4.14-3.55l-1.81-12L69,167.16v0a3,3,0,0,0-2.17-2.47l-1.57-.41a67.45,67.45,0,0,1-29.66-17.12c-.37-.34-.71-.71-1-1.07a3.11,3.11,0,0,0-3.38-.68h0l-2,.78-11.31,4.45a4.16,4.16,0,0,1-5.15-1.81L4.75,135a4.17,4.17,0,0,1,1-5.37l9.44-7.56,1.73-1.38a1.21,1.21,0,0,1,.2-.14,2.38,2.38,0,0,0,1-2.62L17.56,116a67.79,67.79,0,0,1,0-34.26c.12-.51.26-1,.4-1.51a3,3,0,0,0-1.09-3.2,0,0,0,0,1,0,0l-1.75-1.32L5.58,68.15a4.17,4.17,0,0,1-1-5.37L12.51,49a4.16,4.16,0,0,1,3.6-2.09,4.31,4.31,0,0,1,1.55.3l11.27,4.43,2.05.8h0a3,3,0,0,0,3.3-.66q.54-.57,1.08-1.11A67.75,67.75,0,0,1,65,33.48c.5-.14,1-.26,1.49-.41a3,3,0,0,0,2.23-2.53v0l.32-2.15,1.81-12A4.16,4.16,0,0,1,75,12.81H90.9A4.16,4.16,0,0,1,95,16.37l1.81,12,.34,2.19v0A3,3,0,0,0,99.36,33c.52.12,1,.27,1.57.41a67.45,67.45,0,0,1,29.66,17.12c.37.34.71.7,1,1.07a3.11,3.11,0,0,0,3.38.68h0l2-.78,11.31-4.45a4.17,4.17,0,0,1,5.15,1.81l7.94,13.77a4.17,4.17,0,0,1-1,5.37L151,75.56l-1.67,1.37a0,0,0,0,0,0,0,3,3,0,0,0-1.05,3.14c.14.5.28,1,.42,1.54a67.83,67.83,0,0,1,0,34.27c-.12.51-.26,1-.4,1.51a3,3,0,0,0,1.09,3.2,0,0,0,0,1,0,0l1.71,1.36,9.48,7.58a4.1,4.1,0,0,1,1,5.31Z"/><path class="cls-2" d="M111.64,75a2,2,0,0,0,.51-4h0a2,2,0,1,0-.51,4Z"/><circle class="cls-3" cx="83.55" cy="97.55" r="11.87"/></g></g></svg>