<?xml version="1.0" standalone="no"?><!DOCTYPE svg PUBLIC "-//W3C//DTD SVG 1.1//EN" "http://www.w3.org/Graphics/SVG/1.1/DTD/svg11.dtd"><svg t="1615369706396" class="icon" viewBox="0 0 1024 1024" version="1.1" xmlns="http://www.w3.org/2000/svg" p-id="4267" xmlns:xlink="http://www.w3.org/1999/xlink" width="200" height="200"><defs><style type="text/css"></style></defs><path d="M870.211197 0H580.072142a68.243781 68.243781 0 0 0-68.243781 68.243781v102.434328H682.437814v85.339055H511.828361v113.762521H682.437814v85.339055H511.828361v113.76252H682.437814v85.339055H511.828361v301.535904a68.243781 68.243781 0 0 0 68.243781 68.243781h290.139055a68.655716 68.655716 0 0 0 68.655716-68.243781V68.243781a68.655716 68.655716 0 0 0-68.655716-68.243781zM725.141669 910.237479a71.127321 71.127321 0 1 1 71.127322-71.127321 71.127321 71.127321 0 0 1-71.127322 71.127321zM85.133087 312.864097h284.440631v512.034327H85.133087zM85.133087 910.237479v45.51874a68.243781 68.243781 0 0 0 68.243782 68.243781h147.953067a68.243781 68.243781 0 0 0 68.243782-68.243781v-45.51874zM85.133087 227.593698L227.38773 0l142.185988 227.593698z" fill="#3CB58E" p-id="4268"></path></svg>