<?xml version="1.0" standalone="no"?><!DOCTYPE svg PUBLIC "-//W3C//DTD SVG 1.1//EN" "http://www.w3.org/Graphics/SVG/1.1/DTD/svg11.dtd"><svg t="1615369496621" class="icon" viewBox="0 0 1024 1024" version="1.1" xmlns="http://www.w3.org/2000/svg" p-id="3372" xmlns:xlink="http://www.w3.org/1999/xlink" width="200" height="200"><defs><style type="text/css"></style></defs><path d="M1023.212841 511.943601a511.57445 511.57445 0 1 0-575.033504 507.261698 253.220111 253.220111 0 0 0 52.215096 4.774832 161.009381 161.009381 0 0 0 16.788925-0.872819 511.36908 511.36908 0 0 0 506.029483-511.163711zM949.896069 519.285546a502.743578 502.743578 0 0 0-10.011744-74.754355c0.46208-8.676845 0.616107-16.891609 0.359396-24.490267a438.052309 438.052309 0 0 1 9.703691 92.005361c0.205369 2.105033-0.051342 4.723489-0.051343 7.239261zM73.124003 511.943601A437.025463 437.025463 0 0 1 82.519639 421.73522c18.893958 20.536911 63.561739 19.818119 74.446302-10.268456 19.458723 11.603355 45.643284 13.708388 45.643285 36.915097 0 76.602678 2.721141 158.647636 72.289926 159.931194 1.951007 0 38.814762 13.965099 56.476505 59.454357 6.058389 15.710737 30.035232 0 56.476505 0 13.143623 0 0 22.077179 0 69.928181s102.684554 120.962405 102.684554 120.962405a554.496593 554.496593 0 0 0 3.439932 77.424154 173.280185 173.280185 0 0 0-58.068115 7.855368 438.360362 438.360362 0 0 1-362.78453-431.993919z m546.487198 424.806001c-2.25906-11.141274-12.219462-17.251005-30.343286-12.476174 14.478522-61.610733 21.512414-96.215427 51.701673-122.399988 43.74362-37.941943 5.134228-80.093952-28.032883-75.113752-26.235904 3.953355-9.652348-32.499661-33.064427-34.50201s-54.012076-48.518452-87.692609-64.537243c-17.867112-8.471476-35.426171-31.216105-62.945632-32.24295-24.438924-0.924161-60.121807 20.536911-60.121807 4.004698a1031.312321 1031.312321 0 0 0-6.520469-107.09999c-0.924161-12.270804-8.009395-4.158724 24.952347-3.38859 17.969797 0.513423 9.190268-35.939594 27.006038-37.479863s59.043619 16.429529 69.67147 9.292952c9.806375-6.571811 72.392611 164.295287 72.392611 28.186911 0-16.121475-8.368791-44.154358 0-59.403015 33.013084-60.378518 63.921135-109.615762 61.148652-116.803681-1.540268-4.05604-33.783218-7.393288-59.557042 1.283557-8.728187 2.875168 2.772483 16.532213-9.755033 19.407381-46.824157 10.83322-88.206032-12.578858-73.676167-34.656037s68.593282-9.806375 73.265429-55.090263c2.721141-25.979192 5.134228-56.014424 6.469127-78.348315 63.048316 9.857717 56.065767-81.788248-37.633889-91.594623a438.668416 438.668416 0 0 1 409.197949 294.550644 17.918455 17.918455 0 0 0-10.268456-4.774831C887.258491 292.814762 818.511182 344.003012 842.077287 406.332536c-124.967103 96.112743-92.980864 163.114415-51.907042 201.467096 21.615099 20.177515 42.203352 50.520801 55.603686 72.289926-14.581207 42.562748 53.806706 25.671139 87.538583-46.721472a439.233181 439.233181 0 0 1-313.701313 303.381516z" fill="#3CB58E" p-id="3373"></path></svg>