<svg xmlns="http://www.w3.org/2000/svg" xmlns:xlink="http://www.w3.org/1999/xlink" viewBox="0 0 149.54 137.25"><defs><style>.cls-1{fill:url(#未命名的渐变_9);}.cls-2{fill:#fff;}</style><linearGradient id="未命名的渐变_9" x1="28.2" y1="57.27" x2="149.54" y2="57.27" gradientUnits="userSpaceOnUse"><stop offset="0" stop-color="#afdbca"/><stop offset="1" stop-color="#fff" stop-opacity="0"/></linearGradient></defs><title>白色线上发布</title><g id="图层_2" data-name="图层 2"><g id="图层_1-2" data-name="图层 1"><rect class="cls-1" x="28.2" y="7.25" width="121.34" height="100.04"/><path class="cls-2" d="M85.43,99.74a2.48,2.48,0,1,0,2.48-2.48,2.48,2.48,0,0,0-2.48,2.48Z"/><path class="cls-2" d="M100.35,99.74a2.48,2.48,0,1,0,2.48-2.48,2.48,2.48,0,0,0-2.48,2.48Z"/><path class="cls-2" d="M115.28,99.74a2.48,2.48,0,1,0,2.48-2.48,2.48,2.48,0,0,0-2.48,2.48Z"/><path class="cls-2" d="M72.64,68.2a1.52,1.52,0,0,0,2.09,0l29.39-27.83a1.53,1.53,0,1,0-2.1-2.22L73.67,65,55.13,47.9a1.53,1.53,0,0,0-2.05,0l-20.18,18a1.52,1.52,0,0,0-.12,2.16,1.55,1.55,0,0,0,1.15.5,1.52,1.52,0,0,0,1-.38L54.09,51.1,72.64,68.2Z"/><path class="cls-2" d="M130.1,76.15h-1.73V51.22h-3.13V77.41H77.11c-6.56,0-6.9,4.88-6.9,4.88v24.24H11.82V16.83l113.42-.34v12h3.13V17.58h6.26a2.53,2.53,0,1,0,0-5.06H71.11v-10a2.53,2.53,0,1,0-5,0v10H2.53a2.53,2.53,0,1,0,0,5.06H8.31v90.25a2.53,2.53,0,0,0,2.53,2.52h37L26.49,132.76a2.52,2.52,0,0,0,.09,3.57,2.57,2.57,0,0,0,1.74.71,2.47,2.47,0,0,0,1.82-.78l24.68-25.91H68.54v6.17a7,7,0,0,0,7,7H94.71L107,136.47a2.53,2.53,0,0,0,4.35-1.75V123.55H130.1a7,7,0,0,0,7-7V83.18A7,7,0,0,0,130.1,76.15Zm2,40.37h0a2,2,0,0,1-2,2H108.85a2.53,2.53,0,0,0-2.53,2.52v7.4l-8.71-9.14a2.46,2.46,0,0,0-1.82-.78H75.57a2,2,0,0,1-2-2V83.18a2,2,0,0,1,2-2h54.55a2,2,0,0,1,2,2Z"/><ellipse class="cls-2" cx="126.8" cy="28.57" rx="1.57" ry="1.59"/><ellipse class="cls-2" cx="126.8" cy="51.06" rx="1.57" ry="1.59"/><ellipse class="cls-2" cx="126.8" cy="40.25" rx="1.57" ry="1.59"/></g></g></svg>