<svg xmlns="http://www.w3.org/2000/svg" xmlns:xlink="http://www.w3.org/1999/xlink" viewBox="0 0 197.02 173.19"><defs><style>.cls-1{fill:url(#未命名的渐变_7);}.cls-2{fill:#3cb58e;}.cls-3{fill:#10755b;}</style><linearGradient id="未命名的渐变_7" x1="26.18" y1="64.26" x2="197.02" y2="64.26" gradientUnits="userSpaceOnUse"><stop offset="0" stop-color="#afdbca"/><stop offset="1" stop-color="#fff"/></linearGradient></defs><title>资源 44</title><g id="图层_2" data-name="图层 2"><g id="图层_1-2" data-name="图层 1"><rect class="cls-1" x="26.18" width="170.84" height="128.52" rx="8.32"/><path class="cls-2" d="M48.75,52.06h11L54.88,79.67H67.32l4.81-27.61H83.28L85,42.17H50.47Zm53.69,15-2.15-24.93H87.79l6.27,37.5h12.46l19.73-37.5H113.79Z"/><path class="cls-3" d="M145.31,123.37a4.73,4.73,0,1,0,4.73-4.73A4.72,4.72,0,0,0,145.31,123.37Z"/><path class="cls-3" d="M140.61,173.19H34.39a2.39,2.39,0,0,1,0-4.73H140.63a2.38,2.38,0,0,1,0,4.73Zm25.72-31.09H8.67A8.77,8.77,0,0,1,0,133.27V20.12A8.76,8.76,0,0,1,8.67,11.3H166.33A8.76,8.76,0,0,1,175,20.12V133.27a8.77,8.77,0,0,1-8.67,8.83ZM8.67,16.12a4,4,0,0,0-3.94,4V133.27a4,4,0,0,0,3.94,4H166.33a4,4,0,0,0,3.94-4V20.12a4,4,0,0,0-3.94-4Z"/><path class="cls-3" d="M2.36,104.64H172.64v4.72H2.36Z"/></g></g></svg>