<?xml version="1.0" standalone="no"?><!DOCTYPE svg PUBLIC "-//W3C//DTD SVG 1.1//EN" "http://www.w3.org/Graphics/SVG/1.1/DTD/svg11.dtd"><svg t="1615369686051" class="icon" viewBox="0 0 1141 1024" version="1.1" xmlns="http://www.w3.org/2000/svg" p-id="4009" xmlns:xlink="http://www.w3.org/1999/xlink" width="222.8515625" height="200"><defs><style type="text/css"></style></defs><path d="M565.561753 82.067419a381.864723 381.864723 0 0 1 148.659267 733.850206 383.003618 383.003618 0 0 1-297.25154 0A381.864723 381.864723 0 0 1 295.509701 194.282052a380.92681 380.92681 0 0 1 270.052052-111.879664m0-82.402388a463.865148 463.865148 0 1 0 463.932141 463.865148A463.865148 463.865148 0 0 0 565.561753 0z" fill="#3CB58E" p-id="4010"></path><path d="M375.165342 832.733071a190.463405 190.463405 0 1 0 190.396411-190.463404A190.396411 190.396411 0 0 0 375.165342 832.733071z" fill="#3CB58E" p-id="4011"></path><path d="M565.561753 643.140586a189.860461 189.860461 0 1 1-133.987622 55.537869 188.721566 188.721566 0 0 1 133.987622-55.537869m0-1.272882A191.066349 191.066349 0 1 0 757.030065 832.733071a191.066349 191.066349 0 0 0-191.468312-191.066349zM791.598871 426.080638a204.063148 204.063148 0 1 0 288.676332-288.47535 204.063148 204.063148 0 1 0-288.676332 288.408356z" fill="#3CB58E" p-id="4012"></path><path d="M935.836547 78.382759a203.326217 203.326217 0 1 1-143.634731 59.624492 201.98634 201.98634 0 0 1 143.634731-59.624492m0-1.272882a204.666093 204.666093 0 1 0 204.666092 204.666092 204.666093 204.666093 0 0 0-204.666092-204.666092zM0.669938 281.775969A204.063148 204.063148 0 1 0 204.733087 77.712821 203.996155 203.996155 0 0 0 0.669938 281.775969z" fill="#3CB58E" p-id="4013"></path><path d="M204.666093 78.382759a203.125235 203.125235 0 1 1-143.768719 59.490504 201.98634 201.98634 0 0 1 143.768719-59.490504m0-1.272882a204.666093 204.666093 0 1 0 204.733086 204.666092 204.666093 204.666093 0 0 0-204.733086-204.666092z" fill="#3CB58E" p-id="4014"></path></svg>