<svg xmlns="http://www.w3.org/2000/svg" xmlns:xlink="http://www.w3.org/1999/xlink" viewBox="0 0 150.21 149.64"><defs><style>.cls-1{fill:url(#未命名的渐变_7);}.cls-2{fill:#3cb58e;}.cls-3{fill:#10755b;}</style><linearGradient id="未命名的渐变_7" x1="31.98" y1="69.16" x2="150.21" y2="69.16" gradientUnits="userSpaceOnUse"><stop offset="0" stop-color="#afdbca"/><stop offset="1" stop-color="#fff"/></linearGradient></defs><title>资源 41</title><g id="图层_2" data-name="图层 2"><g id="图层_1-2" data-name="图层 1"><path class="cls-1" d="M40.69,0H141.51a8.7,8.7,0,0,1,8.66,9.55l-9.95,102.87a12.61,12.61,0,0,1-7.79,10.46L95.34,138.06a3.61,3.61,0,0,1-2.57.05l-42.56-15.4a12.61,12.61,0,0,1-8.27-10.65L32,9.55A8.71,8.71,0,0,1,40.69,0Z"/><path class="cls-2" d="M65.83,119.72h-1.2l-26.93-9A2.7,2.7,0,0,1,35.91,109l-6-15c-.6-1.79,0-3,1.8-4.19,1.79-.59,3,0,4.19,1.8l5.38,13.76,24.54,8.38L84.38,106l5.39-34.11H32.92c-1.2,0-2.4-1.2-3-2.39l-6-29.93a3.58,3.58,0,0,1,.6-2.39,3.1,3.1,0,0,1,2.39-1.2H98.75a3,3,0,0,1,0,6H30.52l4.79,23.94H92.76a4.53,4.53,0,0,1,2.4,1.19,3.65,3.65,0,0,1,.59,2.4l-6,38.9c0,1.19-.6,1.79-1.8,2.39l-20.94,9Z"/><path class="cls-3" d="M125.08,7.21A4.56,4.56,0,0,0,122.69,6H3A4.52,4.52,0,0,0,.6,7.21,3.57,3.57,0,0,0,0,9.6L12,129.29c0,1.2.6,1.8,1.79,2.4l50.87,17.95H67l44.88-17.95c1.2-.6,1.8-1.2,1.8-2.4l12-119.69C125.68,8.4,125.68,7.8,125.08,7.21ZM109.81,127,66.19,145l-49.8-17.8L4.77,10.32H121.16Z"/></g></g></svg>