<svg xmlns="http://www.w3.org/2000/svg" xmlns:xlink="http://www.w3.org/1999/xlink" viewBox="0 0 138.82 138.29"><defs><style>.cls-1{fill:url(#未命名的渐变_8);}.cls-2{fill:#fff;}</style><linearGradient id="未命名的渐变_8" x1="29.55" y1="63.91" x2="138.82" y2="63.91" gradientUnits="userSpaceOnUse"><stop offset="0" stop-color="#afdbca"/><stop offset="1" stop-color="#fff" stop-opacity="0"/></linearGradient></defs><title>白色HTM5</title><g id="图层_2" data-name="图层 2"><g id="图层_1-2" data-name="图层 1"><path class="cls-1" d="M37.6,0h93.17a8,8,0,0,1,8,8.82l-9.2,95.07a11.67,11.67,0,0,1-7.2,9.67l-34.28,14a3.28,3.28,0,0,1-2.37,0L46.4,113.4a11.66,11.66,0,0,1-7.64-9.84L29.59,8.82A8,8,0,0,1,37.6,0Z"/><path class="cls-2" d="M60.84,110.63H59.73l-24.89-8.29a2.51,2.51,0,0,1-1.66-1.66L27.65,86.85c-.55-1.66,0-2.76,1.66-3.87,1.66-.55,2.77,0,3.87,1.66l5,12.72,22.68,7.74L78,97.91l5-31.52H30.42c-1.11,0-2.21-1.11-2.77-2.21L22.12,36.52a3.3,3.3,0,0,1,.56-2.21,2.86,2.86,0,0,1,2.21-1.1H91.25a2.77,2.77,0,1,1,0,5.53h-63l4.42,22.12H85.72A4.22,4.22,0,0,1,87.94,62a3.36,3.36,0,0,1,.55,2.22L83,100.13c0,1.1-.56,1.65-1.66,2.21l-19.36,8.29Z"/><path class="cls-2" d="M108.33,46.93l-6.86,70.4L61.17,134l-46-16.46L4.41,9.54H112l-2.23,22.84h4.05l2.35-23.51c0-1.1,0-1.66-.55-2.21a4.25,4.25,0,0,0-2.21-1.11H2.77A4.24,4.24,0,0,0,.55,6.66,3.33,3.33,0,0,0,0,8.87L11.06,119.48c0,1.11.55,1.66,1.66,2.21l47,16.6h2.21l41.48-16.6c1.11-.55,1.66-1.1,1.66-2.21l7.26-72.55Z"/><ellipse class="cls-2" cx="111.77" cy="32.31" rx="2.01" ry="1.97"/><ellipse class="cls-2" cx="110.34" cy="46.9" rx="2" ry="1.96"/><ellipse class="cls-2" cx="110.94" cy="40.1" rx="2" ry="1.96"/></g></g></svg>