<?xml version="1.0" standalone="no"?><!DOCTYPE svg PUBLIC "-//W3C//DTD SVG 1.1//EN" "http://www.w3.org/Graphics/SVG/1.1/DTD/svg11.dtd"><svg t="1615520149680" class="icon" viewBox="0 0 1194 1024" version="1.1" xmlns="http://www.w3.org/2000/svg" p-id="3777" xmlns:xlink="http://www.w3.org/1999/xlink" width="37.3125" height="32"><defs><style type="text/css"></style></defs><path d="M0 877.356406c0 83.22024 64.46208 146.643594 149.270959 146.643594H1044.835611c84.808879 0 149.270959-63.301152 149.270959-146.643594V341.06856H0z m835.868489-316.750165c-14.908765-14.725461-19.674682-33.911331-4.765917-48.881198s34.644549-19.18587 49.553314-5.132526l149.270959 121.591981a27.495674 27.495674 0 0 1 14.908766 24.440599 74.23832 74.23832 0 0 1-10.142849 29.450922l-149.270959 141.388866a36.660899 36.660899 0 0 1-49.553314 0c-14.908765-14.725461-14.908765-39.043857 0-48.881199l119.392326-111.937943z m-348.278537 214.344054l149.270959-262.73644c10.142849-19.18587 29.878632-24.440599 49.553314-14.725461s25.112716 29.450922 14.969867 48.881198l-149.270959 262.736441a40.38809 40.38809 0 0 1-29.878632 19.246971c-4.765917 0-14.908765 0-19.674682-5.132525a36.049884 36.049884 0 0 1-14.786563-48.270184z m-323.837938-151.042902l149.698669-121.530879a33.483621 33.483621 0 0 1 49.553315 4.460409 32.689301 32.689301 0 0 1 1.22203 43.504267 24.012889 24.012889 0 0 1-6.11015 5.132526l-119.270123 97.273584 119.392326 111.999045a32.078286 32.078286 0 0 1 5.804642 42.221135 5.254729 5.254729 0 0 1-0.42771 0.611015 46.559341 46.559341 0 0 1-5.376932 6.11015 36.660899 36.660899 0 0 1-49.553315 0L159.413808 672.116475a40.204785 40.204785 0 0 1-10.142849-29.450922c0-3.849394 4.765917-8.920819 14.908765-18.330449zM1044.835611 0H149.270959C64.46208 0 0 63.362253 0 146.643594v146.643595h1194.10657V146.643594c0-83.159138-64.46208-146.643594-149.270959-146.643594zM248.988603 195.158184H149.270959v-97.762397h99.717644z m198.824274 0H348.278537v-97.762397h99.53434z m198.824273 0H547.530521v-97.762397h99.656543v97.762397z" fill="#00cc99" p-id="3778"></path></svg>