<?xml version="1.0" standalone="no"?><!DOCTYPE svg PUBLIC "-//W3C//DTD SVG 1.1//EN" "http://www.w3.org/Graphics/SVG/1.1/DTD/svg11.dtd"><svg t="1615519843503" class="icon" viewBox="0 0 1024 1024" version="1.1" xmlns="http://www.w3.org/2000/svg" p-id="3434" xmlns:xlink="http://www.w3.org/1999/xlink" width="32" height="32"><defs><style type="text/css"></style></defs><path d="M476.809826 750.27167a22.165438 22.165438 0 0 1-12.105739-2.387047 42.171167 42.171167 0 0 1-29.042408-41.148147V539.984178a10.400706 10.400706 0 0 0-9.661858-9.661857H363.027243a53.253886 53.253886 0 0 1-48.366123-29.042408c-9.718692-17.050337-7.274811-38.7611 2.387047-55.697768l157.374612-237.340694a42.569008 42.569008 0 0 1 45.979076-17.050337 44.444546 44.444546 0 0 1 31.486289 38.704266l7.217976 154.93073c0 4.830929 4.887763 7.274811 9.718692 7.274811h55.640934c19.38055 0 38.7611 9.661858 46.035911 26.598526a51.719356 51.719356 0 0 1-2.443882 55.697768L510.512659 726.287529a33.418661 33.418661 0 0 1-33.702833 23.984141z m29.042408-493.777764L360.640195 476.954765a3.353233 3.353233 0 0 0 0 4.830929c0 2.387047 2.387047 2.387047 4.830929 2.387047h62.915745a58.937332 58.937332 0 0 1 58.141649 58.14165V687.753767l145.212039-232.396095a3.353233 3.353233 0 0 0 0-4.830929c0-2.387047-2.387047-2.387047-4.830929-2.387047h-55.697768A58.482657 58.482657 0 0 1 513.127044 392.21459z" fill="#00cc99" p-id="3435"></path><path d="M493.746494 944.134004a472.067002 472.067002 0 1 1 472.067002-472.067002 471.100816 471.100816 0 0 1-472.067002 472.067002z m0-895.654212c-232.339261 0-423.58721 191.247949-423.58721 423.58721s191.247949 423.644044 423.58721 423.644045 423.644044-191.247949 423.644045-423.644045S726.14259 48.479792 493.746494 48.479792z m484.172742 975.506625a21.938101 21.938101 0 0 1-17.050337-7.217977l-181.586091-181.58609a23.984141 23.984141 0 0 1 34.100674-34.100675l181.529257 181.529257a23.472631 23.472631 0 0 1 0 34.100674 21.938101 21.938101 0 0 1-17.050338 7.217976z" fill="#00cc99" p-id="3436"></path></svg>