<?xml version="1.0" standalone="no"?><!DOCTYPE svg PUBLIC "-//W3C//DTD SVG 1.1//EN" "http://www.w3.org/Graphics/SVG/1.1/DTD/svg11.dtd"><svg t="1615427014227" class="icon" viewBox="0 0 2819 1024" version="1.1" xmlns="http://www.w3.org/2000/svg" p-id="2096" width="352.375" height="128" xmlns:xlink="http://www.w3.org/1999/xlink"><defs><style type="text/css"></style></defs><path d="M874.032538 149.967462c-199.946177-199.946177-524.134557-199.946177-724.080734 0s-199.946177 524.118899 0 724.065076 524.134557 199.946177 724.080734 0a514.192049 514.192049 0 0 0 74.341774-94.085871L586.936758 418.509113a129.440489 129.440489 0 1 0-5.401834 188.156086l92.16 92.175657a259.679511 259.679511 0 1 1 5.370519-372.429113l325.519266 325.519266c48.898349-172.702141 5.401835-366.040856-130.520856-501.963547" fill="#ffffff" p-id="2097"></path><path d="M1419.304709 575.804281V534.077064h106.283059v-130.317309h-97.984588v-41.789847h238.197432v41.789847h-98.501285v130.379939h106.283058v41.727217z m-136.877798 0v-109.226666l-88.527461 28.183486-12.901774-39.331621 101.429235-32.880734v-74.842813H1195.762691l23.846361-146.710704h-32.567584v-41.727217h39.362936l9.92685-61.06422 41.633272 6.732722-8.721223 54.394128h137.331865v41.664587h-144.048929l-17.082325 104.983487h37.014312v-82.42104h41.695902v82.42104h74.639266v41.727217H1324.154128v61.267767l76.126728-24.519633 12.275474 39.879633-88.402202 28.762814v122.707767z m277.48208-310.190581c-35.58948 35.479878-77.254067 63.632049-127.232783 85.959633l-2.943609 1.31523-17.223241-38.047707 2.974923-1.315229c80.683058-36.012232 134.137737-82.561957 172.576881-150.311927H1431.235719V121.423853h223.90214l-2.098104 4.587645c-18.569786 40.568563-39.848318 75.86055-64.99425 107.817493l91.5337 94.164159-30.579083 28.794128zM1767.40208 575.287584v-41.727217h51.059082V272.925749c0-37.437064 31.314985-69.065199 68.548502-69.065199h96.825932v-33.976758H1779.317431V128.18789h204.518165V95.510703h41.77419v32.677187h204.251988v41.71156H2025.609786v33.976758h96.810275c37.577982 0 68.031804 30.986177 68.031804 69.065199v260.61896h51.857615v41.727217z m381.275596-41.727217V272.925749c0-15.29737-11.304709-26.821284-26.304587-26.821284h-235.363425a26.617737 26.617737 0 0 0-26.821285 26.821284v260.634618zM2562.661774 576.837676a59.028746 59.028746 0 0 1-59.232294-58.699939v-113.532477a59.028746 59.028746 0 0 1 59.232294-58.699939h196.986911a59.028746 59.028746 0 0 1 59.232294 58.699939v113.532477a59.028746 59.028746 0 0 1-59.232294 58.699939z m196.986911-41.71156c9.973823 0 17.505076-7.312049 17.505076-16.988379v-36.685505h-95.181896v53.673884z m-214.507645-16.988379a17.066667 17.066667 0 0 0 17.520734 16.988379h77.629847v-53.673884h-95.134924z m232.028379-78.365749v-35.166728a17.066667 17.066667 0 0 0-17.505076-16.988379h-77.692478v52.155107z m-136.862141 0v-52.155107h-77.645504a17.489419 17.489419 0 0 0-17.505077 16.988379v35.166728z m-290.446483 137.097003v-41.742875h28.183486c12.432049 0 22.171009-11.790092 22.17101-26.836942v-92.22263l-46.612355 28.183487-21.450765-36.137493 68.06312-41.664587V208.260306h-58.057982v-41.742875h58.057982v-68.423241h41.727217v68.423241h35.245015v41.742875h-35.245015v132.4937l34.14899-20.996697 21.450765 36.168807-55.599755 34.446483v117.94789c0 37.797187-28.653211 68.548502-63.898227 68.548502z m160.677187-249.188991l18.460183-65.99633h-26.069725v-41.758532h34.822263l-15.391315-55.725016 40.521591-9.817247 17.786911 65.542263h59.498471V146.037431h-128.046973V104.325872h298.33786v41.711559h-128.485383v73.887707h59.060062l18.319266-65.542263 40.505932 9.817247-15.344342 55.725016h34.83792v41.727217h-26.617737l19.477921 65.99633-40.52159 9.817248-21.92049-75.813578h-67.796942v71.006728h-41.727217v-71.006728h-68.360611l-20.902753 75.813578z" fill="#ffffff" p-id="2098"></path><path d="M1901.821651 489.218349l123.38104-157.091621h-121.345566V294.987156h203.234251l-123.38104 154.069725h121.314251v40.161468h-203.202936zM1588.750092 717.457615h31.346299V914.710703h-31.346299zM1735.476453 914.710703V717.896024h16.111559l125.134679 138.286973V717.896024h30.187645v196.814679h-16.127217l-124.884159-137.817247v137.817247h-30.422507zM2410.470948 914.710703V745.327951h-82.984709V717.896024h196.814678v27.431927h-83.172599V914.710703h-30.65737zM2720.207462 914.710703h-15.908012l-98.84575-196.814679h32.708502l73.981651 147.258716 72.80734-147.258716h33.882813l-98.626544 196.814679zM1471.741651 900.822508l-30.297247-30.297248a140.024954 140.024954 0 1 0-25.318165 26.742997l29.577003 29.59266z m-248.061651-112.45211a104.372844 104.372844 0 1 1 104.200612 104.529419 104.153639 104.153639 0 0 1-104.200612-104.529419M2131.454434 918.515474c-32.426667 0-59.310581-9.817248-79.853211-29.185566s-31.080122-44.263731-31.080122-73.997309 10.537492-54.707278 31.314985-74.216513 47.567462-29.404771 79.727951-29.404771c20.35474 0 38.580061 3.930031 54.331498 11.680489a103.33945 103.33945 0 0 1 39.456881 34.289909l0.407095 0.579327-22.437187 17.818226-0.50104-0.735902a75.516086 75.516086 0 0 0-29.749235-25.051988 94.383364 94.383364 0 0 0-41.46104-9.097003c-23.658471 0-43.324281 7.014557-58.433761 20.887095s-22.781651 31.612477-22.781652 52.797064 7.625199 38.908869 22.672049 52.765749 34.743976 20.902752 58.543364 20.902753a96.544098 96.544098 0 0 0 41.476697-8.987401c12.525994-5.965505 21.466422-13.653333 26.445505-22.812966l-0.093945-19.759756h-44.608196v-29.4674h73.997309v59.341896a102.08685 102.08685 0 0 1-40.098838 38.595718c-16.36208 8.658593-35.573823 13.058349-57.118532 13.058349" fill="#ffffff" p-id="2099"></path></svg>