<?xml version="1.0" standalone="no"?><!DOCTYPE svg PUBLIC "-//W3C//DTD SVG 1.1//EN" "http://www.w3.org/Graphics/SVG/1.1/DTD/svg11.dtd"><svg t="1615369936310" class="icon" viewBox="0 0 1820 1024" version="1.1" xmlns="http://www.w3.org/2000/svg" p-id="5024" xmlns:xlink="http://www.w3.org/1999/xlink" width="355.46875" height="200"><defs><style type="text/css"></style></defs><path d="M1242.567111 178.706963c-182.044444-181.997037-477.079704-181.997037-659.076741 0s-181.987556 477.070222 0 659.067259 477.079704 181.997037 659.076741 0a467.437037 467.437037 0 0 0 67.669333-85.646222l-329.007407-329.007407a117.82637 117.82637 0 1 0-4.920889 171.273481l83.892148 83.892148c-92.634074 87.570963-238.724741 86.006519-329.434074-4.740741-92.302222-92.302222-92.302222-241.967407 0-334.279111s241.98637-92.311704 334.288593 0l296.296296 296.286815c44.506074-157.184 4.920889-333.169778-118.802963-456.893629" fill="#00CC99" p-id="5025"></path></svg>