<?xml version="1.0" standalone="no"?><!DOCTYPE svg PUBLIC "-//W3C//DTD SVG 1.1//EN" "http://www.w3.org/Graphics/SVG/1.1/DTD/svg11.dtd"><svg t="1615519823247" class="icon" viewBox="0 0 1024 1024" version="1.1" xmlns="http://www.w3.org/2000/svg" p-id="3089" xmlns:xlink="http://www.w3.org/1999/xlink" width="32" height="32"><defs><style type="text/css"></style></defs><path d="M509.460139 320.672754A157.785761 157.785761 0 0 1 350.443966 161.890945a158.8404 158.8404 0 1 1 317.622209 0 157.844352 157.844352 0 0 1-158.606036 158.781809z m0-272.272719a112.377679 112.377679 0 0 0-113.432318 113.49091 113.432318 113.432318 0 0 0 226.864637 0A112.377679 112.377679 0 0 0 509.460139 48.400035z m328.988878 975.599965a174.074079 174.074079 0 0 1-34.041414-4.570104 158.195898 158.195898 0 0 1-99.604825-70.309288A160.598132 160.598132 0 0 1 684.413085 829.184681a158.195898 158.195898 0 0 1 70.309288-99.604825 158.195898 158.195898 0 0 1 240.223401 167.336106 158.195898 158.195898 0 0 1-70.309288 99.604825 154.504661 154.504661 0 0 1-86.187469 27.244849z m0-272.272719a120.111701 120.111701 0 0 0-61.286263 18.163233 113.725274 113.725274 0 0 0-49.919595 70.309288A107.573211 107.573211 0 0 0 743.004158 926.445863a113.725274 113.725274 0 0 0 70.309288 49.919594 107.456029 107.456029 0 0 0 86.18747-15.878181 113.490909 113.490909 0 0 0 49.919594-70.309288 107.221665 107.221665 0 0 0-15.878181-86.187469 113.5495 113.5495 0 0 0-70.309288-49.919595 92.456714 92.456714 0 0 0-24.959797-2.285051zM180.529853 1024a173.488169 173.488169 0 0 1-33.982823-4.570104 158.195898 158.195898 0 0 1-99.604825-70.309288A160.656724 160.656724 0 0 1 26.200965 829.184681a158.195898 158.195898 0 0 1 70.309288-99.604825 160.832497 160.832497 0 0 1 120.228883-20.448285 158.195898 158.195898 0 0 1 99.604825 70.309288A160.187995 160.187995 0 0 1 269.002374 999.098794a187.491435 187.491435 0 0 1-88.472521 24.901206z m0-272.272719a120.05311 120.05311 0 0 0-61.227672 18.163233 113.5495 113.5495 0 0 0-49.919595 70.309288 107.338847 107.338847 0 0 0 15.878181 86.246061 113.725274 113.725274 0 0 0 70.309288 49.919594 107.456029 107.456029 0 0 0 86.187469-15.878181 113.959638 113.959638 0 0 0-36.326465-206.474943 92.22235 92.22235 0 0 0-24.959797-2.285052z" fill="#00cc99" p-id="3090"></path><path d="M170.627961 714.404768l249.129245-442.948516 39.548974 22.206017-249.129244 443.007107z m148.235416 128.080086h378.908473V887.775754H318.863377zM556.625953 296.005912l39.548975-22.264608 247.078557 438.84714-39.548975 22.264608z" fill="#00cc99" p-id="3091"></path></svg>