<?xml version="1.0" standalone="no"?><!DOCTYPE svg PUBLIC "-//W3C//DTD SVG 1.1//EN" "http://www.w3.org/Graphics/SVG/1.1/DTD/svg11.dtd"><svg t="1615369812866" class="icon" viewBox="0 0 1137 1024" version="1.1" xmlns="http://www.w3.org/2000/svg" p-id="4520" xmlns:xlink="http://www.w3.org/1999/xlink" width="222.0703125" height="200"><defs><style type="text/css"></style></defs><path d="M392.526609 335.880786c89.764732 0 162.478212-75.141115 162.478212-167.622488S482.291342 0 392.526609 0 230.048397 75.141115 230.048397 167.969293a170.628133 170.628133 0 0 0 47.685708 118.780763 159.703771 159.703771 0 0 0 114.792504 49.13073zM682.051107 498.590201a99.937683 99.937683 0 0 0-27.802213-69.996839 93.579589 93.579589 0 0 0-67.627004-28.900429H192.766844c-52.714382 0-95.487017 44.217656-95.487017 98.666065V861.232784H682.051107V498.590201z m355.879882 214.383382a45.200271 45.200271 0 0 0-12.658388-31.443667 42.136825 42.136825 0 0 0-30.34545-13.005193H797.074814a43.755249 43.755249 0 0 0-42.368029 44.44886v147.045383h283.224204z m66.355385 211.088734H33.52548a32.946489 32.946489 0 0 0-23.698352 10.11515 34.680515 34.680515 0 0 0-9.826145 24.449763v65.37277h1137.809889v-65.31497a35.258523 35.258523 0 0 0-9.826146-24.449762 32.773086 32.773086 0 0 0-23.698352-10.172951z" fill="#3CB58E" p-id="4521"></path></svg>