<svg xmlns="http://www.w3.org/2000/svg" xmlns:xlink="http://www.w3.org/1999/xlink" viewBox="0 0 169.43 175.45"><defs><style>.cls-1{fill:url(#未命名的渐变_7);}.cls-2{fill:#10755b;}.cls-3{fill:#3cb58e;}</style><linearGradient id="未命名的渐变_7" x1="16.14" y1="76.65" x2="169.43" y2="76.65" gradientUnits="userSpaceOnUse"><stop offset="0" stop-color="#afdbca"/><stop offset="1" stop-color="#fff"/></linearGradient></defs><title>资源 42</title><g id="图层_2" data-name="图层 2"><g id="图层_1-2" data-name="图层 1"><circle class="cls-1" cx="92.78" cy="76.65" r="76.65"/><path class="cls-2" d="M93.6,23.35a2.92,2.92,0,1,0,2.92-2.92A2.92,2.92,0,0,0,93.6,23.35Z"/><path class="cls-2" d="M149.18,78.93A2.92,2.92,0,1,0,152.1,76,2.92,2.92,0,0,0,149.18,78.93Z"/><path class="cls-3" d="M81.29,123.07a2.37,2.37,0,0,1-4.18.53L63.48,97.24a8.2,8.2,0,0,0-12.59-1.19l-5,5,0,0a2.85,2.85,0,0,0-.57,1.73,2.94,2.94,0,0,0,4.66,2.36h0l.08-.07a3.05,3.05,0,0,0,.47-.48L55,100.2a2.36,2.36,0,0,1,3.63.35L72.3,126.9a8.18,8.18,0,0,0,6.76,3.59,7.13,7.13,0,0,0,1-.07,8.14,8.14,0,0,0,6.69-5.35L114,32.31a74,74,0,0,1,27.69,26.63q1.68,2.79,3.1,5.72a2.94,2.94,0,0,0,3.83,1.45,2.91,2.91,0,0,0,1.49-3.91c-1-2.15-2.17-4.25-3.39-6.29a78.63,78.63,0,0,0-33.36-30.54,2.92,2.92,0,0,0-3.64,1l-.06,0,0,.18c-.07.11-.12.23-.19.35A3.07,3.07,0,0,0,109.2,28Z"/><path class="cls-2" d="M155,93.56a2.9,2.9,0,0,0-1.14.23c0,.78.06,1.55.06,2.34A74.45,74.45,0,1,1,79.49,21.68c.7,0,1.39,0,2.08.05a2.84,2.84,0,0,0,.32-1.3A2.92,2.92,0,0,0,79,17.51a79,79,0,1,0,79,79A2.92,2.92,0,0,0,155,93.56Z"/></g></g></svg>