<svg xmlns="http://www.w3.org/2000/svg" xmlns:xlink="http://www.w3.org/1999/xlink" viewBox="0 0 149.15 154.45"><defs><style>.cls-1{fill:url(#未命名的渐变_5);}.cls-2{fill:#10755b;}.cls-3{fill:#3cb58e;}</style><linearGradient id="未命名的渐变_5" x1="14.21" y1="67.47" x2="149.15" y2="67.47" gradientUnits="userSpaceOnUse"><stop offset="0" stop-color="#afdbca"/><stop offset="1" stop-color="#fff" stop-opacity="0"/></linearGradient></defs><title>选择我们</title><g id="图层_2" data-name="图层 2"><g id="图层_1-2" data-name="图层 1"><circle class="cls-1" cx="81.68" cy="67.47" r="67.47"/><path class="cls-2" d="M82.39,20.55A2.58,2.58,0,1,0,85,18,2.59,2.59,0,0,0,82.39,20.55Z"/><path class="cls-2" d="M131.32,69.48a2.58,2.58,0,1,0,2.58-2.57A2.58,2.58,0,0,0,131.32,69.48Z"/><path class="cls-3" d="M71.56,108.34a2.08,2.08,0,0,1-3.68.47l-12-23.21a7.22,7.22,0,0,0-11.08-1l-4.37,4.36,0,0a2.59,2.59,0,0,0,2.08,4.1,2.62,2.62,0,0,0,1.53-.5v0l.06-.06a2.44,2.44,0,0,0,.42-.43l3.89-3.88a2.09,2.09,0,0,1,3.19.31l12,23.2a7.22,7.22,0,0,0,6,3.16,5.45,5.45,0,0,0,.9-.06,7.15,7.15,0,0,0,5.89-4.71l24-81.66a65.22,65.22,0,0,1,24.38,23.44q1.47,2.46,2.73,5a2.58,2.58,0,1,0,4.68-2.17c-.91-1.88-1.91-3.74-3-5.53A69.31,69.31,0,0,0,99.82,22.33a2.58,2.58,0,0,0-3.21.86l0,0,0,.16a2.27,2.27,0,0,0-.17.31,2.67,2.67,0,0,0-.22,1Z"/><path class="cls-2" d="M136.47,82.36a2.51,2.51,0,0,0-1,.2c0,.69.05,1.37.05,2.06A65.54,65.54,0,1,1,70,19.08c.61,0,1.22,0,1.83.05A2.6,2.6,0,0,0,72.09,18a2.57,2.57,0,0,0-2.57-2.57A69.52,69.52,0,1,0,139,84.93,2.57,2.57,0,0,0,136.47,82.36Z"/></g></g></svg>