<svg xmlns="http://www.w3.org/2000/svg" xmlns:xlink="http://www.w3.org/1999/xlink" viewBox="0 0 173.9 152.87"><defs><style>.cls-1{fill:url(#未命名的渐变_3);}.cls-2{fill:#fff;}</style><linearGradient id="未命名的渐变_3" x1="23.11" y1="56.72" x2="173.9" y2="56.72" gradientUnits="userSpaceOnUse"><stop offset="0" stop-color="#afdbca"/><stop offset="1" stop-color="#fff" stop-opacity="0"/></linearGradient></defs><title>白色医疗直播</title><g id="图层_2" data-name="图层 2"><g id="图层_1-2" data-name="图层 1"><rect class="cls-1" x="23.11" width="150.79" height="113.44" rx="8.32"/><path class="cls-2" d="M43,46h9.74L48.44,70.33h11L63.67,46h9.84L75,37.23H44.55ZM90.42,59.22l-1.89-22h-11L83,70.33H94l17.42-33.1h-11Z"/><path class="cls-2" d="M128.26,108.89a4.18,4.18,0,1,0,4.17-4.17A4.17,4.17,0,0,0,128.26,108.89Z"/><path class="cls-2" d="M2.09,92.36H152.38v4.17H2.09Z"/><path class="cls-2" d="M124.12,148.7H30.36a2.1,2.1,0,0,0,0,4.17h93.75a2,2,0,0,0,1.84-2.09A2,2,0,0,0,124.12,148.7Z"/><path class="cls-2" d="M150.29,53.87v63.76a3.51,3.51,0,0,1-3.48,3.54H7.65a3.51,3.51,0,0,1-3.48-3.54V17.76a3.51,3.51,0,0,1,3.48-3.53H146.81a3.5,3.5,0,0,1,3.48,3.53V35.31h4.18V17.76A7.73,7.73,0,0,0,146.81,10H7.65A7.73,7.73,0,0,0,0,17.76v99.87a7.73,7.73,0,0,0,7.65,7.79H146.81a7.73,7.73,0,0,0,7.66-7.79V53.87Z"/><ellipse class="cls-2" cx="152.38" cy="35.34" rx="2.09" ry="2.07"/><ellipse class="cls-2" cx="152.38" cy="53.9" rx="2.09" ry="2.07"/><ellipse class="cls-2" cx="152.38" cy="44.39" rx="2.09" ry="2.07"/></g></g></svg>