<svg xmlns="http://www.w3.org/2000/svg" viewBox="0 0 167.94 167.94"><defs><style>.cls-1{fill:#0c9;}.cls-2{fill:#abff99;}</style></defs><title>多地专家会诊</title><g id="图层_2" data-name="图层 2"><g id="图层_1-2" data-name="图层 1"><path class="cls-1" d="M134,52.48c0-19.31-2.86-37.31-7.78-52.48H41.89C37,15.17,34.1,33.17,34.1,52.48c0,1.18,0,2.32.07,3.48a48.18,48.18,0,0,0-.28,4.83C33.89,89.05,56.31,112,84,112S134,89.05,134,60.79c0-.92-.06-1.82-.12-2.72C134,56.22,134,54.36,134,52.48ZM52.78,14h62.58a159.45,159.45,0,0,1,3.93,25.78,132.88,132.88,0,0,0-70.42-.06A159.8,159.8,0,0,1,52.78,14ZM84,99.17C64.25,99.17,48.2,82,48.2,60.79a41.14,41.14,0,0,1,.53-6.36,116.53,116.53,0,0,1,70.48,0,41.42,41.42,0,0,1,.53,6.35C119.74,82,103.69,99.17,84,99.17Z"/><path class="cls-1" d="M125.46,112a84.31,84.31,0,0,1,42.48,56H155.26a72.66,72.66,0,0,0-40-47.6A56.87,56.87,0,0,0,125.46,112Z"/><path class="cls-1" d="M42.47,112a56.93,56.93,0,0,0,10.25,8.39,72.7,72.7,0,0,0-40,47.6H0A84.33,84.33,0,0,1,42.47,112Z"/><path class="cls-2" d="M112.58,140a13.93,13.93,0,0,1-8,12.5c-2.19,7.43-8.5,15.41-20.77,15.41-15.35,0-21.19-12.41-21.37-20.76V125.88a7.15,7.15,0,0,1,14.3,0V147c.12,2.44,1.21,6.91,7.07,6.91,3.07,0,4.87-1.21,5.93-2.74A13.85,13.85,0,0,1,84,140a14.31,14.31,0,0,1,28.61,0Z"/></g></g></svg>