<svg xmlns="http://www.w3.org/2000/svg" viewBox="0 0 167.9 187.84"><defs><style>.cls-1{fill:#0c9;}.cls-2{fill:#abff99;}</style></defs><title>产品推介</title><g id="图层_2" data-name="图层 2"><g id="图层_1-2" data-name="图层 1"><path class="cls-1" d="M124.14,155.17l-.42,0-.48,0L90.71,174a13.55,13.55,0,0,1-13.55,0L17.83,139.81A13.63,13.63,0,0,1,11,128V110.15l-.14-.36a5.87,5.87,0,0,0-3.08-3.28,5.79,5.79,0,0,0-7.63,2.94l-.18.41v22.08a17.83,17.83,0,0,0,8.92,15.43L75,185.46a17.77,17.77,0,0,0,17.77,0l35.65-20.52.25-.33a5.83,5.83,0,0,0-4.56-9.44ZM3.76,95.89a5.66,5.66,0,0,0,7.14-3.6l0-.09.1-.31V59.79A13.59,13.59,0,0,1,17.83,48L77.18,13.89a13.54,13.54,0,0,1,13.56,0l18.93,10.9.47,0,.47,0a5.72,5.72,0,0,0,1.76-.28,6,6,0,0,0,4-7.53l-.43-1.39L92.84,2.38a17.76,17.76,0,0,0-17.76,0L8.92,40.45A17.86,17.86,0,0,0,0,55.88V92.07l.25.63A5.69,5.69,0,0,0,3.76,95.89ZM159,40.43,131.35,24.54l-.28-.07a5.53,5.53,0,0,0-1.34-.17,5.62,5.62,0,0,0-3.59,1.3,5.71,5.71,0,0,0-.84,8l.25.3L150.06,48a13.63,13.63,0,0,1,6.81,11.78V128a13.6,13.6,0,0,1-6.8,11.77l-9.54,5.48-.26.33a5.84,5.84,0,0,0,4.6,9.4l.47,0,.47,0L159,147.34a17.84,17.84,0,0,0,8.92-15.42V55.86A17.82,17.82,0,0,0,159,40.43Z"/><path class="cls-2" d="M129.3,65.8,86.65,41.51a5.28,5.28,0,0,0-5.11,0L38.9,64.78a5.27,5.27,0,0,0-2.7,4.6v49.45a5.24,5.24,0,0,0,2.68,4.57l42.61,24a5.26,5.26,0,0,0,5.14,0l42.64-24a5.27,5.27,0,0,0,2.68-4.57V70.37a5.25,5.25,0,0,0-2.65-4.57ZM47.86,115.09V80.39L78.3,97.75v34.68Zm66.4-44.5L84.09,87.88,53.62,70.46,84.08,53.3l30.18,17.29ZM89.86,132V97.75l30.55-17.87v35L89.86,132Z"/></g></g></svg>