<svg xmlns="http://www.w3.org/2000/svg" viewBox="0 0 182.68 182.68"><defs><style>.cls-1{fill:#abff99;}.cls-2{fill:#0c9;}</style></defs><title>远程医疗教学</title><g id="图层_2" data-name="图层 2"><g id="图层_1-2" data-name="图层 1"><path class="cls-1" d="M13.05,13.05v6.52s32.62,4.9,39.14,9.79L68.5,35.88s-9.38-21.2-55.45-22.83Z"/><path class="cls-1" d="M19.57,0l3.26,9.79s44,6.93,55.46,29.35h9.78S62,1.22,19.57,0Zm94.6,35.88,16.31-6.52c6.53-4.89,39.15-9.79,39.15-9.79V13.05c-46.08,1.63-55.46,22.83-55.46,22.83Z"/><path class="cls-1" d="M94.6,39.14h9.79C115.8,16.72,159.84,9.79,159.84,9.79L163.1,0C120.69,1.22,94.6,39.14,94.6,39.14Z"/><path class="cls-2" d="M91.34,42.41S50.33,23.3,0,26.1L9.79,159.84s37.28-3.73,81.55,22.84c0,0,39.14-25.63,78.29-22.84L182.68,26.1S145.86,23.3,91.34,42.41Zm-6.53,124c-30.75-16.78-65.24-16.32-65.24-16.32L13.05,35.88C48.46,34,84.81,55.46,84.81,55.46V166.37Zm78.29-16.32c-30.75-3.26-65.24,16.32-65.24,16.32V55.46c35.89-20.51,75-19.58,75-19.58L163.1,150.05Z"/></g></g></svg>