<svg xmlns="http://www.w3.org/2000/svg" viewBox="0 0 189.47 176.85"><defs><style>.cls-1{fill:#0c9;}.cls-2{fill:#abff99;}</style></defs><title>医学讲堂</title><g id="图层_2" data-name="图层 2"><g id="图层_1-2" data-name="图层 1"><path class="cls-1" d="M131,84.55c-3.08,0-6.64,1.42-7,3.9l-13.62,48.2-2.84-4.74a68.73,68.73,0,0,0-23.68-23.68l-3.32-1.66,2.37-2.25A37.55,37.55,0,0,0,96.27,75.78a38.49,38.49,0,0,0-77,0,37.65,37.65,0,0,0,13.26,28.54l3,2.25-3,1.66A62.51,62.51,0,0,0,0,157.85a6.39,6.39,0,0,0,6.39,6.39,6.51,6.51,0,0,0,6.52-6.39,49.83,49.83,0,0,1,44.88-44.17,50.43,50.43,0,0,1,44.87,44.17,5.11,5.11,0,0,0,1.19,3.19,6.38,6.38,0,0,0,5.33,4.74h1.18a6.53,6.53,0,0,0,5.69-4.15l20.24-71.28A6,6,0,0,0,131,84.55ZM57.79,101h0A25.22,25.22,0,1,1,83.48,75.78,25.23,25.23,0,0,1,57.79,101Z"/><path class="cls-2" d="M158.32,31.38H101.84a5.56,5.56,0,0,0-5.21,5.8,5.67,5.67,0,0,0,5.21,5.92h56.48a5.69,5.69,0,0,0,5.33-5.92,5.57,5.57,0,0,0-5.32-5.8Z"/><path class="cls-2" d="M158.32,59.44H130.25a5.92,5.92,0,0,0,0,11.84h28.31a5.92,5.92,0,0,0,0-11.84Z"/><path class="cls-1" d="M189.46,33.75A32.92,32.92,0,0,0,157.39,0H41.8A33,33,0,0,0,9.59,33.75V44.17a6.51,6.51,0,0,0,6.51,6.39,6.39,6.39,0,0,0,6.4-6.39h0V33.75A20.25,20.25,0,0,1,41.8,12.67H157.37a20.25,20.25,0,0,1,19.3,21.08V143.16a20.13,20.13,0,0,1-19.26,21H131.68a6.39,6.39,0,1,0-1.74,12.67,6.34,6.34,0,0,0,1.74,0h25.69a32.92,32.92,0,0,0,32.09-33.51Z"/></g></g></svg>