<svg xmlns="http://www.w3.org/2000/svg" viewBox="0 0 183.73 165.36"><defs><style>.cls-1{fill:#0c9;}.cls-2{fill:#abff99;}</style></defs><title>健康讲座</title><g id="图层_2" data-name="图层 2"><g id="图层_1-2" data-name="图层 1"><path class="cls-1" d="M131.69,0C117.4,0,105,6.58,91.87,19.11,78.79,6.58,66.34,0,52,0,21.07,0,0,21.08,0,54.48c0,21.06,19.09,48.44,70.49,92.44l17.9,15.32,3.48,3.12,3.48-3.12,20-17.12,4.08-3.54,3.94-3.47,3.79-3.4,3.66-3.32,3.52-3.26.86-.81.85-.8,3.31-3.16,3.18-3.08,3-3,.75-.75.73-.74,2.85-2.93,2.72-2.87,2.6-2.81,2.48-2.75,2.34-2.7.57-.66.56-.66,2.16-2.61,1-1.29,1-1.26,1.92-2.51,1.22-1.62c10.66-14.52,15.22-26.32,15.22-36.61C183.73,21.08,162.67,0,131.69,0Zm26.45,82.8L156.49,85l-1.3,1.68-1.38,1.7-1.94,2.32-.5.59-.52.59-2.11,2.39-.55.61-.56.61L145.32,98l-2.43,2.54-.63.64-.64.66L139,104.45l-2.76,2.71-2.89,2.78-3,2.85-3.17,2.94-5,4.55-3.52,3.14-5.53,4.88-3.87,3.38-6.09,5.23-11.27,9.65L80.6,136.91C32,95.28,13.86,74.45,13.86,51.91c0-25.65,14.77-37.86,38.18-37.86,11,0,29.61,9.37,35.34,24.64H97.69l.3-1.17c4.28-14.64,23-23.47,33.7-23.47,23.42,0,38.18,12.21,38.18,37.86C169.87,61.9,166.32,71.54,158.14,82.8Z"/><polygon class="cls-2" points="98.69 55.12 98.69 75.65 119.43 75.65 119.43 89.43 98.69 89.43 98.69 110.24 84.91 110.24 84.91 89.43 64.31 89.43 64.31 75.65 84.91 75.65 84.91 55.12 98.69 55.12 98.69 55.12"/></g></g></svg>