<svg xmlns="http://www.w3.org/2000/svg" viewBox="0 0 181.3 184"><defs><style>.cls-1{fill:#0c9;}.cls-2{fill:#abff99;}</style></defs><title>学术研讨会</title><g id="图层_2" data-name="图层 2"><g id="图层_1-2" data-name="图层 1"><path class="cls-1" d="M67.32,23.34a23.34,23.34,0,1,1,46.67,0V34.11a23.34,23.34,0,0,1-46.67,0Zm23.33-9a9,9,0,0,0-9,9V34.11a9,9,0,0,0,17.95,0V23.34A9,9,0,0,0,90.65,14.36ZM0,60.13a20.65,20.65,0,0,1,41.29,0V71.8A20.65,20.65,0,1,1,0,71.8Zm20.64-6.28a6.28,6.28,0,0,0-6.28,6.28V71.8a6.29,6.29,0,1,0,12.57,0V60.13A6.29,6.29,0,0,0,20.64,53.85Zm5.08,56.55a11.36,11.36,0,0,0-11.36,11.36h0v19.71a47.15,47.15,0,0,0,3.5,17.82L4.57,164.72A61.4,61.4,0,0,1,0,141.47V121.76A25.72,25.72,0,0,1,25.72,96h2.85a14.28,14.28,0,0,1,12.5,7.36l7.13,12.83H61.33A10.84,10.84,0,0,1,71,132l-.66,1.28a30.46,30.46,0,0,1-27.13,16.6,23.82,23.82,0,0,1-20.55-11.78l-2.8-4.79a7.18,7.18,0,0,1,12.38-7.26L35,130.85a9.45,9.45,0,0,0,8.16,4.68,16.1,16.1,0,0,0,11.61-4.94H48.2a14.35,14.35,0,0,1-12.55-7.38L28.53,110.4ZM181.3,60.13a20.64,20.64,0,0,0-41.28,0V71.8a20.64,20.64,0,1,0,41.28,0Zm-20.64-6.28a6.28,6.28,0,0,1,6.28,6.28V71.8a6.28,6.28,0,1,1-12.56,0V60.13A6.28,6.28,0,0,1,160.66,53.85Zm-5.08,56.55a11.35,11.35,0,0,1,11.36,11.36h0v19.71a47.15,47.15,0,0,1-3.5,17.82l13.29,5.43a61.4,61.4,0,0,0,4.57-23.25V121.76A25.71,25.71,0,0,0,155.58,96h-2.84a14.29,14.29,0,0,0-12.51,7.36l-7.13,12.83H120A10.84,10.84,0,0,0,110.32,132l.66,1.28a30.47,30.47,0,0,0,27.13,16.6,23.82,23.82,0,0,0,20.55-11.78l2.81-4.79a7.18,7.18,0,0,0-12.39-7.26l-2.81,4.79a9.44,9.44,0,0,1-8.16,4.68,16.1,16.1,0,0,1-11.61-4.94h6.6a14.35,14.35,0,0,0,12.55-7.38l7.12-12.81Z"/><path class="cls-1" d="M58.34,75.39a32.31,32.31,0,1,1,64.62,0V88a7.18,7.18,0,0,1-7.18,7.18H65.52A7.18,7.18,0,0,1,58.34,88Zm32.31-18a18,18,0,0,0-18,18v5.39h35.9V75.39A18,18,0,0,0,90.65,57.44Z"/><path class="cls-2" d="M39.29,91.9a14.35,14.35,0,0,1,14-11.12h73.85a14.36,14.36,0,0,1,14,11.12,7.18,7.18,0,1,1-14,3.24H53.28a7.18,7.18,0,1,1-14-3.24Zm-5.81,60.48A7.19,7.19,0,0,1,38.86,161h0l-2,8.63H143.55l-2-8.64a7.18,7.18,0,0,1,14-3.24l2,8.65a14.37,14.37,0,0,1-10.75,17.23,14.77,14.77,0,0,1-3.24.37H36.86A14.36,14.36,0,0,1,22.5,169.63a14,14,0,0,1,.37-3.23l2-8.65a7.17,7.17,0,0,1,8.61-5.37h0Z"/></g></g></svg>