<svg xmlns="http://www.w3.org/2000/svg" xmlns:xlink="http://www.w3.org/1999/xlink" viewBox="0 0 62.15 57.71"><defs><style>.cls-1{fill:url(#未命名的渐变_10);}.cls-2{fill:url(#未命名的渐变_10-2);}</style><linearGradient id="未命名的渐变_10" y1="28.85" x2="62.15" y2="28.85" gradientUnits="userSpaceOnUse"><stop offset="0" stop-color="#9fffd8"/><stop offset="1" stop-color="#0c9"/></linearGradient><linearGradient id="未命名的渐变_10-2" x1="20.89" y1="25.22" x2="41.03" y2="25.22" xlink:href="#未命名的渐变_10"/></defs><title>鉴权观看</title><g id="图层_2" data-name="图层 2"><g id="图层_1-2" data-name="图层 1"><path class="cls-1" d="M53.27,0H8.88A8.89,8.89,0,0,0,0,8.88V42.17a8.89,8.89,0,0,0,8.88,8.88H53.27a8.89,8.89,0,0,0,8.88-8.88V8.88A8.89,8.89,0,0,0,53.27,0Zm4.44,42.17a4.44,4.44,0,0,1-4.44,4.44H8.88a4.44,4.44,0,0,1-4.44-4.44V8.88A4.44,4.44,0,0,1,8.88,4.44H53.27a4.44,4.44,0,0,1,4.44,4.44V42.17Zm-11.1,11.1H15.54a2.22,2.22,0,0,0,0,4.44H46.61a2.22,2.22,0,0,0,0-4.44Z"/><path class="cls-2" d="M40.38,22.08,31,31.5a2.22,2.22,0,0,1-3.14,0l-6.27-6.28a2.22,2.22,0,0,1,3.13-3.14l4.71,4.71,7.85-7.85a2.22,2.22,0,1,1,3.14,3.14Z"/></g></g></svg>