<svg xmlns="http://www.w3.org/2000/svg" xmlns:xlink="http://www.w3.org/1999/xlink" viewBox="0 0 63.06 64.9"><defs><style>.cls-1{fill:url(#未命名的渐变_10);}.cls-2{fill:url(#未命名的渐变_10-2);}</style><linearGradient id="未命名的渐变_10" y1="32.45" x2="63.06" y2="32.45" gradientUnits="userSpaceOnUse"><stop offset="0" stop-color="#9fffd8"/><stop offset="1" stop-color="#0c9"/></linearGradient><linearGradient id="未命名的渐变_10-2" x1="25.57" y1="32.45" x2="37.9" y2="32.45" xlink:href="#未命名的渐变_10"/></defs><title>千万级并发</title><g id="图层_2" data-name="图层 2"><g id="图层_1-2" data-name="图层 1"><path class="cls-1" d="M9.09,0H9.6A26.11,26.11,0,0,1,19,2.17,60.56,60.56,0,0,1,31.54,9.41a64.15,64.15,0,0,1,10-6.1A36.28,36.28,0,0,1,49.2.53,20.54,20.54,0,0,1,53.48,0h0a11.24,11.24,0,0,1,4.58.9,7.82,7.82,0,0,1,3.28,2.72,9.39,9.39,0,0,1,1.43,3.44,15.86,15.86,0,0,1,.12,5.19,32.24,32.24,0,0,1-2.18,7.82,65.31,65.31,0,0,1-6.85,12.38,73.32,73.32,0,0,1,4.89,8.11,46.24,46.24,0,0,1,3.14,7.6,23.44,23.44,0,0,1,1.15,7.18,11.9,11.9,0,0,1-.88,4.46,8.12,8.12,0,0,1-2.65,3.37,10,10,0,0,1-5.66,1.73h-.79A25.9,25.9,0,0,1,44.82,63,59.28,59.28,0,0,1,31.54,55.5a70.55,70.55,0,0,1-7.49,4.8,44.64,44.64,0,0,1-7,3.17A24.5,24.5,0,0,1,10,64.9H9.51a10.86,10.86,0,0,1-4.73-1A7.89,7.89,0,0,1,1.65,61.2,10.83,10.83,0,0,1,0,55.6V54.55a29.25,29.25,0,0,1,2.2-9.39,65.78,65.78,0,0,1,7-12.71,73.27,73.27,0,0,1-4.61-7.58A44.33,44.33,0,0,1,.78,15.4a24.5,24.5,0,0,1-.78-5v-1A11.68,11.68,0,0,1,1.05,4.76,8,8,0,0,1,4.94.92,11,11,0,0,1,9.09,0m-1,3.8A4.86,4.86,0,0,0,4.83,5.63,7.42,7.42,0,0,0,3.7,10.18a23.16,23.16,0,0,0,1.49,7A57.16,57.16,0,0,0,11.5,29.26c1.13-1.49,2.31-2.94,3.52-4.37A101.7,101.7,0,0,1,28.47,11.77a64.19,64.19,0,0,0-5.81-3.71,39.83,39.83,0,0,0-8.48-3.67A14.33,14.33,0,0,0,8.05,3.8m43,.1a31.14,31.14,0,0,0-8.3,2.95,60.3,60.3,0,0,0-8.1,4.92,102.16,102.16,0,0,1,17,17.49,61.94,61.94,0,0,0,5.55-10.14,28.76,28.76,0,0,0,2.19-7.93,9.06,9.06,0,0,0-.68-4.93,4.39,4.39,0,0,0-2.42-2.14A10.22,10.22,0,0,0,51,3.9M31.53,14.06a94.87,94.87,0,0,0-7.16,6.28A99.41,99.41,0,0,0,13.74,32.45q2.42,3.27,5.12,6.33A96.43,96.43,0,0,0,31.54,50.84q3.24-2.55,6.24-5.4a99,99,0,0,0,11.55-13c-1.46-2-3-3.87-4.59-5.72A97.09,97.09,0,0,0,31.53,14.06M7.81,41.84A43,43,0,0,0,4.47,50a18.21,18.21,0,0,0-.75,5.73A6.32,6.32,0,0,0,5,59.49a4.75,4.75,0,0,0,2.76,1.56,11.92,11.92,0,0,0,4.61-.1A33.83,33.83,0,0,0,21,57.73a61.7,61.7,0,0,0,7.44-4.59c-1.64-1.34-3.25-2.72-4.81-4.16A102.44,102.44,0,0,1,11.5,35.64a70.31,70.31,0,0,0-3.69,6.2m39.7-1.2A101.67,101.67,0,0,1,34.6,53.14a61.53,61.53,0,0,0,7.67,4.7,35.19,35.19,0,0,0,7.45,2.9,14.79,14.79,0,0,0,4.68.45,5.55,5.55,0,0,0,3.28-1.3,5.41,5.41,0,0,0,1.56-3.16A14.18,14.18,0,0,0,59,51.62a36.37,36.37,0,0,0-2.7-7.71,65.47,65.47,0,0,0-4.72-8.26c-1.3,1.7-2.65,3.37-4.06,5Z"/><path class="cls-2" d="M30.83,26.35a6.31,6.31,0,0,1,3.56.53,6.17,6.17,0,1,1-3.56-.53m.31,3.72a2.32,2.32,0,0,0-1.21.72,2.46,2.46,0,1,0,1.21-.72Z"/></g></g></svg>