<svg width="1066" height="679" viewBox="0 0 1066 679" fill="none" xmlns="http://www.w3.org/2000/svg">
<path d="M525.566 78L238.281 243.864C206.713 262.089 195.898 302.454 214.123 334.022L379.987 621.307C398.212 652.874 438.577 663.69 470.145 645.464L757.43 479.6C788.997 461.375 799.813 421.01 781.587 389.443L615.723 102.158C597.498 70.5904 557.133 59.7746 525.566 78Z" fill="#F3F6FF"/>
<path d="M1042.47 637.403L1039.12 622.531C1037.78 617.321 1033.74 612.804 1022.51 608.76C1012.58 605.182 969.828 585.387 945.774 574.163C934.995 569.133 926.272 560.604 920.949 549.966L895.86 499.83L929.026 480.875L954.381 539.245L1044.3 601.692L1053.49 603.676L1044.71 636.982L1042.47 637.403Z" fill="#FFAE64"/>
<path d="M1044.67 634.523L1051.24 603.078C1054.68 601.703 1058.61 602.565 1061.16 605.254L1065.97 610.333L1060.95 622.603L1057.68 622.011L1056.97 629.175C1056.68 632.132 1055.85 635.012 1054.54 637.677L1049.9 647.112C1049.26 648.403 1047.98 649.259 1046.55 649.361C1044.33 649.517 1042.4 647.858 1042.23 645.643L1041 630.068L1041.76 634.473C1041.92 635.37 1042.84 635.917 1043.7 635.624C1044.2 635.455 1044.57 635.036 1044.67 634.523Z" fill="#2C2770"/>
<path d="M1006.91 636.918L998.007 624.541C994.741 620.267 989.254 617.691 977.338 618.357C969.05 618.821 928.709 617.104 894.614 615.493C866.453 614.162 844.389 590.898 844.389 562.705V561.5L868.889 534L887.454 581.008L994.626 603.335L1003.86 601.568L1008.81 635.654L1006.91 636.918Z" fill="#FFAE64"/>
<path d="M1007.81 633.407L1001.56 601.897C1004.19 599.286 1008.14 598.543 1011.54 600.022L1017.96 602.815L1018.13 616.074L1014.89 616.806L1017.04 623.678C1017.92 626.514 1018.29 629.486 1018.12 632.452L1017.54 642.952C1017.46 644.389 1016.62 645.675 1015.34 646.33C1013.36 647.34 1010.93 646.567 1009.91 644.596L1002.69 630.742L1005.11 634.499C1005.6 635.264 1006.66 635.407 1007.34 634.8C1007.73 634.451 1007.91 633.921 1007.81 633.407Z" fill="#2C2770"/>
<path d="M837.011 585.112L842.223 433.823L890.788 410.162L897.294 415.142C909.221 424.27 917.495 437.359 920.623 452.049L925.621 475.518L969.344 548.206C975.349 550.393 949.463 544.338 910.035 580.982C887.542 601.888 852.127 591.958 837.011 585.112Z" fill="#2C2770"/>
<path d="M688.147 351.224L724.217 319.502L725.819 321.34L689.749 353.062L686.074 354.96L688.147 351.224Z" fill="#2C2770"/>
<path d="M777.493 466.899L808.967 446.935C811.514 445.32 812.059 441.819 810.126 439.499L767.181 387.966C765.617 386.089 762.931 385.625 760.833 386.869L729.714 405.314C727.099 406.864 726.463 410.385 728.369 412.759L770.96 465.81C772.547 467.786 775.355 468.255 777.493 466.899Z" fill="#6B8CFF"/>
<path d="M766.2 451.755L797.756 431.662C798.269 431.335 798.374 430.627 797.978 430.165L764.044 390.556C763.728 390.188 763.196 390.101 762.781 390.348L731.491 408.964C730.966 409.277 730.842 409.986 731.23 410.46L764.899 451.546C765.218 451.935 765.776 452.025 766.2 451.755Z" fill="white"/>
<path d="M787.394 410.849L808.013 410.154L816.612 422.803L813.829 427.887L804.639 433.257L791.058 417.046L783.134 415.375C782.87 415.32 782.619 415.21 782.399 415.052C780.958 414.023 781.494 411.756 783.241 411.487L787.394 410.849Z" fill="#FF9330"/>
<path d="M907.121 353.341L859.384 313.476L833.061 335.731L863.735 361.872L805.41 408.771L818.188 426.535L905.791 372.263C910.909 369.093 912.776 362.528 910.099 357.121C909.379 355.666 908.364 354.379 907.121 353.341Z" fill="#1EB591"/>
<path d="M833.326 310.903C829.22 307.392 823.227 292.435 820.098 285.567C812.748 291.349 791.87 297.365 806.417 314.823C813.112 324.351 810.721 328.882 808.69 329.957C809 335.949 812.905 346.905 826.04 342.798C839.176 338.691 842.356 323.174 842.949 315.757C841.452 315.601 837.432 314.413 833.326 310.903Z" fill="#FF9330"/>
<mask id="mask0" mask-type="alpha" maskUnits="userSpaceOnUse" x="801" y="285" width="42" height="59">
<path d="M833.326 310.903C829.22 307.392 823.227 292.435 820.098 285.567C812.748 291.349 791.87 297.366 806.417 314.823C813.112 324.351 810.722 328.882 808.69 329.957C809.001 335.949 812.905 346.905 826.041 342.798C839.176 338.692 842.356 323.174 842.95 315.757C841.452 315.602 837.432 314.414 833.326 310.903Z" fill="white"/>
</mask>
<g mask="url(#mask0)">
<path d="M809.645 322.903C827.191 312.482 826.093 294.156 823.35 286.296L804.642 311.821C798.999 319.857 792.099 333.324 809.645 322.903Z" fill="#D76767"/>
</g>
<path d="M820.208 253.858C818.781 253.58 767.868 248.677 794.898 285.078L820.208 253.858Z" fill="#2C2770"/>
<path d="M822.984 304.581C820.447 310.995 807.587 318.782 793.992 311.704C789.828 309.536 788.741 308.429 788.022 303.543C787.237 298.217 789.926 291.864 789.534 289.851C789.246 288.361 786.925 288.962 786.545 286.786C786.087 284.147 792.225 278.503 792.631 276.483C793.68 271.275 795.062 267.252 797.229 264.133L811.273 265.891C808.554 267.379 809.334 267.134 814.877 269.738C820.362 272.316 823.974 270.172 826.8 269.425C824.738 276.754 836.611 273.646 835.026 277.05C833.757 279.773 823.521 296.696 822.553 298.776C824.485 299.684 826.421 292.904 828.531 292.668C830.908 292.401 834.973 293.343 832.226 299.243C829.478 305.143 824.919 305.26 822.984 304.581Z" fill="#FF9330"/>
<path d="M798.094 297.288C794.597 298.324 791.988 297.921 790.114 296.712L790.913 293.01L798.094 297.288Z" fill="white"/>
<path d="M798.528 272.748L802.006 276.171C802.581 276.737 802.591 277.662 802.027 278.24L802.025 278.242C801.463 278.818 800.541 278.83 799.965 278.268C799.963 278.266 799.962 278.265 799.96 278.263L796.482 274.841C795.907 274.274 795.898 273.35 796.461 272.772L796.464 272.769C797.025 272.193 797.948 272.182 798.524 272.744C798.525 272.745 798.527 272.747 798.528 272.748Z" fill="#2C2770"/>
<path d="M794.51 282.18C795.189 282.617 796.094 282.421 796.532 281.741C796.971 281.062 796.776 280.156 796.098 279.719C795.419 279.281 794.514 279.477 794.075 280.157C793.637 280.837 793.832 281.742 794.51 282.18Z" fill="black"/>
<path d="M837.515 258.768C814.593 241.706 790.845 259.383 797.546 263.962C811.815 273.713 795.029 276.953 813.989 288.231C814.724 288.668 822.689 285.262 824.358 288.979C825.854 292.31 820.021 297.26 820.021 297.26C820.626 303.749 824.026 305.987 825.87 305.202C849.588 295.098 850.396 268.357 837.515 258.768Z" fill="#2C2770"/>
<path d="M842.59 247.027C830.71 245.521 826.545 253.061 825.947 257.019C823.24 262.263 822.144 272.983 839.411 273.912C860.993 275.073 845.042 286.728 877.959 289.595C910.875 292.462 917.598 270.854 910.513 260.301C903.429 249.748 887.9 248.75 871.909 252.757C855.918 256.763 857.439 248.91 842.59 247.027Z" fill="#2C2770"/>
<path d="M848.579 310.011L854.624 311.397C861.265 312.921 866.697 317.732 868.657 324.284C875.692 347.789 882.472 380.126 882.472 380.126C882.472 380.126 908.469 422.739 909.225 424.317C889.394 426.119 892.54 444.408 865.09 450.416C843.13 455.223 832.685 449.512 830.208 446.055L824.224 387.59C818.056 387.848 812.631 383.527 811.475 377.436L810.978 374.814L806.794 383.741C801.844 394.302 788.98 398.379 778.892 392.584L722.167 360L732.034 339.998L785.185 362.903L798.989 332.756C802.405 325.295 808.811 319.639 816.614 317.191L838.21 310.418C841.569 309.364 845.147 309.223 848.579 310.011Z" fill="#1BE3B3"/>
<path d="M757.784 395.32L755.476 392.587C754.855 391.852 753.8 391.666 752.967 392.146L736.226 401.784C735.108 402.428 734.884 403.953 735.77 404.893L738.354 407.639C738.99 408.314 740.005 408.461 740.805 407.992L757.269 398.341C758.338 397.714 758.585 396.268 757.784 395.32Z" fill="#2C2770"/>
<path d="M767.025 402.53L744.311 416.682" stroke="black" stroke-linecap="round" stroke-linejoin="round"/>
<path d="M771.975 409.59L750.711 422.585" stroke="black" stroke-linecap="round" stroke-linejoin="round"/>
<path d="M779.088 416.574L764.091 426.249" stroke="black" stroke-linecap="round" stroke-linejoin="round"/>
<path d="M718.9 330.827L732.247 340.451L722.227 360.129L716.314 355.745C713.68 354.045 707.156 351.019 702.134 352.515C697.113 354.011 696.366 351.564 696.62 350.153C696.496 349.106 695.128 347.211 696.059 345.443C697.222 343.233 696.363 341.806 696.397 340.307C696.448 338.071 698.699 337.004 697.636 334.743C696.786 332.934 698.399 330.511 699.325 328.966L702.597 328.013C708.173 326.388 714.184 327.425 718.9 330.827Z" fill="#FF9330"/>
<path d="M348.107 311.563L417.386 343.869L401.804 377.286L322.594 340.35C317.287 337.875 315.024 331.499 317.537 326.109L328.568 302.452L423.119 99.687C424.615 96.4782 428.389 95.0734 431.542 96.5513L460.403 110.078L348.107 311.563Z" fill="#706AC7"/>
<path d="M439.91 112.736C442.399 107.398 448.734 105.085 454.06 107.568L712.104 227.896C717.429 230.379 719.729 236.719 717.24 242.057L624.544 440.844L347.214 311.522L439.91 112.736Z" fill="#CFCCFF"/>
<path d="M699.103 233.876L457.118 121.037C454.616 119.87 451.641 120.953 450.474 123.455L367.218 301.998C366.051 304.501 367.134 307.476 369.636 308.643L611.621 421.482C614.123 422.649 617.098 421.566 618.265 419.063L701.521 240.521C702.688 238.018 701.605 235.043 699.103 233.876Z" fill="#282F48"/>
<path fill-rule="evenodd" clip-rule="evenodd" d="M674.758 222.687C670.785 246.557 654.684 294.77 624.362 299.362C608.671 301.738 590.909 291.751 573.403 281.907C547.488 267.335 522.139 253.081 504.917 279.727C502.907 282.837 500.974 285.866 499.099 288.803C474.067 328.022 459.566 350.741 413.5 329.26L606.871 419.431C612.195 421.913 618.52 419.622 620.996 414.313L699.512 245.934C701.988 240.625 699.677 234.308 694.353 231.825L674.758 222.687Z" fill="#2F3B67"/>
<path d="M537.828 203.109L472.573 172.68C470.571 171.747 468.191 172.613 467.258 174.615L461.341 187.304C460.407 189.306 461.274 191.686 463.276 192.619L528.53 223.048C530.532 223.981 532.912 223.115 533.846 221.113L539.762 208.425C540.696 206.423 539.83 204.043 537.828 203.109Z" fill="#5FFFD8"/>
<path d="M656.04 258.749L624.319 243.957C622.317 243.023 619.937 243.89 619.003 245.892L613.087 258.58C612.153 260.582 613.019 262.962 615.021 263.896L646.742 278.687C648.744 279.621 651.124 278.755 652.058 276.753L657.975 264.064C658.908 262.062 658.042 259.682 656.04 258.749Z" fill="#5FFFD8"/>
<path d="M634.83 311.825L446.702 224.1C445.845 223.7 444.826 224.071 444.427 224.928L442.493 229.075C442.093 229.932 442.464 230.951 443.321 231.35L631.449 319.076C632.306 319.475 633.324 319.105 633.724 318.248L635.658 314.1C636.057 313.244 635.687 312.225 634.83 311.825Z" fill="#5FFFD8"/>
<path d="M624.18 334.99L436.052 247.264C435.196 246.865 434.177 247.235 433.778 248.092L431.844 252.24C431.444 253.097 431.815 254.115 432.672 254.515L620.799 342.24C621.656 342.64 622.675 342.269 623.074 341.412L625.008 337.265C625.408 336.408 625.037 335.389 624.18 334.99Z" fill="#5FFFD8"/>
<path d="M536.785 322.189L424.787 269.964C423.93 269.564 422.911 269.935 422.512 270.792L420.578 274.939C420.178 275.796 420.549 276.815 421.406 277.214L533.404 329.44C534.261 329.839 535.279 329.469 535.679 328.612L537.613 324.464C538.013 323.607 537.642 322.589 536.785 322.189Z" fill="#5FFFD8"/>
<path d="M416.969 344.164L703.362 477.711L692.292 501.451C689.77 506.859 683.42 509.237 678.11 506.761L401.332 377.697L416.969 344.164Z" fill="#2C2770"/>
<path d="M325.876 86.0001L295.783 103.374C291 106.136 289.362 112.252 292.123 117.035L309.497 147.127C312.259 151.91 318.375 153.549 323.157 150.788L353.25 133.414C358.033 130.652 359.672 124.536 356.911 119.753L339.536 89.6604C336.775 84.8774 330.659 83.2387 325.876 86.0001Z" fill="#F3F6FF"/>
<path d="M569.356 617L544.783 631.187C540 633.948 538.362 640.064 541.123 644.847L555.31 669.42C558.071 674.203 564.187 675.841 568.97 673.08L593.543 658.893C598.326 656.132 599.964 650.016 597.203 645.233L583.016 620.66C580.255 615.877 574.139 614.239 569.356 617Z" fill="#F3F6FF"/>
<path d="M306.207 561.542C310.672 577.765 327.443 587.296 343.665 582.832C359.888 578.367 369.42 561.596 364.955 545.374C360.49 529.151 343.72 519.619 327.497 524.084C311.274 528.549 301.743 545.319 306.207 561.542Z" fill="#FFE071"/>
<path d="M720.123 1H564.123C560.257 1 557.123 4.13401 557.123 8V111C557.123 114.866 560.257 118 564.123 118H720.123C723.989 118 727.123 114.866 727.123 111V8C727.123 4.13401 723.989 1 720.123 1Z" fill="white" stroke="#E5E5E5" stroke-width="2"/>
<path d="M584.623 42C589.317 42 593.123 38.1944 593.123 33.5C593.123 28.8056 589.317 25 584.623 25C579.929 25 576.123 28.8056 576.123 33.5C576.123 38.1944 579.929 42 584.623 42Z" fill="#A3B7FF"/>
<path d="M594.123 80H577.123V104H594.123V80Z" fill="#5FFFD8"/>
<path d="M594.123 63H577.123V87H594.123V63Z" fill="#1BE3B3"/>
<path d="M623.123 83H606.123V105H623.123V83Z" fill="#5FFFD8"/>
<path d="M623.123 73H606.123V93H623.123V73Z" fill="#1BE3B3"/>
<path d="M652.123 69H635.123V105H652.123V69Z" fill="#5FFFD8"/>
<path d="M652.123 56H635.123V80H652.123V56Z" fill="#1BE3B3"/>
<path d="M681.123 69H664.123V105H681.123V69Z" fill="#5FFFD8"/>
<path d="M681.123 38H664.123V74H681.123V38Z" fill="#1BE3B3"/>
<path d="M710.123 69H693.123V105H710.123V69Z" fill="#5FFFD8"/>
<path d="M710.123 49H693.123V85H710.123V49Z" fill="#1BE3B3"/>
<path d="M401.123 448H251.123C247.257 448 244.123 451.134 244.123 455V530C244.123 533.866 247.257 537 251.123 537H401.123C404.989 537 408.123 533.866 408.123 530V455C408.123 451.134 404.989 448 401.123 448Z" fill="white" stroke="#E5E5E5" stroke-width="2"/>
<path d="M291.123 488H317.123C316.173 473.538 305.049 461.986 291.123 461V488Z" fill="#1BE3B3"/>
<path d="M314.589 512C318.887 507.464 321.665 501.544 322.123 495H297.123L314.589 512Z" fill="#FFAE64"/>
<path d="M286.894 491.965V461C271.94 462.029 260.123 474.598 260.123 489.962C260.123 505.999 272.997 519 288.878 519C295.808 519 302.16 516.518 307.123 512.392L286.894 491.965Z" fill="#FF8282"/>
<path d="M380.123 500H336.123V508H380.123V500Z" fill="#A3B7FF"/>
<path d="M368.123 486H335.123V494H368.123V486Z" fill="#A3B7FF"/>
<path d="M398.123 471H336.123V479H398.123V471Z" fill="#A3B7FF"/>
<path d="M37.1918 516.363L49.7678 506.01C56.458 500.503 73.2058 504.715 73.2058 504.715L77.2001 487.458L58.365 484.158L48.9716 479.6L35.5557 514.62L37.1918 516.363Z" fill="#FFAE64"/>
<path d="M26.9561 508.301L24.9165 519.942C24.6512 521.456 25.2101 522.997 26.3845 523.99C28.1584 525.488 30.8025 525.325 32.4039 523.643C34.3394 521.61 37.2047 518.65 40.8178 515.057C47.8709 508.042 52.2154 505.405 52.2154 505.405C52.2154 505.405 50.2151 500.202 51.4527 493.139C52.6902 486.075 58.5299 483.216 58.5299 483.216C51.4841 478.858 43.0709 477.271 34.9219 478.765L34.0442 478.926L30.7099 492.416L32.1809 495.101L29.3103 501.017C28.191 503.324 27.3986 505.775 26.9561 508.301Z" fill="#2C2770"/>
<path d="M31.9987 632.079L29.8731 616.683C28.7423 608.492 40.5396 596.987 40.5396 596.987L28.5115 585.112L16.412 598.769L8.01123 604.125L29.7644 632.538L31.9987 632.079Z" fill="#FFAE64"/>
<path d="M20.3294 636.367L28.7703 643.845C29.8684 644.818 31.4004 645.134 32.794 644.676C34.899 643.984 36.0883 641.753 35.5221 639.611C34.8377 637.021 33.8644 633.213 32.7505 628.479C30.5759 619.24 30.6057 614.391 30.6057 614.391C30.6057 614.391 25.3765 613.415 20.2549 608.877C15.1334 604.34 15.7293 598.165 15.7293 598.165C8.66454 601.712 3.16882 607.756 0.30811 615.125L0 615.919L9.29664 625.374L12.2138 625.521L15.5866 630.812C16.9018 632.875 18.4981 634.745 20.3294 636.367Z" fill="#2C2770"/>
<path d="M39.4808 613.344L14.6929 590.526L93.6689 498.427L98.3633 408.189C98.7863 400.058 101.188 392.154 105.36 385.162L121.673 357.828L178.247 393.781L203.131 441.093L214.625 466.318C221.181 480.707 208.546 496.422 193.085 493.108L146.232 449.275L136.047 510.294C135.544 513.309 134.132 516.097 132 518.287L39.4808 613.344Z" fill="#2C2770"/>
<path d="M61.3945 475.332L176.029 462.011L200.815 493.637L56.7666 511.658L61.3945 475.332Z" fill="#2C2770"/>
<path d="M107.623 421.5L103.123 503L22.123 596.5" stroke="white"/>
<path d="M147.623 441L174.623 468.5L141.123 473" stroke="white"/>
<path d="M61.623 483L95.1228 479" stroke="white"/>
<path d="M126.518 268.639L147.862 268.132L192.216 278.652C203.438 281.314 215.143 281.162 226.292 278.209L230.426 277.114L233.11 312.637L199.039 326.009L191.068 341.669L189.519 385.803C189.137 396.687 178.762 404.41 168.226 401.653L108.643 386.062C104.63 385.011 102.085 381.066 102.783 376.976L111.936 323.374L101.598 335.34L77.2241 323.708L95.3062 288.268C101.316 276.489 113.299 268.953 126.518 268.639Z" fill="#FFE071"/>
<path d="M149.056 263.719C151.967 259.587 155.182 244.676 156.425 237.737C164.443 241.246 179.512 250.808 175.65 260.984C171.788 271.16 175.012 274.698 177.106 275.195C178.218 280.683 177.222 291.498 164.341 290.855C151.461 290.211 143.713 276.919 141.448 270.354C142.771 269.864 146.145 267.851 149.056 263.719Z" fill="#FF9330"/>
<path d="M137.017 249.801C138.548 257.969 147.346 258.409 154.847 253.859L166.088 248.86C169.942 247.145 176.76 238.256 179.687 234.026C182.917 230.474 185.481 231.698 187.801 222.257C190.121 212.816 183.928 202.029 174.89 199.016C165.852 196.004 164.561 202.029 151.219 200.308C140.972 198.985 134.864 203.32 134.865 214.08C134.865 221.604 124.38 222.392 127.118 234.026C128.839 241.342 135.725 242.915 137.017 249.801Z" fill="#2C2770"/>
<mask id="mask1" mask-type="alpha" maskUnits="userSpaceOnUse" x="141" y="237" width="36" height="54">
<path d="M149.122 262.969C152.141 258.988 155.798 244.374 157.25 237.564C165.099 241.303 179.76 251.26 175.608 261.177C171.456 271.093 174.546 274.697 176.61 275.259C177.542 280.716 176.214 291.362 163.448 290.287C150.681 289.211 143.404 275.822 141.362 269.261C142.691 268.823 146.103 266.95 149.122 262.969Z" fill="white"/>
</mask>
<g mask="url(#mask1)">
<path d="M167.683 270.971C154.991 259.971 158.575 245.343 161.953 239.404L173.367 262.765C176.76 270.084 180.374 281.971 167.683 270.971Z" fill="#D76767"/>
</g>
<path d="M152.75 255.721C155.014 261.751 166.929 269.247 179.796 262.884C187.308 259.17 185.35 249.564 183.014 239.062C181.348 231.575 180.721 223.086 177.607 218.436L164.413 219.826C166.935 221.263 171.506 223.069 166.264 225.4C161.077 227.707 155.417 228.305 152.782 227.557C154.584 234.433 149.629 235.997 151.054 239.202L155.093 248.281C151.089 250.574 148.537 246.719 147.762 244.505C145.54 244.213 141.712 245.02 144.183 250.575C146.653 256.129 150.924 256.32 152.75 255.721Z" fill="#FF9330"/>
<path d="M169.913 251.282L177.046 251.605C177 252.624 176.148 254.3 173.851 254.523C171.553 254.746 170.392 252.733 169.913 251.282Z" fill="white"/>
<path d="M174.631 228.216L178.799 226.362C179.49 226.055 180.298 226.366 180.605 227.057C180.913 227.747 180.602 228.556 179.911 228.863L175.743 230.717C175.053 231.024 174.244 230.713 173.937 230.022C173.63 229.332 173.94 228.523 174.631 228.216Z" fill="#2C2770"/>
<path d="M157.96 235.631L162.128 233.777C162.818 233.47 163.627 233.781 163.934 234.472C164.241 235.162 163.93 235.971 163.24 236.278L159.072 238.132C158.381 238.439 157.573 238.128 157.265 237.437C156.958 236.747 157.269 235.938 157.96 235.631Z" fill="#2C2770"/>
<path d="M163.426 241.187C162.736 241.495 161.927 241.184 161.62 240.493C161.313 239.803 161.624 238.994 162.314 238.687C163.005 238.38 163.813 238.69 164.121 239.381C164.428 240.072 164.117 240.88 163.426 241.187Z" fill="black"/>
<path d="M170.788 231.922L177.461 246.927L173.71 248.595" stroke="black"/>
<path d="M179.264 234.144C178.574 234.451 177.765 234.14 177.458 233.449C177.151 232.759 177.461 231.95 178.152 231.643C178.843 231.336 179.651 231.646 179.958 232.337C180.266 233.028 179.955 233.836 179.264 234.144Z" fill="black"/>
<path d="M102.21 335.927L76.6904 323.548L95.7769 287.502C102.082 275.594 114.362 268.055 127.834 267.821L141.523 267.584L157.462 288.707C160.206 291.256 165.431 300.045 164.375 314.807C163.055 333.26 151.906 412.247 137.876 423.722C128.045 431.762 100.131 418.269 79.3201 411.678C76.0675 410.647 75.1245 406.138 77.6496 403.844C105.288 378.728 108.69 345.137 111.15 324.766L102.21 335.927Z" fill="#0B86DF"/>
<path d="M282.911 215.386L284.737 186.503C284.955 183.056 284.823 181.951 287.197 179.443L291.986 174.384C292.613 173.722 293.718 173.95 294.03 174.807C294.975 177.398 294.585 180.288 292.988 182.536L291.303 186.503L291.986 193.699L295.439 187.223C296.572 185.098 300.387 181.352 302.59 180.38L306.096 178.834C307.272 178.315 308.477 179.504 307.973 180.687L307.419 181.989C307.009 182.95 306.352 183.784 305.514 184.407C303.098 186.203 299.335 190.804 298.498 193.696L296.973 198.96L300.213 195.555C302.096 193.577 307.732 188.609 310.221 187.486L310.803 187.223C311.697 186.82 312.684 187.564 312.541 188.535L312.482 188.929C312.319 190.039 311.767 191.055 310.925 191.797C310.021 192.593 302.59 197.884 301.803 203.884L310.321 199.199C311.07 198.787 312.006 199.196 312.213 200.025C312.566 201.438 311.989 202.919 310.802 203.764C307.761 205.929 302.349 210.075 302.59 211.997C303.209 216.935 301.844 220.884 296.973 223.384L269.694 276.313C262.068 291.108 248.978 302.351 233.2 307.656L226.103 310.042L224.123 281.083L236.661 275.694L282.911 215.386Z" fill="#FF9330"/>
<path d="M299.777 192.994L289.511 197.425L283.862 214.979L292.235 215.619C294.916 215.218 300.291 217.146 300.602 214.366C300.992 210.892 288.56 203.977 296.297 201.109C299.769 199.823 301.74 197.609 302.791 195.5C303.738 193.601 301.726 192.153 299.777 192.994Z" fill="#FF9330"/>
<path d="M284.803 212.884L288.064 200.925C288.839 198.083 290.966 195.806 293.748 194.838L300.325 192.55C300.617 192.449 300.942 192.523 301.16 192.742C302.498 194.079 302.212 196.32 300.582 197.279L295.303 200.384C296.136 203.718 297.303 211.284 295.303 214.884" stroke="black"/>
<path d="M190.584 343.649C192.071 318.014 183.293 287.477 178.591 274.929C204.053 283.185 222.524 280.017 231.248 276.5L234.053 312.481L199.666 325.209C203.138 348.083 205.387 370.245 196.691 407.721C194.092 418.923 190.225 422.364 176.663 423.887C163.101 425.41 188.726 375.693 190.584 343.649Z" fill="#0B86DF"/>
<path d="M146.923 358.661L175.074 317.439C175.666 316.571 176.83 316.31 177.736 316.841L208.154 334.665C209.169 335.26 209.454 336.599 208.768 337.556L179.625 378.197C179.023 379.037 177.881 379.28 176.989 378.757L147.563 361.515C146.563 360.929 146.269 359.618 146.923 358.661Z" fill="#2C2770"/>
<path d="M142.25 337.843L101.526 335.073L77.0126 322.921L69.6685 343.037C66.4102 351.961 73.514 361.253 82.9807 360.448L141.929 355.44L148.685 357.603C148.884 357.667 149.089 357.715 149.297 357.747L158.239 359.123C158.316 359.135 158.392 359.153 158.467 359.177L170.952 363.279C171.987 363.619 173.111 363.121 173.555 362.126C174.032 361.055 173.551 359.8 172.48 359.323L162.978 355.088L175.078 357.746C175.978 357.943 176.878 357.41 177.136 356.525C177.392 355.645 176.927 354.716 176.069 354.395L165.116 350.29L178.179 351.455C179.217 351.548 180.158 350.84 180.356 349.816C180.558 348.767 179.914 347.74 178.881 347.465L165.431 343.891L179.424 344.856C180.786 344.95 181.911 343.807 181.794 342.446C181.71 341.459 180.982 340.646 180.01 340.453L162.235 336.931L166.408 331.022L154.646 331.481C153.285 331.534 151.961 331.933 150.798 332.641L142.25 337.843Z" fill="#FF9330"/>
</svg>
