<svg width="1018" height="694" viewBox="0 0 1018 694" fill="none" xmlns="http://www.w3.org/2000/svg">
<path d="M608.663 44L321.378 209.864C289.811 228.089 278.995 268.454 297.22 300.022L463.084 587.307C481.31 618.874 521.675 629.69 553.242 611.464L840.527 445.6C872.094 427.375 882.91 387.01 864.684 355.443L698.82 68.1577C680.595 36.5904 640.23 25.7746 608.663 44Z" fill="#F3F6FF"/>
<path d="M385.782 124.369C391.319 98.3215 416.383 81.5795 441.764 86.9744L640.552 129.228L622.368 214.779L377.623 162.757L385.782 124.369Z" fill="#2C2770"/>
<path d="M680.63 137.747L442.297 87.0879C467.383 92.4201 483.283 117.612 477.811 143.357L422.908 401.654C416.6 431.335 434.931 460.381 463.854 466.529L719.821 520.937C687.947 514.162 667.745 482.152 674.697 449.442L725.754 209.242C732.706 176.531 712.504 144.522 680.63 137.747Z" fill="#1BE3B3"/>
<path d="M684.822 225.761L524.509 191.686L518.447 220.202L678.76 254.278L684.822 225.761Z" fill="white"/>
<path d="M587.665 262.428L512.852 246.526L506.791 275.043L581.603 290.945L587.665 262.428Z" fill="white"/>
<path d="M661.509 335.441L501.196 301.365L495.134 329.882L655.447 363.958L661.509 335.441Z" fill="white"/>
<path d="M460.114 465.734L711.806 519.233C736.007 524.377 759.904 508.412 765.183 483.578L773.809 442.996L532.805 391.769L526.51 421.383C519.944 452.275 490.217 472.133 460.114 465.734Z" fill="#2C2770"/>
<path d="M699.477 324.242C656.093 329.562 616.522 297.98 611.092 253.702C605.662 209.424 636.429 169.216 679.813 163.896C723.196 158.576 762.767 190.157 768.197 234.436C773.627 278.714 742.86 318.921 699.477 324.242Z" fill="#0B86DF"/>
<path d="M714.121 297.255L692.171 300.127L697.96 350.632L719.911 347.761L714.121 297.255Z" fill="#2C2770"/>
<path d="M728.687 341.83C728.24 337.932 724.787 335.177 720.975 335.674L696.366 338.893C692.556 339.392 689.827 342.956 690.274 346.855L703.965 466.298C704.412 470.196 707.865 472.951 711.677 472.454L736.286 469.235C740.098 468.736 742.825 465.172 742.378 461.273L728.687 341.83Z" fill="#FFE071"/>
<path d="M713.746 322.375C670.362 327.695 630.791 296.114 625.361 251.835C619.931 207.557 650.698 167.35 694.082 162.029C737.465 156.709 777.036 188.291 782.466 232.569C787.896 276.847 757.129 317.055 713.746 322.375Z" fill="#54B7FF"/>
<path d="M711.548 308.99C675.142 313.455 641.936 286.953 637.379 249.796C632.822 212.639 658.641 178.899 695.047 174.434C731.453 169.969 764.659 196.472 769.216 233.628C773.773 270.785 747.954 304.526 711.548 308.99Z" fill="white"/>
<path d="M177.637 553.653L178.793 537.405C179.409 528.762 193.998 519.521 193.998 519.521L184.237 504.739L168.871 516.121L159.097 519.792L175.246 553.639L177.637 553.653Z" fill="#FFAE64"/>
<path d="M164.742 555.521L171.777 565.018C172.692 566.253 174.194 566.909 175.723 566.741C178.031 566.487 179.734 564.458 179.618 562.139C179.477 559.335 179.304 555.219 179.187 550.125C178.959 540.18 180.041 535.214 180.041 535.214C180.041 535.214 174.89 533.08 170.622 527.318C166.353 521.556 168.302 515.353 168.302 515.353C160.29 517.459 153.345 522.466 148.816 529.403L148.328 530.15L155.812 541.859L158.771 542.641L161.083 548.798C161.984 551.197 163.216 553.46 164.742 555.521Z" fill="#2C2770"/>
<path d="M168.419 507.288L250.217 417.005C266.225 407.79 278.2 405.765 286.143 410.93C294.086 416.094 295.028 424.081 288.966 434.89L188.676 529.786L168.419 507.288Z" fill="#2C2770"/>
<path d="M117.292 588.218L114.24 572.978C112.616 564.871 123.695 552.673 123.695 552.673L110.971 541.547L99.7194 555.912L91.6578 561.766L115.09 588.811L117.292 588.218Z" fill="#FFAE64"/>
<path d="M105.903 593.204L114.782 600.158C115.936 601.062 117.484 601.285 118.848 600.743C120.907 599.925 121.96 597.627 121.264 595.523C120.424 592.979 119.222 589.236 117.825 584.579C115.095 575.489 114.831 570.646 114.831 570.646C114.831 570.646 109.553 569.988 104.166 565.769C98.7794 561.55 99.0017 555.349 99.0017 555.349C92.1633 559.317 87.0438 565.683 84.634 573.212L84.3742 574.022L94.2257 582.898L97.1467 582.868L100.833 587.945C102.271 589.925 103.977 591.695 105.903 593.204Z" fill="#2C2770"/>
<path d="M123.627 569.065L97.5047 547.788L170.766 451.081L169.993 360.723C169.924 352.582 171.843 344.547 175.585 337.316L190.215 309.045L248.86 341.511L276.56 387.23L289.559 411.715C296.973 425.681 285.311 442.132 269.678 439.759L220.26 398.839L213.784 460.363C213.464 463.402 212.223 466.271 210.229 468.585L123.627 569.065Z" fill="#2C2770"/>
<path d="M189.024 328.121L178.898 419.994L174.783 464.741L104.636 553.469" stroke="white"/>
<path d="M220.778 397.76L255.698 420.138L212.877 467.156" stroke="white"/>
<path d="M170.502 431.592L138.319 437.694" stroke="white"/>
<path d="M358.017 165.24C352.236 167.459 349.65 169.351 346.861 177.059C346.117 172.263 345.745 162.26 350.208 160.616C355.786 158.56 364.712 162.671 358.017 165.24Z" fill="#D76767"/>
<path d="M332.667 163.143L346.218 148.071L353.359 132.062C353.62 131.478 354.388 131.343 354.832 131.804C355.867 132.877 356.305 134.394 356.001 135.854L348.966 169.624L347.244 178.058L332.667 179.374V163.143Z" fill="#FF9330"/>
<path d="M304.632 307.059L282.522 309.625L275.406 324.12L279.201 328.952L289.876 333.059L301.729 314.073L309.924 311.071C310.188 310.974 310.43 310.824 310.635 310.631C311.993 309.344 311.083 307.059 309.212 307.059H304.632Z" fill="#FF9330"/>
<path d="M169.384 265.59L213.267 216.059L244.563 235.168L216.45 267.547L285.406 307.357L274.797 328.059L173.825 285.236C167.923 282.733 164.901 276.144 166.853 270.038C167.379 268.395 168.24 266.88 169.384 265.59Z" fill="#0B86DF"/>
<path d="M227.623 220.568C230.233 215.858 231.932 199.696 232.455 192.203C241.348 195.003 258.404 203.406 255.479 214.627C252.553 225.848 256.373 229.226 258.648 229.513C260.454 235.199 260.637 246.769 246.92 247.562C233.203 248.354 223.474 235.162 220.324 228.467C221.67 227.797 225.013 225.279 227.623 220.568Z" fill="#FF9330"/>
<mask id="mask0" mask-type="alpha" maskUnits="userSpaceOnUse" x="223" y="185" width="40" height="56">
<path d="M230.909 213.549C233.499 208.898 235.174 192.936 235.688 185.536C244.527 188.307 261.479 196.621 258.581 207.702C255.682 218.783 259.48 222.122 261.741 222.407C263.54 228.025 263.73 239.453 250.101 240.225C236.473 240.998 226.797 227.961 223.663 221.346C224.999 220.684 228.319 218.199 230.909 213.549Z" fill="white"/>
</mask>
<g mask="url(#mask0)">
<path d="M259.024 217.852C239.219 213.142 234.873 195.411 235.176 187.134L260.536 205.848C268.285 211.812 278.831 222.563 259.024 217.852Z" fill="#D76767"/>
</g>
<mask id="mask1" mask-type="alpha" maskUnits="userSpaceOnUse" x="223" y="185" width="40" height="56">
<path d="M230.881 213.439C233.471 208.788 235.147 192.826 235.661 185.426C244.499 188.197 261.452 196.511 258.554 207.592C255.655 218.673 259.453 222.012 261.714 222.297C263.513 227.914 263.703 239.343 250.074 240.115C236.446 240.888 226.77 227.851 223.636 221.235C224.972 220.574 228.291 218.089 230.881 213.439Z" fill="white"/>
</mask>
<g mask="url(#mask1)">
<path d="M258.997 217.742C239.192 213.032 234.846 195.301 235.149 187.024L260.509 205.738C268.258 211.702 278.803 222.453 258.997 217.742Z" fill="#D76767"/>
</g>
<path d="M236.698 195.119C238.767 201.662 251.022 210.306 265.07 204.26C269.373 202.408 270.534 201.387 271.599 196.593C272.761 191.367 270.536 184.874 271.068 182.906C271.463 181.448 273.732 182.21 274.264 180.079C274.91 177.495 269.199 171.458 268.937 169.425C268.264 164.184 267.173 160.095 265.238 156.847L251.122 157.585C253.725 159.255 252.966 158.957 247.258 161.143C241.609 163.306 238.164 160.921 235.403 159.978C236.934 167.394 225.329 163.461 226.665 166.951C227.734 169.742 236.724 187.26 237.541 189.392C235.551 190.154 234.107 183.292 232.02 182.906C229.672 182.471 225.555 183.114 227.872 189.163C230.188 195.211 234.721 195.654 236.698 195.119Z" fill="#FF9330"/>
<path d="M262.012 189.668C265.422 190.946 268.049 190.733 270.003 189.668L269.47 185.939L262.012 189.668Z" fill="white"/>
<path d="M259.029 166.6L263.292 164.266C263.998 163.879 264.884 164.138 265.271 164.844C265.657 165.551 265.398 166.437 264.692 166.823L260.43 169.158C259.724 169.545 258.838 169.286 258.451 168.58C258.064 167.873 258.323 166.987 259.029 166.6Z" fill="#2C2770"/>
<path d="M265.833 171.889C265.127 172.275 264.241 172.016 263.854 171.31C263.467 170.604 263.726 169.718 264.432 169.331C265.138 168.944 266.024 169.203 266.411 169.91C266.798 170.616 266.539 171.502 265.833 171.889Z" fill="black"/>
<path d="M244.792 183.177C244.792 183.177 239.637 174.752 236.441 179.546C232.703 185.153 240.171 188.07 240.171 188.07C239.105 194.462 235.559 196.439 233.778 195.527C210.872 183.808 213.507 153.469 229.406 151.559C246.814 149.467 238.441 134.058 252.406 134.059C265.957 134.937 269.777 153.845 264.934 156.654C250.465 165.048 248.242 160.948 246.824 163.203C245.405 165.457 245.914 174.191 246.824 179.546C247.163 181.541 247.022 182.649 246.645 183.177C246.214 183.783 245.472 183.628 244.792 183.177Z" fill="#2C2770"/>
<path d="M203.76 227.416C190.57 276.613 171.595 334.793 170.406 337.962C191.668 337.962 190.073 357.625 219.839 361.345C243.651 364.321 254.211 357.271 256.515 353.374L269.802 255.591L296.684 248.791C307.632 246.021 316.843 238.641 321.933 228.56L347.406 178.111L332.523 162.059L297.974 209.356H232.58C230.477 209.356 228.388 209.687 226.389 210.338L216.996 213.396C210.491 215.513 205.532 220.808 203.76 227.416Z" fill="#6B8CFF"/>
<path d="M208.227 265.055C227.568 264.623 245.668 241.331 241.907 210.059C228.655 210.059 203.607 213.294 198.02 213.294C191.035 213.294 184.051 265.594 208.227 265.055Z" fill="#0B86DF"/>
<path d="M206.116 261.055C225.329 260.63 238.315 226.88 242.407 210.059H195.976C189.038 210.059 182.1 261.586 206.116 261.055Z" fill="#6B8CFF"/>
<path d="M339.906 171.059L310.906 229.059L262.906 245.559L242.406 358.559" stroke="white"/>
<path d="M277.024 359.115L323.41 356.538L365.503 289.482L313.641 293.522L275.854 355.574L277.024 359.115Z" fill="#DAE2FF"/>
<path d="M275.854 355.574L322.612 353.054L366.206 286.144L314.344 290.184L275.854 355.574Z" fill="#6B8CFF"/>
<path d="M331.657 233.863L286.172 302.25L314.677 356.824L321.909 356.392L365.041 291.401L338.406 233.863H331.657Z" fill="#DAE2FF"/>
<path d="M334.164 236.329L292.151 299.523C291.139 301.045 291.038 302.998 291.887 304.616L317.983 354.317C319.743 357.669 324.445 357.925 326.559 354.784L367.766 293.539C368.764 292.056 368.894 290.154 368.108 288.549L342.818 236.898C341.121 233.431 336.301 233.114 334.164 236.329Z" fill="#1BE3B3"/>
<path d="M338.156 295.257C338.494 291.029 335.684 287.355 331.88 287.05C328.075 286.745 324.716 289.925 324.377 294.153C324.038 298.381 326.848 302.055 330.653 302.36C334.458 302.664 337.817 299.484 338.156 295.257Z" fill="#DAE2FF"/>
<path d="M652.453 583L627.88 597.187C623.098 599.949 621.459 606.064 624.22 610.847L638.407 635.42C641.169 640.203 647.284 641.841 652.067 639.08L676.64 624.893C681.423 622.132 683.061 616.016 680.3 611.233L666.113 586.66C663.352 581.878 657.236 580.239 652.453 583Z" fill="#F3F6FF"/>
<path d="M486.304 620.542C490.769 636.765 507.54 646.296 523.762 641.832C539.985 637.367 549.517 620.596 545.052 604.374C540.587 588.151 523.816 578.619 507.594 583.084C491.371 587.549 481.84 604.319 486.304 620.542Z" fill="#FFE071"/>
<path d="M890.22 1H734.22C730.354 1 727.22 4.13401 727.22 8V111C727.22 114.866 730.354 118 734.22 118H890.22C894.086 118 897.22 114.866 897.22 111V8C897.22 4.13401 894.086 1 890.22 1Z" fill="white" stroke="#E5E5E5" stroke-width="2"/>
<path d="M754.72 42C759.415 42 763.22 38.1944 763.22 33.5C763.22 28.8056 759.415 25 754.72 25C750.026 25 746.22 28.8056 746.22 33.5C746.22 38.1944 750.026 42 754.72 42Z" fill="#A3B7FF"/>
<path d="M764.22 80H747.22V104H764.22V80Z" fill="#5FFFD8"/>
<path d="M764.22 63H747.22V87H764.22V63Z" fill="#1BE3B3"/>
<path d="M793.22 83H776.22V105H793.22V83Z" fill="#5FFFD8"/>
<path d="M793.22 73H776.22V93H793.22V73Z" fill="#1BE3B3"/>
<path d="M822.22 69H805.22V105H822.22V69Z" fill="#5FFFD8"/>
<path d="M822.22 56H805.22V80H822.22V56Z" fill="#1BE3B3"/>
<path d="M851.22 69H834.22V105H851.22V69Z" fill="#5FFFD8"/>
<path d="M851.22 38H834.22V74H851.22V38Z" fill="#1BE3B3"/>
<path d="M880.22 69H863.22V105H880.22V69Z" fill="#5FFFD8"/>
<path d="M880.22 49H863.22V85H880.22V49Z" fill="#1BE3B3"/>
<path d="M510.22 522H360.22C356.354 522 353.22 525.134 353.22 529V604C353.22 607.866 356.354 611 360.22 611H510.22C514.086 611 517.22 607.866 517.22 604V529C517.22 525.134 514.086 522 510.22 522Z" fill="white" stroke="#E5E5E5" stroke-width="2"/>
<path d="M400.22 562H426.22C425.27 547.538 414.146 535.986 400.22 535V562Z" fill="#1BE3B3"/>
<path d="M423.687 586C427.984 581.464 430.762 575.544 431.22 569H406.22L423.687 586Z" fill="#FFAE64"/>
<path d="M395.992 565.965V535C381.037 536.029 369.22 548.598 369.22 563.962C369.22 579.999 382.094 593 397.975 593C404.906 593 411.257 590.518 416.22 586.392L395.992 565.965Z" fill="#FF8282"/>
<path d="M489.22 574H445.22V582H489.22V574Z" fill="#A3B7FF"/>
<path d="M477.22 560H444.22V568H477.22V560Z" fill="#A3B7FF"/>
<path d="M507.22 545H445.22V553H507.22V545Z" fill="#A3B7FF"/>
<path d="M980.151 565.363L967.575 555.01C960.885 549.503 944.137 553.715 944.137 553.715L940.143 536.458L958.978 533.158L968.372 528.6L981.788 563.62L980.151 565.363Z" fill="#FFAE64"/>
<path d="M990.387 557.301L992.427 568.942C992.692 570.456 992.133 571.997 990.959 572.99C989.185 574.488 986.541 574.325 984.94 572.643C983.004 570.61 980.139 567.65 976.526 564.057C969.473 557.042 965.128 554.405 965.128 554.405C965.128 554.405 967.128 549.202 965.891 542.139C964.653 535.075 958.814 532.216 958.814 532.216C965.859 527.858 974.273 526.271 982.422 527.765L983.299 527.926L986.634 541.416L985.163 544.101L988.033 550.017C989.152 552.324 989.945 554.775 990.387 557.301Z" fill="#2C2770"/>
<path d="M985.345 681.079L987.47 665.683C988.601 657.492 976.804 645.987 976.804 645.987L988.832 634.112L1000.93 647.769L1009.33 653.125L987.579 681.538L985.345 681.079Z" fill="#FFAE64"/>
<path d="M997.014 685.367L988.573 692.845C987.475 693.818 985.943 694.134 984.549 693.676C982.444 692.984 981.255 690.753 981.821 688.611C982.506 686.021 983.479 682.213 984.593 677.479C986.767 668.24 986.738 663.391 986.738 663.391C986.738 663.391 991.967 662.415 997.088 657.877C1002.21 653.34 1001.61 647.165 1001.61 647.165C1008.68 650.712 1014.17 656.756 1017.04 664.125L1017.34 664.919L1008.05 674.374L1005.13 674.521L1001.76 679.812C1000.44 681.875 998.845 683.745 997.014 685.367Z" fill="#2C2770"/>
<path d="M977.863 662.344L1002.65 639.526L923.675 547.427L918.98 457.189C918.557 449.058 916.155 441.154 911.983 434.162L895.67 406.828L839.096 442.782L814.212 490.093L802.718 515.318C796.162 529.707 808.797 545.422 824.258 542.108L871.111 498.275L881.296 559.294C881.799 562.309 883.211 565.097 885.343 567.287L977.863 662.344Z" fill="#2C2770"/>
<path d="M955.949 524.332L841.314 511.011L816.528 542.637L960.577 560.658L955.949 524.332Z" fill="#2C2770"/>
<path d="M909.72 470.5L914.22 552L995.22 645.5" stroke="white"/>
<path d="M869.72 490L842.72 517.5L876.22 522" stroke="white"/>
<path d="M955.72 532L922.22 528" stroke="white"/>
<path d="M890.825 317.639L869.481 317.132L825.127 327.652C813.905 330.314 802.2 330.162 791.051 327.209L786.917 326.114L784.233 361.637L818.304 375.009L826.275 390.669L827.824 434.803C828.206 445.687 838.581 453.41 849.117 450.653L908.7 435.062C912.714 434.011 915.259 430.066 914.56 425.976L905.407 372.374L915.746 384.34L940.119 372.708L922.037 337.268C916.028 325.489 904.044 317.953 890.825 317.639Z" fill="#FFE071"/>
<path d="M868.287 312.719C865.376 308.587 862.161 293.676 860.918 286.737C852.9 290.246 837.831 299.808 841.693 309.984C845.555 320.16 842.331 323.698 840.237 324.195C839.125 329.683 840.121 340.498 853.002 339.855C865.882 339.211 873.63 325.919 875.895 319.354C874.572 318.864 871.198 316.851 868.287 312.719Z" fill="#FF9330"/>
<path d="M880.326 298.801C878.795 306.969 869.997 307.409 862.496 302.859L851.255 297.86C847.401 296.145 840.583 287.256 837.656 283.026C834.426 279.474 831.862 280.698 829.542 271.257C827.222 261.816 833.415 251.029 842.453 248.016C851.491 245.004 852.782 251.029 866.124 249.308C876.371 247.985 882.479 252.32 882.478 263.08C882.478 270.604 892.963 271.392 890.225 283.026C888.504 290.342 881.618 291.915 880.326 298.801Z" fill="#2C2770"/>
<mask id="mask2" mask-type="alpha" maskUnits="userSpaceOnUse" x="840" y="286" width="36" height="54">
<path d="M868.221 311.969C865.202 307.988 861.545 293.374 860.093 286.564C852.244 290.303 837.583 300.26 841.735 310.177C845.887 320.093 842.797 323.697 840.733 324.259C839.801 329.716 841.129 340.362 853.895 339.287C866.662 338.211 873.939 324.822 875.981 318.261C874.652 317.823 871.24 315.95 868.221 311.969Z" fill="white"/>
</mask>
<g mask="url(#mask2)">
<path d="M849.66 319.971C862.352 308.971 858.768 294.343 855.39 288.404L843.976 311.765C840.583 319.084 836.969 330.971 849.66 319.971Z" fill="#D76767"/>
</g>
<path d="M864.593 304.721C862.329 310.751 850.414 318.247 837.547 311.884C830.035 308.17 831.993 298.564 834.329 288.062C835.995 280.575 836.622 272.086 839.736 267.436L852.93 268.826C850.408 270.263 845.837 272.069 851.079 274.4C856.266 276.707 861.926 277.305 864.561 276.557C862.759 283.433 867.714 284.997 866.289 288.202L862.25 297.281C866.254 299.574 868.806 295.719 869.581 293.505C871.803 293.213 875.631 294.02 873.16 299.575C870.69 305.129 866.419 305.32 864.593 304.721Z" fill="#FF9330"/>
<path d="M847.43 300.282L840.297 300.605C840.343 301.624 841.195 303.3 843.492 303.523C845.79 303.746 846.951 301.733 847.43 300.282Z" fill="white"/>
<path d="M842.712 277.216L838.545 275.362C837.854 275.055 837.045 275.366 836.738 276.057C836.431 276.747 836.742 277.556 837.432 277.863L841.6 279.717C842.291 280.024 843.1 279.713 843.407 279.022C843.714 278.332 843.403 277.523 842.712 277.216Z" fill="#2C2770"/>
<path d="M859.383 284.631L855.215 282.777C854.525 282.47 853.716 282.781 853.409 283.472C853.102 284.162 853.413 284.971 854.103 285.278L858.271 287.132C858.962 287.439 859.771 287.128 860.078 286.437C860.385 285.747 860.074 284.938 859.383 284.631Z" fill="#2C2770"/>
<path d="M853.917 290.187C854.608 290.495 855.416 290.184 855.723 289.493C856.031 288.803 855.72 287.994 855.029 287.687C854.339 287.38 853.53 287.69 853.223 288.381C852.916 289.072 853.226 289.88 853.917 290.187Z" fill="black"/>
<path d="M846.555 280.922L839.882 295.927L843.633 297.595" stroke="black"/>
<path d="M838.079 283.144C838.77 283.451 839.578 283.14 839.886 282.449C840.193 281.759 839.882 280.95 839.191 280.643C838.501 280.336 837.692 280.646 837.385 281.337C837.078 282.028 837.389 282.836 838.079 283.144Z" fill="black"/>
<path d="M915.133 384.927L940.653 372.548L921.567 336.502C915.261 324.594 902.981 317.055 889.509 316.821L875.82 316.584L859.881 337.707C857.137 340.256 851.912 349.045 852.968 363.807C854.288 382.26 865.437 461.247 879.467 472.722C889.298 480.762 917.212 467.269 938.023 460.678C941.276 459.647 942.219 455.138 939.694 452.844C912.055 427.728 908.653 394.137 906.193 373.766L915.133 384.927Z" fill="#0B86DF"/>
<path d="M734.432 264.386L732.606 235.503C732.388 232.056 732.52 230.951 730.146 228.443L725.357 223.384C724.73 222.722 723.625 222.95 723.313 223.807C722.368 226.398 722.758 229.288 724.355 231.536L726.04 235.503L725.357 242.699L721.904 236.223C720.771 234.098 716.956 230.352 714.753 229.38L711.247 227.834C710.071 227.315 708.866 228.504 709.37 229.687L709.924 230.989C710.334 231.95 710.991 232.784 711.829 233.407C714.245 235.203 718.008 239.804 718.845 242.696L720.37 247.96L717.13 244.555C715.247 242.577 709.611 237.609 707.122 236.486L706.54 236.223C705.646 235.82 704.659 236.564 704.802 237.535L704.861 237.929C705.024 239.039 705.576 240.055 706.418 240.797C707.322 241.593 714.753 246.884 715.54 252.884L707.022 248.199C706.273 247.787 705.337 248.196 705.13 249.025C704.777 250.438 705.354 251.919 706.541 252.764C709.582 254.929 714.994 259.075 714.753 260.997C714.134 265.935 715.499 269.884 720.37 272.384L747.649 325.313C755.275 340.108 768.365 351.351 784.143 356.656L791.24 359.042L793.22 330.083L780.682 324.694L734.432 264.386Z" fill="#FF9330"/>
<path d="M717.566 241.994L727.832 246.425L733.481 263.979L725.108 264.619C722.427 264.218 717.052 266.146 716.741 263.366C716.351 259.892 728.783 252.977 721.046 250.109C717.574 248.823 715.603 246.609 714.552 244.5C713.605 242.601 715.617 241.153 717.566 241.994Z" fill="#FF9330"/>
<path d="M732.54 261.884L729.279 249.925C728.504 247.083 726.377 244.806 723.595 243.838L717.018 241.55C716.726 241.449 716.401 241.523 716.183 241.742C714.845 243.079 715.131 245.32 716.761 246.279L722.04 249.384C721.207 252.718 720.04 260.284 722.04 263.884" stroke="black"/>
<path d="M826.759 392.649C825.272 367.014 834.05 336.477 838.752 323.929C813.29 332.185 794.819 329.017 786.095 325.5L783.29 361.481L817.677 374.209C814.205 397.083 811.956 419.245 820.652 456.721C823.251 467.923 827.118 471.364 840.68 472.887C854.242 474.41 828.617 424.693 826.759 392.649Z" fill="#0B86DF"/>
<path d="M870.42 407.661L842.269 366.439C841.677 365.571 840.513 365.31 839.607 365.841L809.189 383.665C808.174 384.26 807.889 385.599 808.575 386.556L837.718 427.197C838.32 428.037 839.462 428.28 840.354 427.757L869.78 410.515C870.78 409.929 871.074 408.618 870.42 407.661Z" fill="#2C2770"/>
<path d="M875.093 386.843L915.817 384.073L940.331 371.921L947.675 392.037C950.933 400.961 943.829 410.253 934.363 409.448L875.414 404.44L868.658 406.603C868.459 406.667 868.254 406.715 868.046 406.747L859.104 408.123C859.027 408.135 858.951 408.153 858.876 408.177L846.391 412.279C845.356 412.619 844.232 412.121 843.788 411.126C843.311 410.055 843.792 408.8 844.863 408.323L854.365 404.088L842.265 406.746C841.365 406.943 840.465 406.41 840.207 405.525C839.951 404.645 840.416 403.716 841.274 403.395L852.227 399.29L839.164 400.455C838.126 400.548 837.185 399.84 836.987 398.816C836.785 397.767 837.429 396.74 838.462 396.465L851.912 392.891L837.919 393.856C836.557 393.95 835.432 392.807 835.549 391.446C835.633 390.459 836.361 389.646 837.333 389.453L855.108 385.931L850.935 380.022L862.697 380.481C864.058 380.534 865.382 380.933 866.545 381.641L875.093 386.843Z" fill="#FF9330"/>
</svg>
