<svg width="1026" height="559" viewBox="0 0 1026 559" fill="none" xmlns="http://www.w3.org/2000/svg">
<path d="M909.574 538.824H254.575H209.82V235.386C209.82 213.894 227.265 196.47 248.783 196.47C270.302 196.47 287.746 179.047 287.746 157.554V124.686C287.746 85.0413 319.924 52.9021 359.617 52.9021H684.22C718.534 52.9021 746.351 80.6849 746.351 114.957C746.351 149.229 774.168 177.012 808.481 177.012H827.962C873.035 177.012 909.574 213.507 909.574 258.525V538.824Z" fill="#F3F6FF"/>
<path d="M698.991 227.503C711.227 230.123 723.27 222.328 725.89 210.092C728.51 197.857 720.715 185.813 708.479 183.193C696.243 180.573 684.2 188.368 681.58 200.604C678.96 212.84 686.755 224.883 698.991 227.503Z" fill="#FFAE64"/>
<path d="M704.899 228.768C717.135 231.388 729.178 223.593 731.798 211.358C734.418 199.122 726.623 187.079 714.387 184.458C702.151 181.838 690.108 189.633 687.488 201.869C684.868 214.105 692.663 226.148 704.899 228.768Z" fill="#FFE071"/>
<path d="M712.489 193.321L713.966 193.637L713.33 196.606C718.145 197.854 718.705 200.359 718.292 202.287L716.815 201.971C717.235 200.011 715.708 198.644 712.279 197.91C711.067 197.65 707.058 197.043 706.398 200.125C706.122 201.412 705.809 202.872 710.871 205.355L713.09 206.579C716.535 208.762 716.53 210.517 716.157 212.258C715.562 215.036 712.937 216.346 709.226 215.771L708.589 218.746L707.112 218.43L707.748 215.461C702.933 214.212 702.373 211.707 702.786 209.779L704.263 210.096C703.843 212.056 705.37 213.422 708.8 214.157C710.011 214.416 714.021 215.023 714.68 211.942C714.956 210.654 715.269 209.195 710.207 206.711L707.988 205.487C704.543 203.305 704.548 201.55 704.921 199.808C705.516 197.03 708.141 195.72 711.852 196.295L712.489 193.321Z" fill="#B39E53"/>
<path d="M626.835 167.38C647.961 171.903 668.747 158.474 673.264 137.384C677.78 116.294 664.315 95.53 643.189 91.0063C622.063 86.4826 601.277 99.9122 596.761 121.002C592.245 142.092 605.709 162.856 626.835 167.38Z" fill="#FFAE64"/>
<path d="M635.943 169.326C657.068 173.85 677.855 160.421 682.371 139.331C686.887 118.241 673.422 97.4768 652.297 92.9531C631.171 88.4294 610.384 101.859 605.868 122.949C601.352 144.039 614.817 164.803 635.943 169.326Z" fill="#FFE071"/>
<path d="M632.232 129.382L632.756 126.965L639.659 128.426C639.721 127.241 639.724 126.164 639.727 125.146C639.731 122.921 639.736 120.818 640.368 118.408C641.492 114.092 643.606 111.381 646.648 110.349C651.3 108.777 656.647 111.745 658.82 113.163L657.879 115.523C656.435 114.53 651.376 111.355 647.452 112.691C645.258 113.435 643.689 115.566 642.786 119.026C642.235 121.135 642.234 122.996 642.228 125.149C642.225 126.317 642.222 127.56 642.133 128.95L652.318 131.106L651.794 133.524L641.891 131.427C641.768 132.37 641.595 133.383 641.358 134.478C639.694 142.159 635.278 145.159 631.858 147.004L653.019 151.484L652.495 153.902L626.82 148.466L627.344 146.048L629.538 145.421C632.815 143.727 637.299 141.409 638.913 133.958C639.151 132.86 639.319 131.849 639.439 130.906L632.233 129.38L632.232 129.382Z" fill="#B39E53"/>
<path d="M797.025 527.996L809.598 517.22C816.287 511.487 815.007 493.977 815.007 493.977L832.988 493.005V512.445L835.904 522.65L798.483 529.94L797.025 527.996Z" fill="#FFAE64"/>
<path d="M803.302 539.66H791.287C789.724 539.66 788.279 538.83 787.492 537.48C786.302 535.441 786.93 532.822 788.895 531.513C791.27 529.932 794.737 527.582 798.969 524.594C807.231 518.763 810.633 514.875 810.633 514.875C810.633 514.875 815.493 517.791 822.782 517.791C830.072 517.791 833.96 512.445 833.96 512.445C837.088 520.265 837.2 528.967 834.275 536.865L833.96 537.716L819.867 538.688L817.437 536.744L811.009 538.581C808.502 539.297 805.908 539.66 803.302 539.66Z" fill="#2C2770"/>
<path d="M1010.77 549.197L995.412 538.702C987.244 533.12 968.626 539.614 968.626 539.614L962.328 520.394L983.412 514.725L993.631 508.586L1012.45 547.048L1010.77 549.197Z" fill="#FFAE64"/>
<path d="M1021.59 538.987L1025.09 552.019C1025.55 553.714 1025.07 555.524 1023.83 556.771C1021.97 558.656 1018.95 558.74 1016.95 556.99C1014.55 554.875 1010.99 551.799 1006.51 548.08C997.776 540.82 992.567 538.264 992.567 538.264C992.567 538.264 994.313 532.142 992.187 524.235C990.061 516.329 983.129 513.671 983.129 513.671C990.698 507.998 1000.1 505.338 1009.52 506.207L1010.54 506.301L1015.7 521.304L1014.3 524.507L1018.17 530.943C1019.68 533.452 1020.83 536.16 1021.59 538.987Z" fill="#2C2770"/>
<path d="M976.098 513.897C1017.21 496.012 1014.54 474.515 1008.13 444.897L887.114 394.694C879.712 391.623 871.508 391.062 863.757 393.096C852.367 396.085 843.105 404.363 838.861 415.348L804.82 503.461L834.82 510.461L878.839 444.897L917.647 474.515L855.353 492.568C844.513 495.71 837.289 505.935 837.95 517.202C838.699 529.981 849.281 539.961 862.082 539.961H981.798L976.098 513.897Z" fill="#2C2770"/>
<path d="M963.82 471.461C966.82 483.128 966.22 506.461 939.82 506.461C920.006 506.461 899.14 506.461 885.383 506.461C879.099 506.461 873.835 511.216 873.197 517.467C872.46 524.687 878.126 530.961 885.384 530.961H977.32" stroke="white"/>
<path d="M852.82 461.461L825.82 503.961" stroke="white"/>
<path d="M776.715 415.308L806.219 377.251L808.149 378.748L778.646 416.805L775.385 419.372L776.715 415.308Z" fill="#2C2770"/>
<path d="M886.894 511.715L914.111 486.082C916.314 484.007 916.184 480.466 913.834 478.559L861.652 436.213C859.752 434.671 857.016 434.731 855.185 436.354L828.027 460.429C825.745 462.452 825.79 466.03 828.123 467.995L880.245 511.899C882.187 513.535 885.046 513.456 886.894 511.715Z" fill="#6B8CFF"/>
<path d="M872.869 499.016L900.142 473.24C900.585 472.821 900.553 472.106 900.075 471.728L859.054 439.357C858.673 439.057 858.132 439.073 857.77 439.395L830.477 463.671C830.018 464.079 830.032 464.799 830.505 465.189L871.545 499.06C871.934 499.382 872.502 499.363 872.869 499.016Z" fill="white"/>
<path d="M885.95 454.798L906.147 450.16L917.039 460.927L915.266 466.451L907.233 473.485L890.747 460.178L882.616 460.058C882.344 460.054 882.076 459.994 881.828 459.882C880.211 459.148 880.307 456.82 881.978 456.221L885.95 454.798Z" fill="#FF9330"/>
<path d="M993.006 375.381L938.329 345.408L916.627 372.302L951.861 392.078L903.315 449.302L919.306 464.288L995.309 394.211C999.749 390.117 1000.34 383.315 996.664 378.521C995.676 377.231 994.43 376.162 993.006 375.381Z" fill="#1EB591"/>
<path d="M912.147 347.881C907.429 345.222 898.664 331.69 894.267 325.549C888.125 332.634 868.69 342.544 886.366 356.89C894.786 364.958 893.295 369.865 891.498 371.31C892.948 377.132 898.89 387.138 911.056 380.586C923.222 374.035 923.393 358.193 922.562 350.799C921.056 350.934 916.866 350.539 912.147 347.881Z" fill="#FF9330"/>
<mask id="mask0" mask-type="alpha" maskUnits="userSpaceOnUse" x="879" y="325" width="44" height="58">
<path d="M912.147 347.881C907.429 345.222 898.664 331.69 894.267 325.549C888.125 332.634 868.69 342.544 886.366 356.89C894.786 364.958 893.295 369.865 891.498 371.31C892.948 377.132 898.89 387.138 911.056 380.586C923.222 374.035 923.393 358.193 922.562 350.799C921.056 350.934 916.866 350.539 912.147 347.881Z" fill="white"/>
</mask>
<g mask="url(#mask0)">
<path d="M891.092 364.202C906.4 350.607 901.817 332.83 897.612 325.64L884.043 354.284C880.014 363.255 875.784 377.797 891.092 364.202Z" fill="#D76767"/>
</g>
<path d="M900.743 343.659C899.467 350.442 888.275 360.552 873.52 356.212C869.001 354.883 867.718 354.004 866.075 349.346C864.285 344.269 865.722 337.517 864.953 335.617C864.383 334.209 862.209 335.244 861.42 333.181C860.463 330.679 865.436 323.961 865.452 321.901C865.491 316.587 866.086 312.373 867.626 308.896L881.809 307.928C879.411 309.91 880.133 309.52 886.096 311.013C891.996 312.49 895.148 309.694 897.791 308.419C897.158 316.008 908.27 310.679 907.357 314.325C906.627 317.241 899.767 335.816 899.209 338.044C901.288 338.564 901.901 331.538 903.937 330.901C906.229 330.183 910.417 330.328 908.835 336.647C907.253 342.965 902.781 343.954 900.743 343.659Z" fill="#FF9330"/>
<path d="M874.811 341.275C871.561 342.963 868.912 343.068 866.833 342.24L866.915 338.453L874.811 341.275Z" fill="white"/>
<path d="M874.633 319.794L870.553 317.103C869.877 316.657 868.968 316.844 868.522 317.52C868.076 318.196 868.263 319.105 868.939 319.551L873.019 322.242C873.695 322.688 874.604 322.501 875.05 321.825C875.496 321.149 875.309 320.24 874.633 319.794Z" fill="#2C2770"/>
<path d="M868.395 327.133C869.147 327.434 870 327.068 870.301 326.316C870.602 325.564 870.236 324.711 869.484 324.41C868.733 324.109 867.879 324.475 867.578 325.227C867.277 325.978 867.643 326.832 868.395 327.133Z" fill="black"/>
<path d="M891.22 332.714C891.22 332.714 895.348 323.681 899.118 328.081C903.527 333.227 896.424 337.041 896.424 337.041C898.26 343.295 902.04 344.84 903.708 343.715C925.161 329.248 918.96 303.082 904.429 296.14C878.573 283.789 860.426 305.458 867.906 308.667C883.366 315.299 885.09 310.938 886.778 313.018C888.467 315.097 889.014 323.878 888.752 329.335C888.655 331.368 888.929 332.456 889.369 332.938C889.873 333.492 890.595 333.246 891.22 332.714Z" fill="#2C2770"/>
<path d="M949.859 354.055C974.628 394.925 1006.74 442.106 1008.64 444.647C989.429 450.22 996.024 467.569 970.108 478.733C949.376 487.663 937.987 484.061 934.885 481.143L907.328 416.43L901.96 428.663C897.789 438.167 887.042 442.901 877.215 439.564L811.932 417.397L817.84 395.871L874.617 408.157L882.468 375.918C884.411 367.939 889.646 361.158 896.872 357.259L916.869 346.468C919.98 344.789 923.481 343.964 927.015 344.079L933.239 344.28C940.077 344.502 946.313 348.204 949.859 354.055Z" fill="#1BE3B3"/>
<path d="M853.792 445.234L850.995 442.994C850.242 442.392 849.167 442.412 848.437 443.042L833.773 455.715C832.794 456.561 832.864 458.101 833.917 458.854L836.989 461.054C837.745 461.595 838.774 461.544 839.473 460.93L853.861 448.298C854.796 447.478 854.763 446.012 853.792 445.234Z" fill="#2C2770"/>
<path d="M864.28 450.539L844.588 468.787" stroke="black" stroke-linecap="round" stroke-linejoin="round"/>
<path d="M870.508 456.52L852.026 473.355" stroke="black" stroke-linecap="round" stroke-linejoin="round"/>
<path d="M878.856 462.011L865.917 474.384" stroke="black" stroke-linecap="round" stroke-linejoin="round"/>
<path d="M794.746 385.532L818.136 396.274L812.016 417.512L805.349 414.343C802.427 413.179 795.418 411.46 790.752 413.892C786.087 416.324 784.884 414.065 784.865 412.631C784.542 411.628 782.832 410.03 783.412 408.116C784.137 405.723 783.017 404.487 782.764 403.009C782.387 400.805 784.403 399.325 782.923 397.31C781.74 395.698 782.868 393.009 783.485 391.316L794.746 385.532Z" fill="#FF9330"/>
<path fill-rule="evenodd" clip-rule="evenodd" d="M385.007 510.544C388.341 512.111 389.757 516.05 388.169 519.34L380.545 535.139C378.958 538.429 374.968 539.827 371.633 538.259C368.299 536.692 366.883 532.755 368.471 529.465L376.095 513.666C377.683 510.374 381.672 508.978 385.007 510.544Z" fill="#2C2770"/>
<path fill-rule="evenodd" clip-rule="evenodd" d="M603.633 510.544C600.299 512.111 598.883 516.05 600.472 519.34L608.095 535.139C609.683 538.429 613.672 539.827 617.006 538.259C620.34 536.692 621.757 532.755 620.169 529.465L612.546 513.666C610.957 510.374 606.967 508.978 603.633 510.544Z" fill="#2C2770"/>
<path fill-rule="evenodd" clip-rule="evenodd" d="M487.007 510.544C490.341 512.111 491.757 516.05 490.168 519.34L482.545 535.139C480.958 538.429 476.968 539.827 473.633 538.259C470.299 536.692 468.883 532.755 470.471 529.465L478.094 513.666C479.682 510.374 483.673 508.978 487.007 510.544Z" fill="#2C2770"/>
<path fill-rule="evenodd" clip-rule="evenodd" d="M719.634 510.544C716.299 512.111 714.884 516.05 716.471 519.34L724.095 535.139C725.683 538.429 729.673 539.827 733.007 538.259C736.341 536.692 737.757 532.755 736.168 529.465L728.545 513.666C726.958 510.374 722.968 508.978 719.634 510.544Z" fill="#2C2770"/>
<path d="M608.82 514.902H730.893C742.451 514.902 751.82 505.279 751.82 493.409V293.395C751.82 281.525 742.451 271.902 730.893 271.902H608.82V514.902Z" fill="#2C2770"/>
<path d="M339.82 494.875C339.82 505.935 348.556 514.902 359.333 514.902H614.307C625.083 514.902 633.82 505.935 633.82 494.875V291.93C633.82 280.869 625.083 271.902 614.307 271.902H359.333C348.556 271.902 339.82 280.869 339.82 291.93V494.875Z" fill="#A3B7FF"/>
<path d="M634.82 294.902C619.779 344.828 567.14 438.962 473.328 449.833C376.563 461.045 358.91 497.217 362.179 513.902H620.245C628.636 511.632 634.82 503.826 634.82 494.548V294.902Z" fill="#6B8CFF"/>
<path fill-rule="evenodd" clip-rule="evenodd" d="M378.235 496.902H591.405C599.92 496.902 606.82 489.836 606.82 481.12V313.684C606.82 304.968 599.92 297.902 591.405 297.902H378.235C369.722 297.902 362.82 304.968 362.82 313.684V481.12C362.82 489.836 369.722 496.902 378.235 496.902Z" stroke="white" stroke-width="2"/>
<path d="M496.82 444.888C496.82 447.105 498.56 448.902 500.705 448.902H579.935C582.081 448.902 583.82 447.105 583.82 444.888V349.915C583.82 347.699 582.081 345.902 579.935 345.902H500.705C498.56 345.902 496.82 347.699 496.82 349.915V444.888Z" fill="#4E5F9A"/>
<path d="M493.82 444.888C493.82 447.105 495.56 448.902 497.703 448.902H576.935C579.081 448.902 580.82 447.105 580.82 444.888V349.915C580.82 347.699 579.081 345.902 576.935 345.902H497.703C495.56 345.902 493.82 347.699 493.82 349.915V444.888Z" fill="#282F48"/>
<path d="M493.82 368.902C493.82 371.111 495.56 372.902 497.703 372.902H576.935C579.081 372.902 580.82 371.111 580.82 368.902V348.902C580.82 346.693 579.081 344.902 576.935 344.902H497.703C495.56 344.902 493.82 346.693 493.82 348.902V368.902Z" fill="#3D4667"/>
<path d="M504.82 391.902C504.82 395.216 507.327 397.902 510.421 397.902H513.221C516.313 397.902 518.82 395.216 518.82 391.902V388.902C518.82 385.588 516.313 382.902 513.221 382.902H510.421C507.327 382.902 504.82 385.588 504.82 388.902V391.902Z" fill="#1BE3B3"/>
<path d="M530.82 391.902C530.82 395.216 533.327 397.902 536.421 397.902H539.219C542.313 397.902 544.82 395.216 544.82 391.902V388.902C544.82 385.588 542.313 382.902 539.219 382.902H536.421C533.327 382.902 530.82 385.588 530.82 388.902V391.902Z" fill="#1BE3B3"/>
<path d="M555.82 391.902C555.82 395.216 558.327 397.902 561.421 397.902H564.219C567.313 397.902 569.82 395.216 569.82 391.902V388.902C569.82 385.588 567.313 382.902 564.219 382.902H561.421C558.327 382.902 555.82 385.588 555.82 388.902V391.902Z" fill="#1BE3B3"/>
<path d="M504.82 411.902C504.82 415.216 507.327 417.902 510.421 417.902H513.221C516.313 417.902 518.82 415.216 518.82 411.902V408.902C518.82 405.588 516.313 402.902 513.221 402.902H510.421C507.327 402.902 504.82 405.588 504.82 408.902V411.902Z" fill="#1BE3B3"/>
<path d="M530.82 411.902C530.82 415.216 533.327 417.902 536.421 417.902H539.219C542.313 417.902 544.82 415.216 544.82 411.902V408.902C544.82 405.588 542.313 402.902 539.219 402.902H536.421C533.327 402.902 530.82 405.588 530.82 408.902V411.902Z" fill="#1BE3B3"/>
<path d="M555.82 411.902C555.82 415.216 558.327 417.902 561.421 417.902H564.219C567.313 417.902 569.82 415.216 569.82 411.902V408.902C569.82 405.588 567.313 402.902 564.219 402.902H561.421C558.327 402.902 555.82 405.588 555.82 408.902V411.902Z" fill="#1BE3B3"/>
<path d="M504.82 433.902C504.82 437.216 507.327 439.902 510.421 439.902H513.221C516.313 439.902 518.82 437.216 518.82 433.902V430.902C518.82 427.588 516.313 424.902 513.221 424.902H510.421C507.327 424.902 504.82 427.588 504.82 430.902V433.902Z" fill="#1BE3B3"/>
<path d="M530.82 433.902C530.82 437.216 533.327 439.902 536.421 439.902H539.219C542.313 439.902 544.82 437.216 544.82 433.902V430.902C544.82 427.588 542.313 424.902 539.219 424.902H536.421C533.327 424.902 530.82 427.588 530.82 430.902V433.902Z" fill="#1BE3B3"/>
<path d="M555.82 433.902C555.82 437.216 558.327 439.902 561.421 439.902H564.219C567.313 439.902 569.82 437.216 569.82 433.902V430.902C569.82 427.588 567.313 424.902 564.219 424.902H561.421C558.327 424.902 555.82 427.588 555.82 430.902V433.902Z" fill="#1BE3B3"/>
<path fill-rule="evenodd" clip-rule="evenodd" d="M600.82 377.235C600.82 367.662 608.303 359.902 617.534 359.902H622.678C625.517 359.902 627.82 362.29 627.82 365.235C627.82 368.181 625.517 370.569 622.678 370.569H617.534C613.983 370.569 611.105 373.553 611.105 377.235V420.57C611.105 424.251 613.983 427.236 617.534 427.236H622.678C625.517 427.236 627.82 429.623 627.82 432.569C627.82 435.515 625.517 437.902 622.678 437.902H617.534C608.303 437.902 600.82 430.142 600.82 420.57V377.235Z" fill="white"/>
<path d="M335.82 318.748C335.82 314.415 339.178 310.902 343.32 310.902C347.462 310.902 350.82 314.415 350.82 318.748V337.056C350.82 341.389 347.462 344.902 343.32 344.902C339.178 344.902 335.82 341.389 335.82 337.056V318.748Z" fill="#2C2770"/>
<path d="M335.82 453.748C335.82 449.415 339.178 445.902 343.32 445.902C347.462 445.902 350.82 449.415 350.82 453.748V472.056C350.82 476.388 347.462 479.902 343.32 479.902C339.178 479.902 335.82 476.388 335.82 472.056V453.748Z" fill="#2C2770"/>
<path d="M508.229 220.313C518.714 234.151 525.559 252.756 526.578 261.828C530.947 266.441 529.199 253.986 526.578 238.764C523.957 223.542 514.345 201.861 506.045 200.939C497.744 200.016 495.469 203.472 508.229 220.313Z" fill="#6B8CFF"/>
<path d="M519.471 207.302C527.527 222.682 526.418 251.492 523.891 260.265C526.165 266.198 528.731 253.651 534.471 239.302C540.207 224.96 540.471 197.302 526.471 187.802C519.56 183.113 508.47 186.302 519.471 207.302Z" fill="#54B7FF"/>
<path d="M548.047 225.536C539.659 236.697 534.183 251.701 533.368 259.017C529.873 262.737 531.271 252.693 533.368 240.417C535.465 228.14 543.154 210.656 549.794 209.912C556.435 209.168 558.255 211.955 548.047 225.536Z" fill="#6B8CFF"/>
<path d="M529.47 242.802C531.304 235.802 533.47 200.802 522.47 194.302" stroke="white" stroke-width="0.8"/>
<path d="M524.739 247.302C524.791 240.066 515.239 214.802 504.739 205.802" stroke="white" stroke-width="0.8"/>
<path d="M535.396 246.893C535.344 239.657 542.228 222.274 549.239 215.802" stroke="white" stroke-width="0.8"/>
<path d="M513.639 241.11H544.839L546.822 266.724C547.047 269.629 544.751 272.11 541.837 272.11H516.641C513.728 272.11 511.431 269.629 511.656 266.724L513.639 241.11Z" fill="#2C2770"/>
<path d="M301.933 31.4446L300.578 78.4511C299.654 110.5 315.903 140.54 343.11 157.079L354.682 157.398C389.758 142.824 413.073 108.803 414.175 70.5851L415.213 34.5624L408.681 34.3827C388.694 33.8325 370.21 23.6105 359.021 6.91953L347.449 6.60104C342.681 21.9074 328.414 32.1734 312.519 31.736L301.933 31.4446Z" fill="#FFBD32"/>
<path d="M289.883 31.4203L288.831 67.9777C287.741 105.855 308.805 140.816 342.641 157.288C377.716 142.727 401.028 108.732 402.127 70.5415L403.162 34.5443L396.631 34.3643C376.644 33.813 358.159 23.5968 346.968 6.91683C334.632 22.9651 315.443 32.1252 295.323 31.5704L289.883 31.4203Z" fill="#54B7FF"/>
<path fill-rule="evenodd" clip-rule="evenodd" d="M300.885 42.5163L300.046 71.64C299.171 102.01 316.066 130.035 343.192 143.211C371.312 131.565 390.012 104.313 390.894 73.6909L391.721 45.0172L386.434 44.8716C370.435 44.4312 355.635 36.261 346.66 22.9145C336.766 35.7552 321.402 43.0812 305.297 42.6378L300.885 42.5163Z" stroke="black" stroke-width="2"/>
<path fill-rule="evenodd" clip-rule="evenodd" d="M374.549 67.5416L338.561 105.158L320.368 85.5735L328.265 77.9791L338.704 89.2156L366.788 59.8604L374.549 67.5416Z" fill="white"/>
<path fill-rule="evenodd" clip-rule="evenodd" d="M134.148 533.47C132.116 533.47 130.524 531.722 130.713 529.699L146.918 355.902L156.861 356.97L137.578 530.401C137.383 532.148 135.906 533.47 134.148 533.47Z" fill="#627AC1"/>
<path fill-rule="evenodd" clip-rule="evenodd" d="M163.148 533.47C161.116 533.47 159.524 531.722 159.713 529.699L175.918 355.902L185.861 356.97L166.577 530.401C166.383 532.148 164.906 533.47 163.148 533.47Z" fill="#627AC1"/>
<path fill-rule="evenodd" clip-rule="evenodd" d="M250.074 533.47C252.106 533.47 253.698 531.722 253.509 529.699L237.304 355.902L227.361 356.97L246.645 530.401C246.839 532.148 248.316 533.47 250.074 533.47Z" fill="#627AC1"/>
<path d="M252.361 343.902H143.361C138.943 343.902 135.361 347.484 135.361 351.902C135.361 356.32 138.943 359.902 143.361 359.902H252.361C256.779 359.902 260.361 356.32 260.361 351.902C260.361 347.484 256.779 343.902 252.361 343.902Z" fill="#A3BAFF"/>
<path d="M284.05 526.954L272.249 516.839C265.971 511.458 267.172 495.024 267.172 495.024L250.294 494.111V512.357L247.557 521.937L282.681 528.779L284.05 526.954Z" fill="#FFAE64"/>
<path d="M280.494 527.656L249.382 519.656C246.628 522.134 245.665 526.042 246.952 529.516L249.382 536.077L262.61 536.99L263.523 533.797L270.263 536.324C273.045 537.368 275.992 537.902 278.964 537.902H289.48C290.919 537.902 292.25 537.138 292.975 535.894C294.095 533.975 293.458 531.513 291.548 530.377L278.12 522.393L281.735 525.022C282.471 525.558 282.555 526.625 281.911 527.269C281.54 527.639 281.001 527.787 280.494 527.656Z" fill="#2C2770"/>
<path d="M231.05 527.337L219.249 517.222C212.971 511.841 214.172 495.407 214.172 495.407L197.294 494.494V512.74L194.557 522.32L229.681 529.162L231.05 527.337Z" fill="#FFAE64"/>
<path d="M227.494 528.039L196.382 520.039C193.628 522.517 192.665 526.425 193.952 529.899L196.382 536.461L209.61 537.373L210.523 534.18L217.263 536.707C220.045 537.751 222.992 538.285 225.964 538.285H236.48C237.919 538.285 239.25 537.521 239.975 536.278C241.095 534.358 240.458 531.896 238.548 530.76L225.12 522.776L228.735 525.405C229.471 525.941 229.555 527.008 228.911 527.652C228.54 528.022 228.001 528.17 227.494 528.039Z" fill="#2C2770"/>
<path d="M219.302 507.813H194.321V373.902L162.065 357.23C143.74 347.759 134.958 326.421 141.307 306.795L216.321 305.402L278.694 345.206C286.987 350.499 291.405 360.162 289.982 369.897L269.82 507.813H247.32L245.82 375.902L238.317 371.972C238.373 373.207 238.315 374.458 238.137 375.709L219.302 507.813Z" fill="#2C2770"/>
<path d="M140.821 306.902C143.821 333.402 153.821 348.902 203.321 367.402L197.821 508.402" stroke="white"/>
<path d="M237.32 359.902L255.32 370.902L251.82 507.402" stroke="white"/>
<path d="M101.852 250.494L122.673 240.596L139.227 256.219L119.857 266.753C107.785 273.318 93.1885 273.227 81.1995 266.511L38.3893 242.532L29.4035 243.103H21.8518C19.2647 243.103 16.8123 241.949 15.163 239.956C13.9665 238.51 13.5052 236.592 13.9132 234.76L15.9725 225.514L1.72746 221.664C0.344004 221.29 -0.379616 219.77 0.202404 218.46C0.626654 217.506 1.63311 216.949 2.66722 217.097L20.078 219.584L21.1673 217.549C21.7874 216.391 23.0887 215.772 24.3786 216.02L30.1708 217.134C31.9945 217.484 33.6394 218.459 34.8234 219.89L41.0929 227.466L101.852 250.494Z" fill="#FFAE64"/>
<path d="M14.6042 231.9L25.4624 233.839C26.54 234.031 27.5826 233.356 27.8481 232.294C28.1006 231.284 27.5682 230.243 26.6016 229.857L23.7273 228.707" stroke="black"/>
<path d="M13.5732 236.978L24.661 237.764C25.7048 237.838 26.6276 237.091 26.7727 236.055C26.9202 235.001 26.2122 234.017 25.1657 233.823L24.6394 233.725" stroke="black"/>
<path d="M18.7097 241.935L27.3169 242.261C28.4085 242.302 29.3542 241.511 29.5057 240.429C29.652 239.383 29.0098 238.388 27.9967 238.091L25.5519 237.374" stroke="black"/>
<path d="M19.622 221.408L17.2413 230.534C17.0408 231.303 17.4706 232.095 18.2242 232.346C19.8533 232.889 21.6437 232.263 22.5796 230.824L26.9204 224.145C26.7684 225.97 29.8398 230.988 34.2189 234.637" stroke="black"/>
<path d="M265.015 204.15L242.932 210.771L241.13 233.463L262.563 228.286C275.92 225.06 286.686 215.202 291.076 202.181L306.749 155.683L313.797 150.08L319.399 145.015C321.318 143.28 322.363 140.779 322.25 138.195C322.168 136.32 321.224 134.588 319.693 133.503L311.964 128.025L319.949 115.616C320.724 114.411 320.242 112.798 318.932 112.217C317.977 111.793 316.857 112.055 316.189 112.858L304.942 126.38L302.77 125.601C301.533 125.158 300.152 125.571 299.362 126.62L295.812 131.331C294.695 132.815 294.128 134.64 294.209 136.496L294.64 146.321L265.015 204.15Z" fill="#FFAE64"/>
<path d="M317.262 131.844L310.508 140.565C309.838 141.43 308.612 141.629 307.703 141.019C306.838 140.439 306.535 139.31 306.993 138.375L308.354 135.594" stroke="black"/>
<path d="M321.433 134.92L313.735 142.939C313.011 143.694 311.825 143.759 311.022 143.088C310.206 142.405 310.072 141.2 310.717 140.354L311.042 139.928" stroke="black"/>
<path d="M320.947 142.042L314.781 148.056C313.999 148.819 312.766 148.866 311.929 148.165C311.119 147.487 310.928 146.319 311.48 145.419L312.813 143.247" stroke="black"/>
<path d="M306.504 127.427L314.39 132.6C315.054 133.036 315.267 133.912 314.876 134.603C314.032 136.099 312.284 136.835 310.624 136.395L302.926 134.352C304.262 135.604 305.349 141.386 304.548 147.029" stroke="black"/>
<path d="M144.159 216.813L162.923 210.124C168.5 210.124 183.001 209.842 196.386 208.716C209.771 207.589 234.031 208.716 253.551 205.899L257.734 231.249C249.369 235.474 236.82 239.699 220.089 242.516C225.666 259.416 221.948 262.232 217.3 267.865L213.117 286.174L223.253 309.902H140.615L149.17 283.902L144.152 255.164L126.672 266.457L109.94 245.332L135.35 222.111C137.904 219.777 140.899 217.976 144.159 216.813Z" fill="#6B8CFF"/>
<mask id="mask1" mask-type="alpha" maskUnits="userSpaceOnUse" x="109" y="205" width="149" height="105">
<path d="M144.159 216.813L162.923 210.124C168.5 210.124 183.001 209.842 196.386 208.716C209.771 207.589 234.031 208.716 253.551 205.899L257.734 231.249C249.369 235.474 236.82 239.699 220.089 242.516C225.666 259.416 221.948 262.232 217.3 267.865L213.117 286.174L223.253 309.902H140.615L149.17 283.902L144.152 255.164L126.672 266.457L109.94 245.332L135.35 222.111C137.904 219.777 140.899 217.976 144.159 216.813Z" fill="white"/>
</mask>
<g mask="url(#mask1)">
<path d="M228.541 193.127C221.698 220.496 296.051 237.83 291.034 270.673C286.016 303.516 159.205 381.062 114.046 357.342C68.8868 333.622 70.7114 292.112 156.468 293.937C242.225 295.762 262.296 257.901 241.769 237.83C221.242 217.759 161.03 279.34 159.205 253.795C157.381 228.251 234.471 220.496 203.452 201.794C178.033 186.468 167.872 234.181 140.047 240.111C117.786 244.855 105.531 236.614 102.186 231.9C81.0508 242.087 48.9071 265.29 89.4136 276.603C129.92 287.916 199.043 273.41 228.541 264.743" stroke="#A3B7FF" stroke-width="7"/>
</g>
<path d="M205.802 152.227C204.679 143.244 195.977 141.934 191.766 142.402C189.427 140.998 184.748 135.383 174.923 136.787C165.097 138.191 153.868 143.805 156.675 156.438C156.675 156.438 150.125 172.346 148.254 178.896C142.639 192.932 150.763 203.113 162.29 204.161C177.73 205.564 170.712 204.161 194.573 206.968C218.435 209.775 219.838 190.125 214.224 177.492C208.609 164.859 207.206 163.456 205.802 152.227Z" fill="#2C2770"/>
<path d="M198.784 162.052V166.263C200.656 165.795 204.399 165.702 204.399 169.07C204.399 173.281 201.591 176.089 198.784 174.685C198.42 179.06 196.066 187.696 189.068 191.296C189.319 194.595 190.052 199.33 191.766 202.757C194.012 207.249 198.316 209.307 200.188 209.775C197.381 213.05 189.52 219.601 180.537 219.601C171.554 219.601 164.629 213.05 162.29 209.775C163.694 209.307 167.343 207.53 170.712 204.161C173.364 201.509 173.87 195.204 173.737 190.587C167.904 186.663 166.125 178.794 165.097 174.685C163.226 175.153 159.483 174.966 159.483 170.474C159.483 165.983 163.694 165.795 165.097 166.263V162.052C167.905 162.52 175.203 162.333 181.941 157.842C188.678 153.35 190.362 151.291 190.362 150.823C190.362 153.163 191.394 157.47 193.17 159.245C195.977 162.052 197.848 161.585 198.784 162.052Z" fill="#FFAE64"/>
<path d="M187.031 181.267L180.644 184.46C181.101 185.372 182.56 186.558 184.75 185.828C186.939 185.099 187.183 182.787 187.031 181.267Z" fill="white"/>
<path d="M173.346 162.108H168.784C168.029 162.108 167.416 162.721 167.416 163.477C167.416 164.233 168.029 164.845 168.784 164.845H173.346C174.102 164.845 174.714 164.233 174.714 163.477C174.714 162.721 174.102 162.108 173.346 162.108Z" fill="#2C2770"/>
<path d="M191.592 162.108H187.031C186.275 162.108 185.662 162.721 185.662 163.477C185.662 164.233 186.275 164.845 187.031 164.845H191.592C192.348 164.845 192.961 164.233 192.961 163.477C192.961 162.721 192.348 162.108 191.592 162.108Z" fill="#2C2770"/>
<path d="M188.855 169.407C189.611 169.407 190.223 168.794 190.223 168.038C190.223 167.283 189.611 166.67 188.855 166.67C188.099 166.67 187.487 167.283 187.487 168.038C187.487 168.794 188.099 169.407 188.855 169.407Z" fill="black"/>
<path d="M178.364 163.933V180.355H182.469" stroke="black"/>
<path d="M171.521 169.407C172.277 169.407 172.89 168.794 172.89 168.038C172.89 167.283 172.277 166.67 171.521 166.67C170.765 166.67 170.153 167.283 170.153 168.038C170.153 168.794 170.765 169.407 171.521 169.407Z" fill="black"/>
<path d="M201.171 168.951C201.627 170.015 201.719 172.235 198.434 172.6" stroke="black"/>
<path d="M162.173 168.951C161.717 170.015 161.626 172.235 164.91 172.6" stroke="black"/>
<mask id="mask2" mask-type="alpha" maskUnits="userSpaceOnUse" x="159" y="150" width="46" height="70">
<path d="M198.784 162.052V166.263C200.656 165.795 204.399 165.702 204.399 169.07C204.399 173.281 201.591 176.089 198.784 174.685C198.42 179.06 196.066 187.696 189.068 191.296C189.319 194.595 190.052 199.33 191.766 202.757C194.012 207.249 198.316 209.307 200.188 209.775C197.381 213.05 189.52 219.601 180.537 219.601C171.554 219.601 164.629 213.05 162.29 209.775C163.694 209.307 167.343 207.53 170.712 204.161C173.364 201.509 173.87 195.204 173.737 190.587C167.904 186.663 166.125 178.794 165.097 174.685C163.226 175.153 159.483 174.966 159.483 170.474C159.483 165.983 163.694 165.795 165.097 166.263V162.052C167.905 162.52 175.203 162.333 181.941 157.842C188.678 153.35 190.362 151.291 190.362 150.823C190.362 153.163 191.394 157.47 193.17 159.245C195.977 162.052 197.848 161.585 198.784 162.052Z" fill="white"/>
</mask>
<g mask="url(#mask2)">
<path d="M172.434 189.934C173.65 190.694 177.543 192.671 181.557 192.671C185.367 192.671 188.931 191.438 190.063 190.922L190.224 190.846C190.177 190.869 190.124 190.895 190.063 190.922L171.977 199.513L172.434 189.934Z" fill="#FF8282"/>
</g>
</svg>
