<svg width="792" height="653" viewBox="0 0 792 653" fill="none" xmlns="http://www.w3.org/2000/svg">
<path d="M473.329 1H739.376C743.242 1 746.376 4.13401 746.376 8V134.127C746.376 137.993 743.242 141.127 739.376 141.127H473.329C469.463 141.127 466.329 137.993 466.329 134.127V8C466.329 4.13401 469.463 1 473.329 1Z" fill="white" stroke="#E5E5E5" stroke-width="2"/>
<path d="M540.308 64.1807H582.282C580.748 41.6989 562.79 23.7397 540.308 22.2072V64.1807Z" fill="#1BE3B3"/>
<path d="M577.517 102.378C584.288 95.0355 588.665 85.4509 589.387 74.8577H549.997L577.517 102.378Z" fill="#FFAE64"/>
<path d="M534.071 70.417V22.2077C510.559 23.8103 491.979 43.3785 491.979 67.2992C491.979 92.2675 512.221 112.509 537.189 112.509C548.086 112.509 558.073 108.644 565.876 102.221L534.071 70.417Z" fill="#FF8282"/>
<path d="M682.072 82.6115H611.897V95.0476H682.072V82.6115Z" fill="#A3B7FF"/>
<path d="M664.306 60.4041H611.897V72.8402H664.306V60.4041Z" fill="#A3B7FF"/>
<path d="M709.609 38.1967H611.897V50.6328H709.609V38.1967Z" fill="#A3B7FF"/>
<path d="M751.156 652.127H129.156H86.6558V363.627C86.6558 343.193 103.222 326.627 123.656 326.627C144.091 326.627 160.656 310.062 160.656 289.627V258.377C160.656 220.684 191.213 190.127 228.906 190.127H537.156C569.741 190.127 596.156 216.542 596.156 249.127C596.156 281.712 622.572 308.127 655.156 308.127H673.656C716.458 308.127 751.156 342.825 751.156 385.627V652.127Z" fill="#F3F6FF"/>
<path d="M151.92 419.172C184.713 406.388 203.917 437.771 209.124 452.612C210.595 456.806 208.252 457.275 204.176 455.504C185.009 447.175 167.182 487.359 144.142 483.519C118.686 479.276 110.201 435.436 151.92 419.172Z" fill="#1BE3B3"/>
<path d="M96.9277 371.45C73.0566 347.488 44.6693 361.47 32.2089 369.745C29.1321 371.788 29.6638 376.383 32.7755 378.373C43.0676 384.954 62.7665 400.91 78.0645 433.459C89.0415 456.816 128.53 403.172 96.9277 371.45Z" fill="#54B7FF"/>
<path d="M52.2291 428.278C22.8311 418.541 6.65419 441.662 0.217418 453.192C-0.756042 454.936 1.73971 458.178 3.73279 458.053C29.8832 456.4 41.39 489.621 62.1021 485.054C84.5093 480.113 90.0224 440.795 52.2291 428.278Z" fill="#1BE3B3"/>
<path d="M111.247 567.655C111.247 485.127 148.863 416.127 195.864 445.127M90.8219 559.857C109.63 499.738 110.143 385.427 56.5716 371.295L90.8219 559.857ZM73.3111 567.338C67.8628 512.627 97.8638 459.127 28.3628 446.627L73.3111 567.338Z" stroke="#4F4F4F"/>
<path d="M61.0748 549.548H121.075L129.224 622.892C130.212 631.777 123.256 639.548 114.316 639.548H67.8338C58.8936 639.548 51.9383 631.777 52.9256 622.892L61.0748 549.548Z" fill="#A3BAFF"/>
<path d="M129.075 549.548H52.0747V560.548H129.075V549.548Z" fill="#CCD9FF"/>
<path d="M518.915 63.127H305.656C301.79 63.127 298.656 66.261 298.656 70.127V211.889C298.656 215.755 301.79 218.889 305.656 218.889H518.915C522.781 218.889 525.915 215.755 525.915 211.889V70.127C525.915 66.261 522.781 63.127 518.915 63.127Z" fill="white" stroke="#E5E5E5" stroke-width="2"/>
<path d="M335.347 118.082C341.571 118.082 346.616 113.036 346.616 106.813C346.616 100.589 341.571 95.5443 335.347 95.5443C329.124 95.5443 324.079 100.589 324.079 106.813C324.079 113.036 329.124 118.082 335.347 118.082Z" fill="#A3B7FF"/>
<path d="M347.393 168.596H324.856V201.236H347.393V168.596Z" fill="#5FFFD8"/>
<path d="M347.393 145.282H324.856V177.922H347.393V145.282Z" fill="#1BE3B3"/>
<path d="M386.251 171.705H363.713V201.237H386.251V171.705Z" fill="#5FFFD8"/>
<path d="M386.252 159.27H363.714V185.693H386.252V159.27Z" fill="#1BE3B3"/>
<path d="M425.108 153.054H402.571V201.237H425.108V153.054Z" fill="#5FFFD8"/>
<path d="M425.108 136.733H402.571V168.596H425.108V136.733Z" fill="#1BE3B3"/>
<path d="M463.965 153.053H441.428V201.236H463.965V153.053Z" fill="#5FFFD8"/>
<path d="M463.965 112.641H441.428V160.825H463.965V112.641Z" fill="#1BE3B3"/>
<path d="M502.823 153.053H480.286V201.237H502.823V153.053Z" fill="#5FFFD8"/>
<path d="M502.824 126.63H480.287V174.813H502.824V126.63Z" fill="#1BE3B3"/>
<path d="M239.031 640.407L227.23 630.292C220.952 624.911 222.153 608.477 222.153 608.477L205.275 607.564V625.81L202.539 635.39L237.663 642.232L239.031 640.407Z" fill="#FFAE64"/>
<path d="M233.14 651.355H244.417C245.884 651.355 247.24 650.576 247.98 649.309C249.096 647.395 248.507 644.936 246.663 643.708C244.433 642.224 241.179 640.018 237.207 637.214C229.452 631.74 226.259 628.091 226.259 628.091C226.259 628.091 221.697 630.828 214.855 630.828C208.013 630.828 204.364 625.81 204.364 625.81C201.428 633.15 201.322 641.319 204.068 648.732L204.364 649.53L217.592 650.443L219.873 648.618L225.906 650.342C228.259 651.014 230.693 651.355 233.14 651.355Z" fill="#2C2770"/>
<path d="M116.782 640.407L128.583 630.292C134.861 624.911 133.659 608.477 133.659 608.477L150.537 607.564V625.81L153.274 635.39L118.15 642.232L116.782 640.407Z" fill="#FFAE64"/>
<path d="M122.673 651.355H111.396C109.929 651.355 108.573 650.576 107.834 649.309C106.717 647.395 107.306 644.936 109.151 643.708C111.38 642.224 114.634 640.018 118.607 637.214C126.361 631.74 129.554 628.091 129.554 628.091C129.554 628.091 134.116 630.828 140.958 630.828C147.801 630.828 151.45 625.81 151.45 625.81C154.386 633.15 154.491 641.319 151.745 648.732L151.45 649.53L138.221 650.443L135.94 648.618L129.907 650.342C127.555 651.014 125.12 651.355 122.673 651.355Z" fill="#2C2770"/>
<path d="M155.91 355.172L159.661 336.609L235.838 334.328L240.543 370.089C241.965 380.895 242.424 391.805 241.915 402.692L231.733 620.337H204.82L199.346 402.295L159.661 620.337H130.923L153.274 410.962L153.07 408.782C151.391 390.87 152.348 372.807 155.91 355.172Z" fill="#2C2770"/>
<mask id="mask0" mask-type="alpha" maskUnits="userSpaceOnUse" x="130" y="334" width="112" height="287">
<path d="M154.998 355.172L158.748 336.609L234.926 334.328L239.631 370.089C241.053 380.895 241.512 391.805 241.003 402.692L230.821 620.337H203.908L198.434 402.295L158.748 620.337H130.011L152.362 410.962L152.158 408.782C150.479 390.87 151.436 372.807 154.998 355.172Z" fill="white"/>
</mask>
<g mask="url(#mask0)">
<path d="M164.222 334.784C161.79 346.948 156.924 381.859 156.924 424.19C156.924 424.19 141.719 573.201 134.116 621.249" stroke="white"/>
<path d="M199.802 402.751C202.539 409.593 208.104 432.401 208.469 468.893C208.834 505.386 208.621 585.061 208.469 620.337" stroke="white"/>
</g>
<path d="M292.566 215.652L270.503 226.859L272.928 251.172L296.063 240.961C308.635 235.412 317.478 223.799 319.483 210.204L327.406 156.494L333.783 149.231L338.734 142.812C340.43 140.613 341.057 137.773 340.444 135.064C340 133.099 338.672 131.45 336.848 130.596L327.639 126.284L333.706 111.652C334.295 110.231 333.478 108.62 331.983 108.256C330.894 107.991 329.761 108.481 329.208 109.457L319.907 125.885L317.304 125.451C316.009 125.234 314.723 125.886 314.132 127.059L311.113 133.045C310.277 134.704 310.044 136.601 310.453 138.412L312.829 148.914L292.566 215.652Z" fill="#FF9330"/>
<path d="M333.964 129.308L328.493 139.807C327.95 140.85 326.693 141.293 325.616 140.822C324.593 140.375 324.057 139.24 324.362 138.165L325.269 134.968" stroke="black"/>
<path d="M338.956 131.761L332.355 141.7C331.733 142.636 330.493 142.93 329.517 142.374C328.525 141.808 328.153 140.562 328.673 139.545L328.935 139.033" stroke="black"/>
<path d="M339.802 139.376L334.435 146.905C333.755 147.86 332.462 148.145 331.443 147.564C330.459 147.003 330.034 145.805 330.446 144.749L331.439 142.201" stroke="black"/>
<path d="M321.757 126.694L331.074 130.653C331.859 130.987 332.251 131.872 331.97 132.677C331.363 134.418 329.658 135.529 327.82 135.38L319.298 134.691C320.949 135.758 323.2 141.659 323.43 147.773" stroke="black"/>
<path d="M158.511 236.733L179.162 231.314H232.606C239.047 231.314 245.457 230.425 251.655 228.672L282.91 219.833L288.384 247.873L242.314 275.818L238.173 292.895L241.797 318.603C243.262 328.991 235.06 338.214 224.572 337.972L162.737 336.546C158.211 336.442 154.673 332.604 154.935 328.084L156.954 293.355L149.656 307.384L123.256 301.692L132.671 263.035C135.8 250.187 145.721 240.089 158.511 236.733Z" fill="#54B7FF"/>
<path fill-rule="evenodd" clip-rule="evenodd" d="M179.162 231.314L158.511 236.733C145.721 240.089 135.8 250.187 132.671 263.035L123.256 301.692L149.656 307.384L156.954 293.355L124.176 494.969C123.69 497.961 125.956 500.694 128.987 500.77L153.21 501.374L183.656 388.627V238.127H210.156L216.156 388.627L233.101 503.365L257.875 503.983C260.923 504.059 263.329 501.413 262.964 498.386L238.173 292.895L242.314 275.818L288.384 247.873L282.91 219.833L251.655 228.672C245.457 230.425 239.047 231.314 232.606 231.314H179.162Z" fill="#FFE071"/>
<path d="M219.656 190.127L206.656 188.127" stroke="black"/>
<path d="M179.304 226.744C181.183 222.052 180.87 206.801 180.478 199.762C189.089 201.327 205.958 207.153 204.549 217.946C203.14 228.738 207.093 231.437 209.246 231.437C211.594 236.52 213.12 247.274 200.439 249.62C187.758 251.966 177.151 240.821 173.433 234.956C174.607 234.174 177.425 231.437 179.304 226.744Z" fill="#FF9330"/>
<mask id="mask1" mask-type="alpha" maskUnits="userSpaceOnUse" x="173" y="200" width="38" height="50">
<path d="M179.619 226.736C181.486 222.102 181.174 207.04 180.786 200.089C189.341 201.633 206.103 207.388 204.703 218.047C203.303 228.706 207.231 231.371 209.37 231.371C211.704 236.391 213.22 247.012 200.62 249.329C188.019 251.646 177.48 240.64 173.785 234.847C174.952 234.074 177.752 231.371 179.619 226.736Z" fill="white"/>
</mask>
<g mask="url(#mask1)">
<path d="M206.306 227.448C187.31 225.383 181.184 209.38 180.496 201.637L206.306 216.091C214.221 220.737 225.303 229.513 206.306 227.448Z" fill="#D76767"/>
</g>
<path d="M180.995 201.364C180.612 207.794 188.452 219.484 202.795 218.9C211.168 218.559 213.283 208.986 215.416 198.441C216.937 190.923 219.813 182.912 218.858 177.397L206.237 173.306C207.958 175.644 207.393 175.127 201.656 175.127C195.979 175.127 193.76 171.881 191.656 170.127C190.509 177.142 181.656 169.798 181.656 173.306C181.656 176.111 183.656 194.484 183.656 196.627C181.656 196.627 182.694 190.127 180.995 189.088C179.082 187.919 175.258 187.101 175.258 193.18C175.258 199.259 179.082 201.169 180.995 201.364Z" fill="#FF9330"/>
<path d="M181.656 196.627C181.656 196.627 182.656 188.627 179.656 188.627C173.332 188.627 175.656 196.127 175.656 196.127C169.823 185.127 171.656 164.627 188.656 159.627C214.314 152.081 226.156 175.917 218.656 177.127C203.156 179.627 191.656 172.127 189.656 173.627C187.656 175.127 185.656 189.127 184.656 194.127C183.856 198.127 182.489 197.794 181.656 196.627Z" fill="#2C2770"/>
<path d="M198.48 204.283L204.866 207.476C204.41 208.388 202.95 209.574 200.761 208.844C198.571 208.114 198.328 205.803 198.48 204.283Z" fill="white"/>
<path d="M212.165 185.124H216.727C217.483 185.124 218.095 185.737 218.095 186.492C218.095 187.248 217.483 187.861 216.727 187.861H212.165C211.409 187.861 210.797 187.248 210.797 186.492C210.797 185.737 211.409 185.124 212.165 185.124Z" fill="#2C2770"/>
<path d="M193.919 185.124H198.481C199.236 185.124 199.849 185.737 199.849 186.492C199.849 187.248 199.236 187.861 198.481 187.861H193.919C193.163 187.861 192.551 187.248 192.551 186.492C192.551 185.737 193.163 185.124 193.919 185.124Z" fill="#2C2770"/>
<path d="M196.655 193.422C195.899 193.422 195.287 192.81 195.287 192.054C195.287 191.298 195.899 190.685 196.655 190.685C197.411 190.685 198.023 191.298 198.023 192.054C198.023 192.81 197.411 193.422 196.655 193.422Z" fill="black"/>
<path d="M207.147 186.949V203.37H203.042" stroke="black"/>
<path d="M211.989 193.422C211.233 193.422 210.62 192.81 210.62 192.054C210.62 191.298 211.233 190.685 211.989 190.685C212.745 190.685 213.357 191.298 213.357 192.054C213.357 192.81 212.745 193.422 211.989 193.422Z" fill="black"/>
<path fill-rule="evenodd" clip-rule="evenodd" d="M204.656 191.627C204.656 194.941 201.97 197.627 198.656 197.627C195.343 197.627 192.656 194.941 192.656 191.627C192.656 190.797 192.824 190.193 193.095 189.746C193.364 189.302 193.756 188.975 194.272 188.734C195.335 188.236 196.853 188.127 198.656 188.127C200.46 188.127 201.978 188.236 203.04 188.734C203.556 188.975 203.949 189.302 204.218 189.746C204.488 190.193 204.656 190.797 204.656 191.627Z" stroke="black"/>
<path d="M208.095 189.746C206.976 188.703 205.683 188.703 204.218 189.746" stroke="black"/>
<path fill-rule="evenodd" clip-rule="evenodd" d="M219.656 191.627C219.656 194.941 216.97 197.627 213.656 197.627C210.343 197.627 207.656 194.941 207.656 191.627C207.656 190.797 207.824 190.193 208.095 189.746C208.364 189.302 208.756 188.975 209.272 188.734C210.335 188.236 211.853 188.127 213.656 188.127C215.46 188.127 216.978 188.236 218.04 188.734C218.556 188.975 218.949 189.302 219.218 189.746C219.488 190.193 219.656 190.797 219.656 191.627Z" stroke="black"/>
<path d="M192.656 190.127L179.656 188.127" stroke="black"/>
<path d="M281.885 285.588L230.852 292.722C230.128 292.823 229.517 293.311 229.258 293.995L215.324 330.847C214.788 332.263 215.96 333.738 217.461 333.536L267.915 326.758C268.615 326.664 269.214 326.207 269.49 325.557L284.991 289.008C285.366 288.123 285.059 287.097 284.259 286.563L283.271 285.905C282.863 285.633 282.37 285.52 281.885 285.588Z" fill="#2C2770"/>
<path d="M282.961 287.707L234.613 294.475C232.803 294.728 231.276 295.949 230.629 297.658L219.102 328.143C217.763 331.684 220.693 335.371 224.445 334.867L268.182 328.991C269.953 328.753 271.463 327.588 272.142 325.935L286.152 291.818C287.032 289.675 285.255 287.386 282.961 287.707Z" fill="#6B8CFF"/>
<path d="M255.548 315.18C257.753 313.517 258.328 310.561 256.832 308.576C255.336 306.592 252.336 306.33 250.131 307.992C247.925 309.654 247.35 312.611 248.846 314.595C250.342 316.58 253.342 316.842 255.548 315.18Z" fill="#2C2770"/>
<path d="M202.041 315.575L148.156 307.127L123.656 301.627L121.114 314.663C119.311 323.908 126.375 332.507 135.794 332.534L198.032 332.712L204.182 336.246C204.364 336.35 204.554 336.44 204.75 336.515L213.166 339.724C213.265 339.761 213.366 339.791 213.468 339.813L227.429 342.788C228.156 342.943 228.905 342.657 229.343 342.057C230.135 340.973 229.571 339.431 228.266 339.115L218.685 336.789H233.582C234.152 336.789 234.676 336.476 234.946 335.975C235.474 334.999 234.835 333.801 233.73 333.694L221.783 332.547L239.402 330.991C240.082 330.931 240.674 330.501 240.941 329.873C241.442 328.696 240.626 327.378 239.349 327.302L223.435 326.357L238.26 324.02C239.272 323.86 240.058 323.05 240.187 322.033C240.358 320.683 239.327 319.479 237.966 319.44L218.685 318.893L220.138 317.982L223.138 309.982L214.122 311.489C213.676 311.564 213.237 311.676 212.81 311.825L202.041 315.575Z" fill="#FF9330"/>
<path d="M680.427 640.323L692.287 630.744C696.37 627.243 698.636 621.621 697.304 609.761C695.642 594.96 686.357 533.127 686.357 533.127H711.445L713.27 626.182L715.55 635.306L681.795 642.148L680.427 640.323Z" fill="#FFAE64"/>
<path d="M683.983 641.025L715.095 633.025C717.848 635.503 718.811 639.411 717.525 642.885L715.095 649.446L701.866 650.359L700.954 647.165L694.213 649.693C691.431 650.736 688.484 651.271 685.513 651.271H674.996C673.557 651.271 672.226 650.506 671.501 649.263C670.382 647.344 671.019 644.882 672.928 643.746L686.357 635.762L682.742 638.391C682.005 638.926 681.922 639.993 682.566 640.637C682.936 641.008 683.475 641.155 683.983 641.025Z" fill="#2C2770"/>
<path d="M781.708 639.697L770.305 631.03C766.221 627.53 763.919 615.065 763.006 610.047C759.813 587.696 756.164 529.764 756.164 529.764H731.075L748.409 627.381L746.129 635.592L780.34 641.522L781.708 639.697Z" fill="#FFAE64"/>
<path d="M778.152 640.855L747.041 632.855C744.287 635.333 743.324 639.241 744.611 642.715L747.041 649.276L760.269 650.189L761.182 646.996L767.922 649.523C770.704 650.567 773.651 651.101 776.622 651.101H787.139C788.578 651.101 789.909 650.337 790.634 649.093C791.754 647.174 791.117 644.712 789.207 643.576L775.778 635.592L779.393 638.221C780.13 638.756 780.214 639.823 779.57 640.467C779.199 640.838 778.66 640.985 778.152 640.855Z" fill="#2C2770"/>
<path d="M755.58 368.971L751.83 350.408L675.652 348.127L668.81 400.129L669.758 536.136H770.567L758.216 424.761L758.42 422.582C760.099 404.669 759.143 386.606 755.58 368.971Z" fill="#2C2770"/>
<path d="M747.268 348.583C749.701 360.747 754.567 395.658 754.567 437.989C754.567 437.989 756.231 488.878 763.834 536.926" stroke="white"/>
<path d="M624.13 229.676L644.671 240.109L642.413 262.743L622.269 253.853C609.698 248.304 600.854 236.69 598.849 223.096L591.696 174.601L585.759 167.839L581.15 161.864C579.571 159.817 578.987 157.172 579.557 154.651C579.971 152.821 581.207 151.286 582.906 150.49L591.479 146.476L585.83 132.855C585.282 131.532 586.043 130.032 587.434 129.693C588.449 129.446 589.504 129.902 590.018 130.811L598.677 146.105L600.95 145.726C602.245 145.51 603.531 146.161 604.122 147.334L606.775 152.594C607.611 154.252 607.844 156.15 607.434 157.961L605.266 167.545L624.13 229.676Z" fill="#FF9330"/>
<path d="M585.59 149.291L590.683 159.067C591.189 160.037 592.359 160.45 593.362 160.011C594.315 159.595 594.814 158.538 594.53 157.537L593.685 154.561" stroke="black"/>
<path d="M580.943 151.575L587.089 160.828C587.667 161.699 588.822 161.974 589.73 161.456C590.654 160.929 591 159.769 590.516 158.822L590.272 158.346" stroke="black"/>
<path d="M580.156 158.665L585.151 165.674C585.785 166.563 586.989 166.829 587.937 166.288C588.854 165.766 589.249 164.65 588.866 163.667L587.941 161.295" stroke="black"/>
<path d="M596.955 146.858L588.281 150.544C587.55 150.855 587.186 151.679 587.447 152.428C588.012 154.049 589.6 155.083 591.31 154.945L599.244 154.304C597.707 155.297 595.612 160.79 595.397 166.482" stroke="black"/>
<path d="M754.801 249.733L734.151 244.314H680.706C674.265 244.314 667.855 243.425 661.657 241.672L630.402 232.833L624.928 260.873L670.998 288.818L675.139 305.895L671.494 331.749C670.037 342.088 678.156 351.285 688.595 351.12L744.583 350.238C748.622 350.175 751.98 347.11 752.412 343.094L756.358 306.355L763.656 320.384L790.056 314.692L780.641 276.035C777.512 263.187 767.592 253.089 754.801 249.733Z" fill="#54B7FF"/>
<path d="M734.151 244.314L754.801 249.733C767.592 253.089 777.512 263.187 780.641 276.035L790.056 314.692L763.656 320.384L758.156 311.627L755.544 340.731C754.956 347.29 755.367 353.901 756.765 360.336L788.773 507.718C789.439 510.785 787.148 513.699 784.011 513.778L760.102 514.374L729.656 401.627V251.127H703.156L697.156 401.627L680.211 516.365L655.598 516.979C652.495 517.056 650.072 514.318 650.527 511.247L679.656 314.692L676.363 309.153C672.852 303.245 670.998 296.5 670.998 289.627L624.928 260.873L630.402 232.833L661.657 241.672C667.855 243.425 674.265 244.314 680.706 244.314H734.151Z" fill="#FF6767"/>
<path d="M692.287 188.79C693.41 179.807 702.112 178.497 706.323 178.965C708.662 177.561 713.341 171.947 723.166 173.35C732.992 174.754 744.221 180.368 741.414 193.001C741.414 193.001 747.964 208.909 749.835 215.459C755.45 229.495 747.326 239.676 735.799 240.724C720.359 242.128 727.377 240.724 703.516 243.531C679.654 246.339 678.251 226.688 683.865 214.055C689.479 201.423 690.883 200.019 692.287 188.79Z" fill="#2C2770"/>
<path d="M699.305 198.616V202.826C697.433 202.359 693.69 202.265 693.69 205.634C693.69 209.845 696.497 212.652 699.305 211.248C699.669 215.623 702.022 224.259 709.02 227.859C708.769 231.158 708.036 235.893 706.323 239.321C704.077 243.812 699.773 245.871 697.901 246.339C700.708 249.614 708.569 256.164 717.552 256.164C726.535 256.164 733.459 249.614 735.799 246.339C734.395 245.871 730.746 244.093 727.377 240.724C724.725 238.072 724.219 231.768 724.352 227.15C730.185 223.226 731.964 215.357 732.991 211.248C734.863 211.716 738.606 211.529 738.606 207.037C738.606 202.546 734.395 202.359 732.991 202.826V198.616C730.184 199.083 722.885 198.896 716.148 194.405C709.411 189.913 707.726 187.854 707.726 187.387C707.726 189.726 706.695 194.033 704.919 195.808C702.112 198.616 700.24 198.148 699.305 198.616Z" fill="#FFAE64"/>
<path d="M711.058 217.83L717.444 221.023C716.988 221.936 715.528 223.122 713.339 222.392C711.149 221.662 710.906 219.351 711.058 217.83Z" fill="white"/>
<path d="M724.743 198.672H729.304C730.06 198.672 730.673 199.285 730.673 200.04C730.673 200.796 730.06 201.409 729.304 201.409H724.743C723.987 201.409 723.374 200.796 723.374 200.04C723.374 199.285 723.987 198.672 724.743 198.672Z" fill="#2C2770"/>
<path d="M706.497 198.672H711.059C711.815 198.672 712.427 199.285 712.427 200.04C712.427 200.796 711.815 201.409 711.059 201.409H706.497C705.741 201.409 705.129 200.796 705.129 200.04C705.129 199.285 705.741 198.672 706.497 198.672Z" fill="#2C2770"/>
<path d="M709.234 205.97C708.478 205.97 707.866 205.358 707.866 204.602C707.866 203.846 708.478 203.233 709.234 203.233C709.99 203.233 710.603 203.846 710.603 204.602C710.603 205.358 709.99 205.97 709.234 205.97Z" fill="black"/>
<path d="M719.725 200.496V216.918H715.62" stroke="black"/>
<path d="M726.568 205.97C725.812 205.97 725.199 205.358 725.199 204.602C725.199 203.846 725.812 203.233 726.568 203.233C727.323 203.233 727.936 203.846 727.936 204.602C727.936 205.358 727.323 205.97 726.568 205.97Z" fill="black"/>
<path d="M696.918 205.514C696.461 206.578 696.37 208.798 699.655 209.163" stroke="black"/>
<path d="M735.916 205.514C736.372 206.578 736.463 208.798 733.179 209.163" stroke="black"/>
<mask id="mask2" mask-type="alpha" maskUnits="userSpaceOnUse" x="693" y="187" width="46" height="70">
<path d="M699.305 198.616V202.826C697.433 202.359 693.69 202.265 693.69 205.634C693.69 209.845 696.497 212.652 699.305 211.248C699.669 215.623 702.022 224.259 709.02 227.859C708.769 231.158 708.036 235.893 706.323 239.321C704.077 243.812 699.773 245.871 697.901 246.339C700.708 249.614 708.569 256.164 717.552 256.164C726.535 256.164 733.459 249.614 735.799 246.339C734.395 245.871 730.746 244.093 727.377 240.724C724.725 238.072 724.219 231.768 724.352 227.15C730.185 223.226 731.964 215.357 732.991 211.248C734.863 211.716 738.606 211.529 738.606 207.037C738.606 202.546 734.395 202.359 732.991 202.826V198.616C730.184 199.083 722.885 198.896 716.148 194.405C709.411 189.913 707.726 187.854 707.726 187.387C707.726 189.726 706.695 194.033 704.919 195.808C702.112 198.616 700.24 198.148 699.305 198.616Z" fill="white"/>
</mask>
<g mask="url(#mask2)">
<path d="M725.655 226.497C724.439 227.257 720.546 229.234 716.532 229.234C712.722 229.234 709.158 228.001 708.026 227.486L707.865 227.409C707.911 227.433 707.965 227.458 708.026 227.486L726.111 236.076L725.655 226.497Z" fill="#FF8282"/>
</g>
<path d="M708.051 211.174C703.909 211.174 700.551 207.816 700.551 203.674C700.551 199.532 703.909 196.174 708.051 196.174C712.193 196.174 715.551 199.532 715.551 203.674C715.551 207.816 712.193 211.174 708.051 211.174Z" stroke="black"/>
<path d="M728.051 211.174C723.909 211.174 720.551 207.816 720.551 203.674C720.551 199.532 723.909 196.174 728.051 196.174C732.193 196.174 735.551 199.532 735.551 203.674C735.551 207.816 732.193 211.174 728.051 211.174Z" stroke="black"/>
<path d="M721.051 201.174C720.384 200.508 718.351 199.574 715.551 201.174" stroke="black"/>
<path d="M636.609 299.427L684.176 306.076C685.986 306.329 687.514 307.55 688.161 309.259L698.966 337.837C700.305 341.378 697.376 345.064 693.624 344.56L652.396 339.022C650.645 338.787 649.149 337.645 648.459 336.019L633.748 301.334L636.609 299.427Z" fill="#2C2770"/>
<path d="M634.815 301.34L682.27 307.983C684.08 308.236 685.607 309.457 686.254 311.166L697.059 339.744C698.398 343.285 695.469 346.972 691.717 346.468L650.527 340.934C648.756 340.696 647.247 339.531 646.568 337.878L632.688 304.081C632.101 302.652 633.286 301.126 634.815 301.34Z" fill="#6B8CFF"/>
<path d="M662.442 327.746C660.339 326.161 659.791 323.342 661.217 321.449C662.644 319.556 665.505 319.307 667.608 320.892C669.711 322.477 670.259 325.296 668.833 327.189C667.406 329.081 664.545 329.331 662.442 327.746Z" fill="#2C2770"/>
<path d="M713.466 328.123L764.852 320.067L788.215 314.822L790.478 326.426C792.282 335.671 785.218 344.271 775.799 344.298L717.29 344.465L711.438 347.827C711.256 347.932 711.066 348.022 710.87 348.097L702.858 351.151C702.764 351.187 702.668 351.215 702.57 351.236L689.256 354.073C688.564 354.221 687.849 353.948 687.431 353.376C686.676 352.342 687.214 350.872 688.458 350.57L697.595 348.352H683.389C682.846 348.352 682.346 348.054 682.088 347.576C681.585 346.645 682.194 345.503 683.248 345.402L694.641 344.307L677.839 342.823C677.191 342.766 676.626 342.356 676.371 341.757C675.894 340.635 676.672 339.378 677.89 339.306L693.065 338.405L678.928 336.175C677.963 336.023 677.214 335.251 677.091 334.282C676.927 332.994 677.91 331.845 679.208 331.809L697.595 331.287L696.209 330.419L693.348 322.79L701.915 324.221C702.361 324.296 702.8 324.408 703.227 324.557L713.466 328.123Z" fill="#FF9330"/>
<path fill-rule="evenodd" clip-rule="evenodd" d="M322.618 412.66C330.216 408.268 334.247 398.967 331.854 389.908C329.032 379.227 318.348 372.927 307.99 375.837C297.632 378.747 291.522 389.765 294.344 400.447C296.637 409.126 304.121 414.912 312.403 415.215L361.518 601.127L371.656 598.279L322.618 412.66ZM322.73 392.472C324.179 397.957 321.042 403.615 315.723 405.109C310.404 406.603 304.917 403.368 303.468 397.883C302.019 392.398 305.156 386.74 310.475 385.246C315.794 383.751 321.281 386.987 322.73 392.472Z" fill="#A3B7FF"/>
<path fill-rule="evenodd" clip-rule="evenodd" d="M454.295 326.955C454.295 331.856 458.221 335.854 463.121 335.944L467.856 336.031L467.125 495.472L370.934 620.544C364.537 628.862 366.094 640.791 374.411 647.188C377.733 649.742 381.805 651.127 385.995 651.127H599.248C609.741 651.127 618.248 642.62 618.248 632.127C618.248 627.952 616.872 623.893 614.335 620.578L518.566 495.472L517.941 335.782H522.39C527.266 335.782 531.218 331.83 531.218 326.955C531.218 322.079 527.266 318.127 522.39 318.127H463.123C458.247 318.127 454.295 322.079 454.295 326.955Z" fill="white" stroke="black" stroke-width="1.47913"/>
<path d="M400.916 611.491L432.073 602.46C450.716 597.056 470.619 597.946 488.704 604.993L490.841 605.826C507.345 612.257 525.713 611.958 541.999 604.993C557.137 598.52 574.723 602.571 585.502 615.015L586.032 615.627C590.73 621.051 590.142 629.257 584.718 633.955C582.356 636.001 579.336 637.127 576.211 637.127H383.656L400.916 611.491Z" fill="#1BE3B3"/>
<path d="M489.656 354.627H512.656" stroke="black" stroke-width="2.95825"/>
<path d="M500.656 367.627H512.656" stroke="black" stroke-width="2.95825"/>
<path d="M489.656 380.627H512.656" stroke="black" stroke-width="2.95825"/>
<path d="M500.656 393.627H512.656" stroke="black" stroke-width="2.95825"/>
<path d="M489.656 406.627H512.656" stroke="black" stroke-width="2.95825"/>
<path d="M500.656 419.627H512.656" stroke="black" stroke-width="2.95825"/>
<path fill-rule="evenodd" clip-rule="evenodd" d="M309.666 451.464L303.656 437.127H500.656L494.318 450.809C491.61 456.652 490.206 463.044 490.206 469.518V613.035C490.206 634.624 473.216 652.127 452.258 652.127H351.067C330.11 652.127 313.12 634.624 313.12 613.035V468.683C313.12 462.76 311.945 456.901 309.666 451.464Z" fill="white" stroke="black" stroke-width="1.47913"/>
<path d="M321.656 590.359L342.651 578.77C362.371 567.888 385.725 566.454 406.557 574.85C422.756 581.379 440.63 582.015 457.228 576.657L483.656 568.127V610.423C483.656 629.589 468.584 645.127 449.993 645.127H355.318C336.727 645.127 321.656 629.589 321.656 610.423V590.359Z" fill="#6B8CFF"/>
<path d="M456.656 487.627H479.656" stroke="black" stroke-width="2.95825"/>
<path d="M467.656 500.627H479.656" stroke="black" stroke-width="2.95825"/>
<path d="M456.656 513.627H479.656" stroke="black" stroke-width="2.95825"/>
<path d="M467.656 526.627H479.656" stroke="black" stroke-width="2.95825"/>
<path d="M456.656 539.627H479.656" stroke="black" stroke-width="2.95825"/>
<path d="M467.656 552.627H479.656" stroke="black" stroke-width="2.95825"/>
</svg>
