<svg width="908" height="790" viewBox="0 0 908 790" fill="none" xmlns="http://www.w3.org/2000/svg">
<path d="M490.848 33L203.563 198.864C171.996 217.089 161.18 257.454 179.406 289.022L345.27 576.307C363.495 607.874 403.86 618.69 435.427 600.464L722.712 434.6C754.279 416.375 765.095 376.01 746.87 344.443L581.006 57.1577C562.78 25.5904 522.415 14.7746 490.848 33Z" fill="#F3F6FF"/>
<path d="M563.49 89.5422C567.955 105.765 584.725 115.296 600.948 110.832C617.17 106.367 626.702 89.5964 622.237 73.3738C617.772 57.1511 601.002 47.6195 584.779 52.0842C568.557 56.549 559.025 73.3195 563.49 89.5422Z" fill="#FFE071"/>
<path fill-rule="evenodd" clip-rule="evenodd" d="M509.607 443.099C511.524 443.402 512.824 445.248 512.512 447.218L501.423 517.232C501.11 519.204 499.304 520.558 497.386 520.254C495.469 519.95 494.169 518.105 494.482 516.132L505.571 446.119C505.883 444.148 507.689 442.795 509.607 443.099Z" fill="black"/>
<path fill-rule="evenodd" clip-rule="evenodd" d="M501.007 499.292C506.204 500.115 510.284 501.624 510.119 502.664L504.276 539.558C504.111 540.598 499.764 540.773 494.568 539.95C489.372 539.127 485.291 537.617 485.456 536.578L491.299 499.683C491.464 498.644 495.811 498.469 501.007 499.292Z" fill="#54B7FF"/>
<path d="M709.992 244.134C711.473 234.787 705.303 226.042 696.213 224.602L386.266 175.808C381.721 175.088 377.436 178.293 376.696 182.967L338.096 426.675C337.356 431.349 340.441 435.719 344.986 436.439L654.933 485.234C664.023 486.674 672.593 480.263 674.073 470.918L709.992 244.134Z" fill="#282F48"/>
<path d="M700.361 233.903C701.102 229.229 698.009 224.856 693.455 224.135L373.923 173.526C369.369 172.805 365.077 176.008 364.337 180.682L325.737 424.39C324.997 429.062 328.089 433.436 332.643 434.157L652.175 484.766C656.729 485.487 661.022 482.283 661.762 477.611L700.361 233.903Z" fill="#333A56"/>
<path d="M326.962 430.395C328.698 432.456 331.13 433.917 333.967 434.367L623.687 480.254C559.393 468.491 542.759 446.222 528.97 427.762C514.233 408.032 506.718 391.488 443.75 397.936C403.988 402.009 400.911 362.185 401.892 317.356C402.836 274.246 403.857 227.579 368.874 214.006C365.091 212.538 361.247 213.82 358.647 216.598L325.736 424.39C325.391 426.57 325.879 428.686 326.962 430.395Z" fill="#282F48"/>
<path d="M440.128 406.736L409.691 401.915L407.628 414.938L438.065 419.759L440.128 406.736Z" fill="#FFE98F"/>
<path d="M364.234 351.308C408.157 358.265 428.769 318.597 466.498 324.752C504.227 330.907 501.001 340.181 545.973 347.304C590.946 354.427 628.829 350.463 660.864 315.901" stroke="url(#paint0_linear)" stroke-width="13.2" stroke-linecap="round"/>
<path d="M364.234 351.308C408.157 358.265 430.581 296.061 468.31 302.215C506.039 308.37 501.001 340.181 545.973 347.304C590.946 354.427 642.733 323.292 666.806 278.382" stroke="white" stroke-width="13.2" stroke-linecap="round"/>
<path d="M476.397 334.579C490.579 336.825 503.897 327.149 506.144 312.966C508.39 298.784 498.714 285.465 484.531 283.219C470.349 280.973 457.03 290.649 454.784 304.832C452.538 319.014 462.214 332.332 476.397 334.579Z" fill="#FF8282"/>
<path d="M380.509 417.317C387.713 418.458 394.476 413.553 395.615 406.361C396.754 399.169 391.838 392.413 384.634 391.272C377.429 390.131 370.666 395.037 369.527 402.229C368.388 409.421 373.304 416.176 380.509 417.317Z" fill="#FFE98F"/>
<path d="M635.792 437.726L605.355 432.906L603.293 445.928L633.73 450.749L635.792 437.726Z" fill="#1BE3B3"/>
<path d="M576.173 448.307C583.377 449.448 590.141 444.543 591.28 437.351C592.419 430.159 587.502 423.403 580.298 422.262C573.094 421.121 566.33 426.027 565.191 433.219C564.052 440.411 568.969 447.166 576.173 448.307Z" fill="#1BE3B3"/>
<path d="M729.211 227.813L350.926 167.899L346.02 198.876L724.305 258.791L729.211 227.813Z" fill="#A3B7FF"/>
<path d="M729.211 227.813L699.099 223.044L694.192 254.021L724.305 258.791L729.211 227.813Z" fill="#6B8CFF"/>
<path d="M453.861 375.708C492.29 396.532 540.163 381.347 560.789 341.792C581.415 302.237 566.983 253.289 528.554 232.465C490.125 211.641 572.874 265.492 541.008 330.934C509.141 396.377 415.433 354.883 453.861 375.708Z" fill="#0B86DF"/>
<path d="M444.456 356.351L463.92 366.898L440.415 411.975L420.952 401.428L444.456 356.351Z" fill="white"/>
<path d="M419.724 381.363C421.539 377.884 425.749 376.549 429.13 378.379L450.951 390.204C454.329 392.035 455.6 396.34 453.785 399.82L383.938 545.828C382.124 549.308 377.914 550.642 374.533 548.812L352.712 536.988C349.332 535.156 348.063 530.851 349.878 527.372L419.724 381.363Z" fill="#1BE3B3"/>
<path opacity="0.351004" d="M466.501 371.485C426.681 365.178 399.513 327.785 405.82 287.964C412.127 248.144 449.52 220.976 489.341 227.283C529.161 233.59 556.329 270.983 550.022 310.804C543.715 350.624 506.322 377.792 466.501 371.485Z" fill="#8ACEFF"/>
<path d="M441.209 368.851C479.638 389.676 527.511 374.491 548.137 334.936C568.763 295.381 554.331 246.433 515.902 225.609C477.473 204.785 429.6 219.969 408.974 259.524C388.348 299.08 402.78 348.027 441.209 368.851ZM447.967 357.095C415.719 339.62 403.608 298.545 420.916 265.352C438.225 232.159 478.398 219.417 510.646 236.891C542.894 254.366 555.005 295.441 537.697 328.635C520.388 361.828 480.215 374.57 447.967 357.095Z" fill="#54B7FF"/>
<path d="M244.26 714.006L235.229 701.356C230.425 694.626 235.533 678.959 235.533 678.959L219.367 674.026L214.991 691.739L210.036 700.381L242.494 715.449L244.26 714.006Z" fill="#FFAE64"/>
<path d="M240.639 713.835L212.354 698.605C209.086 700.351 207.214 703.914 207.63 707.595L208.416 714.547L221.039 718.606L222.691 715.725L228.629 719.796C231.079 721.476 233.812 722.702 236.696 723.414L246.906 725.936C248.303 726.282 249.778 725.859 250.781 724.826C252.327 723.231 252.3 720.688 250.718 719.128L239.597 708.155L242.476 711.575C243.062 712.271 242.887 713.327 242.108 713.798C241.659 714.069 241.101 714.083 240.639 713.835Z" fill="#2C2770"/>
<path d="M198.682 604.984L200.908 589.602C202.093 581.419 216.617 573.636 216.617 573.636L208.353 558.892L192.942 568.659L183.385 571.475L196.408 604.805L198.682 604.984Z" fill="#FFAE64"/>
<path d="M196.186 602.357L186.288 571.795C182.721 570.796 178.905 572.074 176.659 575.021L172.418 580.586L178.729 592.248L181.914 591.309L183.388 598.356C183.995 601.264 185.122 604.039 186.712 606.549L192.342 615.432C193.112 616.647 194.471 617.362 195.909 617.309C198.129 617.228 199.868 615.371 199.805 613.15L199.361 597.534L199.075 601.995C199.017 602.903 198.16 603.545 197.271 603.346C196.76 603.231 196.347 602.855 196.186 602.357Z" fill="#2C2770"/>
<path d="M241.919 686.209L218.28 680.092L240.981 561.344L202.761 479.464C199.318 472.087 197.728 463.98 198.129 455.848L199.7 424.055L266.531 429.24L310.714 459.331L332.705 476.208C345.25 485.834 341.47 505.642 326.263 509.974L264.316 493.268L280.136 540.484C283.592 550.798 283.59 561.956 280.131 572.268L241.919 686.209Z" fill="#2C2770"/>
<path d="M203.872 560.338L296.605 490.524L333.337 506.812L212.96 583.82L203.872 560.338Z" fill="#2C2770"/>
<path d="M206.978 447.406L247.647 551.173C250.142 557.538 250.66 564.507 249.133 571.171L223.853 681.526" stroke="white"/>
<path d="M261.66 485.309L298.41 496.914L270.944 516.614" stroke="white"/>
<path d="M205.445 562.767L233.146 543.508" stroke="white"/>
<path d="M172.424 353.04L185.038 345.678L213.866 336.145C227.472 331.646 242.132 331.431 255.865 335.529L290.151 345.763L287.327 382.703L259.557 373.416L261.985 390.451L270.689 423.467C271.784 427.622 269.402 431.899 265.292 433.156L202.995 452.202C198.043 453.716 192.98 450.198 192.671 445.029L191.371 423.288L181.941 411.501L179.063 427.051L152.152 429.326L154.619 382.249C155.254 370.134 161.947 359.155 172.424 353.04Z" fill="#1BE3B3"/>
<mask id="mask0" mask-type="alpha" maskUnits="userSpaceOnUse" x="152" y="333" width="139" height="118">
<path d="M172.424 353.04L185.038 345.678L216.131 336.172C229.143 332.194 243.031 332.094 256.099 335.885L290.151 345.763L287.327 382.703L259.557 373.416L261.985 390.451L275.222 420.554C277.18 425.007 274.743 430.162 270.06 431.476L202.025 450.573C197.002 451.984 191.995 448.286 191.865 443.071L191.371 423.288L181.941 411.501L179.063 427.051L152.152 429.326L154.619 382.249C155.254 370.134 161.947 359.155 172.424 353.04Z" fill="white"/>
</mask>
<g mask="url(#mask0)">
<path d="M172.424 353.04L185.038 345.678L216.131 336.172C229.143 332.194 243.031 332.094 256.099 335.885L290.151 345.763L287.327 382.703L259.557 373.416L261.985 390.451L275.222 420.554C277.18 425.007 274.743 430.162 270.06 431.476L202.025 450.573C197.002 451.984 191.995 448.286 191.865 443.071L191.371 423.288L181.941 411.501L179.063 427.051L152.152 429.326L154.619 382.249C155.254 370.134 161.947 359.155 172.424 353.04Z" fill="#1BE3B3"/>
<path d="M245.672 317.011C253.858 314.508 262.524 319.116 265.026 327.302C267.529 335.489 262.922 344.154 254.736 346.657C246.549 349.159 237.884 344.552 235.381 336.366C232.878 328.179 237.486 319.514 245.672 317.011Z" stroke="white" stroke-width="5"/>
<path d="M149.7 372.495C154.19 371.122 158.942 373.649 160.314 378.138C161.687 382.628 159.16 387.38 154.671 388.752C150.181 390.125 145.429 387.598 144.057 383.109C142.684 378.619 145.211 373.867 149.7 372.495Z" stroke="white" stroke-width="5"/>
<path d="M199.087 383.538C201.992 382.65 205.067 384.285 205.955 387.19C206.843 390.095 205.208 393.17 202.303 394.058C199.398 394.946 196.324 393.311 195.435 390.406C194.547 387.501 196.182 384.426 199.087 383.538Z" stroke="white" stroke-width="3"/>
<path d="M222.897 430.635C230.555 428.293 238.662 432.604 241.003 440.262C243.344 447.92 239.034 456.026 231.376 458.368C223.718 460.709 215.611 456.399 213.27 448.741C210.929 441.082 215.239 432.976 222.897 430.635Z" stroke="white" stroke-width="3"/>
<path d="M279.551 366.258C287.209 363.917 295.315 368.227 297.656 375.885C299.998 383.543 295.688 391.649 288.029 393.991C280.371 396.332 272.265 392.022 269.924 384.364C267.582 376.705 271.892 368.599 279.551 366.258Z" stroke="white" stroke-width="3"/>
</g>
<path d="M210.823 278.335C207.123 270.073 198.418 271.364 194.528 273.043C191.88 272.385 185.765 268.383 176.779 272.598C167.793 276.813 158.696 285.465 165.074 296.725C165.074 296.725 169.934 320.676 187.113 315.424C188.761 320.817 210.558 344.1 205.547 327.71C200.536 311.32 202.011 324.369 209.143 308.689C215.106 304.251 215.448 288.663 210.823 278.335Z" fill="#2C2770"/>
<path d="M197.409 273.731C206.124 271.067 211.028 261.842 208.364 253.128C205.7 244.413 196.475 239.509 187.761 242.173C179.046 244.837 174.142 254.061 176.806 262.776C179.47 271.49 188.695 276.395 197.409 273.731Z" fill="#2C2770"/>
<path d="M206.985 289.783L208.216 293.81C209.868 292.815 213.42 291.631 214.405 294.853C215.636 298.88 213.773 302.385 210.678 301.863C211.608 306.154 211.883 315.101 206.243 320.589C207.448 323.671 209.533 327.985 212.174 330.761C215.635 334.4 220.353 335.11 222.28 335.01C220.552 338.963 214.951 347.525 206.361 350.152C197.77 352.778 189.233 348.538 186.038 346.091C187.244 345.233 190.214 342.465 192.45 338.259C194.211 334.948 192.852 328.77 191.375 324.394C184.649 322.347 180.647 315.342 178.463 311.713C176.81 312.707 173.176 313.622 171.863 309.327C170.55 305.032 174.522 303.622 176.001 303.659L174.77 299.632C177.591 299.259 184.516 296.946 189.646 290.681C194.776 284.415 195.785 281.954 195.648 281.507C196.332 283.744 198.578 287.561 200.794 288.74C204.3 290.604 205.953 289.609 206.985 289.783Z" fill="#FFAE64"/>
<path d="M201.362 311.594L196.189 316.515C196.892 317.254 198.635 317.961 200.515 316.623C202.395 315.285 201.952 313.004 201.362 311.594Z" fill="white"/>
<path d="M182.674 297.274L178.312 298.608C177.589 298.829 177.183 299.594 177.404 300.316C177.625 301.039 178.39 301.446 179.112 301.225L183.475 299.891C184.197 299.67 184.604 298.905 184.383 298.182C184.162 297.46 183.397 297.053 182.674 297.274Z" fill="#2C2770"/>
<path d="M200.123 291.939L195.761 293.273C195.038 293.494 194.632 294.259 194.853 294.982C195.074 295.704 195.839 296.111 196.561 295.89L200.924 294.557C201.646 294.336 202.053 293.571 201.832 292.848C201.611 292.125 200.846 291.718 200.123 291.939Z" fill="#2C2770"/>
<path d="M199.64 299.719C200.363 299.498 200.769 298.733 200.548 298.01C200.327 297.287 199.562 296.881 198.84 297.102C198.117 297.323 197.71 298.088 197.931 298.81C198.152 299.533 198.917 299.94 199.64 299.719Z" fill="black"/>
<path d="M188.006 297.552L192.808 313.256L196.734 312.056" stroke="black"/>
<path d="M183.063 304.787C183.786 304.566 184.193 303.801 183.972 303.078C183.751 302.355 182.986 301.949 182.263 302.17C181.54 302.391 181.134 303.156 181.354 303.878C181.575 304.601 182.34 305.008 183.063 304.787Z" fill="black"/>
<path d="M211.284 295.682C212.032 296.566 212.768 298.663 209.734 299.972" stroke="black"/>
<path d="M173.991 307.084C173.865 308.235 174.427 310.385 177.675 309.773" stroke="black"/>
<mask id="mask1" mask-type="alpha" maskUnits="userSpaceOnUse" x="171" y="281" width="52" height="70">
<path d="M206.985 289.783L208.216 293.81C209.868 292.815 213.42 291.631 214.405 294.853C215.636 298.88 213.773 302.385 210.678 301.863C211.608 306.154 211.883 315.101 206.243 320.589C207.448 323.671 209.533 327.985 212.174 330.761C215.635 334.4 220.353 335.11 222.28 335.01C220.552 338.963 214.951 347.525 206.361 350.152C197.77 352.778 189.233 348.538 186.038 346.091C187.244 345.233 190.214 342.465 192.45 338.259C194.211 334.948 192.852 328.77 191.375 324.394C184.649 322.347 180.647 315.342 178.463 311.713C176.81 312.707 173.176 313.622 171.863 309.327C170.55 305.032 174.522 303.622 176.001 303.659L174.77 299.632C177.591 299.259 184.516 296.946 189.646 290.681C194.776 284.415 195.785 281.954 195.648 281.507C196.332 283.744 198.578 287.561 200.794 288.74C204.3 290.604 205.953 289.609 206.985 289.783Z" fill="white"/>
</mask>
<g mask="url(#mask1)">
<path d="M189.937 324.15C191.323 324.522 195.623 325.274 199.462 324.1C203.106 322.986 206.153 320.765 207.086 319.941L207.216 319.821C207.179 319.857 207.135 319.897 207.086 319.941L192.302 333.444L189.937 324.15Z" fill="#FF8282"/>
</g>
<path d="M230.288 422.832L232.493 372.963C232.539 371.914 233.39 371.079 234.44 371.052L269.684 370.174C270.861 370.144 271.809 371.132 271.729 372.307L268.377 422.204C268.307 423.235 267.463 424.044 266.431 424.07L232.336 424.919C231.177 424.949 230.236 423.99 230.288 422.832Z" fill="#2C2770"/>
<path d="M215.346 407.601L179.275 426.705L153.827 428.746L157.119 449.076C158.678 458.703 169.889 463.249 177.713 457.427L224.346 422.725L231.227 421.004C231.431 420.954 231.631 420.886 231.823 420.805L240.148 417.262C240.22 417.231 240.295 417.206 240.371 417.187L253.144 414.095C254.202 413.839 254.896 412.823 254.748 411.744C254.589 410.583 253.519 409.769 252.357 409.928L242.05 411.336L253.735 407.218C254.604 406.912 255.088 405.984 254.84 405.097C254.594 404.214 253.709 403.669 252.811 403.848L241.339 406.131L253.056 400.238C253.986 399.769 254.413 398.672 254.041 397.698C253.661 396.7 252.572 396.166 251.55 396.477L238.236 400.527L250.637 393.974C251.844 393.336 252.197 391.771 251.381 390.676C250.789 389.881 249.742 389.574 248.814 389.922L231.851 396.294L232.285 389.074L222.529 395.661C221.401 396.423 220.485 397.46 219.87 398.675L215.346 407.601Z" fill="#FFAE64"/>
<path d="M325.327 286.384L289.965 346.866L287.407 379.541L288.923 379.541C299.334 379.539 308.654 373.085 312.319 363.34L339.102 292.107L357.537 282.288L372.023 278.83C372.552 278.704 372.786 278.082 372.47 277.639C371.736 276.607 370.54 276.004 369.273 276.027L338.542 276.593L338.91 273.204C339.209 270.444 338.946 267.653 338.134 264.998C337.889 264.198 336.797 264.1 336.415 264.844L325.327 286.384Z" fill="#FFAE64"/>
<path d="M610.877 655.05L626.025 651.57C634.084 649.718 640.65 634.605 640.65 634.605L656.022 641.632L647.55 657.793L645.527 667.548L611.242 657.301L610.877 655.05Z" fill="#FFAE64"/>
<path d="M611.012 667.481L601.025 662.245C599.725 661.565 598.886 660.245 598.819 658.779C598.719 656.566 600.382 654.661 602.585 654.43C605.249 654.15 609.155 653.708 613.976 653.069C623.385 651.821 627.907 650.071 627.907 650.071C627.907 650.071 630.676 654.613 636.737 657.789C642.797 660.966 648.359 658.216 648.359 658.216C647.551 666.08 643.852 673.364 637.979 678.655L637.347 679.225L625.207 673.891L624.034 671.217L617.889 669.943C615.494 669.446 613.18 668.616 611.012 667.481Z" fill="#2C2770"/>
<path d="M656.767 762.901L669.092 753.431C675.649 748.394 675.851 739.347 675.851 739.347L692.232 731.911L691.255 750.131L693.476 759.843L658.036 764.796L656.767 762.901Z" fill="#FFAE64"/>
<path d="M662.065 774.148L650.804 773.544C649.339 773.466 648.026 772.615 647.355 771.31C646.344 769.339 647.063 766.916 648.97 765.788C651.276 764.425 654.644 762.397 658.76 759.81C666.797 754.759 670.18 751.286 670.18 751.286C670.18 751.286 674.589 754.262 681.421 754.628C688.254 754.995 692.166 750.18 692.166 750.18C694.705 757.665 694.374 765.828 691.235 773.084L690.897 773.865L677.639 774.068L675.46 772.124L669.342 773.523C666.957 774.068 664.508 774.278 662.065 774.148Z" fill="#2C2770"/>
<path d="M668.742 740.863L696.203 756.135L749.162 642.119L824.32 557.072C833.603 546.567 839.711 533.642 841.934 519.8L846.963 488.478L792.304 483.515L702.716 507.521C690.479 510.799 680.446 519.55 675.534 531.227L629.134 641.541L653.945 661.749L708.147 551.086L777.34 541.176L708.198 632.744L668.742 740.863Z" fill="#FF6767"/>
<path d="M839.909 506.872L838.372 513.64C835.824 524.858 830.551 535.276 823.018 543.971L740.508 639.214L690.884 753.45" stroke="white"/>
<path d="M776.912 539.39L711.537 543.212C701.639 543.791 692.933 549.948 689.088 559.087L648.253 656.169" stroke="white"/>
<path d="M858.531 410.393L838.836 402.153L801.205 396.864C785.104 394.601 768.718 398.014 754.859 406.516L735.031 418.68L743.598 454.723L769.574 441.207L769.84 458.411L761.475 490.215C760.239 494.919 763.451 499.629 768.283 500.195L840.455 508.647C844.952 509.174 848.99 505.865 849.359 501.353L852.192 466.681L857.467 481.589L884.402 479.627L880.459 440.035C879.148 426.877 870.73 415.497 858.531 410.393Z" fill="#FFE071"/>
<mask id="mask2" mask-type="alpha" maskUnits="userSpaceOnUse" x="735" y="396" width="150" height="113">
<path d="M858.531 410.393L838.836 402.153L801.205 396.864C785.104 394.601 768.718 398.014 754.859 406.516L735.031 418.68L743.598 454.723L769.574 441.207L769.84 458.411L761.475 490.214C760.239 494.919 763.451 499.629 768.283 500.195L840.455 508.647C844.952 509.174 848.99 505.865 849.359 501.353L852.192 466.681L857.467 481.589L884.402 479.627L880.459 440.035C879.148 426.877 870.73 415.497 858.531 410.393Z" fill="white"/>
</mask>
<g mask="url(#mask2)">
<path d="M774.464 383.324C765.987 382.133 758.149 388.039 756.958 396.516C755.766 404.993 761.673 412.831 770.15 414.022C778.627 415.214 786.465 409.307 787.656 400.83C788.848 392.353 782.941 384.515 774.464 383.324Z" stroke="#D7BE67" stroke-width="5"/>
<path d="M877.934 423.111C873.285 422.458 868.987 425.697 868.334 430.346C867.68 434.994 870.919 439.293 875.568 439.946C880.217 440.599 884.515 437.36 885.168 432.712C885.821 428.063 882.583 423.765 877.934 423.111Z" stroke="#D7BE67" stroke-width="5"/>
<path d="M830.883 441.744C827.875 441.322 825.093 443.417 824.671 446.425C824.248 449.433 826.344 452.215 829.352 452.637C832.36 453.06 835.141 450.964 835.564 447.956C835.986 444.948 833.891 442.167 830.883 441.744Z" stroke="#D7BE67" stroke-width="3"/>
<path d="M814.733 491.986C806.803 490.871 799.471 496.396 798.356 504.327C797.242 512.257 802.767 519.589 810.697 520.704C818.627 521.818 825.96 516.293 827.074 508.363C828.189 500.433 822.663 493.1 814.733 491.986Z" stroke="#D7BE67" stroke-width="3"/>
<path d="M748.706 437.264C740.776 436.15 733.444 441.675 732.33 449.605C731.215 457.535 736.74 464.867 744.67 465.982C752.601 467.096 759.933 461.571 761.047 453.641C762.162 445.711 756.637 438.379 748.706 437.264Z" stroke="#D7BE67" stroke-width="3"/>
</g>
<path d="M839.331 397.608C838.124 392.699 840.556 377.641 841.923 370.725C833.179 371.076 815.663 374.498 815.557 385.382C815.45 396.265 811.159 398.387 809.028 398.087C805.994 402.795 802.986 413.231 815.218 417.319C827.449 421.408 839.503 411.848 844.002 406.557C842.948 405.619 840.538 402.516 839.331 397.608Z" fill="#FF9330"/>
<path d="M851.297 345.86C860.353 351.057 848.901 361.917 843.847 367.311L829.694 365.321C824.841 364.639 814.383 356.891 809.761 353.103C805.019 350.169 794.162 343.062 799.433 338.571C808.965 332.562 797.75 324.492 811.528 319.865C825.306 315.237 829.933 329.015 843.302 330.894C856.671 332.773 843.821 341.57 851.297 345.86Z" fill="#2C2770"/>
<mask id="mask3" mask-type="alpha" maskUnits="userSpaceOnUse" x="806" y="371" width="38" height="47">
<path d="M839.021 397.556C837.817 392.707 840.221 377.835 841.574 371.005C832.886 371.345 815.486 374.71 815.389 385.46C815.292 396.211 811.032 398.303 808.914 398.005C805.904 402.652 802.924 412.958 815.08 417.007C827.235 421.054 839.204 411.622 843.669 406.4C842.621 405.472 840.224 402.405 839.021 397.556Z" fill="white"/>
</mask>
<g mask="url(#mask3)">
<path d="M812.493 394.547C831.593 395.146 839.886 380.151 841.645 372.579L814.074 383.301C805.589 386.8 793.395 393.948 812.493 394.547Z" fill="#D76767"/>
</g>
<path d="M841.189 372.239C840.673 378.66 831.282 389.145 817.161 386.571C808.916 385.067 808.154 375.294 807.509 364.554C807.05 356.898 805.316 348.564 807.029 343.236L820.097 340.941C818.067 343.017 814.171 346.011 819.852 346.809C825.473 347.599 831.079 346.616 833.406 345.173C833.566 352.279 838.761 352.418 838.273 355.891L836.89 365.732C841.369 366.834 842.761 362.425 842.898 360.083C844.954 359.191 848.855 358.913 848.009 364.933C847.163 370.954 843.11 372.312 841.189 372.239Z" fill="#FF9330"/>
<path d="M834.544 367.822C835.503 366.745 837.011 364.634 837.289 362.653C839.357 359.915 843.172 356.007 841.885 362.289C841.328 366.251 840.346 369.647 839.928 372.618C838.954 379.55 839.165 385.234 832.333 390.737C823.792 397.615 807.522 394.824 803.901 388.256C799.463 380.206 805.502 376.868 807.397 370.57C814.14 371.686 821.26 372.519 826.777 372.789C831.29 373.01 832.78 369.593 834.544 367.822Z" fill="#2C2770"/>
<path d="M823.467 372.696L816.699 374.969C817.024 375.936 818.304 377.314 820.574 376.896C822.844 376.478 823.406 374.223 823.467 372.696Z" fill="white"/>
<path d="M812.583 351.82L808.066 351.185C807.317 351.08 806.625 351.601 806.52 352.349C806.415 353.098 806.936 353.79 807.685 353.895L812.202 354.53C812.95 354.635 813.642 354.114 813.747 353.365C813.853 352.617 813.331 351.925 812.583 351.82Z" fill="#2C2770"/>
<path d="M830.651 354.359L826.134 353.724C825.386 353.619 824.694 354.14 824.588 354.889C824.483 355.637 825.005 356.329 825.753 356.434L830.27 357.069C831.019 357.174 831.711 356.653 831.816 355.905C831.921 355.156 831.4 354.464 830.651 354.359Z" fill="#2C2770"/>
<path d="M826.925 361.205C827.673 361.311 828.365 360.789 828.471 360.041C828.576 359.292 828.054 358.6 827.306 358.495C826.557 358.39 825.865 358.911 825.76 359.66C825.655 360.408 826.176 361.1 826.925 361.205Z" fill="black"/>
<path d="M817.297 354.325L815.012 370.586L819.078 371.158" stroke="black"/>
<path d="M809.76 358.793C810.508 358.898 811.2 358.377 811.305 357.628C811.41 356.88 810.889 356.188 810.141 356.083C809.392 355.978 808.7 356.499 808.595 357.247C808.49 357.996 809.011 358.688 809.76 358.793Z" fill="black"/>
<path d="M806.213 485.435L796.234 436.525C796.024 435.496 795.053 434.804 794.01 434.943L759.064 439.588C757.897 439.743 757.115 440.867 757.377 442.015L768.495 490.774C768.725 491.781 769.685 492.448 770.708 492.312L804.517 487.817C805.666 487.665 806.445 486.571 806.213 485.435Z" fill="#2C2770"/>
<path d="M818.587 468.054L857.204 481.28L884.51 479.576L883.486 500.966C883.032 510.456 872.883 516.269 864.467 511.859L812.064 484.401L804.999 483.777C804.789 483.759 804.582 483.724 804.378 483.673L795.603 481.476C795.527 481.457 795.449 481.444 795.371 481.438L782.271 480.382C781.186 480.294 780.342 479.399 780.319 478.31C780.293 477.138 781.224 476.167 782.397 476.142L792.797 475.92L780.612 473.682C779.705 473.515 779.083 472.674 779.188 471.759C779.293 470.849 780.082 470.172 780.997 470.209L792.684 470.669L780.191 466.681C779.197 466.364 778.605 465.346 778.819 464.326C779.039 463.281 780.031 462.583 781.089 462.731L794.874 464.648L781.6 460.115C780.308 459.674 779.715 458.184 780.349 456.976C780.81 456.097 781.795 455.63 782.766 455.829L800.517 459.469L798.959 452.405L809.626 457.385C810.859 457.961 811.925 458.842 812.723 459.946L818.587 468.054Z" fill="#FF9330"/>
<path d="M690.999 365.535L735.387 419.74L743.025 451.613L741.528 451.85C731.244 453.477 721.029 448.56 715.885 439.508L678.288 373.342L658.545 366.528L643.696 365.379C643.154 365.337 642.826 364.759 643.068 364.272C643.631 363.138 644.719 362.355 645.973 362.18L676.415 357.931L675.521 354.642C674.794 351.963 674.618 349.164 675.004 346.415C675.12 345.587 676.184 345.32 676.678 345.994L690.999 365.535Z" fill="#FF9330"/>
<defs>
<linearGradient id="paint0_linear" x1="518.914" y1="293.418" x2="506.184" y2="373.791" gradientUnits="userSpaceOnUse">
<stop stop-color="#273A54"/>
<stop offset="1" stop-color="#111B2A"/>
</linearGradient>
</defs>
</svg>
