<svg width="702" height="493" viewBox="0 0 702 493" fill="none" xmlns="http://www.w3.org/2000/svg">
<path fill-rule="evenodd" clip-rule="evenodd" d="M28.98 475.171C28.98 474.278 29.6773 473.542 30.5682 473.493L67.347 471.48H78.6635L115.591 473.493C116.482 473.542 117.18 474.279 117.18 475.171V477.78H28.98V475.171Z" fill="#C8DAFF"/>
<path fill-rule="evenodd" clip-rule="evenodd" d="M68.8799 408.9H77.2799V471.9H68.8799V408.9Z" fill="#C8DAFF"/>
<rect x="66.7798" y="463.08" width="12.6" height="14.7" rx="0.84" fill="#A7C3FF"/>
<path fill-rule="evenodd" clip-rule="evenodd" d="M62.5801 405.12C62.5801 404.656 62.9562 404.28 63.4201 404.28H82.7401C83.204 404.28 83.5801 404.656 83.5801 405.12V411.691C83.5801 412.035 83.371 412.344 83.052 412.471L78.4803 414.3C78.3811 414.34 78.2752 414.36 78.1683 414.36H67.9918C67.885 414.36 67.7791 414.34 67.6799 414.3L63.1081 412.471C62.7892 412.344 62.5801 412.035 62.5801 411.691V405.12Z" fill="#A7C3FF"/>
<rect x="26.8799" y="477.78" width="8.4" height="8.4" rx="2.1" fill="#A7C3FF"/>
<rect x="110.88" y="477.78" width="8.4" height="8.4" rx="2.1" fill="#A7C3FF"/>
<rect x="68.8799" y="477.78" width="8.4" height="8.4" rx="2.1" fill="#A7C3FF"/>
<path fill-rule="evenodd" clip-rule="evenodd" d="M63 399.24C63 395.529 66.0086 392.52 69.72 392.52H122.64C126.351 392.52 129.36 395.529 129.36 399.24C129.36 402.951 126.351 405.96 122.64 405.96H69.72C66.0086 405.96 63 402.951 63 399.24Z" fill="#C8DAFF"/>
<path fill-rule="evenodd" clip-rule="evenodd" d="M30.2402 330.36H42.0002C42.0002 330.36 42.0002 347.16 42.0002 363.96C42.0002 380.76 60.9002 397.56 60.9002 397.56H45.3602C45.3602 397.56 30.2402 383.254 30.2402 363.96C30.2402 347.16 30.2402 330.36 30.2402 330.36Z" fill="#A7C3FF"/>
<path fill-rule="evenodd" clip-rule="evenodd" d="M35.2798 330.36H47.0398C47.0398 330.36 47.0398 347.16 47.0398 363.96C47.0398 380.76 65.9398 397.56 65.9398 397.56H52.0798C52.0798 397.56 35.2798 383.646 35.2798 363.96C35.2798 347.16 35.2798 330.36 35.2798 330.36Z" fill="#C8DAFF"/>
<path fill-rule="evenodd" clip-rule="evenodd" d="M0.839844 314.4C0.839844 309.761 4.60065 306 9.23984 306H68.4887C73.1279 306 76.8887 309.761 76.8887 314.4V347.044C76.8887 351.684 73.1279 355.444 68.4887 355.444H9.23985C4.60066 355.444 0.839844 351.684 0.839844 347.044L0.839844 314.4Z" fill="#C8DAFF"/>
<path fill-rule="evenodd" clip-rule="evenodd" d="M0.477051 311.446C0.477051 308.438 2.91526 306 5.92294 306C8.93062 306 11.3688 308.438 11.3688 311.446V349.999C11.3688 353.006 8.93062 355.444 5.92294 355.444C2.91526 355.444 0.477051 353.006 0.477051 349.999L0.477051 311.446Z" fill="#A7C3FF"/>
<path fill-rule="evenodd" clip-rule="evenodd" d="M21.8398 399.24C21.8398 395.529 24.8485 392.52 28.5598 392.52L79.7998 392.52C83.5112 392.52 86.5198 395.529 86.5198 399.24C86.5198 402.951 83.5112 405.96 79.7998 405.96H28.5598C24.8485 405.96 21.8398 402.951 21.8398 399.24Z" fill="#A7C3FF"/>
<path fill-rule="evenodd" clip-rule="evenodd" d="M69.1494 362.498C69.1494 362.498 74.4463 395.176 94.9113 395.176C115.376 395.176 133.84 391.872 133.84 391.872L118.842 453.359H129.538L158.615 392.776C164.314 380.903 156.358 367.001 143.235 365.899L102.711 362.498V357.458H69.1494V362.498Z" fill="#F1B395"/>
<path fill-rule="evenodd" clip-rule="evenodd" d="M135.546 481.691C138.886 481.925 145.339 482.199 146.478 481.691C146.87 481.516 146.992 481.258 146.984 480.994C146.96 480.221 146.15 479.759 145.485 479.363C143.972 478.462 140.911 476.721 137.577 475.284C132.853 473.248 128.939 467.805 127.698 462.935C126.611 458.667 132.805 446.709 132.805 446.709L119.785 449.617C119.785 449.617 117.236 457.419 116.074 460.165C114.076 464.887 112.286 467.326 112.699 468.216C113.763 470.508 117.132 469.734 119.47 472.635C125.022 479.523 121.492 480.88 135.546 481.691Z" fill="#F1B395"/>
<path fill-rule="evenodd" clip-rule="evenodd" d="M114.839 461.272C114.839 461.272 111.421 463.094 112.378 467.73C113.334 472.367 113.868 480.552 113.868 480.552H116.267C116.267 480.552 116.267 473.567 116.267 472.597C116.267 471.834 118.244 469.501 119.81 473.567C121.376 477.633 122.731 480.662 126.611 481.628C130.492 482.594 149.478 483.58 148.846 481.628C148.213 479.676 137.869 474.177 137.869 474.177C137.869 474.177 136.886 478.995 129.034 478.36C125.409 478.067 114.839 461.272 114.839 461.272Z" fill="#86043F"/>
<path fill-rule="evenodd" clip-rule="evenodd" d="M114.956 463.485L127.988 461.827L128.117 459.776L114.839 461.273L114.956 463.485Z" fill="#86043F"/>
<path fill-rule="evenodd" clip-rule="evenodd" d="M181.376 481.691C184.716 481.925 191.17 482.199 192.308 481.691C192.7 481.516 192.822 481.258 192.814 480.994C192.791 480.221 191.98 479.759 191.316 479.363C189.802 478.462 186.741 476.721 183.407 475.284C178.683 473.248 174.889 467.774 173.529 462.935C172.168 458.096 169.5 445.899 169.5 445.899L157.235 451.668C157.235 451.668 159.271 455.952 160.28 459.785C160.497 460.607 157.549 466.104 158.529 468.216C159.593 470.508 162.962 469.734 165.3 472.635C170.852 479.523 167.322 480.88 181.376 481.691Z" fill="#FFC4A7"/>
<path fill-rule="evenodd" clip-rule="evenodd" d="M159.93 461.272C159.93 461.272 156.512 463.094 157.468 467.73C158.425 472.367 158.959 480.552 158.959 480.552H161.358C161.358 480.552 161.358 473.567 161.358 472.597C161.358 471.834 163.335 469.501 164.901 473.567C166.467 477.633 167.822 480.662 171.702 481.628C175.583 482.594 194.569 483.58 193.937 481.628C193.304 479.676 182.96 474.177 182.96 474.177C182.96 474.177 180.553 478.36 174.125 478.36C170.466 478.36 159.93 461.272 159.93 461.272Z" fill="#BE065A"/>
<path fill-rule="evenodd" clip-rule="evenodd" d="M160.047 463.485L173.449 460.718L172.838 458.667L159.93 461.273L160.047 463.485Z" fill="#BE065A"/>
<path fill-rule="evenodd" clip-rule="evenodd" d="M49.7712 362.555C49.7712 362.555 46.5502 392.742 72.3378 392.35C92.7994 392.04 137.184 390.362 137.184 390.362C137.184 390.362 139.166 407.565 143.197 417.718C147.228 427.872 158.414 454.266 158.414 454.266H171.259L158.454 385.546C156.805 376.693 149.636 369.912 140.704 368.757L92.7355 362.555V357.514L49.4386 357.514L49.7712 362.555Z" fill="#FFC4A7"/>
<path fill-rule="evenodd" clip-rule="evenodd" d="M132.605 391.625C134.722 389.359 138.347 383.878 138.347 383.878L126.189 379.699L140.605 377.605L148.787 365.062L105.99 358.566H47.4315C47.4315 358.566 42.2267 372.447 47.4315 381.683C59.2041 402.575 129.951 394.466 132.605 391.625Z" fill="#BE065A"/>
<path fill-rule="evenodd" clip-rule="evenodd" d="M105.044 284.597L117.94 312.301L121.777 284.597C122.262 281.135 122.539 279.203 122.608 278.801C122.869 277.276 121.077 274.058 120.855 270.894L120.825 270.402C120.604 267.244 119.529 263.481 119.681 262.42C119.839 261.323 121.27 262.034 122.163 262.748C124.155 264.342 124.008 266.503 125.277 269.141C125.726 270.074 129.982 260.622 131.679 260.622C133.375 260.622 138.534 268.702 138.534 271.252C138.534 272.952 135.996 276.373 130.92 281.516L129.005 325.296C128.767 330.743 124.158 334.966 118.711 334.728C115.112 334.57 111.885 332.466 110.29 329.237L90.7861 291.406L105.044 284.597Z" fill="#FFC4A7"/>
<path fill-rule="evenodd" clip-rule="evenodd" d="M102.149 274.76C100.213 270.464 95.0787 268.659 90.8805 270.799L89.2949 271.606C85.1934 273.696 83.5952 278.738 85.7439 282.809L110.353 329.435C114.743 337.753 127.149 335.935 128.969 326.707L131.695 312.883L118.252 307.746L117.939 309.8L102.149 274.76Z" fill="#313132"/>
<path fill-rule="evenodd" clip-rule="evenodd" d="M101.171 281.089C101.171 281.089 110.239 297.05 110.239 301.865C110.239 306.681 105.705 321.011 105.705 321.011L100.093 309.895L101.171 281.089Z" fill="#080708" fill-opacity="0.223011"/>
<path fill-rule="evenodd" clip-rule="evenodd" d="M117.94 309.8L116.424 319.916V306.443L117.94 309.8Z" fill="#080708" fill-opacity="0.223011"/>
<path fill-rule="evenodd" clip-rule="evenodd" d="M47.7868 281.027C46.5053 276.002 49.9191 270.992 55.0644 270.345L76.5636 267.645L93.8876 269.661C95.0869 269.8 96.1258 270.533 96.6359 271.627C99.1431 277.005 106.546 293.409 106.971 300.499C107.362 307.04 101.763 314.336 101.763 321.041C101.763 327.746 104.133 357.215 104.133 357.215L49.9786 360.826C49.46 360.86 49.0521 360.39 49.16 359.881L57.6712 319.784L47.7868 281.027Z" fill="#FFC4A7"/>
<path fill-rule="evenodd" clip-rule="evenodd" d="M47.784 281.016C46.5035 275.995 49.9111 270.987 55.0516 270.335L67.5525 268.75C67.5525 268.75 70.8084 278.79 80.1767 278.79C89.5449 278.79 86.8606 268.799 86.8606 268.799L93.8998 269.653C95.0923 269.798 96.1236 270.528 96.6312 271.617C99.1339 276.984 106.546 293.405 106.971 300.499C107.362 307.04 101.763 314.336 101.763 321.041C101.763 327.746 105.795 359.32 105.795 359.32L46.0516 362.509L57.6712 319.784L47.784 281.016Z" fill="#BE065A"/>
<path fill-rule="evenodd" clip-rule="evenodd" d="M47.0546 281.055C45.7706 276.02 49.1996 271.002 54.3566 270.37L67.5524 268.75C67.5524 268.75 70.8084 278.79 80.1766 278.79C89.5449 278.79 86.8606 268.799 86.8606 268.799L94.6161 269.668C95.8213 269.803 96.8668 270.537 97.3792 271.636C99.8903 277.023 107.285 293.413 107.71 300.499C108.102 307.04 102.133 314.336 102.133 321.041C102.133 327.746 105.795 340.84 105.795 340.84C105.795 340.84 99.6017 346.698 95.009 341.387C90.4163 336.075 91.4498 310.512 89.5449 303.907C87.6399 297.302 82.6136 284.299 82.6136 284.299C82.6136 284.299 80.8483 293.096 80.1766 303.907C79.5049 314.718 84.2895 332.194 76.9828 341.387C70.5053 349.536 52.9946 345.27 49.103 344.197C48.6735 344.079 48.4542 343.625 48.6035 343.205L56.932 319.784L47.0546 281.055Z" fill="#313132"/>
<path fill-rule="evenodd" clip-rule="evenodd" d="M82.1689 282.679L77.1592 284.899C76.7622 285.075 76.2997 284.873 76.1598 284.462L76.1213 284.349C75.7211 283.172 75.6587 281.908 75.9412 280.698C76.0289 280.322 76.4043 280.088 76.7802 280.175L82.0407 281.395L82.1689 282.679Z" fill="#E3E9FF"/>
<path fill-rule="evenodd" clip-rule="evenodd" d="M81.7992 282.644L86.8334 283.853C87.2215 283.947 87.6068 283.69 87.6702 283.296L87.6889 283.18C87.8732 282.034 87.7274 280.86 87.2686 279.795C87.1289 279.47 86.7534 279.319 86.428 279.457L81.7128 281.448L81.7992 282.644Z" fill="#E3E9FF"/>
<path fill-rule="evenodd" clip-rule="evenodd" d="M81.8928 282.89C82.5037 282.933 83.0335 282.473 83.0763 281.862C83.119 281.251 82.6584 280.721 82.0475 280.678C81.4366 280.635 80.9068 281.096 80.8641 281.707C80.8213 282.318 81.2819 282.848 81.8928 282.89Z" fill="#FF97C7"/>
<path fill-rule="evenodd" clip-rule="evenodd" d="M61.481 284.299L55.7663 313.623L51.2632 298.014L61.481 284.299Z" fill="#080708" fill-opacity="0.223011"/>
<path fill-rule="evenodd" clip-rule="evenodd" d="M77.4872 227.902C77.4872 227.902 68.2094 222.479 63.8841 231.752C61.2301 237.442 63.5077 241.831 59.8914 246.888C54.9652 253.777 63.7054 265.717 63.7054 265.717C63.7054 265.717 70.3983 262.474 77.4872 264.323C82.4538 257.386 77.4872 227.902 77.4872 227.902Z" fill="#842404"/>
<path fill-rule="evenodd" clip-rule="evenodd" d="M97.7245 232.848C97.7245 232.848 101.295 244.912 99.2602 251.328C97.2249 257.745 99.2893 264.215 99.2893 264.215C99.2893 264.215 91.4314 263.266 80.9094 263.266C78.3261 257.969 94.685 235.808 94.685 235.808L97.7245 232.848Z" fill="#842404"/>
<path fill-rule="evenodd" clip-rule="evenodd" d="M70.8833 270.895C70.8833 274.559 73.8541 277.525 77.5189 277.525C81.416 277.525 84.4741 274.183 84.1283 270.301L83.3615 261.694C83.3615 261.694 91.6217 262.348 94.4191 258.354C97.2165 254.36 96.8305 233.556 96.8305 233.556L70.8833 233.556C70.8833 233.556 70.8833 238.713 70.8833 240.502C62.9614 240.502 62.9614 250.067 70.8833 250.067C70.8833 256.208 70.8833 264.937 70.8833 270.895Z" fill="#FFC4A7"/>
<path fill-rule="evenodd" clip-rule="evenodd" d="M91.6992 246.249L91.6992 253.106C91.6992 253.106 94.8192 252.453 94.8192 251.434C94.8192 250.416 91.6992 246.249 91.6992 246.249Z" fill="#F19B93"/>
<path fill-rule="evenodd" clip-rule="evenodd" d="M83.3616 261.694C83.3616 261.694 80.9097 261.364 79.0221 260.768C77.1345 260.173 74.7466 258.972 74.7466 258.972C74.7466 258.972 77.9868 262.12 79.6901 263.473C81.3935 264.826 83.7698 266.139 83.7698 266.139L83.3616 261.694Z" fill="#F19B93"/>
<path fill-rule="evenodd" clip-rule="evenodd" d="M71.2182 247.802L72.9378 242.87C73.3471 241.696 74.5645 241.007 75.7891 241.221C79.1944 241.815 85.8765 242.772 89.8629 241.95C96.6204 240.557 98.4736 237.089 98.4736 237.089C98.4736 237.089 100.708 225.353 91.699 221.383C82.6904 217.414 70.2398 227.985 70.2398 227.985L68.6377 240.816L70.2398 240.451L71.2182 247.802Z" fill="#842404"/>
<path d="M93.1471 319.385C93.7166 318.105 95.2361 317.557 96.491 318.178L109.695 324.713C110.879 325.299 111.39 326.716 110.853 327.924L100.78 350.547C100.211 351.826 98.6912 352.374 97.4363 351.753L84.2327 345.218C83.048 344.632 82.5371 343.215 83.0747 342.007L93.1471 319.385Z" fill="#1075F0"/>
<path d="M94.8818 319.422C95.4707 318.099 97.0676 317.567 98.3322 318.272L111.61 325.671L121.495 328.693C122.911 329.125 123.628 330.699 123.026 332.051L112.967 354.644C112.461 355.781 111.186 356.362 109.996 355.998L99.5318 352.8L85.8674 345.185C84.7532 344.564 84.2971 343.196 84.8158 342.031L94.8818 319.422Z" fill="#467FFF"/>
<path d="M95.5951 325.687C95.9742 324.835 96.9979 324.487 97.8177 324.93L104.17 328.364C104.905 328.762 105.211 329.659 104.871 330.423L103.573 333.337C103.194 334.189 102.17 334.537 101.35 334.094L94.9981 330.66C94.2626 330.262 93.9573 329.365 94.2974 328.601L95.5951 325.687Z" fill="#EAEFFF"/>
<path d="M110.349 325.985C110.529 325.582 111.002 325.4 111.406 325.58L112.136 325.905C112.54 326.085 112.722 326.558 112.542 326.962L101.153 352.541C100.974 352.945 100.501 353.126 100.097 352.946L99.3662 352.621C98.9626 352.441 98.7811 351.968 98.9608 351.565L110.349 325.985Z" fill="#EAEFFF"/>
<path d="M111.08 326.311C111.26 325.907 111.732 325.726 112.136 325.905L112.867 326.231C113.271 326.411 113.452 326.883 113.272 327.287L101.884 352.866C101.704 353.27 101.231 353.452 100.828 353.272L100.097 352.946C99.6931 352.767 99.5116 352.294 99.6913 351.89L111.08 326.311Z" fill="#1075F0"/>
<path fill-rule="evenodd" clip-rule="evenodd" d="M57.5506 288.714L38.6128 319.439C38.6128 319.439 67.9511 330.814 77.4033 333.436C80.6585 334.339 84.8782 326.108 89.6436 327.292C91.4783 327.747 84.2414 334.38 87.6953 334.985C95.4029 336.337 101.34 337.649 101.89 339.293C102.564 341.309 94.0769 346.178 90.3095 346.761C88.2345 347.082 82.1727 344.918 74.8722 342.972C69.7397 341.604 49.0073 337.074 33.7989 333.787C25.4243 331.977 21.1972 322.571 25.4097 315.11L44.6188 281.089L57.5506 288.714Z" fill="#FFC4A7"/>
<path fill-rule="evenodd" clip-rule="evenodd" d="M46.202 276.177C48.5319 271.91 54.027 270.572 58.0572 273.291L59.6409 274.359C63.2808 276.814 64.3605 281.69 62.0974 285.452L41.8168 319.168L49.4384 322.397L44.264 337.546L28.9693 333.377C22.7505 331.682 19.7463 324.624 22.8355 318.966L46.202 276.177Z" fill="#313132"/>
<path fill-rule="evenodd" clip-rule="evenodd" d="M379.98 475.171C379.98 474.278 380.678 473.542 381.569 473.493L418.347 471.48H429.664L466.592 473.493C467.483 473.542 468.18 474.279 468.18 475.171V477.78H379.98V475.171Z" fill="#C8DAFF"/>
<path fill-rule="evenodd" clip-rule="evenodd" d="M419.88 408.9H428.28V471.9H419.88V408.9Z" fill="#C8DAFF"/>
<rect x="417.78" y="463.08" width="12.6" height="14.7" rx="0.84" fill="#A7C3FF"/>
<path fill-rule="evenodd" clip-rule="evenodd" d="M413.58 405.12C413.58 404.656 413.956 404.28 414.42 404.28H433.74C434.204 404.28 434.58 404.656 434.58 405.12V411.691C434.58 412.035 434.371 412.344 434.052 412.471L429.48 414.3C429.381 414.34 429.275 414.36 429.168 414.36H418.992C418.885 414.36 418.779 414.34 418.68 414.3L414.108 412.471C413.789 412.344 413.58 412.035 413.58 411.691V405.12Z" fill="#A7C3FF"/>
<rect x="377.88" y="477.78" width="8.4" height="8.4" rx="2.1" fill="#A7C3FF"/>
<rect x="461.88" y="477.78" width="8.4" height="8.4" rx="2.1" fill="#A7C3FF"/>
<rect x="419.88" y="477.78" width="8.4" height="8.4" rx="2.1" fill="#A7C3FF"/>
<path fill-rule="evenodd" clip-rule="evenodd" d="M414 399.24C414 395.529 417.009 392.52 420.72 392.52H473.64C477.351 392.52 480.36 395.529 480.36 399.24C480.36 402.951 477.351 405.96 473.64 405.96H420.72C417.009 405.96 414 402.951 414 399.24Z" fill="#C8DAFF"/>
<path fill-rule="evenodd" clip-rule="evenodd" d="M381.24 330.36H393C393 330.36 393 347.16 393 363.96C393 380.76 411.9 397.56 411.9 397.56H396.36C396.36 397.56 381.24 383.254 381.24 363.96C381.24 347.16 381.24 330.36 381.24 330.36Z" fill="#A7C3FF"/>
<path fill-rule="evenodd" clip-rule="evenodd" d="M386.28 330.36H398.04C398.04 330.36 398.04 347.16 398.04 363.96C398.04 380.76 416.94 397.56 416.94 397.56H403.08C403.08 397.56 386.28 383.646 386.28 363.96C386.28 347.16 386.28 330.36 386.28 330.36Z" fill="#C8DAFF"/>
<path fill-rule="evenodd" clip-rule="evenodd" d="M351.84 314.4C351.84 309.761 355.601 306 360.24 306H419.489C424.128 306 427.889 309.761 427.889 314.4V347.044C427.889 351.684 424.128 355.444 419.489 355.444H360.24C355.601 355.444 351.84 351.684 351.84 347.044L351.84 314.4Z" fill="#C8DAFF"/>
<path fill-rule="evenodd" clip-rule="evenodd" d="M351.478 311.446C351.478 308.438 353.916 306 356.923 306C359.931 306 362.369 308.438 362.369 311.446V349.999C362.369 353.006 359.931 355.444 356.923 355.444C353.916 355.444 351.478 353.006 351.478 349.999L351.478 311.446Z" fill="#A7C3FF"/>
<path fill-rule="evenodd" clip-rule="evenodd" d="M372.84 399.24C372.84 395.529 375.848 392.52 379.56 392.52L430.8 392.52C434.511 392.52 437.52 395.529 437.52 399.24C437.52 402.951 434.511 405.96 430.8 405.96H379.56C375.848 405.96 372.84 402.951 372.84 399.24Z" fill="#A7C3FF"/>
<path fill-rule="evenodd" clip-rule="evenodd" d="M471.846 480.465C475.185 480.699 481.639 480.974 482.778 480.465C483.17 480.291 483.292 480.032 483.284 479.769C483.26 478.995 482.45 478.533 481.785 478.137C480.272 477.237 477.21 475.495 473.877 474.058C469.153 472.022 463.998 461.787 463.66 459.193C463.191 455.597 469.679 443.995 469.679 443.995L456.53 443.118C456.53 443.118 452.432 458.008 450.75 460.777C450.313 461.497 448.019 467.096 448.999 469.208C450.062 471.5 452.238 471.875 455.769 473.627C463.165 477.294 463.165 479.481 471.846 480.465Z" fill="#E09282"/>
<path fill-rule="evenodd" clip-rule="evenodd" d="M451.457 459.756C451.457 459.756 445.657 462.292 448.063 469.831C450.469 477.37 450.168 480.065 450.168 480.065H455.892V474.697C455.892 474.697 456.129 474.513 457.071 475.249C459.815 477.397 464.88 481.379 466.806 481.858C470.686 482.824 483.704 481.262 483.704 481.262V480.065H473.973C473.973 480.065 479.099 475.109 478.261 474.587C476.854 473.713 473.973 471.894 473.973 471.894L463.997 476.065L451.457 459.756Z" fill="#283845"/>
<path fill-rule="evenodd" clip-rule="evenodd" d="M404.605 361.416C404.605 361.416 409.902 393.356 430.367 393.356C450.832 393.356 469.296 390.791 469.296 390.791C469.296 390.791 466.018 404.224 463.074 415.541C460.13 426.857 453.514 452.278 453.514 452.278H482.709L500.749 389.199C504.007 377.81 496.049 366.281 484.244 365.289L438.167 361.416V356.376H404.605V361.416Z" fill="#083254"/>
<path fill-rule="evenodd" clip-rule="evenodd" d="M517.306 481.574C520.645 481.808 526.36 482.082 527.499 481.574C528.096 481.308 528.067 480.847 527.904 480.469C527.709 480.015 527.303 479.699 526.9 479.414C525.719 478.578 522.892 476.699 519.336 475.167C514.612 473.131 510.819 469.875 509.458 465.036C508.097 460.197 505.166 446.705 505.166 446.705L491.977 446.117C491.977 446.117 496.21 457.975 496.21 461.886C496.21 462.73 493.478 468.205 494.459 470.317C495.522 472.609 497.698 472.984 501.229 474.735C508.625 478.403 503.251 480.763 517.306 481.574Z" fill="#E09282"/>
<path fill-rule="evenodd" clip-rule="evenodd" d="M496.178 461.235C496.178 461.235 490.378 463.771 492.783 471.31C495.189 478.849 494.889 481.544 494.889 481.544H500.613V476.176C500.613 476.176 500.85 475.992 501.791 476.728C504.536 478.875 509.6 482.858 511.526 483.337C515.407 484.303 528.424 482.741 528.424 482.741V481.544H518.694C518.694 481.544 523.82 476.587 522.981 476.066C521.574 475.192 518.694 473.373 518.694 473.373L508.717 477.544L496.178 461.235Z" fill="#283845"/>
<path fill-rule="evenodd" clip-rule="evenodd" d="M385.227 361.473C385.227 361.473 382.459 394.935 408.247 394.544C428.708 394.233 472.64 389.28 472.64 389.28C472.64 389.28 473.339 404.334 477.389 416.637C481.44 428.939 488.171 453.185 488.171 453.185H516.845L495.072 382.388C492.679 374.607 485.961 368.943 477.888 367.899L428.191 361.473V356.433L384.895 356.433L385.227 361.473Z" fill="#0A4677"/>
<path fill-rule="evenodd" clip-rule="evenodd" d="M405.34 361.844L397.388 376.423C397.388 376.423 396.872 375.714 396.338 372.357C395.805 369 395.021 361.526 395.021 361.526L405.34 361.844Z" fill="#E3E9FF"/>
<path d="M395.246 356.433L396.153 370.863C396.74 380.201 404.67 387.366 414.02 387.006L473.502 384.718C475.734 384.632 477.731 386.096 478.321 388.251L496.102 453.237" stroke="#E3E9FF" stroke-width="0.5" stroke-linecap="round"/>
<path fill-rule="evenodd" clip-rule="evenodd" d="M438.06 286.149L451.06 311.657L480.411 283.447C480.529 283.333 480.604 283.182 480.623 283.019L481.835 272.432C481.835 272.432 488.814 261.21 489.956 265.296C490.382 266.822 486.769 268.614 487.462 273.602C487.591 274.526 495.059 269.479 498.264 267.266C498.787 266.905 499.488 267.363 499.367 267.987L497.107 279.645C497.076 279.804 496.991 279.948 496.867 280.052L486.188 288.976L459.06 326.01C454.804 331.821 445.958 331.265 442.463 324.966L424.508 292.606L438.06 286.149Z" fill="#E09282"/>
<path d="M488.887 261.392C488.863 260.067 489.919 258.974 491.244 258.951L503.243 258.741C504.568 258.718 505.661 259.774 505.684 261.099L506.187 289.894C506.21 291.22 505.154 292.313 503.829 292.336L491.831 292.545C490.505 292.569 489.412 291.513 489.389 290.188L488.887 261.392Z" fill="#1075F0"/>
<rect x="490.102" y="258.529" width="16.8" height="33.6" rx="2.4" transform="rotate(-1 490.102 258.529)" fill="#467FFF"/>
<path d="M491.358 261.865C491.339 260.673 492.288 259.691 493.48 259.67L494.716 259.648C494.833 259.646 494.929 259.739 494.931 259.856C494.94 260.323 495.325 260.695 495.792 260.687L501.301 260.591C501.768 260.583 502.14 260.198 502.132 259.73C502.13 259.614 502.223 259.517 502.34 259.515L503.559 259.494C504.752 259.473 505.736 260.424 505.756 261.618L506.203 288.574C506.223 289.766 505.273 290.749 504.081 290.77L494.002 290.945C492.809 290.966 491.825 290.015 491.805 288.822L491.358 261.865Z" fill="#EAEFFF"/>
<path fill-rule="evenodd" clip-rule="evenodd" d="M436.152 276.634C433.966 272.413 428.811 270.708 424.539 272.793C420.043 274.987 418.297 280.497 420.709 284.88L432.916 307.063L446.981 297.546L436.152 276.634Z" fill="#0A4677"/>
<path fill-rule="evenodd" clip-rule="evenodd" d="M436.786 290.454L443.522 299.861L440.154 302.304L436.786 290.454Z" fill="#080708" fill-opacity="0.223011"/>
<path d="M446.981 297.546L432.916 307.063" stroke="#E3E9FF" stroke-width="0.924" stroke-linecap="round"/>
<path fill-rule="evenodd" clip-rule="evenodd" d="M380.794 283.442C379.51 278.407 382.939 273.39 388.096 272.757L410.303 270.032L428.292 272.048C429.531 272.187 430.6 272.959 431.096 274.104C433.467 279.572 440.287 295.835 440.71 302.886C441.102 309.427 435.133 316.723 435.133 323.428C435.133 330.134 438.827 358.031 438.827 358.031L383.749 359.834C383.241 359.851 382.852 359.387 382.956 358.89L390.671 322.171L380.794 283.442Z" fill="#E09282"/>
<path fill-rule="evenodd" clip-rule="evenodd" d="M380.794 283.442C379.51 278.407 382.939 273.39 388.096 272.757L401.292 271.138C401.292 271.138 407.032 276.42 411.674 281.837C416.316 287.254 420.6 294.304 420.6 294.304C420.6 294.304 421.247 288.568 421.247 283.476C421.247 278.384 420.6 271.186 420.6 271.186L427.67 272.044C428.845 272.186 429.866 272.899 430.38 273.966C432.951 279.293 440.653 295.775 441.079 302.886C441.471 309.427 435.502 316.723 435.502 323.428C435.502 330.134 438.827 359.475 438.827 359.475L392.967 361.961C387.055 362.281 382.494 356.83 383.854 351.067L390.671 322.171L380.794 283.442Z" fill="#E3E9FF"/>
<path fill-rule="evenodd" clip-rule="evenodd" d="M388.096 272.757L401.292 271.138L404.54 277.098C409.207 285.706 412.66 292.296 414.898 296.866C417.628 302.441 420.243 308.468 422.745 314.95C424.704 308.592 425.544 302.564 425.264 296.866L425.222 296.124C424.851 290.435 423.31 282.123 420.6 271.186L428.349 272.054C429.561 272.19 430.617 272.943 431.141 274.044L431.755 275.343C437.901 288.414 441.132 297.596 441.449 302.886C441.841 309.427 435.872 316.723 435.872 323.428L435.877 323.908C435.968 328.541 437.304 340.21 439.886 358.913C440.081 360.328 439.092 361.634 437.677 361.829C437.603 361.84 437.528 361.847 437.454 361.85L389.236 364.292C384.955 364.509 381.308 361.214 381.092 356.933C381.048 356.075 381.147 355.216 381.385 354.391L390.671 322.171L380.794 283.442C379.617 278.829 382.403 274.136 387.016 272.96C387.371 272.869 387.732 272.801 388.096 272.757Z" fill="#0A4677"/>
<path fill-rule="evenodd" clip-rule="evenodd" d="M422.745 319.015L424.14 362.274H427.721L422.745 319.015Z" fill="#080708" fill-opacity="0.223011"/>
<path d="M438.496 361.891L389.236 364.292C387.572 364.376 386.004 363.93 384.696 363.102" stroke="#062944" stroke-opacity="0.699109" stroke-width="0.924" stroke-linecap="round"/>
<path fill-rule="evenodd" clip-rule="evenodd" d="M423.28 322.146C424.403 322.146 425.313 321.236 425.313 320.113C425.313 318.99 424.403 318.08 423.28 318.08C422.157 318.08 421.247 318.99 421.247 320.113C421.247 321.236 422.157 322.146 423.28 322.146Z" fill="#E3E9FF"/>
<path fill-rule="evenodd" clip-rule="evenodd" d="M395.221 286.686L389.506 316.01L385.003 300.401L395.221 286.686Z" fill="#080708" fill-opacity="0.223011"/>
<path fill-rule="evenodd" clip-rule="evenodd" d="M426.655 267.94C428.74 265.937 426.911 253.191 426.427 250.069C426.363 249.654 426.558 249.242 426.91 249.013C428.351 248.073 431.982 245.394 432.825 241.801C438.1 219.323 403.862 221.376 401.587 230.32C396.079 231.097 394.776 238.426 395.223 244.291C395.35 245.959 395.277 258.911 395.24 264.328C395.23 265.749 396.123 267.014 397.464 267.486L407.617 271.059C407.617 271.059 424.277 270.226 426.655 267.94Z" fill="#321111"/>
<path fill-rule="evenodd" clip-rule="evenodd" d="M405.516 272.42C405.516 275.878 408.319 278.676 411.776 278.676C415.453 278.676 418.338 275.522 418.011 271.86L417.288 263.74C417.288 263.74 425.081 264.358 427.72 260.59C430.359 256.822 429.995 237.195 429.995 237.195L405.516 237.195C405.516 237.195 405.516 242.06 405.516 243.748C398.043 243.748 398.043 252.772 405.516 252.772C405.516 258.565 405.516 266.8 405.516 272.42Z" fill="#E09282"/>
<path fill-rule="evenodd" clip-rule="evenodd" d="M430.039 242.013V232.932H404.678L405.528 250.72C405.543 251.051 405.969 251.152 406.127 250.861C406.668 249.857 407.532 248.181 408.337 246.288C409.695 243.095 414.136 241.606 416.913 241.606C419.828 241.606 424.051 241.955 426.653 239.804C429.687 237.296 430.039 242.013 430.039 242.013Z" fill="#321111"/>
<path fill-rule="evenodd" clip-rule="evenodd" d="M417.304 263.72C417.304 263.72 414.991 263.408 413.21 262.847C411.43 262.285 409.177 261.152 409.177 261.152C409.177 261.152 412.234 264.121 413.84 265.398C415.447 266.674 417.689 267.913 417.689 267.913L417.304 263.72Z" fill="#B9726B"/>
<path fill-rule="evenodd" clip-rule="evenodd" d="M424.969 248.283L424.969 254.752C424.969 254.752 427.665 253.352 427.665 252.805C427.665 252.259 424.969 248.283 424.969 248.283Z" fill="#B9726B"/>
<path fill-rule="evenodd" clip-rule="evenodd" d="M414.032 225.237C417.782 223.965 424.015 224.004 428.145 227.231C428.145 227.231 420.694 226.019 415.892 227.647C411.504 229.134 405.207 235.5 405.143 243.746L403.857 244.019C402.82 236.055 405.208 228.23 414.032 225.237Z" fill="#A0C6FF"/>
<path fill-rule="evenodd" clip-rule="evenodd" d="M388.986 294.715L373.182 324.266C373.182 324.266 434.051 302.398 434.618 303.341C435.555 304.899 429.768 307.727 428.261 309.595C426.755 311.462 428.261 316.738 426.619 318.71C425.902 319.571 418.406 319.581 415.91 319.581C414.858 319.581 402.985 324.697 384.798 334.031C383.531 334.681 379.841 336.28 375.166 338.253C364.375 342.806 353.848 331.445 359.092 320.973L376.054 287.091L388.986 294.715Z" fill="#E09282"/>
<path fill-rule="evenodd" clip-rule="evenodd" d="M378.341 278.484C380.632 273.575 386.657 271.713 391.318 274.472L392.525 275.186C396.741 277.681 398.25 283.049 395.953 287.375L383.817 310.228L367.7 301.285L378.341 278.484Z" fill="#0A4677"/>
<path fill-rule="evenodd" clip-rule="evenodd" d="M414.526 310.495C414.526 310.495 419.32 300.817 421.021 300.932C422.723 301.047 419.571 310.236 419.571 310.236L414.526 310.495Z" fill="#E09282"/>
<path d="M367.935 301.348L383.818 310.228" stroke="#E3E9FF" stroke-width="0.924" stroke-linecap="round"/>
<path d="M403.785 255.304L403.785 255.264C406.035 254.905 407.785 252.15 407.785 248.804C407.785 245.458 406.035 242.703 403.785 242.344L403.785 242.304H399.785L399.784 244.719C399.159 245.835 398.785 247.257 398.785 248.804C398.785 250.351 399.159 251.772 399.784 252.889L399.785 255.304H403.785Z" fill="#1075F0"/>
<path d="M401.259 242.464C401.259 232.569 409.182 225 419.077 225H425.655C427.176 225 428.508 225.995 428.95 227.435L429 227.617H419.161C410.922 227.617 404.259 234.225 404.259 242.464H401.259Z" fill="#467FFF"/>
<path d="M400.285 255.304C397.8 255.304 395.785 252.394 395.785 248.804C395.785 245.214 397.8 242.304 400.285 242.304C402.77 242.304 404.785 245.214 404.785 248.804C404.785 252.394 402.77 255.304 400.285 255.304Z" fill="#467FFF"/>
<path fill-rule="evenodd" clip-rule="evenodd" d="M423.113 260.804C423.389 260.804 423.613 261.028 423.613 261.304C423.613 261.58 423.389 261.804 423.113 261.804H415.452C414.445 261.804 413.476 261.424 412.736 260.741L405.217 253.79C405.015 253.603 405.002 253.286 405.19 253.084C405.377 252.881 405.693 252.868 405.896 253.056L413.128 259.741C413.867 260.424 414.837 260.804 415.843 260.804H423.113Z" fill="#313132"/>
<rect width="4" height="2" rx="1" transform="matrix(-1 0 0 1 426.785 260.304)" fill="#313132"/>
<path fill-rule="evenodd" clip-rule="evenodd" d="M290.76 356.2H275.64V491.44H290.76V356.2Z" fill="#A7C3FF"/>
<path fill-rule="evenodd" clip-rule="evenodd" d="M293.28 356.2H283.2V491.44H293.28V356.2Z" fill="#C8DAFF"/>
<path fill-rule="evenodd" clip-rule="evenodd" d="M366.36 356.2H283.2V373.918H351.24V491.44H366.36V356.2Z" fill="#A7C3FF"/>
<path fill-rule="evenodd" clip-rule="evenodd" d="M368.88 356.2H358.8V491.44H368.88V356.2Z" fill="#C8DAFF"/>
<path fill-rule="evenodd" clip-rule="evenodd" d="M131.16 356.2H116.04V491.44H131.16V356.2Z" fill="#A7C3FF"/>
<path fill-rule="evenodd" clip-rule="evenodd" d="M133.68 356.2H123.6V491.44H133.68V356.2Z" fill="#C8DAFF"/>
<path fill-rule="evenodd" clip-rule="evenodd" d="M206.76 356.2H123.6V491.44H191.64H206.76V356.2Z" fill="#A7C3FF"/>
<path fill-rule="evenodd" clip-rule="evenodd" d="M264.72 356.2H199.2V491.44L264.72 491.826L264.72 356.2Z" fill="#C8DAFF"/>
<path fill-rule="evenodd" clip-rule="evenodd" d="M300 353.68C300 352.752 299.248 352 298.32 352H102.6C101.672 352 100.92 352.752 100.92 353.68V362.92C100.92 363.848 101.672 364.6 102.6 364.6H298.32C299.248 364.6 300 363.848 300 362.92V353.68Z" fill="#A7C3FF"/>
<path fill-rule="evenodd" clip-rule="evenodd" d="M384 353.68C384 352.752 383.248 352 382.32 352H186.6C185.672 352 184.92 352.752 184.92 353.68V362.92C184.92 363.848 185.672 364.6 186.6 364.6H382.32C383.248 364.6 384 363.848 384 362.92V353.68Z" fill="#C8DAFF"/>
<path fill-rule="evenodd" clip-rule="evenodd" d="M608.76 356.2H593.64V491.44H608.76V356.2Z" fill="#A7C3FF"/>
<path fill-rule="evenodd" clip-rule="evenodd" d="M611.28 356.2H601.2V491.44H611.28V356.2Z" fill="#C8DAFF"/>
<path fill-rule="evenodd" clip-rule="evenodd" d="M684.36 356.2H601.2V373.918H669.24V491.44H684.36V356.2Z" fill="#A7C3FF"/>
<path fill-rule="evenodd" clip-rule="evenodd" d="M686.88 356.2H676.8V491.44H686.88V356.2Z" fill="#C8DAFF"/>
<path fill-rule="evenodd" clip-rule="evenodd" d="M449.16 356.2H434.04V491.44H449.16V356.2Z" fill="#A7C3FF"/>
<path fill-rule="evenodd" clip-rule="evenodd" d="M451.68 356.2H441.6V491.44H451.68V356.2Z" fill="#C8DAFF"/>
<path fill-rule="evenodd" clip-rule="evenodd" d="M524.76 356.2H441.6V491.44H509.64H524.76V356.2Z" fill="#A7C3FF"/>
<path fill-rule="evenodd" clip-rule="evenodd" d="M582.72 356.2H517.2V491.44L582.72 491.826L582.72 356.2Z" fill="#C8DAFF"/>
<path fill-rule="evenodd" clip-rule="evenodd" d="M618 353.68C618 352.752 617.248 352 616.32 352H420.6C419.672 352 418.92 352.752 418.92 353.68V362.92C418.92 363.848 419.672 364.6 420.6 364.6H616.32C617.248 364.6 618 363.848 618 362.92V353.68Z" fill="#A7C3FF"/>
<path fill-rule="evenodd" clip-rule="evenodd" d="M702 353.68C702 352.752 701.248 352 700.32 352H504.6C503.672 352 502.92 352.752 502.92 353.68V362.92C502.92 363.848 503.672 364.6 504.6 364.6H700.32C701.248 364.6 702 363.848 702 362.92V353.68Z" fill="#C8DAFF"/>
<path d="M465.448 341.578H453.709V351.64H465.448C465.448 351.64 467.125 349.125 467.125 346.609C467.125 344.093 465.448 341.578 465.448 341.578Z" fill="#EFF3FF"/>
<rect width="62.0512" height="0.83853" transform="matrix(1 0 0 -1 452.87 341.578)" fill="#F5AC00"/>
<rect width="62.0512" height="0.83853" transform="matrix(1 0 0 -1 452.87 352.479)" fill="#F5AC00"/>
<path d="M465.447 341.578H515.759C515.759 341.578 517.436 344.093 517.436 346.609C517.436 349.125 515.759 351.64 515.759 351.64H465.447C465.447 351.64 467.124 349.125 467.124 346.609C467.124 344.093 465.447 341.578 465.447 341.578Z" fill="#FFBF29"/>
<path d="M459.578 329.839H447.838V339.901H459.578C459.578 339.901 461.255 337.385 461.255 334.87C461.255 332.354 459.578 329.839 459.578 329.839Z" fill="#EFF3FF"/>
<rect width="62.0512" height="0.83853" transform="matrix(1 0 0 -1 447 329.839)" fill="#FF326F"/>
<rect width="62.0512" height="0.83853" transform="matrix(1 0 0 -1 447 340.74)" fill="#FF326F"/>
<path fill-rule="evenodd" clip-rule="evenodd" d="M459.578 329.839H509.89C509.89 329.839 511.567 332.354 511.567 334.87C511.567 337.385 509.89 339.901 509.89 339.901H459.578C459.578 339.901 461.255 337.385 461.255 334.87C461.255 332.354 459.578 329.839 459.578 329.839Z" fill="#FF5D8E"/>
<path d="M640.48 266.058C640.756 263.905 639.079 262 636.909 262H530.768C528.957 262 527.427 263.346 527.197 265.142L519.12 328.142C518.844 330.295 520.521 332.2 522.691 332.2H628.832C630.643 332.2 632.173 330.854 632.403 329.058L640.48 266.058Z" fill="#8330AD"/>
<path d="M640.48 266.058C640.756 263.905 639.079 262 636.909 262H534.368C532.557 262 531.027 263.346 530.797 265.142L522.72 328.142C522.444 330.295 524.121 332.2 526.291 332.2H628.832C630.643 332.2 632.173 330.854 632.403 329.058L640.48 266.058Z" fill="#B34EE6"/>
<path fill-rule="evenodd" clip-rule="evenodd" d="M579.604 292.502C577.024 290.558 576.751 286.568 578.994 283.591C581.238 280.614 585.148 279.776 587.728 281.721C590.309 283.665 590.582 287.655 588.338 290.632C586.095 293.609 582.184 294.447 579.604 292.502Z" fill="white"/>
<path d="M591.98 307H572.138C570.402 307 568.923 308.237 568.602 309.926L568.572 310.108L565.527 332.2H590.243L591.98 307H572.138H591.98Z" fill="black" fill-opacity="0.0964543"/>
<path fill-rule="evenodd" clip-rule="evenodd" d="M568.558 310.6C568.558 308.612 570.17 307 572.158 307H588.307C590.129 307 591.664 308.362 591.881 310.171L596.9 352H552.8V349.3H573.176L568.584 311.029C568.567 310.887 568.558 310.743 568.558 310.6ZM583.488 331.24C587.681 330.725 590.663 326.908 590.148 322.714C589.633 318.521 585.816 315.539 581.623 316.054C577.429 316.569 574.447 320.385 574.962 324.579C575.477 328.772 579.294 331.755 583.488 331.24Z" fill="#8330AD"/>
<path fill-rule="evenodd" clip-rule="evenodd" d="M574.857 307C572.869 307 571.257 308.612 571.257 310.6C571.257 310.743 571.266 310.887 571.283 311.029L576.2 352H599.6L594.58 310.171C594.363 308.362 592.828 307 591.006 307H574.857ZM592.847 322.714C593.362 326.908 590.38 330.725 586.187 331.24C581.993 331.755 578.176 328.772 577.661 324.579C577.147 320.385 580.129 316.569 584.322 316.054C588.516 315.539 592.333 318.521 592.847 322.714Z" fill="#A7C3FF"/>
<rect width="6" height="4" rx="2" transform="matrix(-1 0 0 1 325 324)" fill="#4ED266"/>
<path d="M330.782 316.019C330.9 313.836 329.162 312 326.975 312C324.807 312 323.075 313.805 323.165 315.971L324 336H329.698L330.782 316.019Z" fill="#4ED266"/>
<path d="M332.367 318.855L331.134 320.005L331 320H329C327.895 320 327 320.896 327 322C327 323.105 327.895 324 329 324H331C331.501 324 331.959 323.816 332.31 323.511C332.531 323.456 332.744 323.354 332.936 323.206L334.973 321.637C335.769 321.024 335.918 319.881 335.305 319.085C335.27 319.04 335.233 318.996 335.194 318.954C334.44 318.146 333.175 318.102 332.367 318.855Z" fill="#4ED266"/>
<path fill-rule="evenodd" clip-rule="evenodd" d="M342 333H312V352H342V333Z" fill="#C8DAFF"/>
<path fill-rule="evenodd" clip-rule="evenodd" d="M342 333H328V352H342V333Z" fill="#A7C3FF"/>
<path d="M163.458 346.776V340.117C163.458 338.322 164.913 336.867 166.708 336.867C168.503 336.867 169.958 338.322 169.958 340.117V346.776C169.958 348.571 168.503 350.026 166.708 350.026C164.913 350.026 163.458 348.571 163.458 346.776Z" fill="#1075F0"/>
<path d="M188.208 348.776C188.208 347.119 186.865 345.776 185.208 345.776H146.208C144.551 345.776 143.208 347.119 143.208 348.776C143.208 350.432 144.551 351.776 146.208 351.776H185.208C186.865 351.776 188.208 350.432 188.208 348.776Z" fill="#467FFF"/>
<path d="M166.014 271.5C165.319 272.358 165.452 273.617 166.31 274.312L172.527 279.347L178.771 293.984C179.205 295 180.38 295.473 181.396 295.039C181.696 294.911 181.96 294.712 182.165 294.458L196.235 277.084C196.93 276.226 196.797 274.966 195.939 274.271C195.685 274.066 195.385 273.926 195.065 273.863L179.45 270.798L173.232 265.764C172.374 265.069 171.115 265.201 170.42 266.06L166.014 271.5Z" fill="#467FFF"/>
<path d="M179.449 270.799L173.232 265.764C172.374 265.069 171.114 265.201 170.419 266.06L166.014 271.5C165.319 272.358 165.451 273.617 166.31 274.313L172.527 279.347L179.449 270.799Z" fill="#C4D1FF"/>
<path d="M133.91 304.129L169.887 270.638C170.796 269.791 172.22 269.842 173.067 270.751C173.913 271.661 173.863 273.085 172.953 273.931L136.976 307.423C136.067 308.269 134.643 308.218 133.796 307.309C132.95 306.399 133.001 304.975 133.91 304.129Z" fill="#1075F0"/>
<path d="M165.02 342.119L134.755 307.763C133.933 306.83 134.023 305.409 134.956 304.587C135.888 303.766 137.31 303.856 138.132 304.788L168.396 339.145C169.218 340.077 169.128 341.499 168.195 342.32C167.263 343.142 165.841 343.052 165.02 342.119Z" fill="#467FFF"/>
<path d="M67.7852 255.304L67.7851 255.264C70.0351 254.905 71.7852 252.15 71.7852 248.804C71.7852 245.458 70.0351 242.703 67.7851 242.344L67.7852 242.304H63.7852L63.7845 244.719C63.1595 245.835 62.7852 247.257 62.7852 248.804C62.7852 250.351 63.1595 251.772 63.7845 252.889L63.7852 255.304H67.7852Z" fill="#1075F0"/>
<path d="M65.259 242.464C65.259 232.569 73.1822 225 83.0774 225H89.6548C91.1755 225 92.5082 225.995 92.9495 227.435L93 227.617H83.1609C74.9225 227.617 68.259 234.225 68.259 242.464H65.259Z" fill="#467FFF"/>
<path d="M64.2852 255.304C61.7999 255.304 59.7852 252.394 59.7852 248.804C59.7852 245.214 61.7999 242.304 64.2852 242.304C66.7704 242.304 68.7852 245.214 68.7852 248.804C68.7852 252.394 66.7704 255.304 64.2852 255.304Z" fill="#467FFF"/>
<path fill-rule="evenodd" clip-rule="evenodd" d="M87.1133 260.804C87.3894 260.804 87.6133 261.028 87.6133 261.304C87.6133 261.58 87.3894 261.804 87.1133 261.804H79.4518C78.4452 261.804 77.4756 261.424 76.7365 260.741L69.2174 253.79C69.0147 253.603 69.0022 253.286 69.1897 253.084C69.3771 252.881 69.6935 252.868 69.8962 253.056L77.1279 259.741C77.867 260.424 78.8366 260.804 79.8432 260.804H87.1133Z" fill="#313132"/>
<rect width="4" height="2" rx="1" transform="matrix(-1 0 0 1 90.7852 260.304)" fill="#313132"/>
<path d="M321.48 267.058C321.756 264.905 320.079 263 317.909 263H211.768C209.957 263 208.427 264.346 208.197 266.142L200.12 329.142C199.844 331.295 201.521 333.2 203.691 333.2H309.832C311.643 333.2 313.173 331.854 313.403 330.058L321.48 267.058Z" fill="#F5AC00"/>
<path d="M321.48 267.058C321.756 264.905 320.079 263 317.909 263H215.368C213.557 263 212.027 264.346 211.797 266.142L203.72 329.142C203.444 331.295 205.121 333.2 207.291 333.2H309.832C311.643 333.2 313.173 331.854 313.403 330.058L321.48 267.058Z" fill="#FFBF29"/>
<path fill-rule="evenodd" clip-rule="evenodd" d="M260.787 293.141C258.207 291.196 257.934 287.207 260.178 284.229C262.421 281.252 266.332 280.415 268.912 282.359C271.492 284.304 271.765 288.293 269.522 291.271C267.278 294.248 263.368 295.085 260.787 293.141Z" fill="white"/>
<path d="M270.65 308H253.138C251.402 308 249.923 309.237 249.602 310.926L249.572 311.108L246.526 333.2H271.307L274.216 312.092C274.231 311.983 274.241 311.874 274.246 311.764L274.25 311.6C274.25 309.672 272.734 308.098 270.83 308.004L270.65 308H253.138H270.65Z" fill="black" fill-opacity="0.0964543"/>
<path fill-rule="evenodd" clip-rule="evenodd" d="M249.558 311.6C249.558 309.612 251.17 308 253.158 308H269.307C271.129 308 272.664 309.362 272.881 311.171L277.9 353H233.8V350.3H254.176L249.584 312.029C249.567 311.887 249.558 311.743 249.558 311.6ZM264.488 332.24C268.681 331.725 271.663 327.908 271.148 323.714C270.633 319.521 266.816 316.539 262.623 317.054C258.429 317.569 255.447 321.385 255.962 325.579C256.477 329.772 260.294 332.755 264.488 332.24Z" fill="#F5AC00"/>
<path fill-rule="evenodd" clip-rule="evenodd" d="M255.857 308C253.869 308 252.257 309.612 252.257 311.6C252.257 311.743 252.266 311.887 252.283 312.029L257.2 353H280.6L275.58 311.171C275.363 309.362 273.828 308 272.006 308H255.857ZM273.847 323.714C274.362 327.908 271.38 331.725 267.187 332.24C262.993 332.755 259.176 329.772 258.661 325.579C258.147 321.385 261.129 317.569 265.322 317.054C269.516 316.539 273.333 319.521 273.847 323.714Z" fill="#A7C3FF"/>
<path d="M659.498 321.226H663.127C667.135 321.226 670.384 324.475 670.384 328.483H666.756C662.747 328.483 659.498 325.234 659.498 321.226Z" fill="#40B955"/>
<path d="M660.872 315.932L661.819 314.152C662.864 312.185 665.305 311.439 667.271 312.484L666.325 314.265C665.28 316.231 662.838 316.977 660.872 315.932Z" fill="#40B955"/>
<path fill-rule="evenodd" clip-rule="evenodd" d="M681.271 324.49H677.642C673.633 324.49 670.384 327.739 670.384 331.747H674.013C678.021 331.747 681.271 328.498 681.271 324.49Z" fill="#40B955"/>
<path fill-rule="evenodd" clip-rule="evenodd" d="M674.226 310.002L673.706 310.866C672.56 312.774 673.177 315.252 675.086 316.398L675.605 315.534C676.752 313.626 676.134 311.149 674.226 310.002Z" fill="#40B955"/>
<path fill-rule="evenodd" clip-rule="evenodd" d="M678.065 314.447L679.006 314.808C680.566 315.407 681.344 317.156 680.746 318.715L679.805 318.354C678.246 317.755 677.467 316.006 678.065 314.447Z" fill="#40B955"/>
<path fill-rule="evenodd" clip-rule="evenodd" d="M670.609 313.392L661.621 308.917L661.172 309.819L670.16 314.294L670.609 313.392Z" fill="#40B955"/>
<path fill-rule="evenodd" clip-rule="evenodd" d="M655.594 310.539C655.418 310.46 655.432 310.206 655.616 310.147L656.564 309.846C656.89 309.742 657.059 309.385 656.933 309.067L656.705 308.496C656.496 307.972 656.759 307.378 657.288 307.18L657.884 306.957C658.197 306.839 658.343 306.481 658.201 306.178L657.788 305.298C657.706 305.123 657.886 304.939 658.063 305.018L661.233 306.429C662.759 307.109 663.445 308.896 662.766 310.422C662.086 311.948 660.299 312.634 658.773 311.954L655.594 310.539Z" fill="#FF5D8E"/>
<path fill-rule="evenodd" clip-rule="evenodd" d="M665.154 304.962L664.635 305.826C663.488 307.734 664.106 310.212 666.015 311.358L666.534 310.494C667.681 308.586 667.063 306.109 665.154 304.962Z" fill="#40B955"/>
<path fill-rule="evenodd" clip-rule="evenodd" d="M670.243 318.432L679.231 313.957L679.681 314.859L670.692 319.334L670.243 318.432Z" fill="#40B955"/>
<path fill-rule="evenodd" clip-rule="evenodd" d="M682.784 308.912C682.951 308.815 683.149 308.977 683.088 309.16L682.774 310.104C682.667 310.428 682.857 310.776 683.187 310.86L683.783 311.012C684.33 311.151 684.656 311.713 684.506 312.257L684.336 312.87C684.247 313.192 684.451 313.521 684.779 313.584L685.734 313.768C685.924 313.804 685.967 314.058 685.799 314.155L682.794 315.89C681.348 316.725 679.498 316.229 678.663 314.783C677.828 313.336 678.324 311.487 679.77 310.652L682.784 308.912Z" fill="#FF5D8E"/>
<path fill-rule="evenodd" clip-rule="evenodd" d="M669.717 299.693V338.488H670.926V299.693H669.717Z" fill="#40B955"/>
<path fill-rule="evenodd" clip-rule="evenodd" d="M664.739 289.19C664.739 288.83 665.184 288.663 665.421 288.933L666.67 290.356C667.059 290.799 667.744 290.815 668.154 290.39L669.583 288.906C669.978 288.496 670.635 288.495 671.032 288.903L672.473 290.386C672.886 290.812 673.576 290.79 673.962 290.339L675.143 288.957C675.378 288.682 675.827 288.848 675.827 289.209V295.716C675.827 298.778 673.345 301.26 670.283 301.26C667.221 301.26 664.739 298.778 664.739 295.716V289.19Z" fill="#FF5D8E"/>
<path d="M659.153 332.453H681.733L679.166 351.034C679.089 351.592 678.611 352.008 678.047 352.008H662.838C662.275 352.008 661.797 351.592 661.72 351.034L659.153 332.453Z" fill="#F5AC00"/>
<path d="M658.024 333.582C658.024 332.958 658.53 332.453 659.153 332.453H681.733C682.356 332.453 682.862 332.958 682.862 333.582V337.09C682.862 337.713 682.356 338.219 681.733 338.219H659.153C658.53 338.219 658.024 337.713 658.024 337.09V333.582Z" fill="#FFBF29"/>
<rect width="77.616" height="89.712" transform="matrix(-1 0 0 1 185.952 101)" fill="#A7C3FF"/>
<rect width="77.616" height="89.712" transform="matrix(-1 0 0 1 192 101)" fill="#C8DAFF"/>
<path d="M182.928 111.584H123.456V180.632H182.928V111.584Z" fill="#EAEFFF"/>
<rect width="6.048" height="69.048" transform="matrix(-1 0 0 1 182.928 111.584)" fill="#A7C3FF"/>
<path fill-rule="evenodd" clip-rule="evenodd" d="M134.404 162.014C134.017 162.014 133.774 161.596 133.966 161.26L153.753 126.586C153.948 126.243 154.444 126.248 154.633 126.593L173.611 161.268C173.795 161.604 173.552 162.014 173.169 162.014H134.404Z" stroke="#A7C3FF" stroke-width="1.512"/>
<path fill-rule="evenodd" clip-rule="evenodd" d="M134.406 145.962C134.019 145.962 133.776 145.544 133.969 145.208L144.666 126.58C144.862 126.239 145.355 126.243 145.545 126.587L155.804 145.215C155.989 145.551 155.746 145.962 155.363 145.962H134.406Z" stroke="#A7C3FF" stroke-width="1.512"/>
<rect width="77.616" height="89.712" transform="matrix(-1 0 0 1 358.952 101)" fill="#A7C3FF"/>
<rect width="77.616" height="89.712" transform="matrix(-1 0 0 1 365 101)" fill="#C8DAFF"/>
<path d="M355.928 111.584H296.456V180.632H355.928V111.584Z" fill="#EAEFFF"/>
<rect width="29.736" height="29.736" rx="0.504" transform="matrix(-1 0 0 1 341.816 134.264)" stroke="#A7C3FF" stroke-width="1.512"/>
<rect width="22.68" height="22.68" rx="0.504" transform="matrix(-1 0 0 1 325.688 122.672)" stroke="#A7C3FF" stroke-width="1.512"/>
<rect width="6.048" height="69.048" transform="matrix(-1 0 0 1 355.928 111.584)" fill="#A7C3FF"/>
<rect width="77.616" height="89.712" transform="matrix(-1 0 0 1 519.952 101)" fill="#A7C3FF"/>
<rect width="77.616" height="89.712" transform="matrix(-1 0 0 1 526 101)" fill="#C8DAFF"/>
<path d="M516.928 111.584H457.456V180.632H516.928V111.584Z" fill="#EAEFFF"/>
<path fill-rule="evenodd" clip-rule="evenodd" d="M476.356 143.336C470.372 143.336 465.52 138.485 465.52 132.5C465.52 126.516 470.372 121.664 476.356 121.664C482.341 121.664 487.192 126.516 487.192 132.5C487.192 138.485 482.341 143.336 476.356 143.336Z" stroke="#A7C3FF" stroke-width="1.512"/>
<path fill-rule="evenodd" clip-rule="evenodd" d="M486.436 170.048C474.884 170.048 465.52 160.684 465.52 149.132C465.52 137.58 474.884 128.216 486.436 128.216C497.987 128.216 507.352 137.58 507.352 149.132C507.352 160.684 497.987 170.048 486.436 170.048Z" stroke="#A7C3FF" stroke-width="1.512"/>
<rect width="6.048" height="69.048" transform="matrix(-1 0 0 1 516.928 111.584)" fill="#A7C3FF"/>
<path fill-rule="evenodd" clip-rule="evenodd" d="M401.7 0H242.2C239.77 0 237.8 1.96995 237.8 4.4V45.1C237.8 47.5301 239.77 49.5 242.2 49.5H401.7C404.13 49.5 406.1 47.5301 406.1 45.1V4.4C406.1 1.96995 404.13 0 401.7 0Z" fill="#A7C3FF"/>
<path fill-rule="evenodd" clip-rule="evenodd" d="M411.6 0H268.6C266.17 0 264.2 1.96995 264.2 4.4V45.1C264.2 47.5301 266.17 49.5 268.6 49.5H411.6C414.03 49.5 416 47.5301 416 45.1V4.4C416 1.96995 414.03 0 411.6 0Z" fill="#C8DAFF"/>
<rect width="4.4" height="4.4" transform="matrix(-1 0 0 1 412.7 33)" fill="#A7C3FF"/>
<rect width="4.4" height="4.4" transform="matrix(-1 0 0 1 412.7 27.5)" fill="#C8DAFF"/>
<path fill-rule="evenodd" clip-rule="evenodd" d="M406.1 44.55C406.1 42.4237 404.376 40.7 402.25 40.7H280.15C278.023 40.7 276.3 42.4237 276.3 44.55C276.3 46.6762 278.023 48.4 280.15 48.4H402.25C404.376 48.4 406.1 46.6762 406.1 44.55Z" fill="#A7C3FF"/>
<path fill-rule="evenodd" clip-rule="evenodd" d="M406.1 9.8999H275.2V17.5999H406.1V9.8999Z" fill="#A7C3FF"/>
<path fill-rule="evenodd" clip-rule="evenodd" d="M405 39.6001H274.1L276.3 45.1001H407.2L405 39.6001Z" fill="white"/>
<path fill-rule="evenodd" clip-rule="evenodd" d="M307.1 42.8999H301.6L309.3 52.7999H314.8L307.1 42.8999Z" fill="#A1C0FF"/>
</svg>
