<svg width="676" height="516" viewBox="0 0 676 516" fill="none" xmlns="http://www.w3.org/2000/svg">
<path fill-rule="evenodd" clip-rule="evenodd" d="M6.87988 69.2928C6.87988 67.4742 8.35412 66 10.1727 66H145.177C146.996 66 148.47 67.4742 148.47 69.2928V286.131C148.47 287.95 146.996 289.424 145.177 289.424H10.1727C8.35412 289.424 6.87988 287.95 6.87988 286.131L6.87988 69.2928Z" fill="#C8DAFF"/>
<path fill-rule="evenodd" clip-rule="evenodd" d="M137.147 153.563L16.1201 287.609V265.323L137.147 137.871V153.563Z" fill="#D8E5FF"/>
<path fill-rule="evenodd" clip-rule="evenodd" d="M137.147 122.517L16.1201 249.909V183.272L137.147 73.5601V122.517Z" fill="#D8E5FF"/>
<path fill-rule="evenodd" clip-rule="evenodd" d="M138.589 66C140.407 66 141.881 67.4742 141.881 69.2928V286.131C141.881 287.95 140.407 289.424 138.589 289.424H131.817L131.818 191.525C131.818 189.769 130.443 188.334 128.712 188.237L128.525 188.232H11.8158C10.06 188.232 8.6251 189.606 8.52823 191.338L8.52302 191.525L8.52202 289.424H3.58382C1.76525 289.424 0.291016 287.95 0.291016 286.131V69.2928C0.291016 67.4742 1.76525 66 3.58382 66H138.589ZM128.525 74.232H11.8158C10.06 74.232 8.6251 75.6063 8.52823 77.3379L8.52302 77.5248V167.431C8.52302 169.187 9.89733 170.622 11.629 170.719L11.8158 170.724H128.525C130.281 170.724 131.716 169.35 131.813 167.618L131.818 167.431V77.5248C131.818 75.7689 130.443 74.3341 128.712 74.2372L128.525 74.232Z" fill="#9AB9FA"/>
<path fill-rule="evenodd" clip-rule="evenodd" d="M146.589 66C148.407 66 149.881 67.4742 149.881 69.2928V286.131C149.881 287.95 148.407 289.424 146.589 289.424H139.817L139.818 191.525C139.818 189.769 138.443 188.334 136.712 188.237L136.525 188.232H19.8158C18.06 188.232 16.6251 189.606 16.5282 191.338L16.523 191.525L16.522 289.424H11.5838C9.76525 289.424 8.29102 287.95 8.29102 286.131V69.2928C8.29102 67.4742 9.76525 66 11.5838 66H146.589ZM136.525 74.232H19.8158C18.06 74.232 16.6251 75.6063 16.5282 77.3379L16.523 77.5248V167.431C16.523 169.187 17.8973 170.622 19.629 170.719L19.8158 170.724H136.525C138.281 170.724 139.716 169.35 139.813 167.618L139.818 167.431V77.5248C139.818 75.7689 138.443 74.3341 136.712 74.2372L136.525 74.232Z" fill="#A7C3FF"/>
<path fill-rule="evenodd" clip-rule="evenodd" d="M9.3999 272.12H156.96V289.76H9.3999V272.12Z" fill="#A7C3FF"/>
<path fill-rule="evenodd" clip-rule="evenodd" d="M6.87988 272.12H13.5199V289.76H6.87988V272.12Z" fill="#9AB9FA"/>
<rect x="376.41" y="4.41016" width="151.2" height="183.96" rx="8.19" fill="#D5E4FF"/>
<rect x="372.315" y="0.315" width="150.57" height="183.33" rx="7.875" fill="white" stroke="#D2E0FF" stroke-width="0.63"/>
<path fill-rule="evenodd" clip-rule="evenodd" d="M511.104 15.5611C511.974 15.5611 512.679 14.856 512.679 13.9861C512.679 13.1163 511.974 12.4111 511.104 12.4111C510.234 12.4111 509.529 13.1163 509.529 13.9861C509.529 14.856 510.234 15.5611 511.104 15.5611Z" fill="#95B2EE"/>
<path fill-rule="evenodd" clip-rule="evenodd" d="M505.434 15.5611C506.304 15.5611 507.009 14.856 507.009 13.9861C507.009 13.1163 506.304 12.4111 505.434 12.4111C504.564 12.4111 503.859 13.1163 503.859 13.9861C503.859 14.856 504.564 15.5611 505.434 15.5611Z" fill="#95B2EE"/>
<path fill-rule="evenodd" clip-rule="evenodd" d="M499.764 15.5611C500.634 15.5611 501.339 14.856 501.339 13.9861C501.339 13.1163 500.634 12.4111 499.764 12.4111C498.894 12.4111 498.189 13.1163 498.189 13.9861C498.189 14.856 498.894 15.5611 499.764 15.5611Z" fill="#95B2EE"/>
<path d="M414.584 11.9702C415.802 11.9702 416.789 12.9574 416.789 14.1752C416.789 15.3524 415.867 16.3141 414.705 16.377L414.584 16.3802H386.175C384.957 16.3802 383.97 15.393 383.97 14.1752C383.97 12.998 384.893 12.0363 386.054 11.9735L386.175 11.9702H414.584Z" fill="#A7C3FF"/>
<path d="M422.4 127.89C423.792 127.89 424.92 126.762 424.92 125.37C424.92 123.978 423.792 122.85 422.4 122.85C421.008 122.85 419.88 123.978 419.88 125.37C419.88 126.762 421.008 127.89 422.4 127.89Z" fill="#1075F0"/>
<path fill-rule="evenodd" clip-rule="evenodd" d="M422.4 140.49C423.792 140.49 424.92 139.362 424.92 137.97C424.92 136.578 423.792 135.45 422.4 135.45C421.008 135.45 419.88 136.578 419.88 137.97C419.88 139.362 421.008 140.49 422.4 140.49Z" fill="#FF5D8E"/>
<path d="M422.4 153.09C423.792 153.09 424.92 151.962 424.92 150.57C424.92 149.179 423.792 148.05 422.4 148.05C421.008 148.05 419.88 149.179 419.88 150.57C419.88 151.962 421.008 153.09 422.4 153.09Z" fill="#FFBF29"/>
<path d="M454.288 124.268C454.897 124.268 455.391 124.761 455.391 125.37C455.391 125.949 454.946 126.423 454.379 126.469L454.288 126.473H432.202C431.593 126.473 431.099 125.979 431.099 125.37C431.099 124.792 431.545 124.317 432.111 124.271L432.202 124.268H454.288Z" fill="#A7C3FF"/>
<path d="M449.878 136.868C450.487 136.868 450.981 137.361 450.981 137.97C450.981 138.549 450.536 139.023 449.969 139.069L449.878 139.073H432.202C431.593 139.073 431.099 138.579 431.099 137.97C431.099 137.392 431.545 136.917 432.111 136.871L432.202 136.868H449.878Z" fill="#A7C3FF"/>
<path d="M462.478 149.468C463.087 149.468 463.581 149.961 463.581 150.57C463.581 151.149 463.135 151.623 462.569 151.669L462.478 151.673H432.202C431.593 151.673 431.099 151.179 431.099 150.57C431.099 149.992 431.545 149.517 432.111 149.471L432.202 149.468H462.478Z" fill="#A7C3FF"/>
<path fill-rule="evenodd" clip-rule="evenodd" d="M422.4 165.69C423.792 165.69 424.92 164.562 424.92 163.17C424.92 161.778 423.792 160.65 422.4 160.65C421.008 160.65 419.88 161.778 419.88 163.17C419.88 164.562 421.008 165.69 422.4 165.69Z" fill="#40B955"/>
<path d="M475.078 162.067C475.687 162.067 476.181 162.561 476.181 163.17C476.181 163.748 475.736 164.223 475.169 164.269L475.078 164.272H432.202C431.593 164.272 431.099 163.779 431.099 163.17C431.099 162.591 431.545 162.117 432.111 162.071L432.202 162.067H475.078Z" fill="#A7C3FF"/>
<path fill-rule="evenodd" clip-rule="evenodd" d="M447.701 44.1001C465.154 44.1001 479.302 58.2483 479.302 75.7009C479.302 93.1535 465.154 107.302 447.701 107.302C430.248 107.302 416.1 93.1535 416.1 75.7009C416.1 58.2483 430.248 44.1001 447.701 44.1001ZM447.915 61.1101C439.739 61.1101 433.11 67.7385 433.11 75.9151C433.11 84.0917 439.739 90.7201 447.915 90.7201C456.092 90.7201 462.72 84.0917 462.72 75.9151C462.72 67.7385 456.092 61.1101 447.915 61.1101Z" fill="#DEE9FF"/>
<path fill-rule="evenodd" clip-rule="evenodd" d="M447.915 90.7203C450.775 90.7203 453.446 89.9094 455.709 88.505L464.396 102.537C459.552 105.557 453.83 107.302 447.701 107.302C433.354 107.302 421.24 97.7407 417.383 84.6424L433.676 79.9849C435.444 86.1827 441.15 90.7203 447.915 90.7203Z" fill="#40B955"/>
<path d="M419.734 60.9741L434.854 68.9371C433.741 71.0161 433.11 73.3919 433.11 75.9151C433.11 77.9725 433.53 79.9318 434.288 81.7123L418.857 88.6297C417.086 84.6832 416.1 80.3071 416.1 75.7009C416.1 70.5798 417.318 65.7433 419.481 61.4653L419.734 60.9741Z" fill="#FFBF29"/>
<path fill-rule="evenodd" clip-rule="evenodd" d="M443.529 44.373L445.778 61.2633C441.033 61.9494 437.016 64.8856 434.845 68.9552L419.712 61.0161C424.311 52.2682 432.891 45.9402 443.044 44.4408L443.529 44.373Z" fill="#FF5D8E"/>
<path d="M447.701 44.1001L447.914 44.1021L447.915 61.1101C444.856 61.1101 442.013 62.0382 439.653 63.6282L429.607 49.7894C434.733 46.2038 440.971 44.1001 447.701 44.1001Z" fill="#1075F0"/>
<path d="M372 28.3379H522.822" stroke="#D2E0FF" stroke-width="0.819"/>
<path fill-rule="evenodd" clip-rule="evenodd" d="M285.855 146.8C309.242 146.8 328.2 165.758 328.2 189.145C328.2 212.532 309.242 231.49 285.855 231.49L166.439 231.49L149.194 240.6L151.136 231.148C130.304 228.491 114.2 210.699 114.2 189.145C114.2 165.758 133.159 146.8 156.545 146.8H285.855Z" fill="#D5E4FF"/>
<path d="M163.817 228.14H163.697L163.603 228.213L148.544 239.886L148.544 228.155L148.543 227.846L148.237 227.808C127.55 225.199 111.55 207.54 111.55 186.145C111.55 162.952 130.352 144.15 153.545 144.15H282.855C306.048 144.15 324.85 162.952 324.85 186.145C324.85 209.338 306.048 228.14 282.855 228.14L163.817 228.14Z" fill="white" stroke="#D2E0FF" stroke-width="0.7"/>
<rect x="435.07" y="334.414" width="46.98" height="16.9128" rx="8.1" fill="#EAEFFF"/>
<path fill-rule="evenodd" clip-rule="evenodd" d="M404 349.35C404 345.324 407.264 342.06 411.29 342.06L508.78 342.06C512.806 342.06 516.07 345.324 516.07 349.35V491.91C516.07 495.936 512.806 499.2 508.78 499.2H411.29C407.264 499.2 404 495.936 404 491.91V349.35Z" fill="#C8DAFF"/>
<path d="M487.5 380C491.09 380 494 377.09 494 373.5C494 369.91 491.09 367 487.5 367C483.91 367 481 369.91 481 373.5C481 377.09 483.91 380 487.5 380Z" fill="#EAEFFF"/>
<rect x="486" y="371" width="13" height="5" rx="2.5" fill="white"/>
<path d="M494 369H502L501.076 380.083C501.033 380.601 500.6 381 500.08 381H495.92C495.4 381 494.967 380.601 494.924 380.083L494 369Z" fill="#EAEFFF"/>
<path fill-rule="evenodd" clip-rule="evenodd" d="M501.851 371L501.34 377H494.666L494.166 371H501.851Z" fill="#FF9999"/>
<path d="M497 367C497 366.448 497.448 366 498 366C498.552 366 499 366.448 499 367V369H497V367Z" fill="#EAEFFF"/>
<rect x="493" y="368" width="10" height="2" fill="white"/>
<path fill-rule="evenodd" clip-rule="evenodd" d="M498 359C496.895 359 496 359.895 496 361V367.183L497 367.183V365H499V367.183L500 367.183V361C500 359.895 499.105 359 498 359Z" fill="white"/>
<path fill-rule="evenodd" clip-rule="evenodd" d="M498 362C497.448 362 497 361.552 497 361C497 360.448 497.448 360 498 360C498.552 360 499 360.448 499 361C499 361.552 498.552 362 498 362Z" fill="#FF9999"/>
<path d="M457.5 380C461.09 380 464 377.09 464 373.5C464 369.91 461.09 367 457.5 367C453.91 367 451 369.91 451 373.5C451 377.09 453.91 380 457.5 380Z" fill="#EAEFFF"/>
<rect x="456" y="371" width="13" height="5" rx="2.5" fill="white"/>
<path d="M464 369H472L471.076 380.083C471.033 380.601 470.6 381 470.08 381H465.92C465.4 381 464.967 380.601 464.924 380.083L464 369Z" fill="#EAEFFF"/>
<path fill-rule="evenodd" clip-rule="evenodd" d="M471.851 371L471.34 377H464.666L464.166 371H471.851Z" fill="#A1C0FF"/>
<path d="M467 367C467 366.448 467.448 366 468 366C468.552 366 469 366.448 469 367V369H467V367Z" fill="#EAEFFF"/>
<rect x="463" y="368" width="10" height="2" fill="white"/>
<path fill-rule="evenodd" clip-rule="evenodd" d="M468 359C466.895 359 466 359.895 466 361V367.183L467 367.183V365H469V367.183L470 367.183V361C470 359.895 469.105 359 468 359Z" fill="white"/>
<path fill-rule="evenodd" clip-rule="evenodd" d="M468 362C467.448 362 467 361.552 467 361C467 360.448 467.448 360 468 360C468.552 360 469 360.448 469 361C469 361.552 468.552 362 468 362Z" fill="#A1C0FF"/>
<path fill-rule="evenodd" clip-rule="evenodd" d="M402 346.92C402 344.236 404.176 342.06 406.86 342.06H437.5V499.2H406.86C404.176 499.2 402 497.024 402 494.34V346.92Z" fill="#A7C3FF"/>
<path opacity="0.551177" d="M435.07 240H480.43C488.035 240 494.2 246.165 494.2 253.77V322.62C494.2 330.225 488.035 336.39 480.43 336.39H435.07C427.465 336.39 421.3 330.225 421.3 322.62V253.77C421.3 246.165 427.465 240 435.07 240Z" fill="#CEEFFF"/>
<path d="M421.3 284.39H494.2V322.62C494.2 330.225 488.035 336.39 480.43 336.39H435.07C427.465 336.39 421.3 330.225 421.3 322.62V284.39Z" fill="#95B2EE"/>
<path opacity="0.551177" d="M420 274C420 273.448 420.448 273 421 273H458H495C495.552 273 496 273.448 496 274C496 274.552 495.552 275 495 275H458H421C420.448 275 420 274.552 420 274Z" fill="#99D7F5"/>
<path opacity="0.551177" d="M420 305C420 304.448 420.448 304 421 304H458H495C495.552 304 496 304.448 496 305C496 305.552 495.552 306 495 306H458H421C420.448 306 420 305.552 420 305Z" fill="#99D7F5"/>
<path d="M448.51 393.13H507.49V406.9H448.51V393.13Z" fill="#EAEFFF"/>
<path fill-rule="evenodd" clip-rule="evenodd" d="M450.51 393.13H441.6V406.9H450.51V393.13Z" fill="#A7C3FF"/>
<path fill-rule="evenodd" clip-rule="evenodd" d="M556.613 481.532H542.983L548.253 397.078L568.677 295.992H609.937L572.187 397.078C572.187 397.078 572.709 415.551 570.431 427.639C568.153 439.727 556.613 481.532 556.613 481.532Z" fill="#5D3B2A"/>
<path fill-rule="evenodd" clip-rule="evenodd" d="M558.264 480.21C558.459 480.213 558.593 480.399 558.544 480.587C558.237 481.767 557.364 485.496 557.946 487.775C558.645 490.509 561.171 498.847 560.018 500.98C558.865 503.113 559.014 504.1 559.014 504.1L542.996 505.396C542.996 505.396 536.324 507.955 530.065 507.247C523.806 506.538 517.727 504.1 517.727 504.1C517.727 504.1 517.038 498.58 518.777 497.639C520.515 496.698 522.693 497.639 526.407 497.639C530.121 497.639 530.72 497.426 530.72 497.426C530.72 497.426 531.14 496.027 531.53 495.587C531.92 495.147 536.422 492.685 538.923 489.884C541.425 487.083 541.092 480.545 541.425 480.217C541.728 479.918 555.759 480.164 558.264 480.21Z" fill="#283845"/>
<path fill-rule="evenodd" clip-rule="evenodd" d="M559.986 502.307C559.986 502.307 560.108 506.205 559.253 506.803C558.398 507.4 548.345 507.829 548.345 507.829V505.811C548.345 505.811 544.265 505.717 542.441 506.426C540.618 507.135 537.122 508.564 531.446 508.196C525.769 507.829 516.404 504.265 516.404 504.265L517.045 502.605C517.045 502.605 525.747 505.811 531.446 505.811C537.144 505.811 544.635 503.822 547.463 503.527C550.292 503.232 559.986 502.307 559.986 502.307Z" fill="#1C2731"/>
<path fill-rule="evenodd" clip-rule="evenodd" d="M626.532 295.992L631.152 394.438C631.152 394.438 637.38 402.416 642.794 416.07C646.092 424.387 651.781 442.907 659.123 471.632C659.817 474.348 646.86 479.684 646.86 479.684L605.605 396.893L584.679 295.992H626.532Z" fill="#81533C"/>
<path fill-rule="evenodd" clip-rule="evenodd" d="M606.224 299.27L617.63 315.389L615.959 299.339L606.224 299.27Z" fill="#5D3B2A"/>
<path d="M616.027 296.362L625.516 395.319C625.52 395.355 625.528 395.39 625.542 395.423L657.538 474.073" stroke="#5D3B2A" stroke-width="0.5544"/>
<path fill-rule="evenodd" clip-rule="evenodd" d="M659.85 470.884C660.028 470.805 660.229 470.916 660.264 471.107C660.484 472.306 661.268 476.055 662.759 477.874C664.548 480.057 670.361 486.546 670.218 488.967C670.075 491.387 670.626 492.219 670.626 492.219L656.657 500.163C656.657 500.163 651.692 506.41 645.719 508.414C639.747 510.417 633.208 509.298 633.208 509.298C633.208 509.298 630.251 504.586 631.429 502.998C632.606 501.411 642.163 499.236 642.163 499.236C642.163 499.236 641.952 496.682 642.119 496.118C642.287 495.555 645.327 491.421 646.41 487.825C647.493 484.229 644.429 478.445 644.592 478.007C644.74 477.608 657.56 471.9 659.85 470.884Z" fill="#354C5D"/>
<path fill-rule="evenodd" clip-rule="evenodd" d="M670.749 490.183C670.749 490.183 672.507 493.664 671.984 494.567C671.462 495.47 662.532 500.107 662.532 500.107L661.679 498.279C661.679 498.279 657.943 499.918 656.589 501.331C655.236 502.744 652.672 506.625 647.372 508.691C642.072 510.757 632.078 510.006 632.078 510.006L631.957 508.231C631.957 508.231 641.199 508.937 646.364 506.529C651.528 504.121 657.476 498.044 659.915 496.581C662.354 495.118 670.749 490.183 670.749 490.183Z" fill="#283845"/>
<path fill-rule="evenodd" clip-rule="evenodd" d="M561.349 233.635L552.96 250.018L522.193 220.447C522.069 220.328 521.991 220.169 521.971 219.998L520.7 208.902C520.7 208.902 513.385 197.138 512.188 201.421C511.741 203.021 515.528 204.899 514.802 210.127C514.667 211.097 506.839 205.806 503.479 203.487C502.931 203.108 502.197 203.588 502.323 204.242L504.692 216.462C504.724 216.629 504.813 216.779 504.944 216.888L516.138 226.243L544.68 265.209C549.115 271.263 558.318 270.732 562.026 264.207L575.555 240.403L561.349 233.635Z" fill="#E09282"/>
<path d="M509.496 192.941C509.021 191.703 507.633 191.085 506.395 191.56L495.192 195.861C493.955 196.336 493.337 197.724 493.812 198.961L504.133 225.848C504.608 227.086 505.996 227.704 507.233 227.229L518.436 222.929C519.674 222.454 520.292 221.065 519.817 219.828L509.496 192.941Z" fill="#1075F0"/>
<rect width="16.8" height="33.6" rx="2.4" transform="matrix(-0.93358 0.358368 0.358368 0.93358 507.296 190.742)" fill="#467FFF"/>
<path d="M507.381 194.306C506.953 193.193 505.704 192.638 504.591 193.065L503.437 193.508C503.328 193.55 503.274 193.672 503.316 193.781C503.483 194.217 503.265 194.707 502.829 194.874L497.685 196.849C497.249 197.016 496.76 196.798 496.593 196.362C496.551 196.253 496.428 196.199 496.319 196.24L495.181 196.677C494.066 197.105 493.51 198.356 493.939 199.47L503.623 224.631C504.051 225.743 505.3 226.298 506.413 225.871L515.823 222.259C516.938 221.831 517.494 220.58 517.065 219.466L507.381 194.306Z" fill="#EAEFFF"/>
<path fill-rule="evenodd" clip-rule="evenodd" d="M567.278 212.801C569.593 208.01 575.36 206.013 580.142 208.345L581.838 209.172C586.835 211.61 588.727 217.767 585.961 222.591L560.757 266.53C557.543 272.132 549.722 272.794 545.613 267.812L517.698 233.964L519.049 232.273L527.631 239.867L522.016 228.558L526.436 223.023L550.662 247.179L567.278 212.801Z" fill="#81533C"/>
<path fill-rule="evenodd" clip-rule="evenodd" d="M569.906 226.8L561.405 265.451L568.99 252.233L569.906 226.8Z" fill="#080708" fill-opacity="0.340226"/>
<path fill-rule="evenodd" clip-rule="evenodd" d="M630.484 214.636C630.602 210.402 627.45 206.787 623.24 206.327L596.874 203.446L576.937 206.234C573.149 206.764 570.242 209.862 569.955 213.676L563.425 300.281H628.105L630.484 214.636Z" fill="#E3E9FF"/>
<path fill-rule="evenodd" clip-rule="evenodd" d="M607.685 204.627L607.028 204.635L605.282 209.86C600.478 224.311 597.511 233.847 596.382 238.467L595.758 241.181C594.899 244.998 593.32 252.856 594.255 259.489L594.387 260.382C595.217 265.738 597.181 274.544 600.279 286.798L630.323 284.388L630.657 214.468C630.677 210.304 627.548 206.798 623.409 206.346L607.685 204.627ZM585.039 205.101L576.776 206.257C573.062 206.776 570.185 209.769 569.812 213.501L562.686 284.758L573.944 286.196L574.466 284.659C578.223 273.492 580.429 264.66 581.083 258.163C581.701 252.035 581.026 242.367 581.517 236.655L581.863 232.713C582.965 220.419 584.024 211.215 585.039 205.101Z" fill="#81533C"/>
<path fill-rule="evenodd" clip-rule="evenodd" d="M584.705 205.068C578.455 211.155 576.155 215.637 575.416 222.365C574.678 229.092 581.064 258.165 581.064 258.165C581.064 258.165 584.546 229.857 585.433 221.69C586.32 213.523 586.844 204.741 586.844 204.741L584.705 205.068Z" fill="#BA6136"/>
<path fill-rule="evenodd" clip-rule="evenodd" d="M607.315 204.627C606.437 205.13 601.439 216.517 598.02 228.77C594.87 240.057 593.18 252.637 593.91 255.758C593.91 255.758 608.581 228.644 610.522 220.688L610.581 220.443C612.492 212.392 611.196 207.145 607.43 204.701L607.315 204.627Z" fill="#BA6136"/>
<path fill-rule="evenodd" clip-rule="evenodd" d="M616.295 226.43L630.539 273.162V245.457L616.295 226.43Z" fill="#080708" fill-opacity="0.340226"/>
<path fill-rule="evenodd" clip-rule="evenodd" d="M630.529 244.527L638.47 259.075C638.47 259.075 573.845 237.385 573.251 238.373C572.268 240.006 578.335 242.972 579.914 244.929C581.493 246.886 579.914 252.417 581.636 254.484C582.387 255.386 590.245 255.396 592.861 255.396C593.963 255.396 606.409 260.39 625.473 270.174C626.911 270.912 631.229 272.732 636.572 274.919C647.642 279.45 658.451 268.083 653.493 257.197L644.084 236.534L630.529 244.527Z" fill="#E09282"/>
<path fill-rule="evenodd" clip-rule="evenodd" d="M632.314 212.258C629.872 207.141 623.553 205.241 618.693 208.161L617.089 209.125C612.624 211.807 611.109 217.558 613.673 222.092L632.387 255.189L598.993 244.765L597.857 253.508L609.067 261.243L597.261 258.094L597.059 259.652L637.741 275.574C648.666 279.85 659.183 268.543 654.129 257.955L632.314 212.258Z" fill="#81533C"/>
<path fill-rule="evenodd" clip-rule="evenodd" d="M594.312 244.641C594.312 244.641 589.287 234.495 587.503 234.616C585.719 234.737 589.023 244.369 589.023 244.369L594.312 244.641Z" fill="#E09282"/>
<path d="M630.909 254.826L599.292 244.866" stroke="#090909" stroke-opacity="0.200748" stroke-width="0.924" stroke-linecap="round"/>
<path d="M630.909 272.849L597.09 259.567" stroke="#090909" stroke-opacity="0.200748" stroke-width="0.924" stroke-linecap="round"/>
<path fill-rule="evenodd" clip-rule="evenodd" d="M596.905 192.874C589.965 192.874 584.339 187.247 584.339 180.307C584.339 173.367 589.965 167.741 596.905 167.741C603.846 167.741 609.472 173.367 609.472 180.307C609.472 187.247 603.846 192.874 596.905 192.874Z" fill="#321111"/>
<path fill-rule="evenodd" clip-rule="evenodd" d="M602.634 180.307C597.225 180.307 592.84 175.922 592.84 170.513C592.84 165.103 597.225 160.718 602.634 160.718C608.044 160.718 612.429 165.103 612.429 170.513C612.429 175.922 608.044 180.307 602.634 180.307Z" fill="#321111"/>
<path fill-rule="evenodd" clip-rule="evenodd" d="M587.665 170.698C581.95 170.698 577.317 166.064 577.317 160.349C577.317 154.633 581.95 150 587.665 150C593.381 150 598.014 154.633 598.014 160.349C598.014 166.064 593.381 170.698 587.665 170.698Z" fill="#321111"/>
<path fill-rule="evenodd" clip-rule="evenodd" d="M597.829 167.741C594.257 167.741 591.361 164.845 591.361 161.273C591.361 157.701 594.257 154.805 597.829 154.805C601.402 154.805 604.297 157.701 604.297 161.273C604.297 164.845 601.402 167.741 597.829 167.741Z" fill="#321111"/>
<path fill-rule="evenodd" clip-rule="evenodd" d="M576.208 170.328C571.105 170.328 566.968 166.191 566.968 161.088C566.968 155.985 571.105 151.848 576.208 151.848C581.311 151.848 585.448 155.985 585.448 161.088C585.448 166.191 581.311 170.328 576.208 170.328Z" fill="#321111"/>
<path fill-rule="evenodd" clip-rule="evenodd" d="M578.795 183.634C573.692 183.634 569.555 179.497 569.555 174.394C569.555 169.291 573.692 165.154 578.795 165.154C583.898 165.154 588.035 169.291 588.035 174.394C588.035 179.497 583.898 183.634 578.795 183.634Z" fill="#321111"/>
<path fill-rule="evenodd" clip-rule="evenodd" d="M601.766 204.192C601.766 207.982 598.693 211.053 594.902 211.053C590.802 211.053 587.617 207.482 588.084 203.408L588.686 198.155C588.686 198.155 580.027 198.84 577.095 194.654C574.163 190.467 574.567 168.66 574.567 168.66L601.766 168.66C601.766 168.66 601.766 174.066 601.766 175.94C610.07 175.94 610.07 185.967 601.766 185.967C601.766 191.926 601.766 199.058 601.766 204.192Z" fill="#E09282"/>
<path fill-rule="evenodd" clip-rule="evenodd" d="M596.166 175.133C592.084 175.133 588.774 171.823 588.774 167.741C588.774 163.658 592.084 160.349 596.166 160.349C600.249 160.349 603.558 163.658 603.558 167.741C603.558 171.823 600.249 175.133 596.166 175.133Z" fill="#321111"/>
<path fill-rule="evenodd" clip-rule="evenodd" d="M585.817 172.176C581.735 172.176 578.425 168.867 578.425 164.784C578.425 160.702 581.735 157.392 585.817 157.392C589.9 157.392 593.209 160.702 593.209 164.784C593.209 168.867 589.9 172.176 585.817 172.176Z" fill="#321111"/>
<path fill-rule="evenodd" clip-rule="evenodd" d="M572.881 172.546C568.799 172.546 565.489 169.236 565.489 165.154C565.489 161.071 568.799 157.762 572.881 157.762C576.964 157.762 580.273 161.071 580.273 165.154C580.273 169.236 576.964 172.546 572.881 172.546Z" fill="#321111"/>
<path d="M602.08 166.262H598.014V180.122C598.014 181.245 598.925 182.155 600.047 182.155C601.17 182.155 602.08 181.245 602.08 180.122V166.262Z" fill="#321111"/>
<path fill-rule="evenodd" clip-rule="evenodd" d="M588.583 198.171C588.583 198.171 591.153 197.825 593.132 197.201C595.11 196.577 597.613 195.317 597.613 195.317C597.613 195.317 594.217 198.617 592.431 200.035C590.646 201.454 588.155 202.83 588.155 202.83L588.583 198.171Z" fill="#B9726B"/>
<path fill-rule="evenodd" clip-rule="evenodd" d="M579.125 177.063L575.409 184.351C575.302 184.561 575.415 184.815 575.642 184.876L579.125 185.813V177.063Z" fill="#B9726B"/>
<path fill-rule="evenodd" clip-rule="evenodd" d="M224.491 334.552L214.229 336.773V418.731L224.491 416.51V334.552Z" fill="#A7C3FF"/>
<path fill-rule="evenodd" clip-rule="evenodd" d="M18.2227 426.02V499.403H28.7227V426.02H18.2227Z" fill="#A7C3FF"/>
<path fill-rule="evenodd" clip-rule="evenodd" d="M91.3022 426.02V499.403H101.802V426.02H91.3022Z" fill="#A7C3FF"/>
<path fill-rule="evenodd" clip-rule="evenodd" d="M296.263 426.02V499.403H306.763V426.02H296.263Z" fill="#A7C3FF"/>
<path fill-rule="evenodd" clip-rule="evenodd" d="M223.183 426.02V499.403H233.683V426.02H223.183Z" fill="#A7C3FF"/>
<path fill-rule="evenodd" clip-rule="evenodd" d="M56.3999 418.46C56.3999 411.269 62.2292 405.44 69.4199 405.44H306.3C313.491 405.44 319.32 411.269 319.32 418.46C319.32 425.651 313.491 431.48 306.3 431.48H69.4199C62.2292 431.48 56.3999 425.651 56.3999 418.46Z" fill="#C8DAFF"/>
<path fill-rule="evenodd" clip-rule="evenodd" d="M46.9512 334.552L57.2136 336.773V418.731L46.9512 416.51V334.552Z" fill="#A7C3FF"/>
<path fill-rule="evenodd" clip-rule="evenodd" d="M6 418.46C6 411.269 11.8293 405.44 19.02 405.44H95.46C102.651 405.44 108.48 411.269 108.48 418.46C108.48 425.651 102.651 431.48 95.46 431.48H19.02C11.8293 431.48 6 425.651 6 418.46Z" fill="#A7C3FF"/>
<path fill-rule="evenodd" clip-rule="evenodd" d="M9.42602 322.924C9.53323 314.651 16.2706 308 24.5448 308L239.52 308C247.871 308 254.64 314.769 254.64 323.12V377.72C254.64 386.071 247.871 392.84 239.52 392.84H23.8372C15.41 392.84 8.6093 385.951 8.71849 377.524L9.42602 322.924Z" fill="#C8DAFF"/>
<path fill-rule="evenodd" clip-rule="evenodd" d="M8.52002 321.02C8.52002 313.829 14.3493 308 21.54 308C28.7308 308 34.56 313.829 34.56 321.02V379.82C34.56 387.011 28.7308 392.84 21.54 392.84C14.3493 392.84 8.52002 387.011 8.52002 379.82L8.52002 321.02Z" fill="#A7C3FF"/>
<path fill-rule="evenodd" clip-rule="evenodd" d="M127.749 466.696H141.055L134.032 488.872H121.835L127.749 466.696Z" fill="#616988"/>
<path fill-rule="evenodd" clip-rule="evenodd" d="M121.094 500.366L130.138 500.998L131.077 498.163C131.077 498.163 140.669 501.752 148.444 502.296C156.219 502.84 161.548 499.411 161.548 499.411C161.377 497.49 159.883 495.953 157.968 495.726L148.537 494.612L135.371 484.321C135.371 484.321 133.006 488.59 128.434 488.271C123.863 487.951 121.001 485.801 121.001 485.801L120.246 496.599L121.094 500.366Z" fill="#1F1E1E"/>
<path fill-rule="evenodd" clip-rule="evenodd" d="M87.6333 371.29C87.6333 371.29 92.6303 404.336 111.937 404.336C131.244 404.336 147.183 404.336 147.183 404.336C147.183 404.336 144.109 411.672 139.835 422.35C135.562 433.028 123.983 477.796 123.983 477.796H140.783L178.683 400.331C184.183 389.088 176.627 375.839 164.15 374.849L119.295 371.29V366.534H87.6333V371.29Z" fill="#2E2B2B"/>
<path fill-rule="evenodd" clip-rule="evenodd" d="M173.209 467.066H186.515L192.798 489.242H180.601L173.209 467.066Z" fill="#616988"/>
<path fill-rule="evenodd" clip-rule="evenodd" d="M178.752 501.105L187.795 501.737L188.735 498.902C188.735 498.902 198.327 502.492 206.102 503.035C213.877 503.579 219.205 500.15 219.205 500.15C219.035 498.23 217.541 496.692 215.626 496.466L206.195 495.351L193.029 485.06C193.029 485.06 190.663 489.33 186.092 489.01C181.52 488.69 178.659 486.54 178.659 486.54L177.904 497.338L178.752 501.105Z" fill="#2E2C2C"/>
<path fill-rule="evenodd" clip-rule="evenodd" d="M63.8081 371.343C63.8081 371.343 63.8081 408.085 91.0686 408.085C110.375 408.085 149.23 408.085 149.23 408.085C149.23 408.085 150.646 418.979 154.449 428.559C158.252 438.138 175.556 478.219 175.556 478.219H191.617L172.121 396.322C170.38 389.006 164.604 383.333 157.258 381.724L109.884 371.343V366.588H63.8081V371.343Z" fill="#454141"/>
<path fill-rule="evenodd" clip-rule="evenodd" d="M88.327 371.324L79.9606 386.394L78.5923 371.023L88.327 371.324Z" fill="#6B6B6B"/>
<path d="M78.8037 366.588L79.8066 384.741C80.2828 393.361 87.4113 400.107 96.0442 400.107H151.594C154.348 400.107 156.782 401.901 157.596 404.532L180.401 478.219" stroke="#6B6B6B" stroke-width="0.5544"/>
<path fill-rule="evenodd" clip-rule="evenodd" d="M133.281 309.721L141.671 326.104L172.437 296.533C172.561 296.414 172.64 296.255 172.659 296.084L173.93 284.988C173.93 284.988 181.245 273.224 182.442 277.507C182.889 279.107 179.102 280.985 179.828 286.213C179.963 287.183 187.791 281.892 191.151 279.572C191.699 279.194 192.434 279.674 192.307 280.328L189.938 292.548C189.906 292.715 189.817 292.865 189.687 292.974L178.492 302.329L149.95 341.295C145.515 347.349 136.313 346.817 132.604 340.293L119.075 316.489L133.281 309.721Z" fill="#FFC4A7"/>
<path d="M186.206 266.315C186.671 265.036 188.085 264.377 189.364 264.842L213.721 273.707C214.999 274.173 215.659 275.587 215.193 276.866L202.344 312.168C201.879 313.447 200.465 314.106 199.186 313.641L174.829 304.775C173.55 304.31 172.891 302.896 173.357 301.617L186.206 266.315Z" fill="#1075F0"/>
<path d="M186.684 267.34C187.149 266.062 188.563 265.402 189.842 265.868L214.199 274.733C215.477 275.198 216.137 276.612 215.671 277.891L202.822 313.193C202.357 314.472 200.943 315.131 199.664 314.666L175.307 305.801C174.029 305.335 173.369 303.921 173.835 302.643L186.684 267.34Z" fill="#467FFF"/>
<path d="M187.38 268.21C187.799 267.059 189.072 266.466 190.223 266.885L213.118 275.218C214.269 275.637 214.862 276.91 214.443 278.061L202.827 309.977C202.408 311.128 201.135 311.721 199.984 311.302L177.089 302.969C175.938 302.55 175.345 301.278 175.764 300.127L187.38 268.21Z" fill="#EAEFFF"/>
<path fill-rule="evenodd" clip-rule="evenodd" d="M127.319 288.982C125.027 284.15 119.231 282.118 114.424 284.463L112.77 285.27C107.78 287.703 105.885 293.846 108.635 298.668L133.136 341.631C136.127 346.876 143.263 347.889 147.596 343.685L155.14 336.366L147.704 318.722L143.229 322.526L127.319 288.982Z" fill="#E3E9FF"/>
<path fill-rule="evenodd" clip-rule="evenodd" d="M66.8945 290.792C66.8945 286.685 69.9583 283.222 74.0355 282.722L97.0169 279.902L113.495 282.581C117.171 283.179 119.971 286.198 120.291 289.909L127.139 369.345H66.8945V290.792Z" fill="#E3E9FF"/>
<path fill-rule="evenodd" clip-rule="evenodd" d="M96.9856 299.56L98.366 302.348C101.142 307.98 104.008 313.935 106.965 320.214L107.318 318.233C109.3 306.988 110.291 299.19 110.291 294.838C110.291 290.947 109.851 286.527 108.971 281.575L116.726 282.658C120.616 283.202 123.561 286.45 123.724 290.375L127.14 373.041H63.1987V290.889C63.1987 286.74 66.3223 283.256 70.4465 282.806L85.9053 281.118C90.5209 287.837 94.2143 293.985 96.9856 299.56Z" fill="#544F4F"/>
<path fill-rule="evenodd" clip-rule="evenodd" d="M77.5958 302.886L63.3521 349.618V321.913L77.5958 302.886Z" fill="#080708" fill-opacity="0.340226"/>
<path fill-rule="evenodd" clip-rule="evenodd" d="M64.1016 320.613L56.16 335.162C56.16 335.162 120.785 313.472 121.379 314.459C122.362 316.093 116.295 319.058 114.716 321.015C113.137 322.972 114.716 328.503 112.995 330.57C112.243 331.472 104.386 331.483 101.77 331.483C100.667 331.483 88.2217 336.846 69.1578 346.63C67.7084 347.373 63.2358 349.301 57.6977 351.629C46.5533 356.315 35.5732 344.805 40.6726 333.844L50.5463 312.621L64.1016 320.613Z" fill="#FFC4A7"/>
<path fill-rule="evenodd" clip-rule="evenodd" d="M62.2986 288.295C64.7534 283.199 71.057 281.315 75.9055 284.228L77.5417 285.211C82.0061 287.894 83.5209 293.644 80.9574 298.178L62.2433 331.275L65.0666 331.275L65.0666 348.91L56.1606 352.117C45.2637 356.042 35.0967 344.768 40.1229 334.333L62.2986 288.295Z" fill="#E3E9FF"/>
<path fill-rule="evenodd" clip-rule="evenodd" d="M100.319 320.727C100.319 320.727 105.343 310.582 107.127 310.702C108.911 310.823 105.607 320.455 105.607 320.455L100.319 320.727Z" fill="#FFC4A7"/>
<path fill-rule="evenodd" clip-rule="evenodd" d="M91.3866 281.051C91.3866 284.841 94.4594 287.912 98.2499 287.912C102.35 287.912 105.536 284.341 105.069 280.267L104.466 275.014C104.466 275.014 113.125 275.7 116.057 271.513C118.99 267.326 118.585 241.823 118.585 241.823L91.3866 241.823C91.3866 241.823 91.3866 250.925 91.3866 252.8C83.0827 252.8 83.0827 262.826 91.3866 262.826C91.3866 268.785 91.3866 275.917 91.3866 281.051Z" fill="#FFC4A7"/>
<path fill-rule="evenodd" clip-rule="evenodd" d="M104.168 271.814C104.168 271.814 101.598 271.467 99.6193 270.843C97.6407 270.22 95.1377 268.96 95.1377 268.96C95.1377 268.96 98.5341 272.26 100.32 273.678C102.105 275.096 104.596 276.473 104.596 276.473L104.168 271.814Z" fill="#F19B93"/>
<path fill-rule="evenodd" clip-rule="evenodd" d="M106.965 265.298L113.698 264.214C113.8 264.197 113.904 264.203 114.004 264.229L117.736 265.214C117.917 265.262 118.034 265.437 118.008 265.622L117.913 266.306C117.863 266.672 117.55 266.941 117.184 266.898C116.386 266.805 114.986 266.523 113.834 265.667C111.422 266.944 107.333 266.944 107.333 266.944L106.965 265.298Z" fill="#0A2650"/>
<path fill-rule="evenodd" clip-rule="evenodd" d="M94.6787 251.771L95.058 258.242C95.3099 262.54 99.0107 265.811 103.306 265.534L106.965 265.298L109.728 271.623C109.846 271.893 110.112 272.067 110.406 272.067H114.917C115.241 272.067 115.528 271.856 115.623 271.546L117.442 265.667H117.825L116.754 273.895C116.491 275.92 114.765 277.436 112.723 277.436H110.771C110.211 277.436 109.657 277.32 109.143 277.096L97.4683 271.995C95.6256 271.189 94.3634 269.45 94.1697 267.448L92.4961 250.153L94.6787 251.771Z" fill="#0A2650"/>
<path fill-rule="evenodd" clip-rule="evenodd" d="M112.916 254.845L112.916 262.033H116.985C117.24 262.033 117.417 261.784 117.327 261.546C116.95 260.554 116.037 258.303 115.125 257.247C113.937 255.87 112.916 254.845 112.916 254.845Z" fill="#F19B93"/>
<path fill-rule="evenodd" clip-rule="evenodd" d="M84.021 243.333C84.021 242.271 96.0202 232.584 101.896 232.034C106.664 231.588 113.337 235.656 116.325 235.656C119.966 235.656 122.755 233.279 122.755 233.279C122.755 233.279 126.922 241.201 124.706 244.336C122.49 247.471 118.267 249.84 114.937 249.045C111.336 248.185 105.565 245.366 101.896 245.366C95.0832 245.366 94.7162 252.794 94.7162 252.794C94.7162 252.794 93.1508 252.794 91.321 252.794C88.9428 252.794 86.9536 254.097 86.9536 254.097C86.9536 254.097 84.021 244.395 84.021 243.333Z" fill="#0A2650"/>
<path fill-rule="evenodd" clip-rule="evenodd" d="M269.976 209.36C282.216 209.36 292.138 199.438 292.138 187.198C292.138 174.959 282.216 165.037 269.976 165.037C257.737 165.037 247.814 174.959 247.814 187.198C247.814 199.438 257.737 209.36 269.976 209.36Z" fill="#D5E4FF"/>
<path d="M268.162 208.323C280.401 208.323 290.323 198.401 290.323 186.162C290.323 173.922 280.401 164 268.162 164C255.922 164 246 173.922 246 186.162C246 198.401 255.922 208.323 268.162 208.323Z" fill="#FFBF29"/>
<path fill-rule="evenodd" clip-rule="evenodd" d="M249.84 186.08C249.84 176.006 258.006 167.84 268.08 167.84C278.154 167.84 286.32 176.006 286.32 186.08C286.32 196.154 278.154 204.32 268.08 204.32C258.006 204.32 249.84 196.154 249.84 186.08ZM285.04 186.08C285.04 176.713 277.447 169.12 268.08 169.12C258.713 169.12 251.12 176.713 251.12 186.08C251.12 195.447 258.713 203.04 268.08 203.04C277.447 203.04 285.04 195.447 285.04 186.08Z" fill="white"/>
<path fill-rule="evenodd" clip-rule="evenodd" d="M275.398 186.178H275.422C275.792 186.489 276.093 186.879 276.325 187.346C276.556 187.813 276.672 188.312 276.672 188.841C276.672 188.903 276.668 188.958 276.66 189.005C276.653 189.051 276.649 189.098 276.649 189.145C276.633 189.861 276.521 190.554 276.313 191.224C276.105 191.894 275.676 192.455 275.028 192.906H275.074C274.596 193.218 274.079 193.475 273.523 193.677C272.967 193.88 272.381 194.012 271.763 194.074C271.609 194.09 271.412 194.106 271.173 194.121C270.934 194.137 270.675 194.16 270.397 194.191V197.696H268.244V194.238H266.623V197.696H264.47V194.238H260.256L260.696 191.645H261.969C262.185 191.645 262.347 191.629 262.455 191.598C262.564 191.567 262.664 191.512 262.756 191.434C262.834 191.357 262.892 191.267 262.93 191.166C262.969 191.065 262.988 190.959 262.988 190.85V181.832C262.988 181.552 262.969 181.349 262.93 181.225C262.892 181.1 262.81 180.968 262.687 180.828C262.548 180.734 262.39 180.656 262.212 180.594C262.035 180.532 261.853 180.5 261.668 180.5H260.256V178.258H264.47V174.8H266.6V178.258H268.244V174.8H270.374V178.304C271.177 178.351 271.887 178.464 272.504 178.643C273.122 178.822 273.685 179.106 274.194 179.496C274.874 179.994 275.256 180.59 275.341 181.283C275.425 181.976 275.46 182.432 275.445 182.65C275.414 182.961 275.348 183.265 275.248 183.561C275.148 183.857 275.028 184.13 274.889 184.379H274.866C274.696 184.581 274.507 184.768 274.299 184.939C274.09 185.111 273.87 185.267 273.639 185.407H273.662C273.986 185.485 274.295 185.59 274.588 185.722C274.881 185.855 275.151 186.006 275.398 186.178ZM266.6 180.711L266.623 184.869L267.214 184.881C267.607 184.889 268.005 184.885 268.406 184.869C268.807 184.869 269.193 184.823 269.564 184.729C269.934 184.636 270.281 184.503 270.606 184.332C270.883 184.192 271.107 183.985 271.277 183.713C271.447 183.44 271.532 183.14 271.532 182.813V182.673C271.501 182.268 271.354 181.906 271.092 181.587C270.829 181.268 270.498 181.061 270.096 180.968H270.143C269.818 180.874 269.486 180.8 269.147 180.746C268.807 180.691 268.46 180.664 268.105 180.664H267.966C267.626 180.648 267.314 180.652 267.028 180.676L266.6 180.711ZM272.203 190.348C272.003 190.652 271.74 190.882 271.416 191.037C271.061 191.193 270.679 191.322 270.27 191.423C269.861 191.524 269.44 191.59 269.008 191.621H268.985C268.506 191.653 267.993 191.664 267.445 191.656L266.623 191.645V187.042L267.434 187.007C267.974 186.984 268.506 186.995 269.031 187.042C269.463 187.058 269.88 187.112 270.281 187.206C270.683 187.299 271.076 187.432 271.462 187.603L271.416 187.58C271.74 187.735 272.003 187.969 272.203 188.28C272.404 188.592 272.504 188.935 272.504 189.308C272.504 189.698 272.404 190.044 272.203 190.348Z" fill="white"/>
<path fill-rule="evenodd" clip-rule="evenodd" d="M169.976 209.36C182.216 209.36 192.138 199.438 192.138 187.198C192.138 174.959 182.216 165.037 169.976 165.037C157.737 165.037 147.814 174.959 147.814 187.198C147.814 199.438 157.737 209.36 169.976 209.36Z" fill="#D5E4FF"/>
<path d="M168.162 208.323C180.401 208.323 190.323 198.401 190.323 186.162C190.323 173.922 180.401 164 168.162 164C155.922 164 146 173.922 146 186.162C146 198.401 155.922 208.323 168.162 208.323Z" fill="#4ED266"/>
<path fill-rule="evenodd" clip-rule="evenodd" d="M149.84 186.08C149.84 176.006 158.006 167.84 168.08 167.84C178.154 167.84 186.32 176.006 186.32 186.08C186.32 196.154 178.154 204.32 168.08 204.32C158.006 204.32 149.84 196.154 149.84 186.08ZM185.04 186.08C185.04 176.713 177.447 169.12 168.08 169.12C158.713 169.12 151.12 176.713 151.12 186.08C151.12 195.447 158.713 203.04 168.08 203.04C177.447 203.04 185.04 195.447 185.04 186.08Z" fill="white"/>
<path fill-rule="evenodd" clip-rule="evenodd" d="M169.184 174.222V175.592C170.651 175.767 171.817 176.268 172.685 177.093C173.552 177.919 174.105 179.024 174.345 180.408L170.844 180.864C170.632 179.776 170.079 179.038 169.184 178.65V184.061C171.398 184.66 172.906 185.437 173.709 186.392C174.511 187.347 174.912 188.572 174.912 190.066C174.912 191.736 174.407 193.143 173.397 194.287C172.387 195.43 170.983 196.132 169.184 196.39V198.977H167.177V196.459C165.581 196.265 164.285 195.67 163.289 194.674C162.293 193.678 161.656 192.271 161.379 190.454L164.991 190.066C165.139 190.804 165.415 191.441 165.821 191.976C166.227 192.511 166.679 192.898 167.177 193.138V187.34C165.369 186.824 164.043 186.042 163.199 184.995C162.355 183.948 161.933 182.677 161.933 181.182C161.933 179.67 162.41 178.399 163.365 177.37C164.32 176.342 165.591 175.749 167.177 175.592V174.222H169.184ZM169.184 187.935V193.332C169.876 193.203 170.438 192.882 170.872 192.37C171.305 191.858 171.522 191.256 171.522 190.564C171.522 189.946 171.34 189.413 170.976 188.966C170.634 188.547 170.088 188.218 169.337 187.981L169.184 187.935ZM165.877 179.55C166.199 179.107 166.633 178.793 167.177 178.609V183.396C166.578 183.138 166.13 182.799 165.835 182.379C165.54 181.96 165.392 181.505 165.392 181.016C165.392 180.481 165.554 179.992 165.877 179.55Z" fill="white"/>
<path fill-rule="evenodd" clip-rule="evenodd" d="M219.976 209.36C232.216 209.36 242.138 199.438 242.138 187.198C242.138 174.959 232.216 165.037 219.976 165.037C207.737 165.037 197.814 174.959 197.814 187.198C197.814 199.438 207.737 209.36 219.976 209.36Z" fill="#D5E4FF"/>
<path d="M218.162 208.323C230.401 208.323 240.323 198.401 240.323 186.162C240.323 173.922 230.401 164 218.162 164C205.922 164 196 173.922 196 186.162C196 198.401 205.922 208.323 218.162 208.323Z" fill="#B34EE6"/>
<path d="M224.241 175.194C224.586 174.851 225.131 174.831 225.5 175.133L225.571 175.198L232.952 182.622C233.293 182.97 233.309 183.515 233.004 183.882L232.939 183.953L225.563 191.19C225.387 191.363 225.15 191.46 224.904 191.46C224.415 191.46 224.013 191.086 223.967 190.609L223.963 190.519L223.963 187.503L211.668 187.439C211.181 187.436 210.782 187.064 210.737 186.588L210.733 186.498L210.732 183.997L204.804 190.081L210.732 195.992L210.733 193.557C210.733 193.068 211.106 192.666 211.583 192.621L211.673 192.616H220.35C220.792 192.616 221.15 192.974 221.15 193.416C221.15 193.83 220.835 194.171 220.432 194.212L220.35 194.216L212.332 194.216L212.333 197.581C212.333 198.07 211.96 198.472 211.482 198.517L211.392 198.521C211.174 198.521 210.964 198.446 210.797 198.309L210.728 198.247L203.214 190.754C202.871 190.413 202.846 189.874 203.141 189.503L203.204 189.432L210.718 181.719C211.081 181.347 211.676 181.339 212.048 181.702C212.207 181.857 212.306 182.062 212.328 182.281L212.333 182.376L212.332 185.842L224.627 185.907C225.114 185.91 225.513 186.282 225.559 186.757L225.563 186.848L225.563 188.948L231.344 183.275L225.563 177.459L225.563 179.778C225.563 180.267 225.19 180.668 224.713 180.714L224.622 180.718H216.101C215.659 180.718 215.301 180.36 215.301 179.918C215.301 179.504 215.615 179.163 216.019 179.122L216.101 179.118L223.963 179.118L223.963 175.861C223.963 175.642 224.04 175.431 224.178 175.263L224.241 175.194Z" fill="white"/>
<path d="M369.88 374.2H353.08V510.28H369.88V374.2Z" fill="#F5AC00"/>
<path d="M372.4 374.2H362.32V510.28H372.4V374.2Z" fill="#FFBF29"/>
<path d="M445.48 374.2H362.32V379.318H428.68V510.28H445.48V374.2Z" fill="#F5AC00"/>
<path d="M448 374.2H437.92V510.28H448V374.2Z" fill="#FFBF29"/>
<path d="M181.72 374.2H164.92V510.28H181.72V374.2Z" fill="#F5AC00"/>
<path d="M184.24 374.2H174.16V510.28H184.24L184.24 374.2Z" fill="#FFBF29"/>
<path d="M257.32 374.2H174.16V380.998H240.52V510.28H257.32V374.2Z" fill="#F5AC00"/>
<path d="M259.84 374.2H249.76V510.28H259.84V374.2Z" fill="#FFBF29"/>
<path d="M364 371.68C364 370.752 363.248 370 362.32 370H166.6C165.672 370 164.92 370.752 164.92 371.68V380.92C164.92 381.848 165.672 382.6 166.6 382.6H362.32C363.248 382.6 364 381.848 364 380.92V371.68Z" fill="#F5AC00"/>
<path d="M448 371.68C448 370.752 447.248 370 446.32 370H251.44C250.512 370 249.76 370.752 249.76 371.68V380.92C249.76 381.848 250.512 382.6 251.44 382.6H446.32C447.248 382.6 448 381.848 448 380.92V371.68Z" fill="#FFBF29"/>
<path d="M246.373 355C247.477 355 248.373 355.895 248.373 357V362C248.373 365.6 245.655 368.565 242.16 368.956L242.159 370H233.404L233.404 368.933C229.996 368.462 227.373 365.537 227.373 362V357C227.373 355.895 228.268 355 229.373 355H246.373Z" fill="#467FFF"/>
<path d="M229.754 356.908H224.75C223.784 356.908 223 357.691 223 358.658V361.055C223 363.345 224.857 365.202 227.147 365.202H229.754C230.169 365.202 230.504 364.866 230.504 364.452C230.504 364.038 230.169 363.702 229.754 363.702H227.147C225.685 363.702 224.5 362.517 224.5 361.055V358.658C224.5 358.52 224.612 358.408 224.75 358.408H229.754C230.169 358.408 230.504 358.072 230.504 357.658C230.504 357.244 230.169 356.908 229.754 356.908Z" fill="#1075F0"/>
<path fill-rule="evenodd" clip-rule="evenodd" d="M285.905 94.577L285.904 93.5577C298.106 90.2171 307.073 79.05 307.073 65.7885C307.073 52.527 298.106 41.3598 285.904 38.0193L285.905 37H278.284C262.385 37 249.496 49.889 249.496 65.7885C249.496 81.5289 262.128 94.3189 277.808 94.5731L278.284 94.577H285.905Z" fill="#A7C3FF"/>
<path fill-rule="evenodd" clip-rule="evenodd" d="M284.212 94.577C268.312 94.577 255.423 81.6879 255.423 65.7885C255.423 49.889 268.312 37 284.212 37C300.111 37 313 49.889 313 65.7885C313 81.6879 300.111 94.577 284.212 94.577Z" fill="#C8DAFF"/>
<path fill-rule="evenodd" clip-rule="evenodd" d="M284.432 91.6133C270.169 91.6133 258.607 80.0511 258.607 65.7883C258.607 51.5256 270.169 39.9634 284.432 39.9634C298.695 39.9634 310.257 51.5256 310.257 65.7883C310.257 80.0511 298.695 91.6133 284.432 91.6133Z" fill="#A7C3FF"/>
<path d="M282.304 40.1305L281.891 40.0869C268.821 41.3631 258.607 52.383 258.607 65.7885C258.607 79.194 268.821 90.2139 281.891 91.4901C294.962 90.2144 305.176 79.1943 305.176 65.7885C305.176 52.5242 295.176 41.5955 282.304 40.1305L281.891 40.0869L282.304 40.1305Z" fill="#EAEFFF"/>
<path fill-rule="evenodd" clip-rule="evenodd" d="M282.73 44.4871V67.4837C282.73 67.8344 282.446 68.1187 282.095 68.1187C281.744 68.1187 281.46 67.8344 281.46 67.4837V44.4871C281.46 44.1364 281.744 43.8521 282.095 43.8521C282.446 43.8521 282.73 44.1364 282.73 44.4871Z" fill="#A7C3FF"/>
<path fill-rule="evenodd" clip-rule="evenodd" d="M281.456 66.6398L294.652 56.6568C295.118 56.3041 295.782 56.3961 296.135 56.8623C296.487 57.3284 296.395 57.9922 295.929 58.3449L282.733 68.3279C282.267 68.6806 281.604 68.5886 281.251 68.1224C280.898 67.6562 280.99 66.9924 281.456 66.6398Z" fill="#A7C3FF"/>
</svg>
