<svg width="949" height="575" viewBox="0 0 949 575" fill="none" xmlns="http://www.w3.org/2000/svg">
<path fill-rule="evenodd" clip-rule="evenodd" d="M909.32 202H510.6C496.52 202 485 212.56 485 225.68V469.2C485 482.32 496.52 492.88 510.6 492.88H909.32C923.4 492.88 934.92 482.32 934.92 469.2V225.68C934.92 212.56 923.4 202 909.32 202Z" fill="#A7C3FF"/>
<path fill-rule="evenodd" clip-rule="evenodd" d="M897.32 202H498.6C484.52 202 473 212.56 473 225.68V469.2C473 482.32 484.52 492.88 498.6 492.88H897.32C911.4 492.88 922.92 482.32 922.92 469.2V225.68C922.92 212.56 911.4 202 897.32 202Z" fill="#C8DAFF"/>
<path fill-rule="evenodd" clip-rule="evenodd" d="M855 482L855 491C855 492.105 854.105 493 853 493H542C540.895 493 540 492.105 540 491L540 482H855Z" fill="#A7C3FF"/>
<path d="M904.36 469.84H491.56V225.04H904.36V469.84Z" fill="#EAEFFF"/>
<path opacity="0.190197" fill-rule="evenodd" clip-rule="evenodd" d="M505 239H634V470H505V239Z" fill="#95B2EE"/>
<path fill-rule="evenodd" clip-rule="evenodd" d="M368.071 509.071C361.771 502.771 366.233 492 375.142 492H919C919 506.359 907.359 518 893 518H387.355C380.725 518 374.366 515.366 369.678 510.678L368.071 509.071Z" fill="#C8DAFF"/>
<path fill-rule="evenodd" clip-rule="evenodd" d="M368.071 509.071C361.771 502.771 366.233 492 375.142 492H919C919 506.359 907.359 518 893 518H387.355C380.725 518 374.366 515.366 369.678 510.678L368.071 509.071Z" fill="#A7C3FF"/>
<path d="M518 482H634V501C634 502.105 633.105 503 632 503H520C518.895 503 518 502.105 518 501V482Z" fill="#A7C3FF"/>
<path fill-rule="evenodd" clip-rule="evenodd" d="M368.071 509.071C361.771 502.771 366.233 492 375.142 492H919C919 506.359 907.359 518 893 518H387.355C380.725 518 374.366 515.366 369.678 510.678L368.071 509.071Z" fill="#C8DAFF"/>
<path d="M518 482H634V501C634 502.105 633.105 503 632 503H520C518.895 503 518 502.105 518 501V482Z" fill="#A7C3FF"/>
<path fill-rule="evenodd" clip-rule="evenodd" d="M767 499C767 495.134 770.134 492 774 492H919C919 506.359 907.359 518 893 518H774C770.134 518 767 514.866 767 511L767 499Z" fill="#A7C3FF"/>
<rect x="652.989" y="170.989" width="239.616" height="291.533" rx="12.9792" fill="#D5E4FF"/>
<rect x="646.5" y="164.5" width="238.616" height="290.533" rx="12.4792" fill="white" stroke="#D2E0FF"/>
<path d="M827 231C828.657 231 830 232.343 830 234C830 235.657 828.657 237 827 237H729C727.343 237 726 235.657 726 234C726 232.343 727.343 231 729 231L827 231Z" fill="#4ED266"/>
<path d="M771 215C772.657 215 774 216.343 774 218C774 219.657 772.657 221 771 221H729C727.343 221 726 219.657 726 218C726 216.343 727.343 215 729 215L771 215Z" fill="#6C717D"/>
<path d="M787 298C788.657 298 790 299.343 790 301C790 302.657 788.657 304 787 304H729C727.343 304 726 302.657 726 301C726 299.343 727.343 298 729 298L787 298Z" fill="#467FFF"/>
<path d="M771 282C772.657 282 774 283.343 774 285C774 286.657 772.657 288 771 288H729C727.343 288 726 286.657 726 285C726 283.343 727.343 282 729 282L771 282Z" fill="#6C717D"/>
<path d="M811 358C812.657 358 814 359.343 814 361C814 362.657 812.657 364 811 364H729C727.343 364 726 362.657 726 361C726 359.343 727.343 358 729 358L811 358Z" fill="#FFBF29"/>
<path d="M771 342C772.657 342 774 343.343 774 345C774 346.657 772.657 348 771 348H729C727.343 348 726 346.657 726 345C726 343.343 727.343 342 729 342L771 342Z" fill="#6C717D"/>
<path fill-rule="evenodd" clip-rule="evenodd" d="M755 418C756.657 418 758 419.343 758 421C758 422.657 756.657 424 755 424H729C727.343 424 726 422.657 726 421C726 419.343 727.343 418 729 418L755 418Z" fill="#FF5D8E"/>
<path d="M771 402C772.657 402 774 403.343 774 405C774 406.657 772.657 408 771 408H729C727.343 408 726 406.657 726 405C726 403.343 727.343 402 729 402L771 402Z" fill="#6C717D"/>
<path fill-rule="evenodd" clip-rule="evenodd" d="M701.546 189.24C702.417 189.24 703.114 190.08 703.114 191.04C703.114 192.04 702.417 192.84 701.546 192.84H700.327L700.327 206.674C707.645 208.77 713 215.509 713 223.5C713 233.165 705.165 241 695.5 241C685.835 241 678 233.165 678 223.5C678 215.451 683.434 208.672 690.833 206.629L690.833 192.84H689.614C688.786 192.84 688.116 192.118 688.051 191.188L688.046 191.04C688.046 190.04 688.743 189.24 689.614 189.24H701.546Z" fill="#C8DAFF"/>
<path d="M695.5 238C703.508 238 710 231.508 710 223.5C710 221.738 703.029 219.873 695.5 223.5C687.971 227.127 681 221.746 681 223.5C681 231.508 687.492 238 695.5 238Z" fill="#4ED266"/>
<path fill-rule="evenodd" clip-rule="evenodd" d="M701.546 252.24C702.417 252.24 703.114 253.08 703.114 254.04C703.114 255.04 702.417 255.84 701.546 255.84H700.327L700.327 269.674C707.645 271.77 713 278.509 713 286.5C713 296.165 705.165 304 695.5 304C685.835 304 678 296.165 678 286.5C678 278.451 683.434 271.672 690.833 269.629L690.833 255.84H689.614C688.786 255.84 688.116 255.118 688.051 254.188L688.046 254.04C688.046 253.04 688.743 252.24 689.614 252.24H701.546Z" fill="#C8DAFF"/>
<path d="M695.5 301C703.508 301 710 294.508 710 286.5C710 284.738 703.029 282.873 695.5 286.5C687.971 290.127 681 284.746 681 286.5C681 294.508 687.492 301 695.5 301Z" fill="#467FFF"/>
<path fill-rule="evenodd" clip-rule="evenodd" d="M701.546 315.24C702.417 315.24 703.114 316.08 703.114 317.04C703.114 318.04 702.417 318.84 701.546 318.84H700.327L700.327 332.674C707.645 334.77 713 341.509 713 349.5C713 359.165 705.165 367 695.5 367C685.835 367 678 359.165 678 349.5C678 341.451 683.434 334.672 690.833 332.629L690.833 318.84H689.614C688.786 318.84 688.116 318.118 688.051 317.188L688.046 317.04C688.046 316.04 688.743 315.24 689.614 315.24H701.546Z" fill="#C8DAFF"/>
<path d="M695.5 364C703.508 364 710 357.508 710 349.5C710 347.738 703.029 345.873 695.5 349.5C687.971 353.127 681 347.746 681 349.5C681 357.508 687.492 364 695.5 364Z" fill="#FFBF29"/>
<path fill-rule="evenodd" clip-rule="evenodd" d="M701.546 378.24C702.417 378.24 703.114 379.08 703.114 380.04C703.114 381.04 702.417 381.84 701.546 381.84H700.327L700.327 395.674C707.645 397.77 713 404.509 713 412.5C713 422.165 705.165 430 695.5 430C685.835 430 678 422.165 678 412.5C678 404.451 683.434 397.672 690.833 395.629L690.833 381.84H689.614C688.786 381.84 688.116 381.118 688.051 380.188L688.046 380.04C688.046 379.04 688.743 378.24 689.614 378.24H701.546Z" fill="#C8DAFF"/>
<path fill-rule="evenodd" clip-rule="evenodd" d="M695.5 427C703.508 427 710 420.508 710 412.5C710 410.738 703.029 408.873 695.5 412.5C687.971 416.127 681 410.746 681 412.5C681 420.508 687.492 427 695.5 427Z" fill="#FF5D8E"/>
<path fill-rule="evenodd" clip-rule="evenodd" d="M521.479 434.042V469.84L529.904 470L533.078 434.042H521.479Z" fill="#FFC4A7"/>
<path fill-rule="evenodd" clip-rule="evenodd" d="M521.479 469.753L524.307 451.273L528.614 469.753H586.278C586.278 469.753 582.063 393.658 581.971 392.072C581.879 390.486 581.601 388.909 581.601 388.909L523.742 389.23C523.742 389.23 520.589 396.795 520.024 413.229C519.458 429.664 521.479 469.753 521.479 469.753Z" fill="#BE065A"/>
<path fill-rule="evenodd" clip-rule="evenodd" d="M583.196 308.5L608.621 322.652C608.621 322.652 638.06 281.122 640.707 277.202C642.243 274.928 645.865 271.26 649.336 269.21C651.117 268.158 653.46 267.933 654.516 267.783C655.572 267.632 657.378 269.21 655.572 270.387C655.142 270.668 652.996 270.597 651.117 272.028C649.548 273.222 648.363 275.257 647.558 276.545C644.35 281.675 644.032 286.765 642.979 288.905C641.776 291.35 627.031 318.971 619.335 333.374C616.779 338.158 610.851 339.964 606.049 337.442L575.571 321.432L583.196 308.5Z" fill="#FFC4A7"/>
<path fill-rule="evenodd" clip-rule="evenodd" d="M644.863 277.105C644.863 277.105 648.692 277.274 649.452 277.594C650.212 277.913 652.14 281.082 652.14 281.791C652.14 282.499 650.888 286.853 649.452 286.853C648.376 286.853 649.512 284.136 649.452 282.46C649.431 281.899 648.198 281.286 648.002 281.101C647.219 280.361 643.864 281.791 643.864 281.791L644.863 277.105Z" fill="#FFC4A7"/>
<path fill-rule="evenodd" clip-rule="evenodd" d="M642.452 289.167C642.452 289.167 649.512 289.148 650.48 287.934C651.448 286.719 655.78 280.103 653.958 279.374C652.135 278.645 650.355 282.946 649.005 283.342C647.654 283.738 643.577 282.773 643.577 282.773L642.452 289.167Z" fill="#FFC4A7"/>
<path fill-rule="evenodd" clip-rule="evenodd" d="M574.588 302.252C570.623 300.201 565.745 301.676 563.581 305.58L562.587 307.373C560.288 311.521 561.951 316.75 566.224 318.807L609.875 339.825C612.783 341.225 616.278 340.195 617.962 337.441L626.073 324.175L612.841 315.016L608.982 320.042L574.588 302.252Z" fill="#313132"/>
<path fill-rule="evenodd" clip-rule="evenodd" d="M575.708 311.646L592.598 331.522L582.329 326.548L575.708 311.646Z" fill="#080708" fill-opacity="0.223011"/>
<path fill-rule="evenodd" clip-rule="evenodd" d="M523.893 312.721C522.612 307.696 526.026 302.686 531.171 302.039L552.67 299.339L569.994 301.355C571.193 301.494 572.232 302.227 572.742 303.321C575.25 308.699 582.652 325.103 583.077 332.193C583.469 338.734 577.87 346.03 577.87 352.735C577.87 359.441 580.239 388.909 580.239 388.909L526.085 392.52C525.566 392.554 525.159 392.084 525.266 391.575L533.778 351.478L523.893 312.721Z" fill="#FFC4A7"/>
<path fill-rule="evenodd" clip-rule="evenodd" d="M523.89 312.71C522.61 307.689 526.018 302.681 531.158 302.03L543.659 300.445C543.659 300.445 546.915 310.484 556.283 310.484C565.651 310.484 562.967 300.493 562.967 300.493L570.006 301.347C571.199 301.492 572.23 302.222 572.738 303.311C575.24 308.678 582.652 325.099 583.077 332.193C583.469 338.734 577.87 346.03 577.87 352.735C577.87 359.441 581.902 391.015 581.902 391.015L522.158 394.203L533.778 351.478L523.89 312.71Z" fill="#BE065A"/>
<path fill-rule="evenodd" clip-rule="evenodd" d="M523.161 312.749C521.877 307.714 525.306 302.696 530.463 302.064L543.659 300.445C543.659 300.445 546.915 310.484 556.283 310.484C565.651 310.484 562.967 300.493 562.967 300.493L570.723 301.362C571.928 301.497 572.973 302.231 573.486 303.33C575.997 308.717 583.392 325.107 583.816 332.193C584.208 338.734 578.239 346.03 578.239 352.735C578.239 359.441 581.902 372.535 581.902 372.535C581.902 372.535 575.708 378.392 571.115 373.081C566.523 367.769 567.556 342.206 565.651 335.601C563.746 328.996 558.72 315.993 558.72 315.993C558.72 315.993 556.955 324.79 556.283 335.601C555.611 346.412 560.396 363.888 553.089 373.081C546.612 381.23 529.101 376.965 525.209 375.891C524.78 375.773 524.561 375.319 524.71 374.899L533.038 351.478L523.161 312.749Z" fill="#313132"/>
<path fill-rule="evenodd" clip-rule="evenodd" d="M558.275 314.373L553.266 316.594C552.869 316.77 552.406 316.567 552.266 316.156L552.228 316.043C551.828 314.867 551.765 313.602 552.048 312.392C552.135 312.016 552.511 311.782 552.887 311.869L558.147 313.089L558.275 314.373Z" fill="#E3E9FF"/>
<path fill-rule="evenodd" clip-rule="evenodd" d="M557.906 314.338L562.94 315.548C563.328 315.641 563.713 315.384 563.777 314.99L563.795 314.874C563.98 313.729 563.834 312.554 563.375 311.489C563.235 311.164 562.86 311.013 562.534 311.151L557.819 313.143L557.906 314.338Z" fill="#E3E9FF"/>
<path fill-rule="evenodd" clip-rule="evenodd" d="M557.999 314.584C558.61 314.627 559.14 314.166 559.183 313.556C559.225 312.945 558.765 312.415 558.154 312.372C557.543 312.329 557.013 312.79 556.971 313.401C556.928 314.012 557.388 314.542 557.999 314.584Z" fill="#FF97C7"/>
<path fill-rule="evenodd" clip-rule="evenodd" d="M537.587 315.993L531.873 345.317L527.37 329.708L537.587 315.993Z" fill="#080708" fill-opacity="0.223011"/>
<path fill-rule="evenodd" clip-rule="evenodd" d="M534.681 320.054L516.697 354.246C516.697 354.246 559.697 354.598 562.147 354.598C564.597 354.598 572.297 367.835 572.624 368.407C572.951 368.98 572.507 370.77 570.415 369.074C568.323 367.378 567.796 366.425 566.065 366.425C564.335 366.425 561.842 369.658 559.067 368.888C556.291 368.119 553.148 365.097 552.61 365.097C552.265 365.097 528.084 366.978 510.744 368.33C503.107 368.925 497.741 360.974 501.137 354.108L521.749 312.429L534.681 320.054Z" fill="#FFC4A7"/>
<path fill-rule="evenodd" clip-rule="evenodd" d="M523.132 307.228C525.21 302.993 530.412 301.36 534.539 303.647L536.424 304.692C540.314 306.849 541.795 311.701 539.771 315.662L520.74 352.909L527.37 353.648L524.398 369.786L512.003 369.786C502.976 369.786 497.077 360.32 501.054 352.216L523.132 307.228Z" fill="#313132"/>
<path fill-rule="evenodd" clip-rule="evenodd" d="M562.012 355.319C562.012 355.319 570.518 355.077 571.068 356.301C571.618 357.524 564.06 358.724 564.06 358.724L562.012 355.319Z" fill="#FFC4A7"/>
<path fill-rule="evenodd" clip-rule="evenodd" d="M553.942 258.902C553.942 258.902 544.664 253.479 540.339 262.752C537.685 268.442 539.962 272.831 536.346 277.888C531.42 284.778 540.16 296.717 540.16 296.717C540.16 296.717 546.853 293.475 553.942 295.324C558.908 288.386 553.942 258.902 553.942 258.902Z" fill="#842404"/>
<path fill-rule="evenodd" clip-rule="evenodd" d="M574.179 263.848C574.179 263.848 577.75 275.912 575.715 282.328C573.679 288.744 575.744 295.215 575.744 295.215C575.744 295.215 567.886 294.266 557.364 294.266C554.781 288.968 571.14 266.808 571.14 266.808L574.179 263.848Z" fill="#842404"/>
<path fill-rule="evenodd" clip-rule="evenodd" d="M547.338 301.895C547.338 305.559 550.309 308.525 553.973 308.525C557.871 308.525 560.929 305.183 560.583 301.301L559.816 292.694C559.816 292.694 568.076 293.348 570.874 289.354C573.671 285.36 573.285 264.556 573.285 264.556L547.338 264.556C547.338 264.556 547.338 269.713 547.338 271.502C539.416 271.502 539.416 281.067 547.338 281.067C547.338 287.208 547.338 295.937 547.338 301.895Z" fill="#FFC4A7"/>
<path fill-rule="evenodd" clip-rule="evenodd" d="M568.154 277.249V284.106C568.154 284.106 571.274 283.453 571.274 282.434C571.274 281.416 568.154 277.249 568.154 277.249Z" fill="#F19B93"/>
<path fill-rule="evenodd" clip-rule="evenodd" d="M559.816 292.694C559.816 292.694 557.364 292.363 555.477 291.768C553.589 291.173 551.201 289.972 551.201 289.972C551.201 289.972 554.441 293.119 556.145 294.472C557.848 295.825 560.224 297.139 560.224 297.139L559.816 292.694Z" fill="#F19B93"/>
<path fill-rule="evenodd" clip-rule="evenodd" d="M547.673 278.802L549.392 273.87C549.802 272.696 551.019 272.007 552.244 272.221C555.649 272.815 562.331 273.771 566.318 272.95C573.075 271.557 574.928 268.089 574.928 268.089C574.928 268.089 577.162 256.353 568.154 252.383C559.145 248.414 546.694 258.985 546.694 258.985L545.092 271.816L546.694 271.451L547.673 278.802Z" fill="#842404"/>
<path d="M448.72 187.8C446.555 187.8 444.8 189.555 444.8 191.72V228.57C444.8 230.735 446.555 232.49 448.72 232.49L525.183 232.49L540.806 244.6L540.807 232.49L544.88 232.49C547.045 232.49 548.8 230.735 548.8 228.57V191.72C548.8 189.555 547.045 187.8 544.88 187.8H448.72Z" fill="#FFBF29"/>
<path d="M534.99 205.657H458.295C457.301 205.657 456.495 204.851 456.495 203.857C456.495 202.863 457.301 202.057 458.295 202.057H534.99C535.984 202.057 536.79 202.863 536.79 203.857C536.79 204.851 535.984 205.657 534.99 205.657Z" fill="white"/>
<path d="M534.99 217.657H470.295C469.301 217.657 468.495 216.851 468.495 215.857C468.495 214.863 469.301 214.057 470.295 214.057H534.99C535.984 214.057 536.79 214.863 536.79 215.857C536.79 216.851 535.984 217.657 534.99 217.657Z" fill="white"/>
<path fill-rule="evenodd" clip-rule="evenodd" d="M345 523C345 519.686 347.686 517 351 517H943C946.314 517 949 519.686 949 523V566C949 569.314 946.314 572 943 572H351C347.686 572 345 569.314 345 566L345 523Z" fill="#A7C3FF"/>
<path fill-rule="evenodd" clip-rule="evenodd" d="M795 523C795 519.686 797.686 517 801 517H943C946.314 517 949 519.686 949 523V566C949 569.314 946.314 572 943 572H801C797.686 572 795 569.314 795 566L795 523Z" fill="#95B2EE"/>
<path d="M471.84 437.2H484.96V572.44H471.84V437.2Z" fill="#F5AC00"/>
<path d="M470.32 437.2H477.4V572.44H470.32L470.32 437.2Z" fill="#FFBF29"/>
<path d="M404.64 437.2H417.76V572.44H404.64V437.2Z" fill="#F5AC00"/>
<path d="M403.12 437.2H410.2V572.44H403.12V437.2Z" fill="#FFBF29"/>
<path d="M329.64 437.2H342.76V572.44H329.64V437.2Z" fill="#F5AC00"/>
<path d="M328.16 437.2H335.24V572.44H328.16V437.2Z" fill="#FFBF29"/>
<path d="M319 434.68C319 433.752 319.752 433 320.68 433H498.4C499.328 433 500.08 433.752 500.08 434.68V443.92C500.08 444.848 499.328 445.6 498.4 445.6H320.68C319.752 445.6 319 444.848 319 443.92V434.68Z" fill="#F5AC00"/>
<path d="M318 434.68C318 433.752 318.752 433 319.68 433H414.4C415.328 433 416.08 433.752 416.08 434.68V443.92C416.08 444.848 415.328 445.6 414.4 445.6H319.68C318.752 445.6 318 444.848 318 443.92V434.68Z" fill="#FFBF29"/>
<path d="M400 425C400 423.895 399.105 423 398 423H344C342.895 423 342 423.895 342 425V431C342 432.105 342.895 433 344 433H398C399.105 433 400 432.105 400 431V425Z" fill="#F5AC00"/>
<path d="M400 425C400 423.895 399.105 423 398 423L369 423C367.895 423 367 423.895 367 425V431C367 432.105 367.895 433 369 433H398C399.105 433 400 432.105 400 431V425Z" fill="#FFBF29"/>
<path d="M398 425.8C398 424.806 397.194 424 396.2 424L343 424C342.448 424 342 424.448 342 425V431C342 431.552 342.448 432 343 432H396.2C397.194 432 398 431.194 398 430.2V425.8Z" fill="#EAEFFF"/>
<path fill-rule="evenodd" clip-rule="evenodd" d="M367 425.8C367 424.806 366.194 424 365.2 424H343C342.448 424 342 424.448 342 425V431C342 431.552 342.448 432 343 432H365.2C366.194 432 367 431.194 367 430.2V425.8Z" fill="#C1D7FF"/>
<path d="M262.84 432.2H275.96V567.44H262.84V432.2Z" fill="#F5AC00"/>
<path d="M261.32 432.2H268.4V567.44H261.32L261.32 432.2Z" fill="#FFBF29"/>
<path d="M195.64 432.2H208.76V567.44H195.64V432.2Z" fill="#F5AC00"/>
<path d="M194.12 432.2H201.2V567.44H194.12V432.2Z" fill="#FFBF29"/>
<path d="M120.64 432.2H133.76V567.44H120.64V432.2Z" fill="#F5AC00"/>
<path d="M119.16 432.2H126.24V567.44H119.16V432.2Z" fill="#FFBF29"/>
<path d="M110 429.68C110 428.752 110.752 428 111.68 428H289.4C290.328 428 291.08 428.752 291.08 429.68V438.92C291.08 439.848 290.328 440.6 289.4 440.6H111.68C110.752 440.6 110 439.848 110 438.92V429.68Z" fill="#F5AC00"/>
<path d="M109 429.68C109 428.752 109.752 428 110.68 428H205.4C206.328 428 207.08 428.752 207.08 429.68V438.92C207.08 439.848 206.328 440.6 205.4 440.6H110.68C109.752 440.6 109 439.848 109 438.92V429.68Z" fill="#FFBF29"/>
<path fill-rule="evenodd" clip-rule="evenodd" d="M155 420C155 418.895 155.895 418 157 418H211C212.105 418 213 418.895 213 420V426C213 427.105 212.105 428 211 428H157C155.895 428 155 427.105 155 426V420Z" fill="#FF326F"/>
<path fill-rule="evenodd" clip-rule="evenodd" d="M155 420C155 418.895 155.895 418 157 418L186 418C187.105 418 188 418.895 188 420V426C188 427.105 187.105 428 186 428H157C155.895 428 155 427.105 155 426V420Z" fill="#FF5D8E"/>
<path d="M157 420.8C157 419.806 157.806 419 158.8 419L212 419C212.552 419 213 419.448 213 420V426C213 426.552 212.552 427 212 427H158.8C157.806 427 157 426.194 157 425.2V420.8Z" fill="#EAEFFF"/>
<path fill-rule="evenodd" clip-rule="evenodd" d="M188 420.8C188 419.806 188.806 419 189.8 419H212C212.552 419 213 419.448 213 420V426C213 426.552 212.552 427 212 427H189.8C188.806 427 188 426.194 188 425.2V420.8Z" fill="#C1D7FF"/>
<path fill-rule="evenodd" clip-rule="evenodd" d="M86.3457 311.172L90.0618 318.46C90.1685 318.67 90.0554 318.924 89.8285 318.985L86.3457 319.922V311.172Z" fill="#B9726B"/>
<path fill-rule="evenodd" clip-rule="evenodd" d="M61.5015 340.865H77.1686L75.6902 333.511C75.6902 333.511 82.1311 334.197 85.0634 330.01C87.9956 325.823 87.591 304.016 87.591 304.016H61.5015V340.865Z" fill="#E09282"/>
<path fill-rule="evenodd" clip-rule="evenodd" d="M60.3545 326.52C60.8079 327.599 61.8653 328.284 63.036 328.284H67.1918C68.4136 328.284 69.5083 327.535 69.8993 326.377C70.6163 324.254 71.6958 320.709 72.0929 317.566C72.7087 312.69 76.971 311.339 76.971 311.339L77.5468 316.477C77.6399 317.307 78.342 317.935 79.1775 317.935C80.0837 317.935 80.8183 317.2 80.8183 316.294V309.389C80.8183 307.357 82.2916 305.625 84.2972 305.299L87.6401 304.755C87.6401 304.755 88.1535 297.349 84.0879 293.936C80.0223 290.524 69.8659 290.164 64.0547 292.119C58.2435 294.073 53.7807 299.925 54.1503 306.65C54.4422 311.959 58.6127 322.373 60.3545 326.52Z" fill="#321111"/>
<path fill-rule="evenodd" clip-rule="evenodd" d="M61.5427 324.026C66.8499 324.026 71.1523 319.723 71.1523 314.416C71.1523 309.109 66.8499 304.806 61.5427 304.806C56.2355 304.806 51.9331 309.109 51.9331 314.416C51.9331 319.723 56.2355 324.026 61.5427 324.026Z" fill="#321111"/>
<path fill-rule="evenodd" clip-rule="evenodd" d="M58.7705 313.307C64.1798 313.307 68.5649 308.922 68.5649 303.513C68.5649 298.103 64.1798 293.718 58.7705 293.718C53.3612 293.718 48.9761 298.103 48.9761 303.513C48.9761 308.922 53.3612 313.307 58.7705 313.307Z" fill="#321111"/>
<path fill-rule="evenodd" clip-rule="evenodd" d="M73.7394 303.698C79.4549 303.698 84.0882 299.064 84.0882 293.349C84.0882 287.633 79.4549 283 73.7394 283C68.0239 283 63.3906 287.633 63.3906 293.349C63.3906 299.064 68.0239 303.698 73.7394 303.698Z" fill="#321111"/>
<path fill-rule="evenodd" clip-rule="evenodd" d="M62.0969 300.741C65.6691 300.741 68.5649 297.845 68.5649 294.273C68.5649 290.701 65.6691 287.805 62.0969 287.805C58.5247 287.805 55.6289 290.701 55.6289 294.273C55.6289 297.845 58.5247 300.741 62.0969 300.741Z" fill="#321111"/>
<path fill-rule="evenodd" clip-rule="evenodd" d="M85.197 303.328C90.3001 303.328 94.437 299.191 94.437 294.088C94.437 288.985 90.3001 284.848 85.197 284.848C80.0939 284.848 75.957 288.985 75.957 294.088C75.957 299.191 80.0939 303.328 85.197 303.328Z" fill="#321111"/>
<path fill-rule="evenodd" clip-rule="evenodd" d="M88.893 305.915C92.9755 305.915 96.285 302.606 96.285 298.523C96.285 294.441 92.9755 291.131 88.893 291.131C84.8105 291.131 81.501 294.441 81.501 298.523C81.501 302.606 84.8105 305.915 88.893 305.915Z" fill="#321111"/>
<path fill-rule="evenodd" clip-rule="evenodd" d="M82.6096 309.242C87.7127 309.242 91.8496 305.105 91.8496 300.002C91.8496 294.898 87.7127 290.762 82.6096 290.762C77.5065 290.762 73.3696 294.898 73.3696 300.002C73.3696 305.105 77.5065 309.242 82.6096 309.242Z" fill="#321111"/>
<path fill-rule="evenodd" clip-rule="evenodd" d="M75.6902 333.511L72.4238 333.037L77.1686 340.866L75.6902 333.511Z" fill="#B9726B"/>
<path fill-rule="evenodd" clip-rule="evenodd" d="M28.6216 358.467L4.04666 389.986C2.16757 392.396 1.96523 395.713 3.53754 398.334L25.6648 435.213C25.6648 435.213 24.556 450.711 30.2201 452.702C31.3231 453.089 33.2233 461.948 35.4408 459.253C36.0537 458.508 36.3428 441.949 36.3428 441.949L33.8467 429.835L22.9435 393.985L41.2387 368.801L28.6216 358.467Z" fill="#E09282"/>
<path fill-rule="evenodd" clip-rule="evenodd" d="M38.5353 342.771C42.0185 338.752 48.1035 338.327 52.1121 341.822L54.0832 343.54C58.0752 347.021 58.4985 353.075 55.0298 357.077L33.42 382.01L16.9625 367.662L38.5353 342.771Z" fill="#B7C3D1"/>
<path fill-rule="evenodd" clip-rule="evenodd" d="M38.3461 361.043L32.3403 381.039L33.42 382.01L37.3581 377.473L38.3461 361.043Z" fill="#080708" fill-opacity="0.245739"/>
<path fill-rule="evenodd" clip-rule="evenodd" d="M73.656 535.488H86.9616L82.1568 553.968H69.96L73.656 535.488Z" fill="#616988"/>
<path fill-rule="evenodd" clip-rule="evenodd" d="M71.9496 544.373C71.9496 544.373 70.3296 549.9 69.732 553.57C69.4197 555.488 67.9927 558.625 67.6686 562.983C67.5793 564.184 111.581 561.844 111.358 561.132C110.734 559.139 109.388 558.143 107.321 558.143C103.113 558.143 95.8357 557.52 93.3131 556.005C90.7906 554.49 84.6011 543.668 84.6011 543.668C84.6011 543.668 81.5444 544.813 79.4996 544.813C77.4548 544.813 71.9496 544.373 71.9496 544.373Z" fill="#283845"/>
<path fill-rule="evenodd" clip-rule="evenodd" d="M103.008 558.082C104.578 558.196 106.083 558.249 107.321 558.249C110.127 558.249 111.603 560.064 111.751 563.693C105.983 566.359 101.372 567.692 97.9168 567.692C96.8136 567.692 91.3847 566.295 85.4218 566.133C83.1728 566.071 80.9957 567.313 78.0555 567.228L69.0552 566.931C68.5204 566.912 67.9685 566.892 67.3994 566.872L67.5363 564.858C67.6121 563.778 67.6877 562.763 67.7629 561.814L68.8416 561.982C72.7163 562.571 75.7034 562.892 77.8036 562.945C80.4189 563.01 83.3135 561.385 85.4218 561.418L86.7472 561.444C93.1098 561.591 97.7144 562.016 99.0093 561.788C101.446 561.359 103.375 560.873 104.797 560.33L103.008 558.082Z" fill="#7680A4"/>
<path fill-rule="evenodd" clip-rule="evenodd" d="M57.8441 469.801C77.1508 469.801 95.6777 469.801 95.6777 469.801C95.6777 469.801 91.4944 477.138 87.221 487.816C82.9476 498.493 71.3682 543.262 71.3682 543.262H85.9504L124.378 465.877C129.965 454.627 122.413 441.295 109.892 440.301L65.2023 436.755V432H33.5404C33.5404 432 32.2774 469.801 57.8441 469.801Z" fill="#03344B"/>
<path fill-rule="evenodd" clip-rule="evenodd" d="M156.446 535.118H169.752L173.448 553.968H161.251L156.446 535.118Z" fill="#616988"/>
<path fill-rule="evenodd" clip-rule="evenodd" d="M158.806 545.112C158.806 545.112 160.024 559.365 159.7 563.722C159.61 564.923 203.612 562.583 203.389 561.871C202.765 559.879 201.419 558.882 199.352 558.882C195.144 558.882 187.867 558.259 185.344 556.744C182.822 555.229 171.827 544.407 171.827 544.407C171.827 544.407 168.771 545.552 166.726 545.552C164.681 545.552 158.806 545.112 158.806 545.112Z" fill="#364B5D"/>
<path fill-rule="evenodd" clip-rule="evenodd" d="M195.039 558.821C196.609 558.935 198.113 558.988 199.352 558.988C202.157 558.988 203.634 560.803 203.782 564.433C198.014 567.098 193.402 568.431 189.948 568.431L188.204 568.407C184.222 568.33 174.631 568.064 159.43 567.611L159.528 566.16C159.625 564.745 159.722 563.437 159.819 562.238L165.871 562.426C180.583 562.858 188.973 562.891 191.04 562.527C193.477 562.098 195.406 561.612 196.828 561.069L195.039 558.821Z" fill="#7680A4"/>
<path fill-rule="evenodd" clip-rule="evenodd" d="M46.6753 436.809C46.6753 436.809 46.6753 473.551 73.9358 473.551C93.2425 473.551 134.315 473.551 134.315 473.551C134.315 473.551 133.883 484.445 137.686 494.024C141.489 503.603 157.684 543.685 157.684 543.685H173.005L153.493 461.717C151.76 454.438 146.032 448.782 138.732 447.141L92.7516 436.809V432.054H46.6753V436.809Z" fill="#064C6C"/>
<path fill-rule="evenodd" clip-rule="evenodd" d="M78.9554 432.724L70.589 447.794L69.2207 432.423L78.9554 432.724Z" fill="#03344B"/>
<path d="M69.063 432.054L69.8949 443.792C70.4768 452.002 77.1012 458.483 85.3222 458.885L141.891 461.652C144.627 461.786 146.961 463.676 147.659 466.324L168.074 543.685" stroke="#03344B" stroke-width="0.5544"/>
<path fill-rule="evenodd" clip-rule="evenodd" d="M100.504 347.68C100.504 343.189 96.8634 339.549 92.3727 339.549H47.7705C43.5293 339.549 40.0004 342.809 39.6648 347.037L32.8671 432.688L100.504 436.384V347.68Z" fill="#B7C3D1"/>
<path fill-rule="evenodd" clip-rule="evenodd" d="M100.504 423.313L100.42 425.726L33.6054 423.393L32.8673 432.688L100.504 436.384L100.504 423.313ZM34.9514 406.427L34.2494 415.278L100.504 417.592V408.717L34.9514 406.427ZM36.2394 390.2L35.5954 398.314L100.504 400.58V392.444L36.2394 390.2ZM37.5864 373.235L36.8834 382.086L100.504 384.308V375.432L37.5864 373.235ZM38.8744 357.008L38.2304 365.121L100.504 367.296V359.159L38.8744 357.008ZM47.7707 339.549C43.5295 339.549 40.0006 342.809 39.665 347.037L39.5184 348.894L100.504 351.023L100.504 347.68C100.504 343.189 96.8636 339.549 92.3729 339.549L78.867 339.547C78.8977 339.666 78.914 339.79 78.914 339.918C78.914 340.687 78.3277 341.318 77.578 341.39L77.4356 341.397H61.1732C60.3567 341.397 59.6948 340.735 59.6948 339.918C59.6948 339.79 59.7111 339.666 59.7418 339.547L47.7707 339.549Z" fill="#E3E9FF"/>
<path fill-rule="evenodd" clip-rule="evenodd" d="M86.1068 361.424L100.351 409.265V381.56L86.1068 361.424Z" fill="#080708" fill-opacity="0.245739"/>
<path fill-rule="evenodd" clip-rule="evenodd" d="M107.079 365.895L115.469 382.279L146.249 352.694C146.365 352.583 146.441 352.438 146.467 352.28L148.284 341.13C148.284 341.13 155.043 329.399 156.24 333.681C156.687 335.282 152.308 337.2 153.034 342.428C153.169 343.403 161.381 337.382 164.828 334.808C165.365 334.406 166.119 334.871 166.005 335.533L163.732 348.713C163.703 348.886 163.612 349.042 163.478 349.155L152.29 358.503L123.748 397.469C119.313 403.524 110.11 402.992 106.402 396.468L92.8729 372.664L107.079 365.895Z" fill="#E09282"/>
<path d="M101.166 345.016C98.8396 340.246 93.0867 338.265 88.3166 340.591L85.9912 341.725C81.2211 344.052 79.2402 349.805 81.5667 354.575L95.9867 384.14L115.586 374.581L101.166 345.016Z" fill="#B7C3D1"/>
<path fill-rule="evenodd" clip-rule="evenodd" d="M77.0765 484.16L89.2002 569.84L82.8439 569.756L70.7202 485.056L77.0765 484.16Z" fill="#A7C3FF"/>
<path fill-rule="evenodd" clip-rule="evenodd" d="M71.9235 484.16L59.7998 569.84L66.1561 569.756L78.2798 485.056L71.9235 484.16Z" fill="#C8DAFF"/>
<path fill-rule="evenodd" clip-rule="evenodd" d="M112.356 484.16L124.48 569.84L118.124 569.756L106 485.056L112.356 484.16Z" fill="#A7C3FF"/>
<path fill-rule="evenodd" clip-rule="evenodd" d="M34.9635 484.16L22.8398 569.84L29.1961 569.756L41.3198 485.056L34.9635 484.16Z" fill="#C8DAFF"/>
<path fill-rule="evenodd" clip-rule="evenodd" d="M117.004 489.2C122.525 489.2 127 484.725 127 479.204C127 473.683 122.525 469.208 117.004 469.208H76.3825C70.6615 469.208 65.8797 464.855 65.3433 459.159L58.8357 390.049C58.2994 384.353 53.5176 380 47.7966 380H21.3737C14.9148 380 9.82297 385.499 10.3183 391.938L17.0125 478.962C17.4569 484.739 22.274 489.2 28.0678 489.2H117.004Z" fill="#A7C3FF"/>
<path fill-rule="evenodd" clip-rule="evenodd" d="M53.3429 381.4L60.0905 468.885C60.536 474.661 65.3527 479.12 71.1456 479.12H126.844L126.998 479.118L127 478.924C127 473.418 122.536 468.954 117.03 468.954H76.5278C70.8079 468.954 66.0266 464.603 65.4889 458.909L58.9861 390.046C58.6318 386.294 56.4358 383.125 53.3429 381.4Z" fill="#C8DAFF"/>
<path fill-rule="evenodd" clip-rule="evenodd" d="M324.78 570.797C328.117 571.585 338.013 570.698 345.43 571.217C348.77 571.45 355.407 570.7 356.546 570.185C358.189 569.442 355.639 567.333 353.967 566.659C351.247 565.562 346.949 563.811 343.937 562.501C339.215 560.445 334.934 559.173 334.409 555.957C333.884 552.741 340.045 537.175 340.045 537.175L326.704 542.67C326.704 542.67 323.849 553.893 322.431 559.544C321.013 565.196 321.705 567.165 321.705 567.165C321.705 567.165 321.442 570.009 324.78 570.797Z" fill="#E09282"/>
<path fill-rule="evenodd" clip-rule="evenodd" d="M321.16 553.177V572.826L339.768 569.234L359.977 572.826C359.977 572.826 361.139 566.898 357.665 565.408C354.19 563.919 348.4 562.828 346.554 561.376C344.708 559.925 336.184 550.951 336.184 550.951L321.16 553.177Z" fill="#313131"/>
<path fill-rule="evenodd" clip-rule="evenodd" d="M340.054 567.079C344.356 567.274 344.79 568.816 348.075 569.137L348.448 569.169C350.549 569.332 354.472 569.339 360.217 569.19C360.332 570.216 360.251 571.429 359.977 572.826L358.283 572.857C353.894 572.928 350.539 572.918 348.217 572.826C344.299 572.672 343.102 571.491 340.054 571.491C337.006 571.491 336.088 572.532 331.93 572.826C329.434 573.003 326.277 573.02 322.458 572.879L321.16 572.826L321.16 567.541L322.238 567.701C326.469 568.31 329.728 568.58 332.014 568.51C335.886 568.392 335.753 566.885 340.054 567.079Z" fill="#CAD4D6"/>
<path fill-rule="evenodd" clip-rule="evenodd" d="M329.89 549.895C328.819 550.176 328.316 551.405 328.883 552.356L329.364 553.162C329.614 553.582 330.055 553.854 330.543 553.889L339.722 554.541L339.285 549.446C339.197 548.418 338.204 547.717 337.206 547.979L329.89 549.895Z" fill="#313131"/>
<path fill-rule="evenodd" clip-rule="evenodd" d="M301.953 486.884C322.418 486.884 340.881 484.319 340.881 484.319C340.881 484.319 337.603 497.752 334.659 509.069C331.716 520.385 325.1 545.806 325.1 545.806H338.206L367.434 485.393C373.183 473.51 365.219 459.557 352.064 458.463L309.752 454.944V449.904L279.887 449.904C279.887 449.904 275.639 486.884 301.953 486.884Z" fill="#80A4DA"/>
<path fill-rule="evenodd" clip-rule="evenodd" d="M409.332 571.232C412.67 572.014 422.565 571.144 429.982 571.663C433.322 571.897 438.849 570.768 439.988 570.26C441.62 569.531 439.089 567.438 437.432 566.765C435.026 565.787 431.37 564.288 428.482 563.044C423.758 561.007 419.995 559.108 418.568 555.925C417.142 552.742 412.426 538 412.426 538L401.236 544.115C401.236 544.115 405.245 552.691 406.255 556.524C407.264 560.357 406.255 567.639 406.255 567.639C406.255 567.639 405.994 570.45 409.332 571.232Z" fill="#E09282"/>
<path fill-rule="evenodd" clip-rule="evenodd" d="M405.059 553.546V572.457C405.059 572.865 405.39 573.196 405.798 573.196H443.268C443.621 573.196 443.923 572.947 443.966 572.596C444.153 571.052 444.361 566.977 441.564 565.778C438.089 564.288 432.299 563.198 430.453 561.746C428.607 560.294 420.083 551.32 420.083 551.32L405.059 553.546Z" fill="#464646"/>
<path fill-rule="evenodd" clip-rule="evenodd" d="M405.059 567.865L426.189 569.506L444.112 569.505C444.221 570.44 444.169 571.53 443.954 572.775L443.876 573.196H405.059L405.059 567.865Z" fill="#CAD4D6"/>
<path fill-rule="evenodd" clip-rule="evenodd" d="M413.42 550.265C412.349 550.545 411.846 551.774 412.412 552.725L412.893 553.531C413.144 553.952 413.584 554.223 414.072 554.258L423.251 554.911L422.814 549.815C422.726 548.787 421.733 548.087 420.736 548.348L413.42 550.265Z" fill="#464646"/>
<path fill-rule="evenodd" clip-rule="evenodd" d="M293.773 455.001C293.773 455.001 291.005 488.463 316.792 488.071C337.254 487.761 381.186 482.808 381.186 482.808C381.186 482.808 381.614 490.026 382.004 493.261C382.812 499.965 384.122 505.599 385.934 510.165C389.965 520.319 401.891 546.713 401.891 546.713H415.781L403.758 484.274L402.527 477.882C400.833 469.084 393.686 462.365 384.8 461.216L336.737 455.001V449.961L293.44 449.961L293.773 455.001Z" fill="#A0C6FF"/>
<path fill-rule="evenodd" clip-rule="evenodd" d="M328.67 453.894L320.39 465.575L318.351 455.054L328.67 453.894Z" fill="white"/>
<path d="M318.575 449.961L319.347 460.779C320.01 470.083 327.953 477.171 337.271 476.776L389.378 474.567C391.638 474.471 393.659 475.965 394.23 478.154L412.039 546.395" stroke="white" stroke-width="0.587664"/>
<path fill-rule="evenodd" clip-rule="evenodd" d="M244.903 348.989C244.903 348.989 248.848 345.063 249.766 343.772C251.341 341.56 250.838 340.663 249.766 341.188C247.222 342.436 243.888 345.36 243.888 345.36L244.903 348.989Z" fill="#E09282"/>
<path fill-rule="evenodd" clip-rule="evenodd" d="M277.073 374.763L255.307 390.708C255.307 390.708 245.118 364.497 243.703 354.213C243.504 352.765 245.556 350.738 245.649 349.097C245.818 346.127 243.158 330.192 242.326 330.192C240.69 330.192 241.471 340.406 241.471 340.406C241.471 340.406 232.569 341.256 232.569 342.498C232.569 351.736 234.688 354.206 234.647 354.813C234.487 357.236 238.799 382.939 241.786 400.346C243.038 407.638 251.576 410.981 257.46 406.495L285.046 385.465L277.073 374.763Z" fill="#E09282"/>
<path fill-rule="evenodd" clip-rule="evenodd" d="M278.685 369.111C282.417 365.822 288.092 366.11 291.472 369.76L292.999 371.409C296.838 375.555 296.05 382.152 291.343 385.276L257.252 407.905C251.261 411.882 243.158 408.408 241.907 401.327L234.516 359.49L245.476 357.36L256.202 388.921L278.685 369.111Z" fill="#265388"/>
<path fill-rule="evenodd" clip-rule="evenodd" d="M278.047 376.685L278.788 393.576L282.883 390.926L278.047 376.685Z" fill="#080708" fill-opacity="0.223011"/>
<path fill-rule="evenodd" clip-rule="evenodd" d="M277.949 375.708C276.704 370.829 279.887 365.934 284.87 365.212C291.059 364.315 299.034 363.299 304.434 363.125C312.18 362.874 321.814 364.123 325.753 364.697C326.888 364.862 327.85 365.579 328.335 366.618C330.797 371.893 338.287 388.454 338.715 395.587C339.106 402.128 333.138 409.424 333.138 416.129C333.138 422.834 337.539 454.408 337.539 454.408L276.735 457.487C276.198 457.514 275.794 457.004 275.943 456.487L287.937 414.872L277.949 375.708Z" fill="#E3E9FF"/>
<path fill-rule="evenodd" clip-rule="evenodd" d="M314.8 363.326C314.656 363.692 314.331 363.962 313.927 364.021C310.441 364.524 307.264 364.822 304.395 364.915C301.648 365.003 299.184 364.903 297.003 364.614C296.532 364.552 296.159 364.198 296.064 363.744L297.476 363.6C300.247 363.33 302.709 363.16 304.864 363.09C307.951 362.99 311.263 363.069 314.8 363.326Z" fill="#265388"/>
<path fill-rule="evenodd" clip-rule="evenodd" d="M318.461 380.916C320.202 389.914 333.212 413.485 333.212 413.485L335.804 406.044L322.088 377.971C322.088 377.971 316.721 371.918 318.461 380.916Z" fill="#080708" fill-opacity="0.223011"/>
<path fill-rule="evenodd" clip-rule="evenodd" d="M333.774 373.751L349.221 405.052L368.083 376.807C368.145 376.714 368.184 376.607 368.197 376.496L369.419 365.827C369.419 365.827 373.771 355.349 375.046 358.575C375.599 359.976 374.353 362.009 375.046 366.996C375.174 367.921 382.643 362.874 385.848 360.661C386.371 360.3 387.071 360.758 386.951 361.382L384.691 373.04C384.66 373.199 384.575 373.343 384.451 373.446L373.771 382.37L359.321 417.361C356.171 424.99 345.606 425.615 341.579 418.41L320.221 380.209L333.774 373.751Z" fill="#E09282"/>
<path fill-rule="evenodd" clip-rule="evenodd" d="M334.748 370.145C332.57 365.471 326.967 363.512 322.351 365.811L321.937 366.017C317.222 368.366 315.451 374.196 318.064 378.77L341.341 419.525C345.372 426.583 355.697 426.12 359.08 418.73L374.142 385.826L365.207 380.515L350.032 402.945L334.748 370.145Z" fill="#265388"/>
<path fill-rule="evenodd" clip-rule="evenodd" d="M321.078 340.398L321.078 346.867C321.078 346.867 323.775 345.467 323.775 344.92C323.775 344.374 321.078 340.398 321.078 340.398Z" fill="#B9726B"/>
<path fill-rule="evenodd" clip-rule="evenodd" d="M298.274 363.463H312.375L311.044 356.844C311.044 356.844 316.841 357.461 319.48 353.693C322.119 349.925 321.755 330.299 321.755 330.299H298.274V363.463Z" fill="#E09282"/>
<path fill-rule="evenodd" clip-rule="evenodd" d="M311.044 356.844L308.104 356.418L312.375 363.463L311.044 356.844Z" fill="#B9726B"/>
<path fill-rule="evenodd" clip-rule="evenodd" d="M310.398 362.505C310.398 359.929 309.777 356.418 309.213 341.507C309.087 338.171 312.774 337.508 312.774 337.508L313.471 344.421C313.495 344.661 313.697 344.844 313.938 344.844C314.143 344.844 314.324 344.71 314.386 344.514L316.549 337.589C317.055 335.968 318.382 334.745 319.824 333.848C321.32 332.918 323.047 331.343 323.614 328.859C324.682 324.178 321.394 319.338 317.361 320.07C306.706 309.502 285.299 318.276 285.263 331.343C285.235 341.714 283.539 359.553 284.488 363.314C285.437 367.075 310.398 367.385 310.398 362.505Z" fill="#321111"/>
<path fill-rule="evenodd" clip-rule="evenodd" d="M312.214 318.845C310.009 316.752 306.388 314.578 301.838 315.402C300.387 315.664 298.354 316.271 297.226 316.846C304.137 317.309 308.514 318.993 310.356 321.899C313.149 326.303 313.346 329.663 311.835 337.77L312.962 337.447C316.569 331.343 317.787 324.136 312.214 318.845Z" fill="#A0C6FF"/>
<path fill-rule="evenodd" clip-rule="evenodd" d="M321.076 487.16L333.2 572.84L326.844 572.756L314.72 488.056L321.076 487.16Z" fill="#A7C3FF"/>
<path fill-rule="evenodd" clip-rule="evenodd" d="M315.923 487.16L303.8 572.84L310.156 572.756L322.28 488.056L315.923 487.16Z" fill="#C8DAFF"/>
<path fill-rule="evenodd" clip-rule="evenodd" d="M356.356 487.16L368.48 572.84L362.124 572.756L350 488.056L356.356 487.16Z" fill="#A7C3FF"/>
<path fill-rule="evenodd" clip-rule="evenodd" d="M278.964 487.16L266.84 572.84L273.196 572.756L285.32 488.056L278.964 487.16Z" fill="#C8DAFF"/>
<path fill-rule="evenodd" clip-rule="evenodd" d="M361.004 492.2C366.525 492.2 371 487.725 371 482.204C371 476.683 366.525 472.208 361.004 472.208H320.383C314.661 472.208 309.88 467.855 309.343 462.159L302.836 393.049C302.299 387.353 297.518 383 291.797 383H265.374C258.915 383 253.823 388.499 254.318 394.938L261.012 481.962C261.457 487.739 266.274 492.2 272.068 492.2H361.004Z" fill="#A7C3FF"/>
<path fill-rule="evenodd" clip-rule="evenodd" d="M297.343 384.4L304.09 471.885C304.536 477.661 309.353 482.12 315.146 482.12H370.844L370.998 482.118L371 481.924C371 476.418 366.536 471.954 361.03 471.954H320.528C314.808 471.954 310.027 467.603 309.489 461.909L302.986 393.046C302.632 389.294 300.436 386.125 297.343 384.4Z" fill="#C8DAFF"/>
<path fill-rule="evenodd" clip-rule="evenodd" d="M494.095 57.577L494.096 56.5577C481.894 53.2171 472.927 42.05 472.927 28.7885C472.927 15.527 481.894 4.35985 494.096 1.0193L494.095 0H501.716C517.615 0 530.504 12.889 530.504 28.7885C530.504 44.5289 517.872 57.3189 502.192 57.5731L501.716 57.577H494.095Z" fill="#A7C3FF"/>
<path fill-rule="evenodd" clip-rule="evenodd" d="M495.788 57.577C511.688 57.577 524.577 44.6879 524.577 28.7885C524.577 12.889 511.688 0 495.788 0C479.889 0 467 12.889 467 28.7885C467 44.6879 479.889 57.577 495.788 57.577Z" fill="#C8DAFF"/>
<path fill-rule="evenodd" clip-rule="evenodd" d="M495.568 54.6134C509.831 54.6134 521.393 43.0512 521.393 28.7885C521.393 14.5257 509.831 2.9635 495.568 2.9635C481.305 2.9635 469.743 14.5257 469.743 28.7885C469.743 43.0512 481.305 54.6134 495.568 54.6134Z" fill="#A7C3FF"/>
<path d="M497.696 3.13047L498.109 3.08691C511.179 4.36312 521.393 15.383 521.393 28.7885C521.393 42.194 511.179 53.2139 498.109 54.4901C485.038 53.2144 474.824 42.1943 474.824 28.7885C474.824 15.5242 484.824 4.59549 497.696 3.13047L498.109 3.08691L497.696 3.13047Z" fill="#EAEFFF"/>
<path fill-rule="evenodd" clip-rule="evenodd" d="M497.27 7.48697V30.4835C497.27 30.8343 497.554 31.1186 497.905 31.1186C498.256 31.1186 498.54 30.8343 498.54 30.4835V7.48697C498.54 7.13625 498.256 6.85193 497.905 6.85193C497.554 6.85193 497.27 7.13625 497.27 7.48697Z" fill="#A7C3FF"/>
<path fill-rule="evenodd" clip-rule="evenodd" d="M498.544 29.6395L485.348 19.6565C484.882 19.3039 484.218 19.3959 483.865 19.862C483.513 20.3282 483.605 20.992 484.071 21.3447L497.267 31.3276C497.733 31.6803 498.396 31.5883 498.749 31.1221C499.102 30.656 499.01 29.9922 498.544 29.6395Z" fill="#A7C3FF"/>
<path fill-rule="evenodd" clip-rule="evenodd" d="M380 200.68C380 199.752 379.248 199 378.32 199H122.12C121.192 199 120.44 199.752 120.44 200.68V209.92C120.44 210.848 121.192 211.6 122.12 211.6H378.32C379.248 211.6 380 210.848 380 209.92V200.68Z" fill="#9AB9FA"/>
<path fill-rule="evenodd" clip-rule="evenodd" d="M301.399 211.571L323.629 243.126V211.571H301.399Z" fill="#9AB9FA"/>
<path fill-rule="evenodd" clip-rule="evenodd" d="M298.52 207.4H285.92L311.12 243.52H323.72L298.52 207.4Z" fill="#C8DAFF"/>
<path fill-rule="evenodd" clip-rule="evenodd" d="M157.759 211.571L179.989 243.126V211.571H157.759Z" fill="#9AB9FA"/>
<path fill-rule="evenodd" clip-rule="evenodd" d="M154.88 207.4H142.28L167.48 243.52H180.08L154.88 207.4Z" fill="#C8DAFF"/>
<path fill-rule="evenodd" clip-rule="evenodd" d="M338 200.68C338 199.752 337.248 199 336.32 199L105.32 199C104.392 199 103.64 199.752 103.64 200.68V209.92C103.64 210.848 104.392 211.6 105.32 211.6H336.32C337.248 211.6 338 210.848 338 209.92L338 200.68Z" fill="#C8DAFF"/>
<path d="M211.17 172.672C211.087 171.505 212.011 170.512 213.181 170.512H245.139C246.309 170.512 247.233 171.505 247.15 172.672L245.422 196.864C245.346 197.919 244.469 198.736 243.411 198.736H214.909C213.852 198.736 212.974 197.919 212.898 196.864L211.17 172.672Z" fill="#F5AC00"/>
<path d="M218.481 172.987C218.481 172.987 214.282 164.867 212.42 157.94C210.558 151.013 210.391 142.893 210.391 142.893C210.391 142.893 215.874 148.617 220.795 156.74C225.715 164.864 228.62 172.987 228.62 172.987H218.481Z" fill="#4ED266"/>
<path fill-rule="evenodd" clip-rule="evenodd" d="M240.69 172.987C240.69 172.987 244.889 164.867 246.751 157.94C248.613 151.013 248.78 142.893 248.78 142.893C248.78 142.893 243.296 148.617 238.376 156.74C233.455 164.864 230.551 172.987 230.551 172.987H240.69Z" fill="#40B955"/>
<path d="M236.208 172.987C236.208 172.987 239.471 161.502 239.71 150.016C239.949 138.531 237.163 127.046 237.163 127.046C237.163 127.046 231.366 138.531 228.592 150.016C225.819 161.502 226.069 172.987 226.069 172.987H236.208Z" fill="#4ED266"/>
<path fill-rule="evenodd" clip-rule="evenodd" d="M224.529 172.987C224.529 172.987 221.266 161.502 221.027 150.016C220.788 138.531 223.573 127.046 223.573 127.046C223.573 127.046 229.37 138.531 232.144 150.016C234.918 161.502 234.667 172.987 234.667 172.987H224.529Z" fill="#40B955"/>
<rect x="209" y="168.496" width="40.32" height="8.064" fill="#FFBF29"/>
<path d="M319.622 171.729L327.058 198.665H321.023L314.399 174.694L319.622 171.729Z" fill="#F5AC00"/>
<path d="M293.8 157H323.253L328.24 159.52L318.16 199H282.88L293.8 157Z" fill="#F5AC00"/>
<path d="M287.92 157H323.2L312.28 199H277L287.92 157Z" fill="#FFBF29"/>
<path d="M291.889 161.2L317.32 161.2L308.311 194.8H282.88L291.889 161.2Z" fill="#EFF3FF"/>
<path d="M291.889 161.2H298L288.991 194.8H282.88L291.889 161.2Z" fill="#F5AC00"/>
</svg>
