<svg width="903" height="421" viewBox="0 0 903 421" fill="none" xmlns="http://www.w3.org/2000/svg">
<path fill-rule="evenodd" clip-rule="evenodd" d="M795.552 360.579H783.285L788.028 284.57L806.409 193.593H843.543L809.568 284.57C809.568 284.57 810.038 301.196 807.988 312.075C805.937 322.954 795.552 360.579 795.552 360.579Z" fill="#5D3B2A"/>
<path fill-rule="evenodd" clip-rule="evenodd" d="M797.038 359.389C797.213 359.392 797.334 359.559 797.29 359.728C797.014 360.79 796.228 364.146 796.752 366.197C797.381 368.658 799.654 376.162 798.617 378.082C797.579 380.002 797.713 380.89 797.713 380.89L783.297 382.056C783.297 382.056 777.292 384.36 771.659 383.722C766.025 383.084 760.555 380.89 760.555 380.89C760.555 380.89 759.935 375.922 761.5 375.075C763.064 374.228 765.024 375.075 768.367 375.075C771.709 375.075 772.249 374.883 772.249 374.883C772.249 374.883 772.626 373.624 772.977 373.228C773.328 372.832 777.38 370.617 779.631 368.096C781.883 365.574 781.583 359.691 781.883 359.395C782.155 359.126 794.784 359.347 797.038 359.389Z" fill="#283845"/>
<path fill-rule="evenodd" clip-rule="evenodd" d="M798.587 379.276C798.587 379.276 798.697 382.784 797.928 383.322C797.158 383.86 788.11 384.246 788.11 384.246V382.43C788.11 382.43 784.439 382.345 782.797 382.983C781.156 383.622 778.01 384.907 772.901 384.577C767.792 384.246 759.364 381.038 759.364 381.038L759.941 379.544C759.941 379.544 767.772 382.43 772.901 382.43C778.03 382.43 784.771 380.639 787.317 380.374C789.863 380.108 798.587 379.276 798.587 379.276Z" fill="#1C2731"/>
<path fill-rule="evenodd" clip-rule="evenodd" d="M858.479 193.593L862.637 282.194C862.637 282.194 868.242 289.374 873.115 301.663C876.083 309.148 881.203 325.816 887.811 351.668C888.435 354.113 876.774 358.915 876.774 358.915L839.645 284.404L820.811 193.593H858.479Z" fill="#81533C"/>
<path fill-rule="evenodd" clip-rule="evenodd" d="M840.202 196.543L850.467 211.05L848.963 196.605L840.202 196.543Z" fill="#5D3B2A"/>
<path d="M849.025 193.925L857.565 282.987C857.568 283.019 857.576 283.051 857.588 283.08L886.385 353.866" stroke="#5D3B2A" stroke-width="0.5"/>
<path fill-rule="evenodd" clip-rule="evenodd" d="M888.466 350.995C888.626 350.924 888.806 351.024 888.838 351.196C889.036 352.275 889.741 355.649 891.083 357.286C892.693 359.251 897.925 365.091 897.796 367.27C897.668 369.448 898.164 370.196 898.164 370.196L885.592 377.346C885.592 377.346 881.123 382.969 875.748 384.772C870.372 386.575 864.487 385.567 864.487 385.567C864.487 385.567 861.826 381.327 862.886 379.898C863.946 378.469 872.547 376.512 872.547 376.512C872.547 376.512 872.357 374.213 872.508 373.706C872.658 373.199 875.394 369.479 876.369 366.242C877.344 363.006 874.586 357.8 874.733 357.406C874.866 357.047 886.405 351.91 888.466 350.995Z" fill="#354C5D"/>
<path fill-rule="evenodd" clip-rule="evenodd" d="M898.274 368.365C898.274 368.365 899.856 371.497 899.386 372.31C898.916 373.123 890.879 377.296 890.879 377.296L890.112 375.65C890.112 375.65 886.748 377.125 885.531 378.397C884.313 379.67 882.005 383.162 877.235 385.022C872.465 386.881 863.471 386.205 863.471 386.205L863.362 384.607C863.362 384.607 871.679 385.243 876.327 383.076C880.976 380.908 886.329 375.439 888.524 374.122C890.719 372.806 898.274 368.365 898.274 368.365Z" fill="#283845"/>
<path fill-rule="evenodd" clip-rule="evenodd" d="M800.03 138.048L792.351 156.663L788.732 130.526C788.274 127.26 788.012 125.438 787.947 125.058C787.701 123.62 789.392 120.584 789.601 117.599L789.629 117.135C789.837 114.156 790.852 110.606 790.708 109.605C790.559 108.57 789.21 109.24 788.367 109.914C786.487 111.418 786.626 113.456 785.429 115.946C785.006 116.825 780.99 107.909 779.39 107.909C777.789 107.909 772.923 115.531 772.923 117.937C772.923 119.541 775.317 122.768 780.105 127.62L781.912 168.921C782.137 174.061 786.485 178.044 791.624 177.819C795.018 177.671 798.063 175.686 799.568 172.639L813.48 144.472L800.03 138.048Z" fill="#E09282"/>
<path fill-rule="evenodd" clip-rule="evenodd" d="M806.256 120.226C808.186 115.656 813.556 113.643 818.014 115.818L819.612 116.597C823.929 118.703 825.704 123.923 823.564 128.223L801.599 172.363C796.607 182.395 781.56 179.38 780.818 168.199L778.348 130.957L779.961 130.562L782.257 142.139L783.18 129.775L789.619 128.201L793.039 151.519L806.256 120.226Z" fill="#81533C"/>
<path fill-rule="evenodd" clip-rule="evenodd" d="M809.411 156.24C809.411 156.24 803.51 169.634 801.566 172.585C799.622 175.536 798.8 176.073 798.8 176.073L806.801 133.543L809.411 156.24Z" fill="#080708" fill-opacity="0.340226"/>
<path d="M793.038 151.52L794.206 162.46" stroke="#090909" stroke-opacity="0.200748" stroke-width="0.8316" stroke-linecap="round"/>
<path fill-rule="evenodd" clip-rule="evenodd" d="M862.584 121.84C862.69 118.029 859.853 114.776 856.064 114.362L832.335 111.769L814.392 114.278C810.983 114.755 808.367 117.543 808.108 120.975L802.231 198.92H860.443L862.584 121.84Z" fill="#E3E9FF"/>
<path fill-rule="evenodd" clip-rule="evenodd" d="M842.065 112.832L841.474 112.839L839.763 117.962C835.414 131.055 832.766 139.598 831.82 143.591L831.305 145.845C830.527 149.32 829.146 156.303 829.978 162.208L830.06 162.768C830.784 167.563 832.564 175.569 835.4 186.786L862.439 184.617L862.74 121.689C862.758 117.941 859.942 114.786 856.217 114.379L842.065 112.832ZM821.684 113.257L814.247 114.298C810.904 114.766 808.315 117.459 807.979 120.818L801.566 184.95L811.698 186.244L812.189 184.798C815.558 174.777 817.536 166.849 818.124 161.014C818.679 155.499 818.072 146.797 818.514 141.657L818.716 139.333C819.748 127.653 820.737 118.96 821.684 113.257Z" fill="#81533C"/>
<path fill-rule="evenodd" clip-rule="evenodd" d="M821.39 113.257C815.766 118.734 813.688 122.74 813.023 128.795C812.358 134.85 818.106 161.015 818.106 161.015C818.106 161.015 821.239 135.538 822.038 128.188C822.836 120.838 823.315 112.962 823.315 112.962L821.39 113.257Z" fill="#BA6136"/>
<path fill-rule="evenodd" clip-rule="evenodd" d="M841.732 112.832C840.942 113.285 836.443 123.532 833.366 134.561C830.532 144.719 829.01 156.04 829.667 158.849C829.667 158.849 842.872 134.447 844.618 127.287L844.671 127.066C846.391 119.82 845.225 115.098 841.836 112.898L841.732 112.832Z" fill="#BA6136"/>
<path fill-rule="evenodd" clip-rule="evenodd" d="M849.814 132.455L862.634 174.513V149.579L849.814 132.455Z" fill="#080708" fill-opacity="0.340226"/>
<path fill-rule="evenodd" clip-rule="evenodd" d="M845.4 174.7C845.4 173.706 844.594 172.9 843.6 172.9H795C794.006 172.9 793.2 173.706 793.2 174.7V180.1C793.2 181.094 794.006 181.9 795 181.9H843.6C844.594 181.9 845.4 181.094 845.4 180.1V174.7Z" fill="#FF326F"/>
<path fill-rule="evenodd" clip-rule="evenodd" d="M845.4 174.7C845.4 173.706 844.594 172.9 843.6 172.9L817.5 172.9C816.506 172.9 815.7 173.706 815.7 174.7V180.1C815.7 181.094 816.506 181.9 817.5 181.9H843.6C844.594 181.9 845.4 181.094 845.4 180.1V174.7Z" fill="#FF5D8E"/>
<path d="M843.6 175.42C843.6 174.525 842.875 173.8 841.98 173.8L794.1 173.8C793.603 173.8 793.2 174.203 793.2 174.7V180.1C793.2 180.597 793.603 181 794.1 181H841.98C842.875 181 843.6 180.275 843.6 179.38V175.42Z" fill="#EAEFFF"/>
<path fill-rule="evenodd" clip-rule="evenodd" d="M815.7 175.42C815.7 174.525 814.974 173.8 814.08 173.8H794.1C793.603 173.8 793.2 174.203 793.2 174.7V180.1C793.2 180.597 793.603 181 794.1 181H814.08C814.974 181 815.7 180.275 815.7 179.38V175.42Z" fill="#C1D7FF"/>
<path d="M845.4 165.7C845.4 164.706 844.594 163.9 843.6 163.9H795C794.006 163.9 793.2 164.706 793.2 165.7V171.1C793.2 172.094 794.006 172.9 795 172.9H843.6C844.594 172.9 845.4 172.094 845.4 171.1V165.7Z" fill="#F5AC00"/>
<path d="M845.4 165.7C845.4 164.706 844.594 163.9 843.6 163.9L817.5 163.9C816.506 163.9 815.7 164.706 815.7 165.7V171.1C815.7 172.094 816.506 172.9 817.5 172.9H843.6C844.594 172.9 845.4 172.094 845.4 171.1V165.7Z" fill="#FFBF29"/>
<path d="M843.6 166.42C843.6 165.525 842.875 164.8 841.98 164.8L794.1 164.8C793.603 164.8 793.2 165.203 793.2 165.7V171.1C793.2 171.597 793.603 172 794.1 172H841.98C842.875 172 843.6 171.275 843.6 170.38V166.42Z" fill="#EAEFFF"/>
<path fill-rule="evenodd" clip-rule="evenodd" d="M815.7 166.42C815.7 165.525 814.974 164.8 814.08 164.8H794.1C793.603 164.8 793.2 165.203 793.2 165.7V171.1C793.2 171.597 793.603 172 794.1 172H814.08C814.974 172 815.7 171.275 815.7 170.38V166.42Z" fill="#C1D7FF"/>
<path d="M845.4 156.7C845.4 155.706 844.594 154.9 843.6 154.9H795C794.006 154.9 793.2 155.706 793.2 156.7V162.1C793.2 163.094 794.006 163.9 795 163.9H843.6C844.594 163.9 845.4 163.094 845.4 162.1V156.7Z" fill="#B34EE6"/>
<path d="M845.4 156.7C845.4 155.706 844.594 154.9 843.6 154.9L817.5 154.9C816.506 154.9 815.7 155.706 815.7 156.7V162.1C815.7 163.094 816.506 163.9 817.5 163.9H843.6C844.594 163.9 845.4 163.094 845.4 162.1V156.7Z" fill="#CF6FFF"/>
<path d="M845.4 157.42C845.4 156.525 844.675 155.8 843.78 155.8L818.4 155.8C817.406 155.8 816.6 156.606 816.6 157.6V161.2C816.6 162.194 817.406 163 818.4 163H843.78C844.675 163 845.4 162.275 845.4 161.38V157.42Z" fill="#EAEFFF"/>
<path fill-rule="evenodd" clip-rule="evenodd" d="M862.292 148.516L869.439 161.609C869.439 161.609 841.762 172.34 832.844 174.814C829.773 175.666 825.793 167.9 821.297 169.017C819.566 169.447 826.393 175.704 823.135 176.275C815.864 177.551 810.262 178.788 809.744 180.339C809.108 182.241 817.115 186.835 820.669 187.385C822.626 187.688 828.345 185.646 835.232 183.81C840.155 182.498 860.29 178.102 874.695 174.99C882.378 173.331 886.426 164.852 882.87 157.841L874.492 141.322L862.292 148.516Z" fill="#E09282"/>
<path fill-rule="evenodd" clip-rule="evenodd" d="M863.961 119.293C861.719 114.764 856.087 113.114 851.755 115.717L850.319 116.58C846.252 119.023 844.913 124.287 847.318 128.377L866.117 160.349L836.575 172.165L841.132 180.8L849.809 179.795L842.425 183.249L842.976 184.294L878.538 174.767C884.42 173.191 887.389 166.627 884.688 161.17L863.961 119.293Z" fill="#81533C"/>
<path d="M860.316 162.46L837.199 171.678" stroke="#090909" stroke-opacity="0.200748" stroke-width="0.8316" stroke-linecap="round"/>
<path d="M863.091 178.906L842.976 184.293" stroke="#090909" stroke-opacity="0.200748" stroke-width="0.8316" stroke-linecap="round"/>
<path fill-rule="evenodd" clip-rule="evenodd" d="M833.362 102.586C827.115 102.586 822.052 97.5228 822.052 91.2766C822.052 85.0303 827.115 79.9668 833.362 79.9668C839.608 79.9668 844.671 85.0303 844.671 91.2766C844.671 97.5228 839.608 102.586 833.362 102.586Z" fill="#321111"/>
<path fill-rule="evenodd" clip-rule="evenodd" d="M838.518 91.2764C833.649 91.2764 829.703 87.3298 829.703 82.4614C829.703 77.5931 833.649 73.6465 838.518 73.6465C843.386 73.6465 847.333 77.5931 847.333 82.4614C847.333 87.3298 843.386 91.2764 838.518 91.2764Z" fill="#321111"/>
<path fill-rule="evenodd" clip-rule="evenodd" d="M825.045 82.6278C819.902 82.6278 815.732 78.4579 815.732 73.3139C815.732 68.17 819.902 64 825.045 64C830.189 64 834.359 68.17 834.359 73.3139C834.359 78.4579 830.189 82.6278 825.045 82.6278Z" fill="#321111"/>
<path fill-rule="evenodd" clip-rule="evenodd" d="M834.193 79.9666C830.978 79.9666 828.372 77.3604 828.372 74.1454C828.372 70.9305 830.978 68.3242 834.193 68.3242C837.408 68.3242 840.015 70.9305 840.015 74.1454C840.015 77.3604 837.408 79.9666 834.193 79.9666Z" fill="#321111"/>
<path fill-rule="evenodd" clip-rule="evenodd" d="M814.734 82.2951C810.141 82.2951 806.418 78.5719 806.418 73.9791C806.418 69.3863 810.141 65.6631 814.734 65.6631C819.327 65.6631 823.05 69.3863 823.05 73.9791C823.05 78.5719 819.327 82.2951 814.734 82.2951Z" fill="#321111"/>
<path fill-rule="evenodd" clip-rule="evenodd" d="M817.062 94.2702C812.47 94.2702 808.746 90.547 808.746 85.9542C808.746 81.3614 812.47 77.6382 817.062 77.6382C821.655 77.6382 825.378 81.3614 825.378 85.9542C825.378 90.547 821.655 94.2702 817.062 94.2702Z" fill="#321111"/>
<path fill-rule="evenodd" clip-rule="evenodd" d="M837.736 112.772C837.736 116.184 834.97 118.948 831.559 118.948C827.869 118.948 825.002 115.733 825.422 112.067L825.964 107.339C825.964 107.339 818.171 107.956 815.532 104.188C812.893 100.42 813.257 80.7935 813.257 80.7935L837.736 80.7935C837.736 80.7935 837.736 85.6589 837.736 87.3462C845.209 87.3462 845.209 96.3702 837.736 96.3702C837.736 101.733 837.736 108.152 837.736 112.772Z" fill="#E09282"/>
<path fill-rule="evenodd" clip-rule="evenodd" d="M832.696 86.6196C829.022 86.6196 826.044 83.641 826.044 79.9668C826.044 76.2925 829.022 73.314 832.696 73.314C836.371 73.314 839.349 76.2925 839.349 79.9668C839.349 83.641 836.371 86.6196 832.696 86.6196Z" fill="#321111"/>
<path fill-rule="evenodd" clip-rule="evenodd" d="M823.382 83.9584C819.708 83.9584 816.73 80.9799 816.73 77.3056C816.73 73.6314 819.708 70.6528 823.382 70.6528C827.057 70.6528 830.035 73.6314 830.035 77.3056C830.035 80.9799 827.057 83.9584 823.382 83.9584Z" fill="#321111"/>
<path fill-rule="evenodd" clip-rule="evenodd" d="M811.74 84.291C808.066 84.291 805.087 81.3124 805.087 77.6382C805.087 73.9639 808.066 70.9854 811.74 70.9854C815.415 70.9854 818.393 73.9639 818.393 77.6382C818.393 81.3124 815.415 84.291 811.74 84.291Z" fill="#321111"/>
<path d="M838.019 78.6362H834.36V91.1102C834.36 92.1206 835.179 92.9398 836.189 92.9398C837.199 92.9398 838.019 92.1206 838.019 91.1102V78.6362Z" fill="#321111"/>
<path fill-rule="evenodd" clip-rule="evenodd" d="M825.872 107.354C825.872 107.354 828.185 107.042 829.966 106.481C831.746 105.919 833.999 104.786 833.999 104.786C833.999 104.786 830.942 107.755 829.335 109.032C827.728 110.308 825.487 111.547 825.487 111.547L825.872 107.354Z" fill="#B9726B"/>
<path fill-rule="evenodd" clip-rule="evenodd" d="M817.359 88.3574L814.014 94.9166C813.918 95.1049 814.02 95.334 814.224 95.3889L817.359 96.232V88.3574Z" fill="#B9726B"/>
<path fill-rule="evenodd" clip-rule="evenodd" d="M292.989 348.899H279.683C279.683 348.899 280.206 364.201 278.574 365.976C276.943 367.751 262.312 374.771 262.312 374.771L290.402 371.075L292.989 348.899Z" fill="#616988"/>
<path fill-rule="evenodd" clip-rule="evenodd" d="M292.955 366.739C292.955 368.092 292.962 369.891 292.962 372.245C292.962 373.444 292.764 375.435 292.764 375.435C292.764 375.435 293.332 375.434 293.332 375.784C293.332 376.721 293.332 379.385 293.332 380.365C293.332 380.569 293.167 380.734 292.963 380.734L283.206 380.758C283.001 380.759 282.835 380.593 282.835 380.388V378.527C282.835 378.527 271.1 381.103 269.07 381.103C267.041 381.103 255.499 381.297 253.726 379.863C251.953 378.429 254.095 373.921 256.154 373.921C258.214 373.921 263.563 372.958 266.013 371.668C268.463 370.378 277.78 363.565 278.727 363.565C279.675 363.565 280.673 355.322 280.092 355.834C279.51 356.347 293.587 357.4 293.587 357.4C293.587 357.4 292.955 365.386 292.955 366.739Z" fill="#642F14"/>
<path fill-rule="evenodd" clip-rule="evenodd" d="M292.764 374.696L290.834 374.959C287.144 375.476 284.478 375.933 282.835 376.33L280.651 376.854C275.223 378.146 271.453 378.953 269.07 379.124C265.224 379.401 259.788 379.095 252.762 378.208C252.716 378.882 252.884 379.482 253.356 379.863C254.72 380.967 262.083 381.106 266.333 381.112L269.07 381.103C270.23 381.103 273.767 380.472 279.68 379.211L282.835 378.527V380.389L282.843 380.464C282.873 380.608 282.987 380.722 283.131 380.751L283.206 380.758L292.963 380.735C293.141 380.734 293.29 380.607 293.324 380.439L293.332 380.365L293.332 375.045C293.332 374.812 293.142 374.695 292.764 374.696Z" fill="#49210D"/>
<path fill-rule="evenodd" clip-rule="evenodd" d="M294.091 358.14H278.613L284.253 273.686L304.677 172.6H345.937L308.926 273.686C308.926 273.686 309.817 292.159 307.539 304.247C305.261 316.335 294.091 358.14 294.091 358.14Z" fill="#1C2731"/>
<path fill-rule="evenodd" clip-rule="evenodd" d="M296.563 355.277C296.624 355.042 296.447 354.813 296.205 354.813H277.096C276.892 354.813 276.726 354.978 276.726 355.183V361.466C276.726 361.67 276.892 361.835 277.096 361.835H294.552C294.72 361.835 294.866 361.722 294.909 361.56L296.563 355.277Z" fill="#324350"/>
<path fill-rule="evenodd" clip-rule="evenodd" d="M391.714 342.282L379.133 346.614C379.133 346.614 384.609 360.911 383.644 363.121C382.68 365.33 373.578 375.889 373.578 375.889L398.934 363.25L391.714 342.282Z" fill="#616988"/>
<path fill-rule="evenodd" clip-rule="evenodd" d="M401.736 363.522C402.126 364.656 402.587 366.603 402.587 366.603C402.587 366.603 403.123 366.417 403.237 366.748C403.542 367.634 404.41 370.153 404.729 371.08C404.795 371.272 404.693 371.482 404.5 371.549L395.283 374.748C395.089 374.815 394.878 374.712 394.812 374.519L394.206 372.759C394.206 372.759 383.948 379.015 382.029 379.676C380.111 380.337 369.26 380.952 367.117 380.173C364.974 379.394 365.531 374.435 367.479 373.764C369.427 373.093 374.17 373.768 376.067 371.75C377.964 369.733 382.108 361.1 383.004 360.792C383.9 360.483 382.16 352.364 381.777 353.038C381.395 353.712 395.048 350.125 395.048 350.125C395.048 350.125 400.969 361.296 401.736 363.522Z" fill="#823E1D"/>
<path fill-rule="evenodd" clip-rule="evenodd" d="M402.346 365.904L401.027 366.568C397.486 368.362 394.973 369.733 393.49 370.681L391.596 371.888C386.884 374.877 383.582 376.867 381.385 377.805C377.839 379.318 372.602 379.697 365.672 378.942C365.851 379.585 366.203 380.088 366.768 380.293C368.911 381.072 380.111 380.336 382.029 379.676L382.2 379.613C383.429 379.129 386.511 377.402 391.445 374.432L394.206 372.759L394.812 374.519L394.844 374.588C394.919 374.714 395.064 374.784 395.21 374.765L395.282 374.748L404.5 371.549C404.669 371.49 404.768 371.322 404.746 371.152L404.729 371.079L402.997 366.049C402.92 365.828 402.704 365.78 402.346 365.904Z" fill="#49210D"/>
<path fill-rule="evenodd" clip-rule="evenodd" d="M362.532 172.6L369 271.046C369 271.046 375.228 279.023 380.642 292.678C383.94 300.995 389.629 319.515 396.971 348.24C397.665 350.956 381.012 356.662 381.012 356.662L341.605 273.501L320.679 172.6H362.532Z" fill="#283845"/>
<path fill-rule="evenodd" clip-rule="evenodd" d="M342.224 172.552L353.63 188.671L351.959 172.621L342.224 172.552Z" fill="#141D23"/>
<path d="M352.027 172.97L361.516 271.927C361.52 271.963 361.528 271.998 361.542 272.031L393.886 351.536" stroke="#656C6D" stroke-width="0.5544"/>
<path fill-rule="evenodd" clip-rule="evenodd" d="M397.108 343.586C397.05 343.372 396.818 343.257 396.613 343.34L376.614 351.387C376.415 351.467 376.326 351.7 376.42 351.893L379.515 358.203C379.6 358.376 379.804 358.454 379.984 358.383L398.763 350.918C398.937 350.849 399.032 350.659 398.983 350.478L397.108 343.586Z" fill="#324350"/>
<path fill-rule="evenodd" clip-rule="evenodd" d="M297.349 110.242L288.96 126.625L258.193 97.0546C258.069 96.9354 257.991 96.7766 257.971 96.6057L256.7 85.5092C256.7 85.5092 249.385 73.7458 248.188 78.0283C247.741 79.6283 251.528 81.5064 250.802 86.7347C250.667 87.704 242.839 82.4136 239.479 80.0939C238.931 79.7157 238.197 80.1958 238.323 80.8494L240.692 93.0694C240.724 93.2363 240.813 93.3869 240.944 93.4959L252.138 102.85L280.68 141.816C285.115 147.87 294.318 147.339 298.026 140.814L311.555 117.011L297.349 110.242Z" fill="#FFC4A7"/>
<path fill-rule="evenodd" clip-rule="evenodd" d="M262.923 100.908L260.57 98.507L252.952 107.473L255.738 110.508L262.923 100.908Z" fill="#E3E9FF"/>
<path fill-rule="evenodd" clip-rule="evenodd" d="M303.278 89.4084C305.593 84.618 311.36 82.6207 316.142 84.9531L317.838 85.78C322.835 88.2176 324.727 94.3752 321.961 99.1984L296.757 143.138C293.543 148.74 285.722 149.402 281.613 144.42L253.698 110.572L262.436 99.6306L286.662 123.787L303.278 89.4084Z" fill="#283845"/>
<path fill-rule="evenodd" clip-rule="evenodd" d="M305.906 103.408L297.405 142.059L304.99 128.841L305.906 103.408Z" fill="#080708" fill-opacity="0.340226"/>
<path fill-rule="evenodd" clip-rule="evenodd" d="M366.971 91.5012C367.022 87.3141 363.886 83.7722 359.723 83.3173L333.244 80.4233L313.286 83.2146C309.508 83.7431 306.605 86.8275 306.306 90.631L299.795 173.563H365.953L366.971 91.5012Z" fill="#E3E9FF"/>
<path fill-rule="evenodd" clip-rule="evenodd" d="M331.058 90.5729H328.476L327.905 87.2642L333.09 87.8883L331.058 90.5729Z" fill="#0A2650"/>
<path fill-rule="evenodd" clip-rule="evenodd" d="M331.058 90.5727L326.743 151.434L320.339 158.779L314.795 151.588L328.476 90.2759L331.058 90.5727Z" fill="#0A2650"/>
<path fill-rule="evenodd" clip-rule="evenodd" d="M367.033 91.4396C367.049 87.2784 363.922 83.7763 359.785 83.3242L344.054 81.605C344.054 81.605 341.523 83.0544 334.382 102.787C327.24 122.519 322.187 142.025 322.187 142.025C322.187 142.025 320.438 113.672 320.594 103.614C320.75 93.5565 323.12 81.8394 323.12 81.8394L313.254 83.2192C309.49 83.7457 306.593 86.8093 306.277 90.5968L299.056 177.259H315.452L321.078 149.548L322.592 177.259H366.692L367.033 91.4396Z" fill="#283845"/>
<path fill-rule="evenodd" clip-rule="evenodd" d="M323.121 81.8394L321.228 82.1044L311.786 103.408L317.013 107.9L313.317 110.403L322.129 141.078L321.846 136.35C320.918 120.537 320.501 109.625 320.594 103.614C320.698 96.909 321.54 89.6508 323.121 81.8394Z" fill="#51677A"/>
<path fill-rule="evenodd" clip-rule="evenodd" d="M344.054 81.605C342.367 82.5712 339.143 89.6318 334.382 102.787C329.954 115.021 326.128 127.189 322.905 139.293L322.557 141.408L340.867 111.683L336.201 108.087L343.997 104.078L344.054 81.605Z" fill="#51677A"/>
<path fill-rule="evenodd" clip-rule="evenodd" d="M317.752 145.103C316.731 145.103 315.904 144.276 315.904 143.255C315.904 142.235 316.731 141.407 317.752 141.407C318.773 141.407 319.6 142.235 319.6 143.255C319.6 144.276 318.773 145.103 317.752 145.103Z" fill="#141D23"/>
<path fill-rule="evenodd" clip-rule="evenodd" d="M316.643 151.756C315.623 151.756 314.795 150.929 314.795 149.908C314.795 148.887 315.623 148.06 316.643 148.06C317.664 148.06 318.491 148.887 318.491 149.908C318.491 150.929 317.664 151.756 316.643 151.756Z" fill="#141D23"/>
<path fill-rule="evenodd" clip-rule="evenodd" d="M352.665 103.408L366.656 149.457L366.909 122.434L352.665 103.408Z" fill="#080708" fill-opacity="0.340226"/>
<path fill-rule="evenodd" clip-rule="evenodd" d="M366.529 121.135L374.47 135.683C374.47 135.683 309.845 113.993 309.251 114.981C308.268 116.614 314.335 119.579 315.914 121.537C317.493 123.494 315.914 129.024 317.636 131.092C318.387 131.994 326.245 132.004 328.861 132.004C329.963 132.004 342.409 136.998 361.473 146.781C362.911 147.52 367.229 149.34 372.572 151.526C383.642 156.058 394.451 144.691 389.493 133.804L380.084 113.142L366.529 121.135Z" fill="#FFC4A7"/>
<path fill-rule="evenodd" clip-rule="evenodd" d="M335.254 122.334L333.059 121.636L330.796 134.22L334.095 135.192L335.254 122.334Z" fill="#E3E9FF"/>
<path fill-rule="evenodd" clip-rule="evenodd" d="M368.314 88.8659C365.872 83.7491 359.553 81.8485 354.693 84.7688L353.089 85.7327C348.624 88.4152 347.109 94.1659 349.673 98.6996L368.387 131.797L334.993 121.373L333.059 136.26L373.741 152.182C384.666 156.458 395.183 145.15 390.129 134.563L368.314 88.8659Z" fill="#283845"/>
<path fill-rule="evenodd" clip-rule="evenodd" d="M330.312 121.249C330.312 121.249 325.287 111.103 323.503 111.224C321.719 111.344 325.023 120.977 325.023 120.977L330.312 121.249Z" fill="#FFC4A7"/>
<path d="M366.909 131.434L335.292 121.474" stroke="#060606" stroke-opacity="0.211948" stroke-width="0.924" stroke-linecap="round"/>
<path d="M366.909 149.457L333.09 136.175" stroke="#060606" stroke-opacity="0.211948" stroke-width="0.924" stroke-linecap="round"/>
<path fill-rule="evenodd" clip-rule="evenodd" d="M338.875 81.5391C338.875 85.3296 335.802 88.4005 332.011 88.4005C327.911 88.4005 324.726 84.8291 325.193 80.7556L325.795 75.5019C325.795 75.5019 317.136 76.1878 314.204 72.001C312.568 69.6646 311.97 58.7333 311.762 49.5274C311.593 42.0446 317.694 36.0278 325.179 36.0278H327.957C335.509 36.0278 341.632 42.1527 341.632 49.7053C341.632 51.7841 341.632 53.3369 341.632 53.6098C347.452 55.3253 346.287 63.3145 338.875 63.3145C338.875 69.2737 338.875 76.4056 338.875 81.5391Z" fill="#FFC4A7"/>
<path fill-rule="evenodd" clip-rule="evenodd" d="M339.243 53.4128C339.052 53.3941 338.879 53.5247 338.844 53.7135L337.87 58.9897C337.788 59.432 337.402 59.753 336.952 59.753C336.532 59.753 336.163 59.4723 336.051 59.0668C335.714 57.8484 335.01 55.3403 334.651 54.3279C334.413 53.6598 333.422 51.9565 332.474 50.3952C331.308 48.4729 329.171 47.3744 326.924 47.4508C324.559 47.5311 321.401 47.6156 318.581 47.6156C314.333 47.6156 312.455 47.5032 311.855 47.4561C311.715 47.4451 311.598 47.3547 311.556 47.2203C311.163 45.9679 309.43 39.5796 313.882 36.5871C316.819 34.6125 324.408 34.3658 332.016 34.713C341.455 35.1437 346.513 45.4684 341.812 53.6645L339.243 53.4128Z" fill="#546A8B"/>
<path fill-rule="evenodd" clip-rule="evenodd" d="M321.448 65.3163C321.448 64.9354 321.202 64.5991 320.833 64.5025C319.999 64.284 318.44 63.9375 316.945 63.9375C315.459 63.9375 313.972 64.28 313.175 64.4988C312.815 64.5973 312.578 64.9275 312.578 65.3001C312.578 65.8988 313.174 66.3316 313.756 66.1927C314.579 65.9963 315.743 65.7855 316.945 65.7855C318.182 65.7855 319.419 66.0086 320.283 66.2097C320.863 66.3448 321.448 65.912 321.448 65.3163Z" fill="#546A8B"/>
<path fill-rule="evenodd" clip-rule="evenodd" d="M322.557 65.8646C322.557 65.3781 322.24 64.9483 321.775 64.805L320.687 64.4697L319.97 64.6182V72.0685H322.557V65.8646Z" fill="#546A8B"/>
<path d="M322.557 70.5903H312.208V72.0687C312.208 74.3141 314.029 76.1343 316.274 76.1343H318.492C320.737 76.1343 322.557 74.3141 322.557 72.0687V70.5903Z" fill="#546A8B"/>
<path fill-rule="evenodd" clip-rule="evenodd" d="M313.687 64.584H313.317C312.705 64.584 312.208 65.0804 312.208 65.6928V72.0689H313.687V64.584Z" fill="#546A8B"/>
<path fill-rule="evenodd" clip-rule="evenodd" d="M325.692 75.5182C325.692 75.5182 328.262 75.1718 330.241 74.548C332.22 73.9242 334.723 72.6646 334.723 72.6646C334.723 72.6646 331.326 75.9642 329.541 77.3824C327.755 78.8007 325.264 80.1774 325.264 80.1774L325.692 75.5182Z" fill="#F19B93"/>
<path fill-rule="evenodd" clip-rule="evenodd" d="M316.234 54.4106L312.518 61.6986C312.411 61.9079 312.524 62.1623 312.751 62.2234L316.234 63.1602V54.4106Z" fill="#F19B93"/>
<path d="M590.8 263.6H589.12C578.914 263.6 570.64 271.874 570.64 282.08V282.92H590.8V263.6Z" fill="#A7C3FF"/>
<path fill-rule="evenodd" clip-rule="evenodd" d="M656.165 189.822C656.249 188.842 655.475 188 654.491 188H596.543C595.671 188 594.943 188.668 594.869 189.538L586.6 287.12H644.833C646.578 287.12 648.033 285.783 648.181 284.044L656.165 189.822Z" fill="#C8DAFF"/>
<path d="M647.92 263.6H646.24C636.034 263.6 627.76 271.874 627.76 282.08V282.92H647.92V263.6Z" fill="#A7C3FF"/>
<path fill-rule="evenodd" clip-rule="evenodd" d="M657.846 189.822C657.929 188.842 657.155 188 656.172 188H648.624C647.751 188 647.023 188.668 646.95 189.538L638.68 287.12H646.513C648.258 287.12 649.713 285.783 649.861 284.044L657.846 189.822Z" fill="#A7C3FF"/>
<rect width="7.56" height="68.04" transform="matrix(-1 0 0 1 600.04 290.48)" fill="#C8DAFF"/>
<path fill-rule="evenodd" clip-rule="evenodd" d="M631.12 362.72L595.84 350.96L560.56 362.72V366.92L595.84 358.52L631.12 366.92V362.72Z" fill="#A7C3FF"/>
<path fill-rule="evenodd" clip-rule="evenodd" d="M559.72 370.28C556.936 370.28 554.68 368.024 554.68 365.24C554.68 362.457 556.936 360.2 559.72 360.2C562.503 360.2 564.76 362.457 564.76 365.24C564.76 368.024 562.503 370.28 559.72 370.28Z" fill="#A7C3FF"/>
<path fill-rule="evenodd" clip-rule="evenodd" d="M595.84 370.28C593.056 370.28 590.8 368.024 590.8 365.24C590.8 362.457 593.056 360.2 595.84 360.2C598.623 360.2 600.88 362.457 600.88 365.24C600.88 368.024 598.623 370.28 595.84 370.28Z" fill="#A7C3FF"/>
<path fill-rule="evenodd" clip-rule="evenodd" d="M599.2 354.32H592.48L593.32 366.08H598.36L599.2 354.32Z" fill="#A7C3FF"/>
<path fill-rule="evenodd" clip-rule="evenodd" d="M631.96 370.28C629.176 370.28 626.92 368.024 626.92 365.24C626.92 362.457 629.176 360.2 631.96 360.2C634.744 360.2 637 362.457 637 365.24C637 368.024 634.744 370.28 631.96 370.28Z" fill="#A7C3FF"/>
<path fill-rule="evenodd" clip-rule="evenodd" d="M610.96 282.92H580.72V292.16L591.761 298.294C594.298 299.703 597.382 299.703 599.919 298.294L610.96 292.16V282.92Z" fill="#A7C3FF"/>
<path fill-rule="evenodd" clip-rule="evenodd" d="M610.12 277.04H537.04C536.112 277.04 535.36 277.792 535.36 278.72V285.44C535.36 286.368 536.112 287.12 537.04 287.12H610.12V277.04Z" fill="#C8DAFF"/>
<path fill-rule="evenodd" clip-rule="evenodd" d="M649.6 277.04H586.6V287.12H646.24C648.096 287.12 649.6 285.616 649.6 283.76V277.04Z" fill="#A7C3FF"/>
<path fill-rule="evenodd" clip-rule="evenodd" d="M548.241 364.297C544.902 364.531 538.448 364.805 537.309 364.297C536.918 364.123 536.795 363.864 536.804 363.601C536.827 362.827 537.637 362.365 538.302 361.969C539.815 361.068 542.877 359.327 546.211 357.89C550.935 355.854 556.089 345.618 556.428 343.024C556.897 339.429 550.409 327.827 550.409 327.827L563.557 326.95C563.557 326.95 567.655 341.839 569.337 344.609C569.775 345.329 572.069 350.927 571.088 353.04C570.025 355.332 567.849 355.707 564.318 357.458C556.922 361.126 556.922 363.313 548.241 364.297Z" fill="#F1B395"/>
<path fill-rule="evenodd" clip-rule="evenodd" d="M568.999 342.479C568.999 342.479 574.8 345.015 572.394 352.554C569.988 360.093 570.289 362.788 570.289 362.788H566.412V357.42C566.412 357.42 561.66 358.671 560.718 359.407C557.974 361.554 555.577 364.102 553.651 364.581C549.771 365.548 534.203 365.89 534.203 363.864C534.203 361.838 540.776 358.31 546.483 354.617C552.191 350.924 555.609 342.479 555.609 342.479H563.386L565.292 345.854L567.306 342.479H568.999Z" fill="#1B2731"/>
<path fill-rule="evenodd" clip-rule="evenodd" d="M615.481 245.248C615.481 245.248 610.184 277.188 589.719 277.188C569.254 277.188 550.791 274.623 550.791 274.623C550.791 274.623 554.069 288.056 557.012 299.373C559.956 310.689 566.572 336.11 566.572 336.11H553.466L524.238 275.697C518.489 263.814 526.452 249.861 539.608 248.767L581.919 245.248V240.208H615.481V245.248Z" fill="#1B2731"/>
<path fill-rule="evenodd" clip-rule="evenodd" d="M502.781 365.406C499.441 365.639 492.988 365.914 491.849 365.406C491.457 365.231 491.335 364.973 491.343 364.709C491.367 363.936 492.177 363.473 492.842 363.078C494.355 362.177 497.416 360.435 500.75 358.999C505.474 356.962 509.268 353.706 510.629 348.867C511.99 344.028 514.92 330.537 514.92 330.537L528.11 329.948C528.11 329.948 523.877 341.807 523.877 345.717C523.877 346.562 526.608 352.036 525.628 354.149C524.564 356.441 522.389 356.816 518.857 358.567C511.462 362.234 516.835 364.594 502.781 365.406Z" fill="#F1B395"/>
<path fill-rule="evenodd" clip-rule="evenodd" d="M524.278 343.588C524.278 343.588 530.078 346.124 527.672 353.663C525.266 361.202 525.567 363.897 525.567 363.897H521.69V358.529C521.69 358.529 519.606 358.345 518.664 359.081C515.92 361.229 510.855 365.211 508.929 365.69C505.049 366.656 489.481 366.999 489.481 364.973C489.481 362.947 496.054 359.419 501.762 355.726C507.47 352.033 510.888 343.588 510.888 343.588H518.664L520.57 346.962L522.585 343.588H524.278Z" fill="#283845"/>
<path fill-rule="evenodd" clip-rule="evenodd" d="M634.859 245.305C634.859 245.305 637.627 278.767 611.84 278.375C591.378 278.064 547.446 273.112 547.446 273.112C547.446 273.112 546.728 290.315 542.697 300.469C538.666 310.623 526.741 337.017 526.741 337.017H512.851L526.105 268.186C527.799 259.388 534.946 252.668 543.832 251.519L591.895 245.305V240.265L635.192 240.265L634.859 245.305Z" fill="#283845"/>
<path fill-rule="evenodd" clip-rule="evenodd" d="M614.746 245.676L623.195 260.77L625.065 245.358L614.746 245.676Z" fill="#4C6A82"/>
<path d="M624.84 240.265L623.933 254.694C623.346 264.033 615.416 271.198 606.066 270.838L546.585 268.549C544.352 268.464 542.355 269.928 541.765 272.083L523.985 337.069" stroke="#4C6A82" stroke-width="0.587664"/>
<path fill-rule="evenodd" clip-rule="evenodd" d="M579.956 171.413L567.06 199.118L563.223 171.413C562.738 167.951 562.461 166.019 562.392 165.617C562.131 164.092 563.923 160.874 564.145 157.71L564.175 157.219C564.396 154.06 565.471 150.298 565.319 149.236C565.161 148.139 563.73 148.85 562.837 149.564C560.845 151.158 560.992 153.319 559.723 155.958C559.274 156.89 555.018 147.438 553.321 147.438C551.625 147.438 546.466 155.518 546.466 158.068C546.466 159.768 549.004 163.19 554.08 168.332L555.995 212.112C556.233 217.559 560.842 221.782 566.289 221.544C569.888 221.387 573.115 219.282 574.71 216.053L594.214 178.222L579.956 171.413Z" fill="#FFC4A7"/>
<path fill-rule="evenodd" clip-rule="evenodd" d="M582.851 161.577C584.787 157.281 589.921 155.476 594.12 157.615L595.718 158.429C599.815 160.517 601.415 165.55 599.276 169.619L574.796 216.196C570.441 224.483 558.099 222.751 556.193 213.585L553.305 199.7L566.748 194.563L567.061 196.617L582.851 161.577Z" fill="#283845"/>
<path fill-rule="evenodd" clip-rule="evenodd" d="M583.829 167.905C583.829 167.905 574.761 183.866 574.761 188.681C574.761 193.497 579.295 207.827 579.295 207.827L584.907 196.711L583.829 167.905Z" fill="#080708" fill-opacity="0.223011"/>
<path fill-rule="evenodd" clip-rule="evenodd" d="M567.06 196.617L568.576 206.732V193.26L567.06 196.617Z" fill="#080708" fill-opacity="0.223011"/>
<path fill-rule="evenodd" clip-rule="evenodd" d="M566.691 191.262L567.052 194.562L552.5 203.533L552.514 196.658L566.691 191.262Z" fill="#4C6A82"/>
<path fill-rule="evenodd" clip-rule="evenodd" d="M638.685 167.871C639.969 162.836 636.54 157.818 631.383 157.186L609.176 154.461L591.187 156.477C589.947 156.616 588.878 157.388 588.382 158.533C586.012 164.001 579.191 180.264 578.769 187.315C578.377 193.856 584.346 201.152 584.346 207.857C584.346 214.563 580.651 242.46 580.651 242.46L635.73 244.263C636.238 244.28 636.627 243.816 636.522 243.319L628.807 206.6L638.685 167.871Z" fill="#FFC4A7"/>
<path fill-rule="evenodd" clip-rule="evenodd" d="M638.685 167.87C639.969 162.836 636.54 157.818 631.383 157.186L618.187 155.566C618.187 155.566 613.733 165.307 605.398 164.532C597.063 163.758 598.879 155.615 598.879 155.615L591.809 156.472C590.633 156.615 589.613 157.328 589.098 158.395C586.527 163.722 578.825 180.204 578.399 187.315C578.007 193.856 583.976 201.152 583.976 207.857C583.976 214.562 580.651 243.904 580.651 243.904L637.301 246.975C637.823 247.003 638.226 246.521 638.106 246.012L628.807 206.6L638.685 167.87Z" fill="#E3E9FF"/>
<path fill-rule="evenodd" clip-rule="evenodd" d="M631.383 157.186L618.187 155.566L617.554 157.06C611.532 171.386 608.42 182.318 608.219 189.858L608.211 190.245C608.11 197.664 609.027 216.831 610.961 247.743L640.009 249.215C640.441 249.237 640.809 248.905 640.831 248.472C640.835 248.386 640.825 248.299 640.801 248.216L628.807 206.6L638.685 167.87C639.861 163.258 637.075 158.565 632.463 157.389C632.108 157.298 631.747 157.23 631.383 157.186ZM598.242 155.686L591.129 156.483C589.917 156.619 588.862 157.372 588.338 158.473L587.724 159.771C581.578 172.843 578.346 182.024 578.03 187.315C577.638 193.856 583.607 201.152 583.607 207.857L583.602 208.337C583.506 213.197 582.04 225.797 579.205 246.136L587.72 246.566L587.395 239.139C586.03 207.251 585.611 188.641 586.137 183.31C586.701 177.609 590.736 168.401 598.242 155.686Z" fill="#283845"/>
<path fill-rule="evenodd" clip-rule="evenodd" d="M598.242 155.686L596.829 155.844L595.327 157.452C588.943 164.33 585.296 168.885 584.389 171.115C582.883 174.815 586.358 178.48 582.438 184.362C581.388 185.937 582.575 190.637 585.999 198.461L585.956 195.879C585.868 189.609 585.929 185.42 586.137 183.311C586.701 177.609 590.736 168.401 598.242 155.686Z" fill="#4C6A82"/>
<path fill-rule="evenodd" clip-rule="evenodd" d="M619.893 155.775L618.187 155.566L617.554 157.06C611.428 171.633 608.314 182.694 608.211 190.245L608.205 190.824C608.189 193.431 608.281 197.282 608.48 202.377L609.719 199.85C611.831 195.509 613.312 192.286 614.162 190.182C615.143 187.751 613.847 183.796 614.162 181.929C614.453 180.207 617.857 178.332 619.87 176.696C621.588 175.3 621.639 168.645 620.024 156.73L619.893 155.775Z" fill="#4C6A82"/>
<path fill-rule="evenodd" clip-rule="evenodd" d="M624.258 171.115L629.973 200.439L634.476 184.83L624.258 171.115Z" fill="#080708" fill-opacity="0.223011"/>
<path fill-rule="evenodd" clip-rule="evenodd" d="M624.197 128.626C619.145 128.626 615.049 124.53 615.049 119.478C615.049 114.426 619.145 110.331 624.197 110.331C629.249 110.331 633.344 114.426 633.344 119.478C633.344 124.53 629.249 128.626 624.197 128.626Z" fill="#5B1E09"/>
<path fill-rule="evenodd" clip-rule="evenodd" d="M622.362 130.29C617.861 132.583 612.352 130.793 610.059 126.292C607.765 121.791 609.555 116.282 614.056 113.988C618.558 111.695 623.365 113.762 625.659 118.263C627.952 122.765 626.863 127.996 622.362 130.29Z" fill="#4C6A82"/>
<path fill-rule="evenodd" clip-rule="evenodd" d="M605.403 145.591C594.747 145.591 586.11 136.953 586.11 126.297C586.11 115.642 596.307 106.031 603.522 110.621C612.608 105.571 624.696 114.805 624.696 126.297C624.696 137.79 616.058 145.591 605.403 145.591Z" fill="#5B1E09"/>
<path fill-rule="evenodd" clip-rule="evenodd" d="M614.211 156.755C614.211 160.212 611.408 163.01 607.951 163.01C604.274 163.01 601.389 159.857 601.716 156.195L602.439 148.075C602.439 148.075 594.646 148.692 592.007 144.924C589.368 141.156 589.732 121.53 589.732 121.53L614.211 121.53C614.211 121.53 614.211 126.395 614.211 128.083C621.684 128.083 621.684 137.107 614.211 137.107C614.211 142.899 614.211 151.135 614.211 156.755Z" fill="#FFC4A7"/>
<path fill-rule="evenodd" clip-rule="evenodd" d="M596.519 122.289C596.519 122.289 594.439 127.324 592.582 128.839C590.726 130.353 587.491 130.159 587.491 130.159L589.688 117.267H615.049V127.67C615.049 127.67 607.31 132.248 602.962 129.728C598.613 127.207 596.519 122.289 596.519 122.289Z" fill="#5B1E09"/>
<path fill-rule="evenodd" clip-rule="evenodd" d="M602.423 148.055C602.423 148.055 604.737 147.743 606.517 147.181C608.298 146.62 610.551 145.486 610.551 145.486C610.551 145.486 607.494 148.456 605.887 149.732C604.28 151.009 602.038 152.248 602.038 152.248L602.423 148.055Z" fill="#F19B93"/>
<path fill-rule="evenodd" clip-rule="evenodd" d="M594.758 132.618V139.087C594.758 139.087 592.061 137.687 592.061 137.14C592.061 136.594 594.758 132.618 594.758 132.618Z" fill="#F19B93"/>
<rect width="17.248" height="34.496" rx="2.464" transform="matrix(-0.920505 0.390731 0.390731 0.920505 591.469 201.707)" fill="#1075F0"/>
<rect width="17.248" height="34.496" rx="2.464" transform="matrix(-0.920505 0.390731 0.390731 0.920505 590.334 202.188)" fill="#467FFF"/>
<path d="M590.389 224.083C589.169 224.601 587.76 224.032 587.242 222.812C586.725 221.592 587.294 220.183 588.514 219.665C589.734 219.147 591.143 219.716 591.661 220.936C592.179 222.156 591.61 223.565 590.389 224.083Z" fill="white"/>
<path d="M589.608 205.487C589.374 204.938 588.74 204.682 588.191 204.915L585.702 205.971C585.153 206.204 584.897 206.838 585.13 207.387C585.363 207.936 585.997 208.193 586.546 207.959L589.035 206.903C589.584 206.67 589.841 206.036 589.608 205.487Z" fill="white"/>
<path fill-rule="evenodd" clip-rule="evenodd" d="M627.449 175.53L646.387 206.256C646.387 206.256 617.049 217.631 607.597 220.253C604.341 221.155 600.122 212.924 595.356 214.108C593.522 214.564 600.759 221.196 597.305 221.802C589.597 223.154 583.66 224.466 583.11 226.109C582.436 228.126 590.923 232.995 594.691 233.578C596.765 233.899 602.827 231.734 610.128 229.789C615.26 228.421 635.993 223.89 651.201 220.604C659.576 218.794 663.803 209.387 659.59 201.926L640.381 167.905L627.449 175.53Z" fill="#FFC4A7"/>
<path fill-rule="evenodd" clip-rule="evenodd" d="M638.798 162.993C636.468 158.726 630.973 157.388 626.943 160.107L625.359 161.175C621.719 163.63 620.64 168.506 622.903 172.268L643.183 205.984L635.562 209.213L640.736 224.362L656.031 220.193C662.249 218.498 665.254 211.439 662.164 205.782L638.798 162.993Z" fill="#283845"/>
<path fill-rule="evenodd" clip-rule="evenodd" d="M645.309 225.247L636.928 207.827L633.737 208.834L637.719 227.006L645.309 225.247Z" fill="#4C6A82"/>
<path fill-rule="evenodd" clip-rule="evenodd" d="M686.28 41.7998C688.445 41.7998 690.2 43.5548 690.2 45.7198V82.5701C690.2 84.735 688.445 86.4901 686.28 86.4901L649.817 86.4898L634.194 98.5998L634.193 86.4898L630.12 86.4901C627.955 86.4901 626.2 84.735 626.2 82.5701V45.7198C626.2 43.5548 627.955 41.7998 630.12 41.7998H686.28Z" fill="#DEE9FF"/>
<path d="M640.01 59.6566H676.705C677.699 59.6566 678.505 58.8508 678.505 57.8566C678.505 56.8625 677.699 56.0566 676.705 56.0566H640.01C639.016 56.0566 638.21 56.8625 638.21 57.8566C638.21 58.8508 639.016 59.6566 640.01 59.6566Z" fill="white"/>
<path d="M640.01 71.6566H664.705C665.699 71.6566 666.505 70.8508 666.505 69.8566C666.505 68.8625 665.699 68.0566 664.705 68.0566H640.01C639.016 68.0566 638.21 68.8625 638.21 69.8566C638.21 70.8508 639.016 71.6566 640.01 71.6566Z" fill="white"/>
<path fill-rule="evenodd" clip-rule="evenodd" d="M239.72 0.799805C237.555 0.799805 235.8 2.55485 235.8 4.7198V41.5701C235.8 43.735 237.555 45.4901 239.72 45.4901L276.183 45.4898L291.806 57.5998L291.807 45.4898L295.88 45.4901C298.045 45.4901 299.8 43.735 299.8 41.5701V4.7198C299.8 2.55485 298.045 0.799805 295.88 0.799805H239.72Z" fill="#DEE9FF"/>
<path d="M285.99 18.6566H249.295C248.301 18.6566 247.495 17.8508 247.495 16.8566C247.495 15.8625 248.301 15.0566 249.295 15.0566H285.99C286.984 15.0566 287.79 15.8625 287.79 16.8566C287.79 17.8508 286.984 18.6566 285.99 18.6566Z" fill="white"/>
<path d="M285.99 30.6566H261.295C260.301 30.6566 259.495 29.8508 259.495 28.8566C259.495 27.8625 260.301 27.0566 261.295 27.0566H285.99C286.984 27.0566 287.79 27.8625 287.79 28.8566C287.79 29.8508 286.984 30.6566 285.99 30.6566Z" fill="white"/>
<path d="M757.8 278.6H756.12C745.914 278.6 737.64 286.874 737.64 297.08V297.92H757.8V278.6Z" fill="#A7C3FF"/>
<path fill-rule="evenodd" clip-rule="evenodd" d="M823.165 204.822C823.249 203.842 822.475 203 821.491 203H763.543C762.671 203 761.943 203.668 761.869 204.538L753.6 302.12H811.833C813.578 302.12 815.033 300.783 815.181 299.044L823.165 204.822Z" fill="#C8DAFF"/>
<path d="M814.92 278.6H813.24C803.034 278.6 794.76 286.874 794.76 297.08V297.92H814.92V278.6Z" fill="#A7C3FF"/>
<path fill-rule="evenodd" clip-rule="evenodd" d="M824.846 204.822C824.929 203.842 824.155 203 823.172 203H815.624C814.751 203 814.023 203.668 813.95 204.538L805.68 302.12H813.513C815.258 302.12 816.713 300.783 816.861 299.044L824.846 204.822Z" fill="#A7C3FF"/>
<rect width="7.56" height="68.04" transform="matrix(-1 0 0 1 767.04 305.48)" fill="#C8DAFF"/>
<path fill-rule="evenodd" clip-rule="evenodd" d="M798.12 377.72L762.84 365.96L727.56 377.72V381.92L762.84 373.52L798.12 381.92V377.72Z" fill="#A7C3FF"/>
<path fill-rule="evenodd" clip-rule="evenodd" d="M726.72 385.28C723.936 385.28 721.68 383.024 721.68 380.24C721.68 377.457 723.936 375.2 726.72 375.2C729.503 375.2 731.76 377.457 731.76 380.24C731.76 383.024 729.503 385.28 726.72 385.28Z" fill="#A7C3FF"/>
<path fill-rule="evenodd" clip-rule="evenodd" d="M762.84 385.28C760.056 385.28 757.8 383.024 757.8 380.24C757.8 377.457 760.056 375.2 762.84 375.2C765.623 375.2 767.88 377.457 767.88 380.24C767.88 383.024 765.623 385.28 762.84 385.28Z" fill="#A7C3FF"/>
<path fill-rule="evenodd" clip-rule="evenodd" d="M766.2 369.32H759.48L760.32 381.08H765.36L766.2 369.32Z" fill="#A7C3FF"/>
<path fill-rule="evenodd" clip-rule="evenodd" d="M798.96 385.28C796.176 385.28 793.92 383.024 793.92 380.24C793.92 377.457 796.176 375.2 798.96 375.2C801.744 375.2 804 377.457 804 380.24C804 383.024 801.744 385.28 798.96 385.28Z" fill="#A7C3FF"/>
<path fill-rule="evenodd" clip-rule="evenodd" d="M777.96 297.92H747.72V307.16L758.761 313.294C761.298 314.703 764.382 314.703 766.919 313.294L777.96 307.16V297.92Z" fill="#A7C3FF"/>
<path fill-rule="evenodd" clip-rule="evenodd" d="M777.12 292.04H704.04C703.112 292.04 702.36 292.792 702.36 293.72V300.44C702.36 301.368 703.112 302.12 704.04 302.12H777.12V292.04Z" fill="#C8DAFF"/>
<path fill-rule="evenodd" clip-rule="evenodd" d="M816.6 292.04H753.6V302.12H813.24C815.096 302.12 816.6 300.616 816.6 298.76V292.04Z" fill="#A7C3FF"/>
<path fill-rule="evenodd" clip-rule="evenodd" d="M492.68 236C480.739 236 471.036 245.584 470.84 257.479V391.24H482.6V257.84C482.6 252.359 486.975 247.899 492.424 247.763L492.68 247.76H526.28V236H492.68Z" fill="#A7C3FF"/>
<path fill-rule="evenodd" clip-rule="evenodd" d="M485.12 236C473.179 236 463.476 245.584 463.28 257.479V391.24H475.04V257.84C475.04 252.359 479.415 247.899 484.864 247.763L485.12 247.76H518.72V236H485.12Z" fill="#C8DAFF"/>
<path fill-rule="evenodd" clip-rule="evenodd" d="M746.06 247.76H831.76C837.241 247.76 841.701 252.135 841.837 257.584L841.84 257.84V391.24H853.6V257.84C853.6 245.899 844.017 236.196 832.121 236.003L831.76 236H746.06V247.76Z" fill="#C8DAFF"/>
<path fill-rule="evenodd" clip-rule="evenodd" d="M852.76 249.44C852.76 242.017 846.742 236 839.32 236H511.6V317.48H852.76V249.44Z" fill="#95B2EE"/>
<path fill-rule="evenodd" clip-rule="evenodd" d="M776.32 246.08H401.96V317.48H776.32V246.08Z" fill="#C8DAFF"/>
<path fill-rule="evenodd" clip-rule="evenodd" d="M756.98 247.76H842.68C848.161 247.76 852.621 252.135 852.757 257.584L852.76 257.84V391.24H862V257.84C862 245.899 854.936 236.196 843.041 236.003L842.68 236H756.98V247.76Z" fill="#95B2EE"/>
<path fill-rule="evenodd" clip-rule="evenodd" d="M761.2 247.76C766.681 247.76 771.141 252.135 771.277 257.584L771.28 257.84V391.24H783.04V257.84C783.04 245.899 773.457 236.196 761.561 236.003L761.2 236V247.76Z" fill="#95B2EE"/>
<path fill-rule="evenodd" clip-rule="evenodd" d="M416.24 238.52C404.299 238.52 394.596 248.104 394.403 259.999L394.4 260.36V391.24H406.16V260.36C406.16 254.879 410.535 250.419 415.984 250.283L416.24 250.28H750.28C755.762 250.28 760.221 254.655 760.357 260.104L760.36 260.36V317.48H772.12V260.36C772.12 248.419 761.697 238.716 749.801 238.523L749.44 238.52H416.24Z" fill="#A7C3FF"/>
<path fill-rule="evenodd" clip-rule="evenodd" d="M407.84 236C395.899 236 386.196 245.584 386.003 257.479L386 257.84V391.24H397.76V257.84C397.76 252.359 402.135 247.899 407.584 247.763L407.84 247.76H752.8C758.282 247.76 762.741 252.135 762.877 257.584L762.88 257.84V391.24H774.64V257.84C774.64 245.899 765.057 236.196 753.161 236.003L752.8 236H407.84Z" fill="#C8DAFF"/>
<path fill-rule="evenodd" clip-rule="evenodd" d="M613 228C613 226.895 613.895 226 615 226H669C670.105 226 671 226.895 671 228V234C671 235.105 670.105 236 669 236H615C613.895 236 613 235.105 613 234V228Z" fill="#FF326F"/>
<path fill-rule="evenodd" clip-rule="evenodd" d="M613 228C613 226.895 613.895 226 615 226L644 226C645.105 226 646 226.895 646 228V234C646 235.105 645.105 236 644 236H615C613.895 236 613 235.105 613 234V228Z" fill="#FF5D8E"/>
<path d="M615 228.8C615 227.806 615.806 227 616.8 227L670 227C670.552 227 671 227.448 671 228V234C671 234.552 670.552 235 670 235H616.8C615.806 235 615 234.194 615 233.2V228.8Z" fill="#EAEFFF"/>
<path fill-rule="evenodd" clip-rule="evenodd" d="M646 228.8C646 227.806 646.806 227 647.8 227H670C670.552 227 671 227.448 671 228V234C671 234.552 670.552 235 670 235H647.8C646.806 235 646 234.194 646 233.2V228.8Z" fill="#C1D7FF"/>
<path d="M617 218C617 216.895 617.895 216 619 216H673C674.105 216 675 216.895 675 218V224C675 225.105 674.105 226 673 226H619C617.895 226 617 225.105 617 224V218Z" fill="#B34EE6"/>
<path d="M617 218C617 216.895 617.895 216 619 216L648 216C649.105 216 650 216.895 650 218V224C650 225.105 649.105 226 648 226H619C617.895 226 617 225.105 617 224V218Z" fill="#CF6FFF"/>
<path d="M617 218.8C617 217.806 617.806 217 618.8 217L647 217C648.105 217 649 217.895 649 219V223C649 224.105 648.105 225 647 225H618.8C617.806 225 617 224.194 617 223.2V218.8Z" fill="#EAEFFF"/>
<path d="M540.975 232.55C540.975 232.138 540.64 231.804 540.228 231.804H450.998C450.585 231.804 450.251 232.138 450.251 232.55V233.798C450.251 234.21 450.585 234.545 450.998 234.545H540.228C540.64 234.545 540.975 234.21 540.975 233.798V232.55Z" fill="#B34EE6"/>
<path d="M540.983 232.55C540.983 232.138 540.649 231.804 540.236 231.804H505.898C505.485 231.804 505.151 232.138 505.151 232.55V233.798C505.151 234.21 505.485 234.545 505.898 234.545H540.236C540.649 234.545 540.983 234.21 540.983 233.798V232.55Z" fill="#8330AD"/>
<path d="M547.48 194.058C547.756 191.905 546.079 190 543.909 190H484.346C482.535 190 481.005 191.346 480.775 193.142L476.323 227.865C476.047 230.018 477.724 231.923 479.894 231.923H539.457C541.269 231.923 542.798 230.578 543.028 228.781L547.48 194.058Z" fill="#8330AD"/>
<path d="M545.68 194.058C545.956 191.905 544.279 190 542.109 190H483.796C481.985 190 480.455 191.346 480.225 193.142L475.773 227.865C475.497 230.018 477.174 231.923 479.344 231.923H537.657C539.469 231.923 540.998 230.578 541.228 228.781L545.68 194.058Z" fill="#B34EE6"/>
<path d="M543.612 195.634C543.86 193.698 542.351 191.983 540.398 191.983H485.172C483.542 191.983 482.165 193.194 481.958 194.811L477.947 226.131C477.699 228.068 479.208 229.783 481.161 229.783H536.387C538.017 229.783 539.394 228.572 539.601 226.954L543.612 195.634Z" fill="#EAEFFF"/>
<path fill-rule="evenodd" clip-rule="evenodd" d="M424.895 380.87H438.2L431.178 403.046H418.981L424.895 380.87Z" fill="#616988"/>
<path fill-rule="evenodd" clip-rule="evenodd" d="M418.24 414.539L427.283 415.172L428.222 412.337C428.222 412.337 437.815 415.926 445.59 416.47C453.365 417.013 458.693 413.585 458.693 413.585C458.522 411.664 457.029 410.127 455.114 409.9L445.683 408.786L432.517 398.495C432.517 398.495 430.151 402.764 425.58 402.444C421.008 402.125 418.147 399.974 418.147 399.974L417.392 410.773L418.24 414.539Z" fill="#1F1E1E"/>
<path fill-rule="evenodd" clip-rule="evenodd" d="M409.083 318.51C428.389 318.51 444.329 318.51 444.329 318.51C444.329 318.51 441.255 325.847 436.981 336.525C432.708 347.202 421.128 391.971 421.128 391.971H437.928L475.829 314.505C481.329 303.263 473.773 290.013 461.296 289.023L416.441 285.464V280.709C416.441 280.709 388.905 272.79 387.363 280.709C385.226 291.691 385.226 318.51 409.083 318.51Z" fill="#2E2B2B"/>
<path fill-rule="evenodd" clip-rule="evenodd" d="M511.011 381.24H524.317L530.6 403.416H518.403L511.011 381.24Z" fill="#616988"/>
<path fill-rule="evenodd" clip-rule="evenodd" d="M516.554 415.279L525.597 415.911L526.536 413.076C526.536 413.076 536.129 416.665 543.904 417.209C551.679 417.753 557.007 414.324 557.007 414.324C556.836 412.404 555.343 410.866 553.428 410.64L543.997 409.525L530.831 399.234C530.831 399.234 528.465 403.503 523.894 403.184C519.322 402.864 516.461 400.714 516.461 400.714L515.706 411.512L516.554 415.279Z" fill="#2E2C2C"/>
<path fill-rule="evenodd" clip-rule="evenodd" d="M401.61 285.517C401.61 285.517 401.61 322.26 428.87 322.26C448.177 322.26 487.032 322.26 487.032 322.26C487.032 322.26 488.448 333.154 492.251 342.733C496.054 352.312 513.358 392.394 513.358 392.394H529.418L509.923 310.497C508.181 303.181 502.405 297.508 495.059 295.898L447.686 285.517V280.762H401.61V285.517Z" fill="#454141"/>
<path fill-rule="evenodd" clip-rule="evenodd" d="M434.26 285.498L425.893 296.872L424.525 285.197L434.26 285.498Z" fill="#6B6B6B"/>
<path d="M423.998 280.762L424.832 292.537C425.413 300.732 432.014 307.206 440.219 307.628L493.282 310.357C495.944 310.494 498.23 312.295 498.985 314.851L521.899 392.394" stroke="#6B6B6B" stroke-width="0.5544"/>
<path fill-rule="evenodd" clip-rule="evenodd" d="M403.088 163.628L399.372 170.916C399.266 171.126 399.379 171.38 399.606 171.441L403.088 172.378V163.628Z" fill="#F19B93"/>
<path fill-rule="evenodd" clip-rule="evenodd" d="M427.932 193.322H412.265L413.743 185.967C413.743 185.967 407.303 186.653 404.37 182.466C401.438 178.279 401.843 156.472 401.843 156.472L427.932 156.472V193.322Z" fill="#FFC4A7"/>
<path fill-rule="evenodd" clip-rule="evenodd" d="M405.291 173.515L401.794 172.815C401.794 172.815 401.745 173.526 402.253 174.19C402.793 174.897 405.828 175.465 405.828 175.465L405.291 173.515Z" fill="#0A2650"/>
<path fill-rule="evenodd" clip-rule="evenodd" d="M411.172 166.102L410.876 172.777C410.837 173.665 410.029 174.318 409.152 174.169L405.291 173.515L404.935 180.218C404.917 180.557 404.67 180.84 404.337 180.904L403.412 181.082C403.211 181.121 403.044 181.261 402.971 181.452C402.065 183.818 404.087 186.267 406.581 185.824L407.902 185.59C410.43 185.141 412.307 182.997 412.417 180.432L413.107 164.285L411.172 166.102Z" fill="#0A2650"/>
<path fill-rule="evenodd" clip-rule="evenodd" d="M429.802 177.394C429.356 178.521 428.266 179.262 427.053 179.262H421.331C420.219 179.262 419.2 178.638 418.827 177.59C418.152 175.689 417.328 172.437 418.08 169.282C419.241 164.407 413.202 162.316 413.202 162.316L412.863 169.719C412.845 170.122 412.575 170.47 412.19 170.589C411.584 170.776 410.967 170.333 410.952 169.699L410.728 160.594C410.673 158.373 408.735 156.663 406.513 156.715C402.94 156.799 398.136 156.565 396.815 154.826C392.941 149.731 399.165 141.193 399.165 141.193C399.165 141.193 402.034 145.128 405.828 144.564C411.144 143.774 418.08 141 424.271 142.995C429.234 144.595 434.741 153.239 436.731 156.607C437.233 157.455 437.291 158.48 436.929 159.396L429.802 177.394Z" fill="#0A2650"/>
<path fill-rule="evenodd" clip-rule="evenodd" d="M413.743 185.967L417.01 185.493L412.265 193.322L413.743 185.967Z" fill="#F19B93"/>
<path fill-rule="evenodd" clip-rule="evenodd" d="M352.265 170.794C352.265 170.794 356.4 166.679 357.363 165.326C359.014 163.007 358.486 162.067 357.363 162.618C354.696 163.925 351.201 166.99 351.201 166.99L352.265 170.794Z" fill="#FFC4A7"/>
<path fill-rule="evenodd" clip-rule="evenodd" d="M385.987 197.811L363.171 214.525C363.171 214.525 352.49 187.05 351.008 176.271C350.799 174.753 352.949 172.627 353.047 170.908C353.224 167.795 350.436 151.091 349.563 151.091C347.849 151.091 348.667 161.798 348.667 161.798C348.667 161.798 339.336 162.689 339.336 163.991C339.336 173.674 341.557 176.262 341.515 176.899C341.344 179.471 345.982 207.069 349.117 225.318C350.401 232.797 359.036 236.353 365.238 231.979L386.131 217.243L385.987 197.811Z" fill="#FFC4A7"/>
<path fill-rule="evenodd" clip-rule="evenodd" d="M390.196 193.986C394.596 191.018 400.569 192.179 403.536 196.579L404.732 198.352C407.796 202.895 406.447 209.076 401.769 211.929L363.559 235.238C358.863 238.102 352.72 236.047 350.693 230.934L346.177 219.54L360.612 205.543L362.925 212.381L390.196 193.986Z" fill="#E3E9FF"/>
<path fill-rule="evenodd" clip-rule="evenodd" d="M392.701 199.811C393.049 195.594 396.573 192.349 400.804 192.349H438.039C442.53 192.349 446.17 195.99 446.17 200.48V281.792H385.925L392.701 199.811Z" fill="#E3E9FF"/>
<path fill-rule="evenodd" clip-rule="evenodd" d="M441.735 192.349C446.226 192.349 449.866 195.99 449.866 200.48V285.488H396.795L393.106 274.4L389.537 285.488H382.229L389.027 199.837C389.363 195.609 392.892 192.349 397.133 192.349H402.204C402.204 193.723 403.275 194.847 404.628 194.931L404.791 194.936H428.097C428.712 194.936 429.317 194.797 429.868 194.53L430.101 194.408L433.733 192.349L441.735 192.349Z" fill="#544F4F"/>
<path fill-rule="evenodd" clip-rule="evenodd" d="M434.256 208.841L449.866 254.467V229.806L434.256 208.841Z" fill="#080708" fill-opacity="0.340226"/>
<path fill-rule="evenodd" clip-rule="evenodd" d="M457.495 218.352L465.884 234.735L485.655 205.128C485.72 205.031 485.761 204.919 485.775 204.802L487.055 193.619C487.055 193.619 491.618 182.635 492.954 186.017C493.534 187.485 492.228 189.616 492.954 194.844C493.088 195.813 500.917 190.523 504.277 188.203C504.825 187.825 505.559 188.305 505.432 188.959L503.064 201.179C503.031 201.346 502.942 201.496 502.812 201.605L491.618 210.96L476.222 248.241C472.964 256.129 462.096 256.905 457.75 249.56L443.288 225.12L457.495 218.352Z" fill="#FFC4A7"/>
<path fill-rule="evenodd" clip-rule="evenodd" d="M451.721 197.411C449.294 192.834 443.676 191.005 439.019 193.276L437.029 194.247C432.022 196.689 430.134 202.862 432.918 207.687L457.828 250.86C461.88 257.882 472.067 257.729 475.906 250.589L482.182 238.918L473.63 221.899L468.219 228.515L451.721 197.411Z" fill="#E3E9FF"/>
<path fill-rule="evenodd" clip-rule="evenodd" d="M348.835 234.822C348.751 233.842 349.525 233 350.509 233H408.457C409.329 233 410.057 233.668 410.131 234.538L418.4 332.12H360.167C358.422 332.12 356.967 330.783 356.819 329.044L348.835 234.822Z" fill="#C8DAFF"/>
<path d="M415.08 308.6H416.76C426.966 308.6 435.24 316.874 435.24 327.08V327.92H415.08V308.6Z" fill="#C8DAFF"/>
<path fill-rule="evenodd" clip-rule="evenodd" d="M347.154 234.822C347.071 233.842 347.845 233 348.828 233H397.376C398.249 233 398.977 233.668 399.05 234.538L407.32 332.12H358.487C356.742 332.12 355.287 330.783 355.139 329.044L347.154 234.822Z" fill="#A7C3FF"/>
<rect x="404.96" y="337.48" width="7.56" height="68.04" fill="#C8DAFF"/>
<path fill-rule="evenodd" clip-rule="evenodd" d="M373.88 409.72L409.16 397.96L444.44 409.72V413.92L409.16 405.52L373.88 413.92V409.72Z" fill="#A7C3FF"/>
<path fill-rule="evenodd" clip-rule="evenodd" d="M445.28 417.28C448.064 417.28 450.32 415.024 450.32 412.24C450.32 409.457 448.064 407.2 445.28 407.2C442.497 407.2 440.24 409.457 440.24 412.24C440.24 415.024 442.497 417.28 445.28 417.28Z" fill="#A7C3FF"/>
<path fill-rule="evenodd" clip-rule="evenodd" d="M409.16 417.28C411.944 417.28 414.2 415.024 414.2 412.24C414.2 409.457 411.944 407.2 409.16 407.2C406.377 407.2 404.12 409.457 404.12 412.24C404.12 415.024 406.377 417.28 409.16 417.28Z" fill="#A7C3FF"/>
<path fill-rule="evenodd" clip-rule="evenodd" d="M405.8 401.32H412.52L411.68 413.08H406.64L405.8 401.32Z" fill="#A7C3FF"/>
<path fill-rule="evenodd" clip-rule="evenodd" d="M373.04 417.28C375.824 417.28 378.08 415.024 378.08 412.24C378.08 409.457 375.824 407.2 373.04 407.2C370.256 407.2 368 409.457 368 412.24C368 415.024 370.256 417.28 373.04 417.28Z" fill="#A7C3FF"/>
<path fill-rule="evenodd" clip-rule="evenodd" d="M394.04 328.92H424.28V338.16L413.239 344.294C410.702 345.703 407.618 345.703 405.081 344.294L394.04 338.16V328.92Z" fill="#A7C3FF"/>
<path fill-rule="evenodd" clip-rule="evenodd" d="M394.88 322.04H467.96C468.888 322.04 469.64 322.792 469.64 323.72V330.44C469.64 331.368 468.888 332.12 467.96 332.12H394.88V322.04Z" fill="#C8DAFF"/>
<path fill-rule="evenodd" clip-rule="evenodd" d="M355.4 322.04L406.4 322.04V332.12H358.76C356.904 332.12 355.4 330.616 355.4 328.76V322.04Z" fill="#A7C3FF"/>
<path fill-rule="evenodd" clip-rule="evenodd" d="M680.874 414.993C677.534 415.227 671.081 415.501 669.942 414.993C669.55 414.818 669.428 414.56 669.436 414.296C669.46 413.523 670.27 413.061 670.935 412.665C672.448 411.764 675.509 410.023 678.843 408.586C683.567 406.55 688.722 396.314 689.06 393.72C689.529 390.124 683.041 378.523 683.041 378.523L696.189 377.646C696.189 377.646 700.288 392.535 701.97 395.305C702.407 396.025 704.701 401.623 703.721 403.736C702.657 406.028 700.482 406.403 696.95 408.154C689.554 411.822 689.554 414.009 680.874 414.993Z" fill="#E09282"/>
<path fill-rule="evenodd" clip-rule="evenodd" d="M701.262 394.284C701.262 394.284 707.062 396.82 704.657 404.359C702.251 411.898 702.551 414.593 702.551 414.593H696.827V409.225C696.827 409.225 696.59 409.041 695.649 409.777C692.904 411.924 687.84 415.907 685.914 416.386C682.033 417.352 669.016 415.79 669.016 415.79V414.593H678.746C678.746 414.593 673.62 409.636 674.459 409.115C675.866 408.241 678.746 406.422 678.746 406.422L688.723 410.593L701.262 394.284Z" fill="#283845"/>
<path fill-rule="evenodd" clip-rule="evenodd" d="M748.114 295.944C748.114 295.944 750.209 327.884 729.744 327.884C709.279 327.884 683.423 325.318 683.423 325.318C683.423 325.318 686.701 338.752 689.645 350.068C692.589 361.385 699.205 386.806 699.205 386.806H670.01L651.97 323.727C648.712 312.337 656.67 300.809 668.475 299.817L714.552 295.944V290.904H748.114V295.944Z" fill="#083254"/>
<path fill-rule="evenodd" clip-rule="evenodd" d="M601.41 416.102C598.07 416.335 592.356 416.61 591.217 416.102C590.62 415.835 590.649 415.374 590.811 414.996C591.007 414.543 591.412 414.227 591.816 413.942C592.997 413.106 595.824 411.227 599.379 409.694C604.103 407.658 607.897 404.402 609.258 399.563C610.618 394.724 613.549 381.233 613.549 381.233L626.739 380.644C626.739 380.644 622.506 392.503 622.506 396.413C622.506 397.258 625.237 402.732 624.257 404.844C623.193 407.136 621.018 407.512 617.486 409.263C610.09 412.93 615.464 415.29 601.41 416.102Z" fill="#E09282"/>
<path fill-rule="evenodd" clip-rule="evenodd" d="M622.537 395.762C622.537 395.762 628.337 398.298 625.931 405.837C623.526 413.376 623.826 416.071 623.826 416.071H618.102V410.703C618.102 410.703 617.865 410.519 616.924 411.255C614.179 413.402 609.115 417.385 607.189 417.864C603.308 418.83 590.291 417.268 590.291 417.268V416.071H600.021C600.021 416.071 594.895 411.114 595.734 410.593C597.14 409.719 600.021 407.9 600.021 407.9L609.998 412.071L622.537 395.762Z" fill="#283845"/>
<path fill-rule="evenodd" clip-rule="evenodd" d="M733.488 296.001C733.488 296.001 736.256 329.463 710.469 329.071C690.007 328.76 646.075 323.808 646.075 323.808C646.075 323.808 645.377 338.862 641.326 351.165C637.276 363.467 630.544 387.712 630.544 387.712H601.87L623.643 316.915C626.036 309.135 632.755 303.47 640.828 302.426L690.524 296.001V290.96L733.821 290.96L733.488 296.001Z" fill="#0A4677"/>
<path fill-rule="evenodd" clip-rule="evenodd" d="M713.375 296.372L721.327 310.951C721.327 310.951 721.843 310.242 722.377 306.885C722.91 303.528 723.694 296.054 723.694 296.054L713.375 296.372Z" fill="#E3E9FF"/>
<path d="M723.469 290.96L722.562 305.39C721.975 314.729 714.045 321.894 704.695 321.534L645.214 319.245C642.981 319.159 640.984 320.624 640.394 322.778L622.614 387.765" stroke="#E3E9FF" stroke-width="0.5" stroke-linecap="round"/>
<path fill-rule="evenodd" clip-rule="evenodd" d="M750.201 217.341L769.78 254.147C770.567 255.627 770.802 257.339 770.441 258.977L760.8 302.707C760.8 302.707 761.858 317.448 756.454 319.342C755.402 319.71 753.063 328.252 750.948 325.689C750.363 324.98 750.174 313.077 750.174 313.077L752.995 297.592L754.339 259.403L738.164 227.171L750.201 217.341Z" fill="#E09282"/>
<path fill-rule="evenodd" clip-rule="evenodd" d="M749.241 212.549C746.743 207.976 740.94 206.401 736.473 209.085L734.624 210.197C730.309 212.789 728.891 218.376 731.448 222.712L746.04 247.455L762.393 236.633L749.241 212.549Z" fill="#0A4677"/>
<path fill-rule="evenodd" clip-rule="evenodd" d="M748.162 217.341L744.087 244.235L741.387 239.577L743.308 231.5L748.162 217.341Z" fill="#080708" fill-opacity="0.223011"/>
<path d="M762.393 236.632L746.04 247.455" stroke="#E3E9FF" stroke-width="0.924" stroke-linecap="round"/>
<path fill-rule="evenodd" clip-rule="evenodd" d="M748.053 217.557C749.297 212.679 746.114 207.784 741.131 207.062C734.942 206.165 726.968 205.149 721.567 204.974C713.821 204.724 704.187 205.973 700.249 206.547C699.113 206.712 698.152 207.428 697.667 208.468C695.204 213.743 687.714 230.304 687.287 237.437C686.895 243.977 692.864 251.273 692.864 257.979C692.864 264.684 688.462 296.258 688.462 296.258L749.266 299.337C749.803 299.364 750.208 298.854 750.059 298.337L738.065 256.722L748.053 217.557Z" fill="#0A4677"/>
<path d="M735.047 298.681L702.892 297.036" stroke="#060606" stroke-opacity="0.211948" stroke-width="0.924" stroke-linecap="round"/>
<path fill-rule="evenodd" clip-rule="evenodd" d="M701.154 223.325L688.568 230.788L691.407 222.541L701.154 223.325Z" fill="#080708" fill-opacity="0.223011"/>
<path fill-rule="evenodd" clip-rule="evenodd" d="M701.261 182.55V189.019C701.261 189.019 698.564 187.619 698.564 187.072C698.564 186.526 701.261 182.55 701.261 182.55Z" fill="#B9726B"/>
<path fill-rule="evenodd" clip-rule="evenodd" d="M724.064 205.615H709.964L711.295 198.996C711.295 198.996 705.498 199.613 702.859 195.845C700.22 192.077 700.584 172.451 700.584 172.451L724.064 172.451V205.615Z" fill="#E09282"/>
<path fill-rule="evenodd" clip-rule="evenodd" d="M711.295 198.996L714.234 198.569L709.964 205.615L711.295 198.996Z" fill="#B9726B"/>
<path fill-rule="evenodd" clip-rule="evenodd" d="M711.941 204.656C711.941 202.081 712.562 198.569 713.126 183.659C713.252 180.323 709.565 179.66 709.565 179.66L708.868 186.573C708.844 186.813 708.642 186.995 708.401 186.995C708.196 186.995 708.015 186.862 707.953 186.666L705.79 179.741C705.284 178.12 703.956 176.897 702.515 176C701.019 175.07 699.292 173.495 698.725 171.01C697.657 166.33 700.944 161.489 704.978 162.222C715.633 151.654 737.039 160.428 737.076 173.495C737.104 183.866 738.8 201.705 737.851 205.466C736.902 209.227 711.941 209.537 711.941 204.656Z" fill="#321111"/>
<path fill-rule="evenodd" clip-rule="evenodd" d="M710.125 160.997C712.33 158.903 715.951 156.729 720.501 157.553C721.952 157.816 723.985 158.423 725.113 158.998C718.202 159.461 713.825 161.145 711.982 164.051C709.19 168.454 708.993 171.815 710.504 179.922L709.377 179.599C705.77 173.494 704.552 166.287 710.125 160.997Z" fill="#A0C6FF"/>
<path fill-rule="evenodd" clip-rule="evenodd" d="M658.029 155.907C658.029 155.907 660.994 151.872 660.894 150.502C660.794 149.132 657.262 148.693 657.262 148.693L658.029 155.907Z" fill="#E09282"/>
<path fill-rule="evenodd" clip-rule="evenodd" d="M682.825 208.537L665.269 208.195C665.269 208.195 659.644 148.611 657.257 146.324C654.183 143.38 649.632 137.516 648.546 138.837C647.778 139.771 650.626 143.109 651.578 145.542C651.729 145.929 648.546 145.687 648.546 146.771C648.546 156.009 652.427 160.124 652.387 160.732C652.205 163.467 651.153 195.689 650.619 212.23C650.446 217.608 654.613 222.115 659.987 222.387L682.962 223.548L682.825 208.537Z" fill="#E09282"/>
<path fill-rule="evenodd" clip-rule="evenodd" d="M697.371 206.587C702.478 206.455 706.69 210.559 706.69 215.668C706.69 220.61 702.739 224.645 697.798 224.75L677.845 225.171L677.865 207.093L697.371 206.587Z" fill="#0A4677"/>
<path d="M677.844 207.183V225.171" stroke="#E3E9FF" stroke-width="0.924" stroke-linecap="round"/>
<path fill-rule="evenodd" clip-rule="evenodd" d="M188.7 268.1H32.8802V276.92H188.7V268.1Z" fill="#95B2EE"/>
<path fill-rule="evenodd" clip-rule="evenodd" d="M194.355 156.926L192.984 352.29L185.594 352.237L186.965 156.873L194.355 156.926Z" fill="#95B2EE"/>
<path fill-rule="evenodd" clip-rule="evenodd" d="M189 342L166.013 377.365C165.11 378.754 165.504 380.612 166.893 381.515C167.38 381.832 167.948 382 168.528 382H209.472C211.129 382 212.472 380.657 212.472 379C212.472 378.42 212.304 377.852 211.987 377.365L189 342ZM188.972 354L202.472 375H175.472L188.972 354Z" fill="#95B2EE"/>
<path fill-rule="evenodd" clip-rule="evenodd" d="M31.0002 342L8.01295 377.365C7.10999 378.754 7.50414 380.612 8.89332 381.515C9.37995 381.832 9.94789 382 10.5283 382H51.4722C53.129 382 54.4722 380.657 54.4722 379C54.4722 378.42 54.3038 377.852 53.9875 377.365L31.0002 342ZM30.9718 354L44.4722 375H17.4722L30.9718 354Z" fill="#95B2EE"/>
<path fill-rule="evenodd" clip-rule="evenodd" d="M50 388C45.0294 388 41 383.971 41 379C41 374.029 45.0294 370 50 370C54.9706 370 59 374.029 59 379C59 383.971 54.9706 388 50 388Z" fill="#C8DAFF"/>
<path fill-rule="evenodd" clip-rule="evenodd" d="M11.7998 388C6.82924 388 2.7998 383.971 2.7998 379C2.7998 374.029 6.82924 370 11.7998 370C16.7704 370 20.7998 374.029 20.7998 379C20.7998 383.971 16.7704 388 11.7998 388Z" fill="#C8DAFF"/>
<path fill-rule="evenodd" clip-rule="evenodd" d="M46.3999 388C41.4293 388 37.3999 383.971 37.3999 379C37.3999 374.029 41.4293 370 46.3999 370C51.3705 370 55.3999 374.029 55.3999 379C55.3999 383.971 51.3705 388 46.3999 388Z" fill="#A7C3FF"/>
<path fill-rule="evenodd" clip-rule="evenodd" d="M9.1001 388C4.12953 388 0.100098 383.971 0.100098 379C0.100098 374.029 4.12953 370 9.1001 370C14.0707 370 18.1001 374.029 18.1001 379C18.1001 383.971 14.0707 388 9.1001 388Z" fill="#A7C3FF"/>
<path fill-rule="evenodd" clip-rule="evenodd" d="M209 388C204.029 388 200 383.971 200 379C200 374.029 204.029 370 209 370C213.971 370 218 374.029 218 379C218 383.971 213.971 388 209 388Z" fill="#C8DAFF"/>
<path fill-rule="evenodd" clip-rule="evenodd" d="M170.8 388C165.829 388 161.8 383.971 161.8 379C161.8 374.029 165.829 370 170.8 370C175.77 370 179.8 374.029 179.8 379C179.8 383.971 175.77 388 170.8 388Z" fill="#C8DAFF"/>
<path fill-rule="evenodd" clip-rule="evenodd" d="M205.4 388C200.429 388 196.4 383.971 196.4 379C196.4 374.029 200.429 370 205.4 370C210.37 370 214.4 374.029 214.4 379C214.4 383.971 210.37 388 205.4 388Z" fill="#A7C3FF"/>
<path fill-rule="evenodd" clip-rule="evenodd" d="M168.1 388C163.13 388 159.1 383.971 159.1 379C159.1 374.029 163.13 370 168.1 370C173.071 370 177.1 374.029 177.1 379C177.1 383.971 173.071 388 168.1 388Z" fill="#A7C3FF"/>
<path fill-rule="evenodd" clip-rule="evenodd" d="M177.294 28H37.2323C34.6127 28 32.4891 30.1236 32.4891 32.7432V267.258C32.4891 269.805 34.4964 271.883 37.0152 271.997L37.2507 272.001L177.312 271.457C179.925 271.447 182.037 269.326 182.037 266.714V32.7432C182.037 30.1236 179.914 28 177.294 28Z" fill="#A7C3FF"/>
<path fill-rule="evenodd" clip-rule="evenodd" d="M190.68 160.3C187.974 160.3 185.78 157.448 185.78 153.93C185.78 150.412 187.974 147.56 190.68 147.56C193.386 147.56 195.58 150.412 195.58 153.93C195.58 157.448 193.386 160.3 190.68 160.3Z" fill="#95B2EE"/>
<path fill-rule="evenodd" clip-rule="evenodd" d="M187.74 160.3C185.034 160.3 182.84 157.448 182.84 153.93C182.84 150.412 185.034 147.56 187.74 147.56C190.446 147.56 192.64 150.412 192.64 153.93C192.64 157.448 190.446 160.3 187.74 160.3Z" fill="#C8DAFF"/>
<path fill-rule="evenodd" clip-rule="evenodd" d="M184.154 28H44.0922C41.4726 28 39.349 30.1236 39.349 32.7432V267.258C39.349 269.805 41.3562 271.883 43.8751 271.997L44.1106 272.001L184.172 271.457C186.785 271.447 188.897 269.326 188.897 266.714V32.7432C188.897 30.1236 186.773 28 184.154 28Z" fill="#C8DAFF"/>
<path d="M177.394 32.8999H51.0461C48.0492 32.8999 45.6198 35.3293 45.6198 38.3261V259.734C45.6198 262.731 48.0492 265.16 51.0461 265.16H177.394C180.39 265.16 182.82 262.731 182.82 259.734V38.3261C182.82 35.3293 180.39 32.8999 177.394 32.8999Z" fill="#EAEFFF"/>
<rect width="120" height="146" rx="6.5" transform="matrix(-1 0 0 1 172.5 50.5)" fill="#D5E4FF"/>
<rect x="-0.25" y="0.25" width="119.5" height="145.5" rx="6.25" transform="matrix(-1 0 0 1 175.5 47)" fill="white" stroke="#D2E0FF" stroke-width="0.5"/>
<path fill-rule="evenodd" clip-rule="evenodd" d="M65.6001 59.3501C64.9097 59.3501 64.3501 58.7905 64.3501 58.1001C64.3501 57.4097 64.9097 56.8501 65.6001 56.8501C66.2905 56.8501 66.8501 57.4097 66.8501 58.1001C66.8501 58.7905 66.2905 59.3501 65.6001 59.3501Z" fill="#95B2EE"/>
<path fill-rule="evenodd" clip-rule="evenodd" d="M70.1001 59.3501C69.4097 59.3501 68.8501 58.7905 68.8501 58.1001C68.8501 57.4097 69.4097 56.8501 70.1001 56.8501C70.7905 56.8501 71.3501 57.4097 71.3501 58.1001C71.3501 58.7905 70.7905 59.3501 70.1001 59.3501Z" fill="#95B2EE"/>
<path fill-rule="evenodd" clip-rule="evenodd" d="M74.6001 59.3501C73.9097 59.3501 73.3501 58.7905 73.3501 58.1001C73.3501 57.4097 73.9097 56.8501 74.6001 56.8501C75.2905 56.8501 75.8501 57.4097 75.8501 58.1001C75.8501 58.7905 75.2905 59.3501 74.6001 59.3501Z" fill="#95B2EE"/>
<path d="M142.203 56.5C141.237 56.5 140.453 57.2835 140.453 58.25C140.453 59.1843 141.185 59.9476 142.107 59.9974L142.203 60H164.75C165.716 60 166.5 59.2165 166.5 58.25C166.5 57.3157 165.768 56.5524 164.846 56.5026L164.75 56.5H142.203Z" fill="#A7C3FF"/>
<path d="M136 148.5C134.895 148.5 134 147.605 134 146.5C134 145.395 134.895 144.5 136 144.5C137.105 144.5 138 145.395 138 146.5C138 147.605 137.105 148.5 136 148.5Z" fill="#1075F0"/>
<path fill-rule="evenodd" clip-rule="evenodd" d="M136 158.5C134.895 158.5 134 157.605 134 156.5C134 155.395 134.895 154.5 136 154.5C137.105 154.5 138 155.395 138 156.5C138 157.605 137.105 158.5 136 158.5Z" fill="#FF5D8E"/>
<path d="M136 168.5C134.895 168.5 134 167.605 134 166.5C134 165.395 134.895 164.5 136 164.5C137.105 164.5 138 165.395 138 166.5C138 167.605 137.105 168.5 136 168.5Z" fill="#FFBF29"/>
<path d="M110.691 145.625C110.208 145.625 109.816 146.017 109.816 146.5C109.816 146.959 110.17 147.336 110.62 147.372L110.691 147.375H128.221C128.704 147.375 129.096 146.983 129.096 146.5C129.096 146.041 128.742 145.664 128.292 145.628L128.221 145.625H110.691Z" fill="#A7C3FF"/>
<path d="M114.191 155.625C113.708 155.625 113.316 156.017 113.316 156.5C113.316 156.959 113.67 157.336 114.12 157.372L114.191 157.375H128.221C128.704 157.375 129.096 156.983 129.096 156.5C129.096 156.041 128.742 155.664 128.292 155.628L128.221 155.625H114.191Z" fill="#A7C3FF"/>
<path d="M104.191 165.625C103.708 165.625 103.316 166.017 103.316 166.5C103.316 166.959 103.67 167.336 104.12 167.372L104.191 167.375H128.221C128.704 167.375 129.096 166.983 129.096 166.5C129.096 166.041 128.742 165.664 128.292 165.628L128.221 165.625H104.191Z" fill="#A7C3FF"/>
<path fill-rule="evenodd" clip-rule="evenodd" d="M136 178.5C134.895 178.5 134 177.605 134 176.5C134 175.395 134.895 174.5 136 174.5C137.105 174.5 138 175.395 138 176.5C138 177.605 137.105 178.5 136 178.5Z" fill="#40B955"/>
<path d="M94.1915 175.625C93.7082 175.625 93.3165 176.017 93.3165 176.5C93.3165 176.959 93.67 177.336 94.1197 177.372L94.1915 177.375H128.221C128.704 177.375 129.096 176.983 129.096 176.5C129.096 176.041 128.742 175.664 128.292 175.628L128.221 175.625H94.1915Z" fill="#A7C3FF"/>
<path fill-rule="evenodd" clip-rule="evenodd" d="M115.92 82C102.069 82 90.84 93.2287 90.84 107.08C90.84 120.931 102.069 132.16 115.92 132.16C129.771 132.16 141 120.931 141 107.08C141 93.2287 129.771 82 115.92 82ZM115.75 95.5C122.239 95.5 127.5 100.761 127.5 107.25C127.5 113.739 122.239 119 115.75 119C109.261 119 104 113.739 104 107.25C104 100.761 109.261 95.5 115.75 95.5Z" fill="#DEE9FF"/>
<path fill-rule="evenodd" clip-rule="evenodd" d="M115.75 119C113.481 119 111.362 118.357 109.565 117.242L102.669 128.378C106.514 130.775 111.055 132.16 115.92 132.16C127.307 132.16 136.921 124.572 139.982 114.177L127.051 110.48C125.647 115.399 121.119 119 115.75 119Z" fill="#40B955"/>
<path d="M138.116 95.3916L126.115 101.711C126.999 103.361 127.5 105.247 127.5 107.25C127.5 108.883 127.167 110.438 126.565 111.851L138.812 117.34C140.218 114.208 141 110.735 141 107.08C141 102.859 139.957 98.8818 138.116 95.3916Z" fill="#FFBF29"/>
<path fill-rule="evenodd" clip-rule="evenodd" d="M119.23 82.2168L117.446 95.6218C121.212 96.1664 124.4 98.4972 126.124 101.727L138.133 95.426C134.425 88.3727 127.456 83.3015 119.23 82.2168Z" fill="#FF5D8E"/>
<path d="M115.92 82L115.75 82.001L115.75 95.5C118.178 95.5 120.434 96.2366 122.307 97.4984L130.28 86.5153C126.212 83.6696 121.261 82 115.92 82Z" fill="#1075F0"/>
<path d="M176 69.4902H56.3" stroke="#D2E0FF" stroke-width="0.65"/>
<path fill-rule="evenodd" clip-rule="evenodd" d="M137.74 258.3H99.5202C97.3552 258.3 95.6002 260.055 95.6002 262.22V274.96H137.74C139.905 274.96 141.66 273.205 141.66 271.04V262.22C141.66 260.055 139.905 258.3 137.74 258.3Z" fill="#A7C3FF"/>
<path fill-rule="evenodd" clip-rule="evenodd" d="M96.5801 271.04H92.6601V274.96H96.5801V271.04Z" fill="#A7C3FF"/>
<path fill-rule="evenodd" clip-rule="evenodd" d="M139.7 258.3H101.48C99.3152 258.3 97.5601 260.055 97.5601 262.22V271.04C97.5601 273.205 99.3152 274.96 101.48 274.96H139.7C141.865 274.96 143.62 273.205 143.62 271.04V262.22C143.62 260.055 141.865 258.3 139.7 258.3Z" fill="#C8DAFF"/>
<path fill-rule="evenodd" clip-rule="evenodd" d="M36.5747 156.926L35.2038 352.29L27.814 352.237L29.1849 156.873L36.5747 156.926Z" fill="#95B2EE"/>
<path fill-rule="evenodd" clip-rule="evenodd" d="M33.8402 160.3C31.134 160.3 28.9402 157.448 28.9402 153.93C28.9402 150.412 31.134 147.56 33.8402 147.56C36.5464 147.56 38.7402 150.412 38.7402 153.93C38.7402 157.448 36.5464 160.3 33.8402 160.3Z" fill="#95B2EE"/>
<path fill-rule="evenodd" clip-rule="evenodd" d="M30.9003 160.3C28.1941 160.3 26.0003 157.448 26.0003 153.93C26.0003 150.412 28.1941 147.56 30.9003 147.56C33.6065 147.56 35.8003 150.412 35.8003 153.93C35.8003 157.448 33.6065 160.3 30.9003 160.3Z" fill="#C8DAFF"/>
<path fill-rule="evenodd" clip-rule="evenodd" d="M779.165 239.822C779.249 238.842 778.475 238 777.491 238H719.543C718.671 238 717.943 238.668 717.869 239.538L709.6 337.12H767.833C769.578 337.12 771.033 335.783 771.181 334.044L779.165 239.822Z" fill="#C8DAFF"/>
<path d="M712.92 313.6H711.24C701.034 313.6 692.76 321.874 692.76 332.08V332.92H712.92V313.6Z" fill="#C8DAFF"/>
<path fill-rule="evenodd" clip-rule="evenodd" d="M780.846 239.822C780.929 238.842 780.155 238 779.172 238H730.624C729.751 238 729.023 238.668 728.95 239.538L720.68 337.12H769.513C771.258 337.12 772.713 335.783 772.861 334.044L780.846 239.822Z" fill="#A7C3FF"/>
<rect width="7.56" height="68.04" transform="matrix(-1 0 0 1 723.04 340.48)" fill="#C8DAFF"/>
<path fill-rule="evenodd" clip-rule="evenodd" d="M754.12 412.72L718.84 400.96L683.56 412.72V416.92L718.84 408.52L754.12 416.92V412.72Z" fill="#A7C3FF"/>
<path fill-rule="evenodd" clip-rule="evenodd" d="M682.72 420.28C679.936 420.28 677.68 418.024 677.68 415.24C677.68 412.457 679.936 410.2 682.72 410.2C685.503 410.2 687.76 412.457 687.76 415.24C687.76 418.024 685.503 420.28 682.72 420.28Z" fill="#A7C3FF"/>
<path fill-rule="evenodd" clip-rule="evenodd" d="M718.84 420.28C716.056 420.28 713.8 418.024 713.8 415.24C713.8 412.457 716.056 410.2 718.84 410.2C721.623 410.2 723.88 412.457 723.88 415.24C723.88 418.024 721.623 420.28 718.84 420.28Z" fill="#A7C3FF"/>
<path fill-rule="evenodd" clip-rule="evenodd" d="M722.2 404.32H715.48L716.32 416.08H721.36L722.2 404.32Z" fill="#A7C3FF"/>
<path fill-rule="evenodd" clip-rule="evenodd" d="M754.96 420.28C752.176 420.28 749.92 418.024 749.92 415.24C749.92 412.457 752.176 410.2 754.96 410.2C757.744 410.2 760 412.457 760 415.24C760 418.024 757.744 420.28 754.96 420.28Z" fill="#A7C3FF"/>
<path fill-rule="evenodd" clip-rule="evenodd" d="M733.96 332.92H703.72V342.16L714.761 348.294C717.298 349.703 720.382 349.703 722.919 348.294L733.96 342.16V332.92Z" fill="#A7C3FF"/>
<path fill-rule="evenodd" clip-rule="evenodd" d="M733.12 327.04H660.04C659.112 327.04 658.36 327.792 658.36 328.72V335.44C658.36 336.368 659.112 337.12 660.04 337.12H733.12V327.04Z" fill="#C8DAFF"/>
<path fill-rule="evenodd" clip-rule="evenodd" d="M772.6 327.04L721.6 327.04V337.12H769.24C771.096 337.12 772.6 335.616 772.6 333.76V327.04Z" fill="#A7C3FF"/>
</svg>
