<svg width="554" height="412" viewBox="0 0 554 412" fill="none" xmlns="http://www.w3.org/2000/svg">
<rect x="251" y="358.8" width="33" height="19" fill="#95B2EE"/>
<rect x="256" y="358.8" width="28" height="19" fill="#A7C3FF"/>
<path d="M148 381.8C148 374.068 154.268 367.8 162 367.8H350C357.732 367.8 364 374.068 364 381.8V404.8H148V381.8Z" fill="#A7C3FF"/>
<path fill-rule="evenodd" clip-rule="evenodd" d="M151.44 379.8H156.56C157.267 379.8 157.84 380.373 157.84 381.08V398.36C157.84 399.067 157.267 399.64 156.56 399.64H151.44C150.733 399.64 150.16 399.067 150.16 398.36V381.08C150.16 380.373 150.733 379.8 151.44 379.8Z" fill="#95B2EE"/>
<path fill-rule="evenodd" clip-rule="evenodd" d="M152.4 380.76V398.68H141.52C139.753 398.68 138.32 397.247 138.32 395.48V383.96C138.32 382.192 139.753 380.76 141.52 380.76H152.4Z" fill="#A7C3FF"/>
<path fill-rule="evenodd" clip-rule="evenodd" d="M156.24 380.76V398.68H145.36C143.593 398.68 142.16 397.247 142.16 395.48V383.96C142.16 382.192 143.593 380.76 145.36 380.76H156.24Z" fill="#C8DAFF"/>
<path fill-rule="evenodd" clip-rule="evenodd" d="M155.707 390.104L153.966 389.088V389.813H148.003L148.756 387.962C148.904 387.843 149.097 387.759 149.296 387.754C150.099 387.754 150.576 387.754 150.751 387.754C150.87 388.096 151.19 388.344 151.57 388.344C152.051 388.344 152.441 387.95 152.441 387.464C152.441 386.978 152.051 386.583 151.57 386.583C151.19 386.583 150.87 386.831 150.751 387.173L149.313 387.173C148.923 387.173 148.514 387.389 148.254 387.642C148.248 387.649 147.394 389.605 147.394 389.605C147.247 389.724 147.054 389.808 146.856 389.812H146.428C146.294 389.14 145.707 388.634 145.002 388.634C144.199 388.634 143.547 389.292 143.547 390.103C143.547 390.915 144.199 391.573 145.002 391.573C145.707 391.573 146.295 391.066 146.428 390.394H146.838C146.841 390.394 146.844 390.394 146.846 390.394H148.055C148.253 390.399 148.445 390.482 148.592 390.602C148.592 390.602 149.446 392.558 149.451 392.564C149.711 392.818 150.12 393.034 150.51 393.034L151.897 393.034V393.623H153.639V391.864H151.897V392.453C151.897 392.453 151.532 392.452 150.493 392.452C150.295 392.448 150.101 392.364 149.954 392.244L149.2 390.394H153.966V391.12L155.707 390.104Z" fill="#95B2EE"/>
<path fill-rule="evenodd" clip-rule="evenodd" d="M139.48 388.47C140.17 388.459 140.739 389.01 140.75 389.7C140.76 390.347 140.277 390.887 139.648 390.961L139.52 390.97L126.119 391.184C119.853 391.284 113.915 393.969 109.704 398.592L109.413 398.917C104.825 404.152 98.2461 404.202 91.3004 404.329L90.8469 404.333H64.2222C63.5318 404.333 62.9722 403.774 62.9722 403.083C62.9722 402.436 63.464 401.904 64.0944 401.84L64.2222 401.833H90.8469C97.0936 401.833 103.044 402.201 107.243 397.594L107.533 397.27C112.125 392.031 118.676 388.932 125.625 388.696L126.079 388.684L139.48 388.47Z" fill="#A7C3FF"/>
<path fill-rule="evenodd" clip-rule="evenodd" d="M161 381.8C161 374.068 167.268 367.8 175 367.8H368C375.732 367.8 382 374.068 382 381.8V404.8H161V381.8Z" fill="#C8DAFF"/>
<path fill-rule="evenodd" clip-rule="evenodd" d="M281.8 386.2C281.8 387.4 280.6 388.6 279.4 388.6C278.2 388.6 277 387.4 277 386.2C277 385 278.2 383.8 279.4 383.8C280.6 383.8 281.8 385 281.8 386.2Z" fill="#FF5D8E"/>
<path fill-rule="evenodd" clip-rule="evenodd" d="M271.8 386.2C271.8 387.4 270.6 388.6 269.4 388.6C268.2 388.6 267 387.4 267 386.2C267 385 268.2 383.8 269.4 383.8C270.6 383.8 271.8 385 271.8 386.2Z" fill="#A7C3FF"/>
<path fill-rule="evenodd" clip-rule="evenodd" d="M261.8 386.2C261.8 387.4 260.6 388.6 259.4 388.6C258.2 388.6 257 387.4 257 386.2C257 385 258.2 383.8 259.4 383.8C260.6 383.8 261.8 385 261.8 386.2Z" fill="#A7C3FF"/>
<path fill-rule="evenodd" clip-rule="evenodd" d="M390 344.2C390 355 381.2 363.8 370.4 363.8H149.6C138.8 363.8 130 355 130 344.2V20.9999C130 10.1999 138.8 1.3999 149.6 1.3999L370.4 1.3999C381.2 1.3999 390 10.1999 390 20.9999V344.2Z" fill="#A7C3FF"/>
<path fill-rule="evenodd" clip-rule="evenodd" d="M400 344.2C400 355 391.2 363.8 380.4 363.8H159.6C148.8 363.8 140 355 140 344.2V20.9999C140 10.1999 148.8 1.3999 159.6 1.3999L380.4 1.3999C391.2 1.3999 400 10.1999 400 20.9999V344.2Z" fill="#C8DAFF"/>
<rect x="380.8" y="17.3999" width="314.8" height="222.4" transform="rotate(90 380.8 17.3999)" fill="#EAEFFF"/>
<path fill-rule="evenodd" clip-rule="evenodd" d="M178 190.8C178 185.277 182.477 180.8 188 180.8L361 180.8C366.523 180.8 371 185.277 371 190.8V289.8C371 295.323 366.523 299.8 361 299.8H188C182.477 299.8 178 295.323 178 289.8V190.8Z" fill="#D5E4FF"/>
<path d="M172 184.8C172 179.277 176.477 174.8 182 174.8L355 174.8C360.523 174.8 365 179.277 365 184.8V283.8C365 289.323 360.523 293.8 355 293.8H182C176.477 293.8 172 289.323 172 283.8V184.8Z" fill="#4ED266"/>
<path fill-rule="evenodd" clip-rule="evenodd" d="M311.2 220C317.607 220 322.8 214.807 322.8 208.4C322.8 201.994 317.607 196.8 311.2 196.8C304.794 196.8 299.6 201.994 299.6 208.4C299.6 214.807 304.794 220 311.2 220Z" fill="#FF5D8E"/>
<path fill-rule="evenodd" clip-rule="evenodd" d="M327.2 220C333.607 220 338.8 214.807 338.8 208.4C338.8 201.994 333.607 196.8 327.2 196.8C320.794 196.8 315.6 201.994 315.6 208.4C315.6 214.807 320.794 220 327.2 220Z" fill="white"/>
<path d="M319.095 200.101L319.201 200.001C321.419 202.114 322.8 205.096 322.8 208.4C322.8 211.704 321.419 214.686 319.201 216.799C316.982 214.687 315.6 211.705 315.6 208.4C315.6 205.148 316.939 202.208 319.095 200.101L319.201 200.001L319.095 200.101Z" fill="#FFD676"/>
<path d="M198.6 215.8H222.8C223.684 215.8 224.4 216.517 224.4 217.4V235C224.4 235.884 223.684 236.6 222.8 236.6H198.6C197.716 236.6 197 235.884 197 235V217.4C197 216.517 197.716 215.8 198.6 215.8Z" fill="#FFD676"/>
<path fill-rule="evenodd" clip-rule="evenodd" d="M200.6 248.4H220.6C222.588 248.4 224.2 250.012 224.2 252C224.2 253.989 222.588 255.6 220.6 255.6H200.6C198.612 255.6 197 253.989 197 252C197 250.012 198.612 248.4 200.6 248.4Z" fill="white"/>
<path fill-rule="evenodd" clip-rule="evenodd" d="M200.6 266.4H250.6C252.588 266.4 254.2 268.012 254.2 270C254.2 271.989 252.588 273.6 250.6 273.6H200.6C198.612 273.6 197 271.989 197 270C197 268.012 198.612 266.4 200.6 266.4Z" fill="white"/>
<path fill-rule="evenodd" clip-rule="evenodd" d="M314.6 266.4H334.6C336.588 266.4 338.2 268.012 338.2 270C338.2 271.989 336.588 273.6 334.6 273.6H314.6C312.612 273.6 311 271.989 311 270C311 268.012 312.612 266.4 314.6 266.4Z" fill="white"/>
<path fill-rule="evenodd" clip-rule="evenodd" d="M200.6 196.4H220.6C222.588 196.4 224.2 198.012 224.2 200C224.2 201.989 222.588 203.6 220.6 203.6H200.6C198.612 203.6 197 201.989 197 200C197 198.012 198.612 196.4 200.6 196.4Z" fill="white"/>
<path fill-rule="evenodd" clip-rule="evenodd" d="M238.2 248.4H258.2C260.188 248.4 261.8 250.012 261.8 252C261.8 253.989 260.188 255.6 258.2 255.6H238.2C236.212 255.6 234.6 253.989 234.6 252C234.6 250.012 236.212 248.4 238.2 248.4Z" fill="white"/>
<path fill-rule="evenodd" clip-rule="evenodd" d="M276.6 248.4H296.6C298.588 248.4 300.2 250.012 300.2 252C300.2 253.989 298.588 255.6 296.6 255.6H276.6C274.612 255.6 273 253.989 273 252C273 250.012 274.612 248.4 276.6 248.4Z" fill="white"/>
<path fill-rule="evenodd" clip-rule="evenodd" d="M314.2 248.4H334.2C336.188 248.4 337.8 250.012 337.8 252C337.8 253.989 336.188 255.6 334.2 255.6H314.2C312.212 255.6 310.6 253.989 310.6 252C310.6 250.012 312.212 248.4 314.2 248.4Z" fill="white"/>
<path fill-rule="evenodd" clip-rule="evenodd" d="M269.6 357C274.4 357 278.4 353 278.4 348.2C278.4 343.4 274.4 339.4 269.6 339.4C264.8 339.4 260.8 343.4 260.8 348.2C261.2 353 264.8 357 269.6 357Z" fill="#A7C3FF"/>
<path fill-rule="evenodd" clip-rule="evenodd" d="M179 59.2485H368.013C371.327 59.2485 374.013 61.9348 374.013 65.2485V146.652C374.013 149.966 371.327 152.652 368.013 152.652H179C175.686 152.652 173 149.966 173 146.652V65.2485C173 61.9348 175.686 59.2485 179 59.2485Z" fill="#D5E4FF"/>
<path d="M174 54.7485H363.013C366.051 54.7485 368.513 57.211 368.513 60.2485V141.652C368.513 144.69 366.051 147.152 363.013 147.152H174C170.962 147.152 168.5 144.69 168.5 141.652V60.2485C168.5 57.211 170.962 54.7485 174 54.7485Z" fill="white" stroke="#D2E0FF"/>
<path d="M278 78.7998C280.209 78.7998 282 77.0089 282 74.7998C282 72.5907 280.209 70.7998 278 70.7998C275.791 70.7998 274 72.5907 274 74.7998C274 77.0089 275.791 78.7998 278 78.7998Z" fill="#9BBAFF"/>
<path d="M348.617 73.0498C349.583 73.0498 350.367 73.8333 350.367 74.7998C350.367 75.718 349.66 76.471 348.76 76.544L348.617 76.5498H293.558C292.592 76.5498 291.808 75.7663 291.808 74.7998C291.808 73.8816 292.515 73.1286 293.415 73.0556L293.558 73.0498H348.617Z" fill="#9BBAFF"/>
<path fill-rule="evenodd" clip-rule="evenodd" d="M318.617 83.0498C319.583 83.0498 320.367 83.8333 320.367 84.7998C320.367 85.718 319.66 86.471 318.76 86.544L318.617 86.5498H293.558C292.592 86.5498 291.808 85.7663 291.808 84.7998C291.808 83.8816 292.515 83.1286 293.415 83.0556L293.558 83.0498H318.617Z" fill="#D5E4FF"/>
<path d="M278 113.8C280.209 113.8 282 112.009 282 109.8C282 107.591 280.209 105.8 278 105.8C275.791 105.8 274 107.591 274 109.8C274 112.009 275.791 113.8 278 113.8Z" fill="#9BBAFF"/>
<path d="M348.617 108.05C349.583 108.05 350.367 108.833 350.367 109.8C350.367 110.718 349.66 111.471 348.76 111.544L348.617 111.55H293.558C292.592 111.55 291.808 110.766 291.808 109.8C291.808 108.882 292.515 108.129 293.415 108.056L293.558 108.05H348.617Z" fill="#9BBAFF"/>
<path fill-rule="evenodd" clip-rule="evenodd" d="M318.617 118.05C319.583 118.05 320.367 118.833 320.367 119.8C320.367 120.718 319.66 121.471 318.76 121.544L318.617 121.55H293.558C292.592 121.55 291.808 120.766 291.808 119.8C291.808 118.882 292.515 118.129 293.415 118.056L293.558 118.05H318.617Z" fill="#D5E4FF"/>
<path d="M194 108.8H238C240.209 108.8 242 110.591 242 112.8V124.8C242 127.009 240.209 128.8 238 128.8H194C191.791 128.8 190 127.009 190 124.8V112.8C190 110.591 191.791 108.8 194 108.8Z" fill="#4ED266"/>
<path fill-rule="evenodd" clip-rule="evenodd" d="M205.52 122.846C206.851 122.837 207.69 122.814 208.038 122.778C208.593 122.718 209.06 122.56 209.438 122.301C209.817 122.043 210.115 121.698 210.334 121.267C210.553 120.835 210.662 120.391 210.662 119.934C210.662 119.353 210.493 118.849 210.154 118.419C209.816 117.99 209.331 117.686 208.701 117.508C209.148 117.311 209.502 117.017 209.763 116.624C210.024 116.231 210.154 115.799 210.154 115.329C210.154 114.895 210.048 114.503 209.837 114.153C209.625 113.804 209.361 113.524 209.043 113.314C208.726 113.104 208.366 112.965 207.964 112.899C207.562 112.833 206.952 112.8 206.133 112.8H202V122.846H205.52ZM205.747 116.795L204.088 116.795V114.472L205.6 114.472C206.397 114.475 206.888 114.486 207.072 114.506C207.42 114.547 207.682 114.665 207.858 114.859C208.034 115.053 208.123 115.306 208.123 115.616C208.123 115.941 208.02 116.202 207.816 116.401C207.611 116.6 207.33 116.72 206.973 116.761C206.775 116.784 206.27 116.795 205.456 116.795L205.747 116.795ZM204.088 118.467V121.154H206.021C206.773 121.154 207.25 121.133 207.453 121.092C207.763 121.037 208.016 120.903 208.211 120.691C208.406 120.479 208.504 120.194 208.504 119.838C208.504 119.536 208.428 119.28 208.278 119.07C208.127 118.86 207.91 118.707 207.625 118.611C207.341 118.515 206.724 118.467 205.774 118.467H204.088ZM214.859 123.011C215.353 123.011 215.822 122.899 216.266 122.675C216.711 122.451 217.069 122.145 217.342 121.757V122.846H219.183V115.568H217.201V118.638C217.201 119.68 217.151 120.335 217.053 120.602C216.954 120.869 216.77 121.093 216.502 121.273C216.234 121.454 215.931 121.544 215.593 121.544C215.296 121.544 215.052 121.477 214.859 121.342C214.666 121.207 214.533 121.024 214.46 120.794C214.388 120.563 214.351 119.936 214.351 118.913V115.568H212.369V120.174C212.369 120.859 212.458 121.396 212.637 121.784C212.816 122.172 213.105 122.474 213.505 122.689C213.904 122.903 214.356 123.011 214.859 123.011ZM223.087 125.683C222.788 125.761 222.451 125.8 222.075 125.8C221.694 125.8 221.32 125.761 220.953 125.683L220.777 124.176C221.087 124.235 221.367 124.265 221.616 124.265C222.077 124.265 222.418 124.133 222.639 123.871C222.86 123.608 223.029 123.273 223.147 122.867L220.297 115.568H222.406L224.198 120.735L225.947 115.568H228L225.355 122.572L224.882 123.84C224.708 124.265 224.543 124.589 224.385 124.813C224.227 125.037 224.046 125.218 223.842 125.358C223.637 125.497 223.386 125.606 223.087 125.683Z" fill="#6C717D"/>
<path d="M210 36.7998H184.2C182.212 36.7998 180.6 38.4116 180.6 40.3998V82.9998C180.6 84.988 182.212 86.5998 184.2 86.5998H210V36.7998Z" fill="#F5AC00"/>
<path d="M255 40.3998C255 38.4116 253.388 36.7998 251.4 36.7998H200.6C198.612 36.7998 197 38.4116 197 40.3998V82.9998C197 84.988 198.612 86.5998 200.6 86.5998H251.4C253.388 86.5998 255 84.988 255 82.9998V40.3998Z" fill="#FFBF29"/>
<rect width="15.6" height="4.2" rx="2.1" transform="matrix(-1 0 0 1 250.2 67.1997)" fill="#F5AC00"/>
<path d="M250.2 78.4999C250.2 77.3401 249.26 76.3999 248.1 76.3999H230.7C229.54 76.3999 228.6 77.3401 228.6 78.4999C228.6 79.6597 229.54 80.5999 230.7 80.5999H248.1C249.26 80.5999 250.2 79.6597 250.2 78.4999Z" fill="#F5AC00"/>
<path d="M231.2 36.7998H221.6V48.7998L222.8 47.5998L224 48.7998L225.2 47.5998L226.4 48.7998L227.6 47.5998L228.8 48.7998L230 47.5998L231.2 48.7998V36.7998Z" fill="#F5AC00"/>
<path fill-rule="evenodd" clip-rule="evenodd" d="M252.4 11.3998C251.6 11.3998 250.8 10.5998 250.8 9.7998C250.8 8.9998 251.6 8.1998 252.4 8.1998L286.8 8.1998C287.6 8.1998 288.4 8.9998 288.4 9.7998C288.4 10.5998 287.6 11.3998 286.8 11.3998L252.4 11.3998Z" fill="#A7C3FF"/>
<path fill-rule="evenodd" clip-rule="evenodd" d="M90.4595 375.174H103.765L106.352 393.654H94.1555L90.4595 375.174Z" fill="#616988"/>
<path fill-rule="evenodd" clip-rule="evenodd" d="M92.4494 384.059C92.4494 384.059 93.047 389.586 92.4494 393.256C92.1371 395.173 91.8189 398.311 91.4948 402.669C91.4055 403.869 135.408 401.53 135.185 400.818C134.56 398.825 133.214 397.829 131.147 397.829C126.939 397.829 119.662 397.206 117.139 395.691C114.617 394.176 105.101 383.354 105.101 383.354C105.101 383.354 102.044 384.499 99.9994 384.499C97.9545 384.499 92.4494 384.059 92.4494 384.059Z" fill="#283845"/>
<path fill-rule="evenodd" clip-rule="evenodd" d="M126.834 397.768C128.405 397.882 129.909 397.935 131.147 397.935C133.953 397.935 135.43 399.75 135.578 403.379C129.809 406.045 125.198 407.378 121.743 407.378C120.64 407.378 115.211 405.982 109.248 405.819C106.999 405.757 104.822 406.999 101.882 406.914L92.8813 406.617C92.3465 406.598 91.7946 406.578 91.2256 406.558L91.3625 404.544C91.4383 403.464 91.5138 402.449 91.589 401.5L92.6678 401.668C96.5424 402.257 99.5296 402.578 101.63 402.631C104.245 402.696 107.14 401.071 109.248 401.104L110.573 401.13C116.936 401.278 121.541 401.702 122.836 401.474C125.272 401.045 127.202 400.559 128.623 400.016L126.834 397.768Z" fill="#7680A4"/>
<path fill-rule="evenodd" clip-rule="evenodd" d="M56.8379 187.835L81.3645 290.753C81.3645 290.753 80.0077 306.209 80.0077 317.135C80.0077 328.061 91.595 382.984 91.595 382.984H105.995L98.6913 187.835H56.8379Z" fill="#03344B"/>
<path fill-rule="evenodd" clip-rule="evenodd" d="M31.3235 374.804H44.6291L40.9331 393.654H28.7363L31.3235 374.804Z" fill="#616988"/>
<path fill-rule="evenodd" clip-rule="evenodd" d="M29.6173 384.798C29.6173 384.798 29.1061 390.325 28.5085 393.995C28.1962 395.913 28.2476 399.05 27.9235 403.408C27.8342 404.609 71.8363 402.269 71.6132 401.557C70.9888 399.565 69.643 398.568 67.5759 398.568C63.3675 398.568 56.0905 397.945 53.568 396.43C51.0455 394.915 42.6384 384.093 42.6384 384.093C42.6384 384.093 39.5817 385.238 37.5369 385.238C35.492 385.238 29.6173 384.798 29.6173 384.798Z" fill="#364B5D"/>
<path fill-rule="evenodd" clip-rule="evenodd" d="M63.2626 398.507C64.8332 398.621 66.3375 398.674 67.5759 398.674C70.3815 398.674 71.8583 400.489 72.0063 404.119C66.2379 406.784 61.6264 408.117 58.1717 408.117L56.4279 408.093C52.4463 408.016 42.8551 407.75 27.6543 407.297L27.752 405.846C27.8495 404.431 27.9465 403.123 28.043 401.924L34.0949 402.112C48.8072 402.544 57.1969 402.577 59.2642 402.213C61.7012 401.784 63.6303 401.298 65.0517 400.755L63.2626 398.507Z" fill="#7680A4"/>
<path fill-rule="evenodd" clip-rule="evenodd" d="M38.3581 188.205L35.9039 287.427C35.9039 287.427 30.8511 303.992 30.8511 314.917C30.8511 325.843 29.1328 383.354 29.1328 383.354H44.2717L79.5685 188.205H38.3581Z" fill="#064C6C"/>
<path fill-rule="evenodd" clip-rule="evenodd" d="M66.2345 194L54.8286 210.12L56.4998 194.07L66.2345 194Z" fill="#03344B"/>
<path d="M56.741 190.72L45.3151 290.83C45.3151 290.83 41.9603 303.249 40.19 316.985C38.4197 330.721 34.7549 383.354 34.7549 383.354" stroke="#03344B" stroke-width="0.5544"/>
<path fill-rule="evenodd" clip-rule="evenodd" d="M107.122 128.434L115.511 144.817L146.277 115.246C146.401 115.127 146.48 114.969 146.5 114.798L147.77 103.701C147.77 103.701 155.086 91.9377 156.283 96.2202C156.73 97.8202 152.943 99.6983 153.669 104.927C153.803 105.896 161.632 100.605 164.992 98.2858C165.54 97.9076 166.274 98.3877 166.147 99.0413L163.779 111.261C163.746 111.428 163.657 111.579 163.527 111.688L152.333 121.042L123.79 160.008C119.356 166.062 110.153 165.531 106.445 159.006L92.9154 135.203L107.122 128.434Z" fill="#E09282"/>
<path d="M101.209 107.555C98.8826 102.784 93.1296 100.804 88.3595 103.13L86.0342 104.264C81.2641 106.591 79.2832 112.344 81.6097 117.114L96.0296 146.679L115.629 137.12L101.209 107.555Z" fill="#B7C3D1"/>
<path fill-rule="evenodd" clip-rule="evenodd" d="M96.8823 122.798L103.798 142.97L98.9151 145.276L96.8823 122.798Z" fill="#080708" fill-opacity="0.245739"/>
<path fill-rule="evenodd" clip-rule="evenodd" d="M36.2993 109.602C36.2993 105.453 39.4228 101.97 43.5471 101.519L70.1177 98.6152L90.1025 101.41C93.8686 101.937 96.7666 105.004 97.0798 108.793L103.936 191.754L36.2993 195.45V109.602Z" fill="#B7C3D1"/>
<path fill-rule="evenodd" clip-rule="evenodd" d="M36.2988 186.075L36.3833 188.488L103.472 186.145L103.936 191.754L36.2991 195.45L36.2988 186.075ZM102.07 169.182L102.802 178.032L36.2988 180.354V171.479L102.07 169.182ZM100.729 152.956L101.4 161.069L36.2988 163.342V155.206L100.729 152.956ZM99.3268 135.993L100.059 144.843L36.2988 147.07V138.194L99.3268 135.993ZM97.9858 119.768L98.6568 127.881L36.2988 130.058V121.921L97.9858 119.768ZM70.1175 98.6152L90.1023 101.41C93.8684 101.937 96.7664 105.004 97.0796 108.793L97.3158 111.655L36.2988 113.785L36.2991 109.602C36.2991 105.453 39.4226 101.97 43.5469 101.519L70.1175 98.6152Z" fill="#E3E9FF"/>
<path fill-rule="evenodd" clip-rule="evenodd" d="M70.1179 98.6152L82.2774 100.316L82.2832 100.648C82.2832 105.853 78.0636 110.073 72.8584 110.073C67.6532 110.073 63.4336 105.853 63.4336 100.648C63.4336 100.203 63.4645 99.7647 63.5242 99.3359L70.1179 98.6152Z" fill="#B7C3D1"/>
<path fill-rule="evenodd" clip-rule="evenodd" d="M50.6964 124.187L36.4526 172.028V144.322L50.6964 124.187Z" fill="#080708" fill-opacity="0.245739"/>
<path d="M82.2371 116.25C82.3793 114.897 83.5918 113.915 84.9451 114.057L99.5845 115.596C100.938 115.738 101.92 116.951 101.777 118.304L97.8505 155.666C97.7083 157.02 96.4958 158.001 95.1425 157.859L80.5031 156.321C79.1497 156.178 78.1679 154.966 78.3101 153.613L82.2371 116.25Z" fill="#1075F0"/>
<path d="M83.8284 116.418C83.9706 115.064 85.1831 114.083 86.5364 114.225L112.314 116.934C113.668 117.076 114.65 118.289 114.507 119.642L110.58 157.004C110.438 158.358 109.226 159.34 107.872 159.197L82.0944 156.488C80.741 156.346 79.7592 155.133 79.9015 153.78L83.8284 116.418Z" fill="#467FFF"/>
<path d="M96.6937 139.424C98.0119 139.563 99.1929 138.607 99.3314 137.288C99.47 135.97 98.5137 134.789 97.1954 134.651C95.8772 134.512 94.6963 135.469 94.5577 136.787C94.4192 138.105 95.3755 139.286 96.6937 139.424Z" fill="white"/>
<path d="M86.0917 117.75C86.154 117.157 86.6855 116.727 87.2787 116.789L89.9679 117.072C90.5611 117.134 90.9914 117.666 90.9291 118.259C90.8667 118.852 90.3353 119.282 89.7421 119.22L87.0529 118.937C86.4597 118.875 86.0294 118.344 86.0917 117.75Z" fill="white"/>
<path fill-rule="evenodd" clip-rule="evenodd" d="M37.9414 140.435L29.9998 154.984C29.9998 154.984 94.6248 133.294 95.2191 134.282C96.2016 135.915 90.1352 138.88 88.5562 140.837C86.9771 142.795 88.5562 148.325 86.8345 150.392C86.0832 151.294 78.2255 151.305 75.6094 151.305C74.507 151.305 62.0615 156.668 42.9976 166.452C41.5482 167.196 37.0756 169.123 31.5376 171.451C20.3931 176.137 9.41303 164.628 14.5124 153.666L24.3861 132.443L37.9414 140.435Z" fill="#E09282"/>
<path fill-rule="evenodd" clip-rule="evenodd" d="M35.7626 106.86C38.496 102.31 44.3998 100.838 48.9489 103.572L51.1666 104.904C55.7158 107.638 57.1878 113.542 54.4543 118.091L37.5125 146.287L18.8207 135.056L35.7626 106.86Z" fill="#B7C3D1"/>
<path fill-rule="evenodd" clip-rule="evenodd" d="M74.1585 140.549C74.1585 140.549 79.1832 130.404 80.967 130.525C82.7508 130.645 79.4468 140.277 79.4468 140.277L74.1585 140.549Z" fill="#E09282"/>
<path fill-rule="evenodd" clip-rule="evenodd" d="M70.8257 87.6733C77.7659 87.6733 83.3921 82.0472 83.3921 75.1069C83.3921 68.1667 77.7659 62.5405 70.8257 62.5405C63.8854 62.5405 58.2593 68.1667 58.2593 75.1069C58.2593 82.0472 63.8854 87.6733 70.8257 87.6733Z" fill="#321111"/>
<path fill-rule="evenodd" clip-rule="evenodd" d="M65.0966 75.1069C70.5059 75.1069 74.891 70.7218 74.891 65.3125C74.891 59.9032 70.5059 55.5181 65.0966 55.5181C59.6873 55.5181 55.3022 59.9032 55.3022 65.3125C55.3022 70.7218 59.6873 75.1069 65.0966 75.1069Z" fill="#321111"/>
<path fill-rule="evenodd" clip-rule="evenodd" d="M80.0656 65.4974C85.7811 65.4974 90.4144 60.8641 90.4144 55.1486C90.4144 49.4331 85.7811 44.7998 80.0656 44.7998C74.3501 44.7998 69.7168 49.4331 69.7168 55.1486C69.7168 60.8641 74.3501 65.4974 80.0656 65.4974Z" fill="#321111"/>
<path fill-rule="evenodd" clip-rule="evenodd" d="M69.9016 62.5405C73.4738 62.5405 76.3696 59.6447 76.3696 56.0725C76.3696 52.5003 73.4738 49.6045 69.9016 49.6045C66.3294 49.6045 63.4336 52.5003 63.4336 56.0725C63.4336 59.6447 66.3294 62.5405 69.9016 62.5405Z" fill="#321111"/>
<path fill-rule="evenodd" clip-rule="evenodd" d="M91.5232 65.1279C96.6263 65.1279 100.763 60.9911 100.763 55.8879C100.763 50.7848 96.6263 46.6479 91.5232 46.6479C86.4201 46.6479 82.2832 50.7848 82.2832 55.8879C82.2832 60.9911 86.4201 65.1279 91.5232 65.1279Z" fill="#321111"/>
<path fill-rule="evenodd" clip-rule="evenodd" d="M88.9358 78.4336C94.0389 78.4336 98.1758 74.2967 98.1758 69.1936C98.1758 64.0905 94.0389 59.9536 88.9358 59.9536C83.8327 59.9536 79.6958 64.0905 79.6958 69.1936C79.6958 74.2967 83.8327 78.4336 88.9358 78.4336Z" fill="#321111"/>
<path fill-rule="evenodd" clip-rule="evenodd" d="M65.9652 98.9916C65.9652 102.782 69.038 105.853 72.8285 105.853C76.9287 105.853 80.1141 102.282 79.6472 98.2081L79.0451 92.9544C79.0451 92.9544 87.7036 93.6402 90.6359 89.4534C93.5682 85.2667 93.1635 63.4595 93.1635 63.4595L65.9652 63.4595C65.9652 63.4595 65.9652 68.8655 65.9652 70.7403C57.6613 70.7403 57.6613 80.7669 65.9652 80.7669C65.9652 86.7261 65.9652 93.858 65.9652 98.9916Z" fill="#E09282"/>
<path fill-rule="evenodd" clip-rule="evenodd" d="M71.5649 69.9324C75.6473 69.9324 78.9569 66.6229 78.9569 62.5404C78.9569 58.4579 75.6473 55.1484 71.5649 55.1484C67.4824 55.1484 64.1729 58.4579 64.1729 62.5404C64.1729 66.6229 67.4824 69.9324 71.5649 69.9324Z" fill="#321111"/>
<path fill-rule="evenodd" clip-rule="evenodd" d="M81.9135 66.9759C85.996 66.9759 89.3055 63.6664 89.3055 59.5839C89.3055 55.5014 85.996 52.1919 81.9135 52.1919C77.831 52.1919 74.5215 55.5014 74.5215 59.5839C74.5215 63.6664 77.831 66.9759 81.9135 66.9759Z" fill="#321111"/>
<path fill-rule="evenodd" clip-rule="evenodd" d="M94.8495 67.3455C98.932 67.3455 102.242 64.036 102.242 59.9535C102.242 55.871 98.932 52.5615 94.8495 52.5615C90.767 52.5615 87.4575 55.871 87.4575 59.9535C87.4575 64.036 90.767 67.3455 94.8495 67.3455Z" fill="#321111"/>
<path d="M65.6509 61.062H69.7165V74.922C69.7165 76.0447 68.8064 76.9548 67.6837 76.9548C66.561 76.9548 65.6509 76.0447 65.6509 74.922V61.062Z" fill="#321111"/>
<path fill-rule="evenodd" clip-rule="evenodd" d="M79.1481 92.9709C79.1481 92.9709 76.5779 92.6244 74.5993 92.0006C72.6207 91.3768 70.1177 90.1172 70.1177 90.1172C70.1177 90.1172 73.5141 93.4168 75.2996 94.8351C77.0851 96.2533 79.576 97.6301 79.576 97.6301L79.1481 92.9709Z" fill="#B9726B"/>
<path fill-rule="evenodd" clip-rule="evenodd" d="M88.606 71.8633L92.322 79.1512C92.4288 79.3605 92.3157 79.615 92.0888 79.676L88.606 80.6129V71.8633Z" fill="#B9726B"/>
<path fill-rule="evenodd" clip-rule="evenodd" d="M479.794 326.527H490.266V400.205H479.794V326.527Z" fill="#C8DAFF"/>
<path fill-rule="evenodd" clip-rule="evenodd" d="M443.32 401.597C443.32 400.744 443.959 400.026 444.807 399.928L474.505 396.5L479.702 392H484.9H490.097L495.295 396.5L524.992 399.928C525.84 400.026 526.48 400.744 526.48 401.597V402.92C526.48 403.848 525.728 404.6 524.8 404.6H445C444.072 404.6 443.32 403.848 443.32 402.92V401.597Z" fill="#A7C3FF"/>
<rect x="466.84" y="320.88" width="36.12" height="19.32" rx="5.04" fill="#A7C3FF"/>
<path fill-rule="evenodd" clip-rule="evenodd" d="M483.202 234.533C483.939 230.072 487.797 226.8 492.318 226.8H545.588C549.219 226.8 551.982 230.057 551.39 233.639L536.998 320.707C536.261 325.168 532.404 328.44 527.882 328.44H478.573C472.868 328.44 468.526 323.321 469.457 317.693L483.202 234.533Z" fill="#C8DAFF"/>
<path fill-rule="evenodd" clip-rule="evenodd" d="M539.003 232.349C539.532 229.148 542.3 226.8 545.544 226.8C549.638 226.8 552.753 230.472 552.086 234.511L537.477 322.891C536.948 326.092 534.18 328.44 530.936 328.44C526.843 328.44 523.727 324.767 524.395 320.729L539.003 232.349Z" fill="#A7C3FF"/>
<path fill-rule="evenodd" clip-rule="evenodd" d="M424 322.98C424 319.965 426.445 317.52 429.46 317.52H531.94C534.955 317.52 537.4 319.965 537.4 322.98C537.4 325.995 534.955 328.44 531.94 328.44H429.46C426.445 328.44 424 325.995 424 322.98Z" fill="#C8DAFF"/>
<path fill-rule="evenodd" clip-rule="evenodd" d="M476.92 322.98C476.92 319.965 479.364 317.52 482.38 317.52H531.94C534.955 317.52 537.4 319.965 537.4 322.98C537.4 325.995 534.955 328.44 531.94 328.44H482.38C479.364 328.44 476.92 325.995 476.92 322.98Z" fill="#A7C3FF"/>
<path fill-rule="evenodd" clip-rule="evenodd" d="M441.176 400.119C437.838 400.907 427.942 400.02 420.525 400.538C417.185 400.772 410.548 400.021 409.409 399.506C407.766 398.764 410.316 396.655 411.988 395.981C414.708 394.884 419.006 393.133 422.018 391.822C426.74 389.766 431.021 388.494 431.546 385.279C432.071 382.063 425.91 366.497 425.91 366.497L439.251 371.992C439.251 371.992 442.106 383.214 443.524 388.866C444.942 394.518 444.25 396.487 444.25 396.487C444.25 396.487 444.513 399.331 441.176 400.119Z" fill="#FFC4A7"/>
<path fill-rule="evenodd" clip-rule="evenodd" d="M444.71 388.098C445.062 388.978 446.431 394.768 446.431 394.768V397.563C446.431 397.563 428.2 401.756 422.088 401.756C415.976 401.756 405.043 398.392 405.043 398.392C405.043 398.392 405.501 395.586 406.401 395.182C407.301 394.778 415.421 393.718 416.63 393.182C417.839 392.646 427.61 387.569 429.525 387.569C431.44 387.569 431.911 387.862 433.441 388.915C434.971 389.968 437.672 391.068 440.62 390.618C443.568 390.167 442.266 387.344 442.956 387.028C443.647 386.712 444.357 387.218 444.71 388.098Z" fill="#D8DDF3"/>
<path fill-rule="evenodd" clip-rule="evenodd" d="M447.243 394.798C447.859 395.197 448.368 401.804 447.993 402.089C447.618 402.373 445.368 404.449 438.027 404.449C436.844 404.449 432.197 402.607 430.793 402.614C428.157 402.626 415.886 404.21 413.441 403.647C408.883 402.597 404.447 399.38 404.447 398.686C404.447 397.991 404.466 397.701 404.674 397.701C404.882 397.701 414.803 400.827 417.849 400.377C418.487 400.283 427.268 397.987 430.131 397.902C431.464 397.862 438.448 399.256 438.448 399.256C438.448 399.256 446.943 394.604 447.243 394.798Z" fill="#93B2CC"/>
<path fill-rule="evenodd" clip-rule="evenodd" d="M489.764 284.266C489.764 284.266 484.467 316.205 464.002 316.205C443.537 316.205 425.074 313.64 425.074 313.64C425.074 313.64 428.352 327.073 431.296 338.39C434.239 349.707 440.855 375.127 440.855 375.127H427.749L398.521 314.715C392.772 302.832 400.736 288.879 413.891 287.785L456.203 284.266V279.226H489.764V284.266Z" fill="#0A2650"/>
<path fill-rule="evenodd" clip-rule="evenodd" d="M393.583 400.553C390.245 401.335 380.35 400.466 372.933 400.984C369.593 401.218 364.066 400.089 362.927 399.581C361.295 398.853 363.826 396.759 365.483 396.086C367.889 395.109 371.545 393.609 374.433 392.365C379.157 390.329 382.92 388.43 384.347 385.246C385.773 382.063 390.49 367.321 390.49 367.321L401.679 373.436C401.679 373.436 397.67 382.012 396.66 385.846C395.651 389.679 396.66 396.96 396.66 396.96C396.66 396.96 396.921 399.771 393.583 400.553Z" fill="#FFC4A7"/>
<path fill-rule="evenodd" clip-rule="evenodd" d="M397.939 387.477C398.322 388.344 399.892 394.082 399.892 394.082L399.99 396.876C399.99 396.876 381.917 401.703 375.808 401.916C369.7 402.13 358.656 399.149 358.656 399.149C358.656 399.149 359.016 396.329 359.901 395.894C360.786 395.458 368.865 394.115 370.054 393.537C371.243 392.959 380.831 387.545 382.745 387.478C384.659 387.411 385.14 387.688 386.706 388.687C388.272 389.686 391.009 390.691 393.94 390.137C396.871 389.584 395.471 386.808 396.15 386.469C396.829 386.129 397.557 386.609 397.939 387.477Z" fill="#E3E9FF"/>
<path fill-rule="evenodd" clip-rule="evenodd" d="M400.705 394.085C401.335 394.462 402.074 401.047 401.709 401.344C401.344 401.642 399.168 403.795 391.832 404.051C384.495 404.307 371.825 404.998 367.233 404.108C362.64 403.217 358.095 400.158 358.071 399.463C358.046 398.769 358.055 398.479 358.263 398.471C358.471 398.464 368.496 401.242 371.524 400.686C373.078 400.401 391.346 399.242 391.346 399.242C391.346 399.242 400.399 393.901 400.705 394.085Z" fill="#93B2CC"/>
<path fill-rule="evenodd" clip-rule="evenodd" d="M509.142 284.323C509.142 284.323 511.911 317.785 486.123 317.393C465.661 317.082 421.729 312.13 421.729 312.13C421.729 312.13 421.012 329.332 416.981 339.486C412.95 349.64 401.024 376.034 401.024 376.034H387.134L400.388 307.204C402.082 298.405 409.229 291.686 418.115 290.537L466.178 284.323V279.282L509.475 279.282L509.142 284.323Z" fill="#113B7B"/>
<path fill-rule="evenodd" clip-rule="evenodd" d="M489.029 284.694L497.478 299.788L499.348 284.375L489.029 284.694Z" fill="#0A2650"/>
<path d="M499.124 279.282L498.216 293.712C497.629 303.051 489.699 310.216 480.349 309.856L420.868 307.567C418.635 307.481 416.638 308.945 416.049 311.1L398.268 376.086" stroke="#0A2650" stroke-width="0.587664"/>
<path fill-rule="evenodd" clip-rule="evenodd" d="M453.87 209.321L440.974 237.026L437.137 209.321C436.652 205.86 436.375 203.928 436.306 203.526C436.045 202.001 437.837 198.783 438.058 195.619L438.088 195.127C438.309 191.969 439.385 188.206 439.232 187.145C439.074 186.048 437.644 186.759 436.751 187.473C434.758 189.067 434.905 191.227 433.636 193.866C433.188 194.799 428.931 185.347 427.235 185.347C425.538 185.347 420.38 193.427 420.38 195.977C420.38 197.677 422.917 201.098 427.993 206.241L429.908 250.021C430.146 255.468 434.756 259.691 440.203 259.453C443.801 259.295 447.028 257.191 448.623 253.962L468.127 216.131L453.87 209.321Z" fill="#FFC4A7"/>
<path d="M422.826 173.531C423.344 172.311 424.753 171.742 425.973 172.26L437.019 176.948C438.24 177.466 438.809 178.875 438.291 180.095L427.038 206.606C426.52 207.826 425.111 208.395 423.891 207.877L412.845 203.188C411.625 202.671 411.055 201.262 411.573 200.042L422.826 173.531Z" fill="#1075F0"/>
<rect x="425.102" y="171.41" width="16.8" height="33.6" rx="2.4" transform="rotate(23 425.102 171.41)" fill="#467FFF"/>
<path d="M424.892 174.969C425.359 173.872 426.626 173.361 427.724 173.827L428.862 174.31C428.969 174.355 429.019 174.48 428.974 174.587C428.791 175.017 428.992 175.514 429.422 175.696L434.493 177.849C434.924 178.032 435.42 177.831 435.603 177.401C435.648 177.293 435.773 177.243 435.88 177.289L437.003 177.765C438.101 178.232 438.614 179.501 438.146 180.599L427.59 205.407C427.123 206.504 425.856 207.015 424.759 206.549L415.48 202.611C414.381 202.144 413.869 200.875 414.336 199.777L424.892 174.969Z" fill="#EAEFFF"/>
<path fill-rule="evenodd" clip-rule="evenodd" d="M456.631 199.114C458.66 194.979 463.681 193.306 467.785 195.397L469.625 196.334C473.724 198.423 475.323 203.46 473.179 207.531L462.291 228.205L446.591 219.581L456.631 199.114Z" fill="#FFE3F4"/>
<path fill-rule="evenodd" clip-rule="evenodd" d="M446.236 216.981C446.338 216.795 446.574 216.733 446.754 216.843L462.999 226.824C463.169 226.928 463.225 227.148 463.127 227.321L460.913 231.226C460.809 231.409 460.573 231.469 460.394 231.356L444.311 221.227C444.146 221.123 444.09 220.908 444.184 220.737L446.236 216.981Z" fill="#FF4F4F"/>
<path fill-rule="evenodd" clip-rule="evenodd" d="M511.489 205.779C512.773 200.745 509.344 195.727 504.187 195.094L481.98 192.37L463.928 194.393C462.723 194.528 461.677 195.261 461.165 196.361C458.654 201.747 451.259 218.138 450.834 225.224C450.442 231.764 456.411 239.06 456.411 245.766C456.411 252.471 452.01 284.045 452.01 284.045L512.814 287.124C513.351 287.151 513.755 286.641 513.606 286.124L501.612 244.509L511.489 205.779Z" fill="#FFC4A7"/>
<path fill-rule="evenodd" clip-rule="evenodd" d="M511.489 205.779C512.773 200.745 509.344 195.727 504.187 195.094L490.992 193.475C490.992 193.475 483.921 205.07 475.352 204.351C466.782 203.631 471.683 193.523 471.683 193.523L463.928 194.393C462.723 194.528 461.677 195.261 461.165 196.36C458.654 201.747 451.259 218.138 450.834 225.224C450.442 231.764 456.411 239.06 456.411 245.766C456.411 252.471 452.01 284.045 452.01 284.045L512.814 287.124C513.351 287.151 513.755 286.641 513.606 286.124L501.612 244.509L511.489 205.779Z" fill="#FFE3F4"/>
<path fill-rule="evenodd" clip-rule="evenodd" d="M497.063 209.023L503.036 238.357L507.281 222.739L497.063 209.023Z" fill="#080708" fill-opacity="0.16144"/>
<path fill-rule="evenodd" clip-rule="evenodd" d="M489.55 193.249C484.623 200.78 479.879 203.326 475.228 202.62L474.978 202.58C470.988 201.886 469.848 198.879 471.913 193.638L471.978 193.475L468.39 193.864C465.472 200.998 468.112 204.905 474.729 205.909C480.878 206.842 488.923 202.58 492.577 193.892L492.744 193.638L489.55 193.249Z" fill="#FF4F4F"/>
<path fill-rule="evenodd" clip-rule="evenodd" d="M496.262 165.426C491.21 165.426 487.114 161.33 487.114 156.278C487.114 151.226 491.21 147.13 496.262 147.13C501.314 147.13 505.41 151.226 505.41 156.278C505.41 161.33 501.314 165.426 496.262 165.426Z" fill="#5B1E09"/>
<path fill-rule="evenodd" clip-rule="evenodd" d="M494.427 167.089C489.926 169.383 484.418 167.593 482.124 163.092C479.83 158.59 481.62 153.082 486.122 150.788C490.623 148.495 495.43 150.562 497.724 155.063C500.018 159.564 498.929 164.796 494.427 167.089Z" fill="#FF4F4F"/>
<path fill-rule="evenodd" clip-rule="evenodd" d="M477.468 182.39C466.813 182.39 458.175 173.753 458.175 163.097C458.175 152.442 468.372 142.831 475.588 147.421C484.673 142.37 496.761 151.605 496.761 163.097C496.761 174.59 488.123 182.39 477.468 182.39Z" fill="#5B1E09"/>
<path fill-rule="evenodd" clip-rule="evenodd" d="M486.276 193.555C486.276 197.012 483.474 199.81 480.016 199.81C476.34 199.81 473.455 196.657 473.781 192.995L474.504 184.875C474.504 184.875 466.712 185.492 464.073 181.724C461.434 177.956 461.798 158.33 461.798 158.33L486.276 158.33C486.276 158.33 486.276 163.195 486.276 164.882C493.75 164.882 493.75 173.906 486.276 173.906C486.276 179.699 486.276 187.935 486.276 193.555Z" fill="#FFC4A7"/>
<path fill-rule="evenodd" clip-rule="evenodd" d="M468.584 159.088C468.584 159.088 466.504 164.124 464.648 165.639C462.791 167.153 459.556 166.958 459.556 166.958L461.753 154.067H487.114V164.469C487.114 164.469 479.376 169.048 475.027 166.528C470.679 164.007 468.584 159.088 468.584 159.088Z" fill="#5B1E09"/>
<path fill-rule="evenodd" clip-rule="evenodd" d="M474.489 184.854C474.489 184.854 476.802 184.543 478.583 183.981C480.363 183.42 482.616 182.286 482.616 182.286C482.616 182.286 479.559 185.256 477.952 186.532C476.346 187.809 474.104 189.048 474.104 189.048L474.489 184.854Z" fill="#F19B93"/>
<path fill-rule="evenodd" clip-rule="evenodd" d="M466.823 169.417L466.823 175.887C466.823 175.887 464.127 174.486 464.127 173.94C464.127 173.393 466.823 169.417 466.823 169.417Z" fill="#F19B93"/>
<path d="M466.57 243.12C466.114 241.796 464.648 241.118 463.344 241.627L449.621 246.986C448.39 247.467 447.757 248.834 448.187 250.083L456.25 273.498C456.706 274.822 458.172 275.5 459.476 274.991L473.199 269.632C474.43 269.151 475.063 267.784 474.632 266.535L466.57 243.12Z" fill="#1075F0"/>
<path d="M464.839 243.006C464.368 241.637 462.823 240.968 461.502 241.56L447.629 247.774L437.518 249.922C436.071 250.23 435.219 251.735 435.701 253.135L443.752 276.518C444.158 277.695 445.377 278.385 446.594 278.126L457.297 275.852L471.574 269.457C472.738 268.936 473.311 267.612 472.896 266.406L464.839 243.006Z" fill="#467FFF"/>
<path d="M463.582 249.185C463.278 248.304 462.289 247.867 461.433 248.237L454.806 251.105C454.039 251.437 453.656 252.304 453.928 253.095L454.967 256.111C455.271 256.992 456.26 257.429 457.115 257.059L463.743 254.191C464.51 253.859 464.892 252.992 464.62 252.202L463.582 249.185Z" fill="#EAEFFF"/>
<path d="M448.858 248.197C448.714 247.779 448.259 247.557 447.841 247.701L447.085 247.961C446.667 248.105 446.445 248.56 446.589 248.978L455.705 275.453C455.849 275.87 456.304 276.093 456.722 275.949L457.478 275.688C457.896 275.544 458.118 275.089 457.974 274.671L448.858 248.197Z" fill="#EAEFFF"/>
<path d="M448.102 248.457C447.958 248.039 447.503 247.817 447.085 247.961L446.328 248.222C445.911 248.365 445.689 248.821 445.833 249.238L454.948 275.713C455.092 276.131 455.548 276.353 455.965 276.209L456.722 275.948C457.139 275.805 457.362 275.349 457.218 274.932L448.102 248.457Z" fill="#1075F0"/>
<path fill-rule="evenodd" clip-rule="evenodd" d="M501.363 212.699L520.301 243.425C520.301 243.425 490.962 254.8 481.51 257.422C478.255 258.324 474.035 250.093 469.27 251.277C467.435 251.733 474.672 258.365 471.218 258.971C463.511 260.323 457.573 261.635 457.024 263.278C456.349 265.294 464.837 270.164 468.604 270.747C470.679 271.068 476.741 268.903 484.041 266.957C489.174 265.59 509.906 261.059 525.115 257.772C533.489 255.963 537.716 246.556 533.504 239.095L514.295 205.074L501.363 212.699Z" fill="#FFC4A7"/>
<path fill-rule="evenodd" clip-rule="evenodd" d="M512.712 200.162C510.382 195.895 504.887 194.558 500.856 197.276L499.358 198.287C495.683 200.765 494.624 205.704 496.957 209.472L508.104 227.469L522.681 218.419L512.712 200.162Z" fill="#FFE3F4"/>
<path fill-rule="evenodd" clip-rule="evenodd" d="M505.638 226.041C505.547 225.867 505.608 225.651 505.778 225.551L522.218 215.892C522.402 215.785 522.638 215.854 522.735 216.043L524.841 220.172C524.93 220.348 524.866 220.563 524.695 220.661L508.202 230.105C508.02 230.209 507.788 230.142 507.691 229.956L505.638 226.041Z" fill="#FF4F4F"/>
</svg>
