<svg width="731" height="485" viewBox="0 0 731 485" fill="none" xmlns="http://www.w3.org/2000/svg">
<rect width="31.68" height="18.24" transform="matrix(-1 0 0 1 367.56 433)" fill="#95B2EE"/>
<rect width="26.88" height="18.24" transform="matrix(-1 0 0 1 362.76 433)" fill="#A7C3FF"/>
<path d="M466.44 455.08C466.44 447.657 460.423 441.64 453 441.64H272.52C265.097 441.64 259.08 447.657 259.08 455.08V477.16H466.44V455.08Z" fill="#A7C3FF"/>
<path fill-rule="evenodd" clip-rule="evenodd" d="M463.137 453.16H458.222C457.544 453.16 456.993 453.71 456.993 454.389V470.978C456.993 471.656 457.544 472.206 458.222 472.206H463.137C463.816 472.206 464.366 471.656 464.366 470.978V454.389C464.366 453.71 463.816 453.16 463.137 453.16Z" fill="#95B2EE"/>
<path fill-rule="evenodd" clip-rule="evenodd" d="M462.216 454.082V471.285H472.661C474.358 471.285 475.733 469.909 475.733 468.213V457.154C475.733 455.457 474.358 454.082 472.661 454.082H462.216Z" fill="#A7C3FF"/>
<path fill-rule="evenodd" clip-rule="evenodd" d="M458.53 454.082V471.285H468.974C470.671 471.285 472.046 469.909 472.046 468.213V457.154C472.046 455.457 470.671 454.082 468.974 454.082H458.53Z" fill="#C8DAFF"/>
<path fill-rule="evenodd" clip-rule="evenodd" d="M459.041 463.052L460.713 462.076V462.772H466.437L465.714 460.996C465.572 460.881 465.387 460.801 465.197 460.796C464.426 460.796 463.968 460.796 463.799 460.796C463.685 461.125 463.378 461.362 463.013 461.362C462.552 461.362 462.177 460.984 462.177 460.517C462.177 460.051 462.551 459.672 463.013 459.672C463.378 459.672 463.685 459.91 463.799 460.238L465.18 460.238C465.555 460.238 465.947 460.445 466.196 460.689C466.202 460.695 467.022 462.573 467.022 462.573C467.163 462.688 467.348 462.768 467.539 462.772H467.95C468.078 462.127 468.642 461.641 469.318 461.641C470.09 461.641 470.715 462.272 470.715 463.051C470.715 463.831 470.09 464.463 469.318 464.463C468.642 464.463 468.078 463.976 467.949 463.33H467.555C467.553 463.33 467.551 463.33 467.548 463.33H466.388C466.198 463.335 466.013 463.415 465.872 463.53C465.872 463.53 465.053 465.408 465.047 465.414C464.797 465.657 464.405 465.865 464.03 465.865L462.699 465.864V466.431H461.027V464.741H462.699V465.307C462.699 465.307 463.05 465.306 464.047 465.306C464.237 465.302 464.423 465.221 464.564 465.107L465.288 463.33H460.713V464.027L459.041 463.052Z" fill="#95B2EE"/>
<path fill-rule="evenodd" clip-rule="evenodd" d="M474.619 461.483C473.957 461.473 473.411 462.001 473.4 462.664C473.39 463.285 473.854 463.804 474.458 463.875L474.581 463.883L487.446 464.088C493.461 464.185 499.161 466.763 503.204 471.2L503.483 471.513C507.888 476.538 514.204 476.586 520.872 476.708L521.307 476.712H546.867C547.53 476.712 548.067 476.175 548.067 475.512C548.067 474.891 547.595 474.38 546.99 474.318L546.867 474.312H521.307C515.31 474.312 509.598 474.665 505.567 470.242L505.288 469.931C500.88 464.901 494.591 461.926 487.92 461.7L487.485 461.689L474.619 461.483Z" fill="#A7C3FF"/>
<path fill-rule="evenodd" clip-rule="evenodd" d="M453.96 455.08C453.96 447.657 447.943 441.64 440.52 441.64H255.24C247.817 441.64 241.8 447.657 241.8 455.08V477.16H453.96V455.08Z" fill="#C8DAFF"/>
<path fill-rule="evenodd" clip-rule="evenodd" d="M337.992 459.304C337.992 460.456 339.144 461.608 340.296 461.608C341.448 461.608 342.6 460.456 342.6 459.304C342.6 458.152 341.448 457 340.296 457C339.144 457 337.992 458.152 337.992 459.304Z" fill="#FF5D8E"/>
<path fill-rule="evenodd" clip-rule="evenodd" d="M347.592 459.304C347.592 460.456 348.744 461.608 349.896 461.608C351.048 461.608 352.2 460.456 352.2 459.304C352.2 458.152 351.048 457 349.896 457C348.744 457 347.592 458.152 347.592 459.304Z" fill="#A7C3FF"/>
<path fill-rule="evenodd" clip-rule="evenodd" d="M357.192 459.304C357.192 460.456 358.344 461.608 359.496 461.608C360.648 461.608 361.8 460.456 361.8 459.304C361.8 458.152 360.648 457 359.496 457C358.344 457 357.192 458.152 357.192 459.304Z" fill="#A7C3FF"/>
<path fill-rule="evenodd" clip-rule="evenodd" d="M262.16 419.52C262.16 428.16 267.92 434.88 275.12 434.88H444.08C451.28 434.88 457.04 428.16 457.04 419.52V88.32C457.04 79.68 451.28 72.96 444.08 72.96H275.12C267.92 72.96 262.16 79.68 262.16 88.32V419.52Z" fill="#A7C3FF"/>
<path fill-rule="evenodd" clip-rule="evenodd" d="M252.56 419.52C252.56 428.16 258.32 434.88 265.52 434.88H434.48C441.68 434.88 447.44 428.16 447.44 419.52V88.32C447.44 79.68 441.68 72.96 434.48 72.96H265.52C258.32 72.96 252.56 79.68 252.56 88.32V419.52Z" fill="#C8DAFF"/>
<path d="M438.32 90.2399C438.32 84.938 434.022 80.6399 428.72 80.6399L383.237 80.6399C380.586 80.6399 378.437 82.7889 378.437 85.4399C378.437 90.7418 374.139 95.0399 368.837 95.0399H330.147C324.848 95.0399 320.557 90.7381 320.57 85.4399C320.576 82.7908 318.43 80.6399 315.781 80.6399L271.28 80.6399C265.978 80.6399 261.68 84.938 261.68 90.2399V410.88C261.68 416.182 265.978 420.48 271.28 420.48H428.72C434.022 420.48 438.32 416.182 438.32 410.88V90.2399Z" fill="#EAEFFF"/>
<path fill-rule="evenodd" clip-rule="evenodd" d="M310.64 414.48H386.48C387.44 414.48 387.92 413.52 387.92 413.04C387.92 412.08 387.44 411.6 386.48 411.6L310.64 411.6C309.68 411.6 309.2 412.08 309.2 413.04C309.2 414 309.68 414.48 310.64 414.48Z" fill="#A7C3FF"/>
<path fill-rule="evenodd" clip-rule="evenodd" d="M338 87.8399C338 88.7999 338.48 89.2799 339.44 89.2799H367.28C368.24 89.2799 368.72 88.3199 368.72 87.8399C368.72 86.8799 368.24 86.3999 367.28 86.3999H339.44C338.48 86.3999 338 86.8799 338 87.8399Z" fill="#A7C3FF"/>
<path fill-rule="evenodd" clip-rule="evenodd" d="M326 87.84C326 89.28 327.44 90.72 328.88 90.72C330.32 90.72 331.76 89.28 331.76 87.84C331.76 86.4 330.32 84.96 328.88 84.96C327.44 84.96 326 86.4 326 87.84Z" fill="#A7C3FF"/>
<path d="M461.397 23.8824L458.516 36.8186L471.317 26.2866L461.397 23.8824Z" fill="#E09D00"/>
<path d="M494.808 1.04222L472.962 30.6866L461.397 23.8823L458.516 36.8186L451.692 18.1469L442.502 12.6696L494.808 1.04222Z" fill="#FFBF29"/>
<path d="M494.808 1.04219L461.397 23.8823L458.516 36.8186L451.692 18.1469L494.808 1.04219Z" fill="#F5AC00"/>
<path d="M110.605 65.1214L121.664 72.4257L105.139 73.7423L110.605 65.1214Z" fill="#E09D00"/>
<path d="M70.7048 71.9014L107.012 78.05L110.605 65.1215L121.664 72.4258L113.602 54.2546L116.407 43.9307L70.7048 71.9014Z" fill="#FFBF29"/>
<path d="M70.7047 71.9013L110.605 65.1214L121.664 72.4258L113.602 54.2545L70.7047 71.9013Z" fill="#F5AC00"/>
<path fill-rule="evenodd" clip-rule="evenodd" d="M271.294 225.702C271.294 222.13 274.19 219.234 277.762 219.234H424.586C428.158 219.234 431.054 222.13 431.054 225.702V276.799C431.054 280.371 428.158 283.267 424.586 283.267H277.762C274.19 283.267 271.294 280.371 271.294 276.799V225.702Z" fill="#D5E4FF"/>
<path d="M268.263 222.468C268.263 219.074 271.014 216.323 274.408 216.323H421.232C424.625 216.323 427.376 219.074 427.376 222.468V273.565C427.376 276.959 424.625 279.71 421.232 279.71H274.408C271.014 279.71 268.263 276.959 268.263 273.565V222.468Z" fill="white" stroke="#D2E0FF" stroke-width="0.6468"/>
<path d="M332.78 241.648L330.534 242.829C330.281 242.962 329.969 242.865 329.837 242.612C329.784 242.512 329.766 242.397 329.785 242.285L330.26 239.516L328.248 237.555C328.044 237.356 328.04 237.029 328.239 236.825C328.318 236.744 328.422 236.691 328.534 236.675L331.314 236.271L332.558 233.751C332.684 233.496 332.993 233.391 333.249 233.517C333.351 233.567 333.433 233.65 333.483 233.751L334.727 236.271L337.507 236.675C337.789 236.716 337.984 236.978 337.943 237.26C337.927 237.372 337.874 237.476 337.793 237.555L335.781 239.516L336.256 242.285C336.304 242.566 336.115 242.833 335.835 242.881C335.723 242.9 335.608 242.882 335.507 242.829L333.261 241.648C333.11 241.569 332.931 241.569 332.78 241.648Z" fill="#FFBF29"/>
<path d="M345.681 241.648L343.434 242.829C343.182 242.962 342.87 242.865 342.737 242.612C342.684 242.512 342.666 242.397 342.685 242.285L343.16 239.516L341.149 237.555C340.944 237.356 340.94 237.029 341.139 236.825C341.218 236.744 341.322 236.691 341.434 236.675L344.215 236.271L345.458 233.751C345.584 233.496 345.894 233.391 346.149 233.517C346.251 233.567 346.333 233.65 346.384 233.751L347.627 236.271L350.407 236.675C350.689 236.716 350.885 236.978 350.844 237.26C350.827 237.372 350.774 237.476 350.693 237.555L348.681 239.516L349.156 242.285C349.204 242.566 349.016 242.833 348.735 242.881C348.623 242.9 348.508 242.882 348.408 242.829L346.161 241.648C346.011 241.569 345.831 241.569 345.681 241.648Z" fill="#FFBF29"/>
<path d="M358.581 241.648L356.334 242.829C356.082 242.962 355.77 242.865 355.638 242.612C355.585 242.512 355.567 242.397 355.586 242.285L356.061 239.516L354.049 237.555C353.845 237.356 353.841 237.029 354.04 236.825C354.119 236.744 354.223 236.691 354.335 236.675L357.115 236.271L358.359 233.751C358.485 233.496 358.794 233.391 359.05 233.517C359.151 233.567 359.234 233.65 359.284 233.751L360.527 236.271L363.308 236.675C363.59 236.716 363.785 236.978 363.744 237.26C363.728 237.372 363.675 237.476 363.594 237.555L361.582 239.516L362.057 242.285C362.105 242.566 361.916 242.833 361.635 242.881C361.523 242.9 361.408 242.882 361.308 242.829L359.061 241.648C358.911 241.569 358.731 241.569 358.581 241.648Z" fill="#FFBF29"/>
<path d="M371.482 241.648L369.235 242.829C368.983 242.962 368.671 242.865 368.538 242.612C368.485 242.512 368.467 242.397 368.486 242.285L368.961 239.516L366.949 237.555C366.745 237.356 366.741 237.029 366.94 236.825C367.019 236.744 367.123 236.691 367.235 236.675L370.016 236.271L371.259 233.751C371.385 233.496 371.694 233.391 371.95 233.517C372.052 233.567 372.134 233.65 372.184 233.751L373.428 236.271L376.208 236.675C376.49 236.716 376.685 236.978 376.644 237.26C376.628 237.372 376.575 237.476 376.494 237.555L374.482 239.516L374.957 242.285C375.005 242.566 374.817 242.833 374.536 242.881C374.424 242.9 374.309 242.882 374.208 242.829L371.962 241.648C371.811 241.569 371.632 241.569 371.482 241.648Z" fill="#FFBF29"/>
<path d="M384.382 241.648L382.135 242.829C381.883 242.962 381.571 242.865 381.438 242.612C381.386 242.512 381.367 242.397 381.387 242.285L381.861 239.516L379.85 237.555C379.646 237.356 379.641 237.029 379.84 236.825C379.92 236.744 380.023 236.691 380.136 236.675L382.916 236.271L384.159 233.751C384.285 233.496 384.595 233.391 384.85 233.517C384.952 233.567 385.035 233.65 385.085 233.751L386.328 236.271L389.108 236.675C389.39 236.716 389.586 236.978 389.545 237.26C389.529 237.372 389.476 237.476 389.394 237.555L387.383 239.516L387.857 242.285C387.906 242.566 387.717 242.833 387.436 242.881C387.324 242.9 387.209 242.882 387.109 242.829L384.862 241.648C384.712 241.569 384.532 241.569 384.382 241.648Z" fill="#FFBF29"/>
<rect x="286.697" y="233.464" width="30.1668" height="30.1668" rx="2.27674" fill="#70A1FF"/>
<path fill-rule="evenodd" clip-rule="evenodd" d="M302.02 248.422C304.736 248.422 306.938 246.22 306.938 243.504C306.938 240.788 304.736 238.586 302.02 238.586C299.304 238.586 297.102 240.788 297.102 243.504C297.102 246.22 299.304 248.422 302.02 248.422Z" fill="white"/>
<path fill-rule="evenodd" clip-rule="evenodd" d="M294.097 256.87C294.097 252.808 297.39 249.514 301.452 249.514H302.587C306.65 249.514 309.943 252.808 309.943 256.87C309.943 257.334 309.566 257.711 309.102 257.711H294.937C294.473 257.711 294.097 257.334 294.097 256.87Z" fill="white"/>
<path d="M374.339 260.174C375.142 260.174 375.794 260.825 375.794 261.629C375.794 262.399 375.196 263.03 374.438 263.081L374.339 263.084H331.155C330.351 263.084 329.699 262.433 329.699 261.629C329.699 260.859 330.298 260.228 331.055 260.177L331.155 260.174H374.339Z" fill="#C0D4FF"/>
<path d="M354.935 250.472C355.738 250.472 356.39 251.123 356.39 251.927C356.39 252.697 355.792 253.328 355.034 253.379L354.935 253.383H331.155C330.351 253.383 329.699 252.731 329.699 251.927C329.699 251.157 330.298 250.526 331.055 250.475L331.155 250.472H354.935Z" fill="#70A1FF"/>
<path fill-rule="evenodd" clip-rule="evenodd" d="M273.749 303.533C273.749 299.786 276.786 296.749 280.533 296.749H429.374C433.121 296.749 436.158 299.786 436.158 303.533V396.813C436.158 400.559 433.121 403.597 429.374 403.597H280.533C276.786 403.597 273.749 400.559 273.749 396.813V303.533Z" fill="#D5E4FF"/>
<path d="M268.339 298.784C268.339 295.225 271.225 292.339 274.784 292.339H423.625C427.184 292.339 430.07 295.225 430.07 298.784V392.064C430.07 395.623 427.184 398.509 423.625 398.509H274.784C271.225 398.509 268.339 395.623 268.339 392.064V298.784Z" fill="white" stroke="#D2E0FF" stroke-width="0.6784"/>
<path d="M290.557 376.936C292.411 376.936 293.915 375.432 293.915 373.578C293.915 371.723 292.411 370.219 290.557 370.219C288.702 370.219 287.199 371.723 287.199 373.578C287.199 375.432 288.702 376.936 290.557 376.936Z" fill="#4ED266"/>
<path d="M371.456 372.221C372.13 372.221 372.677 372.767 372.677 373.442C372.677 374.083 372.184 374.608 371.556 374.659L371.456 374.663H300.72C300.046 374.663 299.499 374.116 299.499 373.442C299.499 372.801 299.992 372.276 300.62 372.225L300.72 372.221H371.456Z" fill="#4ED266"/>
<path d="M334.822 382.058C335.497 382.058 336.043 382.604 336.043 383.279C336.043 383.919 335.55 384.445 334.922 384.496L334.822 384.5H300.72C300.046 384.5 299.499 383.953 299.499 383.279C299.499 382.638 299.992 382.113 300.62 382.062L300.72 382.058H334.822Z" fill="#BAF3C4"/>
<path fill-rule="evenodd" clip-rule="evenodd" d="M286.093 314.068C286.093 312.247 287.569 310.771 289.39 310.771H374.237C376.058 310.771 377.534 312.247 377.534 314.068V355.573C377.534 357.394 376.058 358.87 374.237 358.87H289.39C287.569 358.87 286.093 357.394 286.093 355.573L286.093 314.068Z" fill="#D5E4FF"/>
<path d="M282.925 312.257C282.925 310.436 284.401 308.96 286.222 308.96H370.533C372.354 308.96 373.83 310.436 373.83 312.257V351.794C373.83 353.615 372.354 355.091 370.533 355.091H286.222C284.401 355.091 282.925 353.615 282.925 351.794V312.257Z" fill="#BAF3C4"/>
<mask id="mask0" mask-type="alpha" maskUnits="userSpaceOnUse" x="282" y="308" width="92" height="48">
<path d="M282.925 312.257C282.925 310.436 284.401 308.96 286.222 308.96H370.533C372.354 308.96 373.83 310.436 373.83 312.257V351.794C373.83 353.615 372.354 355.091 370.533 355.091H286.222C284.401 355.091 282.925 353.615 282.925 351.794V312.257Z" fill="white"/>
</mask>
<g mask="url(#mask0)">
<path fill-rule="evenodd" clip-rule="evenodd" d="M322.611 335.418C326.545 335.418 329.734 332.228 329.734 328.294C329.734 324.36 326.545 321.171 322.611 321.171C318.677 321.171 315.488 324.36 315.488 328.294C315.488 332.228 318.677 335.418 322.611 335.418Z" fill="white"/>
<path fill-rule="evenodd" clip-rule="evenodd" d="M306.669 389.69C321.281 389.69 333.127 377.996 333.127 363.571C333.127 349.146 321.281 337.453 306.669 337.453C292.057 337.453 280.211 349.146 280.211 363.571C280.211 377.996 292.057 389.69 306.669 389.69Z" fill="#40B955"/>
<path d="M354.835 389.011C372.07 389.011 386.042 375.192 386.042 358.144C386.042 341.097 372.07 327.277 354.835 327.277C337.6 327.277 323.629 341.097 323.629 358.144C323.629 375.192 337.6 389.011 354.835 389.011Z" fill="#4ED266"/>
</g>
<path d="M412.885 308.315C413.559 308.315 414.106 308.862 414.106 309.537C414.106 310.177 413.613 310.703 412.985 310.754L412.885 310.758H390.994C390.32 310.758 389.773 310.211 389.773 309.537C389.773 308.896 390.266 308.37 390.894 308.319L390.994 308.315H412.885Z" fill="#BAF3C4"/>
<path d="M400.674 316.253C401.348 316.253 401.895 316.799 401.895 317.474C401.895 318.114 401.402 318.64 400.774 318.691L400.674 318.695H390.994C390.32 318.695 389.773 318.148 389.773 317.474C389.773 316.833 390.266 316.308 390.894 316.257L390.994 316.253H400.674Z" fill="#BAF3C4"/>
<path d="M412.885 333.959C413.559 333.959 414.106 334.506 414.106 335.18C414.106 335.821 413.613 336.346 412.985 336.397L412.885 336.401H390.994C390.32 336.401 389.773 335.855 389.773 335.18C389.773 334.539 390.266 334.014 390.894 333.963L390.994 333.959H412.885Z" fill="#BAF3C4"/>
<path d="M400.674 341.896C401.348 341.896 401.895 342.443 401.895 343.117C401.895 343.758 401.402 344.283 400.774 344.334L400.674 344.338H390.994C390.32 344.338 389.773 343.792 389.773 343.117C389.773 342.477 390.266 341.951 390.894 341.9L390.994 341.896H400.674Z" fill="#BAF3C4"/>
<path d="M412.885 358.381C413.559 358.381 414.106 358.928 414.106 359.602C414.106 360.243 413.613 360.769 412.985 360.82L412.885 360.824H390.994C390.32 360.824 389.773 360.277 389.773 359.602C389.773 358.962 390.266 358.436 390.894 358.385L390.994 358.381H412.885Z" fill="#BAF3C4"/>
<path d="M400.674 366.319C401.348 366.319 401.895 366.865 401.895 367.54C401.895 368.18 401.402 368.706 400.774 368.757L400.674 368.761H390.994C390.32 368.761 389.773 368.214 389.773 367.54C389.773 366.899 390.266 366.374 390.894 366.323L390.994 366.319H400.674Z" fill="#BAF3C4"/>
<path fill-rule="evenodd" clip-rule="evenodd" d="M271.66 109.56C271.66 105.915 274.615 102.96 278.26 102.96H423.064C426.709 102.96 429.664 105.915 429.664 109.56V200.31C429.664 203.955 426.709 206.91 423.064 206.91H278.26C274.615 206.91 271.66 203.955 271.66 200.31V109.56Z" fill="#D5E4FF"/>
<path d="M268.73 105.6C268.73 102.137 271.537 99.33 275 99.33H419.804C423.267 99.33 426.074 102.137 426.074 105.6V196.35C426.074 199.813 423.267 202.62 419.804 202.62H275C271.537 202.62 268.73 199.813 268.73 196.35V105.6Z" fill="white" stroke="#D2E0FF" stroke-width="0.66"/>
<path d="M276.32 108.808C276.32 107.036 277.756 105.6 279.527 105.6H415.672C417.444 105.6 418.88 107.036 418.88 108.808V180.932C418.88 182.704 417.444 184.14 415.672 184.14H279.527C277.756 184.14 276.32 182.704 276.32 180.932V108.808Z" fill="#FFD676"/>
<path d="M280.445 195.492C282.25 195.492 283.712 194.029 283.712 192.225C283.712 190.421 282.25 188.958 280.445 188.958C278.641 188.958 277.178 190.421 277.178 192.225C277.178 194.029 278.641 195.492 280.445 195.492Z" fill="#FFBF29"/>
<path d="M417.23 191.565C417.886 191.565 418.418 192.097 418.418 192.753C418.418 193.376 417.938 193.887 417.328 193.937L417.23 193.941H290.333C289.677 193.941 289.145 193.409 289.145 192.753C289.145 192.13 289.625 191.618 290.236 191.569L290.333 191.565H417.23Z" fill="#FFBF29"/>
<path fill-rule="evenodd" clip-rule="evenodd" d="M347.085 164.768C358.038 164.768 366.918 155.888 366.918 144.934C366.918 133.98 358.038 125.1 347.085 125.1C336.131 125.1 327.251 133.98 327.251 144.934C327.251 155.888 336.131 164.768 347.085 164.768Z" fill="white"/>
<path d="M343.099 139.091C342.602 138.851 342.025 139.213 342.025 139.765V150.815C342.025 151.376 342.619 151.737 343.117 151.48L354.167 145.77C354.715 145.487 354.704 144.7 354.149 144.431L343.099 139.091Z" fill="#FFBF29"/>
<path fill-rule="evenodd" clip-rule="evenodd" d="M79.6566 184.947L66.6572 210.456L37.3059 182.245C37.1876 182.132 37.1127 181.98 37.094 181.817L35.8817 171.231C35.8817 171.231 28.9029 160.009 27.7611 164.094C27.3345 165.621 30.9473 167.412 30.2547 172.4C30.1262 173.325 22.6579 168.278 19.4526 166.065C18.9299 165.704 18.2292 166.162 18.35 166.786L20.6098 178.443C20.6407 178.603 20.7255 178.746 20.8499 178.85L31.5292 187.774L58.6565 224.808C62.9131 230.62 71.759 230.063 75.2539 223.764L93.2093 191.404L79.6566 184.947Z" fill="#FFC4A7"/>
<path d="M55.0711 142.903C54.8414 141.822 53.7794 141.133 52.699 141.362L19.442 148.431C18.3615 148.661 17.6718 149.723 17.9015 150.803L27.4654 195.798C27.6951 196.879 28.7571 197.568 29.8375 197.339L63.0946 190.27C64.175 190.04 64.8647 188.978 64.635 187.898L55.0711 142.903Z" fill="#B34EE6"/>
<path d="M55.0711 142.903C54.8414 141.822 53.7794 141.133 52.699 141.362L45.8519 142.818L56.2475 191.725L63.0946 190.27C64.175 190.04 64.8647 188.978 64.635 187.898L55.0711 142.903Z" fill="#CF6FFF"/>
<path d="M53.6772 141.155L46.8302 142.61L57.2258 191.517L64.0728 190.062L53.6772 141.155Z" fill="#EAEFFF"/>
<path fill-rule="evenodd" clip-rule="evenodd" d="M81.6266 175.607C83.7688 171.308 88.9759 169.541 93.2921 171.647C97.7444 173.82 99.5056 179.253 97.1747 183.624L75.6993 223.901C72.728 229.473 65.3925 230.919 60.5285 226.891L53.0616 220.707L61.7823 204.011L65.9314 207.1L81.6266 175.607Z" fill="#283845"/>
<path fill-rule="evenodd" clip-rule="evenodd" d="M84.7456 178.902C84.7456 178.902 73.7729 200.756 73.7729 206.667C73.7729 212.577 77.0342 221.252 77.0342 221.252L81.801 212.577L84.7456 178.902Z" fill="#080708" fill-opacity="0.223011"/>
<path fill-rule="evenodd" clip-rule="evenodd" d="M62.9492 203.833L55.6327 225.762L48.3163 218.785L59.1753 201.7L62.9492 203.833Z" fill="#4C6A82"/>
<path fill-rule="evenodd" clip-rule="evenodd" d="M60.3103 475.816C56.9708 476.049 50.517 476.324 49.3782 475.816C48.9866 475.641 48.8643 475.383 48.8724 475.119C48.8961 474.346 49.7062 473.883 50.371 473.488C51.8843 472.587 54.9458 470.846 58.2796 469.409C63.0036 467.372 66.7971 464.116 68.1581 459.277C69.5191 454.438 70.5234 438.992 70.5234 438.992L84.5094 438.213C84.5094 438.213 81.6799 452.15 81.4062 456.127C81.3481 456.972 84.1374 462.446 83.1573 464.559C82.0939 466.851 79.9182 467.226 76.3869 468.977C68.991 472.645 74.3648 475.004 60.3103 475.816Z" fill="#F1B395"/>
<path fill-rule="evenodd" clip-rule="evenodd" d="M82.177 453.998C82.177 453.998 87.9773 456.534 85.5715 464.073C83.1658 471.612 83.4665 474.307 83.4665 474.307H79.5898V468.939C79.5898 468.939 74.8375 470.189 73.8959 470.926C71.1514 473.073 68.7547 475.621 66.8286 476.1C62.9483 477.066 47.3804 477.409 47.3804 475.383C47.3804 473.357 53.9533 469.829 59.6611 466.136C65.3689 462.443 68.787 453.998 68.787 453.998H76.5637L78.4696 457.372L80.4842 453.998H82.177Z" fill="#1B2731"/>
<path fill-rule="evenodd" clip-rule="evenodd" d="M117.346 256L93.6543 365.093C93.6543 365.093 94.3532 381.477 94.3532 393.058C94.3532 404.639 84.377 442.457 84.377 442.457H69.8748L73.5769 364.548L79.25 256H117.346Z" fill="#1B2731"/>
<path fill-rule="evenodd" clip-rule="evenodd" d="M122.403 475.816C119.064 476.049 112.61 476.324 111.471 475.816C111.08 475.641 110.957 475.383 110.965 475.119C110.989 474.346 111.799 473.883 112.464 473.488C113.977 472.587 117.039 470.846 120.373 469.409C125.097 467.372 128.89 464.116 130.251 459.277C131.612 454.438 131.216 440.947 131.216 440.947L144.036 440.358C144.036 440.358 143.499 452.217 143.499 456.127C143.499 456.972 146.23 462.446 145.25 464.559C144.187 466.851 142.011 467.226 138.48 468.977C131.084 472.645 136.458 475.004 122.403 475.816Z" fill="#F1B395"/>
<path fill-rule="evenodd" clip-rule="evenodd" d="M143.9 453.998C143.9 453.998 149.7 456.534 147.295 464.073C144.889 471.611 145.19 474.307 145.19 474.307H141.313V468.939C141.313 468.939 139.228 468.755 138.287 469.491C135.542 471.638 130.478 475.62 128.552 476.1C124.671 477.066 109.104 477.409 109.104 475.383C109.104 473.357 115.676 469.829 121.384 466.136C127.092 462.443 130.51 453.998 130.51 453.998H138.287L140.193 457.372L142.207 453.998H143.9Z" fill="#283845"/>
<path fill-rule="evenodd" clip-rule="evenodd" d="M136.151 256.392L140.32 361.567C140.32 361.567 145.676 379.126 145.676 390.707C145.676 402.289 144.54 442.479 144.54 442.479H130.888L98.7367 256.392H136.151Z" fill="#283845"/>
<path fill-rule="evenodd" clip-rule="evenodd" d="M112.871 262.536L124.961 279.622L123.189 262.609L112.871 262.536Z" fill="#4C6A82"/>
<path d="M122.934 259.058L135.045 365.175C135.045 365.175 138.601 378.338 140.478 392.899C142.354 407.459 142.107 442.479 142.107 442.479" stroke="#4C6A82" stroke-width="0.587664"/>
<path fill-rule="evenodd" clip-rule="evenodd" d="M137.293 182.24C138.577 177.205 135.148 172.188 129.991 171.555L107.784 168.83L89.795 170.846C88.5555 170.985 87.4867 171.758 86.9906 172.902C84.6201 178.37 77.7995 194.634 77.3771 201.685C76.9854 208.225 82.9542 215.521 82.9542 222.227C82.9542 228.932 79.2595 256.829 79.2595 256.829L134.338 258.633C134.846 258.649 135.235 258.186 135.131 257.688L127.416 220.97L137.293 182.24Z" fill="#FFC4A7"/>
<path fill-rule="evenodd" clip-rule="evenodd" d="M137.293 182.24C138.577 177.206 135.148 172.188 129.991 171.555L116.795 169.936C116.795 169.936 112.341 179.676 104.006 178.902C95.6711 178.128 97.4871 169.984 97.4871 169.984L90.4173 170.842C89.2416 170.985 88.2214 171.698 87.7066 172.764C85.1357 178.091 77.4335 194.574 77.0075 201.685C76.6158 208.225 82.5846 215.521 82.5846 222.227C82.5846 228.932 79.2595 258.274 79.2595 258.274L135.909 261.344C136.432 261.372 136.834 260.891 136.714 260.382L127.416 220.97L137.293 182.24Z" fill="#E3E9FF"/>
<path fill-rule="evenodd" clip-rule="evenodd" d="M129.991 171.555L116.795 169.936L116.162 171.43C110.14 185.756 107.029 196.688 106.827 204.227L106.819 204.614C106.718 212.034 107.635 231.2 109.569 262.113L138.617 263.585C139.049 263.607 139.418 263.274 139.439 262.842C139.444 262.755 139.434 262.669 139.41 262.585L127.416 220.97L137.293 182.24C138.469 177.628 135.684 172.935 131.071 171.758C130.716 171.668 130.355 171.6 129.991 171.555ZM95.4534 170.213L89.7378 170.853C88.5257 170.989 87.4699 171.741 86.9462 172.843L86.3323 174.141C80.1863 187.213 76.9549 196.394 76.6379 201.685C76.2462 208.225 82.215 215.521 82.215 222.227L82.21 222.707C82.1144 227.567 80.6488 240.166 77.8133 260.506L86.328 260.935L86.0036 253.509C84.6382 221.62 84.219 203.011 84.7459 197.68C85.3071 192.002 88.8763 182.846 95.4534 170.213Z" fill="#283845"/>
<path fill-rule="evenodd" clip-rule="evenodd" d="M96.8506 170.055L95.4376 170.213L93.9358 171.821C87.5511 178.7 83.9048 183.254 82.997 185.484C81.491 189.184 84.9669 192.85 81.0467 198.731C79.9965 200.307 81.1833 205.007 84.6071 212.831L84.5647 210.248C84.4769 203.979 84.5372 199.789 84.7457 197.68C85.3092 191.978 89.3442 182.77 96.8506 170.055Z" fill="#4C6A82"/>
<path fill-rule="evenodd" clip-rule="evenodd" d="M118.501 170.145L116.795 169.936L116.162 171.43C110.036 186.003 106.922 197.064 106.82 204.614L106.814 205.194C106.798 207.8 106.889 211.651 107.088 216.747L108.327 214.22C110.44 209.879 111.921 206.656 112.77 204.552C113.752 202.121 112.455 198.165 112.77 196.299C113.061 194.577 116.465 192.702 118.478 191.066C120.196 189.67 120.247 183.014 118.632 171.099L118.501 170.145Z" fill="#4C6A82"/>
<path fill-rule="evenodd" clip-rule="evenodd" d="M122.867 185.484L128.581 214.808L133.084 199.199L122.867 185.484Z" fill="#080708" fill-opacity="0.223011"/>
<path fill-rule="evenodd" clip-rule="evenodd" d="M122.435 142.626C117.383 142.626 113.287 138.53 113.287 133.478C113.287 128.426 117.383 124.331 122.435 124.331C127.487 124.331 131.583 128.426 131.583 133.478C131.583 138.53 127.487 142.626 122.435 142.626Z" fill="#5B1E09"/>
<path fill-rule="evenodd" clip-rule="evenodd" d="M120.6 144.29C116.099 146.583 110.59 144.794 108.297 140.292C106.003 135.791 107.793 130.282 112.294 127.989C116.796 125.695 121.603 127.762 123.897 132.263C126.19 136.765 125.102 141.996 120.6 144.29Z" fill="#4C6A82"/>
<path fill-rule="evenodd" clip-rule="evenodd" d="M103.641 159.59C92.9857 159.59 84.3478 150.952 84.3478 140.297C84.3478 129.642 94.5452 120.031 101.761 124.621C110.846 119.57 122.934 128.805 122.934 140.297C122.934 151.79 114.296 159.59 103.641 159.59Z" fill="#5B1E09"/>
<path fill-rule="evenodd" clip-rule="evenodd" d="M112.449 170.755C112.449 174.212 109.646 177.01 106.189 177.01C102.513 177.01 99.6276 173.857 99.9538 170.195L100.677 162.075C100.677 162.075 92.8845 162.692 90.2455 158.924C87.6064 155.156 87.9706 135.53 87.9706 135.53L112.449 135.53C112.449 135.53 112.449 140.395 112.449 142.083C119.923 142.083 119.923 151.107 112.449 151.107C112.449 156.899 112.449 165.135 112.449 170.755Z" fill="#FFC4A7"/>
<path fill-rule="evenodd" clip-rule="evenodd" d="M94.7568 136.288C94.7568 136.288 92.677 141.324 90.8207 142.838C88.9643 144.353 85.7289 144.158 85.7289 144.158L87.9261 131.267H113.287V141.669C113.287 141.669 105.549 146.248 101.2 143.728C96.8515 141.207 94.7568 136.288 94.7568 136.288Z" fill="#5B1E09"/>
<path fill-rule="evenodd" clip-rule="evenodd" d="M100.662 162.055C100.662 162.055 102.975 161.743 104.756 161.181C106.536 160.62 108.789 159.486 108.789 159.486C108.789 159.486 105.732 162.456 104.125 163.732C102.518 165.009 100.277 166.248 100.277 166.248L100.662 162.055Z" fill="#F19B93"/>
<path fill-rule="evenodd" clip-rule="evenodd" d="M92.9961 146.617L92.9961 153.086C92.9961 153.086 90.2996 151.686 90.2996 151.14C90.2996 150.593 92.9961 146.617 92.9961 146.617Z" fill="#F19B93"/>
<path fill-rule="evenodd" clip-rule="evenodd" d="M128.731 193.514L144.535 223.064C144.535 223.064 83.666 201.197 83.099 202.139C82.1617 203.697 87.9491 206.526 89.4555 208.393C90.9619 210.26 89.4555 215.537 91.098 217.509C91.8147 218.369 99.3109 218.379 101.807 218.379C102.858 218.379 114.731 223.496 132.918 232.829C134.186 233.48 137.876 235.079 142.551 237.051C153.342 241.605 163.868 230.244 158.625 219.771L141.663 185.889L128.731 193.514Z" fill="#FFC4A7"/>
<path fill-rule="evenodd" clip-rule="evenodd" d="M139.375 177.282C137.084 172.374 131.06 170.511 126.398 173.27L125.201 173.979C120.982 176.476 119.474 181.851 121.779 186.178L140.084 220.548L135.099 219.012L138.196 237.537L149.509 238.727C158.085 239.63 164.364 230.826 160.717 223.011L139.375 177.282Z" fill="#283845"/>
<path fill-rule="evenodd" clip-rule="evenodd" d="M136.387 218.357L131.26 217.752V235.117L141.416 239.113L136.387 218.357Z" fill="#4C6A82"/>
<path fill-rule="evenodd" clip-rule="evenodd" d="M103.191 209.294C103.191 209.294 98.3973 199.615 96.6955 199.73C94.9938 199.845 98.1458 209.034 98.1458 209.034L103.191 209.294Z" fill="#FFC4A7"/>
<path fill-rule="evenodd" clip-rule="evenodd" d="M155.72 63.8C153.555 63.8 151.8 65.5551 151.8 67.72V104.57C151.8 106.735 153.555 108.49 155.72 108.49L192.183 108.49L207.806 120.6L207.807 108.49L211.88 108.49C214.045 108.49 215.8 106.735 215.8 104.57V67.72C215.8 65.5551 214.045 63.8 211.88 63.8H155.72Z" fill="#DEE9FF"/>
<path d="M201.99 81.6569H165.295C164.301 81.6569 163.495 80.851 163.495 79.8569C163.495 78.8628 164.301 78.0569 165.295 78.0569H201.99C202.984 78.0569 203.79 78.8628 203.79 79.8569C203.79 80.851 202.984 81.6569 201.99 81.6569Z" fill="white"/>
<path d="M201.99 93.6569H177.295C176.301 93.6569 175.495 92.851 175.495 91.8569C175.495 90.8628 176.301 90.0569 177.295 90.0569H201.99C202.984 90.0569 203.79 90.8628 203.79 91.8569C203.79 92.851 202.984 93.6569 201.99 93.6569Z" fill="white"/>
<path fill-rule="evenodd" clip-rule="evenodd" d="M529.411 203.275L537.943 223.958L541.965 194.917C542.473 191.289 542.764 189.264 542.836 188.842C543.11 187.244 541.231 183.87 540.999 180.554L540.968 180.039C540.736 176.728 539.608 172.784 539.769 171.672C539.934 170.522 541.433 171.266 542.37 172.016C544.458 173.686 544.304 175.951 545.634 178.717C546.104 179.695 550.566 169.787 552.344 169.787C554.123 169.787 559.53 178.256 559.53 180.929C559.53 182.711 556.87 186.298 551.549 191.688L549.542 237.579C549.292 243.289 544.461 247.716 538.751 247.466C534.979 247.301 531.596 245.095 529.925 241.71L514.466 210.413L529.411 203.275Z" fill="#E09282"/>
<path fill-rule="evenodd" clip-rule="evenodd" d="M522.494 183.473C520.349 178.396 514.382 176.159 509.429 178.575L507.653 179.441C502.856 181.781 500.885 187.581 503.262 192.359L527.668 241.403C533.214 252.549 549.933 249.2 550.757 236.777L553.502 195.397L551.709 194.958L549.158 207.821L548.133 194.084L540.978 192.334L537.179 218.244L522.494 183.473Z" fill="#81533C"/>
<path fill-rule="evenodd" clip-rule="evenodd" d="M518.987 223.489C518.987 223.489 525.544 238.371 527.704 241.65C529.864 244.929 530.778 245.526 530.778 245.526L521.888 198.271L518.987 223.489Z" fill="#080708" fill-opacity="0.340226"/>
<path d="M537.179 218.244L535.882 230.4" stroke="#090909" stroke-opacity="0.200748" stroke-width="0.924" stroke-linecap="round"/>
<path fill-rule="evenodd" clip-rule="evenodd" d="M482.557 261.035L505.605 363.953C505.605 363.953 505.726 379.409 505.726 390.335C505.726 401.261 517.314 456.185 517.314 456.185H531.713L524.41 261.035H482.557Z" fill="#5D3B2A"/>
<path fill-rule="evenodd" clip-rule="evenodd" d="M515.654 453.015C515.459 453.018 515.324 453.203 515.374 453.392C515.681 454.571 516.554 458.3 515.972 460.579C515.273 463.314 512.747 471.652 513.9 473.785C515.052 475.918 514.904 476.905 514.904 476.905L530.922 478.201C530.922 478.201 537.594 480.76 543.853 480.051C550.112 479.343 556.191 476.905 556.191 476.905C556.191 476.905 556.88 471.385 555.141 470.444C553.403 469.503 551.225 470.444 547.511 470.444C543.797 470.444 543.197 470.231 543.197 470.231C543.197 470.231 542.778 468.832 542.388 468.392C541.998 467.951 537.496 465.49 534.995 462.689C532.493 459.888 532.826 453.35 532.493 453.022C532.19 452.723 518.159 452.968 515.654 453.015Z" fill="#283845"/>
<path fill-rule="evenodd" clip-rule="evenodd" d="M513.932 475.112C513.932 475.112 513.81 479.01 514.665 479.607C515.52 480.205 525.573 480.634 525.573 480.634V478.616C525.573 478.616 529.653 478.522 531.477 479.231C533.3 479.94 536.796 481.368 542.472 481.001C548.149 480.634 557.513 477.07 557.513 477.07L556.873 475.409C556.873 475.409 548.171 478.616 542.472 478.616C536.774 478.616 529.283 476.626 526.455 476.332C523.626 476.037 513.932 475.112 513.932 475.112Z" fill="#1C2731"/>
<path fill-rule="evenodd" clip-rule="evenodd" d="M464.076 261.405L461.622 360.627C461.622 360.627 456.569 377.192 456.569 388.118C456.569 399.043 454.851 456.554 454.851 456.554H469.99L505.287 261.405H464.076Z" fill="#81533C"/>
<path fill-rule="evenodd" clip-rule="evenodd" d="M491.953 267.201L480.547 283.32L482.218 267.27L491.953 267.201Z" fill="#5D3B2A"/>
<path d="M482.46 263.92L471.034 364.03C471.034 364.03 467.679 376.449 465.909 390.185C464.138 403.921 460.474 456.554 460.474 456.554" stroke="#5D3B2A" stroke-width="0.5544"/>
<path fill-rule="evenodd" clip-rule="evenodd" d="M454.325 451.99C454.131 451.984 453.986 452.161 454.025 452.352C454.27 453.546 454.948 457.316 454.247 459.561C453.406 462.255 450.447 470.449 451.486 472.64C452.526 474.831 452.326 475.808 452.326 475.808L468.254 477.941C468.254 477.941 474.783 480.846 481.07 480.466C487.358 480.085 493.556 477.969 493.556 477.969C493.556 477.969 494.533 472.493 492.846 471.462C491.159 470.431 488.935 471.257 485.226 471.063C481.517 470.868 480.93 470.624 480.93 470.624C480.93 470.624 480.584 469.205 480.218 468.745C479.852 468.285 475.484 465.592 473.133 462.663C470.781 459.735 471.456 453.224 471.141 452.879C470.854 452.564 456.829 452.075 454.325 451.99Z" fill="#354C5D"/>
<path fill-rule="evenodd" clip-rule="evenodd" d="M451.449 473.967C451.449 473.967 451.124 477.853 451.946 478.495C452.769 479.136 462.785 480.09 462.785 480.09L462.891 478.075C462.891 478.075 466.97 478.195 468.754 478.999C470.538 479.802 473.954 481.412 479.642 481.342C485.33 481.272 494.868 478.203 494.868 478.203L494.316 476.511C494.316 476.511 485.458 479.258 479.767 478.96C474.076 478.661 466.7 476.283 463.891 475.84C461.082 475.398 451.449 473.967 451.449 473.967Z" fill="#283845"/>
<path fill-rule="evenodd" clip-rule="evenodd" d="M459.906 185.267C459.788 181.033 462.94 177.418 467.151 176.958L493.516 174.076L513.453 176.865C517.241 177.394 520.148 180.492 520.435 184.306L526.965 270.911H462.285L459.906 185.267Z" fill="#E3E9FF"/>
<path fill-rule="evenodd" clip-rule="evenodd" d="M482.706 175.258L483.363 175.266L485.108 180.49C489.913 194.942 492.879 204.477 494.008 209.098L494.632 211.811C495.491 215.628 497.07 223.486 496.135 230.119L496.003 231.012C495.173 236.368 493.209 245.174 490.111 257.428L460.068 255.019L459.733 185.098C459.713 180.934 462.842 177.429 466.981 176.976L482.706 175.258ZM505.351 175.731L513.614 176.887C517.328 177.406 520.205 180.399 520.579 184.131L527.704 255.388L516.447 256.826L515.925 255.289C512.167 244.122 509.961 235.29 509.307 228.794C508.69 222.665 509.364 212.997 508.873 207.285L508.527 203.343C507.425 191.049 506.366 181.845 505.351 175.731Z" fill="#81533C"/>
<path fill-rule="evenodd" clip-rule="evenodd" d="M505.676 175.73C511.926 181.816 514.235 186.267 514.974 192.995C515.712 199.723 509.326 228.795 509.326 228.795C509.326 228.795 505.844 200.487 504.957 192.32C504.07 184.153 503.538 175.402 503.538 175.402L505.676 175.73Z" fill="#BA6136"/>
<path fill-rule="evenodd" clip-rule="evenodd" d="M483.075 175.258C483.953 175.761 488.951 187.147 492.371 199.4C495.52 210.687 497.21 223.267 496.48 226.388C496.48 226.388 481.809 199.274 479.868 191.318L479.809 191.073C477.898 183.022 479.195 177.775 482.96 175.331L483.075 175.258Z" fill="#BA6136"/>
<path fill-rule="evenodd" clip-rule="evenodd" d="M474.095 197.061L459.851 243.792V216.087L474.095 197.061Z" fill="#080708" fill-opacity="0.340226"/>
<path fill-rule="evenodd" clip-rule="evenodd" d="M488 241C488 239.895 488.895 239 490 239H544C545.105 239 546 239.895 546 241V247C546 248.105 545.105 249 544 249H490C488.895 249 488 248.105 488 247V241Z" fill="#FF326F"/>
<path fill-rule="evenodd" clip-rule="evenodd" d="M488 241C488 239.895 488.895 239 490 239L519 239C520.105 239 521 239.895 521 241V247C521 248.105 520.105 249 519 249H490C488.895 249 488 248.105 488 247V241Z" fill="#FF5D8E"/>
<path d="M490 241.8C490 240.806 490.806 240 491.8 240L545 240C545.552 240 546 240.448 546 241V247C546 247.552 545.552 248 545 248H491.8C490.806 248 490 247.194 490 246.2V241.8Z" fill="#EAEFFF"/>
<path fill-rule="evenodd" clip-rule="evenodd" d="M521 241.8C521 240.806 521.806 240 522.8 240H545C545.552 240 546 240.448 546 241V247C546 247.552 545.552 248 545 248H522.8C521.806 248 521 247.194 521 246.2V241.8Z" fill="#C1D7FF"/>
<path d="M486 232C486 230.895 486.895 230 488 230H542C543.105 230 544 230.895 544 232V238C544 239.105 543.105 240 542 240H488C486.895 240 486 239.105 486 238V232Z" fill="#F5AC00"/>
<path d="M486 232C486 230.895 486.895 230 488 230L517 230C518.105 230 519 230.895 519 232V238C519 239.105 518.105 240 517 240H488C486.895 240 486 239.105 486 238V232Z" fill="#FFBF29"/>
<path d="M488 232.8C488 231.806 488.806 231 489.8 231L543 231C543.552 231 544 231.448 544 232V238C544 238.552 543.552 239 543 239H489.8C488.806 239 488 238.194 488 237.2V232.8Z" fill="#EAEFFF"/>
<path fill-rule="evenodd" clip-rule="evenodd" d="M519 232.8C519 231.806 519.806 231 520.8 231H543C543.552 231 544 231.448 544 232V238C544 238.552 543.552 239 543 239H520.8C519.806 239 519 238.194 519 237.2V232.8Z" fill="#C1D7FF"/>
<path d="M491 222C491 220.895 491.895 220 493 220H547C548.105 220 549 220.895 549 222V228C549 229.105 548.105 230 547 230H493C491.895 230 491 229.105 491 228V222Z" fill="#B34EE6"/>
<path d="M491 222C491 220.895 491.895 220 493 220L522 220C523.105 220 524 220.895 524 222V228C524 229.105 523.105 230 522 230H493C491.895 230 491 229.105 491 228V222Z" fill="#CF6FFF"/>
<path d="M491 222.8C491 221.806 491.806 221 492.8 221L521 221C522.105 221 523 221.895 523 223V227C523 228.105 522.105 229 521 229H492.8C491.806 229 491 228.194 491 227.2V222.8Z" fill="#EAEFFF"/>
<path fill-rule="evenodd" clip-rule="evenodd" d="M460.231 214.906L452.289 229.455C452.289 229.455 483.042 241.378 492.95 244.127C496.363 245.073 500.786 236.445 505.781 237.686C507.704 238.163 500.118 245.116 503.739 245.751C511.818 247.168 518.041 248.543 518.618 250.265C519.324 252.379 510.428 257.483 506.479 258.094C504.304 258.431 497.95 256.162 490.297 254.122C484.827 252.664 462.455 247.78 446.45 244.323C437.913 242.479 433.415 233.057 437.366 225.268L446.676 206.914L460.231 214.906Z" fill="#E09282"/>
<path fill-rule="evenodd" clip-rule="evenodd" d="M458.377 182.437C460.868 177.404 467.125 175.571 471.938 178.463L473.534 179.422C478.053 182.137 479.541 187.985 476.869 192.53L455.981 228.055L488.805 241.183L483.742 250.778L474.101 249.661L482.305 253.499L481.693 254.66L442.179 244.074C435.644 242.324 432.345 235.03 435.346 228.966L458.377 182.437Z" fill="#81533C"/>
<path d="M462.426 230.4L488.112 240.642" stroke="#090909" stroke-opacity="0.200748" stroke-width="0.924" stroke-linecap="round"/>
<path d="M459.343 248.673L481.693 254.66" stroke="#090909" stroke-opacity="0.200748" stroke-width="0.924" stroke-linecap="round"/>
<path fill-rule="evenodd" clip-rule="evenodd" d="M492.376 163.874C499.317 163.874 504.943 158.247 504.943 151.307C504.943 144.367 499.317 138.741 492.376 138.741C485.436 138.741 479.81 144.367 479.81 151.307C479.81 158.247 485.436 163.874 492.376 163.874Z" fill="#321111"/>
<path fill-rule="evenodd" clip-rule="evenodd" d="M486.647 151.307C492.057 151.307 496.442 146.922 496.442 141.513C496.442 136.104 492.057 131.719 486.647 131.719C481.238 131.719 476.853 136.104 476.853 141.513C476.853 146.922 481.238 151.307 486.647 151.307Z" fill="#321111"/>
<path fill-rule="evenodd" clip-rule="evenodd" d="M501.616 141.698C507.332 141.698 511.965 137.064 511.965 131.349C511.965 125.633 507.332 121 501.616 121C495.901 121 491.268 125.633 491.268 131.349C491.268 137.064 495.901 141.698 501.616 141.698Z" fill="#321111"/>
<path fill-rule="evenodd" clip-rule="evenodd" d="M491.452 138.741C495.025 138.741 497.92 135.845 497.92 132.273C497.92 128.701 495.025 125.805 491.452 125.805C487.88 125.805 484.984 128.701 484.984 132.273C484.984 135.845 487.88 138.741 491.452 138.741Z" fill="#321111"/>
<path fill-rule="evenodd" clip-rule="evenodd" d="M513.074 141.328C518.177 141.328 522.314 137.191 522.314 132.088C522.314 126.985 518.177 122.848 513.074 122.848C507.971 122.848 503.834 126.985 503.834 132.088C503.834 137.191 507.971 141.328 513.074 141.328Z" fill="#321111"/>
<path fill-rule="evenodd" clip-rule="evenodd" d="M510.487 154.634C515.59 154.634 519.727 150.497 519.727 145.394C519.727 140.29 515.59 136.154 510.487 136.154C505.383 136.154 501.247 140.29 501.247 145.394C501.247 150.497 505.383 154.634 510.487 154.634Z" fill="#321111"/>
<path fill-rule="evenodd" clip-rule="evenodd" d="M487.516 175.192C487.516 178.982 490.589 182.053 494.379 182.053C498.479 182.053 501.665 178.482 501.198 174.408L500.596 169.155C500.596 169.155 509.254 169.84 512.187 165.654C515.119 161.467 514.714 139.66 514.714 139.66L487.516 139.66C487.516 139.66 487.516 145.066 487.516 146.94C479.212 146.94 479.212 156.967 487.516 156.967C487.516 162.926 487.516 170.058 487.516 175.192Z" fill="#E09282"/>
<path fill-rule="evenodd" clip-rule="evenodd" d="M493.116 146.133C497.198 146.133 500.508 142.823 500.508 138.741C500.508 134.658 497.198 131.349 493.116 131.349C489.033 131.349 485.724 134.658 485.724 138.741C485.724 142.823 489.033 146.133 493.116 146.133Z" fill="#321111"/>
<path fill-rule="evenodd" clip-rule="evenodd" d="M503.464 143.176C507.547 143.176 510.856 139.867 510.856 135.784C510.856 131.702 507.547 128.392 503.464 128.392C499.382 128.392 496.072 131.702 496.072 135.784C496.072 139.867 499.382 143.176 503.464 143.176Z" fill="#321111"/>
<path fill-rule="evenodd" clip-rule="evenodd" d="M516.4 143.546C520.483 143.546 523.792 140.236 523.792 136.154C523.792 132.071 520.483 128.762 516.4 128.762C512.318 128.762 509.008 132.071 509.008 136.154C509.008 140.236 512.318 143.546 516.4 143.546Z" fill="#321111"/>
<path d="M487.202 137.262H491.267V151.122C491.267 152.245 490.357 153.155 489.234 153.155C488.112 153.155 487.202 152.245 487.202 151.122V137.262Z" fill="#321111"/>
<path fill-rule="evenodd" clip-rule="evenodd" d="M500.699 169.171C500.699 169.171 498.129 168.825 496.15 168.201C494.172 167.577 491.668 166.317 491.668 166.317C491.668 166.317 495.065 169.617 496.85 171.035C498.636 172.454 501.127 173.83 501.127 173.83L500.699 169.171Z" fill="#B9726B"/>
<path fill-rule="evenodd" clip-rule="evenodd" d="M510.157 148.063L513.873 155.351C513.98 155.561 513.866 155.815 513.64 155.876L510.157 156.813V148.063Z" fill="#B9726B"/>
<path fill-rule="evenodd" clip-rule="evenodd" d="M689.828 473.749C693.168 473.983 699.622 474.257 700.761 473.749C701.152 473.575 701.275 473.316 701.266 473.053C701.243 472.279 700.433 471.817 699.768 471.421C698.254 470.521 695.193 468.779 691.859 467.342C687.135 465.306 683.342 462.05 681.981 457.211C680.62 452.372 679.978 440.643 679.978 440.643L666.431 440.969C666.431 440.969 667.723 450.228 668.733 454.061C668.949 454.883 666.001 460.38 666.981 462.492C668.045 464.784 670.221 465.159 673.752 466.91C681.148 470.578 675.774 472.938 689.828 473.749Z" fill="#E09282"/>
<path fill-rule="evenodd" clip-rule="evenodd" d="M668.82 453.536C668.82 453.536 663.019 456.072 665.425 463.611C667.831 471.15 667.53 473.845 667.53 473.845H673.255V468.477C673.255 468.477 673.491 468.293 674.433 469.029C677.177 471.177 682.242 475.159 684.168 475.638C688.048 476.604 701.066 475.042 701.066 475.042V473.845H691.335C691.335 473.845 696.462 468.889 695.623 468.368C694.216 467.493 691.335 465.674 691.335 465.674L681.359 469.845L668.82 453.536Z" fill="#283845"/>
<path fill-rule="evenodd" clip-rule="evenodd" d="M651.961 443.528H680.409L677.062 364.799L652.671 269.475H611.678L651.109 370.713L651.961 443.528Z" fill="#083254"/>
<path fill-rule="evenodd" clip-rule="evenodd" d="M577.27 474.554C580.109 476.328 587.78 480.665 588.342 479.608C588.905 478.551 578.127 460.538 579.198 455.627C580.268 450.715 585.598 439.702 585.598 439.702L573.886 432.258C573.886 432.258 569.888 442.768 568.979 446.626C568.784 447.454 563.601 450.923 563.475 453.248C563.338 455.771 569.378 467.473 577.27 474.554Z" fill="#E09282"/>
<path fill-rule="evenodd" clip-rule="evenodd" d="M569.118 446.96C569.118 446.96 562.806 446.476 561.391 454.262C559.976 462.048 558.445 464.286 558.445 464.286L563.5 466.974L566.02 462.234C566.02 462.234 566.315 462.183 566.801 463.275C568.216 466.459 570.818 472.353 572.294 473.681C575.266 476.356 587.494 481.088 587.494 481.088L588.056 480.03L579.464 475.462C579.464 475.462 586.317 473.493 585.821 472.639C584.99 471.207 583.3 468.248 583.3 468.248L572.533 467.247L569.118 446.96Z" fill="#283845"/>
<path fill-rule="evenodd" clip-rule="evenodd" d="M598.005 269.475L590.151 366.783C590.151 366.783 581.907 404.645 572.004 433.795C571.119 436.399 600.958 446.144 600.958 446.144L616.269 369.778L638.451 269.475H598.005Z" fill="#0A4677"/>
<path fill-rule="evenodd" clip-rule="evenodd" d="M617.114 272.602L605.023 289.689L606.425 272.676L617.114 272.602Z" fill="#E3E9FF"/>
<path d="M606.788 269.867L598.031 370.849C598.028 370.874 598.024 370.898 598.017 370.922L578.98 438.277" stroke="#E3E9FF" stroke-width="0.5" stroke-linecap="round"/>
<path fill-rule="evenodd" clip-rule="evenodd" d="M653.814 196.149L666.813 221.657L696.164 193.447C696.283 193.333 696.358 193.182 696.376 193.019L697.589 182.433C697.589 182.433 704.567 171.21 705.709 175.296C706.136 176.822 702.523 178.614 703.216 183.602C703.344 184.527 710.812 179.479 714.018 177.267C714.54 176.906 715.241 177.364 715.12 177.987L712.86 189.645C712.83 189.804 712.745 189.948 712.62 190.052L701.941 198.976L674.814 236.01C670.557 241.821 661.711 241.265 658.216 234.966L640.261 202.606L653.814 196.149Z" fill="#E09282"/>
<path d="M681.769 153.605C682.11 152.554 683.238 151.98 684.289 152.321L716.625 162.827C717.675 163.169 718.25 164.297 717.909 165.348L703.694 209.096C703.353 210.147 702.224 210.722 701.174 210.38L668.838 199.874C667.787 199.532 667.213 198.404 667.554 197.354L681.769 153.605Z" fill="#467FFF"/>
<path d="M681.769 153.605C682.11 152.554 683.238 151.98 684.289 152.321L690.946 154.484L675.495 202.037L668.838 199.874C667.787 199.532 667.213 198.404 667.554 197.354L681.769 153.605Z" fill="#1075F0"/>
<path d="M683.338 152.012L689.995 154.175L674.544 201.728L667.887 199.565L683.338 152.012Z" fill="#EAEFFF"/>
<path fill-rule="evenodd" clip-rule="evenodd" d="M651.905 186.634C649.719 182.413 644.564 180.708 640.293 182.793C635.796 184.987 634.05 190.497 636.462 194.88L648.67 217.063L662.735 207.546L651.905 186.634Z" fill="#0A4677"/>
<path fill-rule="evenodd" clip-rule="evenodd" d="M652.539 200.454L659.275 209.861L655.907 212.304L652.539 200.454Z" fill="#080708" fill-opacity="0.223011"/>
<path d="M662.734 207.546L648.669 217.063" stroke="#E3E9FF" stroke-width="0.924" stroke-linecap="round"/>
<path fill-rule="evenodd" clip-rule="evenodd" d="M596.547 193.442C595.263 188.407 598.692 183.39 603.849 182.757L626.056 180.032L644.045 182.048C645.284 182.187 646.353 182.959 646.849 184.104C649.22 189.572 656.04 205.835 656.463 212.886C656.854 219.427 650.886 226.723 650.886 233.428C650.886 240.134 654.58 268.031 654.58 268.031L599.502 269.834C598.994 269.851 598.605 269.387 598.709 268.89L606.424 232.171L596.547 193.442Z" fill="#E09282"/>
<path fill-rule="evenodd" clip-rule="evenodd" d="M596.547 193.442C595.263 188.407 598.692 183.39 603.849 182.757L617.045 181.138C617.045 181.138 622.785 186.42 627.427 191.837C632.068 197.254 636.353 204.304 636.353 204.304C636.353 204.304 637 198.568 637 193.476C637 188.384 636.353 181.186 636.353 181.186L643.423 182.044C644.598 182.186 645.618 182.899 646.133 183.966C648.704 189.293 656.406 205.775 656.832 212.886C657.224 219.427 651.255 226.723 651.255 233.428C651.255 240.134 654.58 269.475 654.58 269.475L608.72 271.961C602.808 272.281 598.247 266.83 599.607 261.067L606.424 232.171L596.547 193.442Z" fill="#E3E9FF"/>
<path fill-rule="evenodd" clip-rule="evenodd" d="M603.849 182.757L617.045 181.138L620.293 187.098C624.96 195.706 628.413 202.296 630.651 206.866C633.381 212.441 635.996 218.468 638.498 224.95C640.457 218.592 641.297 212.564 641.017 206.866L640.975 206.124C640.603 200.435 639.063 192.123 636.353 181.186L644.102 182.054C645.314 182.19 646.37 182.943 646.894 184.044L647.508 185.343C653.654 198.414 656.885 207.596 657.202 212.886C657.594 219.427 651.625 226.723 651.625 233.428L651.63 233.908C651.721 238.541 653.057 250.21 655.639 268.913C655.834 270.328 654.845 271.634 653.43 271.829C653.356 271.84 653.281 271.847 653.207 271.85L604.989 274.292C600.708 274.509 597.061 271.214 596.844 266.933C596.801 266.075 596.9 265.216 597.138 264.391L606.424 232.171L596.547 193.442C595.37 188.829 598.156 184.136 602.768 182.96C603.124 182.869 603.485 182.801 603.849 182.757Z" fill="#0A4677"/>
<path fill-rule="evenodd" clip-rule="evenodd" d="M638.498 229.015L639.893 272.274H643.473L638.498 229.015Z" fill="#080708" fill-opacity="0.223011"/>
<path d="M654.248 271.891L604.989 274.292C603.325 274.376 601.757 273.93 600.449 273.102" stroke="#062944" stroke-opacity="0.699109" stroke-width="0.924" stroke-linecap="round"/>
<path fill-rule="evenodd" clip-rule="evenodd" d="M639.032 232.146C640.155 232.146 641.065 231.236 641.065 230.113C641.065 228.99 640.155 228.08 639.032 228.08C637.91 228.08 637 228.99 637 230.113C637 231.236 637.91 232.146 639.032 232.146Z" fill="#E3E9FF"/>
<path fill-rule="evenodd" clip-rule="evenodd" d="M610.973 196.686L605.258 226.01L600.755 210.401L610.973 196.686Z" fill="#080708" fill-opacity="0.223011"/>
<path fill-rule="evenodd" clip-rule="evenodd" d="M642.409 177.94C644.493 175.937 642.665 163.191 642.181 160.069C642.116 159.654 642.311 159.242 642.663 159.013C644.104 158.073 647.735 155.394 648.579 151.801C653.854 129.323 619.616 131.376 617.341 140.32C611.833 141.097 610.529 148.426 610.976 154.291C611.103 155.959 611.03 168.911 610.993 174.328C610.984 175.749 611.876 177.014 613.217 177.486L623.37 181.059C623.37 181.059 640.03 180.226 642.409 177.94Z" fill="#321111"/>
<path fill-rule="evenodd" clip-rule="evenodd" d="M621.27 182.42C621.27 185.878 624.072 188.676 627.53 188.676C631.206 188.676 634.091 185.522 633.765 181.86L633.042 173.74C633.042 173.74 640.834 174.358 643.473 170.59C646.112 166.822 645.748 147.195 645.748 147.195L621.27 147.195C621.27 147.195 621.27 152.06 621.27 153.748C613.796 153.748 613.796 162.772 621.27 162.772C621.27 168.565 621.27 176.8 621.27 182.42Z" fill="#E09282"/>
<path fill-rule="evenodd" clip-rule="evenodd" d="M645.793 152.013V142.932H620.432L621.281 160.72C621.297 161.051 621.723 161.152 621.881 160.861C622.422 159.857 623.286 158.181 624.091 156.288C625.449 153.095 629.89 151.606 632.667 151.606C635.582 151.606 639.805 151.955 642.407 149.804C645.441 147.296 645.793 152.013 645.793 152.013Z" fill="#321111"/>
<path fill-rule="evenodd" clip-rule="evenodd" d="M633.057 173.72C633.057 173.72 630.744 173.408 628.963 172.847C627.182 172.285 624.93 171.152 624.93 171.152C624.93 171.152 627.986 174.121 629.593 175.398C631.2 176.674 633.442 177.913 633.442 177.913L633.057 173.72Z" fill="#B9726B"/>
<path fill-rule="evenodd" clip-rule="evenodd" d="M640.723 158.283V164.752C640.723 164.752 643.419 163.352 643.419 162.805C643.419 162.259 640.723 158.283 640.723 158.283Z" fill="#B9726B"/>
<path fill-rule="evenodd" clip-rule="evenodd" d="M629.785 135.237C633.535 133.965 639.768 134.004 643.898 137.231C643.898 137.231 636.447 136.019 631.645 137.647C627.258 139.134 620.96 145.5 620.896 153.746L619.61 154.019C618.573 146.055 620.961 138.23 629.785 135.237Z" fill="#A0C6FF"/>
<path fill-rule="evenodd" clip-rule="evenodd" d="M604.739 204.715L588.936 234.266C588.936 234.266 649.804 212.398 650.371 213.341C651.309 214.899 645.521 217.727 644.015 219.595C642.508 221.462 644.015 226.738 642.372 228.71C641.656 229.571 634.159 229.581 631.664 229.581C630.612 229.581 618.739 234.697 600.552 244.031C599.285 244.681 595.594 246.28 590.919 248.253C580.129 252.806 569.602 241.445 574.845 230.973L591.807 197.091L604.739 204.715Z" fill="#E09282"/>
<path fill-rule="evenodd" clip-rule="evenodd" d="M594.095 188.484C596.386 183.575 602.411 181.713 607.072 184.472L608.279 185.186C612.495 187.681 614.004 193.049 611.707 197.375L599.571 220.228L583.454 211.285L594.095 188.484Z" fill="#0A4677"/>
<path fill-rule="evenodd" clip-rule="evenodd" d="M630.279 220.495C630.279 220.495 635.073 210.817 636.775 210.932C638.476 211.047 635.324 220.236 635.324 220.236L630.279 220.495Z" fill="#E09282"/>
<path d="M583.688 211.348L599.571 220.228" stroke="#E3E9FF" stroke-width="0.924" stroke-linecap="round"/>
<path fill-rule="evenodd" clip-rule="evenodd" d="M577.28 63.8C579.445 63.8 581.2 65.5551 581.2 67.72V104.57C581.2 106.735 579.445 108.49 577.28 108.49L540.817 108.49L525.194 120.6L525.193 108.49L521.12 108.49C518.955 108.49 517.2 106.735 517.2 104.57V67.72C517.2 65.5551 518.955 63.8 521.12 63.8H577.28Z" fill="#DEE9FF"/>
<path fill-rule="evenodd" clip-rule="evenodd" d="M554.391 72.017C555.734 71.4469 557.265 71.5323 558.537 72.248L565.272 76.0399C566.868 76.9383 567.658 78.7992 567.195 80.5712L565.244 88.0503C564.876 89.462 563.873 90.6229 562.531 91.193L536.824 102.105C536.141 102.395 535.352 102.076 535.062 101.393L527.972 84.691C527.682 84.0078 528.001 83.2187 528.684 82.9287L554.391 72.017ZM560.599 78.1421C559.404 78.6496 558.846 80.0304 559.353 81.2261C559.861 82.4218 561.242 82.9797 562.437 82.4722C563.633 81.9646 564.191 80.5838 563.683 79.3881C563.176 78.1924 561.795 77.6346 560.599 78.1421Z" fill="#FF5D8E"/>
<path fill-rule="evenodd" clip-rule="evenodd" d="M540.825 84.2593C540.296 84.0547 539.709 84.0894 539.063 84.3635C538.426 84.634 537.996 85.0326 537.772 85.5592C537.573 86.0274 537.563 86.5225 537.74 87.0447L537.815 87.2417L538.015 87.7112L538.098 87.8925C538.362 88.417 538.736 88.7674 539.22 88.9435C539.758 89.1391 540.343 89.1026 540.976 88.834C541.613 88.5635 542.042 88.1681 542.263 87.6477C542.46 87.1851 542.469 86.693 542.292 86.1715L542.216 85.9745L542.014 85.4985L541.921 85.299C541.661 84.7878 541.295 84.4412 540.825 84.2593ZM539.161 85.9955C539.225 85.7993 539.363 85.6564 539.574 85.5668C539.793 85.4736 539.995 85.4753 540.178 85.5717C540.325 85.6489 540.444 85.7686 540.535 85.9307L540.599 86.0603L540.767 86.457L540.819 86.5897C541 87.1066 540.882 87.4536 540.465 87.6307C540.246 87.7239 540.043 87.7254 539.857 87.6351C539.709 87.5629 539.589 87.4463 539.497 87.2852L539.433 87.156L539.222 86.6601L539.17 86.5151C539.113 86.3257 539.11 86.1525 539.161 85.9955Z" fill="white"/>
<path d="M543.947 92.9643L545.345 83.4915L544.11 83.3996L542.712 92.8724L543.947 92.9643Z" fill="white"/>
<path fill-rule="evenodd" clip-rule="evenodd" d="M548.828 87.2487C548.298 87.0525 547.712 87.0905 547.07 87.3628C546.438 87.6315 546.007 88.0274 545.78 88.5505C545.577 89.0155 545.565 89.5107 545.744 90.036L545.82 90.2344L546.022 90.7104L546.106 90.8917C546.369 91.4163 546.743 91.7666 547.227 91.9427C547.765 92.1384 548.35 92.1019 548.983 91.8333C549.625 91.561 550.056 91.1646 550.277 90.6442C550.474 90.1816 550.482 89.6878 550.303 89.1628L550.227 88.9644L550.031 88.5016L549.946 88.3165C549.678 87.7812 549.306 87.4252 548.828 87.2487ZM547.169 88.9788C547.237 88.7914 547.375 88.6538 547.581 88.5661C547.796 88.4747 547.997 88.4742 548.183 88.5644C548.331 88.6366 548.452 88.7547 548.545 88.9186L548.61 89.0502L548.892 89.7339L548.923 89.8455C549.002 90.2073 548.852 90.4688 548.472 90.63C548.274 90.714 548.073 90.7071 547.869 90.6091C547.706 90.5307 547.58 90.4174 547.491 90.2691L547.431 90.1514L547.201 89.6092L547.157 89.4722C547.111 89.2932 547.115 89.1288 547.169 88.9788Z" fill="white"/>
<path fill-rule="evenodd" clip-rule="evenodd" d="M211.257 446.091H197.951L195.364 468.267H207.561L211.257 446.091Z" fill="#616988"/>
<path fill-rule="evenodd" clip-rule="evenodd" d="M209.187 476.882L200.144 477.514L199.205 474.679C199.205 474.679 189.612 478.268 181.837 478.812C174.062 479.356 168.734 475.927 168.734 475.927C168.905 474.006 170.399 472.469 172.313 472.242L181.744 471.128L194.911 460.837C194.911 460.837 197.276 465.106 201.848 464.786C206.419 464.467 209.28 462.316 209.28 462.316L210.035 473.115L209.187 476.882Z" fill="#1F1E1E"/>
<path fill-rule="evenodd" clip-rule="evenodd" d="M245.987 259.491L220.352 362.409C220.352 362.409 221.709 377.865 221.709 388.791C221.709 399.717 211.6 454.641 211.6 454.641H194.243L204.134 259.491H245.987Z" fill="#2E2B2B"/>
<path fill-rule="evenodd" clip-rule="evenodd" d="M272.611 446.091H259.305L262.631 468.267H274.828L272.611 446.091Z" fill="#616988"/>
<path fill-rule="evenodd" clip-rule="evenodd" d="M275.69 476.557L266.692 477.662L265.606 474.88C265.606 474.88 256.215 478.966 248.479 479.916C240.743 480.866 235.242 477.721 235.242 477.721C235.312 475.794 236.724 474.18 238.624 473.854L247.984 472.248L260.593 461.282C260.593 461.282 263.179 465.421 267.728 464.863C272.276 464.304 275.021 462.007 275.021 462.007L276.34 472.751L275.69 476.557Z" fill="#2E2C2C"/>
<path fill-rule="evenodd" clip-rule="evenodd" d="M264.468 259.861L267.291 359.083C267.291 359.083 272.344 375.648 272.344 386.574C272.344 397.5 274.062 455.01 274.062 455.01H259.663L223.257 259.861H264.468Z" fill="#454141"/>
<path fill-rule="evenodd" clip-rule="evenodd" d="M236.591 263.439L247.997 279.559L246.326 263.508L236.591 263.439Z" fill="#6B6B6B"/>
<path d="M246.085 262.376L257.511 362.486C257.511 362.486 260.865 374.905 262.636 388.641C264.406 402.377 268.071 455.01 268.071 455.01" stroke="#6B6B6B" stroke-width="0.5544"/>
<path fill-rule="evenodd" clip-rule="evenodd" d="M196.067 201.622L187.536 222.306L183.514 193.265C183.005 189.636 182.715 187.611 182.643 187.19C182.369 185.592 184.247 182.218 184.48 178.901L184.511 178.386C184.743 175.076 185.87 171.132 185.71 170.019C185.545 168.869 184.045 169.614 183.109 170.363C181.02 172.034 181.174 174.298 179.845 177.064C179.374 178.042 174.913 168.135 173.134 168.135C171.356 168.135 165.949 176.604 165.949 179.277C165.949 181.059 168.609 184.645 173.929 190.036L175.936 235.927C176.186 241.637 181.018 246.063 186.728 245.813C190.499 245.648 193.882 243.442 195.554 240.057L211.013 208.761L196.067 201.622Z" fill="#FFC4A7"/>
<path fill-rule="evenodd" clip-rule="evenodd" d="M185.619 151.536L156.02 145.519L155.559 171.915L185.35 166.934L185.619 151.536Z" fill="#FF5D8E"/>
<path fill-rule="evenodd" clip-rule="evenodd" d="M181.099 165.808L175.66 180.423C175.276 181.456 174.127 181.982 173.094 181.597C172.9 181.525 172.719 181.423 172.557 181.296C171.273 180.286 170.778 178.568 171.33 177.03L174.988 166.824L181.099 165.808Z" fill="#FF326F"/>
<path fill-rule="evenodd" clip-rule="evenodd" d="M186.758 149.356L184.558 149.317C182.736 149.286 181.233 150.737 181.201 152.559L180.97 165.757C180.939 167.58 182.39 169.083 184.212 169.114L186.412 169.153C188.234 169.185 189.737 167.733 189.769 165.911L189.999 152.713C190.031 150.891 188.58 149.388 186.758 149.356Z" fill="#FF326F"/>
<path fill-rule="evenodd" clip-rule="evenodd" d="M154.767 154.298L149.07 155.146C148.538 155.225 148.142 155.677 148.132 156.215L148.049 160.95C148.04 161.488 148.421 161.954 148.95 162.051L154.613 163.097L154.767 154.298Z" fill="#FF5D8E"/>
<path fill-rule="evenodd" clip-rule="evenodd" d="M157.216 140.039L155.016 140.001C153.194 139.969 151.691 141.42 151.659 143.242L151.14 172.938C151.109 174.76 152.56 176.263 154.382 176.295L156.582 176.333C158.404 176.365 159.907 174.914 159.939 173.091L160.457 143.396C160.489 141.574 159.038 140.071 157.216 140.039Z" fill="#FF326F"/>
<path fill-rule="evenodd" clip-rule="evenodd" d="M202.985 181.821C205.129 176.743 211.096 174.506 216.05 176.922L217.825 177.788C222.622 180.128 224.594 185.928 222.216 190.706L197.911 239.551C192.669 250.084 177.023 247.822 174.98 236.235L173.951 230.4L186.66 213.745L188.299 216.591L202.985 181.821Z" fill="#E3E9FF"/>
<path fill-rule="evenodd" clip-rule="evenodd" d="M263.04 183.198C263.04 179.095 259.983 175.635 255.911 175.129L233.287 172.319L216.458 175.011C212.773 175.601 209.962 178.624 209.642 182.342L202.795 261.762H263.04V183.198Z" fill="#E3E9FF"/>
<path fill-rule="evenodd" clip-rule="evenodd" d="M231.841 192.122C228.637 198.566 225.311 205.45 221.861 212.776L221.508 210.795C219.526 199.55 218.535 191.752 218.535 187.4C218.535 183.509 218.975 179.089 219.855 174.137L212.101 175.22C208.21 175.764 205.265 179.012 205.103 182.937L201.687 265.603H265.627V183.451C265.627 179.302 262.504 175.818 258.38 175.368L242.921 173.68C238.305 180.399 234.612 186.547 231.841 192.122Z" fill="#544F4F"/>
<path fill-rule="evenodd" clip-rule="evenodd" d="M253.054 197.86L265.627 240.917V215.591L253.054 197.86Z" fill="#080708" fill-opacity="0.340226"/>
<path d="M218.595 227.849C218.304 226.479 216.932 225.627 215.575 225.974L201.301 229.621C200.021 229.948 199.226 231.227 199.501 232.52L204.65 256.743C204.941 258.113 206.313 258.965 207.67 258.618L221.944 254.971C223.224 254.644 224.019 253.365 223.744 252.072L218.595 227.849Z" fill="#1075F0"/>
<path d="M216.89 227.525C216.589 226.109 215.138 225.256 213.755 225.683L199.228 230.16L188.931 231.06C187.456 231.189 186.428 232.579 186.735 234.027L191.877 258.217C192.136 259.435 193.262 260.268 194.502 260.16L205.402 259.207L220.351 254.599C221.57 254.224 222.301 252.98 222.036 251.732L216.89 227.525Z" fill="#467FFF"/>
<path d="M214.89 233.504C214.696 232.593 213.767 232.039 212.873 232.302L205.946 234.341C205.144 234.577 204.659 235.39 204.832 236.208L205.496 239.329C205.69 240.241 206.618 240.794 207.513 240.531L214.44 238.493C215.242 238.257 215.727 237.443 215.553 236.625L214.89 233.504Z" fill="#EAEFFF"/>
<path d="M200.396 230.729C200.304 230.297 199.88 230.021 199.447 230.113L198.665 230.279C198.233 230.371 197.957 230.796 198.049 231.228L203.87 258.616C203.962 259.049 204.387 259.324 204.819 259.233L205.602 259.066C206.034 258.974 206.31 258.55 206.218 258.117L200.396 230.729Z" fill="#EAEFFF"/>
<path d="M199.614 230.896C199.522 230.463 199.097 230.188 198.665 230.279L197.882 230.446C197.45 230.538 197.174 230.962 197.266 231.395L203.088 258.783C203.179 259.215 203.604 259.491 204.036 259.399L204.819 259.233C205.251 259.141 205.527 258.716 205.435 258.284L199.614 230.896Z" fill="#1075F0"/>
<path fill-rule="evenodd" clip-rule="evenodd" d="M265.247 213.254L273.189 227.802C273.189 227.802 242.436 239.726 232.528 242.474C229.116 243.42 224.693 234.792 219.698 236.033C217.774 236.511 225.36 243.463 221.74 244.098C213.661 245.515 207.437 246.89 206.861 248.613C206.154 250.726 215.051 255.83 219 256.441C221.175 256.778 227.529 254.509 235.181 252.469C240.651 251.012 263.024 246.127 279.029 242.67C287.566 240.826 292.063 231.405 288.112 223.615L278.803 205.261L265.247 213.254Z" fill="#FFC4A7"/>
<path fill-rule="evenodd" clip-rule="evenodd" d="M267.186 180.527C264.635 175.604 258.457 173.856 253.704 176.712L251.944 177.769C247.426 180.484 245.938 186.333 248.61 190.877L269.498 226.402L265.987 228.971L275.889 247.031L286.771 241.047C291.868 238.244 293.8 231.888 291.123 226.723L267.186 180.527Z" fill="#E3E9FF"/>
<path fill-rule="evenodd" clip-rule="evenodd" d="M237.593 175.051C237.593 178.841 234.52 181.912 230.73 181.912C226.629 181.912 223.444 178.341 223.911 174.267L224.513 169.014C224.513 169.014 215.855 169.7 212.922 165.513C209.99 161.326 210.395 135.823 210.395 135.823L237.593 135.823C237.593 135.823 237.593 144.925 237.593 146.8C245.897 146.8 245.897 156.826 237.593 156.826C237.593 162.785 237.593 169.917 237.593 175.051Z" fill="#FFC4A7"/>
<path fill-rule="evenodd" clip-rule="evenodd" d="M224.811 165.814C224.811 165.814 227.382 165.467 229.36 164.843C231.339 164.22 233.842 162.96 233.842 162.96C233.842 162.96 230.445 166.26 228.66 167.678C226.874 169.096 224.384 170.473 224.384 170.473L224.811 165.814Z" fill="#F19B93"/>
<path fill-rule="evenodd" clip-rule="evenodd" d="M222.015 159.298L215.281 158.214C215.179 158.197 215.075 158.202 214.975 158.229L211.243 159.214C211.063 159.262 210.946 159.437 210.972 159.622L211.066 160.306C211.117 160.672 211.429 160.941 211.796 160.898C212.594 160.805 213.993 160.522 215.145 159.667C217.557 160.944 221.647 160.944 221.647 160.944L222.015 159.298Z" fill="#0A2650"/>
<path fill-rule="evenodd" clip-rule="evenodd" d="M234.301 145.771L233.922 152.242C233.67 156.54 229.969 159.811 225.673 159.534L222.015 159.298L219.251 165.623C219.134 165.893 218.868 166.067 218.574 166.067H214.062C213.738 166.067 213.452 165.856 213.356 165.546L211.537 159.667H211.154L212.225 167.895C212.489 169.92 214.214 171.436 216.257 171.436H218.208C218.769 171.436 219.323 171.32 219.836 171.096L231.511 165.995C233.354 165.189 234.616 163.45 234.81 161.448L236.483 144.153L234.301 145.771Z" fill="#0A2650"/>
<path fill-rule="evenodd" clip-rule="evenodd" d="M216.063 148.845L216.063 156.033H211.994C211.74 156.033 211.563 155.784 211.653 155.546C212.029 154.554 212.943 152.303 213.854 151.247C215.043 149.87 216.063 148.845 216.063 148.845Z" fill="#F19B93"/>
<path fill-rule="evenodd" clip-rule="evenodd" d="M244.958 137.333C244.958 136.271 232.959 126.584 227.083 126.034C222.315 125.588 215.643 129.656 212.654 129.656C209.014 129.656 206.225 127.279 206.225 127.279C206.225 127.279 202.058 135.201 204.274 138.336C206.49 141.471 210.713 143.84 214.042 143.045C217.644 142.185 223.414 139.366 227.083 139.366C233.896 139.366 234.263 146.794 234.263 146.794C234.263 146.794 235.829 146.794 237.658 146.794C240.037 146.794 242.026 148.097 242.026 148.097C242.026 148.097 244.958 138.395 244.958 137.333Z" fill="#0A2650"/>
</svg>
