<svg width="852" height="706" viewBox="0 0 852 706" fill="none" xmlns="http://www.w3.org/2000/svg">
<path fill-rule="evenodd" clip-rule="evenodd" d="M132 137H678C683.523 137 688 141.477 688 147V424C688 429.523 683.523 434 678 434H132C126.477 434 122 429.523 122 424V147C122 141.477 126.477 137 132 137Z" fill="#ABC5FA"/>
<path fill-rule="evenodd" clip-rule="evenodd" d="M143 137H689C694.523 137 699 141.477 699 147V424C699 429.523 694.523 434 689 434H143C137.477 434 133 429.523 133 424V147C133 141.477 137.477 137 143 137Z" fill="#C8DAFF"/>
<path fill-rule="evenodd" clip-rule="evenodd" d="M150 162C150 156.477 154.477 152 160 152H672C677.523 152 682 156.477 682 162V409C682 414.523 677.523 419 672 419H160C154.477 419 150 414.523 150 409V162Z" fill="#ABC5FA"/>
<path fill-rule="evenodd" clip-rule="evenodd" d="M152 160.6C152 158.612 153.612 157 155.6 157L670.4 157C672.388 157 674 158.612 674 160.6V405.4C674 407.388 672.388 409 670.4 409H155.6C153.612 409 152 407.388 152 405.4V160.6Z" fill="#C8DAFF"/>
<path d="M163 157H664C669.523 157 674 161.477 674 167V403C674 408.523 669.523 413 664 413H163C157.477 413 153 408.523 153 403V167C153 161.477 157.477 157 163 157Z" fill="#EAEFFF"/>
<path d="M289 227.82L215.113 313.399C213.416 315.365 214.85 318.413 217.447 318.359L346.194 315.655" stroke="#83A9FF" stroke-width="3.5" stroke-dasharray="7"/>
<path d="M379.434 289C381.621 289 383.394 290.773 383.394 292.96V337.985C383.394 338.093 383.391 338.2 383.386 338.307H312.34C312.335 338.2 312.333 338.093 312.333 337.985V292.96C312.333 290.773 314.105 289 316.293 289H379.434Z" fill="#467FFF"/>
<path d="M350.587 319.69C350.844 320.104 350.716 320.647 350.302 320.903L349.99 321.096C349.578 321.351 349.036 321.224 348.78 320.811L347.479 318.716L344.721 320.421C344.166 320.764 343.445 320.406 343.382 319.757L342.449 310.06C342.379 309.333 343.173 308.842 343.792 309.229L352.05 314.399C352.603 314.745 352.6 315.551 352.046 315.894L349.288 317.599L350.587 319.69Z" fill="white"/>
<path d="M341.717 339.892V340.978H353.529V339.892H386.779C387.087 339.892 387.314 340.179 387.243 340.479C386.563 343.349 383.999 345.376 381.049 345.376H315.333C312.383 345.376 309.82 343.349 309.139 340.479C309.068 340.179 309.296 339.892 309.604 339.892H341.717Z" fill="#1075F0"/>
<path fill-rule="evenodd" clip-rule="evenodd" d="M190.038 295.653C190.015 295.257 190.229 294.884 190.583 294.703L218.564 280.476C219.15 280.178 219.845 280.187 220.424 280.501L248.44 295.696C248.782 295.882 248.985 296.248 248.961 296.636L248.525 303.834C247.547 319.97 240.306 335.086 228.344 345.96L220.173 353.388C219.791 353.735 219.209 353.735 218.827 353.388L210.703 346.003C198.713 335.103 191.467 319.943 190.516 303.767L190.038 295.653Z" fill="#D5E4FF"/>
<path d="M188.538 294.624C188.526 294.426 188.633 294.239 188.81 294.149L216.79 279.922C217.23 279.698 217.751 279.705 218.185 279.94L246.202 295.136C246.372 295.228 246.474 295.412 246.462 295.606L246.026 302.804C245.056 318.809 237.873 333.803 226.008 344.59L217.836 352.019C217.646 352.192 217.354 352.192 217.164 352.019L209.039 344.633C197.146 333.821 189.959 318.783 189.015 302.738L188.538 294.624Z" fill="white" stroke="#D2E0FF"/>
<path d="M217.785 297C226.503 297 233.571 304.067 233.571 312.785C233.571 321.503 226.503 328.571 217.785 328.571C209.067 328.571 202 321.503 202 312.785C202 304.067 209.067 297 217.785 297Z" fill="#9BBAFF"/>
<path d="M222.283 308.423C222.825 307.762 223.758 307.703 224.367 308.292C224.938 308.844 225.021 309.769 224.582 310.427L224.488 310.555L218.48 317.878C217.622 318.924 216.174 319.066 215.16 318.233L215.025 318.114L211.214 314.501C210.6 313.919 210.537 312.907 211.073 312.24C211.576 311.615 212.427 311.516 213.037 311.986L213.156 312.087L216.599 315.35L222.283 308.423Z" fill="#467FFF"/>
<path fill-rule="evenodd" clip-rule="evenodd" d="M268 250C259.119 249.728 252 242.446 252 233.5C252 224.387 259.387 217 268.5 217C269.008 217 269.51 217.023 270.006 217.068C270.235 208.155 277.532 201 286.5 201C295.149 201 302.244 207.655 302.943 216.123C303.617 216.042 304.304 216 305 216C314.389 216 322 223.611 322 233C322 241.712 315.447 248.893 307.001 249.884L307 250H268Z" fill="#D5E4FF"/>
<path d="M266 248C257.119 247.728 250 240.446 250 231.5C250 222.387 257.387 215 266.5 215C267.008 215 267.51 215.023 268.006 215.068C268.235 206.155 275.532 199 284.5 199C293.149 199 300.244 205.655 300.943 214.123C301.617 214.042 302.304 214 303 214C312.389 214 320 221.611 320 231C320 239.712 313.447 246.893 305.001 247.884L305 248H266Z" fill="#467FFF"/>
<path fill-rule="evenodd" clip-rule="evenodd" d="M288 217C288.552 217 289 217.448 289 218V226.499L291.171 226.5C291.373 226.5 291.569 226.561 291.734 226.674L291.83 226.748C292.213 227.083 292.279 227.647 292 228.059L291.924 228.159L285.247 235.786C285.219 235.818 285.19 235.847 285.158 235.875C284.777 236.214 284.209 236.208 283.836 235.88L283.747 235.791L276.977 228.164C276.814 227.981 276.725 227.745 276.725 227.5C276.725 226.987 277.111 226.564 277.608 226.507L277.725 226.5L280 226.499V218C280 217.448 280.448 217 281 217H288Z" fill="white"/>
<rect x="276" y="238" width="17" height="2" rx="1" fill="white"/>
<path fill-rule="evenodd" clip-rule="evenodd" d="M389 406.2C389 405.537 389.537 405 390.2 405H445.637C445.874 405 446.105 405.07 446.302 405.202L449.6 407.4V420C449.6 420.663 449.063 421.2 448.4 421.2H390.2C389.537 421.2 389 420.663 389 420V406.2Z" fill="#ABC5FA"/>
<path fill-rule="evenodd" clip-rule="evenodd" d="M392.6 410.6C392.6 409.937 393.137 409.4 393.8 409.4H449.6V423.2H392.6V410.6Z" fill="#C8DAFF"/>
<path fill-rule="evenodd" clip-rule="evenodd" d="M420 213C420 207.477 424.477 203 430 203H649.4C654.923 203 659.4 207.477 659.4 213V350.5C659.4 356.023 654.923 360.5 649.4 360.5H430C424.477 360.5 420 356.023 420 350.5V213Z" fill="#D5E4FF"/>
<path d="M414.5 207C414.5 201.753 418.753 197.5 424 197.5H643.4C648.647 197.5 652.9 201.753 652.9 207V344.5C652.9 349.747 648.647 354 643.4 354H424C418.753 354 414.5 349.747 414.5 344.5V207Z" fill="white" stroke="#D2E0FF"/>
<path d="M447.25 322.2C449.984 322.2 452.2 319.984 452.2 317.25C452.2 314.516 449.984 312.3 447.25 312.3C444.516 312.3 442.3 314.516 442.3 317.25C442.3 319.984 444.516 322.2 447.25 322.2Z" fill="#FFBF29"/>
<path d="M566.5 315.25C567.494 315.25 568.3 316.056 568.3 317.05C568.3 317.994 567.572 318.769 566.647 318.844L566.5 318.85H462.231C461.237 318.85 460.431 318.044 460.431 317.05C460.431 316.106 461.158 315.331 462.084 315.256L462.231 315.25H566.5Z" fill="#FFBF29"/>
<path d="M512.5 329.75C513.494 329.75 514.3 330.556 514.3 331.55C514.3 332.494 513.572 333.269 512.647 333.344L512.5 333.35H462.231C461.237 333.35 460.431 332.544 460.431 331.55C460.431 330.606 461.158 329.831 462.084 329.756L462.231 329.75H512.5Z" fill="#FFD676"/>
<rect x="444.67" y="222.67" width="128.79" height="72.9" rx="4.86" fill="#D5E4FF"/>
<rect x="439" y="217" width="128.79" height="72.9" rx="4.86" fill="#FFBF29"/>
<path fill-rule="evenodd" clip-rule="evenodd" d="M502.585 275.32C514.44 275.32 524.05 265.71 524.05 253.855C524.05 242 514.44 232.39 502.585 232.39C490.73 232.39 481.12 242 481.12 253.855C481.12 265.71 490.73 275.32 502.585 275.32Z" fill="white"/>
<path d="M498.271 247.532C497.733 247.272 497.109 247.664 497.109 248.261V260.22C497.109 260.827 497.752 261.218 498.291 260.94L510.249 254.76C510.842 254.454 510.831 253.602 510.23 253.311L498.271 247.532Z" fill="#FFBF29"/>
<path d="M627.569 221.05C628.563 221.05 629.369 221.856 629.369 222.85C629.369 223.794 628.641 224.569 627.716 224.644L627.569 224.65H595.3C594.306 224.65 593.5 223.844 593.5 222.85C593.5 221.905 594.227 221.131 595.152 221.056L595.3 221.05H627.569Z" fill="#FFD676"/>
<path d="M609.569 232.75C610.563 232.75 611.369 233.556 611.369 234.55C611.369 235.494 610.641 236.269 609.716 236.344L609.569 236.35H595.3C594.306 236.35 593.5 235.544 593.5 234.55C593.5 233.606 594.227 232.831 595.152 232.756L595.3 232.75H609.569Z" fill="#FFD676"/>
<path d="M627.569 258.85C628.563 258.85 629.369 259.656 629.369 260.65C629.369 261.595 628.641 262.369 627.716 262.444L627.569 262.45H595.3C594.306 262.45 593.5 261.644 593.5 260.65C593.5 259.706 594.227 258.931 595.152 258.856L595.3 258.85H627.569Z" fill="#FFD676"/>
<path d="M609.569 270.55C610.563 270.55 611.369 271.356 611.369 272.35C611.369 273.295 610.641 274.069 609.716 274.144L609.569 274.15H595.3C594.306 274.15 593.5 273.344 593.5 272.35C593.5 271.406 594.227 270.631 595.152 270.556L595.3 270.55H609.569Z" fill="#FFD676"/>
<path d="M627.569 294.85C628.563 294.85 629.369 295.656 629.369 296.65C629.369 297.595 628.641 298.369 627.716 298.444L627.569 298.45H595.3C594.306 298.45 593.5 297.644 593.5 296.65C593.5 295.706 594.227 294.931 595.152 294.856L595.3 294.85H627.569Z" fill="#FFD676"/>
<path d="M609.569 306.55C610.563 306.55 611.369 307.356 611.369 308.35C611.369 309.295 610.641 310.069 609.716 310.144L609.569 310.15H595.3C594.306 310.15 593.5 309.344 593.5 308.35C593.5 307.406 594.227 306.631 595.152 306.556L595.3 306.55H609.569Z" fill="#FFD676"/>
<path fill-rule="evenodd" clip-rule="evenodd" d="M126.727 623.291H140.032C140.032 623.291 139.879 638.593 141.511 640.367C143.142 642.142 157.773 649.163 157.773 649.163L129.683 645.467L126.727 623.291Z" fill="#616988"/>
<path fill-rule="evenodd" clip-rule="evenodd" d="M128.608 641.501C128.074 641.501 127.493 644.283 127.493 646.637C127.493 648.645 127.493 653.404 127.493 654.759C127.493 654.963 127.658 655.126 127.861 655.126L137.618 655.15C137.823 655.151 137.989 654.985 137.989 654.78V652.919C137.989 652.919 149.725 655.495 151.754 655.495C153.783 655.495 165.352 653.984 167.124 652.549C168.897 651.115 166.73 648.313 164.67 648.313C162.61 648.313 157.262 647.35 154.811 646.06C152.361 644.77 146.609 639.972 145.662 639.972C144.714 639.972 144.054 643.884 144.635 644.397C145.217 644.909 146.166 646.06 146.166 646.06C146.166 646.06 129.142 641.501 128.608 641.501Z" fill="#642F14"/>
<path fill-rule="evenodd" clip-rule="evenodd" d="M90.1216 437.013L113.17 539.931C113.17 539.931 111.813 555.387 111.813 566.313C111.813 577.239 126.727 632.162 126.727 632.162H141.866L131.975 437.013H90.1216Z" fill="#B7C3D1"/>
<path fill-rule="evenodd" clip-rule="evenodd" d="M122.4 626.334C122.345 626.101 122.521 625.878 122.759 625.878H141.88C142.084 625.878 142.25 626.044 142.25 626.248V633.27C142.25 633.475 142.084 633.64 141.88 633.64H124.431C124.26 633.64 124.112 633.523 124.072 633.356L122.4 626.334Z" fill="#9DA9B6"/>
<path fill-rule="evenodd" clip-rule="evenodd" d="M64.6342 623.291H77.9398C77.9398 623.291 74.0909 638.593 75.7222 640.367C77.3536 642.142 91.9846 649.163 91.9846 649.163L63.895 645.467L64.6342 623.291Z" fill="#616988"/>
<path fill-rule="evenodd" clip-rule="evenodd" d="M62.8197 641.501C62.2856 641.501 61.7041 644.283 61.7041 646.637C61.7041 648.645 61.7041 653.404 61.7041 654.759C61.7041 654.963 61.869 655.126 62.0728 655.126L71.8299 655.15C72.0344 655.151 72.2004 654.985 72.2004 654.78V652.919C72.2004 652.919 83.936 655.495 85.9653 655.495C87.9946 655.495 99.563 653.984 101.336 652.549C103.108 651.115 100.941 648.313 98.8813 648.313C96.8215 648.313 91.4732 647.35 89.0228 646.06C86.5724 644.77 80.8203 639.972 79.8731 639.972C78.9258 639.972 78.2657 643.884 78.8469 644.397C79.4281 644.909 80.3771 646.06 80.3771 646.06C80.3771 646.06 63.3537 641.501 62.8197 641.501Z" fill="#823E1D"/>
<path fill-rule="evenodd" clip-rule="evenodd" d="M71.6416 437.382L67.7091 536.604C67.7091 536.604 62.6563 553.169 62.6563 564.095C62.6563 575.021 60.938 632.532 60.938 632.532H79.0336L112.852 437.382H71.6416Z" fill="#CCD8E7"/>
<path fill-rule="evenodd" clip-rule="evenodd" d="M99.5182 440.961L88.1123 457.08L89.7835 441.03L99.5182 440.961Z" fill="#0B5E59"/>
<path d="M90.0247 439.898L78.5988 540.008C78.5988 540.008 75.244 552.426 73.4737 566.162C71.7034 579.899 68.0386 632.532 68.0386 632.532" stroke="#71B6C2" stroke-width="0.5544"/>
<path fill-rule="evenodd" clip-rule="evenodd" d="M58.7202 627.357C58.7202 627.153 58.8857 626.987 59.0898 626.987H81.1991C81.4275 626.987 81.6012 627.192 81.5637 627.418L80.5781 633.331C80.5484 633.509 80.3942 633.64 80.2135 633.64H59.0898C58.8857 633.64 58.7202 633.475 58.7202 633.271V627.357Z" fill="#AFBBCA"/>
<path fill-rule="evenodd" clip-rule="evenodd" d="M147.573 365.306L163.69 374.197C163.69 374.197 194.548 330.664 197.323 326.555C198.933 324.171 202.729 320.326 206.368 318.177C208.235 317.075 210.691 316.84 211.798 316.682C212.905 316.524 214.798 318.177 212.905 319.412C212.454 319.706 210.205 319.631 208.235 321.131C206.59 322.383 205.349 324.516 204.504 325.867C201.142 331.244 200.808 336.579 199.705 338.822C198.441 341.391 182.923 370.46 174.87 385.531C172.211 390.508 166.064 392.417 161.041 389.846L139.581 378.861L147.573 365.306Z" fill="#FFC4A7"/>
<path fill-rule="evenodd" clip-rule="evenodd" d="M201.679 326.453C201.679 326.453 205.693 326.631 206.49 326.965C207.286 327.3 209.308 330.622 209.308 331.365C209.308 332.107 207.996 336.671 206.49 336.671C205.362 336.671 206.553 333.824 206.49 332.067C206.468 331.478 205.176 330.836 204.97 330.642C204.149 329.867 200.632 331.365 200.632 331.365L201.679 326.453Z" fill="#FFC4A7"/>
<path fill-rule="evenodd" clip-rule="evenodd" d="M199.152 339.097C199.152 339.097 206.553 339.077 207.567 337.804C208.582 336.531 213.123 329.596 211.213 328.832C209.302 328.068 207.436 332.576 206.021 332.991C204.605 333.406 200.331 332.395 200.331 332.395L199.152 339.097Z" fill="#FFC4A7"/>
<path fill-rule="evenodd" clip-rule="evenodd" d="M127.503 352.689C122.872 350.209 117.109 351.907 114.562 356.502L113.527 358.37C110.845 363.208 112.792 369.306 117.781 371.696L163.531 393.604C166.805 395.171 170.734 394.13 172.8 391.145L180.784 379.617L166.541 367.29L161.284 370.778L127.503 352.689Z" fill="#13A199"/>
<path fill-rule="evenodd" clip-rule="evenodd" d="M130.124 377.501L129.299 370.605L143.926 384.111L130.124 377.501Z" fill="#080708" fill-opacity="0.340226"/>
<path fill-rule="evenodd" clip-rule="evenodd" d="M67.8066 359.15C67.8066 355.001 70.9302 351.517 75.0544 351.066L101.625 348.163L121.61 350.958C125.376 351.484 128.274 354.551 128.587 358.341L135.443 441.302L131.78 442.63L131.419 444.998H72.6658L72.146 442.916L67.8066 441.302V359.15Z" fill="#13A199"/>
<path fill-rule="evenodd" clip-rule="evenodd" d="M101.625 348.163L112.647 349.704C112.652 349.81 112.656 349.917 112.658 350.025C112.721 353.63 110.267 357.792 105.298 362.511L104.431 362.023C96.919 357.726 93.1325 353.841 93.0718 350.367C93.0643 349.935 93.0848 349.509 93.1318 349.091L101.625 348.163Z" fill="#0B5E59"/>
<path fill-rule="evenodd" clip-rule="evenodd" d="M82.2038 371.147L67.96 417.879V390.174L82.2038 371.147Z" fill="#080708" fill-opacity="0.340226"/>
<path fill-rule="evenodd" clip-rule="evenodd" d="M68.3397 389.364L59.4488 405.481C59.4488 405.481 104.522 405.85 107.091 405.85C109.659 405.85 117.73 419.725 118.073 420.325C118.416 420.926 117.95 422.801 115.757 421.024C113.564 419.246 113.012 418.247 111.198 418.247C109.384 418.247 106.771 421.636 103.862 420.829C100.953 420.023 97.6576 416.855 97.0936 416.855C96.7317 416.855 71.3047 418.833 53.1223 420.251C45.1359 420.874 39.5116 412.576 43.0332 405.381L54.7844 381.372L68.3397 389.364Z" fill="#FFC4A7"/>
<path fill-rule="evenodd" clip-rule="evenodd" d="M66.4591 356.816C68.9689 351.817 75.2016 350.01 79.9965 352.891L81.721 353.927C86.2088 356.623 87.7121 362.416 85.1019 366.955L64.1299 403.419L70.3712 405.034L61.5795 423.006L51.2916 420.63C43.5927 418.853 39.5903 410.336 43.1355 403.274L66.4591 356.816Z" fill="#13A199"/>
<path fill-rule="evenodd" clip-rule="evenodd" d="M106.949 406.605C106.949 406.605 115.865 406.352 116.442 407.634C117.018 408.917 109.096 410.175 109.096 410.175L106.949 406.605Z" fill="#FFC4A7"/>
<path fill-rule="evenodd" clip-rule="evenodd" d="M95.9945 348.539C95.9945 352.33 99.0673 355.401 102.858 355.401C106.958 355.401 110.143 351.829 109.677 347.756L109.074 342.502C109.074 342.502 117.733 343.188 120.665 339.001C122.302 336.665 122.899 325.733 123.107 316.527C123.276 309.045 117.175 303.028 109.691 303.028H106.913C99.36 303.028 93.2374 309.153 93.2374 316.705C93.2374 318.784 93.2374 320.337 93.2374 320.61C87.4168 322.325 88.5822 330.315 95.9945 330.315C95.9945 336.274 95.9945 343.406 95.9945 348.539Z" fill="#FFC4A7"/>
<path fill-rule="evenodd" clip-rule="evenodd" d="M95.6257 320.413C95.8168 320.394 95.9904 320.525 96.0252 320.714L96.9996 325.99C97.0812 326.432 97.467 326.753 97.9167 326.753C98.3375 326.753 98.706 326.472 98.8182 326.067C99.1553 324.848 99.8593 322.34 100.219 321.328C100.456 320.66 101.447 318.956 102.395 317.395C103.562 315.473 105.698 314.374 107.945 314.451C110.31 314.531 113.468 314.616 116.288 314.616C120.536 314.616 122.414 314.503 123.014 314.456C123.154 314.445 123.271 314.355 123.313 314.22C123.706 312.968 125.44 306.58 120.987 303.587C118.05 301.613 110.461 301.366 102.853 301.713C93.4142 302.144 88.3559 312.468 93.0571 320.665L95.6257 320.413Z" fill="#546A8B"/>
<path fill-rule="evenodd" clip-rule="evenodd" d="M113.421 332.316C113.421 331.935 113.667 331.599 114.036 331.503C114.87 331.284 116.429 330.938 117.924 330.938C119.411 330.938 120.897 331.28 121.695 331.499C122.054 331.597 122.291 331.927 122.291 332.3C122.291 332.899 121.696 333.332 121.113 333.193C120.29 332.996 119.127 332.786 117.924 332.786C116.687 332.786 115.45 333.009 114.586 333.21C114.006 333.345 113.421 332.912 113.421 332.316Z" fill="#546A8B"/>
<path fill-rule="evenodd" clip-rule="evenodd" d="M112.312 332.865C112.312 332.378 112.629 331.948 113.094 331.805L114.182 331.47L114.899 331.618V339.069H112.312V332.865Z" fill="#546A8B"/>
<path d="M112.312 337.59H122.661V339.069C122.661 341.314 120.841 343.134 118.595 343.134H116.378C114.132 343.134 112.312 341.314 112.312 339.069V337.59Z" fill="#546A8B"/>
<path fill-rule="evenodd" clip-rule="evenodd" d="M121.183 331.584H121.552C122.165 331.584 122.661 332.08 122.661 332.693V339.069H121.183V331.584Z" fill="#546A8B"/>
<path fill-rule="evenodd" clip-rule="evenodd" d="M109.177 342.518C109.177 342.518 106.607 342.172 104.628 341.548C102.65 340.924 100.146 339.665 100.146 339.665C100.146 339.665 103.543 342.964 105.328 344.382C107.114 345.801 109.605 347.177 109.605 347.177L109.177 342.518Z" fill="#F19B93"/>
<path fill-rule="evenodd" clip-rule="evenodd" d="M118.635 321.411L122.351 328.699C122.458 328.908 122.345 329.162 122.118 329.223L118.635 330.16V321.411Z" fill="#F19B93"/>
<path fill-rule="evenodd" clip-rule="evenodd" d="M54.3599 453.58C54.3599 452.234 55.1638 451.017 56.4026 450.489L87.2102 437.36H179.68C181.536 437.36 183.04 438.864 183.04 440.72V659.8H54.3599V453.58Z" fill="#C8DAFF"/>
<path fill-rule="evenodd" clip-rule="evenodd" d="M86.4399 437.36H183.04V447.44H86.4399V437.36Z" fill="#A7C3FF"/>
<path fill-rule="evenodd" clip-rule="evenodd" d="M40.5601 450.077C40.5601 448.492 41.6672 447.123 43.2168 446.791L87.2801 437.36V659.8H40.5601V450.077Z" fill="#A7C3FF"/>
<rect x="84" y="648" width="99" height="8" fill="#A7C3FF"/>
<path fill-rule="evenodd" clip-rule="evenodd" d="M33 444.68C33 444.283 33.277 443.941 33.6646 443.858L79.8235 434H141.04C141.504 434 141.88 434.376 141.88 434.84V443.289C141.88 443.734 141.534 444.101 141.091 444.128L87.0148 447.4L33.9431 453.963C33.4421 454.025 33 453.635 33 453.13V444.68Z" fill="#A7C3FF"/>
<path fill-rule="evenodd" clip-rule="evenodd" d="M79.7202 434.84C79.7202 434.376 80.0963 434 80.5602 434H189.76C190.224 434 190.6 434.376 190.6 434.84V443.24C190.6 443.704 190.224 444.08 189.76 444.08H80.5602C80.0963 444.08 79.7202 443.704 79.7202 443.24V434.84Z" fill="#C8DAFF"/>
<rect x="20" y="649" width="142" height="22" rx="2" fill="#A7C3FF"/>
<rect y="669" width="142" height="22" rx="2" fill="#A7C3FF"/>
<rect x="64" y="649" width="142" height="22" rx="2" fill="#C8DAFF"/>
<path fill-rule="evenodd" clip-rule="evenodd" d="M63 668H206V676H63V668Z" fill="#A7C3FF"/>
<path fill-rule="evenodd" clip-rule="evenodd" d="M49 671C49 669.895 49.8954 669 51 669H219C220.105 669 221 669.895 221 671V689C221 690.105 220.105 691 219 691H51C49.8954 691 49 690.105 49 689V671Z" fill="#C8DAFF"/>
<path d="M182.774 431.55C182.774 431.138 182.44 430.804 182.028 430.804H83.7975C83.3852 430.804 83.051 431.138 83.051 431.55V432.826C83.051 433.238 83.3852 433.573 83.7975 433.573H182.028C182.44 433.573 182.774 433.238 182.774 432.826V431.55Z" fill="#FFBF29"/>
<path d="M117.083 431.55C117.083 431.138 116.749 430.804 116.337 430.804H83.7977C83.3854 430.804 83.0512 431.138 83.0512 431.55V432.826C83.0512 433.238 83.3854 433.573 83.7977 433.573H116.337C116.749 433.573 117.083 433.238 117.083 432.826V431.55Z" fill="#F5AC00"/>
<path d="M187.48 393.058C187.756 390.905 186.079 389 183.909 389H123.446C121.635 389 120.105 390.346 119.875 392.142L115.423 426.865C115.147 429.018 116.824 430.923 118.994 430.923H179.457C181.269 430.923 182.798 429.578 183.028 427.781L187.48 393.058Z" fill="#F5AC00"/>
<path d="M187.48 393.058C187.756 390.905 186.079 389 183.909 389H125.596C123.784 389 122.255 390.346 122.025 392.142L117.573 426.865C117.297 429.018 118.974 430.923 121.144 430.923H179.457C181.269 430.923 182.798 429.578 183.028 427.781L187.48 393.058Z" fill="#FFBF29"/>
<path fill-rule="evenodd" clip-rule="evenodd" d="M150.823 415.355C148.936 413.933 148.664 411.113 150.215 409.055C151.766 406.997 154.552 406.481 156.438 407.903C158.325 409.324 158.597 412.145 157.046 414.203C155.495 416.261 152.709 416.776 150.823 415.355Z" fill="white"/>
<path fill-rule="evenodd" clip-rule="evenodd" d="M631.16 567.2H618.04V702.44H631.16V567.2Z" fill="#A7C3FF"/>
<path fill-rule="evenodd" clip-rule="evenodd" d="M632.68 567.2H625.6V702.44H632.68L632.68 567.2Z" fill="#C8DAFF"/>
<path fill-rule="evenodd" clip-rule="evenodd" d="M698.36 567.2H685.24V702.44H698.36V567.2Z" fill="#A7C3FF"/>
<path fill-rule="evenodd" clip-rule="evenodd" d="M699.88 567.2H692.8V702.44H699.88V567.2Z" fill="#C8DAFF"/>
<path fill-rule="evenodd" clip-rule="evenodd" d="M773.36 567.2H760.24V702.44H773.36V567.2Z" fill="#A7C3FF"/>
<path fill-rule="evenodd" clip-rule="evenodd" d="M774.84 567.2H767.76V702.44H774.84V567.2Z" fill="#C8DAFF"/>
<path fill-rule="evenodd" clip-rule="evenodd" d="M784 564.68C784 563.752 783.248 563 782.32 563H604.6C603.672 563 602.92 563.752 602.92 564.68V573.92C602.92 574.848 603.672 575.6 604.6 575.6H782.32C783.248 575.6 784 574.848 784 573.92V564.68Z" fill="#A7C3FF"/>
<path fill-rule="evenodd" clip-rule="evenodd" d="M785 564.68C785 563.752 784.248 563 783.32 563H688.6C687.672 563 686.92 563.752 686.92 564.68V573.92C686.92 574.848 687.672 575.6 688.6 575.6H783.32C784.248 575.6 785 574.848 785 573.92V564.68Z" fill="#C8DAFF"/>
<path d="M689 555C689 553.895 689.895 553 691 553H745C746.105 553 747 553.895 747 555V561C747 562.105 746.105 563 745 563H691C689.895 563 689 562.105 689 561V555Z" fill="#F5AC00"/>
<path d="M689 555C689 553.895 689.895 553 691 553L720 553C721.105 553 722 553.895 722 555V561C722 562.105 721.105 563 720 563H691C689.895 563 689 562.105 689 561V555Z" fill="#FFBF29"/>
<path d="M691 555.8C691 554.806 691.806 554 692.8 554L746 554C746.552 554 747 554.448 747 555V561C747 561.552 746.552 562 746 562H692.8C691.806 562 691 561.194 691 560.2V555.8Z" fill="#EAEFFF"/>
<path fill-rule="evenodd" clip-rule="evenodd" d="M722 555.8C722 554.806 722.806 554 723.8 554H746C746.552 554 747 554.448 747 555V561C747 561.552 746.552 562 746 562H723.8C722.806 562 722 561.194 722 560.2V555.8Z" fill="#C1D7FF"/>
<path fill-rule="evenodd" clip-rule="evenodd" d="M783.438 698.166C780.101 698.954 770.205 698.067 762.787 698.586C759.448 698.82 752.811 698.069 751.672 697.554C750.029 696.812 752.579 694.703 754.251 694.028C756.971 692.932 761.269 691.181 764.28 689.87C769.003 687.814 773.284 686.542 773.809 683.326C774.334 680.111 768.172 664.545 768.172 664.545L781.514 670.04C781.514 670.04 784.369 681.262 785.787 686.914C787.205 692.565 786.513 694.535 786.513 694.535C786.513 694.535 786.776 697.378 783.438 698.166Z" fill="#FFC4A7"/>
<path fill-rule="evenodd" clip-rule="evenodd" d="M771.883 683.384C771.883 683.384 773.245 684.89 773.274 686.521C773.302 688.152 774.208 689.179 774.713 689.171C775.217 689.162 775.166 688.2 776.878 688.833C778.591 689.466 778.623 690.41 782.295 690.346C785.967 690.282 786.762 687.039 786.762 687.039C786.762 687.039 787.655 689.339 787.692 691.47C787.729 693.6 787.018 697.137 787.018 697.137L768.675 698.009L749.45 697.793C749.45 697.793 749.144 696.003 749.798 695.343C750.451 694.682 760.348 690.729 764.381 688.918C768.414 687.107 771.883 683.384 771.883 683.384Z" fill="#94A4B1"/>
<path fill-rule="evenodd" clip-rule="evenodd" d="M787.26 696.443C787.26 696.443 787.93 697.926 787.681 699.238C787.431 700.55 786.801 700.939 785.509 700.962C785.127 700.969 783.433 700.948 779.235 700.979C776.275 701.001 772.244 700.263 771.022 700.284C769.801 700.306 764.918 701.148 762.131 701.154C756.504 701.166 750.462 701.12 750.123 700.995C749.103 700.617 748.94 697.365 749.82 697.35C749.982 697.347 754.285 697.244 762.956 697.037C764.922 696.99 769.756 696.108 772.052 696.053C774.347 695.997 777.627 696.709 779.513 696.662C784.356 696.543 787.26 696.443 787.26 696.443Z" fill="#737F88"/>
<path fill-rule="evenodd" clip-rule="evenodd" d="M806.265 614.992C785.8 614.992 767.337 611.688 767.337 611.688C767.337 611.688 770.615 625.121 773.558 636.438C776.502 647.755 786.445 684.633 786.445 684.633H773.338L740.091 612.489C734.629 600.636 742.606 586.959 755.612 585.877L798.465 582.314V577.273H826.113C826.113 577.273 830.361 614.992 806.265 614.992Z" fill="#930244"/>
<path fill-rule="evenodd" clip-rule="evenodd" d="M698.885 699.34C695.547 700.122 685.652 699.253 678.235 699.771C674.896 700.005 668.26 698.876 667.121 698.368C665.496 697.643 668.044 695.589 669.72 694.991C672.442 694.019 676.729 692.448 679.735 691.152C684.459 689.116 689.121 687.214 689.649 684.034C690.177 680.854 695.792 666.108 695.792 666.108L706.981 672.223C706.981 672.223 702.972 680.8 701.963 684.633C700.953 688.466 701.963 695.747 701.963 695.747C701.963 695.747 702.223 698.558 698.885 699.34Z" fill="#FFC4A7"/>
<path fill-rule="evenodd" clip-rule="evenodd" d="M686.965 684.948C686.965 684.948 688.327 686.454 688.356 688.085C688.384 689.716 689.29 690.743 689.795 690.735C690.299 690.726 690.248 689.764 691.961 690.397C693.673 691.03 693.705 691.974 697.377 691.91C701.049 691.846 701.844 688.603 701.844 688.603C701.844 688.603 702.737 690.903 702.774 693.034C702.812 695.164 702.1 698.701 702.1 698.701L683.757 699.573L664.532 699.357C664.532 699.357 664.226 697.567 664.88 696.906C665.533 696.246 675.43 692.293 679.463 690.482C683.496 688.671 686.965 684.948 686.965 684.948Z" fill="#ACBDCB"/>
<path fill-rule="evenodd" clip-rule="evenodd" d="M702.341 698.007C702.341 698.007 703.012 699.489 702.763 700.801C702.513 702.113 701.883 702.503 700.591 702.526C699.299 702.548 666.225 702.935 665.205 702.558C664.185 702.181 664.021 698.929 664.902 698.913C665.326 698.906 672.08 699.267 685.708 698.942C690.964 698.816 702.341 698.007 702.341 698.007Z" fill="#84919A"/>
<path fill-rule="evenodd" clip-rule="evenodd" d="M791.426 615.441C770.964 615.13 727.032 610.178 727.032 610.178C727.032 610.178 726.314 627.38 722.283 637.534C718.252 647.688 702.261 686.648 702.261 686.648H688.371L705.502 604.95C707.315 596.303 714.4 589.751 723.161 588.618L771.481 582.371V577.33L812.807 577.33C812.807 577.33 817.213 615.833 791.426 615.441Z" fill="#BE065A"/>
<path fill-rule="evenodd" clip-rule="evenodd" d="M775.482 582.003L782.87 592.463L785.801 581.684L775.482 582.003Z" fill="#930244"/>
<path d="M785.946 577.33L785.261 585.644C784.536 594.456 777.26 601.29 768.419 601.464L719.956 602.414C716.998 602.472 714.434 604.473 713.659 607.328L692.113 686.701" stroke="#FFCBE3" stroke-width="0.587664"/>
<path fill-rule="evenodd" clip-rule="evenodd" d="M782.945 466.905V473.762C782.945 473.762 779.825 473.108 779.825 472.09C779.825 471.071 782.945 466.905 782.945 466.905Z" fill="#F19B93"/>
<path fill-rule="evenodd" clip-rule="evenodd" d="M806.883 492.764H791.936L793.347 485.748C793.347 485.748 787.202 486.402 784.405 482.408C781.607 478.414 781.993 457.61 781.993 457.61H806.883V492.764Z" fill="#FFC4A7"/>
<path fill-rule="evenodd" clip-rule="evenodd" d="M793.347 485.748L796.463 485.296L791.936 492.764L793.347 485.748Z" fill="#F19B93"/>
<path fill-rule="evenodd" clip-rule="evenodd" d="M779.576 456.043C780.653 461.977 789.296 460.545 788.085 466.552C787.474 469.579 786.08 473.62 786.08 477.923C786.08 480.631 788.049 487.463 788.049 487.463C788.049 487.463 800.037 486.288 805.845 486.288C811.652 486.288 818.773 487.463 818.773 487.463C818.773 487.463 822.54 479.103 821.779 475.572C820.603 470.124 816.196 467.938 817.989 461.572C822.283 446.333 798.422 437.387 790.046 446.656C785.526 444.429 778.499 450.109 779.576 456.043Z" fill="#842404"/>
<path fill-rule="evenodd" clip-rule="evenodd" d="M829.201 503.341L848.78 540.147C849.567 541.627 849.802 543.339 849.441 544.977L839.8 588.707C839.8 588.707 840.858 603.448 835.454 605.342C834.402 605.71 832.063 614.252 829.948 611.689C829.363 610.98 829.174 599.077 829.174 599.077L831.995 583.592L833.339 545.403L817.164 513.171L829.201 503.341Z" fill="#FFC4A7"/>
<path fill-rule="evenodd" clip-rule="evenodd" d="M828.31 498.303C825.76 493.838 820.036 492.344 815.628 494.992L813.992 495.975C809.535 498.653 808.195 504.498 811.04 508.85L821.91 525.478L837.064 513.628L828.31 498.303Z" fill="#FF7E74"/>
<path fill-rule="evenodd" clip-rule="evenodd" d="M827.162 503.341L825.281 522.775L821.911 525.478L822.308 517.5L827.162 503.341Z" fill="#CC635C"/>
<path fill-rule="evenodd" clip-rule="evenodd" d="M827.422 503.927C828.666 499.048 825.483 494.153 820.5 493.431C814.312 492.534 806.337 491.518 800.936 491.344C793.19 491.093 783.557 492.342 779.618 492.916C778.482 493.081 777.521 493.798 777.036 494.837C774.574 500.112 767.083 516.673 766.656 523.806C766.264 530.347 772.233 537.643 772.233 544.348C772.233 551.053 767.831 582.627 767.831 582.627L828.635 585.706C829.173 585.733 829.577 585.223 829.428 584.706L817.434 543.091L827.422 503.927Z" fill="#FF7E74"/>
<path fill-rule="evenodd" clip-rule="evenodd" d="M781.946 511.623L767.34 519.728L770.481 509.473L781.946 511.623Z" fill="#CC635C"/>
<path fill-rule="evenodd" clip-rule="evenodd" d="M737.029 441.907C737.029 441.907 739.994 437.872 739.894 436.502C739.794 435.132 736.262 434.693 736.262 434.693L737.029 441.907Z" fill="#FFC4A7"/>
<path fill-rule="evenodd" clip-rule="evenodd" d="M761.825 494.537L744.269 494.195C744.269 494.195 738.644 434.611 736.257 432.324C733.183 429.38 728.632 423.516 727.546 424.837C726.778 425.771 729.626 429.109 730.578 431.542C730.729 431.929 727.546 431.687 727.546 432.771C727.546 442.009 731.427 446.124 731.387 446.732C731.205 449.467 730.153 481.689 729.619 498.23C729.446 503.608 733.613 508.115 738.987 508.387L761.962 509.548L761.825 494.537Z" fill="#FFC4A7"/>
<path fill-rule="evenodd" clip-rule="evenodd" d="M778.001 492.715C783.064 492.715 787.168 496.82 787.168 501.883L787.168 503.612C787.168 508.675 783.064 512.779 778.001 512.779H761.034V492.715L778.001 492.715Z" fill="#FF7E74"/>
<path fill-rule="evenodd" clip-rule="evenodd" d="M783.924 616.16L771.8 701.84L778.156 701.756L790.28 617.056L783.924 616.16Z" fill="#A7C3FF"/>
<path fill-rule="evenodd" clip-rule="evenodd" d="M789.077 616.16L801.2 701.84L794.844 701.756L782.72 617.056L789.077 616.16Z" fill="#C8DAFF"/>
<path fill-rule="evenodd" clip-rule="evenodd" d="M748.644 616.16L736.52 701.84L742.876 701.756L755 617.056L748.644 616.16Z" fill="#A7C3FF"/>
<path fill-rule="evenodd" clip-rule="evenodd" d="M826.036 616.16L838.16 701.84L831.804 701.756L819.68 617.056L826.036 616.16Z" fill="#C8DAFF"/>
<path fill-rule="evenodd" clip-rule="evenodd" d="M743.996 621.2C738.475 621.2 734 616.725 734 611.204C734 605.683 738.475 601.208 743.996 601.208H784.617C790.339 601.208 795.12 596.855 795.657 591.159L802.164 522.049C802.701 516.353 807.482 512 813.203 512H839.626C846.085 512 851.177 517.499 850.682 523.938L843.988 610.962C843.543 616.739 838.726 621.2 832.932 621.2H743.996Z" fill="#A7C3FF"/>
<path fill-rule="evenodd" clip-rule="evenodd" d="M807.657 513.4L800.91 600.885C800.464 606.66 795.647 611.12 789.854 611.12H734.156L734.002 611.118L734 610.924C734 605.418 738.464 600.954 743.97 600.954H784.472C790.192 600.954 794.973 596.603 795.511 590.909L802.014 522.045C802.368 518.294 804.564 515.125 807.657 513.4Z" fill="#C8DAFF"/>
<path fill-rule="evenodd" clip-rule="evenodd" d="M351.16 567.2H338.04V702.44H351.16V567.2Z" fill="#A7C3FF"/>
<path fill-rule="evenodd" clip-rule="evenodd" d="M352.68 567.2H345.6V702.44H352.68L352.68 567.2Z" fill="#C8DAFF"/>
<path fill-rule="evenodd" clip-rule="evenodd" d="M418.36 567.2H405.24V702.44H418.36V567.2Z" fill="#A7C3FF"/>
<path fill-rule="evenodd" clip-rule="evenodd" d="M419.88 567.2H412.8V702.44H419.88V567.2Z" fill="#C8DAFF"/>
<path fill-rule="evenodd" clip-rule="evenodd" d="M493.36 567.2H480.24V702.44H493.36V567.2Z" fill="#A7C3FF"/>
<path fill-rule="evenodd" clip-rule="evenodd" d="M494.84 567.2H487.76V702.44H494.84V567.2Z" fill="#C8DAFF"/>
<path fill-rule="evenodd" clip-rule="evenodd" d="M504 564.68C504 563.752 503.248 563 502.32 563H324.6C323.672 563 322.92 563.752 322.92 564.68V573.92C322.92 574.848 323.672 575.6 324.6 575.6H502.32C503.248 575.6 504 574.848 504 573.92V564.68Z" fill="#A7C3FF"/>
<path fill-rule="evenodd" clip-rule="evenodd" d="M505 564.68C505 563.752 504.248 563 503.32 563H408.6C407.672 563 406.92 563.752 406.92 564.68V573.92C406.92 574.848 407.672 575.6 408.6 575.6H503.32C504.248 575.6 505 574.848 505 573.92V564.68Z" fill="#C8DAFF"/>
<path d="M361.025 560.55C361.025 560.138 361.36 559.804 361.772 559.804H451.002C451.415 559.804 451.749 560.138 451.749 560.55V561.798C451.749 562.21 451.415 562.545 451.002 562.545H361.772C361.36 562.545 361.025 562.21 361.025 561.798V560.55Z" fill="#467FFF"/>
<path d="M361.017 560.55C361.017 560.138 361.351 559.804 361.764 559.804H396.102C396.515 559.804 396.849 560.138 396.849 560.55V561.798C396.849 562.21 396.515 562.545 396.102 562.545H361.764C361.351 562.545 361.017 562.21 361.017 561.798V560.55Z" fill="#1075F0"/>
<path d="M354.52 522.058C354.244 519.905 355.921 518 358.091 518H417.654C419.465 518 420.995 519.346 421.225 521.142L425.677 555.865C425.953 558.018 424.276 559.923 422.106 559.923H362.543C360.731 559.923 359.202 558.578 358.972 556.781L354.52 522.058Z" fill="#1075F0"/>
<path d="M356.32 522.058C356.044 519.905 357.721 518 359.891 518H418.204C420.015 518 421.545 519.346 421.775 521.142L426.227 555.865C426.503 558.018 424.826 559.923 422.656 559.923H364.343C362.531 559.923 361.002 558.578 360.772 556.781L356.32 522.058Z" fill="#467FFF"/>
<path d="M358.388 523.634C358.14 521.698 359.649 519.983 361.602 519.983H416.828C418.458 519.983 419.835 521.194 420.042 522.811L424.053 554.131C424.301 556.068 422.792 557.783 420.839 557.783H365.613C363.983 557.783 362.606 556.572 362.399 554.954L358.388 523.634Z" fill="#EAEFFF"/>
<path fill-rule="evenodd" clip-rule="evenodd" d="M530.627 671.577H517.322L522.866 690.057H535.062L530.627 671.577Z" fill="#616988"/>
<path fill-rule="evenodd" clip-rule="evenodd" d="M533.954 681.541L537.65 701.129H496.624V698.268C496.624 698.268 499.668 693.681 506.171 693.681C512.674 693.681 515.383 692.132 517.661 689.643C519.939 687.154 520.172 681.541 520.172 681.541H533.954Z" fill="#4F2511"/>
<rect width="41.0256" height="3.3264" transform="matrix(-1 0 0 1 537.65 699.297)" fill="#34180A"/>
<path fill-rule="evenodd" clip-rule="evenodd" d="M571.482 573.16C571.482 573.16 574.638 608.793 547.178 608.793C527.871 608.793 511.932 608.793 511.932 608.793C511.932 608.793 516.115 613.543 520.388 624.22C524.662 634.898 536.241 679.667 536.241 679.667H518.333L480.432 602.201C474.932 590.959 482.488 577.709 494.965 576.719L539.82 573.16V568.405H571.482V573.16Z" fill="#203584"/>
<path fill-rule="evenodd" clip-rule="evenodd" d="M445.421 672H432.115L426.941 690.48H439.138L445.421 672Z" fill="#7680A4"/>
<path fill-rule="evenodd" clip-rule="evenodd" d="M442.464 681.964L440.616 701.553H399.59V698.691C399.59 698.691 401.895 694.105 408.398 694.105C414.901 694.105 421.306 692.555 423.584 690.066C425.862 687.577 428.682 681.964 428.682 681.964H442.464Z" fill="#823E1D"/>
<rect width="41.0256" height="3.3264" transform="matrix(-1 0 0 1 440.616 699.72)" fill="#4F2511"/>
<path fill-rule="evenodd" clip-rule="evenodd" d="M554.282 573.214C554.282 573.214 554.282 609.956 527.021 609.956C507.715 609.956 468.86 609.956 468.86 609.956C468.86 609.956 469.291 620.85 465.489 630.429C461.686 640.008 445.491 680.09 445.491 680.09H426.473L445.969 598.193C447.71 590.877 453.486 585.204 460.832 583.594L508.205 573.214V568.458L554.282 573.214Z" fill="#2E47A6"/>
<path fill-rule="evenodd" clip-rule="evenodd" d="M521.632 571.346L529.998 586.417L531.367 571.046L521.632 571.346Z" fill="#203584"/>
<path d="M531.894 568.458L531.06 580.233C530.479 588.428 523.877 594.902 515.673 595.324L462.61 598.053C459.948 598.19 457.662 599.991 456.907 602.547L433.992 680.09" stroke="#98ABF4" stroke-width="0.5544"/>
<path fill-rule="evenodd" clip-rule="evenodd" d="M578.307 496.032L602.882 527.551C604.761 529.961 604.963 533.279 603.391 535.899L581.263 572.778C581.263 572.778 582.372 588.276 576.708 590.267C575.605 590.654 573.705 599.513 571.487 596.818C570.875 596.073 570.585 579.514 570.585 579.514L573.082 567.4L583.985 531.55L565.69 506.366L578.307 496.032Z" fill="#FFC4A7"/>
<path fill-rule="evenodd" clip-rule="evenodd" d="M568.393 480.336C564.91 476.317 558.825 475.892 554.816 479.387L552.845 481.105C548.853 484.586 548.43 490.64 551.898 494.642L573.508 519.575L589.966 505.227L568.393 480.336Z" fill="#FF4F4F"/>
<path fill-rule="evenodd" clip-rule="evenodd" d="M568.582 498.608L574.588 518.604L573.508 519.575L569.57 515.038L568.582 498.608Z" fill="#080708" fill-opacity="0.221263"/>
<path fill-rule="evenodd" clip-rule="evenodd" d="M567.187 484.601C566.863 480.362 563.33 477.088 559.079 477.088H514.5C510.009 477.088 506.369 480.729 506.369 485.22V573.924H574.005L567.187 484.601Z" fill="#FF4F4F"/>
<path fill-rule="evenodd" clip-rule="evenodd" d="M520.622 501.877L506.44 548.269V521.544L520.622 501.877Z" fill="#080708" fill-opacity="0.221263"/>
<path fill-rule="evenodd" clip-rule="evenodd" d="M499.849 503.46L491.46 519.843L460.679 490.259C460.564 490.148 460.487 490.003 460.462 489.845L458.644 478.694C458.644 478.694 451.885 466.964 450.688 471.246C450.241 472.846 454.62 474.764 453.894 479.993C453.759 480.968 445.547 474.947 442.101 472.372C441.563 471.971 440.809 472.436 440.923 473.098L443.196 486.278C443.226 486.45 443.316 486.607 443.45 486.719L454.638 496.068L483.18 535.034C487.615 541.088 496.818 540.557 500.526 534.032L514.055 510.228L499.849 503.46Z" fill="#FFC4A7"/>
<path d="M505.762 482.58C508.089 477.81 513.842 475.829 518.612 478.156L520.937 479.29C525.707 481.617 527.688 487.37 525.362 492.14L510.942 521.705L491.342 512.146L505.762 482.58Z" fill="#FF4F4F"/>
<path fill-rule="evenodd" clip-rule="evenodd" d="M522.431 447.628L518.715 454.916C518.608 455.126 518.721 455.38 518.948 455.441L522.431 456.378V447.628Z" fill="#F19B93"/>
<path fill-rule="evenodd" clip-rule="evenodd" d="M547.274 477.322H531.607L533.086 469.967C533.086 469.967 526.645 470.653 523.713 466.466C520.78 462.279 521.185 440.472 521.185 440.472H547.274V477.322Z" fill="#FFC4A7"/>
<path fill-rule="evenodd" clip-rule="evenodd" d="M549.224 463.19C548.725 464.151 547.73 464.74 546.647 464.74H540.577C539.516 464.74 538.535 464.172 538.107 463.201C537.199 461.14 535.889 457.354 536.683 454.021C537.844 449.146 531.805 447.795 531.805 447.795L531.134 453.785C531.095 454.13 530.803 454.391 530.456 454.391C530.14 454.391 529.865 454.174 529.792 453.867L527.857 445.74C527.455 444.054 526.277 442.659 524.683 441.981L521.136 440.472C521.136 440.472 518.051 439.131 516.244 436.062C514.438 432.994 514.339 428.727 514.339 428.727C514.339 428.727 538.468 423.793 544.279 425.748C550.091 427.702 551.362 433.995 551.362 433.995C551.362 433.995 556.843 436.906 556.843 443.059C556.843 448.027 551.343 459.106 549.224 463.19Z" fill="#8A5835"/>
<path fill-rule="evenodd" clip-rule="evenodd" d="M533.086 469.967L536.352 469.493L531.607 477.322L533.086 469.967Z" fill="#F19B93"/>
<path fill-rule="evenodd" clip-rule="evenodd" d="M518.924 616.16L506.8 701.84L513.156 701.756L525.28 617.056L518.924 616.16Z" fill="#A7C3FF"/>
<path fill-rule="evenodd" clip-rule="evenodd" d="M524.077 616.16L536.2 701.84L529.844 701.756L517.72 617.056L524.077 616.16Z" fill="#C8DAFF"/>
<path fill-rule="evenodd" clip-rule="evenodd" d="M483.644 616.16L471.52 701.84L477.876 701.756L490 617.056L483.644 616.16Z" fill="#A7C3FF"/>
<path fill-rule="evenodd" clip-rule="evenodd" d="M561.036 616.16L573.16 701.84L566.804 701.756L554.68 617.056L561.036 616.16Z" fill="#C8DAFF"/>
<path fill-rule="evenodd" clip-rule="evenodd" d="M478.996 621.2C473.475 621.2 469 616.725 469 611.204C469 605.683 473.475 601.208 478.996 601.208H519.617C525.339 601.208 530.12 596.855 530.657 591.159L537.164 522.049C537.701 516.353 542.482 512 548.203 512H574.626C581.085 512 586.177 517.499 585.682 523.938L578.988 610.962C578.543 616.739 573.726 621.2 567.932 621.2H478.996Z" fill="#A7C3FF"/>
<path fill-rule="evenodd" clip-rule="evenodd" d="M542.657 513.4L535.91 600.885C535.464 606.66 530.647 611.12 524.854 611.12H469.156L469.002 611.118L469 610.924C469 605.418 473.464 600.954 478.97 600.954H519.472C525.192 600.954 529.973 596.603 530.511 590.909L537.014 522.045C537.368 518.294 539.564 515.125 542.657 513.4Z" fill="#C8DAFF"/>
<path fill-rule="evenodd" clip-rule="evenodd" d="M420.873 76.7693L420.873 75.4102C437.141 70.9562 449.097 56.0666 449.097 38.3846C449.097 20.7027 437.141 5.81313 420.873 1.35907L420.873 0H410.713C389.513 0 372.328 17.1854 372.328 38.3846C372.328 59.3719 389.171 76.4252 410.078 76.7641L410.713 76.7693H420.873Z" fill="#A7C3FF"/>
<path fill-rule="evenodd" clip-rule="evenodd" d="M418.615 76.7693C397.416 76.7693 380.231 59.5839 380.231 38.3846C380.231 17.1854 397.416 0 418.615 0C439.815 0 457 17.1854 457 38.3846C457 59.5839 439.815 76.7693 418.615 76.7693Z" fill="#C8DAFF"/>
<path fill-rule="evenodd" clip-rule="evenodd" d="M418.909 72.8177C399.892 72.8177 384.476 57.4014 384.476 38.3845C384.476 19.3675 399.892 3.95117 418.909 3.95117C437.926 3.95117 453.342 19.3675 453.342 38.3845C453.342 57.4014 437.926 72.8177 418.909 72.8177Z" fill="#A7C3FF"/>
<path d="M416.072 4.17379L415.522 4.11572C398.094 5.81733 384.476 20.5105 384.476 38.3845C384.476 56.2585 398.094 70.9517 415.522 72.6533C432.949 70.9523 446.568 56.2589 446.568 38.3845C446.568 20.6987 433.235 6.12715 416.072 4.17379L415.522 4.11572L416.072 4.17379Z" fill="#EAEFFF"/>
<path fill-rule="evenodd" clip-rule="evenodd" d="M416.64 9.98246V40.6446C416.64 41.1122 416.261 41.4913 415.793 41.4913C415.325 41.4913 414.946 41.1122 414.946 40.6446V9.98246C414.946 9.51483 415.325 9.13574 415.793 9.13574C416.261 9.13574 416.64 9.51483 416.64 9.98246Z" fill="#A7C3FF"/>
<path fill-rule="evenodd" clip-rule="evenodd" d="M414.941 39.5194L432.536 26.2087C433.157 25.7385 434.042 25.8612 434.512 26.4827C434.983 27.1043 434.86 27.9893 434.238 28.4596L416.644 41.7702C416.023 42.2404 415.138 42.1177 414.667 41.4962C414.197 40.8746 414.32 39.9896 414.941 39.5194Z" fill="#A7C3FF"/>
</svg>
