<svg width="841" height="491" viewBox="0 0 841 491" fill="none" xmlns="http://www.w3.org/2000/svg">
<path fill-rule="evenodd" clip-rule="evenodd" d="M305 4L773 4V275H305V4Z" fill="#A7C3FF"/>
<path fill-rule="evenodd" clip-rule="evenodd" d="M541.474 415.037L469.994 485.037H455.866L538.526 403.964L541.474 415.037Z" fill="#A7C3FF"/>
<path fill-rule="evenodd" clip-rule="evenodd" d="M540.866 415.037L612.346 485.037H626.474L543.813 403.964L540.866 415.037Z" fill="#A7C3FF"/>
<path fill-rule="evenodd" clip-rule="evenodd" d="M535 272H547V486H535V272Z" fill="#A7C3FF"/>
<path d="M298 4L766 4V275H298V4Z" fill="#EAEFFF"/>
<path fill-rule="evenodd" clip-rule="evenodd" d="M523 406H560V422H523V406Z" fill="#A7C3FF"/>
<path fill-rule="evenodd" clip-rule="evenodd" d="M290 8C290 5.79086 291.791 4 294 4L776 4C778.209 4 780 5.79086 780 8V9C780 11.2091 778.209 13 776 13H294C291.791 13 290 11.2091 290 9V8Z" fill="#A7C3FF"/>
<path fill-rule="evenodd" clip-rule="evenodd" d="M290 278C290 275.791 291.791 274 294 274L776 274C778.209 274 780 275.791 780 278V279C780 281.209 778.209 283 776 283H294C291.791 283 290 281.209 290 279V278Z" fill="#A7C3FF"/>
<path fill-rule="evenodd" clip-rule="evenodd" d="M496 2C496 0.895431 496.895 0 498 0H579C580.105 0 581 0.895431 581 2V14C581 15.1046 580.105 16 579 16H498C496.895 16 496 15.1046 496 14V2Z" fill="#A7C3FF"/>
<path fill-rule="evenodd" clip-rule="evenodd" d="M496 272C496 270.895 496.895 270 498 270H579C580.105 270 581 270.895 581 272V284C581 285.105 580.105 286 579 286H498C496.895 286 496 285.105 496 284V272Z" fill="#A7C3FF"/>
<path fill-rule="evenodd" clip-rule="evenodd" d="M94.7041 23.6342C94.7041 22.1794 95.8835 21 97.3383 21H205.342C206.797 21 207.976 22.1794 207.976 23.6342V229.105C207.976 230.56 206.797 231.739 205.342 231.739H97.3383C95.8835 231.739 94.7041 230.56 94.7041 229.105V23.6342Z" fill="#C8DAFF"/>
<path fill-rule="evenodd" clip-rule="evenodd" d="M198.918 124.65L102.096 207.887V190.058L198.918 112.096V124.65Z" fill="#D8E5FF"/>
<path fill-rule="evenodd" clip-rule="evenodd" d="M198.918 99.8132L102.096 177.727V124.417L198.918 60.6479V99.8132Z" fill="#D8E5FF"/>
<path fill-rule="evenodd" clip-rule="evenodd" d="M200.826 21C202.281 21 203.46 22.1794 203.46 23.6342V229.105C203.46 230.56 202.281 231.739 200.826 231.739H92.8222C91.3674 231.739 90.188 230.56 90.188 229.105V23.6342C90.188 22.1794 91.3674 21 92.8222 21H200.826ZM139.975 133.219H99.4078C98.0089 133.219 96.8647 134.309 96.7788 135.686L96.7736 135.853V222.256C96.7736 223.655 97.864 224.799 99.2412 224.885L99.4078 224.89H139.975C141.374 224.89 142.518 223.8 142.604 222.423L142.609 222.256V135.853C142.609 134.454 141.519 133.31 140.142 133.224L139.975 133.219ZM193.45 133.219H152.883C151.484 133.219 150.34 134.309 150.254 135.686L150.249 135.853V222.256C150.249 223.655 151.339 224.799 152.716 224.885L152.883 224.89H193.45C194.849 224.89 195.993 223.8 196.079 222.423L196.084 222.256V135.853C196.084 134.454 194.994 133.31 193.617 133.224L193.45 133.219ZM193.45 27.5856H152.883C151.484 27.5856 150.34 28.676 150.254 30.0532L150.249 30.2198V122.945C150.249 124.344 151.339 125.488 152.716 125.574L152.883 125.579H193.45C194.849 125.579 195.993 124.489 196.079 123.112L196.084 122.945V30.2198C196.084 28.8209 194.994 27.6767 193.617 27.5908L193.45 27.5856ZM139.975 27.5856H99.4078C98.0089 27.5856 96.8647 28.676 96.7788 30.0532L96.7736 30.2198V122.945C96.7736 124.344 97.864 125.488 99.2412 125.574L99.4078 125.579H139.975C141.374 125.579 142.518 124.489 142.604 123.112L142.609 122.945V30.2198C142.609 28.8209 141.519 27.6767 140.142 27.5908L139.975 27.5856Z" fill="#9AB9FA"/>
<path fill-rule="evenodd" clip-rule="evenodd" d="M206.471 21C207.926 21 209.105 22.1794 209.105 23.6342V229.105C209.105 230.56 207.926 231.739 206.471 231.739H98.4672C97.0124 231.739 95.833 230.56 95.833 229.105V23.6342C95.833 22.1794 97.0124 21 98.4672 21H206.471ZM145.62 133.219H105.053C103.654 133.219 102.51 134.309 102.424 135.686L102.419 135.853V222.256C102.419 223.655 103.509 224.799 104.886 224.885L105.053 224.89H145.62C147.019 224.89 148.163 223.8 148.249 222.423L148.254 222.256V135.853C148.254 134.454 147.164 133.31 145.787 133.224L145.62 133.219ZM199.095 133.219H158.528C157.129 133.219 155.985 134.309 155.899 135.686L155.894 135.853V222.256C155.894 223.655 156.984 224.799 158.361 224.885L158.528 224.89H199.095C200.494 224.89 201.638 223.8 201.724 222.423L201.729 222.256V135.853C201.729 134.454 200.639 133.31 199.262 133.224L199.095 133.219ZM199.095 27.5856H158.528C157.129 27.5856 155.985 28.676 155.899 30.0532L155.894 30.2198V122.945C155.894 124.344 156.984 125.488 158.361 125.574L158.528 125.579H199.095C200.494 125.579 201.638 124.489 201.724 123.112L201.729 122.945V30.2198C201.729 28.8209 200.639 27.6767 199.262 27.5908L199.095 27.5856ZM145.62 27.5856H105.053C103.654 27.5856 102.51 28.676 102.424 30.0532L102.419 30.2198V122.945C102.419 124.344 103.509 125.488 104.886 125.574L105.053 125.579H145.62C147.019 125.579 148.163 124.489 148.249 123.112L148.254 122.945V30.2198C148.254 28.8209 147.164 27.6767 145.787 27.5908L145.62 27.5856Z" fill="#A7C3FF"/>
<path fill-rule="evenodd" clip-rule="evenodd" d="M96.7202 217.896H220.368V232.008H96.7202V217.896Z" fill="#A7C3FF"/>
<path d="M113.161 199.325H135.74L133.174 217.905C133.096 218.464 132.619 218.88 132.055 218.88H116.846C116.282 218.88 115.805 218.464 115.728 217.905L113.161 199.325Z" fill="#F5AC00"/>
<path d="M118.562 203.976C118.562 203.976 116.755 198.959 115.195 195.631C113.636 192.303 109.95 185.601 109.95 185.601C109.95 185.601 116.084 191.03 118.012 194.111C119.94 197.192 121.847 203.285 121.847 203.285L118.562 203.976Z" fill="#57D46E"/>
<path fill-rule="evenodd" clip-rule="evenodd" d="M120.106 199.785C120.106 199.785 118.49 194.22 116.842 189.904C115.194 185.587 111.451 177.676 111.451 177.676C111.451 177.676 118.201 184.82 120.43 188.959C122.659 193.099 124.793 199.785 124.793 199.785H120.106Z" fill="#40B955"/>
<path d="M128.433 199.785C128.433 199.785 130.149 195.46 131.47 193.196C132.791 190.932 136.122 186.607 136.122 186.607C136.122 186.607 133.953 191.805 133.136 194.436C132.318 197.066 132.028 199.785 132.028 199.785H128.433Z" fill="#57D46E"/>
<path fill-rule="evenodd" clip-rule="evenodd" d="M125.395 199.785C125.395 199.785 127.826 191.499 129.042 187.162C130.259 182.826 132.69 178.133 132.69 178.133C132.69 178.133 131.583 183.839 131.024 187.826C130.464 191.812 129.652 199.785 129.652 199.785H125.395Z" fill="#40B955"/>
<path d="M124.028 199.785C124.028 199.785 123.204 190.296 123.12 185.443C123.036 180.59 123.53 171.101 123.53 171.101C123.53 171.101 125.769 179.546 126.479 184.524C127.189 189.502 127.623 199.785 127.623 199.785H124.028Z" fill="#57D46E"/>
<path d="M112.032 200.454C112.032 199.83 112.538 199.325 113.161 199.325H135.74C136.364 199.325 136.869 199.83 136.869 200.454V203.962C136.869 204.585 136.364 205.09 135.74 205.09H113.161C112.538 205.09 112.032 204.585 112.032 203.962L112.032 200.454Z" fill="#FFBF29"/>
<rect x="94.7041" y="217.896" width="14.112" height="14.112" fill="#9AB9FA"/>
<path fill-rule="evenodd" clip-rule="evenodd" d="M342.2 52.2002C342.2 46.6773 346.677 42.2002 352.2 42.2002H511.6C517.123 42.2002 521.6 46.6773 521.6 52.2002V242.8C521.6 248.323 517.123 252.8 511.6 252.8H352.2C346.677 252.8 342.2 248.323 342.2 242.8V52.2002Z" fill="#D5E4FF"/>
<path d="M337.5 47C337.5 41.7533 341.753 37.5 347 37.5H506.4C511.647 37.5 515.9 41.7533 515.9 47V237.6C515.9 242.847 511.647 247.1 506.4 247.1H347C341.753 247.1 337.5 242.847 337.5 237.6V47Z" fill="white" stroke="#D2E0FF"/>
<path opacity="0.317987" fill-rule="evenodd" clip-rule="evenodd" d="M345.579 180.191L390.817 130.301C391.615 129.421 392.909 129.193 393.96 129.75L407.162 136.738C408.231 137.304 409.549 137.058 410.341 136.145L428.528 115.199C429.343 114.26 430.709 114.03 431.787 114.649L449.414 124.774C450.549 125.427 451.992 125.133 452.782 124.089L469.251 102.325C470.305 100.933 472.403 100.954 473.429 102.367L491.697 127.537C492.263 128.316 493.214 128.719 494.168 128.583L509.624 126.38V193.98H345.579L345.579 180.191Z" fill="#EDF1FF"/>
<path d="M345.579 180.191L390.988 129.757C391.807 128.847 393.15 128.632 394.212 129.24L407.133 136.642C408.21 137.259 409.574 137.028 410.388 136.091L428.505 115.226C429.331 114.275 430.718 114.052 431.8 114.697L449.395 125.185C450.536 125.865 452.005 125.576 452.804 124.516L469.489 102.354C470.545 100.952 472.657 100.977 473.679 102.402L491.699 127.523C492.263 128.311 493.219 128.719 494.178 128.582L509.624 126.38" stroke="#57D46E" stroke-width="2.6" stroke-linecap="round"/>
<path opacity="0.261579" fill-rule="evenodd" clip-rule="evenodd" d="M345.579 168.388L395.823 152.421C396.527 152.197 397.294 152.283 397.931 152.659L408.849 159.096C409.729 159.615 410.83 159.57 411.666 158.983L429.082 146.728C429.528 146.414 430.061 146.248 430.606 146.254L444.323 146.402C444.914 146.409 445.49 146.213 445.955 145.848L469.088 127.704C470.305 126.749 472.082 127.062 472.9 128.376L487.492 151.815C488.087 152.77 489.228 153.234 490.32 152.966L509.624 148.224V193.981H345.579L345.579 168.388Z" fill="#EDF1FF"/>
<path d="M345.579 168.388L395.76 152.441C396.501 152.205 397.308 152.314 397.961 152.736L408.778 159.743C409.689 160.333 410.872 160.295 411.743 159.647L429.077 146.759C429.526 146.425 430.07 146.245 430.629 146.245H443.872C444.47 146.245 445.049 146.04 445.513 145.663L469.259 126.354C470.498 125.347 472.343 125.683 473.146 127.063L487.626 151.935C488.15 152.833 489.158 153.334 490.19 153.207L509.624 150.824" stroke="#70A1FF" stroke-width="2.6" stroke-linecap="round"/>
<path fill-rule="evenodd" clip-rule="evenodd" d="M368.5 218.4C370.654 218.4 372.4 216.654 372.4 214.5C372.4 212.346 370.654 210.6 368.5 210.6C366.346 210.6 364.6 212.346 364.6 214.5C364.6 216.654 366.346 218.4 368.5 218.4Z" fill="#95B2EE"/>
<path d="M402.938 212.55C404.015 212.55 404.888 213.423 404.888 214.5C404.888 215.528 404.092 216.371 403.083 216.445L402.938 216.45H381.644C380.567 216.45 379.694 215.577 379.694 214.5C379.694 213.472 380.489 212.63 381.498 212.556L381.644 212.55H402.938Z" fill="#A7C3FF"/>
<path d="M402.938 225.8C403.656 225.8 404.238 226.382 404.238 227.1C404.238 227.773 403.726 228.327 403.07 228.394L402.938 228.4H381.644C380.926 228.4 380.344 227.818 380.344 227.1C380.344 226.427 380.855 225.874 381.511 225.807L381.644 225.8H402.938Z" fill="#A7C3FF"/>
<path fill-rule="evenodd" clip-rule="evenodd" d="M446.5 218.4C448.654 218.4 450.4 216.654 450.4 214.5C450.4 212.346 448.654 210.6 446.5 210.6C444.346 210.6 442.6 212.346 442.6 214.5C442.6 216.654 444.346 218.4 446.5 218.4Z" fill="#95B2EE"/>
<path d="M480.938 212.55C482.015 212.55 482.888 213.423 482.888 214.5C482.888 215.528 482.092 216.371 481.083 216.445L480.938 216.45H459.644C458.567 216.45 457.694 215.577 457.694 214.5C457.694 213.472 458.489 212.63 459.498 212.556L459.644 212.55H480.938Z" fill="#A7C3FF"/>
<path d="M480.938 225.8C481.656 225.8 482.238 226.382 482.238 227.1C482.238 227.773 481.726 228.327 481.07 228.394L480.938 228.4H459.644C458.926 228.4 458.344 227.818 458.344 227.1C458.344 226.427 458.855 225.874 459.511 225.807L459.644 225.8H480.938Z" fill="#A7C3FF"/>
<path fill-rule="evenodd" clip-rule="evenodd" d="M494.3 63.0002C496.454 63.0002 498.2 61.2541 498.2 59.1002C498.2 56.9463 496.454 55.2002 494.3 55.2002C492.146 55.2002 490.4 56.9463 490.4 59.1002C490.4 61.2541 492.146 63.0002 494.3 63.0002Z" fill="#95B2EE"/>
<path d="M337 193.981H516.4" stroke="#D2E0FF" stroke-width="1.3"/>
<path d="M337 76.9807H516.4" stroke="#D2E0FF" stroke-width="1.3"/>
<path opacity="0.578079" d="M471.603 76.9805V193.98" stroke="#FFBF29" stroke-width="1.3"/>
<path d="M412.294 54.2998C414.227 54.2998 415.794 55.8668 415.794 57.7998C415.794 59.6684 414.33 61.1949 412.486 61.2946L412.294 61.2998H357.2C355.267 61.2998 353.7 59.7328 353.7 57.7998C353.7 55.9312 355.164 54.4047 357.008 54.305L357.2 54.2998H412.294Z" fill="#A7C3FF"/>
<path fill-rule="evenodd" clip-rule="evenodd" d="M555.2 52.2002C555.2 46.6773 559.677 42.2002 565.2 42.2002H724.6C730.123 42.2002 734.6 46.6773 734.6 52.2002V242.8C734.6 248.323 730.123 252.8 724.6 252.8H565.2C559.677 252.8 555.2 248.323 555.2 242.8V52.2002Z" fill="#D5E4FF"/>
<path d="M550.5 47C550.5 41.7533 554.753 37.5 560 37.5H719.4C724.647 37.5 728.9 41.7533 728.9 47V237.6C728.9 242.847 724.647 247.1 719.4 247.1H560C554.753 247.1 550.5 242.847 550.5 237.6V47Z" fill="white" stroke="#D2E0FF"/>
<path d="M570.37 165.98V194.672H563.87V165.98H570.37Z" fill="#1075F0"/>
<path d="M576.37 154.98V194.672H569.87V154.98H576.37Z" fill="#57D46E"/>
<path d="M598.37 124.98V194.672H591.87V124.98H598.37Z" fill="#1075F0"/>
<path d="M604.37 115.98V194.672H597.87V115.98H604.37Z" fill="#57D46E"/>
<path d="M626.37 107.98V194.672H619.87V107.98H626.37Z" fill="#1075F0"/>
<path d="M632.37 117.98V194.672H625.87V117.98H632.37Z" fill="#57D46E"/>
<path d="M654.37 130.98V194.672H647.87V130.98H654.37Z" fill="#1075F0"/>
<path d="M660.37 120.98V194.672H653.87V120.98H660.37Z" fill="#57D46E"/>
<path d="M682.37 101.98V194.672H675.87V101.98H682.37Z" fill="#1075F0"/>
<path d="M688.37 110.98V194.672H681.87V110.98H688.37Z" fill="#57D46E"/>
<path d="M710.37 130.98V194.672H703.87V130.98H710.37Z" fill="#1075F0"/>
<path d="M716.37 140.98V194.672H709.87V140.98H716.37Z" fill="#57D46E"/>
<path d="M583.5 218.4C585.654 218.4 587.4 216.654 587.4 214.5C587.4 212.346 585.654 210.6 583.5 210.6C581.346 210.6 579.6 212.346 579.6 214.5C579.6 216.654 581.346 218.4 583.5 218.4Z" fill="#70A1FF"/>
<path d="M595.644 214.5H616.938" stroke="#A7C3FF" stroke-width="4" stroke-linecap="round"/>
<path d="M595.644 228.1H616.938" stroke="#A7C3FF" stroke-width="2.5" stroke-linecap="round"/>
<path d="M661.5 218.4C663.654 218.4 665.4 216.654 665.4 214.5C665.4 212.346 663.654 210.6 661.5 210.6C659.346 210.6 657.6 212.346 657.6 214.5C657.6 216.654 659.346 218.4 661.5 218.4Z" fill="#57D46E"/>
<path d="M673.644 214.5H694.938" stroke="#A7C3FF" stroke-width="4" stroke-linecap="round"/>
<path d="M673.644 228.1H694.938" stroke="#A7C3FF" stroke-width="2.5" stroke-linecap="round"/>
<path fill-rule="evenodd" clip-rule="evenodd" d="M715.5 60C716.881 60 718 58.8807 718 57.5C718 56.1193 716.881 55 715.5 55C714.119 55 713 56.1193 713 57.5C713 58.8807 714.119 60 715.5 60Z" fill="#95B2EE"/>
<path fill-rule="evenodd" clip-rule="evenodd" d="M706.5 60C707.881 60 709 58.8807 709 57.5C709 56.1193 707.881 55 706.5 55C705.119 55 704 56.1193 704 57.5C704 58.8807 705.119 60 706.5 60Z" fill="#95B2EE"/>
<path fill-rule="evenodd" clip-rule="evenodd" d="M697.5 60C698.881 60 700 58.8807 700 57.5C700 56.1193 698.881 55 697.5 55C696.119 55 695 56.1193 695 57.5C695 58.8807 696.119 60 697.5 60Z" fill="#95B2EE"/>
<path d="M550 193.981H729.4" stroke="#D2E0FF" stroke-width="1.3"/>
<path d="M550 76.9807H729.4" stroke="#D2E0FF" stroke-width="1.3"/>
<path d="M620.294 54.2998C622.227 54.2998 623.794 55.8668 623.794 57.7998C623.794 59.6684 622.33 61.1949 620.486 61.2946L620.294 61.2998H575.2C573.267 61.2998 571.7 59.7328 571.7 57.7998C571.7 55.9312 573.164 54.4047 575.008 54.305L575.2 54.2998H620.294Z" fill="#A7C3FF"/>
<path fill-rule="evenodd" clip-rule="evenodd" d="M726.461 485.957C723.121 486.19 716.667 486.465 715.529 485.957C715.137 485.782 715.015 485.524 715.023 485.26C715.046 484.486 715.857 484.024 716.521 483.628C718.035 482.728 721.096 480.986 724.43 479.549C729.154 477.513 732.948 474.257 734.308 469.418C735.669 464.579 736.674 449.133 736.674 449.133L750.66 448.353C750.66 448.353 747.83 462.29 747.557 466.268C747.498 467.112 750.288 472.587 749.308 474.699C748.244 476.991 746.069 477.366 742.537 479.118C735.141 482.785 740.515 485.145 726.461 485.957Z" fill="#E09282"/>
<path fill-rule="evenodd" clip-rule="evenodd" d="M747.588 465.725C747.588 465.725 753.388 468.261 750.983 475.8C748.577 483.339 748.878 486.034 748.878 486.034H743.153V480.666C743.153 480.666 742.916 480.482 741.975 481.218C739.23 483.365 734.166 487.347 732.24 487.827C728.359 488.793 715.342 487.231 715.342 487.231V486.034H725.072C725.072 486.034 719.946 481.077 720.785 480.556C722.192 479.682 725.072 477.863 725.072 477.863L735.049 482.034L747.588 465.725Z" fill="#283845"/>
<path fill-rule="evenodd" clip-rule="evenodd" d="M783.497 266.141L763.798 377.548L765.311 452.597H736.025L739.727 374.689L745.4 266.141H783.497Z" fill="#083254"/>
<path fill-rule="evenodd" clip-rule="evenodd" d="M788.553 485.956C785.214 486.19 778.76 486.464 777.621 485.956C777.229 485.782 777.107 485.523 777.115 485.26C777.139 484.486 777.949 484.024 778.614 483.628C780.127 482.728 783.189 480.986 786.522 479.549C791.246 477.513 795.04 474.257 796.401 469.418C797.762 464.579 796.258 451.087 796.258 451.087L809.077 450.499C809.077 450.499 809.649 462.357 809.649 466.268C809.649 467.112 812.38 472.587 811.4 474.699C810.337 476.991 808.161 477.366 804.63 479.117C797.234 482.785 802.608 485.145 788.553 485.956Z" fill="#E09282"/>
<path fill-rule="evenodd" clip-rule="evenodd" d="M809.681 465.724C809.681 465.724 815.481 468.261 813.075 475.799C810.67 483.338 810.97 486.033 810.97 486.033H805.246V480.665C805.246 480.665 805.009 480.481 804.068 481.218C801.323 483.365 796.259 487.347 794.333 487.827C790.452 488.793 777.435 487.231 777.435 487.231V486.033H787.165C787.165 486.033 782.039 481.077 782.878 480.556C784.285 479.682 787.165 477.863 787.165 477.863L797.142 482.033L809.681 465.724Z" fill="#283845"/>
<path fill-rule="evenodd" clip-rule="evenodd" d="M802.302 266.532L803.883 371.338C803.883 371.338 806.911 382.836 808.211 393.868C809.512 404.9 812.539 452.619 812.539 452.619H782.255L764.887 266.532H802.302Z" fill="#0A4677"/>
<path fill-rule="evenodd" clip-rule="evenodd" d="M779.021 272.676L791.111 289.762L789.34 272.749L779.021 272.676Z" fill="#E3E9FF"/>
<path d="M789.084 269.199L797.499 375.315L804.931 452.619" stroke="#E3E9FF" stroke-width="0.5" stroke-linecap="round"/>
<path fill-rule="evenodd" clip-rule="evenodd" d="M746.186 197.149L733.187 222.657L703.836 194.447C703.717 194.333 703.642 194.182 703.624 194.019L702.411 183.432C702.411 183.432 695.433 172.21 694.291 176.296C693.864 177.822 697.477 179.614 696.784 184.602C696.656 185.526 689.188 180.479 685.982 178.266C685.46 177.905 684.759 178.363 684.88 178.987L687.14 190.645C687.17 190.804 687.255 190.948 687.38 191.052L698.059 199.976L725.186 237.01C729.443 242.821 738.289 242.265 741.784 235.966L759.739 203.606L746.186 197.149Z" fill="#E09282"/>
<path fill-rule="evenodd" clip-rule="evenodd" d="M748.095 187.634C750.281 183.413 755.436 181.708 759.707 183.793C764.204 185.987 765.95 191.497 763.538 195.88L751.33 218.063L737.265 208.546L748.095 187.634Z" fill="#0A4677"/>
<path fill-rule="evenodd" clip-rule="evenodd" d="M747.461 201.454L740.725 210.86L744.093 213.304L747.461 201.454Z" fill="#080708" fill-opacity="0.223011"/>
<path d="M737.266 208.546L751.331 218.063" stroke="#E3E9FF" stroke-width="0.924" stroke-linecap="round"/>
<path fill-rule="evenodd" clip-rule="evenodd" d="M803.453 194.442C804.737 189.407 801.308 184.39 796.151 183.757L773.944 181.032L755.955 183.048C754.716 183.187 753.647 183.96 753.151 185.104C750.78 190.572 743.96 206.836 743.537 213.887C743.146 220.427 749.114 227.723 749.114 234.428C749.114 241.134 745.42 269.031 745.42 269.031L800.498 270.835C801.006 270.851 801.395 270.388 801.291 269.89L793.576 233.172L803.453 194.442Z" fill="#E09282"/>
<path fill-rule="evenodd" clip-rule="evenodd" d="M803.453 194.442C804.737 189.407 801.308 184.39 796.151 183.757L782.955 182.138C782.955 182.138 777.215 187.42 772.573 192.837C767.932 198.254 763.647 205.304 763.647 205.304C763.647 205.304 763 199.568 763 194.476C763 189.384 763.647 182.186 763.647 182.186L756.577 183.044C755.402 183.186 754.382 183.899 753.867 184.966C751.296 190.293 743.594 206.775 743.168 213.886C742.776 220.427 748.745 227.723 748.745 234.428C748.745 241.134 745.42 270.475 745.42 270.475L791.28 272.961C797.192 273.281 801.753 267.83 800.393 262.067L793.576 233.171L803.453 194.442Z" fill="#E3E9FF"/>
<path fill-rule="evenodd" clip-rule="evenodd" d="M796.151 183.757L782.955 182.138L779.707 188.098C775.04 196.706 771.587 203.296 769.349 207.866C766.619 213.441 764.004 219.468 761.502 225.95C759.543 219.592 758.703 213.564 758.983 207.866L759.025 207.124C759.397 201.435 760.937 193.123 763.647 182.186L755.898 183.054C754.686 183.19 753.63 183.943 753.106 185.044L752.492 186.343C746.346 199.414 743.115 208.596 742.798 213.886C742.406 220.427 748.375 227.723 748.375 234.428L748.37 234.908C748.279 239.541 746.943 251.21 744.361 269.913C744.166 271.328 745.155 272.634 746.57 272.829C746.644 272.84 746.719 272.847 746.793 272.85L795.011 275.292C799.292 275.509 802.939 272.214 803.156 267.933C803.199 267.075 803.1 266.216 802.862 265.391L793.576 233.171L803.453 194.442C804.63 189.829 801.844 185.136 797.232 183.96C796.876 183.869 796.515 183.801 796.151 183.757Z" fill="#0A4677"/>
<path fill-rule="evenodd" clip-rule="evenodd" d="M761.502 230.015L760.107 273.274H756.527L761.502 230.015Z" fill="#080708" fill-opacity="0.223011"/>
<path d="M745.752 272.892L795.011 275.292C796.675 275.377 798.243 274.93 799.551 274.102" stroke="#062944" stroke-opacity="0.699109" stroke-width="0.924" stroke-linecap="round"/>
<path fill-rule="evenodd" clip-rule="evenodd" d="M760.968 233.146C759.845 233.146 758.935 232.236 758.935 231.113C758.935 229.99 759.845 229.08 760.968 229.08C762.09 229.08 763 229.99 763 231.113C763 232.236 762.09 233.146 760.968 233.146Z" fill="#E3E9FF"/>
<path fill-rule="evenodd" clip-rule="evenodd" d="M789.027 197.686L794.742 227.01L799.245 211.401L789.027 197.686Z" fill="#080708" fill-opacity="0.223011"/>
<path fill-rule="evenodd" clip-rule="evenodd" d="M757.591 178.94C755.507 176.937 757.335 164.192 757.819 161.069C757.884 160.654 757.689 160.243 757.337 160.013C755.896 159.073 752.265 156.394 751.421 152.801C746.146 130.323 780.384 132.376 782.659 141.32C788.167 142.097 789.471 149.427 789.024 155.291C788.897 156.959 788.97 169.911 789.007 175.328C789.016 176.749 788.124 178.014 786.783 178.486L776.63 182.059C776.63 182.059 759.97 181.227 757.591 178.94Z" fill="#321111"/>
<path fill-rule="evenodd" clip-rule="evenodd" d="M778.73 183.42C778.73 186.878 775.928 189.676 772.47 189.676C768.794 189.676 765.909 186.522 766.235 182.86L766.958 174.741C766.958 174.741 759.166 175.358 756.527 171.59C753.888 167.822 754.252 148.195 754.252 148.195L778.73 148.195C778.73 148.195 778.73 153.061 778.73 154.748C786.204 154.748 786.204 163.772 778.73 163.772C778.73 169.565 778.73 177.8 778.73 183.42Z" fill="#E09282"/>
<path fill-rule="evenodd" clip-rule="evenodd" d="M754.207 153.013V143.932H779.568L778.719 161.72C778.703 162.051 778.277 162.152 778.119 161.861C777.578 160.857 776.714 159.181 775.909 157.288C774.551 154.095 770.11 152.606 767.333 152.606C764.418 152.606 760.195 152.955 757.593 150.804C754.559 148.296 754.207 153.013 754.207 153.013Z" fill="#321111"/>
<path fill-rule="evenodd" clip-rule="evenodd" d="M766.943 174.72C766.943 174.72 769.256 174.408 771.037 173.847C772.818 173.286 775.07 172.152 775.07 172.152C775.07 172.152 772.014 175.122 770.407 176.398C768.8 177.674 766.558 178.913 766.558 178.913L766.943 174.72Z" fill="#B9726B"/>
<path fill-rule="evenodd" clip-rule="evenodd" d="M759.277 159.283V165.752C759.277 165.752 756.581 164.352 756.581 163.805C756.581 163.259 759.277 159.283 759.277 159.283Z" fill="#B9726B"/>
<path fill-rule="evenodd" clip-rule="evenodd" d="M770.215 136.236C766.465 134.965 760.232 135.004 756.102 138.231C756.102 138.231 763.553 137.018 768.355 138.646C772.742 140.134 779.04 146.5 779.104 154.746L780.39 155.019C781.427 147.055 779.039 139.229 770.215 136.236Z" fill="#A0C6FF"/>
<path d="M761.077 194.451C760.935 193.097 759.722 192.115 758.369 192.258L743.729 193.796C742.376 193.938 741.394 195.151 741.537 196.504L745.463 233.866C745.606 235.22 746.818 236.202 748.172 236.059L762.811 234.521C764.164 234.379 765.146 233.166 765.004 231.813L761.077 194.451Z" fill="#1075F0"/>
<path d="M759.486 194.618C759.343 193.265 758.131 192.283 756.778 192.425L731 195.134C729.646 195.277 728.664 196.489 728.807 197.842L732.733 235.205C732.876 236.558 734.088 237.54 735.442 237.398L761.22 234.688C762.573 234.546 763.555 233.334 763.413 231.98L759.486 194.618Z" fill="#467FFF"/>
<path d="M746.62 217.625C745.302 217.763 744.121 216.807 743.983 215.489C743.844 214.17 744.8 212.99 746.119 212.851C747.437 212.712 748.618 213.669 748.756 214.987C748.895 216.305 747.938 217.486 746.62 217.625Z" fill="white"/>
<path d="M757.222 195.951C757.16 195.357 756.628 194.927 756.035 194.989L753.346 195.272C752.753 195.334 752.323 195.866 752.385 196.459C752.447 197.052 752.979 197.483 753.572 197.42L756.261 197.138C756.854 197.075 757.285 196.544 757.222 195.951Z" fill="white"/>
<path fill-rule="evenodd" clip-rule="evenodd" d="M795.261 205.716L811.064 235.266C811.064 235.266 750.196 213.398 749.629 214.341C748.691 215.899 754.479 218.728 755.985 220.595C757.492 222.462 755.985 227.738 757.628 229.71C758.344 230.571 765.841 230.581 768.336 230.581C769.388 230.581 781.261 235.697 799.448 245.031C800.715 245.681 804.406 247.28 809.081 249.253C819.871 253.806 830.398 242.446 825.155 231.973L808.193 198.091L795.261 205.716Z" fill="#E09282"/>
<path fill-rule="evenodd" clip-rule="evenodd" d="M805.905 189.484C803.614 184.576 797.589 182.713 792.928 185.472L791.721 186.186C787.505 188.681 785.996 194.049 788.293 198.375L800.429 221.229L816.546 212.285L805.905 189.484Z" fill="#0A4677"/>
<path fill-rule="evenodd" clip-rule="evenodd" d="M769.721 221.495C769.721 221.495 764.927 211.817 763.225 211.932C761.524 212.047 764.676 221.236 764.676 221.236L769.721 221.495Z" fill="#E09282"/>
<path d="M816.312 212.348L800.429 221.229" stroke="#E3E9FF" stroke-width="0.924" stroke-linecap="round"/>
<path fill-rule="evenodd" clip-rule="evenodd" d="M355.41 202.32L343.458 224.215C342.603 225.782 342.343 227.605 342.727 229.348L352.823 275.142C352.823 275.142 351.714 290.595 357.378 292.579C358.481 292.966 360.933 301.919 363.15 299.232C363.763 298.49 363.962 286.013 363.962 286.013L361.005 269.781L359.596 229.75L368.027 212.623L355.41 202.32Z" fill="#FFC4A7"/>
<path d="M328.16 260.16H382.16L380 296.88H326L328.16 260.16Z" fill="#1075F0"/>
<path d="M330.32 258H384.32L382.16 294.72H328.16L330.32 258Z" fill="#EAEFFF"/>
<path d="M331.76 259.44H385.76L383.6 294.72H329.6L331.76 259.44Z" fill="#FDFEFF"/>
<path fill-rule="evenodd" clip-rule="evenodd" d="M385.68 260.16L386.48 296.88H332.48L331.68 260.16H385.68ZM351.56 288.96C350.168 288.96 349.04 290.088 349.04 291.48C349.04 292.872 350.168 294 351.56 294C352.952 294 354.08 292.872 354.08 291.48C354.08 290.088 352.952 288.96 351.56 288.96ZM364.16 291.48C364.16 290.088 365.288 288.96 366.68 288.96C368.072 288.96 369.2 290.088 369.2 291.48C369.2 292.872 368.072 294 366.68 294C365.288 294 364.16 292.872 364.16 291.48Z" fill="#467FFF"/>
<path d="M372.08 270.24C372.08 269.842 372.402 269.52 372.8 269.52H381.44C381.838 269.52 382.16 269.842 382.16 270.24V285.36C382.16 285.758 381.838 286.08 381.44 286.08H372.8C372.402 286.08 372.08 285.758 372.08 285.36V270.24Z" fill="#EAEFFF"/>
<path fill-rule="evenodd" clip-rule="evenodd" d="M351.56 288.24C353.349 288.24 354.8 289.691 354.8 291.48C354.8 293.27 353.349 294.72 351.56 294.72C349.77 294.72 348.32 293.27 348.32 291.48C348.32 289.691 349.77 288.24 351.56 288.24ZM351.56 288.96C350.168 288.96 349.04 290.088 349.04 291.48C349.04 292.872 350.168 294 351.56 294C352.952 294 354.08 292.872 354.08 291.48C354.08 290.088 352.952 288.96 351.56 288.96Z" fill="#758EEE"/>
<path fill-rule="evenodd" clip-rule="evenodd" d="M366.68 288.24C368.469 288.24 369.92 289.691 369.92 291.48C369.92 293.27 368.469 294.72 366.68 294.72C364.891 294.72 363.44 293.27 363.44 291.48C363.44 289.691 364.891 288.24 366.68 288.24ZM366.68 288.96C365.288 288.96 364.16 290.088 364.16 291.48C364.16 292.872 365.288 294 366.68 294C368.072 294 369.2 292.872 369.2 291.48C369.2 290.088 368.072 288.96 366.68 288.96Z" fill="#758EEE"/>
<path fill-rule="evenodd" clip-rule="evenodd" d="M364.917 180.559C367.553 175.8 373.61 174.175 378.274 176.977L380.29 178.189C384.802 180.9 386.293 186.736 383.635 191.279L360.627 230.602L360.451 235.968L341.767 235.851L340.333 228.31C340.027 226.699 340.294 225.031 341.089 223.597L364.917 180.559Z" fill="#E3E9FF"/>
<path fill-rule="evenodd" clip-rule="evenodd" d="M359.503 450.054H372.808L369.482 472.23H357.285L359.503 450.054Z" fill="#616988"/>
<path fill-rule="evenodd" clip-rule="evenodd" d="M356.914 481.137L365.957 481.769L366.896 478.934C366.896 478.934 376.489 482.523 384.264 483.067C392.039 483.611 397.367 480.182 397.367 480.182C397.196 478.261 395.702 476.724 393.788 476.497L384.357 475.383L371.191 465.092C371.191 465.092 368.825 469.361 364.253 469.042C359.682 468.722 356.821 466.572 356.821 466.572L356.066 477.37L356.914 481.137Z" fill="#1F1E1E"/>
<path fill-rule="evenodd" clip-rule="evenodd" d="M365.032 264.885L364.056 364.107C364.056 364.107 359.003 380.672 359.003 391.598C359.003 402.523 357.285 460.034 357.285 460.034H372.424L406.242 264.885H365.032Z" fill="#2E2B2B"/>
<path fill-rule="evenodd" clip-rule="evenodd" d="M420.487 451.533H433.792L435.271 473.709H423.074L420.487 451.533Z" fill="#616988"/>
<path fill-rule="evenodd" clip-rule="evenodd" d="M421.594 482.615L430.637 483.248L431.576 480.412C431.576 480.412 441.169 484.002 448.944 484.545C456.719 485.089 462.047 481.66 462.047 481.66C461.876 479.74 460.383 478.202 458.468 477.976L449.037 476.862L435.871 466.57C435.871 466.57 433.505 470.84 428.934 470.52C424.362 470.2 421.501 468.05 421.501 468.05L420.746 478.849L421.594 482.615Z" fill="#1F1E1E"/>
<path fill-rule="evenodd" clip-rule="evenodd" d="M370.761 264.885C370.761 264.885 371.609 274.964 376.892 284.303C382.175 293.643 391.893 302.613 391.893 302.613L410.271 368.172C410.271 368.172 408.914 383.628 408.914 394.554C408.914 405.48 419.023 460.404 419.023 460.404H435.271L425.38 264.885H370.761Z" fill="#454141"/>
<path fill-rule="evenodd" clip-rule="evenodd" d="M425.417 268.142L416.217 278.559L415.682 267.103L425.417 268.142Z" fill="#6B6B6B"/>
<path d="M415.466 266.386L427.991 460.034" stroke="#6B6B6B" stroke-width="0.5544"/>
<path fill-rule="evenodd" clip-rule="evenodd" d="M412.765 146.696L416.481 153.984C416.587 154.193 416.474 154.448 416.247 154.509L412.765 155.445V146.696Z" fill="#F19B93"/>
<path fill-rule="evenodd" clip-rule="evenodd" d="M387.921 176.389H403.588L402.11 169.034C402.11 169.034 408.551 169.72 411.483 165.534C414.415 161.347 414.01 139.54 414.01 139.54L387.921 139.54V176.389Z" fill="#FFC4A7"/>
<path fill-rule="evenodd" clip-rule="evenodd" d="M410.562 156.583L414.06 155.882C414.06 155.882 414.108 156.593 413.6 157.257C413.06 157.964 410.025 158.532 410.025 158.532L410.562 156.583Z" fill="#0A2650"/>
<path fill-rule="evenodd" clip-rule="evenodd" d="M404.681 149.17L404.977 155.844C405.016 156.732 405.824 157.385 406.701 157.237L410.562 156.583L410.918 163.285C410.936 163.624 411.183 163.908 411.516 163.972L412.441 164.15C412.642 164.188 412.809 164.328 412.882 164.519C413.788 166.885 411.766 169.334 409.272 168.891L407.951 168.657C405.423 168.208 403.546 166.064 403.436 163.499L402.746 147.352L404.681 149.17Z" fill="#0A2650"/>
<path fill-rule="evenodd" clip-rule="evenodd" d="M386.051 160.461C386.497 161.589 387.587 162.329 388.8 162.329H394.522C395.634 162.329 396.654 161.705 397.026 160.657C397.701 158.756 398.525 155.505 397.773 152.35C396.612 147.474 402.651 145.384 402.651 145.384L402.99 152.787C403.008 153.19 403.278 153.538 403.663 153.657C404.269 153.844 404.886 153.4 404.901 152.766L405.125 143.662C405.18 141.44 407.118 139.73 409.34 139.782C412.913 139.867 417.717 139.632 419.038 137.894C422.912 132.798 416.688 124.26 416.688 124.26C416.688 124.26 413.819 128.195 410.025 127.631C404.709 126.841 397.773 124.067 391.582 126.063C386.619 127.662 381.112 136.307 379.122 139.674C378.62 140.522 378.562 141.547 378.925 142.463L386.051 160.461Z" fill="#0A2650"/>
<path fill-rule="evenodd" clip-rule="evenodd" d="M402.11 169.034L398.843 168.561L403.588 176.389L402.11 169.034Z" fill="#F19B93"/>
<path fill-rule="evenodd" clip-rule="evenodd" d="M370.922 182.878C371.27 178.661 374.794 175.416 379.025 175.416H416.26C420.751 175.416 424.391 179.056 424.391 183.547V264.859H364.146L370.922 182.878Z" fill="#E3E9FF"/>
<path fill-rule="evenodd" clip-rule="evenodd" d="M419.378 175.072C423.868 175.072 427.509 178.712 427.509 183.203V268.211H374.437L370.748 257.123L367.18 268.211H359.872L366.67 182.56C367.005 178.332 370.534 175.072 374.776 175.072H379.847C379.847 176.446 380.918 177.57 382.27 177.654L382.434 177.659H405.739C406.354 177.659 406.96 177.52 407.511 177.253L407.744 177.131L411.376 175.072L419.378 175.072Z" fill="#544F4F"/>
<path fill-rule="evenodd" clip-rule="evenodd" d="M415.465 194.73L427.509 220.138V193.028L415.465 194.73Z" fill="#080708" fill-opacity="0.340226"/>
<path fill-rule="evenodd" clip-rule="evenodd" d="M461.974 121.77C461.974 121.77 458.865 117.541 458.97 116.105C459.075 114.669 462.777 114.209 462.777 114.209L461.974 121.77Z" fill="#FFC4A7"/>
<rect x="439.361" y="100.207" width="64.8" height="8" rx="0.8" transform="rotate(15 439.361 100.207)" fill="#1075F0"/>
<rect x="438.381" y="98.7729" width="64.8" height="8" rx="0.8" transform="rotate(15 438.381 98.7729)" fill="#467FFF"/>
<path d="M442.023 99.9392L441.431 101.924" stroke="white" stroke-width="0.5" stroke-linecap="round"/>
<path d="M446.887 101.26L446.295 103.245" stroke="white" stroke-width="0.5" stroke-linecap="round"/>
<path d="M452.256 102.636L451.664 104.621" stroke="white" stroke-width="0.5" stroke-linecap="round"/>
<path d="M457.856 104.236L457.264 106.221" stroke="white" stroke-width="0.5" stroke-linecap="round"/>
<path d="M463.456 105.836L462.864 107.821" stroke="white" stroke-width="0.5" stroke-linecap="round"/>
<path d="M473.056 108.236L472.464 110.221" stroke="white" stroke-width="0.5" stroke-linecap="round"/>
<path d="M478.656 109.836L478.064 111.821" stroke="white" stroke-width="0.5" stroke-linecap="round"/>
<path d="M484.256 111.436L483.664 113.421" stroke="white" stroke-width="0.5" stroke-linecap="round"/>
<path d="M489.856 113.036L489.264 115.021" stroke="white" stroke-width="0.5" stroke-linecap="round"/>
<path d="M495.456 114.636L494.864 116.621" stroke="white" stroke-width="0.5" stroke-linecap="round"/>
<path fill-rule="evenodd" clip-rule="evenodd" d="M435.981 176.938L454.384 176.58C454.384 176.58 460.28 114.123 462.782 111.726C466.004 108.64 470.775 102.493 471.913 103.878C472.718 104.857 469.733 108.355 468.735 110.906C468.576 111.312 471.913 111.059 471.913 112.195C471.913 121.877 467.844 126.191 467.887 126.828C468.077 129.695 469.18 163.471 469.74 180.809C469.922 186.447 465.554 191.172 459.921 191.456L435.837 192.674L435.981 176.938Z" fill="#FFC4A7"/>
<path fill-rule="evenodd" clip-rule="evenodd" d="M421.434 175.416C416.127 175.416 411.825 179.719 411.825 185.026V187.613C411.825 192.92 416.127 197.223 421.434 197.223H458.876C466.289 197.223 472.186 191.006 471.794 183.603L471.114 170.744L454.629 165.987L451.742 175.416H421.434Z" fill="#E3E9FF"/>
<path fill-rule="evenodd" clip-rule="evenodd" d="M28.98 464.171C28.98 463.278 29.6773 462.542 30.5682 462.493L67.347 460.48H78.6635L115.591 462.493C116.482 462.542 117.18 463.279 117.18 464.171V466.78H28.98V464.171Z" fill="#C8DAFF"/>
<path fill-rule="evenodd" clip-rule="evenodd" d="M68.8799 397.9H77.2799V460.9H68.8799V397.9Z" fill="#C8DAFF"/>
<rect x="66.7798" y="452.08" width="12.6" height="14.7" rx="0.84" fill="#A7C3FF"/>
<path fill-rule="evenodd" clip-rule="evenodd" d="M62.5801 394.12C62.5801 393.656 62.9562 393.28 63.4201 393.28H82.7401C83.204 393.28 83.5801 393.656 83.5801 394.12V400.691C83.5801 401.035 83.371 401.344 83.052 401.471L78.4803 403.3C78.3811 403.34 78.2752 403.36 78.1683 403.36H67.9918C67.885 403.36 67.7791 403.34 67.6799 403.3L63.1081 401.471C62.7892 401.344 62.5801 401.035 62.5801 400.691V394.12Z" fill="#A7C3FF"/>
<rect x="26.8799" y="466.78" width="8.4" height="8.4" rx="2.1" fill="#A7C3FF"/>
<rect x="110.88" y="466.78" width="8.4" height="8.4" rx="2.1" fill="#A7C3FF"/>
<rect x="68.8799" y="466.78" width="8.4" height="8.4" rx="2.1" fill="#A7C3FF"/>
<path fill-rule="evenodd" clip-rule="evenodd" d="M63 388.24C63 384.529 66.0086 381.52 69.72 381.52H122.64C126.351 381.52 129.36 384.529 129.36 388.24C129.36 391.951 126.351 394.96 122.64 394.96H69.72C66.0086 394.96 63 391.951 63 388.24Z" fill="#C8DAFF"/>
<path fill-rule="evenodd" clip-rule="evenodd" d="M30.2402 319.36H42.0002C42.0002 319.36 42.0002 336.16 42.0002 352.96C42.0002 369.76 60.9002 386.56 60.9002 386.56H45.3602C45.3602 386.56 30.2402 372.254 30.2402 352.96C30.2402 336.16 30.2402 319.36 30.2402 319.36Z" fill="#A7C3FF"/>
<path fill-rule="evenodd" clip-rule="evenodd" d="M35.2798 319.36H47.0398C47.0398 319.36 47.0398 336.16 47.0398 352.96C47.0398 369.76 65.9398 386.56 65.9398 386.56H52.0798C52.0798 386.56 35.2798 372.646 35.2798 352.96C35.2798 336.16 35.2798 319.36 35.2798 319.36Z" fill="#C8DAFF"/>
<path fill-rule="evenodd" clip-rule="evenodd" d="M0.839844 303.4C0.839844 298.761 4.60065 295 9.23984 295H68.4887C73.1279 295 76.8887 298.761 76.8887 303.4V336.044C76.8887 340.684 73.1279 344.444 68.4887 344.444H9.23985C4.60066 344.444 0.839844 340.684 0.839844 336.044L0.839844 303.4Z" fill="#C8DAFF"/>
<path fill-rule="evenodd" clip-rule="evenodd" d="M0.477051 300.446C0.477051 297.438 2.91526 295 5.92294 295C8.93062 295 11.3688 297.438 11.3688 300.446V338.999C11.3688 342.006 8.93062 344.444 5.92294 344.444C2.91526 344.444 0.477051 342.006 0.477051 338.999L0.477051 300.446Z" fill="#A7C3FF"/>
<path fill-rule="evenodd" clip-rule="evenodd" d="M21.8398 388.24C21.8398 384.529 24.8485 381.52 28.5598 381.52L79.7998 381.52C83.5112 381.52 86.5198 384.529 86.5198 388.24C86.5198 391.951 83.5112 394.96 79.7998 394.96H28.5598C24.8485 394.96 21.8398 391.951 21.8398 388.24Z" fill="#A7C3FF"/>
<path fill-rule="evenodd" clip-rule="evenodd" d="M114.227 443.805H127.533C127.533 443.805 122.945 459.106 124.576 460.881C126.208 462.656 140.839 469.677 140.839 469.677L112.749 465.981L114.227 443.805Z" fill="#616988"/>
<path fill-rule="evenodd" clip-rule="evenodd" d="M110.195 461.645C110.195 462.998 110.188 464.796 110.188 467.151C110.188 468.35 110.387 470.34 110.387 470.34C110.387 470.34 109.819 470.339 109.819 470.69C109.819 471.627 109.819 474.29 109.819 475.271C109.819 475.475 109.984 475.639 110.188 475.64L119.945 475.664C120.149 475.664 120.315 475.499 120.315 475.294V473.433C120.315 473.433 132.051 476.009 134.08 476.009C136.109 476.009 147.652 476.203 149.425 474.769C151.197 473.334 149.056 468.827 146.996 468.827C144.936 468.827 139.588 467.864 137.138 466.573C134.687 465.283 125.371 458.471 124.423 458.471C123.476 458.471 125.434 450.228 126.016 450.74C126.597 451.253 112.52 452.306 112.52 452.306C112.52 452.306 110.195 460.292 110.195 461.645Z" fill="#642F14"/>
<path fill-rule="evenodd" clip-rule="evenodd" d="M110.387 469.601L111.85 469.8C115.783 470.343 118.604 470.822 120.315 471.235L122.5 471.759C127.927 473.051 131.698 473.858 134.08 474.029C137.926 474.306 143.362 474.001 150.388 473.113C150.434 473.788 150.266 474.387 149.794 474.769C148.431 475.872 141.067 476.011 136.818 476.017L134.08 476.009C132.92 476.009 129.384 475.378 123.47 474.116L120.315 473.432V475.294L120.307 475.369C120.278 475.514 120.164 475.627 120.019 475.656L119.945 475.664L110.188 475.64C110.009 475.639 109.861 475.513 109.826 475.345L109.819 475.27L109.819 469.95C109.819 469.717 110.008 469.6 110.387 469.601Z" fill="#49210D"/>
<path fill-rule="evenodd" clip-rule="evenodd" d="M74.1118 347.29C74.1118 347.29 79.1089 380.336 98.4155 380.336C117.722 380.336 133.662 380.336 133.662 380.336C133.662 380.336 129.479 387.672 125.205 398.35C120.932 409.028 109.352 453.796 109.352 453.796H127.261L165.161 376.331C170.662 365.088 163.105 351.839 150.629 350.849L105.774 347.29V342.534H74.1118V347.29Z" fill="#1C2731"/>
<path fill-rule="evenodd" clip-rule="evenodd" d="M108.313 448.979C108.313 448.775 108.479 448.61 108.683 448.61H130.792C131.021 448.61 131.194 448.815 131.157 449.04L130.171 454.954C130.142 455.132 129.987 455.262 129.807 455.262H108.683C108.479 455.262 108.313 455.097 108.313 454.893V448.979Z" fill="#324350"/>
<path fill-rule="evenodd" clip-rule="evenodd" d="M159.319 443.435H172.624C172.624 443.435 176.167 458.737 177.799 460.511C179.43 462.286 194.061 469.307 194.061 469.307L165.972 465.611L159.319 443.435Z" fill="#616988"/>
<path fill-rule="evenodd" clip-rule="evenodd" d="M163.418 461.275C163.418 462.628 163.411 464.426 163.411 466.781C163.411 467.98 163.61 469.971 163.61 469.971C163.61 469.971 163.042 469.97 163.042 470.32C163.042 471.257 163.042 473.921 163.042 474.901C163.042 475.105 163.207 475.27 163.41 475.27L173.168 475.294C173.372 475.294 173.538 475.129 173.538 474.924V473.063C173.538 473.063 185.274 475.639 187.303 475.639C189.332 475.639 200.875 475.833 202.648 474.399C204.42 472.965 202.279 468.457 200.219 468.457C198.159 468.457 192.811 467.494 190.36 466.204C187.91 464.913 178.593 458.101 177.646 458.101C176.699 458.101 174.222 449.858 174.803 450.37C175.385 450.883 161.308 451.936 161.308 451.936C161.308 451.936 163.418 459.922 163.418 461.275Z" fill="#823E1D"/>
<path fill-rule="evenodd" clip-rule="evenodd" d="M163.61 469.231L165.073 469.43C169.006 469.973 171.827 470.452 173.538 470.865L175.723 471.389C181.15 472.682 184.921 473.488 187.303 473.66C191.15 473.936 196.586 473.631 203.611 472.744C203.657 473.418 203.489 474.017 203.017 474.399C201.654 475.502 194.29 475.642 190.041 475.647L187.303 475.639C186.144 475.639 182.607 475.008 176.693 473.746L173.538 473.063V474.924L173.531 475C173.501 475.144 173.387 475.257 173.242 475.286L173.168 475.294L163.411 475.27C163.232 475.269 163.084 475.143 163.05 474.975L163.042 474.9L163.042 469.58C163.042 469.347 163.231 469.231 163.61 469.231Z" fill="#5E2B12"/>
<path fill-rule="evenodd" clip-rule="evenodd" d="M50.2866 347.343C50.2866 347.343 50.2866 384.085 77.5471 384.085C96.8538 384.085 135.709 384.085 135.709 384.085C135.709 384.085 135.277 394.979 139.08 404.559C142.883 414.138 159.078 454.219 159.078 454.219H178.095L158.6 372.322C156.858 365.006 151.082 359.333 143.736 357.724L96.3629 347.343V342.588H50.2866V347.343Z" fill="#283845"/>
<path fill-rule="evenodd" clip-rule="evenodd" d="M74.8055 345.106L66.4391 360.176L65.0708 344.805L74.8055 345.106Z" fill="#141D23"/>
<path d="M65.2822 342.588L66.2851 360.741C66.7613 369.361 73.8898 376.107 82.5227 376.107H138.072C140.827 376.107 143.26 377.901 144.075 380.532L166.88 454.219" stroke="#656C6D" stroke-width="0.5544"/>
<path fill-rule="evenodd" clip-rule="evenodd" d="M155.785 449.835C155.705 449.596 155.883 449.349 156.135 449.349H178.225C178.405 449.349 178.56 449.479 178.589 449.657L179.575 455.571C179.612 455.796 179.439 456.001 179.21 456.001H158.107C157.947 456.001 157.806 455.9 157.756 455.749L155.785 449.835Z" fill="#324350"/>
<path fill-rule="evenodd" clip-rule="evenodd" d="M115.411 283.622L123.943 304.305L127.965 275.264C128.473 271.636 128.764 269.611 128.836 269.189C129.11 267.591 127.231 264.218 126.999 260.901L126.968 260.386C126.736 257.075 125.608 253.131 125.769 252.019C125.934 250.869 127.433 251.614 128.37 252.363C130.458 254.034 130.304 256.298 131.634 259.064C132.104 260.042 136.566 250.134 138.344 250.134C140.123 250.134 145.53 258.603 145.53 261.276C145.53 263.059 142.87 266.645 137.549 272.035L135.542 317.926C135.292 323.636 130.461 328.063 124.751 327.813C120.979 327.648 117.596 325.442 115.925 322.057L100.466 290.76L115.411 283.622Z" fill="#FFC4A7"/>
<path fill-rule="evenodd" clip-rule="evenodd" d="M127.399 274.383L127.77 270.09L139.028 273.18L138.724 276.848L127.399 274.383Z" fill="#E3E9FF"/>
<path fill-rule="evenodd" clip-rule="evenodd" d="M108.494 263.82C106.349 258.743 100.382 256.506 95.4286 258.922L93.6531 259.788C88.8561 262.128 86.8847 267.928 89.2624 272.706L113.668 321.75C119.214 332.897 135.933 329.547 136.757 317.124L139.502 275.744L126.978 272.681L123.179 298.591L108.494 263.82Z" fill="#283845"/>
<path fill-rule="evenodd" clip-rule="evenodd" d="M104.987 303.836L114.191 322.864L104.987 278.931V303.836Z" fill="#080708" fill-opacity="0.340226"/>
<path d="M123.179 298.591L121.882 310.748" stroke="#060606" stroke-opacity="0.211948" stroke-width="0.924" stroke-linecap="round"/>
<path fill-rule="evenodd" clip-rule="evenodd" d="M45.05 265.501C44.9981 261.314 48.1346 257.772 52.2972 257.317L78.7769 254.423L98.7346 257.215C102.513 257.743 105.416 260.827 105.715 264.631L112.226 347.563H46.0673L45.05 265.501Z" fill="#E3E9FF"/>
<path fill-rule="evenodd" clip-rule="evenodd" d="M80.963 264.573H83.545L84.1159 261.264L78.9302 261.888L80.963 264.573Z" fill="#0A2650"/>
<path fill-rule="evenodd" clip-rule="evenodd" d="M80.9629 264.573L85.6476 325.065L93.1597 333.148L97.2253 325.588L83.5449 264.276L80.9629 264.573Z" fill="#0A2650"/>
<path fill-rule="evenodd" clip-rule="evenodd" d="M44.9875 265.44C44.971 261.278 48.0987 257.776 52.2353 257.324L67.9661 255.605C67.9661 255.605 70.4971 257.054 77.6387 276.787C84.7803 296.519 89.8334 316.025 89.8334 316.025C89.8334 316.025 91.5827 287.672 91.4267 277.614C91.2708 267.556 88.9001 255.839 88.9001 255.839L98.7662 257.219C102.53 257.746 105.427 260.809 105.743 264.597L112.965 351.259H96.5683L90.9422 323.548L89.4287 351.259H45.3281L44.9875 265.44Z" fill="#283845"/>
<path fill-rule="evenodd" clip-rule="evenodd" d="M88.8999 255.839L90.7929 256.104L100.234 277.408L95.0076 281.9L98.7036 284.403L89.8914 315.078L90.175 310.35C91.1025 294.537 91.5197 283.625 91.4265 277.614C91.3225 270.909 90.4803 263.651 88.8999 255.839Z" fill="#51677A"/>
<path fill-rule="evenodd" clip-rule="evenodd" d="M67.9663 255.605C69.6537 256.571 72.8779 263.632 77.6389 276.787C82.0666 289.021 85.8923 301.189 89.1158 313.293L89.464 315.408L71.1539 285.683L75.82 282.087L68.0239 278.078L67.9663 255.605Z" fill="#51677A"/>
<path fill-rule="evenodd" clip-rule="evenodd" d="M94.2684 319.103C95.289 319.103 96.1164 318.276 96.1164 317.255C96.1164 316.235 95.289 315.407 94.2684 315.407C93.2478 315.407 92.4204 316.235 92.4204 317.255C92.4204 318.276 93.2478 319.103 94.2684 319.103Z" fill="#141D23"/>
<path fill-rule="evenodd" clip-rule="evenodd" d="M95.3773 325.756C96.3979 325.756 97.2253 324.929 97.2253 323.908C97.2253 322.887 96.3979 322.06 95.3773 322.06C94.3567 322.06 93.5293 322.887 93.5293 323.908C93.5293 324.929 94.3567 325.756 95.3773 325.756Z" fill="#141D23"/>
<path fill-rule="evenodd" clip-rule="evenodd" d="M59.3556 277.408L45.1118 324.14V296.434L59.3556 277.408Z" fill="#080708" fill-opacity="0.340226"/>
<path fill-rule="evenodd" clip-rule="evenodd" d="M46.231 295.254L38.2894 309.802C38.2894 309.802 69.0424 321.726 78.9504 324.474C82.3626 325.42 86.7857 316.792 91.7809 318.033C93.704 318.511 86.1181 325.463 89.7387 326.098C97.8179 327.515 104.041 328.89 104.618 330.613C105.324 332.727 96.428 337.831 92.4789 338.442C90.3039 338.778 83.9498 336.509 76.2972 334.47C70.8274 333.012 48.4548 328.127 32.4497 324.67C23.9126 322.826 19.4152 313.405 23.3661 305.616L32.6757 287.261L46.231 295.254Z" fill="#FFC4A7"/>
<path fill-rule="evenodd" clip-rule="evenodd" d="M73.294 321.998L76.9565 323.417L71.0041 334.434L67.229 333.398L73.294 321.998Z" fill="#E3E9FF"/>
<path fill-rule="evenodd" clip-rule="evenodd" d="M44.3766 262.785C46.8676 257.752 53.1248 255.918 57.9382 258.811L59.5342 259.77C64.0528 262.485 65.5406 268.333 62.8687 272.877L41.9809 308.402L74.805 321.531L67.6932 335.007L28.1791 324.422C21.6436 322.671 18.3451 315.378 21.3465 309.314L44.3766 262.785Z" fill="#283845"/>
<path d="M48.4263 310.748L74.1116 320.99" stroke="#060606" stroke-opacity="0.211948" stroke-width="0.924" stroke-linecap="round"/>
<path d="M45.3428 329.021L67.6934 335.007" stroke="#060606" stroke-opacity="0.211948" stroke-width="0.924" stroke-linecap="round"/>
<path fill-rule="evenodd" clip-rule="evenodd" d="M73.1464 255.539C73.1464 259.33 76.2192 262.401 80.0097 262.401C84.1099 262.401 87.2953 258.829 86.8284 254.756L86.2263 249.502C86.2263 249.502 94.8848 250.188 97.8171 246.001C99.4534 243.665 100.051 232.733 100.259 223.527C100.428 216.045 94.3272 210.028 86.8425 210.028H84.0645C76.5119 210.028 70.3893 216.153 70.3893 223.705C70.3893 225.784 70.3893 227.337 70.3893 227.61C64.5687 229.325 65.7341 237.315 73.1464 237.315C73.1464 243.274 73.1464 250.406 73.1464 255.539Z" fill="#FFC4A7"/>
<path fill-rule="evenodd" clip-rule="evenodd" d="M72.7776 227.413C72.9687 227.394 73.1422 227.525 73.1771 227.714L74.1514 232.99C74.2331 233.432 74.6188 233.753 75.0686 233.753C75.4894 233.753 75.8578 233.472 75.97 233.067C76.3071 231.848 77.0111 229.34 77.3705 228.328C77.6076 227.66 78.5987 225.956 79.5465 224.395C80.7134 222.473 82.8497 221.374 85.0972 221.451C87.462 221.531 90.6203 221.616 93.4397 221.616C97.6876 221.616 99.5659 221.503 100.166 221.456C100.306 221.445 100.423 221.355 100.465 221.22C100.858 219.968 102.591 213.58 98.1393 210.587C95.2015 208.613 87.6126 208.366 80.005 208.713C70.5661 209.144 65.5078 219.468 70.209 227.665L72.7776 227.413Z" fill="#546A8B"/>
<path fill-rule="evenodd" clip-rule="evenodd" d="M90.5728 239.316C90.5728 238.935 90.8192 238.599 91.1878 238.503C92.0222 238.284 93.5811 237.938 95.0761 237.938C96.5625 237.938 98.0489 238.28 98.8465 238.499C99.2059 238.597 99.4432 238.927 99.4432 239.3C99.4432 239.899 98.8474 240.332 98.2652 240.193C97.4419 239.996 96.2784 239.786 95.0761 239.786C93.8389 239.786 92.6018 240.009 91.7382 240.21C91.158 240.345 90.5728 239.912 90.5728 239.316Z" fill="#546A8B"/>
<path fill-rule="evenodd" clip-rule="evenodd" d="M89.4639 239.865C89.4639 239.378 89.7811 238.948 90.246 238.805L91.3337 238.47L92.0511 238.618V246.069H89.4639V239.865Z" fill="#546A8B"/>
<path d="M89.4639 244.59H99.8127V246.069C99.8127 248.314 97.9924 250.134 95.7471 250.134H93.5295C91.2841 250.134 89.4639 248.314 89.4639 246.069V244.59Z" fill="#546A8B"/>
<path fill-rule="evenodd" clip-rule="evenodd" d="M98.3345 238.584H98.7041C99.3164 238.584 99.8129 239.08 99.8129 239.693V246.069H98.3345V238.584Z" fill="#546A8B"/>
<path fill-rule="evenodd" clip-rule="evenodd" d="M86.3287 249.518C86.3287 249.518 83.7586 249.172 81.78 248.548C79.8014 247.924 77.2983 246.665 77.2983 246.665C77.2983 246.665 80.6947 249.964 82.4802 251.382C84.2657 252.801 86.7566 254.177 86.7566 254.177L86.3287 249.518Z" fill="#F19B93"/>
<path fill-rule="evenodd" clip-rule="evenodd" d="M95.7871 228.411L99.5032 235.699C99.6099 235.908 99.4968 236.162 99.2699 236.223L95.7871 237.16V228.411Z" fill="#F19B93"/>
<path fill-rule="evenodd" clip-rule="evenodd" d="M210.76 342.2H195.64V477.44H210.76V342.2Z" fill="#A7C3FF"/>
<path fill-rule="evenodd" clip-rule="evenodd" d="M213.28 342.2H203.2V477.44H213.28L213.28 342.2Z" fill="#C8DAFF"/>
<path fill-rule="evenodd" clip-rule="evenodd" d="M241.84 342.2H158.68V477.44H226.72H241.84V342.2Z" fill="#A7C3FF"/>
<path fill-rule="evenodd" clip-rule="evenodd" d="M277.12 342.2H211.6V477.44L277.12 477.826L277.12 342.2Z" fill="#C8DAFF"/>
<path fill-rule="evenodd" clip-rule="evenodd" d="M286.36 342.2L271.24 342.278V477.826H286.36V342.2Z" fill="#A7C3FF"/>
<rect width="70.56" height="5.04" transform="matrix(-1 0 0 1 278.8 347.24)" fill="#A7C3FF"/>
<path fill-rule="evenodd" clip-rule="evenodd" d="M288.88 342.2H278.8V477.826H288.88V342.2Z" fill="#C8DAFF"/>
<path fill-rule="evenodd" clip-rule="evenodd" d="M51.1602 342.2H36.0402V477.44H51.1602V342.2Z" fill="#A7C3FF"/>
<path fill-rule="evenodd" clip-rule="evenodd" d="M53.6802 342.2H43.6002V477.44H53.6802L53.6802 342.2Z" fill="#C8DAFF"/>
<path fill-rule="evenodd" clip-rule="evenodd" d="M118.36 342.2H103.24V477.44H118.36V342.2Z" fill="#A7C3FF"/>
<path fill-rule="evenodd" clip-rule="evenodd" d="M120.88 342.2H110.8V477.44H120.88L120.88 342.2Z" fill="#C8DAFF"/>
<path fill-rule="evenodd" clip-rule="evenodd" d="M220 339.68C220 338.752 219.248 338 218.32 338H22.6C21.6721 338 20.92 338.752 20.92 339.68V348.92C20.92 349.848 21.6722 350.6 22.6 350.6H218.32C219.248 350.6 220 349.848 220 348.92V339.68Z" fill="#A7C3FF"/>
<path fill-rule="evenodd" clip-rule="evenodd" d="M304 339.68C304 338.752 303.248 338 302.32 338H106.6C105.672 338 104.92 338.752 104.92 339.68V348.92C104.92 349.848 105.672 350.6 106.6 350.6H302.32C303.248 350.6 304 349.848 304 348.92V339.68Z" fill="#C8DAFF"/>
<path d="M90.2241 429.925C90.0848 427.557 88.1238 425.708 85.7518 425.708H19.1273C16.5496 425.708 14.5036 427.878 14.655 430.451L17.1519 472.899C17.2912 475.267 19.2522 477.116 21.6242 477.116H88.2487C90.8264 477.116 92.8724 474.946 92.721 472.373L90.2241 429.925Z" fill="#1075F0"/>
<path d="M87.0814 428.147C87.0087 426.965 86.0293 426.044 84.8456 426.044H13.7341C12.4429 426.044 11.419 427.133 11.4983 428.422L13.9881 468.905C14.2061 472.449 17.1443 475.212 20.6955 475.212H85.2121C87.7945 475.212 89.8422 473.035 89.6836 470.457L87.0814 428.147Z" fill="#EAEFFF"/>
<path d="M84.9481 430.286C85.0028 427.774 82.9816 425.708 80.4692 425.708H13.8313C11.3951 425.708 9.40544 427.655 9.35238 430.09L8.42758 472.538C8.37286 475.05 10.3941 477.116 12.9065 477.116H79.5444C81.9806 477.116 83.9703 475.169 84.0233 472.734L84.9481 430.286Z" fill="#467FFF"/>
<path d="M87.5054 424.907C88.6412 424.917 89.5898 425.775 89.7126 426.905L90.9613 438.396C91.0333 439.059 90.5143 439.637 89.8479 439.637H87.9578C87.4727 439.637 87.0428 439.325 86.8927 438.864L83.2221 427.583C82.9232 426.665 82.069 426.041 81.1029 426.036L13.9783 425.712C13.5789 425.71 13.2562 425.385 13.2562 424.986C13.2562 424.583 13.5849 424.257 13.9881 424.261L87.5054 424.907Z" fill="#1075F0"/>
<path d="M57.1602 424.924H39.2402L41.2349 440.882C41.375 442.003 42.3279 442.844 43.4576 442.844H50.9312C51.9591 442.844 52.855 442.145 53.1043 441.147L57.1602 424.924Z" fill="#1075F0"/>
<path d="M41.1108 415C39.6462 415 38.2799 415.715 37.4444 416.905L37.3026 417.12L33.248 423.664L35.1521 424.844L39.2067 418.3C39.5837 417.692 40.2265 417.303 40.933 417.247L41.1108 417.24H56.1695C56.9682 417.24 57.7015 417.665 58.1012 418.346L58.1874 418.508L61.1911 424.74L63.209 423.768L60.2053 417.535C59.4923 416.056 58.0308 415.091 56.4031 415.006L56.1695 415H41.1108Z" fill="#1075F0"/>
<rect width="7.84" height="3.36" rx="1.12" transform="matrix(-1 0 0 1 66.1201 422.684)" fill="#1075F0"/>
<rect width="7.84" height="3.36" rx="1.12" transform="matrix(-1 0 0 1 38.1201 422.684)" fill="#1075F0"/>
<path d="M49.3198 438.364C49.3198 437.746 48.8184 437.244 48.1998 437.244H44.8398C44.2213 437.244 43.7198 437.746 43.7198 438.364V447.324C43.7198 447.943 44.2213 448.444 44.8398 448.444H48.1998C48.8184 448.444 49.3198 447.943 49.3198 447.324V438.364Z" fill="#EAEFFF"/>
<path fill-rule="evenodd" clip-rule="evenodd" d="M220 330C220 328.895 220.895 328 222 328H276C277.105 328 278 328.895 278 330V336C278 337.105 277.105 338 276 338H222C220.895 338 220 337.105 220 336V330Z" fill="#FF326F"/>
<path fill-rule="evenodd" clip-rule="evenodd" d="M220 330C220 328.895 220.895 328 222 328L251 328C252.105 328 253 328.895 253 330V336C253 337.105 252.105 338 251 338H222C220.895 338 220 337.105 220 336V330Z" fill="#FF5D8E"/>
<path d="M222 330.8C222 329.806 222.806 329 223.8 329L277 329C277.552 329 278 329.448 278 330V336C278 336.552 277.552 337 277 337H223.8C222.806 337 222 336.194 222 335.2V330.8Z" fill="#EAEFFF"/>
<path fill-rule="evenodd" clip-rule="evenodd" d="M253 330.8C253 329.806 253.806 329 254.8 329H277C277.552 329 278 329.448 278 330V336C278 336.552 277.552 337 277 337H254.8C253.806 337 253 336.194 253 335.2V330.8Z" fill="#C1D7FF"/>
<path d="M216 310C216 308.895 216.895 308 218 308H272C273.105 308 274 308.895 274 310V316C274 317.105 273.105 318 272 318H218C216.895 318 216 317.105 216 316V310Z" fill="#F5AC00"/>
<path d="M216 310C216 308.895 216.895 308 218 308L247 308C248.105 308 249 308.895 249 310V316C249 317.105 248.105 318 247 318H218C216.895 318 216 317.105 216 316V310Z" fill="#FFBF29"/>
<path d="M218 310.8C218 309.806 218.806 309 219.8 309L273 309C273.552 309 274 309.448 274 310V316C274 316.552 273.552 317 273 317H219.8C218.806 317 218 316.194 218 315.2V310.8Z" fill="#EAEFFF"/>
<path fill-rule="evenodd" clip-rule="evenodd" d="M249 310.8C249 309.806 249.806 309 250.8 309H273C273.552 309 274 309.448 274 310V316C274 316.552 273.552 317 273 317H250.8C249.806 317 249 316.194 249 315.2V310.8Z" fill="#C1D7FF"/>
<path d="M220 320C220 318.895 220.895 318 222 318H276C277.105 318 278 318.895 278 320V326C278 327.105 277.105 328 276 328H222C220.895 328 220 327.105 220 326V320Z" fill="#1075F0"/>
<path d="M220 320C220 318.895 220.895 318 222 318L251 318C252.105 318 253 318.895 253 320V326C253 327.105 252.105 328 251 328H222C220.895 328 220 327.105 220 326V320Z" fill="#467FFF"/>
<path d="M220 320.8C220 319.806 220.806 319 221.8 319L250 319C251.105 319 252 319.895 252 321V325C252 326.105 251.105 327 250 327H221.8C220.806 327 220 326.194 220 325.2V320.8Z" fill="#EAEFFF"/>
<path d="M204.774 336.55C204.774 336.138 204.44 335.804 204.028 335.804H105.797C105.385 335.804 105.051 336.138 105.051 336.55V337.826C105.051 338.238 105.385 338.573 105.797 338.573H204.028C204.44 338.573 204.774 338.238 204.774 337.826V336.55Z" fill="#B34EE6"/>
<path d="M139.083 336.55C139.083 336.138 138.749 335.804 138.337 335.804H105.798C105.385 335.804 105.051 336.138 105.051 336.55V337.826C105.051 338.238 105.385 338.573 105.798 338.573H138.337C138.749 338.573 139.083 338.238 139.083 337.826V336.55Z" fill="#8330AD"/>
<path d="M209.48 298.058C209.756 295.905 208.079 294 205.909 294H145.446C143.635 294 142.105 295.346 141.875 297.142L137.423 331.865C137.147 334.018 138.824 335.923 140.994 335.923H201.457C203.269 335.923 204.798 334.578 205.028 332.781L209.48 298.058Z" fill="#8330AD"/>
<path d="M209.48 298.058C209.756 295.905 208.079 294 205.909 294H147.596C145.784 294 144.255 295.346 144.025 297.142L139.573 331.865C139.297 334.018 140.974 335.923 143.144 335.923H201.457C203.269 335.923 204.798 334.578 205.028 332.781L209.48 298.058Z" fill="#B34EE6"/>
<path fill-rule="evenodd" clip-rule="evenodd" d="M172.823 320.355C170.936 318.933 170.664 316.113 172.215 314.055C173.766 311.997 176.552 311.481 178.438 312.902C180.325 314.324 180.597 317.145 179.046 319.202C177.495 321.26 174.709 321.776 172.823 320.355Z" fill="white"/>
</svg>
