<?xml version="1.0" encoding="UTF-8"?>
<svg width="1229px" height="778px" viewBox="0 0 1229 778" version="1.1" xmlns="http://www.w3.org/2000/svg" xmlns:xlink="http://www.w3.org/1999/xlink">
    <title>word搜索</title>
    <g id="Page-1" stroke="none" stroke-width="1" fill="none" fill-rule="evenodd">
        <g id="30-Startup-Story-Illustrations" transform="translate(-235.000000, -13508.000000)">
            <g id="word搜索" transform="translate(245.000000, 13508.000000)">
                <g id="Back">
                    <rect id="Rectangle" fill="#CCE3FF" x="65.2822567" y="612.402854" width="10.2797462" height="29.0772071"></rect>
                    <rect id="Rectangle" fill="#CCE3FF" x="118.627857" y="612.402854" width="10.2797462" height="29.0772071"></rect>
                    <rect id="Rectangle" fill="#CCE3FF" x="267.383862" y="612.402854" width="10.2797462" height="29.0772071"></rect>
                    <rect id="Rectangle" fill="#CCE3FF" x="322.282816" y="612.402854" width="10.2797462" height="29.0772071"></rect>
                    <path d="M141.897086,163.447237 C146.664035,163.447237 150.528411,167.310904 150.528411,172.076977 L150.528411,249.723925 L133.279571,249.723925 L133.279571,172.076977 C133.279571,167.310904 137.143947,163.447237 141.910896,163.447237 L141.897086,163.447237 Z" id="Path" fill="#DCEEFF" transform="translate(141.903991, 206.585581) rotate(-90.000000) translate(-141.903991, -206.585581) "></path>
                    <path d="M168.017584,189.574639 C170.778601,189.574639 173.016847,191.812474 173.016847,194.572985 L173.016847,223.40322 C173.016847,223.517605 172.924102,223.610333 172.809695,223.610333 L163.225472,223.610333 C163.111065,223.610333 163.018321,223.517605 163.018321,223.40322 L163.018321,194.566081 C163.02213,191.808268 165.259261,189.574639 168.017584,189.574639 Z" id="Path" fill="#CCE3FF" transform="translate(168.017584, 206.592486) rotate(-90.000000) translate(-168.017584, -206.592486) "></path>
                    <path d="M125.97881,177.157887 L143.24146,177.157887 L143.24146,261.922645 C143.24146,266.688718 139.377085,270.552385 134.610135,270.552385 C129.843187,270.552385 125.97881,266.688718 125.97881,261.922645 L125.97881,177.157887 Z" id="Path" fill="#DCEEFF" transform="translate(134.610135, 223.855136) rotate(-90.000000) translate(-134.610135, -223.855136) "></path>
                    <path d="M102.8794,203.965313 L112.77435,203.965313 L112.77435,238.808751 C112.77435,241.542571 110.557744,243.75877 107.823422,243.75877 C105.0891,243.75877 102.872495,241.542571 102.872495,238.808751 L102.872495,203.965313 L102.8794,203.965313 Z" id="Path" fill="#CCE3FF" transform="translate(107.823422, 223.862041) rotate(-90.000000) translate(-107.823422, -223.862041) "></path>
                    <rect id="Rectangle" stroke="#DCEEFF" stroke-width="4.74999994" fill="#DCEEFF" transform="translate(178.231746, 125.889600) rotate(-180.000000) translate(-178.231746, -125.889600) " x="134.996748" y="89.551722" width="86.4699942" height="72.6757551"></rect>
                    <rect id="Rectangle" stroke="#DCEEFF" stroke-width="4.74999994" fill="#FFFFFF" transform="translate(173.150553, 125.993175) rotate(-180.000000) translate(-173.150553, -125.993175) " x="129.915556" y="89.6552974" width="86.4699942" height="72.6757551"></rect>
                    <rect id="Rectangle" fill="#DCEEFF" x="144.641345" y="104.473556" width="55.7826389" height="42.8389914"></rect>
                    <path d="M253.645316,216.135279 L262.212922,132.63239 L288.999635,132.63239 L297.601759,216.135279 C298.029583,220.31233 296.668057,224.475126 293.85471,227.591699 C291.041362,230.708271 287.039593,232.486461 282.841452,232.486461 L268.405624,232.486461 C264.207483,232.486461 260.205714,230.708271 257.392366,227.591699 C254.579018,224.475126 253.217493,220.31233 253.645316,216.135279 Z" id="Path" fill="#DCEEFF"></path>
                    <rect id="Rectangle" fill="#DCEEFF" x="65.2822567" y="249.80435" width="202.094701" height="362.598504"></rect>
                    <rect id="Rectangle" fill="#CCE3FF" x="78.5168258" y="540.389985" width="175.632467" height="53.7627961"></rect>
                    <rect id="Rectangle" fill="#CCE3FF" x="78.5168258" y="471.981557" width="175.632467" height="53.7627961"></rect>
                    <rect id="Rectangle" fill="#CCE3FF" x="78.5168258" y="403.573128" width="175.632467" height="53.7627961"></rect>
                    <rect id="Rectangle" fill="#CCE3FF" x="78.5168258" y="335.164701" width="175.632467" height="53.7627961"></rect>
                    <rect id="Rectangle" fill="#CCE3FF" x="78.5168258" y="266.756273" width="175.632467" height="53.7627961"></rect>
                    <rect id="Rectangle" fill="#CCE3FF" x="267.383862" y="249.80435" width="65.1786998" height="362.598504"></rect>
                    <rect id="Rectangle" fill="#CCE3FF" x="55.2096242" y="232.486461" width="220.596865" height="17.3178901"></rect>
                    <rect id="Rectangle" fill="#B6D4FF" x="275.806488" y="232.486461" width="67.664065" height="17.3178901"></rect>
                    <path d="M133.816199,266.756273 L198.829208,266.756273 L198.829208,269.166139 C198.829208,271.015788 198.094573,272.78968 196.786914,274.097579 C195.479254,275.405479 193.705688,276.140249 191.856379,276.140249 L140.768318,276.140249 C136.917331,276.140249 133.795488,273.017834 133.795488,269.166139 L133.795488,266.756273 L133.816199,266.756273 Z" id="Path" fill="#B6D4FF"></path>
                    <path d="M133.816199,335.164701 L198.829208,335.164701 L198.829208,337.574567 C198.829208,339.424216 198.094573,341.198108 196.786914,342.506008 C195.479254,343.813907 193.705688,344.548677 191.856379,344.548677 L140.768318,344.548677 C136.917331,344.548677 133.795488,341.426261 133.795488,337.574567 L133.795488,335.164701 L133.816199,335.164701 Z" id="Path" fill="#B6D4FF"></path>
                    <path d="M133.816199,403.573128 L198.829208,403.573128 L198.829208,406.01752 C198.829208,407.867169 198.094573,409.641061 196.786914,410.948961 C195.479254,412.25686 193.705688,412.991631 191.856379,412.991631 L140.768318,412.991631 C136.917331,412.991631 133.795488,409.869214 133.795488,406.01752 L133.795488,403.607654 L133.816199,403.573128 Z" id="Path" fill="#B6D4FF"></path>
                    <path d="M133.816199,471.981557 L198.829208,471.981557 L198.829208,474.377613 C198.829208,476.227262 198.094573,478.001154 196.786914,479.309054 C195.479254,480.616953 193.705688,481.351723 191.856379,481.351723 L140.768318,481.351723 C136.917331,481.351723 133.795488,478.229307 133.795488,474.377613 L133.795488,471.967747 L133.816199,471.981557 Z" id="Path" fill="#B6D4FF"></path>
                    <path d="M133.816199,540.389985 L198.829208,540.389985 L198.829208,542.79985 C198.829208,544.6495 198.094573,546.423393 196.786914,547.731291 C195.479254,549.039191 193.705688,549.773961 191.856379,549.773961 L140.768318,549.773961 C136.917331,549.773961 133.795488,546.651546 133.795488,542.79985 L133.795488,540.389985 L133.816199,540.389985 Z" id="Path" fill="#B6D4FF"></path>
                    <rect id="Rectangle" fill="#B6D4FF" transform="translate(649.570881, 387.242662) rotate(180.000000) translate(-649.570881, -387.242662) " x="644.351614" y="130.505631" width="10.4385334" height="513.474062"></rect>
                    <path d="M654.451861,109.769737 C653.283003,49.2191806 603.872243,0.7443028 543.321523,0.7443028 C482.770802,0.7443028 433.360042,49.2191806 432.191184,109.769737 L654.451861,109.769737 Z" id="Path" fill="#B6D4FF"></path>
                    <rect id="Rectangle" fill="#DCEEFF" x="422.995333" y="130.505632" width="223.434322" height="513.474062"></rect>
                    <rect id="Rectangle" fill="#CCE3FF" x="443.21654" y="150.903178" width="182.991909" height="493.076515"></rect>
                    <path d="M646.167311,109.079231 C644.998453,48.5286746 595.587693,0.0537968139 535.036973,0.0537968139 C474.486252,0.0537968139 425.075491,48.5286746 423.906633,109.079231 L646.167311,109.079231 Z" id="Path" fill="#DCEEFF"></path>
                    <path d="M646.167311,109.769737 C644.998453,49.2191806 595.587693,0.7443028 535.036973,0.7443028 C474.486252,0.7443028 425.075491,49.2191806 423.906633,109.769737 L646.167311,109.769737 Z" id="Path" fill="#DCEEFF"></path>
                    <path d="M612.870322,89.2893291 L447.993964,89.2893291 C456.533955,49.6266652 490.217555,20.0246736 530.432143,20.0246736 C570.646731,20.0246736 604.330332,49.6266652 612.870322,89.2893291 Z" id="Path" fill="#B6D4FF"></path>
                    <path d="M621.389602,89.2893291 L456.513243,89.2893291 C465.053233,49.6266652 498.716123,20.0246736 538.951422,20.0246736 C579.186721,20.0246736 612.849612,49.6266652 621.389602,89.2893291 Z" id="Path" fill="#FFFFFF"></path>
                    <ellipse id="Oval" fill="#FFFFFF" cx="534.712494" cy="260.003124" rx="6.6897744" ry="6.69100301"></ellipse>
                    <ellipse id="Oval" fill="#DCEEFF" cx="607.526788" cy="367.086792" rx="7.96697591" ry="7.96843909"></ellipse>
                    <ellipse id="Oval" fill="#DCEEFF" cx="607.526788" cy="395.397538" rx="7.96697591" ry="7.96843909"></ellipse>
                    <line x1="610.184747" y1="367.086792" x2="576.618512" y2="367.086792" id="Path" stroke="#DCEEFF" stroke-width="8.54999989"></line>
                    <line x1="756.98698" y1="498.717949" x2="756.98698" y2="643.800162" id="Path" stroke="#B6D4FF" stroke-width="12.3499998"></line>
                    <line x1="1150.55835" y1="498.717949" x2="1150.55835" y2="643.800162" id="Path" stroke="#B6D4FF" stroke-width="12.3499998"></line>
                    <polygon id="Path" fill="#CCE3FF" points="798.975843 601.154512 846.736275 581.509617 869.498077 581.509617 869.498077 601.154512"></polygon>
                    <polygon id="Path" fill="#DCEEFF" points="841.088973 601.154512 888.849406 581.509617 911.611208 581.509617 911.611208 601.154512"></polygon>
                    <polygon id="Path" fill="#CCE3FF" points="938.045828 601.154512 992.392479 578.802833 1018.30241 578.802833 1018.30241 601.154512"></polygon>
                    <polygon id="Path" fill="#DCEEFF" points="985.971948 601.154512 1040.3186 578.802833 1066.22163 578.802833 1066.22163 601.154512"></polygon>
                    <polygon id="Path" fill="#CCE3FF" points="709.226547 545.223527 756.98698 525.578631 779.748782 525.578631 779.748782 545.223527"></polygon>
                    <polygon id="Path" fill="#DCEEFF" points="751.339678 545.223527 799.100111 525.578631 821.861913 525.578631 821.861913 545.223527"></polygon>
                    <polygon id="Path" fill="#CCE3FF" points="844.948193 545.223527 900.717024 522.284918 927.296624 522.284918 927.296624 545.223527"></polygon>
                    <polygon id="Path" fill="#DCEEFF" points="894.123903 545.223527 949.89273 522.284918 976.472336 522.284918 976.472336 545.223527"></polygon>
                    <rect id="Rectangle" fill="#CCE3FF" x="685.014948" y="545.030186" width="387.634111" height="8.9282424"></rect>
                    <rect id="Rectangle" fill="#B6D4FF" x="1072.64906" y="545.030186" width="80.1254094" height="8.9282424"></rect>
                    <rect id="Rectangle" fill="#CCE3FF" x="685.014948" y="600.698778" width="387.634111" height="8.9282424"></rect>
                    <rect id="Rectangle" fill="#B6D4FF" x="1072.64906" y="600.698778" width="80.1254094" height="8.9282424"></rect>
                    <rect id="Rectangle" fill="#DCEEFF" x="665.60839" y="485.840012" width="417.140917" height="12.8779367"></rect>
                    <rect id="Rectangle" fill="#B6D4FF" x="1082.74931" y="485.840012" width="84.5369325" height="12.8779367"></rect>
                    <line x1="1076.52899" y1="498.717949" x2="1076.52899" y2="643.800162" id="Path" stroke="#CCE3FF" stroke-width="12.3499998"></line>
                    <line x1="686.305958" y1="498.717949" x2="686.305958" y2="643.800162" id="Path" stroke="#CCE3FF" stroke-width="12.3499998"></line>
                    <polygon id="Path" fill="#CCE3FF" points="709.226547 485.840012 756.98698 466.195117 779.748782 466.195117 779.748782 485.840012"></polygon>
                    <polygon id="Path" fill="#DCEEFF" points="751.339678 485.840012 799.100111 466.195117 821.861913 466.195117 821.861913 485.840012"></polygon>
                    <polygon id="Path" fill="#CCE3FF" points="915.69135 485.840012 962.381696 460.671069 991.550219 460.671069 991.550219 485.840012"></polygon>
                    <polygon id="Path" fill="#DCEEFF" points="969.644479 485.840012 1016.34173 460.671069 1045.51025 460.671069 1045.51025 485.840012"></polygon>
                    <line x1="874.392866" y1="123.676527" x2="874.392866" y2="383.672746" id="Path" stroke="#B6D4FF" stroke-width="17.0999998"></line>
                    <line x1="1006.0896" y1="123.676527" x2="1006.0896" y2="383.672746" id="Path" stroke="#B6D4FF" stroke-width="17.0999998"></line>
                    <line x1="752.879224" y1="123.676527" x2="752.879224" y2="383.672746" id="Path" stroke="#B6D4FF" stroke-width="17.0999998"></line>
                    <rect id="Rectangle" fill="#B6D4FF" x="1121.61766" y="117.344588" width="12.5234786" height="272.660099"></rect>
                    <path d="M1115.40424,129.083189 L1115.40424,378.266084 L753.645544,378.266084 L753.645544,129.083189 L1115.40424,129.083189 Z M1127.14069,117.344588 L741.909098,117.344588 L741.909098,390.004686 L1127.14069,390.004686 L1127.14069,117.344588 Z" id="Shape" fill="#DCEEFF" fill-rule="nonzero"></path>
                    <rect id="Rectangle" fill="#CCE3FF" x="730.635206" y="390.004686" width="375.255611" height="12.5603039"></rect>
                    <rect id="Rectangle" fill="#B6D4FF" x="1105.89082" y="390.004686" width="31.4467723" height="12.5603039"></rect>
                    <line x1="868.669622" y1="120.831643" x2="868.669622" y2="386.517631" id="Path" stroke="#DCEEFF" stroke-width="15.1999998"></line>
                    <line x1="1000.36636" y1="120.831643" x2="1000.36636" y2="386.517631" id="Path" stroke="#DCEEFF" stroke-width="15.1999998"></line>
                    <line x1="748.433182" y1="253.671184" x2="1116.72287" y2="253.671184" id="Path" stroke="#DCEEFF" stroke-width="15.1999998"></line>
                    <rect id="Rectangle" fill="#DCEEFF" x="710.931784" y="82.4533198" width="449.478278" height="13.9827463"></rect>
                    <rect id="Rectangle" fill="#B6D4FF" x="1156.6544" y="82.4533198" width="10.6318396" height="13.9827463"></rect>
                    <rect id="Rectangle" fill="#B6D4FF" x="1156.51633" y="173.5863" width="6.60692889" height="8.97657782"></rect>
                    <rect id="Rectangle" fill="#DCEEFF" x="722.461117" y="96.4291606" width="429.194938" height="77.1502339"></rect>
                    <rect id="Rectangle" fill="#CCE3FF" x="715.488286" y="173.5863" width="442.505449" height="8.97657782"></rect>
                    <rect id="Rectangle" fill="#B6D4FF" x="722.461117" y="96.4291606" width="429.194938" height="11.7316967"></rect>
                    <path d="M1030.43928,296.199448 C1031.82003,305.472943 1027.17378,313.386142 1027.17378,313.386142 C1027.17378,313.386142 1020.33212,306.26012 1018.97208,296.986625 C1017.61203,287.713129 1022.23757,279.79993 1022.23757,279.79993 C1022.23757,279.79993 1029.07923,286.932858 1030.43928,296.199448 Z" id="Path" fill="#CCE3FF"></path>
                    <path d="M1028.45098,302.262091 C1032.07183,307.157356 1034.11846,313.038306 1034.31921,319.124246 C1034.31921,319.124246 1024.21896,314.111173 1018.12982,305.762956 C1014.50533,300.869124 1012.45613,294.987728 1012.25469,288.9008 C1012.25469,288.9008 1022.35494,293.913874 1028.45098,302.262091 Z" id="Path" fill="#CCE3FF"></path>
                    <path d="M1036.10039,297.207586 C1034.47799,306.467272 1027.44303,313.503528 1027.44303,313.503528 C1027.44303,313.503528 1023.0315,305.535088 1024.647,296.240878 C1026.26248,286.946668 1033.30435,279.951842 1033.30435,279.951842 C1033.30435,279.951842 1037.68826,287.954807 1036.10039,297.207586 Z" id="Path" fill="#CCE3FF"></path>
                    <path d="M1041.17467,303.9124 C1036.07277,312.56444 1026.59386,318.109203 1026.59386,318.109203 C1026.07301,312.13401 1027.42936,306.145179 1030.47379,300.97775 C1035.5757,292.332615 1045.0546,286.787851 1045.0546,286.787851 C1045.57539,292.760842 1044.21899,298.747456 1041.17467,303.9124 Z" id="Path" fill="#CCE3FF"></path>
                    <ellipse id="Oval" fill="#D2E9FC" cx="1028.72023" cy="331.511924" rx="47.8985086" ry="33.1857177"></ellipse>
                    <rect id="Rectangle" fill="#CCE3FF" x="986.337854" y="357.59924" width="84.7578538" height="33.0752367" rx="16.5376184"></rect>
                    <line x1="1001.3467" y1="308.096866" x2="992.523651" y2="301.212521" id="Path" stroke="#B6D4FF" stroke-width="8.54999989"></line>
                    <line x1="988.767988" y1="343.699355" x2="980.821726" y2="349.175067" id="Path" stroke="#B6D4FF" stroke-width="8.54999989"></line>
                    <line x1="1011.86117" y1="340.716369" x2="1025.5721" y2="342.953608" id="Path" stroke="#B6D4FF" stroke-width="8.54999989"></line>
                    <line x1="1046.92553" y1="306.971341" x2="1055.20318" y2="296.744948" id="Path" stroke="#B6D4FF" stroke-width="8.54999989"></line>
                    <line x1="1062.04484" y1="318.109203" x2="1071.0957" y2="312.308953" id="Path" stroke="#B6D4FF" stroke-width="8.54999989"></line>
                    <line x1="1063.81221" y1="348.049543" x2="1072.42123" y2="353.601211" id="Path" stroke="#B6D4FF" stroke-width="8.54999989"></line>
                    <line x1="1015.84466" y1="320.401682" x2="1011.74381" y2="310.8727" id="Path" stroke="#B6D4FF" stroke-width="8.54999989"></line>
                    <line x1="1055.03058" y1="330.786893" x2="1045.18578" y2="335.475429" id="Path" stroke="#B6D4FF" stroke-width="8.54999989"></line>
                    <line x1="1007.41513" y1="325.3388" x2="998.039779" y2="319.103532" id="Path" stroke="#B6D4FF" stroke-width="8.54999989"></line>
                    <line x1="1209.11631" y1="643.979693" x2="0" y2="643.979693" id="Path" stroke="#DCEEFF" stroke-width="18.9999998" fill="#ECF6FF" stroke-linecap="round"></line>
                </g>
                <g id="Man" transform="translate(254.059544, 142.934739)">
                    <polygon id="Path" fill="#405FD3" points="263.711045 134.99392 208.660208 90.9327334 153.602467 134.99392 153.602467 201.738229 263.711045 201.738229"></polygon>
                    <rect id="Rectangle" fill="#FFC000" x="112.483482" y="0.317632754" width="96.6945097" height="70.7147181"></rect>
                    <line x1="123.108418" y1="13.0160378" x2="198.967284" y2="13.0160378" id="Path" stroke="#FFFFFF" stroke-width="5.69999993"></line>
                    <line x1="123.108418" y1="24.2574753" x2="198.967284" y2="24.2574753" id="Path" stroke="#FFFFFF" stroke-width="5.69999993"></line>
                    <line x1="123.108418" y1="35.4920077" x2="198.967284" y2="35.4920077" id="Path" stroke="#FFFFFF" stroke-width="5.69999993"></line>
                    <line x1="123.108418" y1="46.7265401" x2="198.967284" y2="46.7265401" id="Path" stroke="#FFFFFF" stroke-width="5.69999993"></line>
                    <rect id="Rectangle" fill="#FFC000" x="136.791734" y="46.7265401" width="73.1249643" height="24.3127158"></rect>
                    <path d="M160.858353,46.7265401 L234.728927,46.7265401 C240.771224,46.7265401 246.566046,49.1272745 250.838596,53.4006093 C255.111146,57.673944 257.51144,63.4698297 257.51144,69.5132377 L257.51144,177.390988 L160.858353,177.390988 L160.858353,46.7265401 Z" id="Path" fill="#FFC000"></path>
                    <path d="M135.314322,46.7265401 L138.220819,46.7265401 C150.841382,46.7265401 161.07237,56.9594071 161.07237,69.5822883 L161.07237,71.0323508 L112.483482,71.0323508 L112.483482,69.5822883 C112.483482,56.9674925 122.701848,46.7379734 135.314322,46.7265401 Z" id="Path" fill="#CF3E83"></path>
                    <line x1="171.90442" y1="68.1874661" x2="247.770189" y2="68.1874661" id="Path" stroke="#FFFFFF" stroke-width="5.69999993"></line>
                    <line x1="171.90442" y1="80.4991879" x2="247.770189" y2="80.4991879" id="Path" stroke="#FFFFFF" stroke-width="5.69999993"></line>
                    <line x1="171.90442" y1="92.8109096" x2="247.770189" y2="92.8109096" id="Path" stroke="#FFFFFF" stroke-width="5.69999993"></line>
                    <line x1="171.90442" y1="105.122631" x2="247.770189" y2="105.122631" id="Path" stroke="#FFFFFF" stroke-width="5.69999993"></line>
                    <line x1="171.90442" y1="117.434353" x2="247.770189" y2="117.434353" id="Path" stroke="#FFFFFF" stroke-width="5.69999993"></line>
                    <line x1="171.90442" y1="129.746075" x2="247.770189" y2="129.746075" id="Path" stroke="#FFFFFF" stroke-width="5.69999993"></line>
                    <line x1="171.90442" y1="142.057797" x2="247.770189" y2="142.057797" id="Path" stroke="#FFFFFF" stroke-width="5.69999993"></line>
                    <line x1="171.90442" y1="154.369518" x2="247.770189" y2="154.369518" id="Path" stroke="#FFFFFF" stroke-width="5.69999993"></line>
                    <path d="M344.68562,274.213738 L344.68562,309.892182 L323.283866,309.892182 C318.837637,309.890349 314.572989,311.656119 311.429031,314.800654 C308.285073,317.945191 306.519627,322.210623 306.521459,326.657667 C306.521459,335.913176 299.019765,343.416248 289.765956,343.416248 C280.512147,343.416248 273.010453,335.913176 273.010453,326.657667 L273.010453,274.213738 L344.68562,274.213738 Z" id="Path" fill="#6CA1FF"></path>
                    <line x1="281.584962" y1="285.317073" x2="336.083496" y2="285.317073" id="Path" stroke="#FFFFFF" stroke-width="5.69999993"></line>
                    <line x1="281.584962" y1="296.551606" x2="336.083496" y2="296.551606" id="Path" stroke="#FFFFFF" stroke-width="5.69999993"></line>
                    <line x1="281.584962" y1="307.786139" x2="336.083496" y2="307.786139" id="Path" stroke="#FFFFFF" stroke-width="5.69999993"></line>
                    <line x1="281.584962" y1="319.020671" x2="336.083496" y2="319.020671" id="Path" stroke="#FFFFFF" stroke-width="5.69999993"></line>
                    <path d="M411.72144,331.125241 L411.72144,431.062173 L361.544681,431.062173 C355.834428,431.064003 350.357426,428.796482 346.319021,424.75863 C342.280614,420.720777 340.011753,415.243497 340.011753,409.532195 L340.011753,326.671477 C340.013585,322.225629 338.249087,317.961245 335.106622,314.816908 C331.964157,311.67257 327.701283,309.905992 323.256251,309.905992 L390.485376,309.905992 C402.205647,309.905992 411.71001,319.402824 411.72144,331.125241 Z" id="Path" fill="#6CA1FF"></path>
                    <path d="M340.011753,326.657667 L340.011753,343.416248 L289.738341,343.416248 C298.992149,343.416248 306.493843,335.913176 306.493843,326.657667 C306.370668,320.588073 309.537694,314.926062 314.773584,311.855143 C320.009473,308.784225 326.496124,308.784225 331.732014,311.855143 C336.967903,314.926062 340.134928,320.588073 340.011753,326.657667 Z" id="Path" fill="#405FD3"></path>
                    <rect id="Rectangle" fill="#6CA1FF" x="380.847683" y="208.415422" width="105.110233" height="63.0224813"></rect>
                    <line x1="444.845834" y1="238.901261" x2="480.193249" y2="262.433705" id="Path" stroke="#FFFFFF" stroke-width="3.79999995"></line>
                    <polyline id="Path" stroke="#FFFFFF" stroke-width="3.79999995" points="480.193249 215.368817 433.399347 246.517543 386.619253 215.368817"></polyline>
                    <rect id="Rectangle" fill="#CF3E83" x="516.355312" y="226.182141" width="105.110233" height="63.0224813"></rect>
                    <line x1="522.126882" y1="280.207329" x2="557.467392" y2="256.66798" id="Path" stroke="#FFFFFF" stroke-width="3.79999995"></line>
                    <line x1="580.353463" y1="256.66798" x2="615.700877" y2="280.207329" id="Path" stroke="#FFFFFF" stroke-width="3.79999995"></line>
                    <polyline id="Path" stroke="#FFFFFF" stroke-width="3.79999995" points="615.700877 233.135536 568.913879 264.284261 522.126882 233.135536"></polyline>
                    <rect id="Rectangle" fill="#6CA1FF" x="315.910616" y="80.2229855" width="254.591136" height="86.5411153" rx="16.3114998"></rect>
                    <line x1="334.861525" y1="101.552715" x2="471.522087" y2="101.552715" id="Path" stroke="#FFFFFF" stroke-width="14.2499998"></line>
                    <line x1="334.861525" y1="121.266661" x2="540.760216" y2="121.266661" id="Path" stroke="#FFFFFF" stroke-width="5.69999993"></line>
                    <line x1="334.861525" y1="134.400085" x2="552.87637" y2="134.400085" id="Path" stroke="#FFFFFF" stroke-width="5.69999993"></line>
                    <line x1="334.861525" y1="147.533509" x2="479.309564" y2="147.533509" id="Path" stroke="#FFFFFF" stroke-width="5.69999993"></line>
                    <polygon id="Path" fill="#6CA1FF" points="263.711045 201.738229 153.602467 201.738229 153.602467 134.99392 208.660208 171.715028 263.711045 134.99392"></polygon>
                    <polyline id="Path" stroke="#FFFFFF" stroke-width="4.74999994" fill="#6CA1FF" points="160.043705 192.416398 208.660208 163.636108 257.269807 192.416398"></polyline>
                    <ellipse id="Oval" fill="#405FD3" cx="123.84022" cy="193.472873" rx="5.63349423" ry="5.63452885"></ellipse>
                    <ellipse id="Oval" fill="#405FD3" cx="94.0158388" cy="193.472873" rx="5.63349423" ry="5.63452885"></ellipse>
                    <ellipse id="Oval" fill="#405FD3" cx="94.0158388" cy="163.643013" rx="5.63349423" ry="5.63452885"></ellipse>
                    <ellipse id="Oval" fill="#405FD3" cx="123.84022" cy="163.643013" rx="5.63349423" ry="5.63452885"></ellipse>
                    <ellipse id="Oval" fill="#405FD3" cx="239.064508" cy="382.3815" rx="5.63349423" ry="5.63452885"></ellipse>
                    <ellipse id="Oval" fill="#405FD3" cx="209.240127" cy="382.3815" rx="5.63349423" ry="5.63452885"></ellipse>
                    <ellipse id="Oval" fill="#405FD3" cx="209.240127" cy="352.551641" rx="5.63349423" ry="5.63452885"></ellipse>
                    <ellipse id="Oval" fill="#405FD3" cx="239.064508" cy="352.551641" rx="5.63349423" ry="5.63452885"></ellipse>
                    <ellipse id="Oval" fill="#405FD3" cx="179.415746" cy="382.3815" rx="5.63349423" ry="5.63452885"></ellipse>
                    <ellipse id="Oval" fill="#405FD3" cx="179.415746" cy="352.551641" rx="5.63349423" ry="5.63452885"></ellipse>
                    <rect id="Rectangle" fill="#FFC000" x="10.6249358" y="223.599649" width="232.699212" height="86.5411153" rx="16.3114998"></rect>
                    <rect id="Rectangle" fill="#6CA1FF" x="292.486049" y="18.6919971" width="169.612361" height="29.3879348" rx="14.6939674"></rect>
                    <line x1="27.939646" y1="244.922474" x2="152.849953" y2="244.922474" id="Path" stroke="#FFFFFF" stroke-width="14.2499998"></line>
                    <line x1="325.189312" y1="33.3928695" x2="414.427727" y2="33.3928695" id="Path" stroke="#FFFFFF" stroke-width="12.3499998"></line>
                    <line x1="27.939646" y1="264.63642" x2="216.130111" y2="264.63642" id="Path" stroke="#FFFFFF" stroke-width="5.69999993"></line>
                    <line x1="27.939646" y1="277.776749" x2="227.210697" y2="277.776749" id="Path" stroke="#FFFFFF" stroke-width="5.69999993"></line>
                    <line x1="27.939646" y1="290.910172" x2="159.967763" y2="290.910172" id="Path" stroke="#FFFFFF" stroke-width="5.69999993"></line>
                    <path d="M533.525139,358.193075 C533.525139,370.258755 526.257817,381.136241 515.112362,385.752931 C503.966907,390.369622 491.138367,387.81624 482.609197,379.283529 C474.080028,370.750817 471.530085,357.91933 476.148508,346.772898 C480.76693,335.626464 491.644101,328.360424 503.707564,328.363136 C511.622473,328.344819 519.218405,331.481912 524.814458,337.080289 C530.41051,342.678665 533.545269,350.276718 533.525139,358.193075 Z" id="Path" fill="#405FD3"></path>
                    <ellipse id="Oval" fill="#FFC000" cx="503.707564" cy="353.55978" rx="11.4464871" ry="11.4485893"></ellipse>
                    <path d="M524.736514,379.322559 C513.098402,390.932421 494.261497,390.932421 482.623384,379.322559 C486.035779,370.675794 494.385676,364.993771 503.679949,364.993771 C512.974223,364.993771 521.32412,370.675794 524.736514,379.322559 Z" id="Path" fill="#FFC000"></path>
                    <rect id="Rectangle" fill="#FFC000" x="531.778383" y="208.415422" width="105.110233" height="63.0224813"></rect>
                    <line x1="537.543049" y1="262.433705" x2="572.890464" y2="238.901261" id="Path" stroke="#FFFFFF" stroke-width="3.79999995"></line>
                    <line x1="595.76963" y1="238.901261" x2="631.123948" y2="262.433705" id="Path" stroke="#FFFFFF" stroke-width="3.79999995"></line>
                    <polyline id="Path" stroke="#FFFFFF" stroke-width="3.79999995" points="631.123948 215.368817 584.330047 246.517543 537.543049 215.368817"></polyline>
                    <ellipse id="Oval" fill="#FFFFFF" cx="308.882555" cy="33.3928695" rx="8.24312759" ry="8.24464148"></ellipse>
                    <ellipse id="Oval" fill="#AFB3C6" cx="327.184508" cy="631.426294" rx="327.101663" ry="2.65844805"></ellipse>
                    <line x1="386.619253" y1="262.433705" x2="421.959764" y2="238.901261" id="Path" stroke="#515256" stroke-width="2.84999996" stroke-linecap="round"></line>
                    <path d="M419.363938,327.838432 L407.627492,323.384668 L416.83715,260.583149 L398.693985,225.167097 L423.071274,210.286693 C423.071274,210.286693 436.285133,244.452929 436.947896,255.721987 C438.10083,275.463553 419.363938,327.838432 419.363938,327.838432 Z" id="Path" fill="#E576C6"></path>
                    <polygon id="Path" fill="#FF9100" points="430.465236 217.281519 397.796492 229.441329 386.895405 190.84895 412.542992 182.231435"></polygon>
                    <line x1="246.368719" y1="185.525149" x2="250.103671" y2="219.850201" id="Path" stroke="#1D294F" stroke-width="7.5999999" stroke-linecap="round"></line>
                    <line x1="245.429804" y1="177.846722" x2="246.637967" y2="187.969539" id="Path" stroke="#1D294F" stroke-width="4.74999994" stroke-linecap="round"></line>
                    <ellipse id="Oval" fill="#FFC000" transform="translate(243.316585, 155.720040) rotate(-3.180000) translate(-243.316585, -155.720040) " cx="243.316585" cy="155.72004" rx="16.7693202" ry="20.5632567"></ellipse>
                    <line x1="229.730581" y1="146.44251" x2="245.360766" y2="146.44251" id="Path" stroke="#FFFFFF" stroke-width="14.2499998"></line>
                    <line x1="230.16552" y1="166.68124" x2="245.360766" y2="166.68124" id="Path" stroke="#FFFFFF" stroke-width="14.2499998"></line>
                    <ellipse id="Oval" stroke="#1D294F" stroke-width="7.5999999" stroke-linecap="round" transform="translate(243.316585, 155.720040) rotate(-3.180000) translate(-243.316585, -155.720040) " cx="243.316585" cy="155.72004" rx="16.7693202" ry="20.5632567"></ellipse>
                    <path d="M379.929479,631.426294 L451.135189,631.426294 L448.58769,589.478055 L428.076524,596.383116 L430.340968,611.256615 C430.340968,611.256615 396.622847,619.294104 379.929479,631.426294 Z" id="Path" fill="#0D0B6D"></path>
                    <polygon id="Path" fill="#CF3E83" points="449.050243 592.716529 449.878699 610.718019 430.340968 611.24971 428.421713 598.896557"></polygon>
                    <path d="M331.533897,631.426294 L398.673274,631.426294 L396.125775,589.478055 L375.607705,596.383116 L377.879053,611.256615 C377.879053,611.256615 348.227266,619.294104 331.533897,631.426294 Z" id="Path" fill="#0D0B6D"></path>
                    <polygon id="Path" fill="#CF3E83" points="396.588328 592.716529 397.416783 610.718019 377.879053 611.24971 375.952894 598.896557"></polygon>
                    <path d="M454.808006,600.878309 L421.870015,598.351058 L403.43689,445.134684 L387.654822,274.268977 L426.191788,271.161701 C426.191788,271.161701 441.808166,286.352833 444.783701,326.353844 C447.262161,359.677664 448.325346,441.219515 448.325346,441.219515 L454.808006,600.878309 Z" id="Path" fill="#2B2A38"></path>
                    <path d="M344.547545,229.538 C344.547545,229.538 311.450766,265.237159 295.8551,260.610769 C275.447491,254.582653 247.88065,209.347605 247.88065,209.347605 L261.191161,202.843038 L298.651136,235.144909 L333.170096,203.56807 L344.547545,229.538 Z" id="Path" fill="#E576C6"></path>
                    <path d="M403.084796,598.944893 L370.340112,601.630961 L350.760957,435.799043 C350.760957,435.799043 347.240024,379.674716 352.245273,320.532879 C355.006789,288.237914 360.881917,276.520028 360.881917,276.520028 L405.625392,272.577238 L398.383315,436.917663 L403.084796,598.944893 Z" id="Path" fill="#2B2A38"></path>
                    <path d="M307.094474,218.469189 L323.663574,254.990051 L343.684571,236.070186 C343.684571,236.070186 344.526833,241.366368 349.324968,249.949357 C353.952652,258.451055 357.826685,267.341941 360.902628,276.520028 L426.198692,271.140986 C426.198692,271.140986 421.24177,251.116312 420.392603,236.615687 C419.432976,220.305935 421.821688,178.164355 403.298814,171.839319 C387.282017,166.370512 382.911917,171.977421 360.619573,176.327609 C339.625141,180.43612 307.094474,218.469189 307.094474,218.469189 Z" id="Path" fill="#FFC000"></path>
                    <polygon id="Rectangle" fill="#2B2A38" transform="translate(386.755559, 600.362690) rotate(-1.510000) translate(-386.755559, -600.362690) " points="365.48155 594.293246 408.029626 594.293041 408.029568 606.432134 365.481492 606.43234"></polygon>
                    <polygon id="Rectangle" fill="#2B2A38" transform="translate(438.903364, 599.092198) rotate(-1.510000) translate(-438.903364, -599.092198) " points="417.629355 593.022754 460.177431 593.022549 460.177372 605.161642 417.629297 605.161848"></polygon>
                    <path d="M411.286501,126.990956 C411.493615,148.25854 392.991453,165.659291 369.960403,165.845728 C348.558648,166.02526 330.739961,151.255336 328.192462,132.079985 C327.997999,130.623968 327.894242,129.157265 327.881791,127.688367 C327.771331,116.481455 332.852521,106.351732 341.06113,99.2533301 C348.91192,92.5483153 358.891269,88.854935 369.214794,88.8335951 C392.23894,88.6471585 411.086292,105.730277 411.286501,126.990956 Z" id="Path" fill="#240040"></path>
                    <ellipse id="Oval" fill="#240040" cx="394.876188" cy="80.4715676" rx="23.1138955" ry="23.1181404"></ellipse>
                    <polygon id="Path" fill="#405FD3" points="333.715495 142.941645 326.300823 157.815144 333.991647 158.263972"></polygon>
                    <path d="M359.804925,175.761394 C359.804925,175.761394 340.253387,173.966078 336.124919,168.45584 C324.512741,152.933266 339.763217,111.309565 339.763217,111.309565 L384.838074,138.384305 C384.838074,138.384305 392.073248,175.858065 391.94898,175.89259 L363.049707,184.047466 L359.804925,175.761394 Z" id="Path" fill="#E576C6"></path>
                    <ellipse id="Oval" fill="#0D0B6D" transform="translate(335.330365, 143.592173) rotate(-78.440000) translate(-335.330365, -143.592173) " cx="335.330365" cy="143.592173" rx="3.32821432" ry="2.5129988"></ellipse>
                    <path d="M387.889551,142.099227 C380.005421,151.918222 365.873358,155.060024 353.60532,150.592451 C352.62424,150.245453 351.66314,149.844345 350.726439,149.39097 C349.179091,148.668041 347.694299,147.818112 346.2873,146.849908 C332.83181,137.631653 329.628451,120.562345 339.148779,108.713263 C340.054931,107.587948 341.052469,106.539417 342.131217,105.578366 C352.20385,96.5672618 368.593452,95.6212689 380.792453,103.955676 C394.123675,113.084166 397.361553,129.918702 388.193318,141.753974 C388.075954,141.87136 387.9793,141.981841 387.889551,142.099227 Z" id="Path" fill="#240040"></path>
                    <path d="M397.451302,212.033673 L353.915991,214.989038 L347.882077,127.791943 L411.1001,123.49009 L415.677313,189.681994 C416.485057,201.310115 408.317871,211.294832 397.451302,212.033673 Z" id="Path" fill="#240040"></path>
                    <polygon id="Path" fill="#101016" points="408.400717 323.847308 403.844214 448.531974 400.799642 408.807165"></polygon>
                    <path d="M347.060525,150.944609 C347.060525,150.944609 343.477457,143.307612 349.49066,141.546823 C353.971221,140.234861 356.546335,143.811682 357.326464,146.090351 C359.963712,153.768778 351.313261,157.587276 350.070578,164.078032" id="Path" fill="#E576C6"></path>
                    <path d="M333.674072,163.739685 C333.674072,163.739685 335.814248,163.656824 337.195006,160.342395" id="Path" stroke="#1C295E" stroke-width="2.84999996"></path>
                    <path d="M263.711045,205.294335 L261.702042,201.310115 C261.702042,201.310115 258.250145,194.225524 256.179008,191.525645 C252.830669,187.134027 248.584837,190.310355 248.584837,190.310355 C248.584837,190.310355 240.486689,185.898022 238.470781,186.816395 C232.906325,189.357457 233.87976,209.893104 239.16116,211.833427 C243.248205,213.331824 245.781897,215.237621 251.056394,216.591013 C253.293223,217.164133 256.185912,216.073134 257.863533,216.176709" id="Path" fill="#E576C6"></path>
                    <polygon id="Path" fill="#BC3579" points="321.537206 250.315325 309.973355 224.801129 316.297228 254.016438"></polygon>
                </g>
            </g>
        </g>
    </g>
</svg>