<?xml version="1.0" standalone="no"?><!DOCTYPE svg PUBLIC "-//W3C//DTD SVG 1.1//EN" "http://www.w3.org/Graphics/SVG/1.1/DTD/svg11.dtd"><svg t="1615434344554" class="icon" viewBox="0 0 1024 1024" version="1.1" xmlns="http://www.w3.org/2000/svg" p-id="54682" xmlns:xlink="http://www.w3.org/1999/xlink" width="200" height="200"><defs><style type="text/css"></style></defs><path d="M950.848 64v369.28c0 66.688-14.08 131.2-39.936 190.08 36.992 35.52 59.968 85.504 59.968 140.864v5.376a196.032 196.032 0 0 1-196.096 190.528c-60.8 0-115.136-27.648-151.04-71.04l-110.848 56.96-183.36-94.336A470.4 470.4 0 0 1 74.88 433.344V64h875.968z m-176 595.84a104.512 104.512 0 1 0-0.192 209.024 104.512 104.512 0 0 0 0.128-209.088z m84.48-504.448H166.4v277.952a378.944 378.944 0 0 0 205.056 337.088l141.44 72.832 70.464-36.288a195.968 195.968 0 0 1 247.872-230.4 378.624 378.624 0 0 0 28.16-143.232V155.392z m-84.8 543.872a64 64 0 1 1 0.128 128 64 64 0 0 1-0.128-128z m-152.192-457.6L563.2 379.456h109.44l-175.168 277.76h-59.008L504.96 481.408H382.08l101.312-239.616h138.88z" fill="#00cc99" p-id="54683"></path></svg>