<?xml version="1.0" encoding="UTF-8"?>
<svg width="1240px" height="723px" viewBox="0 0 1240 723" version="1.1" xmlns="http://www.w3.org/2000/svg" xmlns:xlink="http://www.w3.org/1999/xlink">
    <title>插画</title>
    <g id="Page-1" stroke="none" stroke-width="1" fill="none" fill-rule="evenodd">
        <g id="30-Startup-Story-Illustrations" transform="translate(-1724.000000, -15737.000000)">
            <g id="插画" transform="translate(1730.000000, 15737.000000)">
                <g id="BG" transform="translate(0.000000, 0.329137)">
                    <path d="M818.266698,277.637152 L818.266698,277.978193 C818.266698,282.691852 814.448729,286.51264 809.738549,286.51264 L739.681348,286.51264 L739.681348,269.102706 L809.738549,269.102706 C814.448729,269.102706 818.266698,272.923493 818.266698,277.637152" id="Fill-50" fill="#C3E4FF"></path>
                    <path d="M770.698422,277.708932 L770.698422,277.906414 C770.698422,280.635448 768.488535,282.846966 765.761515,282.846966 L739.784494,282.846966 C739.727813,282.846966 739.681628,282.801448 739.681628,282.744724 L739.681628,272.870621 C739.681628,272.813898 739.727813,272.767678 739.784494,272.767678 L765.761515,272.767678 C768.488535,272.767678 770.698422,274.980598 770.698422,277.708932" id="Fill-52" fill="#D6EEFF"></path>
                    <path d="M828.137993,286.51285 L828.137993,303.922784 L751.610679,303.922784 C746.899799,303.922784 743.081831,300.101996 743.081831,295.388338 L743.081831,295.047296 C743.081831,290.333637 746.899799,286.51285 751.610679,286.51285 L828.137993,286.51285 Z" id="Fill-54" fill="#C3E4FF"></path>
                    <path d="M828.137993,290.226633 L828.137993,300.20858 L796.780409,300.20858 C794.07998,300.20858 791.891086,298.01807 791.891086,295.315647 L791.891086,295.120266 C791.891086,292.417143 794.07998,290.226633 796.780409,290.226633 L828.137993,290.226633 Z" id="Fill-56" fill="#D6EEFF"></path>
                    <path d="M424.679221,410.709455 C424.679221,425.442877 416.90123,438.370949 405.233894,445.578343 L362.405609,445.578343 C350.738273,438.370949 342.960282,425.442877 342.960282,410.709455 C342.960282,403.852906 344.646038,397.397624 347.61728,391.728068 L420.022923,391.728068 C422.993465,397.397624 424.679221,403.852906 424.679221,410.709455" id="Fill-58" fill="#D6EEFF"></path>
                    <polygon id="Fill-60" fill="#D6EEFF" points="435.540767 445.56994 453.199571 445.56994 453.199571 378.06329 435.540767 378.06329"></polygon>
                    <polygon id="Fill-62" fill="#C3E4FF" points="417.881964 445.56994 435.540767 445.56994 435.540767 378.06329 417.881964 378.06329"></polygon>
                    <polygon id="Fill-63" fill="#C3E4FF" points="453.200271 445.56994 470.859074 445.56994 470.859074 378.06329 453.200271 378.06329"></polygon>
                    <path d="M518.296212,445.57015 L470.858515,445.57015 L470.858515,378.0635 L518.296212,378.0635 C520.277973,378.0635 521.884655,379.670668 521.884655,381.654592 L521.884655,441.979058 C521.884655,443.962282 520.277973,445.57015 518.296212,445.57015" id="Fill-64" fill="#AAD5FF"></path>
                    <polygon id="Fill-65" fill="#C3E4FF" points="478.419436 394.581754 514.323454 394.581754 514.323454 387.898177 478.419436 387.898177"></polygon>
                    <polygon id="Fill-66" fill="#C3E4FF" points="486.420655 404.894239 506.323634 404.894239 506.323634 398.210661 486.420655 398.210661"></polygon>
                    <polygon id="Fill-67" fill="#D6EEFF" points="434.098533 312.049661 475.83377 312.049661 475.83377 275.325001 434.098533 275.325001"></polygon>
                    <polygon id="Fill-68" fill="#C3E4FF" points="489.451377 283.223583 531.186614 283.223583 531.186614 246.498923 489.451377 246.498923"></polygon>
                    <polygon id="Fill-69" fill="#C3E4FF" points="501.661038 342.150968 538.3586 342.150968 538.3586 300.384914 501.661038 300.384914"></polygon>
                    <polygon id="Fill-70" fill="#D6EEFF" points="564.810767 307.053084 601.513928 307.053084 601.513928 265.28773 564.810767 265.28773"></polygon>
                    <polygon id="Fill-71" fill="#C3E4FF" points="614.477246 288.27128 651.173409 288.27128 651.173409 246.498923 614.477246 246.498923"></polygon>
                    <polygon id="Fill-72" fill="#E8F6FF" points="489.451027 275.324931 504.553555 257.721016 516.898273 271.941825 523.357889 264.861183 531.186264 272.086085 531.186264 283.223513 489.451027 283.223513"></polygon>
                    <path d="M591.559639,283.45692 C591.559639,288.058532 587.831941,291.788282 583.234424,291.788282 C578.636208,291.788282 574.90851,288.058532 574.90851,283.45692 C574.90851,278.856008 578.636208,275.125558 583.234424,275.125558 C587.831941,275.125558 591.559639,278.856008 591.559639,283.45692" id="Fill-73" fill="#E8F6FF"></path>
                    <path d="M596.728661,305.290032 C596.728661,305.913291 596.686675,306.522544 596.602702,307.124794 L569.864327,307.124794 C569.780354,306.522544 569.738368,305.913291 569.738368,305.290032 C569.738368,297.831933 575.784418,291.788422 583.237014,291.788422 C590.682612,291.788422 596.728661,297.831933 596.728661,305.290032" id="Fill-74" fill="#E8F6FF"></path>
                    <path d="M630.876176,269.276378 C630.876176,272.968312 627.885341,275.962056 624.195431,275.962056 C620.505521,275.962056 617.514686,272.968312 617.514686,269.276378 C617.514686,265.584444 620.505521,262.5907 624.195431,262.5907 C627.885341,262.5907 630.876176,265.584444 630.876176,269.276378" id="Fill-75" fill="#E8F6FF"></path>
                    <path d="M635.022898,286.793596 C635.022898,287.297806 634.98791,287.78801 634.92493,288.27121 L614.477526,288.27121 L614.477526,282.003606 C616.247955,278.425119 619.935765,275.960095 624.197391,275.960095 C626.912515,275.960095 629.396713,276.961511 631.293102,278.614198 C633.581363,280.603024 635.022898,283.53024 635.022898,286.793596" id="Fill-76" fill="#E8F6FF"></path>
                    <path d="M648.846799,273.290376 C648.846799,277.235815 645.65023,280.434744 641.707702,280.434744 C637.764474,280.434744 634.568605,277.235815 634.568605,273.290376 C634.568605,269.344936 637.764474,266.146007 641.707702,266.146007 C645.65023,266.146007 648.846799,269.344936 648.846799,273.290376" id="Fill-77" fill="#E8F6FF"></path>
                    <path d="M651.173688,277.507878 L651.173688,288.27135 L628.773914,288.27135 C628.689941,287.683106 628.654953,287.094861 628.654953,286.492611 C628.654953,283.53038 629.640935,280.806248 631.293102,278.614338 C633.679332,275.470031 637.451115,273.432184 641.705743,273.432184 L641.712041,273.432184 C645.43554,273.432184 648.801454,274.993833 651.173688,277.507878" id="Fill-78" fill="#E8F6FF"></path>
                    <path d="M460.198573,289.611147 C460.198573,295.561519 455.378528,300.385124 449.432546,300.385124 C443.487264,300.385124 438.666519,295.561519 438.666519,289.611147 C438.666519,283.660775 443.487264,278.83717 449.432546,278.83717 C455.378528,278.83717 460.198573,283.660775 460.198573,289.611147" id="Fill-79" fill="#E8F6FF"></path>
                    <path d="M460.629074,302.898888 C460.629074,300.478683 462.589142,298.517168 465.006862,298.517168 C467.425282,298.517168 469.38535,300.478683 469.38535,302.898888 C469.38535,305.318394 467.425282,307.279909 465.006862,307.279909 C462.589142,307.279909 460.629074,305.318394 460.629074,302.898888" id="Fill-80" fill="#E8F6FF"></path>
                    <path d="M532.390436,319.454187 C532.390436,326.29673 526.847524,331.843735 520.010029,331.843735 C513.172535,331.843735 507.628923,326.29673 507.628923,319.454187 C507.628923,312.611644 513.172535,307.064639 520.010029,307.064639 C526.847524,307.064639 532.390436,312.611644 532.390436,319.454187" id="Fill-81" fill="#E8F6FF"></path>
                    <polygon id="Fill-82" fill="#D6EEFF" points="520.230248 358.700244 561.965485 358.700244 561.965485 321.975585 520.230248 321.975585"></polygon>
                    <polygon id="Fill-83" fill="#E8F6FF" points="520.229828 350.800752 535.332357 333.196837 547.677074 347.418347 554.136691 340.337705 561.965065 347.561906 561.965065 358.700034 520.229828 358.700034"></polygon>
                    <polygon id="Fill-84" fill="#D6EEFF" points="434.408533 198.082206 532.668036 198.082206 532.668036 85.0181261 434.408533 85.0181261"></polygon>
                    <polygon id="Stroke-85" stroke="#D6EEFF" stroke-width="6.3" points="434.408533 198.082206 532.668036 198.082206 532.668036 85.0181261 434.408533 85.0181261"></polygon>
                    <polygon id="Fill-86" fill="#FFFFFF" points="430.685734 198.082206 528.945237 198.082206 528.945237 85.0181261 430.685734 85.0181261"></polygon>
                    <polygon id="Stroke-87" stroke="#D6EEFF" stroke-width="6.3" points="430.685734 198.082206 528.945237 198.082206 528.945237 85.0181261 430.685734 85.0181261"></polygon>
                    <polygon id="Fill-88" fill="#C3E4FF" points="451.417246 174.395564 506.813476 174.395564 506.813476 108.705468 451.417246 108.705468"></polygon>
                    <polygon id="Fill-89" fill="#D6EEFF" points="573.082099 198.082206 671.340903 198.082206 671.340903 85.0181261 573.082099 85.0181261"></polygon>
                    <polygon id="Stroke-90" stroke="#D6EEFF" stroke-width="6.3" points="573.082099 198.082206 671.340903 198.082206 671.340903 85.0181261 573.082099 85.0181261"></polygon>
                    <polygon id="Fill-91" fill="#FFFFFF" points="569.3593 198.082206 667.618804 198.082206 667.618804 85.0181261 569.3593 85.0181261"></polygon>
                    <polygon id="Stroke-92" stroke="#D6EEFF" stroke-width="6.3" points="569.3593 198.082206 667.618804 198.082206 667.618804 85.0181261 569.3593 85.0181261"></polygon>
                    <polygon id="Fill-93" fill="#D6EEFF" points="590.090113 174.395564 645.486343 174.395564 645.486343 108.705468 590.090113 108.705468"></polygon>
                    <polygon id="Fill-94" fill="#D6EEFF" points="711.755666 198.082206 810.01447 198.082206 810.01447 85.0181261 711.755666 85.0181261"></polygon>
                    <polygon id="Stroke-95" stroke="#D6EEFF" stroke-width="6.3" points="711.755666 198.082206 810.01447 198.082206 810.01447 85.0181261 711.755666 85.0181261"></polygon>
                    <polygon id="Fill-96" fill="#FFFFFF" points="708.032167 198.082206 806.29167 198.082206 806.29167 85.0181261 708.032167 85.0181261"></polygon>
                    <polygon id="Stroke-97" stroke="#D6EEFF" stroke-width="6.3" points="708.032167 198.082206 806.29167 198.082206 806.29167 85.0181261 708.032167 85.0181261"></polygon>
                    <polygon id="Fill-98" fill="#C3E4FF" points="728.763679 174.395564 784.15991 174.395564 784.15991 108.705468 728.763679 108.705468"></polygon>
                    <path d="M770.380655,436.253339 L766.839097,436.253339 C750.322325,436.253339 736.932144,422.853271 736.932144,406.324303 L800.288307,406.324303 C800.288307,422.853271 786.898126,436.253339 770.380655,436.253339" id="Fill-99" fill="#D6EEFF"></path>
                    <path d="M770.380655,411.088032 L766.839097,411.088032 C750.322325,411.088032 736.932144,397.687964 736.932144,381.158996 L736.932144,381.158296 L800.288307,381.158296 L800.288307,381.158996 C800.288307,397.687964 786.898126,411.088032 770.380655,411.088032" id="Fill-100" fill="#D6EEFF"></path>
                    <path d="M770.380655,385.922656 L766.839097,385.922656 C750.322325,385.922656 736.932144,372.522588 736.932144,355.992919 L800.288307,355.992919 C800.288307,372.522588 786.898126,385.922656 770.380655,385.922656" id="Fill-101" fill="#D6EEFF"></path>
                    <polygon id="Fill-102" fill="#E8F6FF" points="202.968691 53.9903337 279.251783 53.9903337 279.251783 0.373255092 202.968691 0.373255092"></polygon>
                    <path d="M256.882379,19.226979 L225.91177,19.226979 C223.001409,19.226979 220.64247,16.8662982 220.64247,13.953788 C220.64247,11.0412778 223.001409,8.6805969 225.91177,8.6805969 L256.882379,8.6805969 C259.79274,8.6805969 262.151679,11.0412778 262.151679,13.953788 C262.151679,16.8662982 259.79274,19.226979 256.882379,19.226979" id="Fill-103" fill="#C3E4FF"></path>
                    <polygon id="Fill-104" fill="#C3E4FF" points="279.251783 53.9903337 325.842054 53.9903337 325.842054 0.373255092 279.251783 0.373255092"></polygon>
                    <g id="Group-107" transform="translate(0.997743, 616.256062)">
                        <line x1="1225.57359" y1="1.0471451" x2="0.000139954853" y2="1.0471451" id="Fill-105" fill="#E8F6FF"></line>
                        <line x1="1225.57359" y1="1.0471451" x2="0.000139954853" y2="1.0471451" id="Stroke-106" stroke="#D6EEFF" stroke-width="14" stroke-linecap="round"></line>
                    </g>
                    <polygon id="Fill-1" fill="#D6EEFF" points="133.299165 616.440239 151.866975 616.440239 151.866975 556.073756 133.299165 556.073756"></polygon>
                    <polygon id="Fill-2" fill="#D6EEFF" points="287.961174 616.440239 306.528984 616.440239 306.528984 556.073756 287.961174 556.073756"></polygon>
                    <polygon id="Fill-3" fill="#D6EEFF" points="316.227156 616.440239 334.794966 616.440239 334.794966 556.073756 316.227156 556.073756"></polygon>
                    <polygon id="Fill-4" fill="#D6EEFF" points="470.889165 616.440239 489.456975 616.440239 489.456975 556.073756 470.889165 556.073756"></polygon>
                    <polygon id="Fill-5" fill="#D6EEFF" points="499.155147 616.440239 517.722957 616.440239 517.722957 556.073756 499.155147 556.073756"></polygon>
                    <polygon id="Fill-6" fill="#D6EEFF" points="653.817156 616.440239 672.384966 616.440239 672.384966 556.073756 653.817156 556.073756"></polygon>
                    <polygon id="Fill-7" fill="#D6EEFF" points="682.083837 616.440239 700.651648 616.440239 700.651648 556.073756 682.083837 556.073756"></polygon>
                    <polygon id="Fill-8" fill="#D6EEFF" points="836.745147 616.440239 855.312957 616.440239 855.312957 556.073756 836.745147 556.073756"></polygon>
                    <polygon id="Fill-9" fill="#D6EEFF" points="865.011828 616.440239 883.579639 616.440239 883.579639 556.073756 865.011828 556.073756"></polygon>
                    <polygon id="Fill-10" fill="#D6EEFF" points="1019.67314 616.440239 1038.24095 616.440239 1038.24095 556.073756 1019.67314 556.073756"></polygon>
                    <polygon id="Fill-11" fill="#AAD5FF" points="930.761919 616.440239 949.329729 616.440239 949.329729 556.073756 930.761919 556.073756"></polygon>
                    <polygon id="Fill-12" fill="#AAD5FF" points="1085.42323 616.440239 1103.99034 616.440239 1103.99034 556.073756 1085.42323 556.073756"></polygon>
                    <polygon id="Fill-13" fill="#AAD5FF" points="747.635892 616.440239 766.203702 616.440239 766.203702 556.073756 747.635892 556.073756"></polygon>
                    <polygon id="Fill-14" fill="#AAD5FF" points="902.297901 616.440239 920.865011 616.440239 920.865011 556.073756 902.297901 556.073756"></polygon>
                    <polygon id="Fill-15" fill="#AAD5FF" points="564.814966 616.440239 583.382777 616.440239 583.382777 556.073756 564.814966 556.073756"></polygon>
                    <polygon id="Fill-16" fill="#AAD5FF" points="719.476975 616.440239 738.044786 616.440239 738.044786 556.073756 719.476975 556.073756"></polygon>
                    <polygon id="Fill-17" fill="#AAD5FF" points="381.689639 616.440239 400.257449 616.440239 400.257449 556.073756 381.689639 556.073756"></polygon>
                    <polygon id="Fill-18" fill="#AAD5FF" points="536.351648 616.440239 554.919458 616.440239 554.919458 556.073756 536.351648 556.073756"></polygon>
                    <polygon id="Fill-19" fill="#AAD5FF" points="199.156321 616.440239 217.724131 616.440239 217.724131 556.073756 199.156321 556.073756"></polygon>
                    <polygon id="Fill-20" fill="#AAD5FF" points="353.81763 616.440239 372.38544 616.440239 372.38544 556.073756 353.81763 556.073756"></polygon>
                    <polygon id="Fill-21" fill="#AAD5FF" points="199.049255 566.784006 372.279074 566.784006 372.279074 53.9903337 199.049255 53.9903337"></polygon>
                    <polygon id="Fill-22" fill="#AAD5FF" points="381.977246 566.784006 555.206366 566.784006 555.206366 445.578343 381.977246 445.578343"></polygon>
                    <polygon id="Fill-23" fill="#AAD5FF" points="564.905237 566.784006 738.135056 566.784006 738.135056 445.578343 564.905237 445.578343"></polygon>
                    <polygon id="Fill-24" fill="#AAD5FF" points="747.833228 566.784006 921.062348 566.784006 921.062348 303.923484 747.833228 303.923484"></polygon>
                    <polygon id="Fill-25" fill="#AAD5FF" points="930.761219 566.784006 1103.99034 566.784006 1103.99034 53.9903337 930.761219 53.9903337"></polygon>
                    <polygon id="Fill-26" fill="#D6EEFF" points="133.649752 566.784006 306.878871 566.784006 306.878871 53.9903337 133.649752 53.9903337"></polygon>
                    <polygon id="Fill-27" fill="#D6EEFF" points="316.227856 566.784006 489.456975 566.784006 489.456975 445.578343 316.227856 445.578343"></polygon>
                    <polygon id="Fill-28" fill="#D6EEFF" points="499.155147 566.784006 672.384966 566.784006 672.384966 445.578343 499.155147 445.578343"></polygon>
                    <polygon id="Fill-29" fill="#D6EEFF" points="682.083138 566.784006 855.312957 566.784006 855.312957 303.923484 682.083138 303.923484"></polygon>
                    <polygon id="Fill-30" fill="#D6EEFF" points="865.011129 566.784006 1038.24095 566.784006 1038.24095 53.9903337 865.011129 53.9903337"></polygon>
                    <polygon id="Fill-31" fill="#E8F6FF" points="698.067381 548.7193 839.15307 548.7193 839.15307 442.785583 698.067381 442.785583"></polygon>
                    <polygon id="Fill-32" fill="#E8F6FF" points="515.226862 551.092586 656.313251 551.092586 656.313251 461.269763 515.226862 461.269763"></polygon>
                    <polygon id="Fill-33" fill="#E8F6FF" points="332.299571 551.092586 473.38526 551.092586 473.38526 461.269763 332.299571 461.269763"></polygon>
                    <polygon id="Fill-34" fill="#E8F6FF" points="881.082844 548.7193 1022.16853 548.7193 1022.16853 321.573618 881.082844 321.573618"></polygon>
                    <polygon id="Fill-35" fill="#E8F6FF" points="881.082844 301.12162 1022.16853 301.12162 1022.16853 73.9759379 881.082844 73.9759379"></polygon>
                    <polygon id="Fill-36" fill="#E8F6FF" points="149.720767 546.133125 290.807156 546.133125 290.807156 318.987443 149.720767 318.987443"></polygon>
                    <polygon id="Fill-37" fill="#E8F6FF" points="149.720767 301.12162 290.807156 301.12162 290.807156 73.9759379 149.720767 73.9759379"></polygon>
                    <polygon id="Fill-38" fill="#AAD5FF" points="698.067381 427.506634 839.15307 427.506634 839.15307 321.572918 698.067381 321.572918"></polygon>
                    <polygon id="Fill-39" fill="#C3E4FF" points="798.242867 427.506634 839.15307 427.506634 839.15307 321.572918 798.242867 321.572918"></polygon>
                    <polygon id="Fill-40" fill="#C3E4FF" points="616.499594 427.506634 709.963544 427.506634 709.963544 321.572918 616.499594 321.572918"></polygon>
                    <polygon id="Fill-41" fill="#E8F6FF" points="616.499594 427.506634 624.412641 427.506634 624.412641 321.572918 616.499594 321.572918"></polygon>
                    <polygon id="Fill-42" fill="#C3E4FF" points="279.251783 384.527676 290.807156 384.527676 290.807156 335.865156 279.251783 335.865156"></polygon>
                    <polygon id="Fill-43" fill="#C3E4FF" points="279.251783 284.909183 290.807156 284.909183 290.807156 236.246663 279.251783 236.246663"></polygon>
                    <polygon id="Fill-44" fill="#C3E4FF" points="1010.61316 384.527676 1022.16853 384.527676 1022.16853 335.865156 1010.61316 335.865156"></polygon>
                    <polygon id="Fill-45" fill="#C3E4FF" points="827.596998 520.083001 839.15307 520.083001 839.15307 471.420481 827.596998 471.420481"></polygon>
                    <polygon id="Fill-46" fill="#C3E4FF" points="561.457449 472.833668 610.083363 472.833668 610.083363 461.269763 561.457449 461.269763"></polygon>
                    <polygon id="Fill-47" fill="#C3E4FF" points="378.528758 472.833668 427.155372 472.833668 427.155372 461.269763 378.528758 461.269763"></polygon>
                    <polygon id="Fill-48" fill="#C3E4FF" points="1010.61316 284.909183 1022.16853 284.909183 1022.16853 236.246663 1010.61316 236.246663"></polygon>
                    <polygon id="Fill-49" fill="#C3E4FF" points="609.770564 406.537822 616.498894 406.537822 616.498894 342.542431 609.770564 342.542431"></polygon>
                </g>
                <g id="Man" transform="translate(281.000000, 141.329137)">
                    <path d="M661.611896,577.768087 C661.611896,579.165868 513.517968,580.299639 330.834199,580.299639 C148.150429,580.299639 0.0565011287,579.165868 0.0565011287,577.768087 C0.0565011287,576.369606 148.150429,575.236535 330.834199,575.236535 C513.517968,575.236535 661.611896,576.369606 661.611896,577.768087" id="Fill-109" fill="#AFB3C1"></path>
                    <polygon id="Fill-111" fill="#444554" points="409.378962 577.768157 426.748059 577.768157 426.748059 341.350623 409.378962 341.350623"></polygon>
                    <polygon id="Fill-113" fill="#444554" points="426.748059 577.768157 444.116456 577.768157 444.116456 341.350623 426.748059 341.350623"></polygon>
                    <polygon id="Fill-114" fill="#444554" points="531.624628 577.768157 548.993025 577.768157 548.993025 341.350623 531.624628 341.350623"></polygon>
                    <polygon id="Fill-115" fill="#767886" points="548.993025 577.768157 566.362122 577.768157 566.362122 341.350623 548.993025 341.350623"></polygon>
                    <polygon id="Fill-116" fill="#272636" points="314.579142 326.463137 368.565327 326.463137 368.565327 235.743942 314.579142 235.743942"></polygon>
                    <path d="M495.47023,324.477812 L347.497363,324.477812 L286.354587,249.366702 C285.400795,248.195115 285.074,246.515117 285.502262,244.982881 L287.529508,237.722964 L422.835761,235.250237 L495.47023,324.477812 Z" id="Fill-117" fill="#555369"></path>
                    <path d="M496.314858,324.477812 L357.139553,324.477812 C356.258537,324.477812 355.416709,324.056937 354.812804,323.314629 L288.215986,241.504535 C286.290907,239.138952 287.737341,235.250237 290.543436,235.250237 L427.70479,235.250237 C429.870591,235.250237 431.941223,236.285267 433.427544,238.111626 L498.641607,318.224213 C500.567386,320.589796 499.120953,324.477812 496.314858,324.477812" id="Fill-118" fill="#99A2AA"></path>
                    <path d="M487.502111,319.170587 L359.426625,319.170587 C359.285271,319.170587 359.151614,319.103359 359.055045,318.98501 L297.305564,243.12879 C296.374165,241.984515 297.073939,240.103533 298.431501,240.103533 L425.179515,240.103533 C426.838679,240.103533 428.423668,240.896263 429.561501,242.294744 L488.957641,315.259461 C490.162652,316.738476 489.257144,319.170587 487.502111,319.170587" id="Fill-119" fill="#FFFFFF"></path>
                    <polygon id="Fill-120" fill="#767886" points="199.007223 341.350623 617.149639 341.350623 617.149639 324.436495 199.007223 324.436495"></polygon>
                    <polygon id="Fill-121" fill="#444554" points="103.407562 577.768157 120.775959 577.768157 120.775959 341.350623 103.407562 341.350623"></polygon>
                    <polygon id="Fill-122" fill="#767886" points="120.776659 577.768157 138.145056 577.768157 138.145056 341.350623 120.776659 341.350623"></polygon>
                    <polygon id="Fill-123" fill="#444554" points="226.352302 577.768157 243.7214 577.768157 243.7214 341.350623 226.352302 341.350623"></polygon>
                    <polygon id="Fill-124" fill="#444554" points="106.781174 442.625304 243.7214 442.625304 243.7214 341.350623 106.781174 341.350623"></polygon>
                    <polygon id="Fill-125" fill="#767886" points="243.7214 577.768157 261.089797 577.768157 261.089797 341.350623 243.7214 341.350623"></polygon>
                    <polygon id="Fill-126" fill="#767886" points="256.451693 442.625304 348.005959 442.625304 348.005959 341.350623 256.451693 341.350623"></polygon>
                    <polygon id="Fill-127" fill="#444554" points="47.6404515 341.350623 199.007223 341.350623 199.007223 324.436495 47.6404515 324.436495"></polygon>
                    <polygon id="Fill-128" fill="#444554" points="113.097336 352.191827 348.005959 352.191827 348.005959 341.351323 113.097336 341.351323"></polygon>
                    <polygon id="Fill-129" fill="#444554" points="261.089797 442.625304 266.50605 442.625304 266.50605 348.523003 261.089797 348.523003"></polygon>
                    <path d="M315.039874,411.058497 C315.039874,415.045254 311.810415,418.277097 307.8266,418.277097 C303.843485,418.277097 300.613327,415.045254 300.613327,411.058497 C300.613327,407.072441 303.843485,403.839898 307.8266,403.839898 C311.810415,403.839898 315.039874,407.072441 315.039874,411.058497" id="Fill-130" fill="#444554"></path>
                    <path d="M315.039874,373.727666 C315.039874,377.714422 311.810415,380.946265 307.8266,380.946265 C303.843485,380.946265 300.613327,377.714422 300.613327,373.727666 C300.613327,369.74161 303.843485,366.509066 307.8266,366.509066 C311.810415,366.509066 315.039874,369.74161 315.039874,373.727666" id="Fill-131" fill="#444554"></path>
                    <path d="M319.541871,245.280014 C322.8616,247.468423 324.410901,250.978982 323.000856,253.119772 C321.59151,255.260561 317.757447,255.222045 314.437718,253.033636 C311.117989,250.844526 309.569388,247.334668 310.978734,245.193178 C312.388079,243.052389 316.222142,243.091605 319.541871,245.280014" id="Fill-132" fill="#FFC100"></path>
                    <path d="M336.356327,245.254664 C339.676056,247.443073 341.225357,250.953632 339.815312,253.094421 C338.405966,255.235911 334.571903,255.197395 331.252174,253.008285 C327.932445,250.819176 326.383844,247.309317 327.79319,245.168528 C329.202535,243.027038 333.036598,243.066254 336.356327,245.254664" id="Fill-133" fill="#285FD7"></path>
                    <path d="M353.170713,245.229733 C356.490442,247.418143 358.039743,250.928701 356.629698,253.069491 C355.220352,255.21028 351.386289,255.171764 348.06656,252.983355 C344.746831,250.794245 343.19823,247.284387 344.607576,245.142897 C346.016921,243.002108 349.850984,243.041324 353.170713,245.229733" id="Fill-134" fill="#272636"></path>
                    <path d="M369.985099,245.204453 C373.304828,247.393562 374.854129,250.903421 373.444084,253.04421 C372.034738,255.1857 368.200675,255.147184 364.880946,252.958074 C361.561217,250.769665 360.012616,247.259106 361.421962,245.118317 C362.831307,242.976827 366.66537,243.016043 369.985099,245.204453" id="Fill-135" fill="#EF3C86"></path>
                    <path d="M202.934847,101.229319 C195.109971,88.8397713 208.122273,36.6813988 240.331483,23.8835812 C272.541393,11.0864638 312.302567,40.2640875 302.607194,70.8233853 C295.381325,93.5968479 277.067533,68.2932339 249.14514,80.9951117 C221.223447,93.6976898 212.194959,115.892012 202.934847,101.229319" id="Fill-136" fill="#FFC100"></path>
                    <path d="M402.469251,0.0479171678 C393.188144,15.118179 369.344036,0.412768768 360.06293,15.4830306 C350.782524,30.5546931 374.626632,45.2601034 365.344826,60.3310656 C356.06442,75.4020277 332.219612,60.6959172 322.939205,75.7668793 C313.6567,90.8399424 337.500808,105.545353 328.219002,120.618416 C318.936497,135.690778 295.092388,120.985368 285.809883,136.058431" id="Stroke-137" stroke="#EF3C86" stroke-width="9.8" stroke-linecap="round"></path>
                    <path d="M463.294959,51.6074708 C449.475117,62.6573622 431.991957,40.7585629 418.172115,51.8091546 C404.351573,62.859046 421.834034,84.7571449 408.012792,95.8077366 C394.192251,106.857628 376.70979,84.959529 362.889248,96.0094204 C349.067307,107.061413 366.549767,128.959512 352.727126,140.011504 C338.905185,151.062796 321.422725,129.164697 307.600084,140.215989" id="Stroke-138" stroke="#EF3C86" stroke-width="9.8" stroke-linecap="round"></path>
                    <path d="M234.209788,218.67617 C233.601684,231.523708 193.807621,255.564698 151.844257,239.841765 C121.633603,228.522261 99.7922483,189.504849 123.010758,174.10405 C137.320442,164.612306 146.257959,192.035 173.467982,198.698269 C200.678005,205.361538 234.929856,203.470052 234.209788,218.67617" id="Fill-139" fill="#FFC100"></path>
                    <path d="M376.719097,165.255033 C382.627991,163.983304 399.465959,178.294451 398.619233,198.288459 C398.009729,212.68364 383.605576,226.771394 373.159345,218.584992 C366.721422,213.540796 377.804447,206.408332 376.753386,193.86472 C375.703025,181.321108 369.725553,166.759258 376.719097,165.255033" id="Fill-140" fill="#EF3C86"></path>
                    <path d="M161.598621,112.017512 C172.17081,106.387172 185.302074,110.39984 190.92756,120.979836 C196.553745,131.559832 191.994716,138.622967 181.422526,144.252606 C170.850336,149.882245 158.268395,151.948104 152.64291,141.368107 C147.016725,130.788111 151.026431,117.647151 161.598621,112.017512" id="Fill-141" fill="#EF3C86"></path>
                    <path d="M152.479652,61.0501243 L162.143535,94.8258586 C162.143535,94.8258586 180.003874,70.0950826 179.79954,70.1020855 C179.595205,70.1090885 152.479652,61.0501243 152.479652,61.0501243" id="Fill-142" fill="#285FD7"></path>
                    <path d="M86.5710632,138.483259 L128.506436,123.533447 C128.506436,123.533447 95.0852167,112.732159 95.1167065,112.908632 C95.1474966,113.086506 86.5710632,138.483259 86.5710632,138.483259" id="Fill-143" fill="#285FD7"></path>
                    <path d="M89.7959029,78.7338722 L141.584097,107.377874 C141.584097,107.377874 124.444526,63.2315307 124.282878,63.4290128 C124.12053,63.6271952 89.7959029,78.7338722 89.7959029,78.7338722" id="Fill-144" fill="#285FD7"></path>
                    <path d="M385.291962,271.714248 C385.291962,271.714248 335.735348,248.117943 359.204377,216.012403 C382.674106,183.906163 330.997876,91.7940888 271.92993,93.6631655 C230.98054,94.9587038 225.92467,143.509177 164.990427,160.316161 C124.223677,171.560733 226.355032,214.184644 283.98774,183.300411 C342.823361,151.77121 318.438327,212.029848 345.424422,250.815464 C360.740381,272.827711 385.291962,271.714248 385.291962,271.714248" id="Fill-145" fill="#285FD7"></path>
                    <path d="M498.25974,565.557463 C498.25974,572.301266 492.796603,577.768437 486.058476,577.768437 C479.32035,577.768437 473.857212,572.301266 473.857212,565.557463 C473.857212,558.814362 479.32035,553.34719 486.058476,553.34719 C492.796603,553.34719 498.25974,558.814362 498.25974,565.557463" id="Fill-146" fill="#272636"></path>
                    <path d="M412.227813,255.778566 L412.227813,255.778566 C415.032508,251.517996 418.296955,250.470361 416.320792,249.16782 L399.531108,237.01427 C397.554946,235.711728 394.247813,241.482826 393.391289,243.533278 C392.092508,246.646072 389.979889,255.359092 391.822395,257.102817 L403.535217,261.158202 C405.511379,262.460743 409.423117,260.039837 412.227813,255.778566" id="Fill-147" fill="#FF77CA"></path>
                    <path d="M443.645228,147.499505 C443.645228,147.499505 425.589652,174.936906 453.152361,179.878859" id="Fill-148" fill="#0B096F"></path>
                    <polygon id="Fill-149" fill="#285FD7" points="448.333856 186.817692 443.219205 200.953066 450.032907 200.761186"></polygon>
                    <path d="M514.706465,176.358777 C516.262763,170.37549 518.140257,202.443915 518.140257,202.443915 L523.224117,229.29027 L488.68326,240.618877 L486.248745,211.205256 C486.248745,211.205256 457.881296,215.487535 451.704388,212.822228 C451.704388,212.822228 445.167097,185.297991 448.04247,165.238856 L469.937007,142.377157 L507.941747,142.426877 L514.706465,176.358777 Z" id="Fill-150" fill="#FF77CA"></path>
                    <path d="M487.646264,197.243064 C487.646264,197.243064 502.63053,193.45449 507.792065,182.774352" id="Stroke-151" stroke="#E84595" stroke-width="2.1"></path>
                    <path d="M515.258657,194.303106 C524.211569,194.289097 536.077641,160.893621 521.936603,142.929056 C502.84886,118.677979 482.585497,130.80912 482.585497,130.80912 C482.585497,130.80912 475.582156,108.639308 460.711253,109.780783 C439.524887,111.406158 438.620779,144.410872 438.620779,144.410872 C438.620779,144.410872 432.042201,126.972926 426.152901,129.960367 C420.262901,132.947108 421.773014,185.822579 467.995203,161.985374 C467.995203,161.985374 467.345113,178.409999 478.76053,177.868674 C483.681343,177.635477 485.328612,170.63887 485.328612,170.63887 C485.328612,170.63887 496.64886,180.562693 504.631185,185.132792 C504.631185,185.132792 511.119492,194.309405 515.258657,194.303106" id="Fill-152" fill="#0B096F"></path>
                    <polyline id="Stroke-153" stroke="#0B096F" stroke-width="6.3" points="512.946113 118.308856 509.406655 135.177465 514.327467 137.155087 523.799612 125.989648"></polyline>
                    <polygon id="Fill-154" fill="#EF3C86" points="486.248745 211.205116 499.304433 208.541209 486.960415 219.798386"></polygon>
                    <path d="M452.006271,203.65955 C452.006271,203.65955 456.400853,203.973281 456.463833,199.677696" id="Stroke-155" stroke="#0D1A88" stroke-width="2.1"></path>
                    <path d="M456.196029,187.250612 C456.112056,189.086775 454.555758,190.506965 452.72095,190.42293 C450.886842,190.338895 449.4677,188.782149 449.551673,186.945986 C449.635646,185.109823 451.191244,183.689633 453.026052,183.773668 C454.86086,183.857702 456.280002,185.414449 456.196029,187.250612" id="Fill-156" fill="#0B096F"></path>
                    <polygon id="Fill-157" fill="#0B096F" points="553.140097 510.907386 573.602196 540.473671 562.173483 564.200229 535.922151 577.768367 576.449578 577.768367 604.005289 545.055675 569.217411 493.138202"></polygon>
                    <polygon id="Fill-158" fill="#EF3C86" points="571.646537 489.440526 591.985476 527.102175 573.602406 540.210221 553.140307 510.808505"></polygon>
                    <path d="M431.212619,530.954616 L433.848668,554.700082 C433.848668,554.700082 395.855824,561.494305 377.644898,577.768367 L471.201219,577.572286 L454.102935,525.987452 L431.212619,530.954616 Z" id="Fill-159" fill="#0B096F"></path>
                    <path d="M589.52633,565.557463 C589.52633,572.301266 584.063192,577.768437 577.325065,577.768437 C570.586939,577.768437 565.123801,572.301266 565.123801,565.557463 C565.123801,558.814362 570.586939,553.34719 577.325065,553.34719 C584.063192,553.34719 589.52633,558.814362 589.52633,565.557463" id="Fill-160" fill="#272636"></path>
                    <polygon id="Fill-161" fill="#EF3C86" points="456.034102 526.037522 463.375433 553.892296 433.848458 554.700432 431.621077 534.274345"></polygon>
                    <polygon id="Fill-162" fill="#08060C" points="529.557564 386.722685 595.187293 517.323452 560.952237 535.925981 477.723885 402.885401"></polygon>
                    <path d="M434.024032,389.18806 L469.784596,543.898444 L426.380397,543.898444 L371.528591,376.642347 C365.824032,359.246419 378.774054,341.352584 397.069652,341.352584 L556.465634,341.352584 L556.465634,389.18806 L434.024032,389.18806 Z" id="Fill-163" fill="#242237"></path>
                    <path d="M407.209801,332.193688 L354.524497,311.95808 L360.734993,295.041151 L409.969011,305.371143 L437.273503,260.159657 L465.480704,283.611001 L432.3254,330.571114 C427.409485,336.709164 418.201156,337.078217 407.209801,332.193688" id="Fill-164" fill="#FF77CA"></path>
                    <polygon id="Fill-165" fill="#FF77CA" points="411.620968 262.615647 479.082707 291.864701 493.019411 273.345506 414.505438 248.696664"></polygon>
                    <polygon id="Fill-166" fill="#FFC100" points="471.058465 416.122791 592.747111 416.122791 592.747111 411.921046 471.058465 411.921046"></polygon>
                    <path d="M562.441497,411.920906 L473.050233,411.920906 C468.540887,411.920906 464.885966,408.262585 464.885966,403.750611 L464.885966,397.358355 C464.885966,392.84638 468.540887,389.18806 473.050233,389.18806 L562.441497,389.18806 C566.950142,389.18806 570.605763,392.84638 570.605763,397.358355 L570.605763,403.750611 C570.605763,408.262585 566.950142,411.920906 562.441497,411.920906" id="Fill-167" fill="#555369"></path>
                    <path d="M568.315752,292.161204 L563.36135,341.474994 L477.86293,341.230593 L467.07451,294.810405 L457.840989,308.456975 L416.028777,284.467807 C416.028777,284.467807 431.150199,257.725095 440.285752,248.32719 C460.606497,227.423505 478.70126,221.764453 498.333427,221.798067 C517.950199,221.831681 512.794962,219.136961 530.99679,223.728769 C543.708889,226.936102 554.976655,235.770273 561.436971,257.748905 C568.140808,280.560884 568.315752,292.161204 568.315752,292.161204" id="Fill-168" fill="#49A2FF"></path>
                    <path d="M608.795384,416.122651 L552.124865,416.122651 L541.628251,348.194426 L541.628251,295.779747 C541.628251,270.254141 562.305181,249.560543 587.813352,249.560543 C613.320124,249.560543 633.998454,270.254141 633.998454,295.779747 L633.998454,348.194426 L639.583352,380.736948 C642.178815,399.438219 627.662698,416.122651 608.795384,416.122651" id="Fill-169" fill="#FFC100"></path>
                    <path d="M551.566935,411.920906 L515.871449,411.920906 C534.6254,411.920906 549.089734,395.428353 546.703503,376.863639 L551.566935,411.920906 Z" id="Fill-170" fill="#FFC100"></path>
                    <path d="M606.922228,295.032467 C606.922228,304.360343 599.364666,311.923485 590.044372,311.923485 C589.582521,311.923485 589.12067,311.902477 588.672115,311.867462 C588.31523,311.83945 587.965343,311.797433 587.615456,311.74141 C579.44909,310.571924 573.172815,303.533999 573.172815,295.032467 C573.172815,286.537937 579.44909,279.500013 587.615456,278.330527 C587.965343,278.274504 588.31523,278.232486 588.672115,278.204475 C589.12067,278.16946 589.582521,278.148451 590.044372,278.148451 C599.364666,278.148451 606.922228,285.711594 606.922228,295.032467" id="Fill-171" fill="#F38C01"></path>
                    <path d="M602.045011,295.032467 C602.045011,303.526997 595.775034,310.557918 587.615666,311.74141 C579.4493,310.571924 573.172325,303.533999 573.172325,295.032467 C573.172325,286.537937 579.4493,279.500013 587.615666,278.330527 C595.775034,279.514019 602.045011,286.54494 602.045011,295.032467" id="Fill-172" fill="#FFFFFF"></path>
                    <path d="M609.595576,568.005751 L489.018871,568.005751 C484.400361,568.005751 480.62158,564.22488 480.62158,559.602259 C480.62158,554.980339 484.400361,551.198767 489.018871,551.198767 L609.595576,551.198767 C614.214086,551.198767 617.992867,554.980339 617.992867,559.602259 C617.992867,564.22488 614.214086,568.005751 609.595576,568.005751" id="Fill-173" fill="#727B80"></path>
                    <polygon id="Fill-174" fill="#727B80" points="545.485756 564.00884 553.129391 564.00884 553.129391 416.122091 545.485756 416.122091"></polygon>
                    <polygon id="Fill-175" fill="#727B80" points="591.706966 416.122651 549.306944 435.44578 506.907621 416.122651"></polygon>
                    <path d="M544.157795,568.005751 L528.511542,568.005751 C523.893032,568.005751 520.114251,564.22488 520.114251,559.602259 C520.114251,554.980339 523.893032,551.198767 528.511542,551.198767 L544.157795,551.198767 C548.776305,551.198767 552.555086,554.980339 552.555086,559.602259 C552.555086,564.22488 548.776305,568.005751 544.157795,568.005751" id="Fill-176" fill="#555369"></path>
                    <path d="M527.690567,222.913771 C528.521199,225.602888 525.808874,229.376756 515.458512,229.588944 C502.739415,229.848752 488.646661,227.356417 486.275826,222.546118 C502.314652,219.969047 513.084878,219.219736 527.690567,222.913771" id="Fill-177" fill="#FF77CA"></path>
                    <path d="M368.014955,298.351986 L356.446287,287.391032 C356.446287,287.391032 353.653488,285.580079 350.287573,284.031736 C346.921659,282.484093 345.408747,282.210279 340.627889,277.462306 C337.296264,274.154132 336.615384,279.570882 337.963149,282.561825 C339.310914,285.553468 348.948205,290.159282 346.88667,293.156527 C344.824436,296.152372 337.420824,300.104815 329.565858,296.607561 C328.510598,296.137666 324.865474,300.265181 332.029763,310.016733 C335.560124,314.82283 343.50886,319.264075 347.134391,318.205235 C347.134391,318.205235 357.416174,315.537127 361.560937,314.249992 C365.663014,312.976163 362.849921,304.481633 368.014955,298.351986" id="Fill-178" fill="#FF77CA"></path>
                    <path d="M533.894275,565.557463 C533.894275,572.301266 528.431138,577.768437 521.693011,577.768437 C514.954885,577.768437 509.491747,572.301266 509.491747,565.557463 C509.491747,558.814362 514.954885,553.34719 521.693011,553.34719 C528.431138,553.34719 533.894275,558.814362 533.894275,565.557463" id="Fill-179" fill="#272636"></path>
                    <path d="M625.564704,565.557463 C625.564704,572.301266 620.101567,577.768437 613.36344,577.768437 C606.625314,577.768437 601.162176,572.301266 601.162176,565.557463 C601.162176,558.814362 606.625314,553.34719 613.36344,553.34719 C620.101567,553.34719 625.564704,558.814362 625.564704,565.557463" id="Fill-180" fill="#272636"></path>
                    <polygon id="Fill-181" fill="#285FD7" points="467.07465 294.810195 470.495847 289.635044 472.570677 318.45762"></polygon>
                    <path d="M400.871526,238.501057 L400.871526,238.501057 C399.717598,237.194314 397.721842,237.054957 396.437756,238.190829 L387.553422,246.320506 C386.269336,247.456378 387.99358,248.960603 388.710849,249.321954 C389.801097,249.870281 391.784257,250.055158 393.239088,248.969707 L400.634302,242.942303 C401.918388,241.806431 402.025454,239.8078 400.871526,238.501057" id="Fill-182" fill="#FF77CA"></path>
                    <polygon id="Fill-183" fill="#0B096F" points="390.998131 267.05024 385.289372 271.752694 386.935242 264.538997 416.863887 216.050149 420.927476 218.562093"></polygon>
                    <path d="M422.504418,261.673896 L411.366111,264.891733 C411.366111,264.891733 408.592905,265.135434 404.738549,264.165531 C400.884192,263.194928 399.383176,262.433712 392.509293,263.025458 C387.719339,263.437229 390.083176,258.814608 392.928458,257.370608 C395.77444,255.926608 406.905749,258.569506 406.709813,254.927293 C406.513176,251.28578 421.25742,253.614247 422.504418,261.673896" id="Fill-184" fill="#FF77CA"></path>
                    <path d="M389.874713,245.165797 L389.874713,245.165797 C388.065797,245.291149 386.682343,246.787671 386.799905,248.492179 L387.83767,260.446146 C387.955932,262.150654 390.28898,261.692664 391.042637,261.342518 C392.186767,260.809597 393.599612,259.34949 393.631801,257.540639 L393.377084,248.03769 C393.259521,246.333182 391.68293,245.040445 389.874713,245.165797" id="Fill-185" fill="#FF77CA"></path>
                    <path d="M507.710822,181.376431 C503.824975,192.882913 484.534298,197.20791 484.534298,197.20791 L484.706442,191.494936 L485.327142,170.63887 C487.002402,164.746622 503.363124,158.740926 507.669535,172.736942 C508.672312,175.98209 508.558948,178.850482 507.710822,181.376431" id="Fill-186" fill="#FF77CA"></path>
                    <path d="M489.499546,187.098089 C489.499546,187.098089 493.913023,186.348077 492.974625,182.578411 C492.066318,178.930595 488.454084,179.029336 488.454084,179.029336 C488.454084,179.029336 488.874648,169.453557 497.626025,170.345728" id="Stroke-187" stroke="#E84595" stroke-width="2.1"></path>
                    <polygon id="Fill-188" fill="#EF3C86" points="420.504183 286.984233 450.918472 304.373158 444.360187 313.661117"></polygon>
                    <line x1="410.669065" y1="305.371003" x2="405.47674" y2="314.021697" id="Stroke-189" stroke="#EF3C86" stroke-width="2.1"></line>
                </g>
            </g>
        </g>
    </g>
</svg>