<?xml version="1.0" standalone="no"?><!DOCTYPE svg PUBLIC "-//W3C//DTD SVG 1.1//EN" "http://www.w3.org/Graphics/SVG/1.1/DTD/svg11.dtd"><svg t="1615432096330" class="icon" viewBox="0 0 1024 1024" version="1.1" xmlns="http://www.w3.org/2000/svg" p-id="42771" xmlns:xlink="http://www.w3.org/1999/xlink" width="200" height="200"><defs><style type="text/css"></style></defs><path d="M 961.385 280.409 L 742.985 62 L 509.337 295.638 L 282.462 68.772 L 62.606 288.628 l 226.865 226.876 L 139.271 665.705 L 81.385 916.542 a 20.6362 20.6362 0 0 0 24.7511 24.8229 l 251.544 -57.2498 l 150.21 -150.2 l 228.076 228.076 l 219.857 -219.857 l -228.076 -228.086 Z M 282.462 161.652 l 179.149 179.149 l -127.399 126.568 l -20.5234 -20.5234 l 40.6362 -40.6362 a 32.8373 32.8373 0 0 0 -46.4341 -46.4341 l -40.6362 40.6259 l -33.4119 -33.4018 l 40.6362 -40.6362 a 32.8373 32.8373 0 0 0 -46.434 -46.4443 l -40.6362 40.6362 l -31.9343 -31.924 Z m 453.504 707.45 l -32.6527 -32.6321 l 40.5952 -40.6362 a 32.8415 32.8415 0 0 0 -46.4443 -46.4443 l -40.6259 40.6362 l -33.3812 -33.3812 l 40.6362 -40.6259 a 32.8373 32.8373 0 0 0 -46.4033 -46.4443 l -40.6362 40.6362 l -21.96 -22.0011 l 126.527 -127.409 l 181.324 181.334 Z M 381.672 767.284 L 256.099 641.754 l 391.103 -391.103 l 125.53 125.53 Z m 486.845 -486.876 l -49.3484 49.3381 l -125.542 -125.53 l 49.3587 -49.3278 Z m -707.029 580.996 l 37.5269 -162.586 l 10.6208 -10.6208 l 125.552 125.49 l -10.5489 10.5489 Z" p-id="42772" fill="#00cc99"></path></svg>