<?xml version="1.0" encoding="UTF-8"?>
<svg width="1230px" height="751px" viewBox="0 0 1230 751" version="1.1" xmlns="http://www.w3.org/2000/svg" xmlns:xlink="http://www.w3.org/1999/xlink">
    <title>建筑工单</title>
    <g id="Page-1" stroke="none" stroke-width="1" fill="none" fill-rule="evenodd">
        <g id="30-Startup-Story-Illustrations" transform="translate(-1736.000000, -13494.000000)">
            <g id="建筑工单" transform="translate(1746.000000, 13498.000000)">
                <g id="Back" transform="translate(0.559346, 0.655036)">
                    <polygon id="Rectangle" stroke="#CCE3FF" stroke-width="8.54999989" transform="translate(588.594049, 600.291970) rotate(90.000000) translate(-588.594049, -600.291970) " points="564.966868 576.66479 612.221229 576.66479 612.221229 623.919151 564.966868 623.919151"></polygon>
                    <line x1="564.966867" y1="576.66479" x2="612.221228" y2="623.919151" id="Path" stroke="#CCE3FF" stroke-width="8.54999989"></line>
                    <line x1="564.966867" y1="623.919151" x2="612.221228" y2="576.66479" id="Path" stroke="#CCE3FF" stroke-width="8.54999989"></line>
                    <polygon id="Rectangle" stroke="#CCE3FF" stroke-width="8.54999989" transform="translate(494.085326, 600.291971) rotate(90.000000) translate(-494.085326, -600.291971) " points="470.458146 576.664791 517.712507 576.664791 517.712507 623.919152 470.458146 623.919152"></polygon>
                    <line x1="470.458146" y1="576.66479" x2="517.712507" y2="623.919151" id="Path" stroke="#CCE3FF" stroke-width="8.54999989"></line>
                    <line x1="470.458146" y1="623.919151" x2="517.712507" y2="576.66479" id="Path" stroke="#CCE3FF" stroke-width="8.54999989"></line>
                    <polygon id="Rectangle" stroke="#CCE3FF" stroke-width="8.54999989" transform="translate(541.339687, 600.291971) rotate(90.000000) translate(-541.339687, -600.291971) " points="517.712507 576.664791 564.966867 576.664791 564.966867 623.919152 517.712507 623.919152"></polygon>
                    <line x1="517.712507" y1="576.66479" x2="564.966867" y2="623.919151" id="Path" stroke="#CCE3FF" stroke-width="8.54999989"></line>
                    <line x1="517.712507" y1="623.919151" x2="564.966867" y2="576.66479" id="Path" stroke="#CCE3FF" stroke-width="8.54999989"></line>
                    <rect id="Rectangle" stroke="#CCE3FF" stroke-width="8.54999989" transform="translate(494.085326, 553.037611) rotate(90.000000) translate(-494.085326, -553.037611) " x="470.458146" y="529.41043" width="47.2543608" height="47.2543608"></rect>
                    <line x1="470.458146" y1="529.410429" x2="517.712507" y2="576.66479" id="Path" stroke="#CCE3FF" stroke-width="8.54999989"></line>
                    <line x1="470.458146" y1="576.66479" x2="517.712507" y2="529.410429" id="Path" stroke="#CCE3FF" stroke-width="8.54999989"></line>
                    <polygon id="Rectangle" stroke="#CCE3FF" stroke-width="8.54999989" transform="translate(376.470790, 600.285065) rotate(90.000000) translate(-376.470790, -600.285065) " points="352.84361 576.657884 400.097971 576.657884 400.097971 623.912245 352.84361 623.912245"></polygon>
                    <line x1="352.843609" y1="576.66479" x2="400.09797" y2="623.919151" id="Path" stroke="#CCE3FF" stroke-width="8.54999989"></line>
                    <line x1="352.843609" y1="623.919151" x2="400.09797" y2="576.66479" id="Path" stroke="#CCE3FF" stroke-width="8.54999989"></line>
                    <line x1="414.157575" y1="310.312613" x2="354.604513" y2="369.85877" id="Path" stroke="#CCE3FF" stroke-width="5.69999993" stroke-linecap="round"></line>
                    <line x1="414.378551" y1="310.084731" x2="474.373566" y2="370.079746" id="Path" stroke="#CCE3FF" stroke-width="5.69999993" stroke-linecap="round"></line>
                    <line x1="414.378551" y1="157.217599" x2="414.378551" y2="310.623361" id="Path" stroke="#CCE3FF" stroke-width="5.69999993" stroke-linecap="round"></line>
                    <rect id="Rectangle" fill="#B6D4FF" transform="translate(414.382005, 153.057034) rotate(-180.000000) translate(-414.382005, -153.057034) " x="396.120401" y="143.662096" width="36.5232083" height="18.7898752"></rect>
                    <circle id="Oval" fill="#B6D4FF" cx="414.378551" cy="122.924868" r="15.9793352"></circle>
                    <line x1="52.5163545" y1="117.476427" x2="186.358824" y2="0" id="Path" stroke="#CCE3FF" stroke-width="5.69999993" stroke-linecap="round"></line>
                    <line x1="414.917181" y1="103.506592" x2="186.358824" y2="0" id="Path" stroke="#CCE3FF" stroke-width="5.69999993" stroke-linecap="round"></line>
                    <rect id="Rectangle" stroke="#CCE3FF" stroke-width="8.54999989" transform="translate(186.362276, 558.879667) rotate(-180.000000) translate(-186.362276, -558.879667) " x="162.735096" y="535.252486" width="47.2543608" height="47.2543608"></rect>
                    <line x1="209.982552" y1="535.259391" x2="162.728191" y2="582.513752" id="Path" stroke="#CCE3FF" stroke-width="8.54999989"></line>
                    <line x1="162.728191" y1="535.259391" x2="209.982552" y2="582.513752" id="Path" stroke="#CCE3FF" stroke-width="8.54999989"></line>
                    <rect id="Rectangle" stroke="#CCE3FF" stroke-width="8.54999989" transform="translate(186.362276, 464.370943) rotate(-180.000000) translate(-186.362276, -464.370943) " x="162.735096" y="440.743763" width="47.2543608" height="47.2543608"></rect>
                    <line x1="209.982552" y1="440.75067" x2="162.728191" y2="488.00503" id="Path" stroke="#CCE3FF" stroke-width="8.54999989"></line>
                    <line x1="162.728191" y1="440.75067" x2="209.982552" y2="488.00503" id="Path" stroke="#CCE3FF" stroke-width="8.54999989"></line>
                    <rect id="Rectangle" stroke="#CCE3FF" stroke-width="8.54999989" transform="translate(186.362276, 511.625306) rotate(-180.000000) translate(-186.362276, -511.625306) " x="162.735096" y="487.998126" width="47.2543608" height="47.2543608"></rect>
                    <line x1="209.982552" y1="488.00503" x2="162.728191" y2="535.259391" id="Path" stroke="#CCE3FF" stroke-width="8.54999989"></line>
                    <line x1="162.728191" y1="488.00503" x2="209.982552" y2="535.259391" id="Path" stroke="#CCE3FF" stroke-width="8.54999989"></line>
                    <rect id="Rectangle" fill="#B6D4FF" transform="translate(186.358825, 175.268585) rotate(-180.000000) translate(-186.358825, -175.268585) " x="150.22923" y="146.983643" width="72.2591891" height="56.5698851"></rect>
                    <rect id="Rectangle" stroke="#CCE3FF" stroke-width="8.54999989" transform="translate(186.362276, 417.116583) rotate(-180.000000) translate(-186.362276, -417.116583) " x="162.735096" y="393.489402" width="47.2543608" height="47.2543608"></rect>
                    <line x1="209.982552" y1="393.496309" x2="162.728191" y2="440.75067" id="Path" stroke="#CCE3FF" stroke-width="8.54999989"></line>
                    <line x1="162.728191" y1="393.496309" x2="209.982552" y2="440.75067" id="Path" stroke="#CCE3FF" stroke-width="8.54999989"></line>
                    <rect id="Rectangle" stroke="#CCE3FF" stroke-width="8.54999989" transform="translate(186.362276, 322.607861) rotate(-180.000000) translate(-186.362276, -322.607861) " x="162.735096" y="298.980681" width="47.2543608" height="47.2543608"></rect>
                    <line x1="209.982552" y1="298.980682" x2="162.728191" y2="346.235042" id="Path" stroke="#CCE3FF" stroke-width="8.54999989"></line>
                    <line x1="162.728191" y1="298.980682" x2="209.982552" y2="346.235042" id="Path" stroke="#CCE3FF" stroke-width="8.54999989"></line>
                    <rect id="Rectangle" stroke="#CCE3FF" stroke-width="8.54999989" transform="translate(186.362276, 369.862222) rotate(-180.000000) translate(-186.362276, -369.862222) " x="162.735096" y="346.235042" width="47.2543608" height="47.2543608"></rect>
                    <line x1="209.982552" y1="346.235042" x2="162.728191" y2="393.496309" id="Path" stroke="#CCE3FF" stroke-width="8.54999989"></line>
                    <line x1="162.728191" y1="346.235042" x2="209.982552" y2="393.496309" id="Path" stroke="#CCE3FF" stroke-width="8.54999989"></line>
                    <rect id="Rectangle" stroke="#CCE3FF" stroke-width="8.54999989" transform="translate(186.362276, 275.353500) rotate(-180.000000) translate(-186.362276, -275.353500) " x="162.735096" y="251.72632" width="47.2543608" height="47.2543608"></rect>
                    <line x1="209.982552" y1="251.726321" x2="162.728191" y2="298.980682" id="Path" stroke="#CCE3FF" stroke-width="8.54999989"></line>
                    <line x1="162.728191" y1="251.726321" x2="209.982552" y2="298.980682" id="Path" stroke="#CCE3FF" stroke-width="8.54999989"></line>
                    <rect id="Rectangle" stroke="#CCE3FF" stroke-width="8.54999989" transform="translate(186.362276, 180.844779) rotate(-180.000000) translate(-186.362276, -180.844779) " x="162.735096" y="157.217598" width="47.2543608" height="47.2543608"></rect>
                    <line x1="209.982552" y1="157.217599" x2="162.728191" y2="204.47196" id="Path" stroke="#CCE3FF" stroke-width="8.54999989"></line>
                    <line x1="162.728191" y1="157.217599" x2="209.982552" y2="204.47196" id="Path" stroke="#CCE3FF" stroke-width="8.54999989"></line>
                    <rect id="Rectangle" stroke="#CCE3FF" stroke-width="8.54999989" transform="translate(186.362276, 228.099140) rotate(-180.000000) translate(-186.362276, -228.099140) " x="162.735096" y="204.471959" width="47.2543608" height="47.2543608"></rect>
                    <line x1="209.982552" y1="204.47196" x2="162.728191" y2="251.726321" id="Path" stroke="#CCE3FF" stroke-width="8.54999989"></line>
                    <line x1="162.728191" y1="204.47196" x2="209.982552" y2="251.726321" id="Path" stroke="#CCE3FF" stroke-width="8.54999989"></line>
                    <rect id="Rectangle" fill="#CCE3FF" transform="translate(186.362276, 605.612662) rotate(-180.000000) translate(-186.362276, -605.612662) " x="90.24112" y="582.506847" width="192.242313" height="46.2116298"></rect>
                    <rect id="Rectangle" fill="#DCEEFF" transform="translate(414.913727, 427.426501) rotate(-180.000000) translate(-414.913727, -427.426501) " x="327.597088" y="364.652021" width="174.633279" height="125.54896" rx="15.7889998"></rect>
                    <path d="M327.603995,364.652021 L502.237274,364.652021 L502.237274,382.910172 C502.237274,389.248714 497.09887,394.387119 490.760327,394.387119 L339.074037,394.387119 C332.735493,394.387119 327.59709,389.248714 327.59709,382.910172 L327.59709,364.652021 L327.603995,364.652021 Z" id="Path" fill="#CCE3FF" transform="translate(414.917182, 379.519570) rotate(-180.000000) translate(-414.917182, -379.519570) "></path>
                    <rect id="Rectangle" fill="#CCE3FF" transform="translate(186.358824, 190.940626) rotate(-180.000000) translate(-186.358824, -190.940626) " x="129.906333" y="177.650985" width="112.904983" height="26.5792831"></rect>
                    <rect id="Rectangle" fill="#B6D4FF" transform="translate(139.580942, 128.028036) rotate(-180.000000) translate(-139.580942, -128.028036) " x="24.8874336" y="117.53167" width="229.387017" height="20.9927308"></rect>
                    <rect id="Rectangle" fill="#DCEEFF" transform="translate(109.231255, 117.179490) rotate(-180.000000) translate(-109.231255, -117.179490) " x="86.6226365" y="106.33785" width="45.2172372" height="21.6832811"></rect>
                    <rect id="Rectangle" fill="#DCEEFF" transform="translate(54.594911, 117.179490) rotate(-180.000000) translate(-54.594911, -117.179490) " x="31.9862922" y="106.33785" width="45.2172372" height="21.6832811"></rect>
                    <line x1="186.358824" y1="102.760799" x2="186.358824" y2="0" id="Path" stroke="#B6D4FF" stroke-width="7.5999999" stroke-linecap="round"></line>
                    <line x1="231.120299" y1="92.9964162" x2="186.358824" y2="0" id="Path" stroke="#B6D4FF" stroke-width="7.5999999" stroke-linecap="round"></line>
                    <line x1="141.59735" y1="92.9964162" x2="186.358824" y2="0" id="Path" stroke="#B6D4FF" stroke-width="7.5999999" stroke-linecap="round"></line>
                    <rect id="Rectangle" fill="#CCE3FF" transform="translate(186.358824, 123.118223) rotate(-180.000000) translate(-186.358824, -123.118223) " x="138.814432" y="87.8380054" width="95.0887839" height="70.5604352"></rect>
                    <rect id="Rectangle" fill="#B6D4FF" transform="translate(208.770636, 123.114770) rotate(-180.000000) translate(-208.770636, -123.114770) " x="183.638056" y="100.847973" width="50.2651603" height="44.5335924"></rect>
                    <polygon id="Path" stroke="#CCE3FF" stroke-width="6.64999992" stroke-linejoin="round" points="538.705238 143.662096 498.549734 103.506592 498.549734 143.662096"></polygon>
                    <polygon id="Rectangle" stroke="#CCE3FF" stroke-width="6.64999992" transform="translate(434.991480, 123.587797) rotate(90.000000) translate(-434.991480, -123.587797) " points="414.910276 103.506593 455.072685 103.506593 455.072685 143.669002 414.910276 143.669002"></polygon>
                    <line x1="414.917181" y1="103.506592" x2="455.07959" y2="143.662096" id="Path" stroke="#CCE3FF" stroke-width="6.64999992"></line>
                    <line x1="414.917181" y1="143.662096" x2="455.07959" y2="103.506592" id="Path" stroke="#CCE3FF" stroke-width="6.64999992"></line>
                    <polygon id="Rectangle" stroke="#CCE3FF" stroke-width="6.64999992" transform="translate(475.153889, 123.587797) rotate(90.000000) translate(-475.153889, -123.587797) " points="455.072685 103.506593 495.235093 103.506593 495.235093 143.669002 455.072685 143.669002"></polygon>
                    <line x1="455.07959" y1="103.506592" x2="495.235093" y2="143.662096" id="Path" stroke="#CCE3FF" stroke-width="6.64999992"></line>
                    <line x1="455.07959" y1="143.662096" x2="495.235093" y2="103.506592" id="Path" stroke="#CCE3FF" stroke-width="6.64999992"></line>
                    <polygon id="Rectangle" stroke="#CCE3FF" stroke-width="6.64999992" transform="translate(394.835976, 123.587798) rotate(90.000000) translate(-394.835976, -123.587798) " points="374.754772 103.506593 414.917181 103.506593 414.917181 143.669003 374.754772 143.669003"></polygon>
                    <line x1="374.754772" y1="103.506592" x2="414.917181" y2="143.662096" id="Path" stroke="#CCE3FF" stroke-width="6.64999992"></line>
                    <line x1="374.754772" y1="143.662096" x2="414.917181" y2="103.506592" id="Path" stroke="#CCE3FF" stroke-width="6.64999992"></line>
                    <polygon id="Rectangle" stroke="#CCE3FF" stroke-width="6.64999992" transform="translate(314.518065, 123.587797) rotate(90.000000) translate(-314.518065, -123.587797) " points="294.436861 103.506593 334.599269 103.506593 334.599269 143.669002 294.436861 143.669002"></polygon>
                    <line x1="294.43686" y1="103.506592" x2="334.599269" y2="143.662096" id="Path" stroke="#CCE3FF" stroke-width="6.64999992"></line>
                    <line x1="294.43686" y1="143.662096" x2="334.599269" y2="103.506592" id="Path" stroke="#CCE3FF" stroke-width="6.64999992"></line>
                    <polygon id="Rectangle" stroke="#CCE3FF" stroke-width="6.64999992" transform="translate(354.673568, 123.580892) rotate(90.000000) translate(-354.673568, -123.580892) " points="334.592364 103.499687 374.754772 103.499687 374.754772 143.662097 334.592364 143.662097"></polygon>
                    <line x1="334.599269" y1="103.506592" x2="374.754772" y2="143.662096" id="Path" stroke="#CCE3FF" stroke-width="6.64999992"></line>
                    <line x1="334.599269" y1="143.662096" x2="374.754772" y2="103.506592" id="Path" stroke="#CCE3FF" stroke-width="6.64999992"></line>
                    <polygon id="Rectangle" stroke="#CCE3FF" stroke-width="6.64999992" transform="translate(274.355656, 123.587797) rotate(90.000000) translate(-274.355656, -123.587797) " points="254.274452 103.506593 294.436861 103.506593 294.436861 143.669002 254.274452 143.669002"></polygon>
                    <line x1="254.274452" y1="103.506592" x2="294.43686" y2="143.662096" id="Path" stroke="#CCE3FF" stroke-width="6.64999992"></line>
                    <line x1="254.274452" y1="143.662096" x2="294.43686" y2="103.506592" id="Path" stroke="#CCE3FF" stroke-width="6.64999992"></line>
                    <circle id="Oval" fill="#ECF6FF" cx="484.835404" cy="379.298593" r="7.85155754"></circle>
                    <circle id="Oval" fill="#ECF6FF" cx="459.996308" cy="379.298593" r="7.85155754"></circle>
                    <circle id="Oval" fill="#ECF6FF" cx="435.164117" cy="379.298593" r="7.85155754"></circle>
                    <polygon id="Rectangle" fill="#ECF6FF" transform="translate(414.381880, 310.084227) rotate(-135.000000) translate(-414.381880, -310.084227) " points="404.292939 299.995286 424.47082 299.995286 424.47082 320.173168 404.292939 320.173168"></polygon>
                    <polygon id="Rectangle" stroke="#DCEEFF" stroke-width="6.64999992" transform="translate(874.827171, 604.048565) rotate(-90.000000) translate(-874.827171, -604.048565) " points="854.991112 584.212506 894.66323 584.212506 894.66323 623.884624 854.991112 623.884624"></polygon>
                    <line x1="854.991111" y1="623.884624" x2="894.663229" y2="584.212506" id="Path" stroke="#DCEEFF" stroke-width="6.64999992"></line>
                    <line x1="854.991111" y1="584.212506" x2="894.663229" y2="623.884624" id="Path" stroke="#DCEEFF" stroke-width="6.64999992"></line>
                    <polygon id="Rectangle" stroke="#DCEEFF" stroke-width="6.64999992" transform="translate(754.043007, 604.041659) rotate(-90.000000) translate(-754.043007, -604.041659) " points="734.206949 584.2056 773.879066 584.2056 773.879066 623.877718 734.206949 623.877718"></polygon>
                    <line x1="734.206948" y1="623.884624" x2="773.879066" y2="584.212506" id="Path" stroke="#DCEEFF" stroke-width="6.64999992"></line>
                    <line x1="734.206948" y1="584.212506" x2="773.879066" y2="623.884624" id="Path" stroke="#DCEEFF" stroke-width="6.64999992"></line>
                    <polygon id="Rectangle" stroke="#DCEEFF" stroke-width="6.64999992" transform="translate(835.148147, 604.048564) rotate(-90.000000) translate(-835.148147, -604.048564) " points="815.312088 584.212505 854.984205 584.212505 854.984205 623.884623 815.312088 623.884623"></polygon>
                    <line x1="815.312088" y1="623.884624" x2="854.991111" y2="584.212506" id="Path" stroke="#DCEEFF" stroke-width="6.64999992"></line>
                    <line x1="815.312088" y1="584.212506" x2="854.991111" y2="623.884624" id="Path" stroke="#DCEEFF" stroke-width="6.64999992"></line>
                    <line x1="840.972938" y1="361.385717" x2="890.968784" y2="411.381562" id="Path" stroke="#DCEEFF" stroke-width="4.74999994" stroke-linecap="round"></line>
                    <line x1="840.78649" y1="361.199268" x2="790.410842" y2="411.568011" id="Path" stroke="#DCEEFF" stroke-width="4.74999994" stroke-linecap="round"></line>
                    <line x1="840.78649" y1="232.853579" x2="840.78649" y2="361.648126" id="Path" stroke="#DCEEFF" stroke-width="4.74999994" stroke-linecap="round"></line>
                    <rect id="Rectangle" fill="#CCE3FF" x="825.449367" y="221.47331" width="30.6673413" height="15.7790756"></rect>
                    <circle id="Oval" fill="#CCE3FF" cx="840.78649" cy="204.05763" r="13.4173934"></circle>
                    <line x1="1144.60103" y1="199.479281" x2="1032.22777" y2="100.847974" id="Path" stroke="#DCEEFF" stroke-width="4.74999994" stroke-linecap="round"></line>
                    <line x1="840.330727" y1="187.753736" x2="1032.22777" y2="100.847974" id="Path" stroke="#DCEEFF" stroke-width="4.74999994" stroke-linecap="round"></line>
                    <rect id="Rectangle" stroke="#DCEEFF" stroke-width="6.64999992" x="1012.39516" y="550.251239" width="39.6721179" height="39.6721179"></rect>
                    <line x1="1012.39516" y1="550.251239" x2="1052.06727" y2="589.923357" id="Path" stroke="#DCEEFF" stroke-width="6.64999992"></line>
                    <line x1="1052.06727" y1="550.251239" x2="1012.39516" y2="589.923357" id="Path" stroke="#DCEEFF" stroke-width="6.64999992"></line>
                    <rect id="Rectangle" stroke="#DCEEFF" stroke-width="6.64999992" x="1012.39516" y="470.900098" width="39.6721179" height="39.6721179"></rect>
                    <line x1="1012.39516" y1="470.900098" x2="1052.06727" y2="510.572215" id="Path" stroke="#DCEEFF" stroke-width="6.64999992"></line>
                    <line x1="1052.06727" y1="470.900098" x2="1012.39516" y2="510.572215" id="Path" stroke="#DCEEFF" stroke-width="6.64999992"></line>
                    <rect id="Rectangle" stroke="#DCEEFF" stroke-width="6.64999992" x="1012.39516" y="510.572215" width="39.6721179" height="39.6721179"></rect>
                    <line x1="1012.39516" y1="510.572215" x2="1052.06727" y2="550.251239" id="Path" stroke="#DCEEFF" stroke-width="6.64999992"></line>
                    <line x1="1052.06727" y1="510.572215" x2="1012.39516" y2="550.251239" id="Path" stroke="#DCEEFF" stroke-width="6.64999992"></line>
                    <rect id="Rectangle" fill="#CCE3FF" x="1001.89188" y="224.256228" width="60.6717542" height="47.4960534"></rect>
                    <rect id="Rectangle" stroke="#DCEEFF" stroke-width="6.64999992" x="1012.39516" y="431.22798" width="39.6721179" height="39.6721179"></rect>
                    <line x1="1012.39516" y1="431.22798" x2="1052.06727" y2="470.900098" id="Path" stroke="#DCEEFF" stroke-width="6.64999992"></line>
                    <line x1="1052.06727" y1="431.22798" x2="1012.39516" y2="470.900098" id="Path" stroke="#DCEEFF" stroke-width="6.64999992"></line>
                    <rect id="Rectangle" stroke="#DCEEFF" stroke-width="6.64999992" x="1012.39516" y="351.876839" width="39.6721179" height="39.6721179"></rect>
                    <line x1="1012.39516" y1="351.876839" x2="1052.06727" y2="391.548957" id="Path" stroke="#DCEEFF" stroke-width="6.64999992"></line>
                    <line x1="1052.06727" y1="351.876839" x2="1012.39516" y2="391.548957" id="Path" stroke="#DCEEFF" stroke-width="6.64999992"></line>
                    <rect id="Rectangle" stroke="#DCEEFF" stroke-width="6.64999992" x="1012.39516" y="391.548957" width="39.6721179" height="39.6721179"></rect>
                    <line x1="1012.39516" y1="391.548957" x2="1052.06727" y2="431.22798" id="Path" stroke="#DCEEFF" stroke-width="6.64999992"></line>
                    <line x1="1052.06727" y1="391.548957" x2="1012.39516" y2="431.22798" id="Path" stroke="#DCEEFF" stroke-width="6.64999992"></line>
                    <rect id="Rectangle" stroke="#DCEEFF" stroke-width="6.64999992" x="1012.39516" y="312.197815" width="39.6721179" height="39.6721179"></rect>
                    <line x1="1012.39516" y1="312.197815" x2="1052.06727" y2="351.876839" id="Path" stroke="#DCEEFF" stroke-width="6.64999992"></line>
                    <line x1="1052.06727" y1="312.197815" x2="1012.39516" y2="351.876839" id="Path" stroke="#DCEEFF" stroke-width="6.64999992"></line>
                    <rect id="Rectangle" stroke="#CCE3FF" stroke-width="6.64999992" x="1012.39516" y="232.853579" width="39.6721179" height="39.6721179"></rect>
                    <line x1="1012.39516" y1="232.853579" x2="1052.06727" y2="272.525698" id="Path" stroke="#CCE3FF" stroke-width="6.64999992"></line>
                    <line x1="1052.06727" y1="232.853579" x2="1012.39516" y2="272.525698" id="Path" stroke="#CCE3FF" stroke-width="6.64999992"></line>
                    <rect id="Rectangle" stroke="#DCEEFF" stroke-width="6.64999992" x="1012.39516" y="272.525698" width="39.6721179" height="39.6721179"></rect>
                    <line x1="1012.39516" y1="272.525698" x2="1052.06727" y2="312.197815" id="Path" stroke="#DCEEFF" stroke-width="6.64999992"></line>
                    <line x1="1052.06727" y1="272.525698" x2="1012.39516" y2="312.197815" id="Path" stroke="#DCEEFF" stroke-width="6.64999992"></line>
                    <rect id="Rectangle" fill="#DCEEFF" x="951.530049" y="589.923357" width="161.402334" height="38.7951189"></rect>
                    <rect id="Rectangle" fill="#DCEEFF" x="769.922212" y="407.010379" width="140.817029" height="101.234682"></rect>
                    <rect id="Rectangle" fill="#DCEEFF" x="984.835291" y="249.999945" width="94.7918472" height="22.3185875"></rect>
                    <rect id="Rectangle" fill="#CCE3FF" x="975.20212" y="199.52762" width="192.594494" height="17.622845"></rect>
                    <rect id="Rectangle" fill="#DCEEFF" x="1078.00434" y="190.136135" width="37.9664585" height="18.2029073"></rect>
                    <rect id="Rectangle" fill="#DCEEFF" x="1123.87071" y="190.136135" width="37.9664585" height="18.2029073"></rect>
                    <line x1="1032.22777" y1="187.13224" x2="1032.22777" y2="100.847974" id="Path" stroke="#CCE3FF" stroke-width="5.69999993" stroke-linecap="round"></line>
                    <line x1="994.648012" y1="178.928502" x2="1032.22777" y2="100.847974" id="Path" stroke="#CCE3FF" stroke-width="5.69999993" stroke-linecap="round"></line>
                    <line x1="1069.80752" y1="178.928502" x2="1032.22777" y2="100.847974" id="Path" stroke="#CCE3FF" stroke-width="5.69999993" stroke-linecap="round"></line>
                    <rect id="Rectangle" fill="#DCEEFF" x="992.313957" y="174.598752" width="79.8345266" height="59.2423149"></rect>
                    <rect id="Rectangle" fill="#CCE3FF" x="992.313957" y="185.523259" width="42.2064377" height="37.3863962"></rect>
                    <polygon id="Path" stroke="#DCEEFF" stroke-width="4.74999994" stroke-linejoin="round" points="736.395992 221.47331 770.115567 187.753736 770.115567 221.47331"></polygon>
                    <polygon id="Rectangle" stroke="#DCEEFF" stroke-width="4.74999994" transform="translate(823.470939, 204.613523) rotate(90.000000) translate(-823.470939, -204.613523) " points="806.611152 187.753736 840.330726 187.753736 840.330726 221.47331 806.611152 221.47331"></polygon>
                    <line x1="840.330727" y1="187.753736" x2="806.618058" y2="221.47331" id="Path" stroke="#DCEEFF" stroke-width="4.74999994"></line>
                    <line x1="840.330727" y1="221.47331" x2="806.618058" y2="187.753736" id="Path" stroke="#DCEEFF" stroke-width="4.74999994"></line>
                    <polygon id="Rectangle" stroke="#DCEEFF" stroke-width="4.74999994" transform="translate(789.758271, 204.606617) rotate(90.000000) translate(-789.758271, -204.606617) " points="772.898484 187.746829 806.618058 187.746829 806.618058 221.466404 772.898484 221.466404"></polygon>
                    <line x1="806.618058" y1="187.753736" x2="772.898484" y2="221.47331" id="Path" stroke="#DCEEFF" stroke-width="4.74999994"></line>
                    <line x1="806.618058" y1="221.47331" x2="772.898484" y2="187.753736" id="Path" stroke="#DCEEFF" stroke-width="4.74999994"></line>
                    <polygon id="Rectangle" stroke="#DCEEFF" stroke-width="4.74999994" transform="translate(857.190513, 204.613523) rotate(90.000000) translate(-857.190513, -204.613523) " points="840.330726 187.753736 874.0503 187.753736 874.0503 221.47331 840.330726 221.47331"></polygon>
                    <line x1="874.050301" y1="187.753736" x2="840.330727" y2="221.47331" id="Path" stroke="#DCEEFF" stroke-width="4.74999994"></line>
                    <line x1="874.050301" y1="221.47331" x2="840.330727" y2="187.753736" id="Path" stroke="#DCEEFF" stroke-width="4.74999994"></line>
                    <polygon id="Rectangle" stroke="#DCEEFF" stroke-width="4.74999994" transform="translate(924.629661, 204.613522) rotate(90.000000) translate(-924.629661, -204.613522) " points="907.769874 187.753735 941.489448 187.753735 941.489448 221.473309 907.769874 221.473309"></polygon>
                    <line x1="941.489448" y1="187.753736" x2="907.769874" y2="221.47331" id="Path" stroke="#DCEEFF" stroke-width="4.74999994"></line>
                    <line x1="941.489448" y1="221.47331" x2="907.769874" y2="187.753736" id="Path" stroke="#DCEEFF" stroke-width="4.74999994"></line>
                    <polygon id="Rectangle" stroke="#DCEEFF" stroke-width="4.74999994" transform="translate(890.910087, 204.613523) rotate(90.000000) translate(-890.910087, -204.613523) " points="874.050301 187.753735 907.769874 187.753735 907.769874 221.47331 874.050301 221.47331"></polygon>
                    <line x1="907.769874" y1="187.753736" x2="874.050301" y2="221.47331" id="Path" stroke="#DCEEFF" stroke-width="4.74999994"></line>
                    <line x1="907.769874" y1="221.47331" x2="874.050301" y2="187.753736" id="Path" stroke="#DCEEFF" stroke-width="4.74999994"></line>
                    <polygon id="Rectangle" stroke="#DCEEFF" stroke-width="4.74999994" transform="translate(958.349234, 204.606619) rotate(90.000000) translate(-958.349234, -204.606619) " points="941.489445 187.746832 975.209023 187.746832 975.209023 221.466406 941.489445 221.466406"></polygon>
                    <line x1="975.20212" y1="187.753736" x2="941.489448" y2="221.47331" id="Path" stroke="#DCEEFF" stroke-width="4.74999994"></line>
                    <line x1="975.20212" y1="221.47331" x2="941.489448" y2="187.753736" id="Path" stroke="#DCEEFF" stroke-width="4.74999994"></line>
                    <polygon id="Rectangle" fill="#ECF6FF" transform="translate(840.785107, 361.196801) rotate(-45.000000) translate(-840.785107, -361.196801) " points="832.315508 352.7272 849.254707 352.7272 849.254707 369.666401 832.315508 369.666401"></polygon>
                    <polygon id="Path" fill="#CCE3FF" points="769.922212 486.637741 817.287062 436.23447 860.653624 483.419776 889.014527 458.118011 910.739241 481.990336 910.739241 508.245061 769.922212 508.245061"></polygon>
                    <circle id="Oval" fill="#CCE3FF" cx="870.54921" cy="431.131303" r="12.6025439"></circle>
                    <line x1="1209.41608" y1="632.903211" x2="0" y2="632.903211" id="Path" stroke="#DCEEFF" stroke-width="18.9999998" fill="#ECF6FF" stroke-linecap="round"></line>
                </g>
                <g id="Man" transform="translate(123.499998, 163.399998)">
                    <ellipse id="Oval" fill="#AFB3C6" cx="484.370763" cy="579.603575" rx="483.916972" ry="2.49979228"></ellipse>
                    <rect id="Rectangle" fill="#9EA5B5" x="430.190182" y="10.2102807" width="395.947763" height="437.705342" rx="18.3159998"></rect>
                    <path d="M443.503993,10.2102807 L812.817225,10.2102807 C820.170244,10.2102807 826.131038,16.1710765 826.131038,23.5240907 L826.131038,46.7542048 L430.190182,46.7542048 L430.190182,23.5240907 C430.190182,16.1710765 436.150978,10.2102807 443.503993,10.2102807 Z" id="Path" fill="#AFB3C6"></path>
                    <circle id="Oval" fill="#DFE2E8" cx="453.48935" cy="29.2625646" r="9.41910684"></circle>
                    <circle id="Oval" fill="#DFE2E8" cx="484.232653" cy="29.2625646" r="9.41910684"></circle>
                    <circle id="Oval" fill="#DFE2E8" cx="514.969049" cy="29.2625646" r="9.41910684"></circle>
                    <rect id="Rectangle" fill="#61697E" x="430.190182" y="46.7542048" width="395.947763" height="52.2677564"></rect>
                    <path d="M772.385501,147.298337 L759.265051,147.298337 L759.265051,150.751088 L772.385501,150.751088 L772.385501,147.298337 Z M746.144592,147.298337 L733.024134,147.298337 L733.024134,150.751088 L746.144592,150.751088 L746.144592,147.298337 Z M719.903677,147.298337 L706.783221,147.298337 L706.783221,150.751088 L719.903677,150.751088 L719.903677,147.298337 Z M693.662764,147.298337 L680.542307,147.298337 L680.542307,150.751088 L693.662764,150.751088 L693.662764,147.298337 Z M667.42185,147.298337 L654.301394,147.298337 L654.301394,150.751088 L667.42185,150.751088 L667.42185,147.298337 Z M641.180936,147.298337 L628.06048,147.298337 L628.06048,150.751088 L641.180936,150.751088 L641.180936,147.298337 Z M614.940023,147.298337 L601.819567,147.298337 L601.819567,150.751088 L614.940023,150.751088 L614.940023,147.298337 Z M588.69911,147.298337 L575.578653,147.298337 L575.578653,150.751088 L588.69911,150.751088 L588.69911,147.298337 Z M562.458197,147.298337 L549.33774,147.298337 L549.33774,150.751088 L562.458197,150.751088 L562.458197,147.298337 Z M536.217283,147.298337 L523.096826,147.298337 L523.096826,150.751088 L536.217283,150.751088 L536.217283,147.298337 Z M509.97637,147.298337 L496.855913,147.298337 L496.855913,150.751088 L509.97637,150.751088 L509.97637,147.298337 Z M483.735456,147.298337 L470.614999,147.298337 L470.614999,150.751088 L483.735456,150.751088 L483.735456,147.298337 Z M457.494543,147.298337 L453.48935,147.298337 L453.48935,150.751088 L453.48935,156.413601 L456.942103,156.413601 L456.942103,150.751088 L457.494543,150.751088 L457.494543,147.298337 Z M456.942103,169.534059 L453.48935,169.534059 L453.48935,182.654515 L456.942103,182.654515 L456.942103,169.534059 Z M456.942103,195.774972 L453.48935,195.774972 L453.48935,199.566093 L462.818686,199.566093 L462.818686,196.113342 L456.942103,196.113342 L456.942103,195.774972 Z M489.0596,196.113342 L475.939142,196.113342 L475.939142,199.566093 L489.0596,199.566093 L489.0596,196.113342 Z M515.300513,196.113342 L502.180056,196.113342 L502.180056,199.566093 L515.300513,199.566093 L515.300513,196.113342 Z M541.541427,196.113342 L528.420969,196.113342 L528.420969,199.566093 L541.541427,199.566093 L541.541427,196.113342 Z M567.782339,196.113342 L554.661883,196.113342 L554.661883,199.566093 L567.782339,199.566093 L567.782339,196.113342 Z M594.023253,196.113342 L580.902797,196.113342 L580.902797,199.566093 L594.023253,199.566093 L594.023253,196.113342 Z M620.264166,196.113342 L607.14371,196.113342 L607.14371,199.566093 L620.264166,199.566093 L620.264166,196.113342 Z M646.50508,196.113342 L633.384624,196.113342 L633.384624,199.566093 L646.50508,199.566093 L646.50508,196.113342 Z M672.745993,196.113342 L659.625537,196.113342 L659.625537,199.566093 L672.745993,199.566093 L672.745993,196.113342 Z M698.986907,196.113342 L685.866451,196.113342 L685.866451,199.566093 L698.986907,199.566093 L698.986907,196.113342 Z M725.22782,196.113342 L712.107364,196.113342 L712.107364,199.566093 L725.22782,199.566093 L725.22782,196.113342 Z M751.468734,196.113342 L738.348278,196.113342 L738.348278,199.566093 L751.468734,199.566093 L751.468734,196.113342 Z M777.709643,196.113342 L764.589193,196.113342 L764.589193,199.566093 L777.709643,199.566093 L777.709643,196.113342 Z M798.62642,194.235044 L795.173664,194.235044 L795.173664,196.113342 L790.830103,196.113342 L790.830103,199.566093 L798.62642,199.566093 L798.62642,194.235044 Z M798.62642,167.99413 L795.173664,167.99413 L795.173664,181.114588 L798.62642,181.114588 L798.62642,167.99413 Z M798.62642,147.27762 L785.505961,147.27762 L785.505961,150.730372 L795.173664,150.730372 L795.173664,154.873674 L798.62642,154.873674 L798.62642,147.27762 Z" id="Shape" fill="#FCFCFC" fill-rule="nonzero"></path>
                    <path d="M772.385501,252.952541 L759.265051,252.952541 L759.265051,256.405293 L772.385501,256.405293 L772.385501,252.952541 Z M746.144592,252.952541 L733.024134,252.952541 L733.024134,256.405293 L746.144592,256.405293 L746.144592,252.952541 Z M719.903677,252.952541 L706.783221,252.952541 L706.783221,256.405293 L719.903677,256.405293 L719.903677,252.952541 Z M693.662764,252.952541 L680.542307,252.952541 L680.542307,256.405293 L693.662764,256.405293 L693.662764,252.952541 Z M667.42185,252.952541 L654.301394,252.952541 L654.301394,256.405293 L667.42185,256.405293 L667.42185,252.952541 Z M641.180936,252.952541 L628.06048,252.952541 L628.06048,256.405293 L641.180936,256.405293 L641.180936,252.952541 Z M614.940023,252.952541 L601.819567,252.952541 L601.819567,256.405293 L614.940023,256.405293 L614.940023,252.952541 Z M588.69911,252.952541 L575.578653,252.952541 L575.578653,256.405293 L588.69911,256.405293 L588.69911,252.952541 Z M562.458197,252.952541 L549.33774,252.952541 L549.33774,256.405293 L562.458197,256.405293 L562.458197,252.952541 Z M536.217283,252.952541 L523.096826,252.952541 L523.096826,256.405293 L536.217283,256.405293 L536.217283,252.952541 Z M509.97637,252.952541 L496.855913,252.952541 L496.855913,256.405293 L509.97637,256.405293 L509.97637,252.952541 Z M483.735456,252.952541 L470.614999,252.952541 L470.614999,256.405293 L483.735456,256.405293 L483.735456,252.952541 Z M457.494543,252.952541 L453.48935,252.952541 L453.48935,256.405293 L453.48935,262.067806 L456.942103,262.067806 L456.942103,256.405293 L457.494543,256.405293 L457.494543,252.952541 Z M456.942103,275.188263 L453.48935,275.188263 L453.48935,288.308719 L456.942103,288.308719 L456.942103,275.188263 Z M456.942103,301.429176 L453.48935,301.429176 L453.48935,305.220298 L462.818686,305.220298 L462.818686,301.767546 L456.942103,301.767546 L456.942103,301.429176 Z M489.0596,301.767546 L475.939142,301.767546 L475.939142,305.220298 L489.0596,305.220298 L489.0596,301.767546 Z M515.300513,301.767546 L502.180056,301.767546 L502.180056,305.220298 L515.300513,305.220298 L515.300513,301.767546 Z M541.541427,301.767546 L528.420969,301.767546 L528.420969,305.220298 L541.541427,305.220298 L541.541427,301.767546 Z M567.782339,301.767546 L554.661883,301.767546 L554.661883,305.220298 L567.782339,305.220298 L567.782339,301.767546 Z M594.023253,301.767546 L580.902797,301.767546 L580.902797,305.220298 L594.023253,305.220298 L594.023253,301.767546 Z M620.264166,301.767546 L607.14371,301.767546 L607.14371,305.220298 L620.264166,305.220298 L620.264166,301.767546 Z M646.50508,301.767546 L633.384624,301.767546 L633.384624,305.220298 L646.50508,305.220298 L646.50508,301.767546 Z M672.745993,301.767546 L659.625537,301.767546 L659.625537,305.220298 L672.745993,305.220298 L672.745993,301.767546 Z M698.986907,301.767546 L685.866451,301.767546 L685.866451,305.220298 L698.986907,305.220298 L698.986907,301.767546 Z M725.22782,301.767546 L712.107364,301.767546 L712.107364,305.220298 L725.22782,305.220298 L725.22782,301.767546 Z M751.468734,301.767546 L738.348278,301.767546 L738.348278,305.220298 L751.468734,305.220298 L751.468734,301.767546 Z M777.709643,301.767546 L764.589193,301.767546 L764.589193,305.220298 L777.709643,305.220298 L777.709643,301.767546 Z M798.62642,299.889248 L795.173664,299.889248 L795.173664,301.767546 L790.830103,301.767546 L790.830103,305.220298 L798.62642,305.220298 L798.62642,299.889248 Z M798.62642,273.648335 L795.173664,273.648335 L795.173664,286.768792 L798.62642,286.768792 L798.62642,273.648335 Z M798.62642,252.931824 L785.505961,252.931824 L785.505961,256.384577 L795.173664,256.384577 L795.173664,260.527878 L798.62642,260.527878 L798.62642,252.931824 Z" id="Shape" fill="#FCFCFC" fill-rule="nonzero"></path>
                    <line x1="453.48935" y1="123.605554" x2="600.452277" y2="123.605554" id="Path" stroke="#FCFCFC" stroke-width="10.4499999" stroke-dasharray="28.49999964237213"></line>
                    <line x1="453.48935" y1="227.395273" x2="600.452277" y2="227.395273" id="Path" stroke="#FCFCFC" stroke-width="10.4499999" stroke-dasharray="28.49999964237213"></line>
                    <circle id="Oval" fill="#FFFFFF" cx="460.574397" cy="72.8915364" r="14.2391484"></circle>
                    <rect id="Rectangle" fill="#FFFFFF" x="490.889558" y="64.2527514" width="67.0731559" height="17.2844753"></rect>
                    <line x1="808.963959" y1="63.0442878" x2="780.92071" y2="63.0442878" id="Path" stroke="#FFFFFF" stroke-width="4.74999994"></line>
                    <line x1="808.963959" y1="71.9178595" x2="780.92071" y2="71.9178595" id="Path" stroke="#FFFFFF" stroke-width="4.74999994"></line>
                    <line x1="808.963959" y1="80.7914323" x2="780.92071" y2="80.7914323" id="Path" stroke="#FFFFFF" stroke-width="4.74999994"></line>
                    <line x1="603.048746" y1="503.449682" x2="707.273511" y2="503.449682" id="Path" stroke="#3C3C42" stroke-width="11.3999999"></line>
                    <line x1="593.374136" y1="579.127096" x2="615.112661" y2="409.120504" id="Path" stroke="#878A93" stroke-width="11.3999999"></line>
                    <line x1="621.113543" y1="579.127096" x2="642.852069" y2="409.120504" id="Path" stroke="#3C3C42" stroke-width="11.3999999"></line>
                    <line x1="717.293397" y1="579.127096" x2="695.554872" y2="409.120504" id="Path" stroke="#3C3C42" stroke-width="11.3999999"></line>
                    <line x1="689.55399" y1="579.127096" x2="667.815464" y2="409.120504" id="Path" stroke="#878A93" stroke-width="11.3999999"></line>
                    <path d="M603.359494,393.520971 L711.720656,393.520971 C716.297221,393.520971 720.00726,397.23101 720.00726,401.807576 L720.00726,412.221075 L595.072889,412.221075 L595.072889,401.807576 C595.072889,397.23101 598.782929,393.520971 603.359494,393.520971 Z" id="Path" fill="#3C3C42"></path>
                    <path d="M603.359494,393.520971 L675.742982,393.520971 C680.319547,393.520971 684.029587,397.23101 684.029587,401.807576 L684.029587,412.221075 L595.072889,412.221075 L595.072889,401.807576 C595.072889,397.23101 598.782929,393.520971 603.359494,393.520971 Z" id="Path" fill="#878A93"></path>
                    <rect id="Rectangle" stroke="#505463" stroke-width="5.69999993" fill="#FFFFFF" x="499.031146" y="336.840598" width="306.045012" height="54.608722"></rect>
                    <rect id="Rectangle" stroke="#505463" stroke-width="5.69999993" fill="#FFFFFF" x="534.014427" y="282.231876" width="306.045012" height="54.608722"></rect>
                    <line x1="550.877667" y1="295.518065" x2="550.877667" y2="323.561315" id="Path" stroke="#505463" stroke-width="5.69999993"></line>
                    <line x1="516.881873" y1="350.119881" x2="516.881873" y2="378.170037" id="Path" stroke="#505463" stroke-width="5.69999993"></line>
                    <path d="M284.276892,302.333797 C285.181513,310.385614 279.166819,313.499996 271.411939,314.37009 C263.657058,315.240183 257.09683,313.534524 256.21983,305.482707 C255.342831,297.43089 259.127048,282.646206 266.888834,281.783018 C274.65062,280.91983 283.379176,294.28198 284.276892,302.333797 Z" id="Path" fill="#CF3E83"></path>
                    <path d="M274.71277,301.436081 L274.71277,305.579384 C285.996942,305.588812 295.309646,314.408986 295.931616,325.676007 C296.553587,336.94303 288.268304,346.734661 277.053735,347.986081 C276.255875,348.076621 275.453599,348.122729 274.65062,348.124191 C263.386052,348.082861 254.10595,339.268512 253.485158,328.020987 C252.864365,316.773463 261.118058,306.991358 272.309654,305.710588 C273.10764,305.622326 273.909918,305.578525 274.71277,305.579384 L274.71277,301.436081 Z M274.71277,301.436037 C273.757556,301.434283 272.803026,301.487313 271.853891,301.594908 C258.435301,303.068744 248.510812,314.776902 249.254734,328.255675 C249.998658,341.734449 261.151337,352.279312 274.65062,352.267503 C275.605964,352.266953 276.560491,352.211619 277.509498,352.101761 C290.894251,350.598752 300.781495,338.913757 300.048285,325.464852 C299.315075,312.015947 288.216118,301.475081 274.747296,301.436037 L274.71277,301.436037 Z" id="Shape" fill="#878A93" fill-rule="nonzero"></path>
                    <polygon id="Rectangle" fill="#878A93" transform="translate(278.005504, 356.023959) rotate(-6.400000) translate(-278.005504, -356.023959) " points="252.593251 326.561628 303.417757 326.561628 303.417757 385.48629 252.593251 385.48629"></polygon>
                    <polygon id="Rectangle" fill="#66666B" transform="translate(293.494074, 354.287540) rotate(-6.400000) translate(-293.494074, -354.287540) " points="283.660637 324.825209 303.327511 324.825209 303.327511 383.749871 283.660637 383.749871"></polygon>
                    <path d="M257.012962,328.403656 L265.00263,328.403656 L265.00263,354.589324 C265.00263,356.797518 263.212535,358.587611 261.004343,358.587611 C258.796151,358.587611 257.006056,356.797518 257.006056,354.589324 L257.006056,328.403656 L257.012962,328.403656 Z" id="Path" fill="#FFC000" transform="translate(261.004343, 343.495633) rotate(-6.400000) translate(-261.004343, -343.495633) "></path>
                    <path d="M287.10579,324.990261 L295.095458,324.990261 L295.095458,345.851788 C295.095458,348.05998 293.305365,349.850075 291.097171,349.850075 C288.888979,349.850075 287.098885,348.05998 287.098885,345.851788 L287.098885,324.990261 L287.10579,324.990261 Z" id="Path" fill="#FFC000" transform="translate(291.097171, 337.420168) rotate(-6.400000) translate(-291.097171, -337.420168) "></path>
                    <path d="M268.830379,327.020152 L276.820046,327.020152 L276.820046,341.839362 C276.820046,344.047555 275.029953,345.837649 272.82176,345.837649 C270.613567,345.837649 268.823474,344.047555 268.823474,341.839362 L268.823474,327.020152 L268.830379,327.020152 Z" id="Path" fill="#FFC000" transform="translate(272.821760, 336.428900) rotate(-6.400000) translate(-272.821760, -336.428900) "></path>
                    <path d="M267.758927,327.573413 L268.981201,338.477202 C268.840294,337.22912 267.716078,336.330364 266.467598,336.467701 C265.86827,336.538069 265.320389,336.840519 264.941482,337.310173 C264.563636,337.780304 264.389574,338.382058 264.458096,338.981304 L263.235823,328.077514 L267.758927,327.573413 Z" id="Path" fill="#FFC000"></path>
                    <path d="M283.033901,303.590598 C283.793506,310.406331 278.303631,313.258304 271.211679,314.073153 C264.119726,314.888002 258.132655,313.285926 257.400672,306.477099 C256.668688,299.668273 261.758044,293.487846 268.843091,292.666092 C275.928138,291.844337 282.26739,296.75415 283.033901,303.590598 Z" id="Path" fill="#CF3E83"></path>
                    <path d="M278.890599,291.347141 C278.890599,291.347141 288.399477,301.242728 287.032187,304.785251 C285.664898,308.327774 267.510328,310.896621 267.510328,310.896621 C267.510328,310.896621 268.007525,299.744233 281.71495,298.204306" id="Path" fill="#CF3E83"></path>
                    <polygon id="Path" fill="#CF3E83" points="267.054566 181.107682 268.187069 232.822998 278.538419 292.721336 256.772271 293.72954 242.774815 181.107682"></polygon>
                    <path d="M150.924712,283.882291 C150.924712,283.882291 179.672324,300.220713 184.879073,268.876632 C190.085823,237.532552 152.837537,277.052749 152.837537,277.052749" id="Path" fill="#E576C6"></path>
                    <path d="M303.923049,538.819672 L308.522115,553.065725 C308.522115,553.065725 342.835562,538.419152 360.644855,543.591374 L301.257525,579.127096 L285.202229,540.041946 L303.923049,538.819672 Z" id="Path" fill="#0D0B6D"></path>
                    <polygon id="Path" fill="#0D0B6D" points="129.034266 500.245528 109.912927 518.296515 115.347558 572.062766 81.0824496 513.690544 122.087329 482.30503"></polygon>
                    <path d="M238.023829,35.3325022 C238.023829,35.3325022 260.680786,56.9812558 236.097193,67.4638103" id="Path" fill="#0D0B6D"></path>
                    <polygon id="Path" fill="#CF3E83" points="286.238054 543.128705 293.274762 559.667386 308.494493 553.065725 304.710277 541.222787"></polygon>
                    <polygon id="Path" fill="#CF3E83" points="121.804204 482.291219 98.2080984 500.701292 109.912927 518.296515 124.214225 504.844594"></polygon>
                    <path d="M210.698751,243.623206 C208.164432,375.407835 98.2080984,482.291219 98.2080984,482.291219 L122.377361,517.909806 C122.377361,517.909806 153.065418,490.653784 202.971493,427.143868 C276.991585,332.938989 264.36142,231.586913 264.36142,231.586913 L210.698751,243.623206 Z" id="Path" fill="#101016"></path>
                    <polygon id="Path" fill="#3C3C42" points="242.678138 236.69008 311.698646 544.482184 275.258304 554.315621 182.420714 249.962458"></polygon>
                    <path d="M247.98847,186.141794 L270.831876,186.141794 C270.831876,186.141794 267.006227,124.261576 212.425127,124.261576" id="Path" fill="#EA9421"></path>
                    <path d="M264.354514,231.586913 L182.420714,249.962458 L163.085305,191.894078 L118.765783,174.374816 C143.846571,116.555035 186.018481,123.833436 186.018481,123.833436 L212.397505,124.254672 C216.626205,123.985722 220.871675,124.318198 225.006955,125.242159 C226.229229,125.594339 238.679851,129.52357 247.947038,142.616406 C261.205604,161.357942 260.211212,182.875491 260.211212,182.875491 L264.354514,231.586913 Z" id="Path" fill="#FFC000"></path>
                    <path d="M264.354514,231.586913 L182.420714,249.962458 L167.753425,205.850101 C177.69735,200.567391 184.851452,185.941535 184.851452,168.719208 C184.851452,147.049738 173.526426,129.482138 159.563497,129.482138 C158.609687,129.48141 157.65766,129.564597 156.71843,129.730736 C161.552282,127.25166 162.159967,126.802803 166.220403,125.891276 C166.220403,125.891276 171.399531,124.385876 184.865263,134.17788 C216.009083,156.821026 229.343611,177.786135 229.343611,177.786135 C229.343611,177.786135 233.36952,129.053997 220.773881,124.510175 C222.06521,124.682812 235.57928,125.642678 248.009187,142.623311 C261.56469,161.150777 260.273362,182.882396 260.273362,182.882396 L264.354514,231.586913 Z" id="Path" fill="#EA5911"></path>
                    <path d="M75.2602417,226.835706 L236.690198,226.835706 C249.954609,226.835706 260.707539,237.588636 260.707539,250.853048 L260.707539,250.853048 C260.707539,264.117459 249.954609,274.870389 236.690198,274.870389 L75.2602417,274.870389 C61.9958298,274.870389 51.2428996,264.117459 51.2428996,250.853048 L51.2428996,250.853048 C51.2428996,237.588636 61.9958298,226.835706 75.2602417,226.835706 Z" id="Rectangle" fill="#405FD3" transform="translate(155.975219, 250.853047) rotate(4.950000) translate(-155.975219, -250.853047) "></path>
                    <line x1="261.523258" y1="197.915678" x2="184.036602" y2="205.055968" id="Path" stroke="#FFFFFF" stroke-width="11.3999999"></line>
                    <line x1="262.835304" y1="213.563548" x2="192.537277" y2="219.923517" id="Path" stroke="#FFFFFF" stroke-width="11.3999999"></line>
                    <polygon id="Path" fill="#DB8B21" points="163.851815 195.747349 180.397402 176.025232 175.535928 210.580371"></polygon>
                    <path d="M71.508154,190.297883 L232.93811,190.297883 C246.202522,190.297883 256.955452,201.050814 256.955452,214.315225 L256.955452,214.315225 C256.955452,227.579636 246.202522,238.332566 232.93811,238.332566 L71.508154,238.332566 C58.2437431,238.332566 47.4908129,227.579636 47.4908129,214.315225 L47.4908129,214.315225 C47.4908129,201.050814 58.2437431,190.297883 71.508154,190.297883 Z" id="Rectangle" fill="#367EE8" transform="translate(152.223133, 214.315225) rotate(4.950000) translate(-152.223133, -214.315225) "></path>
                    <path d="M107.054049,220.227359 C103.414848,246.309447 150.924712,283.882291 150.924712,283.882291 L166.220403,275.174451 L140.580269,227.471233 L159.970923,190.637277 L122.190913,175.721389 C122.190913,175.721389 109.981982,199.193196 107.054049,220.227359 Z" id="Path" fill="#E576C6"></path>
                    <path d="M178.084058,77.3386801 C175.356384,72.111214 157.25706,67.8298015 155.088731,80.8397702 C152.285097,97.6201444 183.33224,101.40436 183.33224,101.40436 L182.973155,123.543405 L177.773311,123.854152 C177.773311,123.854152 192.785875,138.162355 211.119987,138.052504 C229.709603,137.94138 217.265886,124.240861 217.265886,124.240861 L212.307734,123.992262 L211.996986,103.634837 C211.996986,103.634837 236.166248,103.786759 242.470973,100.430684 C242.470973,100.430684 244.680734,70.7784514 237.719987,52.7481822 L212.473465,36.1749735 L177.131098,44.3372784 L178.084058,77.3386801 Z" id="Path" fill="#E576C6"></path>
                    <path d="M186.570922,57.5267904 C186.570922,57.5267904 195.920973,71.5656794 178.166924,77.2696256 C178.166924,77.2696256 173.920039,71.3101759 163.064588,72.4979219 C163.064588,72.4979219 144.571649,68.1060216 161.400361,44.7930419 C178.229073,21.4800621 197.99953,29.4697292 197.99953,29.4697292" id="Path" fill="#0D0B6D"></path>
                    <polygon id="Path" fill="#CF3E83" points="211.996986 103.648649 193.662874 102.592107 212.128191 112.252906"></polygon>
                    <polygon id="Path" fill="#405FD3" points="229.875334 71.0339558 236.276736 83.8643811 229.792469 84.4306324"></polygon>
                    <path d="M231.546467,92.427205 C231.546467,92.427205 226.24304,93.5873298 224.164483,89.4647441" id="Path" stroke="#182084" stroke-width="2.84999996"></path>
                    <circle id="Oval" fill="#0D0B6D" cx="220.732448" cy="72.0421594" r="3.41131875"></circle>
                    <circle id="Oval" fill="#0D0B6D" cx="236.856799" cy="71.8418994" r="3.41131875"></circle>
                    <path d="M159.970923,267.9582 C162.448273,268.708237 164.882659,269.593469 167.263134,270.609913 C170.992106,272.218896 174.375803,274.96038 182.399998,275.333278 C190.092729,275.692364 185.162199,281.831357 179.706851,280.788626 C176.046935,280.098075 168.865211,277.936652 167.525543,281.092468" id="Path" fill="#E576C6"></path>
                    <polygon id="Path" fill="#FFC000" points="156.635564 189.263082 168.478502 194.373154 182.082344 174.685564"></polygon>
                    <path d="M200.387234,5.94909088 L201.802862,5.94909088 C229.357598,5.94909088 251.695126,28.2866182 251.695126,55.8413537 L251.695126,63.4995572 L150.494971,63.4995572 L150.494971,55.820637 C150.506409,28.2739918 172.840587,5.94909088 200.387234,5.94909088 Z" id="Path" fill="#FFC000" transform="translate(201.095048, 34.724324) rotate(-6.690000) translate(-201.095048, -34.724324) "></path>
                    <path d="M230.732531,25.4270746 C239.588184,25.4270746 246.76711,32.6060003 246.76711,41.4616541 L246.76711,56.6537623 L214.704858,56.6537623 L214.704858,41.4616541 C214.704858,32.6086964 221.879575,25.4308879 230.732531,25.4270746 Z" id="Path" fill="#EA9421" transform="translate(230.735984, 41.040418) rotate(-6.690000) translate(-230.735984, -41.040418) "></path>
                    <line x1="152.174609" y1="68.7620451" x2="275.859082" y2="54.4262194" id="Path" stroke="#FFC000" stroke-width="7.5999999"></line>
                    <line x1="154.032189" y1="64.4046725" x2="254.155085" y2="52.8034266" id="Path" stroke="#EA9421" stroke-width="5.69999993"></line>
                    <path d="M824.832806,478.548435 C835.597712,478.545643 845.304194,485.028119 849.425684,494.972797 C853.547173,504.917474 851.271914,516.365682 843.66096,523.97861 C836.050007,531.591539 824.602384,533.869769 814.656644,529.750862 C804.710894,525.631954 798.2259,515.927157 798.2259,505.162247 C798.241119,490.472849 810.143412,478.567466 824.832806,478.548435 Z M824.832806,473.024034 C807.083358,473.024034 792.694592,487.412802 792.694592,505.162247 C792.694592,522.911692 807.083358,537.30046 824.832806,537.30046 C842.582245,537.30046 856.971021,522.911692 856.971021,505.162247 C856.971021,487.412802 842.582245,473.024034 824.832806,473.024034 Z" id="Shape" fill="#878A93" fill-rule="nonzero"></path>
                    <rect id="Rectangle" fill="#878A93" x="792.701498" y="505.093192" width="64.2695216" height="74.5103833"></rect>
                    <rect id="Rectangle" fill="#878A93" x="885.766964" y="505.093192" width="64.2695216" height="74.5103833"></rect>
                    <rect id="Rectangle" fill="#66666B" x="830.357208" y="505.093192" width="26.6138107" height="74.5103833"></rect>
                    <rect id="Rectangle" fill="#66666B" x="921.64796" y="505.093192" width="28.3885251" height="74.5103833"></rect>
                    <rect id="Rectangle" fill="#DADDE5" x="891.291366" y="522.709131" width="42.7865" height="40.3695738"></rect>
                    <ellipse id="Oval" fill="#CF3E83" cx="912.684616" cy="542.893919" rx="16.2624609" ry="10.9521286"></ellipse>
                    <rect id="Rectangle" fill="#DADDE5" x="802.237997" y="522.163597" width="46.1080472" height="40.3695738"></rect>
                    <ellipse id="Oval" fill="#367EE8" cx="825.288569" cy="542.348384" rx="17.5192625" ry="10.9521286"></ellipse>
                </g>
            </g>
        </g>
    </g>
</svg>