<svg xmlns="http://www.w3.org/2000/svg" xmlns:xlink="http://www.w3.org/1999/xlink" viewBox="0 0 135.81 118.83"><defs><style>.cls-1{fill:url(#未命名的渐变_16);}</style><linearGradient id="未命名的渐变_16" y1="59.42" x2="135.81" y2="59.42" gradientUnits="userSpaceOnUse"><stop offset="0.01" stop-color="#c0ffe5"/><stop offset="1" stop-color="#0c9"/></linearGradient></defs><title>专属定制</title><g id="图层_2" data-name="图层 2"><g id="图层_1-2" data-name="图层 1"><path class="cls-1" d="M127.32,0a8.49,8.49,0,0,1,8.49,8.49V110.34a8.49,8.49,0,0,1-8.49,8.49H8.49A8.49,8.49,0,0,1,0,110.34V8.49A8.49,8.49,0,0,1,8.49,0ZM63.66,8.49H12.73A4.23,4.23,0,0,0,8.56,12l-.07.76V106.1A4.23,4.23,0,0,0,12,110.27l.76.07H63.66v-21l-5.73,3.79a15.46,15.46,0,0,1-8.66,15.47,16.31,16.31,0,0,1-17.94-2.32,15.28,15.28,0,0,1-4.19-17.15A16.09,16.09,0,0,1,55.78,87l7.88-5.22V40.51L54.41,34.4a16,16,0,0,1-12.32,5.86,16.34,16.34,0,0,1-15.29-9.6,15.57,15.57,0,0,1,3.33-17.42A16.66,16.66,0,0,1,48,9.66,15.88,15.88,0,0,1,58.1,24.37a15.71,15.71,0,0,1-.74,4.51l.06-.06,6.23,4.12V8.49Zm59.41,0H72.15V38.57l8.31,5.49a22.47,22.47,0,0,1,15.89-6.55c12.46.2,22.48,10.11,22.48,22.25S108.82,81.81,96.34,82a22.43,22.43,0,0,1-14-4.93l-10.14,6.7v26.56h50.92a4.25,4.25,0,0,0,4.18-3.48l.07-.76V12.73A4.24,4.24,0,0,0,123.07,8.49ZM38.54,86.25a9.55,9.55,0,0,0,3.55,18.47,9.85,9.85,0,0,0,9.24-5.79,9.41,9.41,0,0,0-2-10.52,10.07,10.07,0,0,0-10.77-2.16ZM72.15,46.12V76.2l5.74-3.79a22,22,0,0,1-1.26-23.32ZM90.45,45a15.89,15.89,0,0,0,5.89,30.73,16.4,16.4,0,0,0,15.36-9.64,15.67,15.67,0,0,0-3.34-17.49A16.74,16.74,0,0,0,90.45,45ZM42.09,14.77a9.87,9.87,0,0,0-9.24,5.8,9.43,9.43,0,0,0,2,10.52,10.07,10.07,0,0,0,10.77,2.16,9.56,9.56,0,0,0-3.55-18.48Z"/></g></g></svg>