<svg xmlns="http://www.w3.org/2000/svg" viewBox="0 0 190.71 190.71"><defs><style>.cls-1{fill:#abff99;}.cls-2{fill:#0c9;}</style></defs><title>课外教育</title><g id="图层_2" data-name="图层 2"><g id="图层_1-2" data-name="图层 1"><path class="cls-1" d="M13.62,13.62v6.81s34.06,5.11,40.87,10.22l17,6.81S61.72,15.32,13.62,13.62Z"/><path class="cls-1" d="M20.43,0l3.41,10.22s46,7.23,57.89,30.64H92S64.7,1.28,20.43,0Z"/><path class="cls-1" d="M119.19,37.46l17-6.81c6.81-5.11,40.87-10.22,40.87-10.22V13.62C129,15.32,119.19,37.46,119.19,37.46Z"/><path class="cls-1" d="M98.76,40.86H109c11.91-23.41,57.89-30.64,57.89-30.64L170.27,0C126,1.28,98.76,40.86,98.76,40.86Z"/><path class="cls-2" d="M95.35,44.27s-42.81-20-95.35-17L10.22,166.87S49.14,163,95.35,190.71c0,0,40.87-26.76,81.74-23.84L190.71,27.24S152.27,24.32,95.35,44.27ZM88.54,173.68c-32.11-17.51-68.11-17-68.11-17L13.62,37.46c37-2,74.92,20.43,74.92,20.43Zm81.73-17c-32.1-3.4-68.11,17-68.11,17V57.89c37.47-21.4,78.33-20.43,78.33-20.43Z"/></g></g></svg>