<svg xmlns="http://www.w3.org/2000/svg" viewBox="0 0 190.62 190.62"><defs><style>.cls-1{fill:#abff99;}.cls-2{fill:#0c9;}</style></defs><title>科普讲堂</title><g id="图层_2" data-name="图层 2"><g id="图层_1-2" data-name="图层 1"><path class="cls-1" d="M95.31,0C78.53,0,68.5,10.82,68.5,28.94c0,20.51,11.78,36.59,26.81,36.59s26.81-16.08,26.81-36.59C122.12,10.82,112.09,0,95.31,0Zm0,53.61c-8.07,0-14.89-11.3-14.89-24.67,0-11.62,4.73-17,14.89-17s14.89,5.41,14.89,17C110.2,42.31,103.38,53.61,95.31,53.61Z"/><path class="cls-2" d="M188.87,109,177,97.06a6,6,0,0,0-8.42,8.42l10.17,10.17v9.44H154.86c.32-11.22-.26-32.15-8.36-40.87a13.37,13.37,0,0,0-10-4.49h-1.33c-6,0-10.35.05-14.33-5.69a6,6,0,1,0-9.8,6.78c7.57,10.92,17.13,10.79,24.19,10.82h1.27c.23,0,.6,0,1.23.67,4.26,4.6,5.51,20.37,5.18,32.77h-11.9V113.18a6,6,0,1,0-11.91,0h0v11.91H101.27V107.22a6,6,0,0,0-11.92,0v17.87H71.48V113.18a6,6,0,0,0-11.91,0v11.91H47.67c-.33-12.4.92-28.17,5.18-32.77.63-.67,1-.67,1.23-.67h1.27c6.91-.06,16.61.11,24.18-10.82a6,6,0,0,0-9.8-6.78c-4,5.75-8.33,5.65-14.31,5.69H54.08a13.37,13.37,0,0,0-10,4.49c-8.1,8.72-8.68,29.65-8.36,40.87H11.91v-9.44l10.17-10.17a6,6,0,0,0-8.42-8.42L1.75,109A6,6,0,0,0,0,113.18v35.74a6,6,0,0,0,6,6H23.83v29.79a6,6,0,0,0,6,6H160.84a6,6,0,0,0,5.95-6h0V154.88h17.88a6,6,0,0,0,6-5.95h0V113.18A6,6,0,0,0,188.87,109Zm-34,69.74H35.74V154.88H154.88ZM178.71,143H11.91v-6h166.8Z"/><rect class="cls-1" x="89.35" y="77.44" width="11.91" height="11.92"/></g></g></svg>