<svg xmlns="http://www.w3.org/2000/svg" viewBox="0 0 194.48 162.08"><defs><style>.cls-1{fill:#0c9;}.cls-2{fill:#abff99;}</style></defs><title>兴趣培训</title><g id="图层_2" data-name="图层 2"><g id="图层_1-2" data-name="图层 1"><path class="cls-1" d="M97.21,162.08c-5.86,0-11.74-2.58-17.56-8.4L15.05,88.36C7.32,78.71,0,69.58,0,51.88A51.83,51.83,0,0,1,81.67,9.48a6.48,6.48,0,1,1-7.46,10.59A38.45,38.45,0,0,0,51.84,13,38.92,38.92,0,0,0,13,51.88C13,64.32,17.07,70.14,25,80l63.93,64.56c3.24,3.24,5.85,4.53,8.36,4.57s5.05-1.26,8.4-4.6l64.14-64.81C175,74,181.52,64.32,181.52,51.84A38.9,38.9,0,0,0,116.4,23.13L89.26,50.31a6.48,6.48,0,0,1-9.16-9.16l27.35-27.39a51.85,51.85,0,0,1,87,38.08c0,16.69-8.32,29.24-15.33,36.8l-64.35,65c-5.85,5.85-11.71,8.43-17.59,8.43Z"/><path class="cls-2" d="M25.26,61.9a34.51,34.51,0,0,1,46.5-32.33A29.91,29.91,0,0,0,25.43,65.38C25.32,64.23,25.26,63.07,25.26,61.9Z"/></g></g></svg>