<svg xmlns="http://www.w3.org/2000/svg" xmlns:xlink="http://www.w3.org/1999/xlink" viewBox="0 0 166.44 120.06"><defs><style>.cls-1{fill:url(#未命名的渐变_16);}.cls-2{fill:url(#未命名的渐变_16-2);}.cls-3{fill:url(#未命名的渐变_16-3);}.cls-4{fill:url(#未命名的渐变_16-4);}</style><linearGradient id="未命名的渐变_16" x1="46.18" y1="60.03" x2="101.59" y2="60.03" gradientUnits="userSpaceOnUse"><stop offset="0.01" stop-color="#c0ffe5"/><stop offset="1" stop-color="#0c9"/></linearGradient><linearGradient id="未命名的渐变_16-2" x1="0" y1="60.03" x2="138.53" y2="60.03" xlink:href="#未命名的渐变_16"/><linearGradient id="未命名的渐变_16-3" x1="84.3" y1="82.34" x2="166.44" y2="82.34" xlink:href="#未命名的渐变_16"/><linearGradient id="未命名的渐变_16-4" x1="84.3" y1="100.4" x2="166.44" y2="100.4" xlink:href="#未命名的渐变_16"/></defs><title>视频水印</title><g id="图层_2" data-name="图层 2"><g id="图层_1-2" data-name="图层 1"><path class="cls-1" d="M99.36,56.07,53.17,28.36a4.61,4.61,0,0,0-7,4V87.74a4.63,4.63,0,0,0,2.33,4,4.68,4.68,0,0,0,2.29.59,4.58,4.58,0,0,0,2.37-.65L99.36,64a4.63,4.63,0,0,0,0-7.92ZM55.41,79.58V40.48L88,60Z"/><path class="cls-2" d="M96.24,110.83H18.47a9.24,9.24,0,0,1-9.23-9.24V18.47a9.23,9.23,0,0,1,9.23-9.23H120.06a9.24,9.24,0,0,1,9.24,9.23v49.1a4.6,4.6,0,0,0,4.61,4.61h0a4.61,4.61,0,0,0,4.62-4.61V18.47A18.47,18.47,0,0,0,120.06,0H18.47A18.47,18.47,0,0,0,0,18.47v83.12a18.47,18.47,0,0,0,18.47,18.47H96.24a4.61,4.61,0,0,0,4.61-4.62h0A4.6,4.6,0,0,0,96.24,110.83Z"/><path class="cls-3" d="M139.27,92.36a35.08,35.08,0,0,1-17.55-5c-19.17-11-29.75.87-29.86,1L84.3,81.82c5.48-6.35,21.4-15.17,42.4-3.14,7.82,4.49,15.41,4.87,22.57,1.15a29.32,29.32,0,0,0,9.1-7.51l8.07,5.9C162.08,84.21,152.19,92.36,139.27,92.36Z"/><path class="cls-4" d="M139.27,110.43a35.08,35.08,0,0,1-17.55-5c-19.17-11-29.75.87-29.86,1L84.3,99.88c5.48-6.34,21.4-15.16,42.4-3.13,7.82,4.48,15.41,4.87,22.57,1.15a29.28,29.28,0,0,0,9.1-7.52l8.07,5.91C162.08,102.28,152.19,110.43,139.27,110.43Z"/></g></g></svg>