<svg xmlns="http://www.w3.org/2000/svg" viewBox="0 0 177.25 176.88"><defs><style>.cls-1{fill:#0c9;}.cls-2{fill:#abff99;}</style></defs><title>语言学习</title><g id="图层_2" data-name="图层 2"><g id="图层_1-2" data-name="图层 1"><path class="cls-1" d="M172,154.38a5.22,5.22,0,0,1-5.22-5.22h0V22.08a11.65,11.65,0,0,0-11.65-11.65h-127A5.22,5.22,0,0,1,28.15,0h127a22.08,22.08,0,0,1,22.1,22.08h0V149.16a5.22,5.22,0,0,1-5.21,5.22Z"/><path class="cls-1" d="M135.54,176.88H18.77A18.77,18.77,0,0,1,0,158.11H0V41.24A18.77,18.77,0,0,1,18.77,22.47H135.54a18.77,18.77,0,0,1,18.77,18.77h0v116.9A18.77,18.77,0,0,1,135.54,176.88ZM18.77,32.93a8.33,8.33,0,0,0-8.34,8.34V158.14a8.33,8.33,0,0,0,8.34,8.34H135.54a8.34,8.34,0,0,0,8.35-8.34h0V41.24a8.34,8.34,0,0,0-8.35-8.34h0Z"/><path d="M114.52,125.89a3.53,3.53,0,0,1-1.28,2.79,4.54,4.54,0,0,1-3.13,1.12,4,4,0,0,1-3.91-2.68L98.32,109H56.21l-8,18.1a4,4,0,0,1-3.91,2.68,4.59,4.59,0,0,1-3.13-1.18,3.63,3.63,0,0,1-1.34-2.84,3.83,3.83,0,0,1,.45-1.79l31.94-71a4.78,4.78,0,0,1,2-2.35,5.94,5.94,0,0,1,6,0,5.28,5.28,0,0,1,2,2.3L114.13,124a4,4,0,0,1,.39,1.9ZM95,101.42,77.25,61.32l-17.68,40.1Z"/><path class="cls-2" d="M115,123.55l-31.95-71a6.25,6.25,0,0,0-2.41-2.73,6.86,6.86,0,0,0-7-.08,5.94,5.94,0,0,0-2.44,2.82l-31.93,71a5.07,5.07,0,0,0-.56,2.26,4.66,4.66,0,0,0,1.7,3.62,5.56,5.56,0,0,0,3.82,1.44,5,5,0,0,0,4.86-3.3l7.77-17.48H97.65l7.66,17.46a5,5,0,0,0,4.86,3.32,5.62,5.62,0,0,0,3.75-1.37,4.58,4.58,0,0,0,1.65-3.58A5.28,5.28,0,0,0,115,123.55Zm-53.9-23.17,16.09-36.5,16.15,36.5Z"/><path class="cls-2" d="M112.61,153.91H43.79a5.22,5.22,0,0,1,0-10.43h68.82a5.22,5.22,0,0,1,0,10.43Z"/></g></g></svg>