<svg xmlns="http://www.w3.org/2000/svg" viewBox="0 0 199.84 200"><defs><style>.cls-1{fill:#0c9;}.cls-2{fill:#abff99;}</style></defs><title>在线课堂</title><g id="图层_2" data-name="图层 2"><g id="图层_1-2" data-name="图层 1"><path class="cls-1" d="M197.3,67.16a15,15,0,0,0-3.08-3.08L108.53,2.94a14.44,14.44,0,0,0-17-.31l-84.86,58a15.43,15.43,0,0,0-6.37,10A15.41,15.41,0,0,0,6.6,85.89l93.55,62.82,67.58-45.44v37.6a10.9,10.9,0,0,1-6.67,6.16l-.85.31-53.9,39.21a11.07,11.07,0,0,1-12.73.21L29.39,143a11.64,11.64,0,0,1-4.87-9.44v-2.88a2.52,2.52,0,0,1,1.37-2.32,2.28,2.28,0,0,1,2.44,0l68.54,46.71a5.64,5.64,0,0,0,6.36-9.31L34.59,119.07a13.61,13.61,0,0,0-14.31-.52A13.9,13.9,0,0,0,13.07,131v2.54a22.76,22.76,0,0,0,9.64,18.64l64.51,43.87A22.74,22.74,0,0,0,99.81,200a23.83,23.83,0,0,0,13-4l52.66-38.36a22.27,22.27,0,0,0,13.14-13.76L179,143V96.08l14.95-9.86.1-.1a13.09,13.09,0,0,0,5.61-8.69,13.52,13.52,0,0,0-2.32-10.27Zm-8.8,8.25a2.51,2.51,0,0,1-.85,1.27L171.43,87.39a3.38,3.38,0,0,0-1.27.64l-70,47L13.07,76.68A5.07,5.07,0,0,1,12,75.62a3.9,3.9,0,0,1-.65-3.08,4.35,4.35,0,0,1,1.71-2.64L97.82,11.84a3.33,3.33,0,0,1,3.93.1l85.92,61.35.42.42a1.86,1.86,0,0,1,.41,1.7Z"/><path class="cls-2" d="M134.71,64.39,94.12,35.48a2.83,2.83,0,0,0-4.55,2.22v58A2.87,2.87,0,0,0,94.12,98l40.59-28.91A2.92,2.92,0,0,0,134.71,64.39Z"/></g></g></svg>