<svg xmlns="http://www.w3.org/2000/svg" viewBox="0 0 180.15 180.17"><defs><style>.cls-1{fill:#0c9;}.cls-2{fill:#abff99;}</style></defs><title>职称培训</title><g id="图层_2" data-name="图层 2"><g id="图层_1-2" data-name="图层 1"><path class="cls-1" d="M120.05,159.2a5.68,5.68,0,0,1,6.08-6h39a3,3,0,0,0,3-3V15.07a3.15,3.15,0,0,0-3-3h-108a3.13,3.13,0,0,0-3.07,3v36a6,6,0,1,1-12,0v-36A15.43,15.43,0,0,1,57.12,0q8.12,0,108,0a15.38,15.38,0,0,1,15,15.05V150.21a15.33,15.33,0,0,1-15,14.95H126.56C122.85,165.16,120.05,162.85,120.05,159.2Z"/><path class="cls-2" d="M147.12,49.56c0,4.14-3.08,7.51-6.88,7.51H85c-3.8,0-6.88-3.37-6.88-7.51s3.08-7.51,6.88-7.51h55.29C144,42.05,147.12,45.42,147.12,49.56Z"/><path class="cls-2" d="M144.12,82.59c0,4.14-3,7.5-6.65,7.5H114.75c-3.68,0-6.66-3.36-6.66-7.5s3-7.51,6.66-7.51h22.72C141.14,75.08,144.12,78.44,144.12,82.59Z"/><path class="cls-1" d="M115.76,123.37a6.84,6.84,0,0,0-8.88,2.89L95.71,148a6.74,6.74,0,0,0-1.89-2.86,58.7,58.7,0,0,0-21-13.67c-1-.38-2.05-.73-3.09-1.06.57-.48,1.14-1,1.69-1.5a30.48,30.48,0,0,0,0-44.56h0A33.55,33.55,0,0,0,48,75.08a34.13,34.13,0,0,0-23.26,9.2,30.44,30.44,0,0,0-.09,44.61l.2.19c.49.46,1,.9,1.51,1.33-1,.33-2,.67-3,1A59.08,59.08,0,0,0,2.27,145.16a6.54,6.54,0,0,0-2.27,5v23.38a6.67,6.67,0,0,0,6.7,6.64h0a6.66,6.66,0,0,0,6.67-6.64V152.87a46.13,46.13,0,0,1,14.7-9.07,89.44,89.44,0,0,1,20.13-4.44,87,87,0,0,1,19.84,4.41,45.28,45.28,0,0,1,14.69,9v20.9a6.66,6.66,0,0,0,6.83,6.47h0A6.54,6.54,0,0,0,93.27,179a6.31,6.31,0,0,0,2.64-2.72h0l22.85-44.3A6.38,6.38,0,0,0,115.76,123.37ZM48,90.09a18.2,18.2,0,0,1,18,18,18.05,18.05,0,0,1-30.78,12.74A18.05,18.05,0,0,1,48,90.09Z"/></g></g></svg>