<?xml version="1.0" standalone="no"?><!DOCTYPE svg PUBLIC "-//W3C//DTD SVG 1.1//EN" "http://www.w3.org/Graphics/SVG/1.1/DTD/svg11.dtd"><svg t="1614330983187" class="icon" viewBox="0 0 1024 1024" version="1.1" xmlns="http://www.w3.org/2000/svg" p-id="2392" width="32" height="32" xmlns:xlink="http://www.w3.org/1999/xlink"><defs><style type="text/css"></style></defs><path d="M512 298.666667a378.453333 378.453333 0 0 1 338.773333 213.333333 2.346667 2.346667 0 0 1 0 1.706667A376.32 376.32 0 0 1 173.226667 512a2.346667 2.346667 0 0 1 0-1.706667A378.453333 378.453333 0 0 1 512 298.666667m0-42.666667A418.773333 418.773333 0 0 0 134.826667 492.586667a44.373333 44.373333 0 0 0 0 38.826666 418.986667 418.986667 0 0 0 754.346666 0 44.373333 44.373333 0 0 0 0-38.826666A418.773333 418.773333 0 0 0 512 256z" fill="#707070" p-id="2393"></path><path d="M512 426.666667a85.333333 85.333333 0 1 1-85.333333 85.333333 85.333333 85.333333 0 0 1 85.333333-85.333333m0-42.666667a128 128 0 1 0 128 128 128 128 0 0 0-128-128z" fill="#707070" p-id="2394"></path></svg>