<?xml version="1.0" standalone="no"?><!DOCTYPE svg PUBLIC "-//W3C//DTD SVG 1.1//EN" "http://www.w3.org/Graphics/SVG/1.1/DTD/svg11.dtd"><svg t="1615430118130" class="icon" viewBox="0 0 1024 1024" version="1.1" xmlns="http://www.w3.org/2000/svg" p-id="15137" xmlns:xlink="http://www.w3.org/1999/xlink" width="200" height="200"><defs><style type="text/css"></style></defs><path d="M544 70.4l320 153.6c19.2 12.8 32 32 32 57.6v185.6c0 57.6-12.8 108.8-32 166.4-19.2 51.2-44.8 102.4-76.8 147.2-32 44.8-76.8 89.6-121.6 121.6s-96 51.2-153.6 64c-57.6-12.8-108.8-32-153.6-64s-89.6-76.8-121.6-121.6-57.6-89.6-76.8-147.2C140.8 576 128 518.4 128 460.8V281.6c0-25.6 12.8-44.8 32-57.6l320-153.6c19.2-6.4 44.8-6.4 64 0zM512 140.8L192 288v172.8c0 51.2 6.4 96 25.6 147.2 19.2 44.8 38.4 89.6 70.4 128 38.4 51.2 70.4 83.2 108.8 108.8 32 19.2 70.4 38.4 115.2 51.2 44.8-12.8 83.2-32 115.2-51.2 32-25.6 70.4-57.6 108.8-108.8 32-38.4 51.2-76.8 70.4-128 19.2-51.2 25.6-96 25.6-147.2V288L512 140.8z m179.2 198.4l44.8 44.8-268.8 262.4-179.2-179.2 44.8-44.8 134.4 134.4 224-217.6z" p-id="15138" fill="#333333"></path></svg>