<?xml version="1.0" standalone="no"?><!DOCTYPE svg PUBLIC "-//W3C//DTD SVG 1.1//EN" "http://www.w3.org/Graphics/SVG/1.1/DTD/svg11.dtd"><svg t="1615430345236" class="icon" viewBox="0 0 1024 1024" version="1.1" xmlns="http://www.w3.org/2000/svg" p-id="21648" xmlns:xlink="http://www.w3.org/1999/xlink" width="200" height="200"><defs><style type="text/css"></style></defs><path d="M731.392 102.4H292.1984a68.266667 68.266667 0 0 0-59.460267 34.696533L84.565333 399.530667a68.266667 68.266667 0 0 0 8.0896 78.5408l367.5648 419.84a68.266667 68.266667 0 0 0 102.621867 0.119466l368.366933-418.645333a68.266667 68.266667 0 0 0 8.226134-78.626133L790.869333 137.147733A68.266667 68.266667 0 0 0 731.392 102.4z m-439.1936 68.266667h439.1936l148.565333 263.611733-368.366933 418.6624-367.581867-419.84L292.1984 170.666667z" fill="#333333" p-id="21649"></path><path d="M699.733333 341.333333v34.133334a34.133333 34.133333 0 0 1-34.133333 34.133333H358.4a34.133333 34.133333 0 0 1-34.133333-34.133333v-34.133334h375.466666z" fill="#333333" p-id="21650"></path></svg>