<?xml version="1.0" standalone="no"?><!DOCTYPE svg PUBLIC "-//W3C//DTD SVG 1.1//EN" "http://www.w3.org/Graphics/SVG/1.1/DTD/svg11.dtd"><svg t="1615431274697" class="icon" viewBox="0 0 1024 1024" version="1.1" xmlns="http://www.w3.org/2000/svg" p-id="40149" xmlns:xlink="http://www.w3.org/1999/xlink" width="200" height="200"><defs><style type="text/css"></style></defs><path d="M798.72 175.616H225.28a136.192 136.192 0 0 0-135.68 135.68V614.4a136.192 136.192 0 0 0 135.68 136.192h573.44A135.68 135.68 0 0 0 934.4 614.4V311.296a135.68 135.68 0 0 0-135.68-135.68z m-573.44 51.2h573.44a84.48 84.48 0 0 1 84.48 84.48v278.016H140.8V311.296A84.48 84.48 0 0 1 225.28 226.816z m573.44 472.576H225.28a84.48 84.48 0 0 1-80.384-58.88h733.696a84.48 84.48 0 0 1-79.872 58.88zM776.704 863.232h-242.688v-66.048a22.016 22.016 0 0 0-44.032 0v66.048H247.296a22.016 22.016 0 0 0 0 44.032h529.408a22.016 22.016 0 0 0 0-44.032z" fill="#666666" p-id="40150"></path></svg>