<?xml version="1.0" standalone="no"?><!DOCTYPE svg PUBLIC "-//W3C//DTD SVG 1.1//EN" "http://www.w3.org/Graphics/SVG/1.1/DTD/svg11.dtd"><svg t="1615430984575" class="icon" viewBox="0 0 1024 1024" version="1.1" xmlns="http://www.w3.org/2000/svg" p-id="26656" xmlns:xlink="http://www.w3.org/1999/xlink" width="200" height="200"><defs><style type="text/css"></style></defs><path d="M908.288 736.256c-3.072 0-6.144-0.512-9.216-1.536-13.312-5.12-19.456-19.968-14.336-33.28 17.92-46.08 27.136-94.72 27.136-144.384 0-132.096-65.536-255.488-175.104-329.728-11.776-7.68-14.848-24.064-6.656-35.328 7.68-11.776 24.064-14.848 35.328-6.656 123.904 83.456 197.632 222.72 197.632 372.224 0 56.32-10.24 111.104-30.72 163.328-4.096 9.216-13.824 15.36-24.064 15.36zM90.624 582.144c-14.336 0-25.6-11.264-25.6-25.6 0-203.264 136.704-381.44 332.8-433.664 5.632-1.536 11.264-3.072 16.896-4.096 13.824-3.072 27.648 5.632 30.72 19.456 3.072 13.824-5.632 27.648-19.456 30.72-5.12 1.024-10.24 2.56-14.848 3.584-173.568 46.08-294.912 204.288-294.912 384 0 14.336-11.776 25.6-25.6 25.6zM513.536 1005.568c-114.176 0-223.232-43.008-306.688-120.832-10.24-9.728-10.752-25.6-1.024-36.352 9.728-10.24 25.6-10.752 36.352-1.024 73.728 69.12 170.496 107.008 271.36 107.008 54.784 0 108.032-10.752 158.208-32.768 12.8-5.632 28.16 0.512 33.792 13.312 5.632 12.8-0.512 28.16-13.312 33.792-56.32 24.576-116.736 36.864-178.688 36.864z" fill="#666666" p-id="26657"></path><path d="M510.976 864.768l-18.432-17.92-219.648-219.648L261.12 614.4c-65.536-65.536-65.536-172.032 0-237.056 65.536-65.536 172.032-65.536 237.056 0l12.288 12.288 12.288-12.288c31.744-31.744 73.728-49.152 118.784-49.152 45.056 0 87.04 17.408 118.784 49.152 65.536 65.536 65.536 172.032 0 237.056l-12.288 12.288-17.92 18.432-219.136 219.648z m-0.512-72.704l165.376-164.864 17.92-18.432 30.72-30.72c45.568-45.568 45.568-119.296 0-164.864-45.568-45.568-119.296-45.568-164.864 0l-48.64 48.64-48.64-48.64c-45.568-45.568-119.296-45.568-164.864 0-45.568 45.568-45.568 119.296 0 164.864l49.152 49.152 163.84 164.864zM865.28 901.12c-59.392 0-107.52-48.128-107.52-107.52s48.128-107.52 107.52-107.52c16.896 0 34.304 4.096 49.152 11.776 35.84 18.432 58.368 55.296 58.368 95.744 0 59.392-48.128 107.52-107.52 107.52z m0-163.84c-31.232 0-56.32 25.088-56.32 56.32s25.088 56.32 56.32 56.32 56.32-25.088 56.32-56.32c0-20.992-11.776-40.448-30.72-50.176-7.68-4.096-16.384-6.144-25.6-6.144zM513.536 240.64c-54.784 0-100.864-40.96-107.008-95.744-0.512-4.096-0.512-7.68-0.512-11.776 0-59.392 48.128-107.52 107.52-107.52s107.52 48.128 107.52 107.52-48.128 107.52-107.52 107.52z m0-163.84c-31.232 0-56.32 25.088-56.32 56.32 0 2.048 0 4.096 0.512 6.144 3.072 28.672 27.136 50.176 55.808 50.176 31.232 0 56.32-25.088 56.32-56.32s-25.088-56.32-56.32-56.32zM165.376 901.12c-59.392 0-107.52-48.128-107.52-107.52s48.128-107.52 107.52-107.52 107.52 48.128 107.52 107.52c0 32.256-14.336 62.464-39.424 82.944-18.944 15.872-43.008 24.576-68.096 24.576z m0-163.84c-31.232 0-56.32 25.088-56.32 56.32s25.088 56.32 56.32 56.32c13.312 0 25.6-4.608 35.84-12.8 13.312-10.752 20.48-26.624 20.48-43.52 0-31.232-25.088-56.32-56.32-56.32z" fill="#666666" p-id="26658"></path></svg>