<?xml version="1.0" standalone="no"?><!DOCTYPE svg PUBLIC "-//W3C//DTD SVG 1.1//EN" "http://www.w3.org/Graphics/SVG/1.1/DTD/svg11.dtd"><svg t="1615430743275" class="icon" viewBox="0 0 1024 1024" version="1.1" xmlns="http://www.w3.org/2000/svg" p-id="25001" xmlns:xlink="http://www.w3.org/1999/xlink" width="200" height="200"><defs><style type="text/css"></style></defs><path d="M391.836735 475.428571H177.632653c-45.97551 0-83.591837-37.616327-83.591837-83.591836V177.632653c0-45.97551 37.616327-83.591837 83.591837-83.591837h214.204082c45.97551 0 83.591837 37.616327 83.591836 83.591837v214.204082c0 45.97551-37.616327 83.591837-83.591836 83.591836zM177.632653 135.836735c-22.987755 0-41.795918 18.808163-41.795918 41.795918v214.204082c0 22.987755 18.808163 41.795918 41.795918 41.795918h214.204082c22.987755 0 41.795918-18.808163 41.795918-41.795918V177.632653c0-22.987755-18.808163-41.795918-41.795918-41.795918H177.632653z" p-id="25002" fill="#666666"></path><path d="M391.836735 929.959184H177.632653c-45.97551 0-83.591837-37.616327-83.591837-83.591837v-214.204082c0-45.97551 37.616327-83.591837 83.591837-83.591836h214.204082c45.97551 0 83.591837 37.616327 83.591836 83.591836v214.204082c0 45.97551-37.616327 83.591837-83.591836 83.591837z m-214.204082-339.591837c-22.987755 0-41.795918 18.808163-41.795918 41.795918v214.204082c0 22.987755 18.808163 41.795918 41.795918 41.795918h214.204082c22.987755 0 41.795918-18.808163 41.795918-41.795918v-214.204082c0-22.987755-18.808163-41.795918-41.795918-41.795918H177.632653z" p-id="25003" fill="#666666"></path><path d="M846.367347 929.959184h-214.204082c-45.97551 0-83.591837-37.616327-83.591836-83.591837v-214.204082c0-45.97551 37.616327-83.591837 83.591836-83.591836h214.204082c45.97551 0 83.591837 37.616327 83.591837 83.591836v214.204082c0 45.97551-37.616327 83.591837-83.591837 83.591837z m-214.204082-339.591837c-22.987755 0-41.795918 18.808163-41.795918 41.795918v214.204082c0 22.987755 18.808163 41.795918 41.795918 41.795918h214.204082c22.987755 0 41.795918-18.808163 41.795918-41.795918v-214.204082c0-22.987755-18.808163-41.795918-41.795918-41.795918h-214.204082z" p-id="25004" fill="#666666"></path><path d="M739.265306 475.428571C634.253061 475.428571 548.571429 389.746939 548.571429 284.734694S634.253061 94.040816 739.265306 94.040816 929.959184 179.722449 929.959184 284.734694 844.277551 475.428571 739.265306 475.428571z m0-339.591836C657.240816 135.836735 590.367347 202.710204 590.367347 284.734694S657.240816 433.632653 739.265306 433.632653 888.163265 366.759184 888.163265 284.734694 821.289796 135.836735 739.265306 135.836735z" p-id="25005" fill="#666666"></path></svg>