<?xml version="1.0" standalone="no"?><!DOCTYPE svg PUBLIC "-//W3C//DTD SVG 1.1//EN" "http://www.w3.org/Graphics/SVG/1.1/DTD/svg11.dtd"><svg t="1615434917715" class="icon" viewBox="0 0 1024 1024" version="1.1" xmlns="http://www.w3.org/2000/svg" p-id="57642" xmlns:xlink="http://www.w3.org/1999/xlink" width="200" height="200"><defs><style type="text/css"></style></defs><path d="M304 392c0 57.6 46.4 104 104 104s104-46.4 104-104-46.4-104-104-104-104 46.4-104 104z m160 0c0 30.4-25.6 56-56 56S352 422.4 352 392s25.6-56 56-56 56 25.6 56 56z" p-id="57643" fill="#333333"></path><path d="M313.6 646.4c6.4 6.4 14.4 9.6 22.4 9.6s16-3.2 22.4-9.6c12.8-12.8 12.8-32 0-44.8L193.6 436.8l27.2-216 233.6-24 163.2 163.2c6.4 4.8 14.4 8 22.4 8s16-3.2 22.4-9.6c12.8-12.8 12.8-32 0-44.8L494.4 145.6c-3.2-3.2-4.8-4.8-8-6.4-6.4-6.4-16-9.6-25.6-8l-256 27.2c-3.2 0-6.4 1.6-9.6 3.2-17.6-1.6-32 11.2-35.2 27.2l-32 256c-1.6 12.8 3.2 24 12.8 30.4 1.6 1.6 1.6 3.2 3.2 4.8l169.6 166.4zM838.4 265.6c-12.8-12.8-32-12.8-44.8 0L289.6 769.6c-12.8 12.8-12.8 32 0 44.8 6.4 6.4 14.4 9.6 22.4 9.6s16-3.2 22.4-9.6l504-504c12.8-12.8 12.8-32 0-44.8zM886.4 537.6l-104-104c-12.8-12.8-32-12.8-44.8 0-12.8 12.8-12.8 32 0 44.8l81.6 81.6L576 803.2l-81.6-81.6c-12.8-12.8-32-12.8-44.8 0-12.8 12.8-12.8 32 0 44.8l104 104c6.4 6.4 14.4 9.6 22.4 9.6s16-3.2 22.4-9.6l288-288c12.8-12.8 12.8-32 0-44.8z" p-id="57644" fill="#333333"></path></svg>