<?xml version="1.0" standalone="no"?><!DOCTYPE svg PUBLIC "-//W3C//DTD SVG 1.1//EN" "http://www.w3.org/Graphics/SVG/1.1/DTD/svg11.dtd"><svg t="1615431398088" class="icon" viewBox="0 0 1024 1024" version="1.1" xmlns="http://www.w3.org/2000/svg" p-id="41529" xmlns:xlink="http://www.w3.org/1999/xlink" width="200" height="200"><defs><style type="text/css"></style></defs><path d="M526.933333 477.866667h-29.866666c-51.2 0-91.733333-40.533333-91.733334-91.733334v-115.2c0-51.2 40.533333-91.733333 91.733334-91.733333h29.866666c51.2 0 91.733333 40.533333 91.733334 91.733333v115.2c0 51.2-40.533333 91.733333-91.733334 91.733334z m-29.866666-256c-27.733333 0-49.066667 21.333333-49.066667 49.066666v115.2c0 27.733333 21.333333 49.066667 49.066667 49.066667h29.866666c27.733333 0 49.066667-21.333333 49.066667-49.066667v-115.2c0-27.733333-21.333333-49.066667-49.066667-49.066666h-29.866666zM215.466667 832h-4.266667C153.6 832 106.666667 785.066667 106.666667 727.466667v-4.266667C106.666667 665.6 153.6 618.666667 211.2 618.666667h4.266667c57.6 0 104.533333 46.933333 104.533333 104.533333v4.266667c0 57.6-46.933333 104.533333-104.533333 104.533333z m-4.266667-170.666667C177.066667 661.333333 149.333333 689.066667 149.333333 723.2v4.266667C149.333333 761.6 177.066667 789.333333 211.2 789.333333h4.266667c34.133333 0 61.866667-27.733333 61.866666-61.866666v-4.266667c0-34.133333-27.733333-61.866667-61.866666-61.866667h-4.266667zM514.133333 832h-4.266666c-57.6 0-104.533333-46.933333-104.533334-104.533333v-4.266667c0-57.6 46.933333-104.533333 104.533334-104.533333h4.266666c57.6 0 104.533333 46.933333 104.533334 104.533333v4.266667c0 57.6-46.933333 104.533333-104.533334 104.533333z m-4.266666-170.666667c-34.133333 0-61.866667 27.733333-61.866667 61.866667v4.266667c0 34.133333 27.733333 61.866667 61.866667 61.866666h4.266666c34.133333 0 61.866667-27.733333 61.866667-61.866666v-4.266667c0-34.133333-27.733333-61.866667-61.866667-61.866667h-4.266666zM812.8 832h-4.266667c-57.6 0-104.533333-46.933333-104.533333-104.533333v-4.266667c0-57.6 46.933333-104.533333 104.533333-104.533333h4.266667c57.6 0 104.533333 46.933333 104.533333 104.533333v4.266667c0 57.6-46.933333 104.533333-104.533333 104.533333z m-4.266667-170.666667c-34.133333 0-61.866667 27.733333-61.866666 61.866667v4.266667c0 34.133333 27.733333 61.866667 61.866666 61.866666h4.266667c34.133333 0 61.866667-27.733333 61.866667-61.866666v-4.266667c0-34.133333-27.733333-61.866667-61.866667-61.866667h-4.266667z" fill="#666666" p-id="41530"></path><path d="M213.333333 640c-12.8 0-21.333333-8.533333-21.333333-21.333333 0-83.2 59.733333-149.333333 132.266667-149.333334h377.6c72.533333 0 132.266667 66.133333 132.266666 149.333334 0 12.8-8.533333 21.333333-21.333333 21.333333s-21.333333-8.533333-21.333333-21.333333c0-57.6-40.533333-106.666667-89.6-106.666667H324.266667c-49.066667 0-89.6 49.066667-89.6 106.666667 0 12.8-8.533333 21.333333-21.333334 21.333333z" fill="#666666" p-id="41531"></path><path d="M512 640c-12.8 0-21.333333-8.533333-21.333333-21.333333v-149.333334c0-12.8 8.533333-21.333333 21.333333-21.333333s21.333333 8.533333 21.333333 21.333333v149.333334c0 12.8-8.533333 21.333333-21.333333 21.333333z" fill="#666666" p-id="41532"></path></svg>