<svg xmlns="http://www.w3.org/2000/svg" xmlns:xlink="http://www.w3.org/1999/xlink" viewBox="0 0 72.84 62.43"><defs><style>.cls-1{fill:url(#未命名的渐变_10);}</style><linearGradient id="未命名的渐变_10" y1="31.22" x2="72.84" y2="31.22" gradientUnits="userSpaceOnUse"><stop offset="0" stop-color="#9fffd8"/><stop offset="1" stop-color="#0c9"/></linearGradient></defs><title>同步</title><g id="图层_2" data-name="图层 2"><g id="图层_1-2" data-name="图层 1"><path class="cls-1" d="M9.43,24.32a2.57,2.57,0,0,0,2.47-1.88,26,26,0,0,1,50,3.57H57.23l7.93,7.87L72.84,26H67.18A31.21,31.21,0,0,0,7,20.88a3.08,3.08,0,0,0-.13.84A2.61,2.61,0,0,0,9.43,24.32Zm54,13.79A2.57,2.57,0,0,0,60.94,40a26,26,0,0,1-50-3.58h4.61L7.67,28.55,0,36.42H5.66a31.21,31.21,0,0,0,60.22,5.14,3.1,3.1,0,0,0,.13-.85,2.61,2.61,0,0,0-2.6-2.6Z"/></g></g></svg>