<svg xmlns="http://www.w3.org/2000/svg" xmlns:xlink="http://www.w3.org/1999/xlink" viewBox="0 0 69.96 65.99"><defs><style>.cls-1{fill:url(#未命名的渐变_10);}.cls-2{fill:url(#未命名的渐变_10-2);}</style><linearGradient id="未命名的渐变_10" y1="36.28" x2="69.96" y2="36.28" gradientUnits="userSpaceOnUse"><stop offset="0" stop-color="#9fffd8"/><stop offset="1" stop-color="#0c9"/></linearGradient><linearGradient id="未命名的渐变_10-2" x1="18.17" y1="25.57" x2="56.65" y2="25.57" xlink:href="#未命名的渐变_10"/></defs><title>签到邀请</title><g id="图层_2" data-name="图层 2"><g id="图层_1-2" data-name="图层 1"><path class="cls-1" d="M59.93,66H10A10,10,0,0,1,0,56V16.6a10,10,0,0,1,10-10h2.43a2.51,2.51,0,1,1,0,5H10a5,5,0,0,0-5,5V56a5,5,0,0,0,5,5H59.94a5,5,0,0,0,5-5V16.6a5,5,0,0,0-5-5H58a2.51,2.51,0,0,1,0-5h2a10,10,0,0,1,10,10V56A10,10,0,0,1,59.93,66Z"/><path class="cls-2" d="M42,11.59H28.42a2.51,2.51,0,0,1,0-5H42a2.51,2.51,0,1,1,0,5ZM20.67,19.27a2.51,2.51,0,0,1-2.5-2.51V2.58a2.51,2.51,0,0,1,5,0V16.76a2.52,2.52,0,0,1-2.5,2.51Zm29.21-.08a2.51,2.51,0,0,1-2.5-2.51V2.51a2.51,2.51,0,1,1,5,0V16.68A2.51,2.51,0,0,1,49.88,19.19Zm-16.24,32a2.55,2.55,0,0,1-1.78-.73L21.74,40.29a2.5,2.5,0,0,1,3.54-3.54l8.36,8.35L52.41,26.33A2.51,2.51,0,0,1,56,29.88L35.4,50.42a2.47,2.47,0,0,1-1.76.73Z"/></g></g></svg>