<svg xmlns="http://www.w3.org/2000/svg" xmlns:xlink="http://www.w3.org/1999/xlink" viewBox="0 0 66.06 60.03"><defs><style>.cls-1{fill:url(#未命名的渐变_10);}.cls-2{fill:url(#未命名的渐变_10-2);}.cls-3{fill:url(#未命名的渐变_10-3);}</style><linearGradient id="未命名的渐变_10" x1="35.13" y1="22.64" x2="55.14" y2="22.64" gradientUnits="userSpaceOnUse"><stop offset="0" stop-color="#9fffd8"/><stop offset="1" stop-color="#0c9"/></linearGradient><linearGradient id="未命名的渐变_10-2" x1="4.9" y1="26.49" x2="66.06" y2="26.49" xlink:href="#未命名的渐变_10"/><linearGradient id="未命名的渐变_10-3" x1="0" y1="36.98" x2="37.35" y2="36.98" xlink:href="#未命名的渐变_10"/></defs><title>画像</title><g id="图层_2" data-name="图层 2"><g id="图层_1-2" data-name="图层 1"><path class="cls-1" d="M35.31,16.76H49c.11,0,.19-.17.19-.39V13c0-.21-.08-.39-.19-.39H35.31c-.1,0-.18.18-.18.39v3.41C35.13,16.58,35.21,16.76,35.31,16.76Zm16,0H55c.11,0,.19-.17.19-.39V13c0-.22-.08-.4-.19-.4H51.33c-.11,0-.19.18-.19.4v3.4C51.14,16.61,51.22,16.78,51.33,16.78Zm-16.2,7.58c0,.22.08.4.18.4H49c.11,0,.19-.17.19-.4V21c0-.21-.08-.39-.19-.39H35.31c-.1,0-.18.18-.18.39Zm16,0c0,.21.08.39.19.39H55c.11,0,.19-.18.19-.39V21c0-.21-.08-.39-.19-.39H51.33c-.11,0-.19.18-.19.39Zm0,7.93c0,.22.08.4.19.4H55c.11,0,.19-.18.19-.4v-3.4c0-.22-.08-.39-.19-.39H51.33c-.11,0-.19.17-.19.39Zm-16,0c0,.21.08.39.18.39H49c.11,0,.19-.17.19-.39V28.9c0-.21-.08-.39-.19-.39H35.31c-.1,0-.18.18-.18.39Z"/><path class="cls-2" d="M4.9,0V10.94H9.62V4.5H61.34v44H46.56V53h19.5V0Z"/><path class="cls-3" d="M28,35.56a12.87,12.87,0,1,0-18.75,0,18.9,18.9,0,0,0-3.82,2.94A18.6,18.6,0,0,0,0,51.73c0,3,.75,5.18,2.28,6.56,2.45,2.22,6.11,1.84,10.34,1.41,1.93-.19,3.94-.41,6.06-.41a55.67,55.67,0,0,1,6.06.41c1.65.17,3.21.33,4.65.33,2.25,0,4.19-.39,5.69-1.75s2.27-3.52,2.27-6.55a18.55,18.55,0,0,0-5.47-13.21A18.76,18.76,0,0,0,28,35.56ZM18.65,18.13A8.66,8.66,0,1,1,10,26.78,8.67,8.67,0,0,1,18.65,18.13ZM32.27,55.18c-1.07,1-4,.66-7.1.35-2-.19-4.16-.42-6.49-.42s-4.53.23-6.49.42c-3.1.31-6,.62-7.1-.35-.59-.54-.89-1.7-.89-3.45a14.52,14.52,0,0,1,8.89-13.36,12.84,12.84,0,0,0,11.57-.22,3.07,3.07,0,0,1-.24.29,14.49,14.49,0,0,1,8.74,13.29c0,1.75-.3,2.9-.89,3.45Z"/></g></g></svg>