<svg xmlns="http://www.w3.org/2000/svg" xmlns:xlink="http://www.w3.org/1999/xlink" viewBox="0 0 267.53 272.18"><defs><style>.cls-1{fill:url(#未命名的渐变_23);}.cls-2{fill:url(#未命名的渐变_23-2);}.cls-3{fill:#0c9;}</style><linearGradient id="未命名的渐变_23" x1="120.73" y1="-24.63" x2="120.5" y2="216.62" gradientUnits="userSpaceOnUse"><stop offset="0" stop-color="#fff"/><stop offset="0.79" stop-color="#0c9"/></linearGradient><linearGradient id="未命名的渐变_23-2" x1="196.76" y1="124.26" x2="196.62" y2="265.94" xlink:href="#未命名的渐变_23"/></defs><title>资源 24</title><g id="图层_2" data-name="图层 2"><g id="图层_1-2" data-name="图层 1"><path class="cls-1" d="M81.55,24.4H156a14.1,14.1,0,0,1,13.34,9.4c3.81,11,13.34,28.4,36.21,34.19a10,10,0,0,1,7.48,9.74v27.45a14.09,14.09,0,0,0,14.1,14.09h0a14.09,14.09,0,0,0,14.09-14.09V65.07a17,17,0,0,0-14.64-16.85c-13.45-1.82-31.91-9.47-36-37.12A13,13,0,0,0,177.78,0H62A15.69,15.69,0,0,0,46.59,12.68c-2.46,12.24-10,29.65-33,34.69A17.13,17.13,0,0,0,0,64.05v82.26a69.16,69.16,0,0,0,9.68,35.3c14.57,24.57,46.21,67.5,98.87,89.25a17.34,17.34,0,0,0,23.79-17.6l-.06-.62s-6.77-10.85-20.06-2.71c0,0-44.85-31.32-70.3-61.38a72.57,72.57,0,0,1-17-46.93V79A10.09,10.09,0,0,1,32,69.4c9.08-2.87,24.42-10.59,30.55-30.7A20,20,0,0,1,81.55,24.4Z"/><path class="cls-2" d="M196.69,124.26a70.84,70.84,0,1,0,70.84,70.84A70.84,70.84,0,0,0,196.69,124.26Zm.16,120.45a49.78,49.78,0,1,1,49.78-49.77A49.77,49.77,0,0,1,196.85,244.71Z"/><polygon class="cls-3" points="164.56 75.87 133.95 75.87 133.95 48.16 110.65 48.16 110.65 75.87 80.17 75.87 80.17 98.32 110.65 98.32 110.65 129.45 133.95 129.45 133.95 98.32 164.56 98.32 164.56 75.87"/><polygon class="cls-3" points="177.23 171.58 190.48 184.65 174.9 184.33 174.9 192.42 192.14 192.42 192.14 199.6 173.64 199.6 173.64 208.58 191.96 208.58 191.96 225.64 204.17 225.64 204.17 208.76 224.65 208.58 224.69 199.73 203.63 199.73 203.63 192.42 221.23 192.42 221.23 185.05 204.76 184.83 219.74 172.96 213.81 166.31 198.2 178.81 184.6 165.12 177.23 171.58"/></g></g></svg>