<svg xmlns="http://www.w3.org/2000/svg" xmlns:xlink="http://www.w3.org/1999/xlink" viewBox="0 0 283.35 249.01"><defs><style>.cls-1{fill:url(#未命名的渐变_13);}.cls-2{fill:#0c9;}</style><linearGradient id="未命名的渐变_13" x1="142.53" y1="-24" x2="141.14" y2="175.8" gradientUnits="userSpaceOnUse"><stop offset="0" stop-color="#00cfff"/><stop offset="1" stop-color="#0c9"/></linearGradient></defs><title>专业培训</title><g id="图层_2" data-name="图层 2"><g id="图层_1-2" data-name="图层 1"><path class="cls-1" d="M0,25.94V172.26a25.93,25.93,0,0,0,25.94,25.93H257.42a25.93,25.93,0,0,0,25.93-25.93V25.94A25.93,25.93,0,0,0,257.42,0H25.94A25.94,25.94,0,0,0,0,25.94ZM234.19,170.32H50.71a15.86,15.86,0,0,1-15.87-15.87V43.35A15.87,15.87,0,0,1,50.71,27.48H234.19a15.87,15.87,0,0,1,15.87,15.87v111.1A15.86,15.86,0,0,1,234.19,170.32Z"/><rect class="cls-2" x="53.03" y="57.94" width="157.94" height="22.58" rx="11.29"/><rect class="cls-2" x="53.03" y="103.87" width="86.32" height="22.58" rx="11.29"/><path class="cls-2" d="M42.9,245.11h0a12.22,12.22,0,0,1,.65-17.26l34.52-32,37.87-2L60.16,245.75A12.22,12.22,0,0,1,42.9,245.11Z"/><path class="cls-2" d="M235.8,245.11h0a12.21,12.21,0,0,0-.65-17.26l-34.52-32-38.82-2.27,56.73,52.2A12.22,12.22,0,0,0,235.8,245.11Z"/></g></g></svg>