<svg xmlns="http://www.w3.org/2000/svg" xmlns:xlink="http://www.w3.org/1999/xlink" viewBox="0 0 287.58 321.42"><defs><style>.cls-1{fill:#0c9;}.cls-2{fill:url(#未命名的渐变_13);}</style><linearGradient id="未命名的渐变_13" x1="144.24" y1="-3.63" x2="143.81" y2="283.95" gradientUnits="userSpaceOnUse"><stop offset="0" stop-color="#00cfff"/><stop offset="1" stop-color="#0c9"/></linearGradient></defs><title>节日礼品</title><g id="图层_2" data-name="图层 2"><g id="图层_1-2" data-name="图层 1"><path class="cls-1" d="M67.15,200.63c10.26,12.52,28,22.52,55.83,4.44a23,23,0,0,1,26.39.71c14.62,11,41,21.21,71.09-12.19,4.94-5.48,14.18-3.21,15.75,4a12.44,12.44,0,0,1-.94,8.8c-4.94,9-42.45,50.1-91,21.24a19.69,19.69,0,0,0-18.38-1c-16.77,7.8-51.84,18.77-72-13.1a8.72,8.72,0,0,0-.61-.85c-.19-.24-.48-.6-.82-1.07C45.5,202,59.61,191.43,67.15,200.63Z"/><path class="cls-2" d="M267.1,280.46H244V90.92H208.39V62.6a13.55,13.55,0,0,0-13.51-13.51h-1.75a13.55,13.55,0,0,0-13.5,13.51V90.92H152.87V38.63a13.55,13.55,0,0,0-13.51-13.5h-1.74a13.55,13.55,0,0,0-13.51,13.5V90.92H99.45V62.6A13.54,13.54,0,0,0,86,49.09H84.2A13.54,13.54,0,0,0,70.7,62.6V90.92H34.86V280.46H20.48A20.55,20.55,0,0,0,0,300.94H0a20.55,20.55,0,0,0,20.48,20.48H267.1a20.55,20.55,0,0,0,20.48-20.48h0A20.55,20.55,0,0,0,267.1,280.46ZM68.84,121.86H210v158.6H68.84Z"/><circle class="cls-1" cx="85.4" cy="33.84" r="10.02"/><circle class="cls-1" cx="137.69" cy="10.02" r="10.02"/><circle class="cls-1" cx="192.3" cy="35" r="10.02"/></g></g></svg>