<svg xmlns="http://www.w3.org/2000/svg" xmlns:xlink="http://www.w3.org/1999/xlink" viewBox="0 0 242.71 260.13"><defs><style>.cls-1{fill:#0c9;}.cls-2{fill:url(#未命名的渐变_13);}</style><linearGradient id="未命名的渐变_13" x1="119.69" y1="-10.57" x2="118.14" y2="211.78" gradientUnits="userSpaceOnUse"><stop offset="0" stop-color="#00cfff"/><stop offset="1" stop-color="#0c9"/></linearGradient></defs><title>年终奖金</title><g id="图层_2" data-name="图层 2"><g id="图层_1-2" data-name="图层 1"><path class="cls-1" d="M100.48,66,113,78.34a.14.14,0,0,1-.1.24l-14.12-.29a4.55,4.55,0,0,0-4.63,4.55v.72a4.55,4.55,0,0,0,4.54,4.55h12a4.55,4.55,0,0,1,4.55,4.54v4.13a.15.15,0,0,1-.14.14h-18a4.54,4.54,0,0,0-4.54,4.54v1.92a4.55,4.55,0,0,0,4.54,4.55h17.78a.14.14,0,0,1,.14.14V124.3a4.55,4.55,0,0,0,4.54,4.55h5.89A4.55,4.55,0,0,0,130,124.3v-16a.14.14,0,0,1,.14-.14l20.48-.18a4.56,4.56,0,0,0,4.51-4.53v-1.79a4.54,4.54,0,0,0-4.54-4.57H129.39a0,0,0,0,1,0,0V92.3a4.2,4.2,0,0,1,4.2-4.19H146.4A4.55,4.55,0,0,0,151,83.56h0A4.54,4.54,0,0,0,146.47,79l-15.33-.21a.14.14,0,0,1-.08-.25l14.28-11.31a4.55,4.55,0,0,0,.57-6.59l-1.19-1.34a4.56,4.56,0,0,0-6.24-.52L122.81,71.35a.15.15,0,0,1-.19,0L109,57.67a4.54,4.54,0,0,0-6.22-.21l-2.15,1.88A4.54,4.54,0,0,0,100.48,66Z"/><path class="cls-2" d="M183.9,47.73V148l1.95-1a181.93,181.93,0,0,1,26.7-11V22.27A22.27,22.27,0,0,0,190.27,0H47.85A22.27,22.27,0,0,0,25.58,22.27V136.13c10.05,1.42,21.69,4.24,28.51,12.25.19.21.35.43.52.64V47.73A23.54,23.54,0,0,1,78.15,24.19h82.22A23.53,23.53,0,0,1,183.9,47.73Z"/><path class="cls-1" d="M221.6,111.06,111.43,175.48a6.16,6.16,0,0,1,3.44,1.17c2,1.41,3.9,2.83,5.71,4.34,3.51,2.54,7.12,4.94,10.51,7.67a6.24,6.24,0,0,1,2,6.57l81-45.42V240H183.2c1.66,1,3.31,1.94,4.91,3,8.28,4.56,16.25,9.29,22.34,17.15h13.87a18.39,18.39,0,0,0,18.39-18.39V123.17A14,14,0,0,0,221.6,111.06Z"/><path class="cls-1" d="M224.49,247l-202-136.6A14.4,14.4,0,0,0,0,122.36V237.87a22.26,22.26,0,0,0,22.26,22.26H220.47A7.17,7.17,0,0,0,224.49,247ZM28.8,239.39V151.65l129.76,87.74Z"/></g></g></svg>