<svg xmlns="http://www.w3.org/2000/svg" xmlns:xlink="http://www.w3.org/1999/xlink" viewBox="0 0 275.61 263.23"><defs><style>.cls-1{fill:#0c9;}.cls-2{fill:url(#未命名的渐变_13);}</style><linearGradient id="未命名的渐变_13" x1="138.43" y1="-14.47" x2="137.29" y2="149.05" gradientUnits="userSpaceOnUse"><stop offset="0" stop-color="#00cfff"/><stop offset="1" stop-color="#0c9"/></linearGradient></defs><title>定期团建</title><g id="图层_2" data-name="图层 2"><g id="图层_1-2" data-name="图层 1"><path class="cls-1" d="M20.26,101.81V227.55a35.68,35.68,0,0,0,35.68,35.68H220.32A35.68,35.68,0,0,0,256,227.55V101.81ZM213.89,239.35H62.69a18.53,18.53,0,0,1-18.53-18.53V118.06H232.42V220.82A18.53,18.53,0,0,1,213.89,239.35Z"/><rect class="cls-1" x="194.58" y="130.45" width="21.16" height="88.77" rx="10.58"/><path class="cls-2" d="M258.32,32.9H226.77V12a12,12,0,0,0-12-12H162.13a12,12,0,0,0-12,12V32.9H129.06V12a12,12,0,0,0-12-12H64.42a12,12,0,0,0-12,12V32.9H17.29A17.29,17.29,0,0,0,0,50.19v49a17.3,17.3,0,0,0,17.29,17.29h241a17.3,17.3,0,0,0,17.29-17.29v-49A17.29,17.29,0,0,0,258.32,32.9ZM246.71,93.29h-217V57.68h217Z"/></g></g></svg>