<svg xmlns="http://www.w3.org/2000/svg" xmlns:xlink="http://www.w3.org/1999/xlink" viewBox="0 0 250.01 300.1"><defs><style>.cls-1{fill:url(#未命名的渐变_13);}.cls-2{fill:#0c9;}</style><linearGradient id="未命名的渐变_13" x1="125.25" y1="-0.06" x2="124.97" y2="190.43" gradientUnits="userSpaceOnUse"><stop offset="0" stop-color="#00cfff"/><stop offset="1" stop-color="#0c9"/></linearGradient></defs><title>零食畅享</title><g id="图层_2" data-name="图层 2"><g id="图层_1-2" data-name="图层 1"><path class="cls-1" d="M244,143.27S253.14,76,205.3,62.15A42.38,42.38,0,0,0,131,21.36c-8.63-1.49-124.61-19-120,116,0,0-35.26,43.55,20.31,52.9H221S265.89,183.61,244,143.27ZM167.92,20.94a21.44,21.44,0,1,1-21.44,21.43A21.42,21.42,0,0,1,167.92,20.94Zm18,141.93H62.48c-36.18-6.09-13.22-34.44-13.22-34.44C46.13,37.13,127.7,53,127.7,53c6.43,9.39,39.82,25,39.82,25,40.35,3.13,33.39,54.26,33.39,54.26C215.17,158.52,186,162.87,186,162.87Z"/><path class="cls-2" d="M169.22,188.61h-143v93.5a18,18,0,0,0,18,18H204.88a18,18,0,0,0,18-18v-93.5Zm-26.71,10v83.72H105.8V198.57Zm-94.45,0h31v83.72h-31Zm150.58,83.72H169.22V198.57h29.42Z"/></g></g></svg>