<svg xmlns="http://www.w3.org/2000/svg" xmlns:xlink="http://www.w3.org/1999/xlink" viewBox="0 0 236.9 260.52"><defs><style>.cls-1{fill:url(#未命名的渐变_23);}.cls-2{fill:#0c9;}</style><linearGradient id="未命名的渐变_23" x1="117.53" y1="-25.98" x2="118.86" y2="210.73" gradientUnits="userSpaceOnUse"><stop offset="0" stop-color="#fff"/><stop offset="0.79" stop-color="#0c9"/></linearGradient></defs><title>资源 20</title><g id="图层_2" data-name="图层 2"><g id="图层_1-2" data-name="图层 1"><path class="cls-1" d="M216.65,22.45h-23.1V11.35A11.36,11.36,0,0,0,182.19,0h-129A11.35,11.35,0,0,0,41.81,11.35v11.1H20.26A20.26,20.26,0,0,0,0,42.71V234a26.52,26.52,0,0,0,26.52,26.52H210.39A26.52,26.52,0,0,0,236.9,234V42.71A20.26,20.26,0,0,0,216.65,22.45Zm-155.3-6.1H173.81V53.52H61.35ZM205.16,228.6H31.74V54.33H41.81v.51A15.61,15.61,0,0,0,57.42,70.45H177.94a15.61,15.61,0,0,0,15.61-15.61v-.51h11.61Z"/><rect class="cls-2" x="66.58" y="123.55" width="106.84" height="23.23"/><rect class="cls-2" x="67.94" y="127.32" width="106.84" height="23.23" transform="translate(260.29 17.58) rotate(90)"/></g></g></svg>