<?xml version="1.0" standalone="no"?><!DOCTYPE svg PUBLIC "-//W3C//DTD SVG 1.1//EN" "http://www.w3.org/Graphics/SVG/1.1/DTD/svg11.dtd"><svg t="1615613425817" class="icon" viewBox="0 0 1024 1024" version="1.1" xmlns="http://www.w3.org/2000/svg" p-id="2934" xmlns:xlink="http://www.w3.org/1999/xlink" width="32" height="32"><defs><style type="text/css"></style></defs><path d="M817.947741 1023.772066c-118.810784 0-312.156102-119.665537-504.589683-312.042135-120.805209-120.748226-216.195738-245.827204-268.734607-352.215566-53.108705-107.585017-59.034998-190.211221-16.582224-232.607011L129.130114 25.761483v-1.082688a27.694024 27.694024 0 0 0 4.558687-3.532983A104.450919 104.450919 0 0 1 196.598684 0.004901a98.923511 98.923511 0 0 1 79.150205 38.292972L389.203215 181.041764a98.980495 98.980495 0 0 1-6.724063 135.677926L319.74022 387.493308l3.077114 5.071539a942.166665 942.166665 0 0 0 136.418713 176.820078 942.679518 942.679518 0 0 0 177.104995 136.760614l5.356458 3.248065 66.613815-66.613816a100.97492 100.97492 0 0 1 71.685356-30.31527 98.75256 98.75256 0 0 1 63.82162 23.477239l142.458973 113.169408 6.951998 7.008982a93.51007 93.51007 0 0 1 30.600187 67.63952 103.254264 103.254264 0 0 1-30.543204 74.705486L894.647652 997.217713c-18.462683 17.77888-44.276249 26.782287-76.52896 26.782287zM195.629963 58.185145a47.923199 47.923199 0 0 0-28.09291 9.060391l-0.455869 0.341901-102.57046 102.855379C55.735251 179.047338 51.290531 192.09658 51.290531 209.24864c0.569836 83.708893 112.200687 279.618473 298.30909 462.592778 172.774243 169.811096 372.216805 297.910205 463.960384 297.910205 16.411274 0 28.947663-4.273769 37.324251-12.650357l100.17715-100.17715A43.421495 43.421495 0 0 0 951.631242 797.775151a11.396718 11.396718 0 0 0-7.46485-7.179933l-141.091368-115.73367a44.903068 44.903068 0 0 0-27.067204-9.630226 43.991331 43.991331 0 0 0-31.227007 13.790028l-84.335713 83.879844a30.828122 30.828122 0 0 1-21.59678 8.775473 30.372253 30.372253 0 0 1-13.220193-3.020131 937.892896 937.892896 0 0 1-213.574492-159.55405 938.918601 938.918601 0 0 1-159.55405-213.85941 30.942089 30.942089 0 0 1 5.698359-34.532055l80.403844-83.537942a37.039333 37.039333 0 0 0 14.074947-27.978942 47.410346 47.410346 0 0 0-9.345309-30.372254L328.971562 199.447463v1.196655l-98.866528-124.224224a39.204709 39.204709 0 0 0-34.475071-18.234749z m722.83683 420.766824a26.497369 26.497369 0 0 1-28.491795-28.491795 300.930335 300.930335 0 0 0-300.588433-300.588434 26.497369 26.497369 0 0 1-28.491795-28.491794 26.554353 26.554353 0 0 1 28.491795-28.491795A358.141859 358.141859 0 0 1 947.015571 450.175256a26.497369 26.497369 0 0 1-28.548778 28.776713z m-146.333858 0a26.554353 26.554353 0 0 1-28.491794-28.491795A154.995363 154.995363 0 0 0 589.272597 296.319565a26.497369 26.497369 0 0 1-28.491794-28.491795 26.497369 26.497369 0 0 1 28.491794-28.491794 212.548788 212.548788 0 0 1 211.4661 210.83928 26.497369 26.497369 0 0 1-28.491794 28.491795z" fill="#ffffff" p-id="2935"></path></svg>