<?xml version="1.0" standalone="no"?><!DOCTYPE svg PUBLIC "-//W3C//DTD SVG 1.1//EN" "http://www.w3.org/Graphics/SVG/1.1/DTD/svg11.dtd"><svg t="1615613413467" class="icon" viewBox="0 0 1045 1024" version="1.1" xmlns="http://www.w3.org/2000/svg" p-id="2720" xmlns:xlink="http://www.w3.org/1999/xlink" width="32.65625" height="32"><defs><style type="text/css"></style></defs><path d="M975.42386 450.651915C970.774658 201.358522 777.48544 0 540.215844 0h-34.842292C268.050517 0 74.814738 201.358522 70.112097 450.651915A138.941655 138.941655 0 0 0 0 570.889886v69.470828a139.422607 139.422607 0 0 0 278.791775 0v-69.470828a139.422607 139.422607 0 0 0-138.086629-139.26229C154.332116 229.788122 312.458407 69.470828 505.373552 69.470828h34.842292c192.861705 0 350.987997 159.99666 364.614967 361.943012a139.422607 139.422607 0 0 0-138.08663 139.26229v69.470828a138.941655 138.941655 0 0 0 99.503601 132.849598 367.126605 367.126605 0 0 1-208.946874 136.055944 87.052291 87.052291 0 1 0-8.28306 73.425321 438.200605 438.200605 0 0 0 303.053126-210.870682 138.941655 138.941655 0 0 0 93.518422-130.97923v-69.470827a138.941655 138.941655 0 0 0-70.165536-120.505167z m-766.316669 120.237971v69.470828a69.470828 69.470828 0 0 1-139.422607 0v-69.470828a69.470828 69.470828 0 0 1 139.422607 0z m766.744182 69.470828a69.470828 69.470828 0 0 1-66.585117 69.470828l-2.725394-1.282539c0 0.534391-0.58783 1.015343-0.855025 1.549734a69.470828 69.470828 0 0 1-69.470828-69.470828v-69.470827a69.470828 69.470828 0 0 1 139.422607 0v69.470827z" fill="#666666" p-id="2721"></path></svg>