<?xml version="1.0" standalone="no"?><!DOCTYPE svg PUBLIC "-//W3C//DTD SVG 1.1//EN" "http://www.w3.org/Graphics/SVG/1.1/DTD/svg11.dtd"><svg t="1615613402816" class="icon" viewBox="0 0 1247 1024" version="1.1" xmlns="http://www.w3.org/2000/svg" p-id="2504" xmlns:xlink="http://www.w3.org/1999/xlink" width="38.96875" height="32"><defs><style type="text/css"></style></defs><path d="M608.068347 312.481845c33.73601 0 55.771038-22.745835 55.771038-55.771038s-22.745835-55.716361-55.771038-55.71636S541.307134 222.26399 541.307134 256.984195s34.501495 55.497651 66.761213 55.49765zM365.300299 256c0-32.806493-22.745835-55.771038-55.771038-55.771038S242.768048 221.498505 242.768048 256 277.269543 311.661683 309.529261 311.661683c33.73601 0.820162 55.771038-21.870995 55.771038-55.661683z" fill="#666666" p-id="2505"></path><path d="M1247.685604 650.66211c0-82.016232-36.633917-161.353268-102.684322-222.974797a412.268261 412.268261 0 0 0-244.955148-106.347715V317.129432C861.17044 136.693721 667.502777 0 448.902179 0 200.994447 0 0 172.39812 0 384.382742c0 113.182401 57.192653 215.648014 166.492952 295.586502L129.09355 792.82358a21.870995 21.870995 0 0 0 6.615976 23.456642 22.472448 22.472448 0 0 0 24.222127 2.952584l142.16147-71.080734 16.895343 3.663391h0.710808c44.015378 8.803076 82.016232 16.840666 129.09355 16.840667 8.803076 0 42.539086-2.897907 53.529261-8.037591 54.294746 131.991457 199.518155 220.787698 362.402392 220.787698 41.062794 0 82.891072-9.56856 124.664673-19.847929l109.354976 59.43443a23.894062 23.894062 0 0 0 10.279368 2.952585 19.410508 19.410508 0 0 0 13.94276-5.139684 21.870995 21.870995 0 0 0 7.326783-23.456643l-27.885519-91.694148c93.225117-74.033319 145.278086-164.251175 145.278086-252.992738z m-194.37847 217.069629a19.847928 19.847928 0 0 0-7.326784 22.745835l15.419052 52.107646-65.995728-35.977787a23.839385 23.839385 0 0 0-10.279368-2.897907 12.84921 12.84921 0 0 0-5.139684 0.710807c-38.274242 9.513883-77.751388 19.793251-116.627082 19.793251-178.248612 0-323.472021-122.477574-323.472021-272.840666s145.223409-272.895344 323.472021-272.895344c175.296027 0 322.597181 124.719351 322.59718 272.895344 0.87484 74.798804-46.093123 151.839385-132.647586 216.358821zM221.498505 668.979069a21.214865 21.214865 0 0 0-8.256301-24.222128c-102.465613-71.900897-154.573259-159.166168-154.573259-259.663391 0-181.201196 174.58522-328.611704 389.522426-328.611705 187.762495 0 355.731739 114.439983 392.420333 266.279368-200.228962 4.374199-362.347715 146.699701-362.347714 319.043144a256.601452 256.601452 0 0 0 9.513883 69.713798h-2.952585c-11.700982 0.710807-24.16745 1.476292-36.633917 1.476292-41.828279 0-77.751388-7.381461-116.627082-15.419052l-23.51132-4.428876a30.291328 30.291328 0 0 0-13.888082 1.476292L196.838958 743.61384z" fill="#666666" p-id="2506"></path><path d="M746.730457 509.8129c-22.745835 0-45.49167 22.691158-45.49167 45.436993s22.745835 45.49167 45.49167 45.49167c34.446818 0 55.716361-23.456642 55.716361-45.49167s-21.269543-45.436993-55.716361-45.436993zM980.695429 509.8129c-22.745835 0-44.726185 22.691158-44.726185 45.436993s21.870995 45.49167 44.726185 45.49167c34.501495 0 55.771038-23.456642 55.771038-45.49167s-21.269543-45.436993-55.771038-45.436993z" fill="#666666" p-id="2507"></path></svg>