<?xml version="1.0" standalone="no"?><!DOCTYPE svg PUBLIC "-//W3C//DTD SVG 1.1//EN" "http://www.w3.org/Graphics/SVG/1.1/DTD/svg11.dtd"><svg t="1615613438376" class="icon" viewBox="0 0 1024 1024" version="1.1" xmlns="http://www.w3.org/2000/svg" p-id="3148" xmlns:xlink="http://www.w3.org/1999/xlink" width="32" height="32"><defs><style type="text/css"></style></defs><path d="M511.999693 0.000154a511.999693 511.999693 0 0 0-425.881345 796.108322 33.38238 33.38238 0 0 0 55.500767-37.171178 445.439733 445.439733 0 1 1 122.879926 122.879927 33.38238 33.38238 0 0 0-37.171177 55.500766A511.999693 511.999693 0 1 0 511.999693 0.000154zM323.276606 535.091033q-21.299187 0-21.299187-18.585589V465.919874q0-20.479988 21.299187-20.479988h138.803117a272.383837 272.383837 0 0 1-25.241585 89.804746zM524.441285 445.439886h175.923095a30.259182 30.259182 0 0 1 17.971189 4.607998c3.635198 2.611198 5.478397 7.987195 5.478397 16.07679v54.067167c0 9.932794-7.782395 14.899191-23.449586 14.899192H504.370897A534.834879 534.834879 0 0 0 524.441285 445.439886z m-189.900686 212.479873q-37.119978 25.599985-107.519935 46.540772v52.633568a395.468563 395.468563 0 0 0 46.079972-7.014395 301.772619 301.772619 0 0 0 104.396738-49.561571Q431.359741 661.042957 476.159714 591.359799h46.079973v103.526338q0 31.641581 18.841588 46.540772a67.27676 67.27676 0 0 0 43.519974 13.721592h205.465477v-57.855966H604.159638a27.443184 27.443184 0 0 1-17.66399-4.556797c-3.430398-2.867198-5.119997-9.011195-5.119997-18.585589l0.3072-82.79035h138.803117a62.873562 62.873562 0 0 0 45.004773-16.69119q14.899191-14.335991 14.899191-43.519974v-81.919951q0-29.900782-16.38399-45.055973a67.17436 67.17436 0 0 0-31.385582-14.284791l16.127991-37.171178a70.195158 70.195158 0 0 0 7.014396-27.084784 52.787168 52.787168 0 0 0-17.66399-38.911976q-17.868789-17.868789-49.30557-17.91999H359.526184l8.806395-30.156782H311.091013q-15.359991 43.263974-31.94878 63.283162a77.772753 77.772753 0 0 1-46.079973 29.849583v58.163165a190.003086 190.003086 0 0 0 57.958365-25.907185 191.948685 191.948685 0 0 0 39.884776-38.963176H665.599601c12.031993 0 19.507188 0.8192 22.527986 2.457598a11.212793 11.212793 0 0 1 7.014396 10.239994 56.319966 56.319966 0 0 1-6.092796 20.479988l-13.363192 29.542382H326.041404q-46.079972 0-63.027162 15.82079c-11.929593 11.366393-17.971189 27.596783-17.971189 48.691171v75.775955q0 47.257572 38.963177 60.262364a143.359914 143.359914 0 0 0 36.863977 3.020798h82.483151a324.812605 324.812605 0 0 1-68.812759 66.55996z" fill="#ffffff" p-id="3149"></path></svg>