<?xml version="1.0" standalone="no"?><!DOCTYPE svg PUBLIC "-//W3C//DTD SVG 1.1//EN" "http://www.w3.org/Graphics/SVG/1.1/DTD/svg11.dtd"><svg t="1615887369755" class="icon" viewBox="0 0 2807 1024" version="1.1" xmlns="http://www.w3.org/2000/svg" p-id="1384" xmlns:xlink="http://www.w3.org/1999/xlink" width="87.71875" height="32"><defs><style type="text/css"></style></defs><path d="M1015.408094 415.601973v-30.116085h76.636578V291.488272h-70.648792v-30.116085h171.767976v30.116085h-71.03853v93.997616h76.636579v30.116085z m-98.709898 0V336.804122l-63.775239 20.301785-9.318271-28.344551 73.164372-23.738561V251.097287h-62.570596L871.59493 145.265822h-23.525977v-30.045224h28.344551l7.086137-44.075776 30.045224 4.854004L907.025618 115.220598h99.205927V145.265822h-103.918208l-12.32988 75.71538h26.714739V161.563938h30.080654v59.452695h53.819216v30.080654h-53.819216v44.182069l54.882137-17.715345 8.857672 28.769719-63.775239 20.726953v88.57672z m200.077097-223.709366a301.16085 301.16085 0 0 1-91.730052 62.003705l-2.125842 0.956628-12.40074-27.458783 2.161272-0.956629c58.17719-25.970694 96.725779-59.523556 124.432577-108.417906H1023.946889v-30.080654h161.493077l-1.488089 3.295054a381.269636 381.269636 0 0 1-46.8748 77.73493l66.007372 67.920629-22.073319 20.762384zM1266.43452 415.212235v-30.080654h36.812485v-187.782648a50.276147 50.276147 0 0 1 49.42581-49.815547h69.833886v-24.659759h-147.497955v-30.080655h147.497955v-23.561407H1452.658217v23.561407h147.285371v30.080655H1452.658217v24.482605h69.798456a49.602964 49.602964 0 0 1 49.071503 49.815548v187.959801h37.379376v30.080654zM1541.234937 385.131581v-187.782648a18.742834 18.742834 0 0 0-18.990849-19.345155h-169.712996a19.132572 19.132572 0 0 0-19.345156 19.345155v187.782648zM1839.880208 416.346017a42.516826 42.516826 0 0 1-42.72941-42.516826V292.126024a42.516826 42.516826 0 0 1 42.72941-42.516826h142.041629a42.516826 42.516826 0 0 1 42.72941 42.516826v81.880321a42.516826 42.516826 0 0 1-42.72941 42.516826z m142.041629-30.151515a12.188157 12.188157 0 0 0 12.613325-12.259019v-26.395862h-68.593812V386.194502z m-154.690384-12.259019a12.329879 12.329879 0 0 0 12.648755 12.259019h55.980488V347.539621h-68.629243z m167.303709-56.689101v-25.120358a12.259018 12.259018 0 0 0-12.613325-12.223587h-55.980487v37.556529z m-98.674466 0V279.902437h-55.980488a12.613325 12.613325 0 0 0-12.648755 12.223587v25.332942zM1686.500759 416.346017V386.194502h20.301784c8.963964 0 15.97924-8.503365 15.979241-19.380587V300.416805l-33.623723 20.372646-15.44778-26.076986 49.071503-30.045224V150.544994h-41.985366V120.46434h41.879074V71.109391h30.080654V120.46434h25.439234v30.116085h-25.439234v95.662858l24.624328-15.164334 15.41235 25.935263-40.107539 24.801482v85.033652c0 27.28163-20.656091 49.602964-46.059895 49.602963z m115.893781-179.70445l13.286508-47.583415h-18.778265v-30.116085h25.120358l-11.160666-40.1784 29.194887-7.086138L1853.024994 158.942067h42.977424v-53.146032H1803.42203v-30.116085h215.135139v30.116085h-92.615819v53.146032h42.516826l13.215647-47.264538 29.194887 7.086138-11.054375 40.1784h25.120358v30.116085h-19.132572l14.172275 47.583415-29.230317 7.086137-15.837518-54.669552h-48.965211v51.197345h-30.080654V189.058152h-49.319518l-15.058043 54.669552z" fill="#FFFFFF" p-id="1385"></path><path d="M1363.337452 353.137669l89.001889-113.27191h-87.5138v-26.7856h146.541326L1422.400409 324.190797h87.478369v28.946872h-146.541326zM949.081845 467.685084a101.083753 101.083753 0 1 0 101.083754 101.083754A101.119184 101.119184 0 0 0 949.081845 467.685084z m0 176.480258a75.290212 75.290212 0 1 1 75.396505-75.396504 75.290212 75.290212 0 0 1-75.396505 75.467366zM1137.325092 660.00286v-142.325074h22.640209v142.325074zM1243.121127 660.00286V517.996662h11.621265l90.277394 99.772818V517.996662h21.754443v142.006198h-11.621266l-90.10024-99.418511v99.418511zM1545.805496 604.801848v-20.443507h58.531497V627.123181a79.78991 79.78991 0 0 1-32.100203 27.77766 105.193713 105.193713 0 0 1-45.882742 9.459994q-39.221772 0-64.164976-21.258413a70.436208 70.436208 0 0 1 0.177153-107.709292q25.084927-21.258413 63.987823-21.258413a106.717233 106.717233 0 0 1 43.650608 8.467934 81.136276 81.136276 0 0 1 31.675035 24.801482l-17.148453 12.400741a60.23217 60.23217 0 0 0-24.340882-18.53025 83.262117 83.262117 0 0 0-33.836308-6.731831q-29.088595 0-47.689706 15.44778a50.347008 50.347008 0 0 0 0 78.124668q18.565681 15.483211 47.795998 15.44778a85.281667 85.281667 0 0 0 33.836308-6.625539 44.678098 44.678098 0 0 0 21.683581-16.935869v-15.199765zM1730.045075 660.00286v-122.200444H1670.202642v-19.805754h141.970768v19.805754h-60.019586v122.200444zM1953.506425 660.00286h-11.479543L1870.740338 517.996662h23.596838l53.358617 106.292064 52.54371-106.292064h24.447175z" fill="#FFFFFF" p-id="1386"></path><path d="M994.971673 629.645846l18.788894-18.792437 39.133195 39.133196-18.788894 18.792437z" fill="#FFFFFF" p-id="1387"></path><path d="M630.311943 108.13446A369.046048 369.046048 0 1 0 683.812283 562.426745l-260.557282-260.628143a93.359863 93.359863 0 1 0-3.897375 135.699536l66.467971 66.467971a187.251187 187.251187 0 1 1 3.861945-268.564617l234.728309 234.72831A369.152341 369.152341 0 0 0 630.311943 108.13446" fill="#00CC99" p-id="1388"></path></svg>