<?xml version="1.0" standalone="no"?><!DOCTYPE svg PUBLIC "-//W3C//DTD SVG 1.1//EN" "http://www.w3.org/Graphics/SVG/1.1/DTD/svg11.dtd"><svg t="1612439853115" class="icon" viewBox="0 0 1152 1024" version="1.1" xmlns="http://www.w3.org/2000/svg" p-id="8285" xmlns:xlink="http://www.w3.org/1999/xlink" width="36" height="32"><defs><style type="text/css"></style></defs><path d="M978.560364 186.181818c0 24.522182-16.638545 46.545455-37.158545 46.545455L177.188 232.727273c-20.520727 0-37.159273-22.023273-37.159273-46.545455l0 0c0-24.522182 16.637818-46.545455 37.159273-46.545455l764.213818 0C961.921818 139.636364 978.560364 161.659636 978.560364 186.181818L978.560364 186.181818z" p-id="8286"></path><path d="M978.560364 512c0 24.522182-16.638545 46.545455-37.158545 46.545455L177.188 558.545455c-20.520727 0-37.159273-22.023273-37.159273-46.545455l0 0c0-24.522182 16.637818-46.545455 37.159273-46.545455l764.213818 0C961.921818 465.454545 978.560364 487.477818 978.560364 512L978.560364 512z" p-id="8287"></path><path d="M978.560364 837.818182c0 24.522182-16.638545 46.545455-37.158545 46.545455L177.188 884.363636c-20.520727 0-37.159273-22.023273-37.159273-46.545455l0 0c0-24.522182 16.637818-46.545455 37.159273-46.545455l764.213818 0C961.921818 791.272727 978.560364 813.296 978.560364 837.818182L978.560364 837.818182z" p-id="8288"></path></svg>