<svg xmlns="http://www.w3.org/2000/svg" viewBox="0 0 164.8 165.97"><defs><style>.cls-1{fill:#bbb;}.cls-2{isolation:isolate;font-size:14px;fill:#999;font-family:MicrosoftYaHei, Microsoft YaHei;}</style></defs><title>资源 1</title><g id="图层_2" data-name="图层 2"><g id="图层_1-2" data-name="图层 1"><path class="cls-1" d="M19.4,125.7a1.8,1.8,0,0,1,0,3.6H1.8a1.8,1.8,0,0,1,0-3.6Zm135.3-13.9a1.8,1.8,0,1,1,0,3.6H124v4.7a9,9,0,0,1-9.1,9.1h-5.5a4.77,4.77,0,0,1-1.3,3.1,4.47,4.47,0,0,1-6.4,0l-2.9-3.1H28.5a1.8,1.8,0,0,1,0-3.6h8a9.06,9.06,0,0,1-1.8-5.5v-91A9,9,0,0,1,43.8,20h5.8V15.3a9,9,0,0,1,9.1-9.1h71.4a9,9,0,0,1,9.1,9.1v91a9.52,9.52,0,0,1-1.8,5.5Zm-28.7,0h3.8a5.34,5.34,0,0,0,5.4-5.5v-91a5.4,5.4,0,0,0-5.4-5.5H58.4A5.34,5.34,0,0,0,53,15.3V20h62.1a9,9,0,0,1,9.1,9.1v82.7Zm-42.7-4.5a15.8,15.8,0,0,0-11.1-27,15.33,15.33,0,0,0-11.1,4.6,15.8,15.8,0,0,0,11.1,27A17,17,0,0,0,83.3,107.3ZM64.2,90.5c.4.2.5.7.4,1.3a8.59,8.59,0,0,0-.5,7.5c.2.5,0,.9-.5,1.3h-.4a1.05,1.05,0,0,1-.9-.5,11.51,11.51,0,0,1,.5-9.1,1.19,1.19,0,0,1,1.4-.5Zm56.3,29.7v-91a5.42,5.42,0,0,0-5.5-5.5H43.5a5.34,5.34,0,0,0-5.4,5.5v91a5.4,5.4,0,0,0,5.4,5.5H95.3l-5.1-5.1a4.56,4.56,0,0,1-1.1-4.7l-4.5-4.7a19.3,19.3,0,0,1-26.1-1,19.4,19.4,0,0,1-.1-27.4l.1-.1a19.34,19.34,0,0,1,13.8-5.6,19.41,19.41,0,0,1,15.1,31.8l4.7,4.7a4.19,4.19,0,0,1,4.7,1.1L108.1,126h7.1a5.94,5.94,0,0,0,5.3-5.8ZM54.8,42.4a1.8,1.8,0,0,1,0-3.6H86.6a1.8,1.8,0,1,1,0,3.6Zm42.3,8.1a1.8,1.8,0,1,1,0,3.6H55.3a1.8,1.8,0,1,1,0-3.6ZM76.8,62.1a1.8,1.8,0,0,1,0,3.6H54.4a1.8,1.8,0,1,1,0-3.6ZM7.4,22a3.6,3.6,0,1,1-3.6,3.6A3.72,3.72,0,0,1,7.4,22Zm0,11a7.3,7.3,0,0,0,0-14.6A7.3,7.3,0,0,0,7.4,33Zm152,3.1a1.8,1.8,0,1,1,1.8-1.8A1.73,1.73,0,0,1,159.4,36.1Zm0-7.3a5.34,5.34,0,0,0-5.4,5.5,5.4,5.4,0,1,0,10.8,0A5.22,5.22,0,0,0,159.4,28.8ZM26.6,9.8a1.8,1.8,0,0,0,3.6,0V7.6h2.2a1.68,1.68,0,0,0,1.8-1.8A1.68,1.68,0,0,0,32.4,4H30.2V1.8a1.8,1.8,0,0,0-3.6,0V4H24.4a1.68,1.68,0,0,0-1.8,1.8,1.68,1.68,0,0,0,1.8,1.8h2.2Zm-4.3,51H20.1V58.6a1.68,1.68,0,0,0-1.8-1.8,1.68,1.68,0,0,0-1.8,1.8v2.2H14.3a1.8,1.8,0,1,0,0,3.6h2.2v2.2a1.68,1.68,0,0,0,1.8,1.8,1.68,1.68,0,0,0,1.8-1.8V64.4h2.2a1.68,1.68,0,0,0,1.8-1.8A1.73,1.73,0,0,0,22.3,60.8Z"/><path class="cls-1" d="M157.2,65.9H155V63.7a1.8,1.8,0,0,0-3.6,0v2.2h-2.2a1.8,1.8,0,1,0,0,3.6h2.2v2.2a1.8,1.8,0,0,0,3.6,0V69.5h2.2a1.68,1.68,0,0,0,1.8-1.8,1.73,1.73,0,0,0-1.8-1.8"/><text class="cls-2" transform="translate(54.4 162.39)">暂无内容</text></g></g></svg>